<svg width="243" height="182" viewBox="0 0 243 182" fill="none" xmlns="http://www.w3.org/2000/svg">
<g clip-path="url(#clip0_394_2)">
<path d="M84.25 154.39C84.16 154.35 84.07 154.28 84.01 154.18C83.9 154.02 83.79 153.83 83.77 153.64C83.72 153.34 83.85 153.05 84.06 152.87C84.08 153.39 84.14 153.9 84.25 154.39Z" fill="black"/>
<path d="M84.14 145.64L84.12 147.26C83.81 147.08 83.62 146.79 83.52 146.44C83.46 146.21 83.67 145.87 83.84 145.64C83.87 145.59 84 145.6 84.14 145.64Z" fill="black"/>
<path d="M84.2401 139.58L84.2201 140.76C84.1301 140.83 84.0401 140.91 83.9401 141C83.7801 140.6 83.6001 140.34 83.6001 140.08C83.5901 139.8 83.9601 139.56 84.2401 139.58Z" fill="black"/>
<path d="M174.16 5.18994H68.07C68.07 5.18994 68.03 5.19994 68.01 5.19994C65.11 5.20994 62.22 5.96994 59.57 7.49994C54.35 10.5099 51.11 16.1299 51.1 22.1599V36.8999C51.1 38.7799 51.84 40.5499 53.17 41.8799C54.5 43.2199 56.27 43.9499 58.15 43.9499H80.04V152.35C80.04 161.69 87.63 169.3 96.96 169.33H97.42L178.9 168.44C176.72 167.09 174.68 165.72 172.78 164.33H155.04C154.82 164.48 154.57 164.57 154.31 164.57C154 164.57 153.73 164.48 153.5 164.33H148.94C148.83 164.52 148.7 164.68 148.55 164.76C148.28 164.91 147.97 164.99 147.67 165.09C146.81 165.38 146.27 165.94 146.13 166.87C146.12 166.95 146.09 167.01 146.06 167.07C145.12 166.98 144.17 166.89 143.23 166.82C143.2 166.78 143.18 166.75 143.15 166.71C142.99 166.47 143.13 165.97 143.36 165.9C143.76 165.79 144.17 165.72 144.57 165.6C145.19 165.42 145.7 165.09 145.9 164.41C145.91 164.38 145.92 164.36 145.93 164.33H141.41C141.41 164.33 141.35 164.39 141.32 164.42C141.18 164.55 140.93 164.56 140.72 164.61C140.15 164.74 139.82 165.13 139.63 165.65C139.53 165.95 139.48 166.27 139.4 166.57C139.4 166.59 139.39 166.6 139.38 166.62C138.31 166.58 137.24 166.58 136.17 166.6C136.73 165.76 137.48 165.14 138.29 164.54C138.37 164.48 138.45 164.41 138.53 164.33H115.7C115.54 164.46 115.34 164.52 115.15 164.47C115.01 164.43 114.87 164.39 114.74 164.33H97C91.1 164.32 85.38 160.02 84.25 154.39C84.16 154.35 84.07 154.28 84.01 154.18C83.9 154.02 83.79 153.83 83.77 153.64C83.72 153.34 83.85 153.05 84.06 152.87C84.04 152.7 84.04 152.53 84.04 152.35L84.12 147.26C83.81 147.08 83.62 146.79 83.52 146.44C83.46 146.21 83.67 145.87 83.84 145.64C83.87 145.59 84 145.6 84.14 145.64L84.22 140.76C84.13 140.83 84.04 140.91 83.94 141C83.78 140.6 83.6 140.34 83.6 140.08C83.59 139.8 83.96 139.56 84.24 139.58L86.04 22.1599C86.04 17.8899 83.62 13.9999 80.88 11.0199C80.74 10.8599 80.59 10.6999 80.44 10.5499C80.32 10.4299 80.21 10.3099 80.09 10.1899H80.1L174.16 9.18994C180.76 9.18994 186.12 15.5599 186.12 22.1599V112.75C187.76 113.66 189.43 114.71 191.12 115.94V22.1599C191.12 12.7999 183.51 5.18994 174.16 5.18994ZM131.03 165.68C131.73 165.72 132.33 165.91 132.78 166.48C131.72 166.4 130.66 166.33 129.61 166.25C129.86 165.78 130.29 165.62 131.03 165.68ZM80.04 38.9499H58.15C57.61 38.9499 57.09 38.7399 56.7 38.3499C56.32 37.9599 56.1 37.4399 56.1 36.8999L55.1 22.1599C55.11 17.9099 58.4 13.9499 62.07 11.8199C63.95 10.7399 66.01 10.1899 68.07 10.1899C68.33 10.1899 68.6 10.1999 68.86 10.2199C69.1 10.2199 69.34 10.2499 69.57 10.2899C69.6 10.2899 69.62 10.2899 69.64 10.2999C70.14 10.3599 70.63 10.4599 71.12 10.5899C71.37 10.6499 71.63 10.7299 71.87 10.8199C73.41 11.3199 74.81 12.1399 75.99 13.1999C76.18 13.3599 76.36 13.5299 76.53 13.6999C77.23 14.3899 77.83 15.1599 78.33 15.9899C78.43 16.1499 78.52 16.2999 78.59 16.4599C78.88 16.9699 79.12 17.4999 79.31 18.0499C79.38 18.2299 79.45 18.4199 79.5 18.6099C79.56 18.7899 79.62 18.9799 79.66 19.1699C79.78 19.6299 79.87 20.0999 79.93 20.5799C79.97 20.8099 79.99 21.0499 80 21.2899C80.03 21.5699 80.04 21.8699 80.04 22.1599V38.9499ZM187.94 110.02C187.8 110.13 187.58 110.23 187.43 110.2C187.02 110.12 186.7 109.54 186.91 109.32C187.04 109.18 187.23 109.11 187.4 109.01C187.57 109.1 187.76 109.16 187.91 109.28C188.18 109.5 188.2 109.8 187.94 110.02Z" fill="black"/>
<path d="M114.74 164.33H115.7C115.54 164.46 115.34 164.52 115.15 164.47C115.01 164.43 114.87 164.39 114.74 164.33Z" fill="black"/>
<path d="M131.03 165.68C131.73 165.72 132.33 165.91 132.78 166.48C131.72 166.4 130.66 166.33 129.61 166.25C129.86 165.78 130.29 165.62 131.03 165.68Z" fill="black"/>
<path d="M138.53 164.33H141.41C141.41 164.33 141.35 164.39 141.32 164.42C141.18 164.55 140.93 164.56 140.72 164.61C140.15 164.74 139.82 165.13 139.63 165.65C139.53 165.95 139.48 166.27 139.4 166.57C139.4 166.59 139.39 166.6 139.38 166.62C138.31 166.58 137.24 166.58 136.17 166.6C136.73 165.76 137.48 165.14 138.29 164.54C138.37 164.48 138.45 164.41 138.53 164.33Z" fill="black"/>
<path d="M145.93 164.33H148.94C148.83 164.52 148.7 164.68 148.55 164.76C148.28 164.91 147.97 164.99 147.67 165.09C146.81 165.38 146.27 165.94 146.13 166.87C146.12 166.95 146.09 167.01 146.06 167.07C145.12 166.98 144.17 166.89 143.23 166.82C143.2 166.78 143.18 166.75 143.15 166.71C142.99 166.47 143.13 165.97 143.36 165.9C143.76 165.79 144.17 165.72 144.57 165.6C145.19 165.42 145.7 165.09 145.9 164.41C145.91 164.38 145.92 164.36 145.93 164.33Z" fill="black"/>
<path d="M153.5 164.33H155.04C154.82 164.48 154.57 164.57 154.31 164.57C154 164.57 153.73 164.48 153.5 164.33Z" fill="black"/>
<path d="M191.12 166.83C191.12 166.89 191.12 166.95 191.11 167.01C191.11 167.09 191.09 167.16 191.08 167.23V167.25C190.89 168.13 190.05 168.3 188.99 168.32C188.94 168.33 188.9 168.33 188.85 168.33H188.62L178.91 168.44H178.9C176.72 167.09 174.68 165.72 172.78 164.33H188.63C189.32 164.33 189.94 164.61 190.39 165.06C190.45 165.12 190.5 165.18 190.55 165.24C190.91 165.67 191.12 166.23 191.12 166.83Z" fill="black"/>
<path d="M187.94 110.02C187.8 110.13 187.58 110.23 187.43 110.2C187.02 110.12 186.7 109.54 186.91 109.32C187.04 109.18 187.23 109.11 187.4 109.01C187.57 109.1 187.76 109.16 187.91 109.28C188.18 109.5 188.2 109.8 187.94 110.02Z" fill="black"/>
<path d="M191.12 115.94V117.47C191.12 118.07 190.91 118.63 190.55 119.06C190.1 119.62 189.4 119.97 188.62 119.97C187.24 119.97 186.12 118.85 186.12 117.47V112.75C187.76 113.66 189.43 114.71 191.12 115.94Z" fill="black"/>
<path d="M80.1 10.1899H80.09C80.21 10.3099 80.32 10.4299 80.44 10.5499C80.34 10.4299 80.22 10.3099 80.1 10.1899ZM71.87 10.8199C72.61 11.0799 73.34 11.4099 74.04 11.8099C74.74 12.2099 75.4 12.6799 75.99 13.1999C74.81 12.1399 73.41 11.3199 71.87 10.8199Z" fill="black"/>
<path d="M108.38 156.65C109.71 153.24 109.4 149.45 107.49 146.23C105.33 142.62 101.58 140.46 97.3999 140.39H96.9999C95.6299 140.39 94.5099 139.28 94.4999 137.91C94.4899 136.54 95.5999 135.41 96.9699 135.39H148.38C149.76 135.39 150.88 136.51 150.88 137.89C150.88 138.22 150.82 138.53 150.7 138.82C150.6 139.07 150.47 139.29 150.3 139.49C149.84 140.04 149.15 140.39 148.38 140.39H109.25C110.21 141.36 111.06 142.46 111.78 143.67C112.73 145.27 113.4 146.97 113.79 148.71C113.99 149.61 114.12 150.49 114.17 151.39C114.34 154.23 113.77 157.1 112.47 159.76C112.33 160.06 112.18 160.35 112.02 160.64C111.86 160.93 111.68 161.22 111.5 161.5C110.84 162.53 110.08 163.48 109.24 164.33H97.3899C98.3399 164.31 99.2599 164.19 100.16 163.96H100.18C101.05 163.74 101.87 163.42 102.66 163.01C104.73 161.95 106.48 160.3 107.65 158.2C107.79 157.95 107.92 157.69 108.04 157.43C108.17 157.17 108.28 156.91 108.38 156.65Z" fill="black"/>
<path d="M115.15 164.47C115.01 164.43 114.87 164.39 114.74 164.33H115.7C115.54 164.46 115.34 164.52 115.15 164.47Z" fill="black"/>
<path d="M131.03 165.68C131.73 165.72 132.33 165.91 132.78 166.48C131.72 166.4 130.66 166.33 129.61 166.25C129.86 165.78 130.29 165.62 131.03 165.68Z" fill="black"/>
<path d="M138.53 164.33H141.41C141.41 164.33 141.35 164.39 141.32 164.42C141.18 164.55 140.93 164.56 140.72 164.61C140.15 164.74 139.82 165.13 139.63 165.65C139.53 165.95 139.48 166.27 139.4 166.57C139.4 166.59 139.39 166.6 139.38 166.62C138.31 166.58 137.24 166.58 136.17 166.6C136.73 165.76 137.48 165.14 138.29 164.54C138.37 164.48 138.45 164.41 138.53 164.33Z" fill="black"/>
<path d="M145.93 164.33H148.94C148.83 164.52 148.7 164.68 148.55 164.76C148.28 164.91 147.97 164.99 147.67 165.09C146.81 165.38 146.27 165.94 146.13 166.87C146.12 166.95 146.09 167.01 146.06 167.07C145.12 166.98 144.17 166.89 143.23 166.82C143.2 166.78 143.18 166.75 143.15 166.71C142.99 166.47 143.13 165.97 143.36 165.9C143.76 165.79 144.17 165.72 144.57 165.6C145.19 165.42 145.7 165.09 145.9 164.41C145.91 164.38 145.92 164.36 145.93 164.33Z" fill="black"/>
<path d="M154.31 164.57C154 164.57 153.73 164.48 153.5 164.33H155.04C154.82 164.48 154.57 164.57 154.31 164.57Z" fill="black"/>
<path d="M191.13 166.83C191.13 166.89 191.12 166.95 191.11 167.01C191.11 167.09 191.09 167.16 191.08 167.23V167.25C190.96 167.93 190.59 168.53 190.04 168.89C190.02 168.91 190 168.92 189.98 168.93H189.97C189.58 169.18 189.13 169.33 188.63 169.33H97.42L178.9 168.44C176.72 167.09 174.68 165.72 172.78 164.33H188.63C189.32 164.33 189.94 164.61 190.39 165.06C190.45 165.12 190.5 165.18 190.55 165.24C190.92 165.67 191.13 166.23 191.13 166.83Z" fill="black"/>
<path d="M153.13 107.51H105.98C104.6 107.51 103.48 106.39 103.48 105.01C103.48 103.63 104.6 102.51 105.98 102.51H153.13C154.51 102.51 155.63 103.63 155.63 105.01C155.63 106.39 154.51 107.51 153.13 107.51Z" fill="black"/>
<path d="M146.3 121.98H105.98C104.6 121.98 103.48 120.86 103.48 119.48C103.48 118.1 104.6 116.98 105.98 116.98H146.3C147.68 116.98 148.8 118.1 148.8 119.48C148.8 120.86 147.68 121.98 146.3 121.98Z" fill="black"/>
<path d="M197.86 172.74C266.39 149.39 235.86 88.91 197.97 125.36C166.07 91.9 130.61 143.19 197.86 172.74Z" fill="#3D9CFB"/>
<path d="M174.56 158.67C174.94 159 175.32 159.32 175.72 159.63C175.99 159.85 176.26 160.07 176.53 160.29C177.08 160.73 177.65 161.16 178.23 161.59C178.52 161.81 178.82 162.02 179.12 162.24C180.09 162.95 181.11 163.64 182.16 164.33H182.41C179.88 162.67 177.21 160.76 174.56 158.67ZM194.66 118.71C193.47 117.7 192.29 116.78 191.12 115.94C189.43 114.71 187.76 113.66 186.12 112.75C184.4 111.8 182.71 111.02 181.06 110.41H181.05C180.84 110.32 180.64 110.25 180.43 110.18C169.52 106.31 160.34 109.31 155.27 116.03C154.99 116.4 154.72 116.78 154.48 117.17C152.85 119.67 151.75 122.62 151.29 125.87C151.23 126.26 151.18 126.64 151.14 127.04C150.99 128.69 150.99 130.41 151.17 132.18C151.23 132.82 151.31 133.46 151.42 134.11C152.99 143.67 159.49 154.57 172.78 164.33C174.68 165.72 176.72 167.09 178.9 168.44H178.91C179.4 168.74 179.89 169.04 180.4 169.33C184.18 171.56 188.38 173.7 193.01 175.72C193.99 176.23 195.15 176.27 196.15 175.82C269.16 149.6 238.92 81.17 194.66 118.71ZM159.87 118.28C164.21 113.24 170.38 112.84 176.26 114.43H176.27C183.01 116.24 189.34 120.65 192.08 123.71C193.25 124.96 195.17 125.26 195.94 124.08C196.07 123.96 196.19 123.84 196.32 123.72C208.95 111.81 220.76 110.59 227.97 115.25C227.97 115.26 227.98 115.26 227.98 115.26C241.36 123.89 238.91 152.71 196.56 170.77C195.64 171.22 194.55 171.18 193.66 170.67C192.67 170.25 191.44 169.65 190.04 168.89C189.7 168.71 189.35 168.52 188.99 168.32C187.03 167.24 184.79 165.89 182.41 164.33C179.88 162.67 177.21 160.76 174.56 158.67C174.55 158.66 174.53 158.65 174.52 158.64C160.92 147.87 148.04 132.06 159.87 118.28ZM174.56 158.67C174.94 159 175.32 159.32 175.72 159.63C175.99 159.85 176.26 160.07 176.53 160.29C177.08 160.73 177.65 161.16 178.23 161.59C178.52 161.81 178.82 162.02 179.12 162.24C180.09 162.95 181.11 163.64 182.16 164.33H182.41C179.88 162.67 177.21 160.76 174.56 158.67Z" fill="#001434"/>
<path d="M189.61 150.92C189.56 151.14 189.58 151.51 189.4 151.69C189.22 151.86 188.83 151.93 188.57 151.88C188.01 151.77 187.7 151.36 187.63 150.79C187.58 150.37 187.96 149.95 188.36 149.98C188.93 150.02 189.32 150.34 189.62 150.92H189.61Z" fill="black"/>
<path d="M225.72 127.31C226.22 127.09 226.6 127.17 226.93 127.52C227.17 127.78 227.14 128.08 226.99 128.36C226.76 128.78 226.39 128.92 225.97 128.79C225.48 128.64 225.15 128.27 225.28 127.94C225.39 127.68 225.61 127.46 225.72 127.31Z" fill="black"/>
<path d="M214.26 132.98C213.82 133.21 213.22 132.96 213.02 132.48C212.88 132.13 213.09 131.61 213.45 131.47C213.94 131.28 214.56 131.51 214.71 131.95C214.82 132.28 214.6 132.83 214.26 132.98Z" fill="black"/>
<path d="M221.26 129.85C221.21 130.04 221.16 130.35 221.03 130.61C220.86 130.95 220.19 131 219.97 130.68C219.8 130.44 219.69 130.14 219.65 129.85C219.59 129.41 219.96 129.03 220.36 129.04C220.79 129.04 221.18 129.35 221.26 129.85Z" fill="black"/>
<path d="M225.69 142.69C225.64 142.89 225.65 143.14 225.53 143.27C225.23 143.59 224.81 143.69 224.37 143.62C223.93 143.55 223.53 143.1 223.62 142.79C223.76 142.28 224.03 142.01 224.45 141.97C225.05 141.91 225.55 142.2 225.68 142.69H225.69Z" fill="black"/>
<path d="M199.24 161.44C199.97 161.25 200.78 161.89 200.6 162.59C200.54 162.83 200.24 163.12 200.01 163.18C199.28 163.36 198.63 162.62 198.84 161.87C198.89 161.7 199.1 161.59 199.24 161.45V161.44Z" fill="black"/>
<path d="M222.49 148.19C222.17 148.31 221.6 148.02 221.49 147.67C221.3 147.07 221.49 146.37 222.07 146.06C222.28 145.95 222.74 145.98 222.9 146.14C223.53 146.76 223.28 147.88 222.49 148.19Z" fill="black"/>
<path d="M218.96 144.58C219.16 144.96 219.06 145.36 218.67 145.62C218.41 145.8 218.11 145.86 217.83 145.68C217.41 145.42 217.47 144.81 217.95 144.42C218.29 144.13 218.77 144.21 218.97 144.58H218.96Z" fill="black"/>
<path d="M212.92 115.3C213 115.81 212.58 116.35 212.04 116.42C211.66 116.47 211.17 116.1 211.11 115.73C211.03 115.21 211.45 114.67 211.98 114.61C212.35 114.57 212.85 114.93 212.91 115.29L212.92 115.3Z" fill="black"/>
<path d="M214.13 143.85C213.69 144.06 213.05 143.79 212.89 143.33C212.73 142.87 213.02 142.23 213.47 142.09C213.92 141.95 214.61 142.23 214.77 142.61C214.92 142.98 214.58 143.64 214.14 143.85H214.13Z" fill="black"/>
<path d="M193.69 153.16C193.87 153.62 193.74 154.04 193.37 154.17C192.93 154.33 192.52 154.17 192.39 153.77C192.25 153.34 192.39 152.87 192.72 152.73C193.11 152.56 193.52 152.74 193.68 153.16H193.69Z" fill="black"/>
<path d="M213.16 147.5C213.01 147.62 212.81 147.92 212.59 147.94C212.06 148 211.46 147.61 211.4 147.17C211.37 146.92 211.54 146.59 211.71 146.36C211.79 146.25 212.09 146.2 212.26 146.25C212.8 146.41 213.12 146.79 213.17 147.49L213.16 147.5Z" fill="black"/>
<path d="M209.8 141.98C209.62 141.89 209.29 141.83 209.15 141.63C208.83 141.2 208.97 140.53 209.35 140.31C209.69 140.11 210.14 140.28 210.32 140.69C210.55 141.21 210.38 141.74 209.8 141.98Z" fill="black"/>
<path d="M209.39 160.99C210.06 160.87 210.6 161.41 210.42 162.03C210.33 162.33 209.92 162.53 209.71 162.35C209.49 162.16 209.28 161.94 209.11 161.71C208.93 161.46 209.11 161.05 209.4 161L209.39 160.99Z" fill="black"/>
<path d="M207.72 143.93C208.06 144.02 208.4 144.01 208.59 144.18C208.83 144.39 208.5 144.98 208.09 145.15C207.81 145.27 207.36 145.06 207.38 144.77C207.4 144.51 207.58 144.25 207.72 143.93Z" fill="black"/>
<path d="M216.35 138.72C216.07 138.79 215.76 138.62 215.65 138.32C215.47 137.84 215.81 137.12 216.23 137.18C216.46 137.21 216.73 137.51 216.82 137.75C216.97 138.16 216.7 138.64 216.35 138.72Z" fill="black"/>
<path d="M207.64 156.14C207.49 156.04 207.17 155.95 207.06 155.74C206.84 155.31 207.28 154.72 207.83 154.69C208 154.68 208.25 154.79 208.34 154.92C208.6 155.32 208.27 155.96 207.65 156.14H207.64Z" fill="black"/>
<path d="M230.63 129.42C230.97 129.28 231.47 129.54 231.62 129.94C231.77 130.33 231.54 130.8 231.14 130.92C230.72 131.04 230.22 130.81 230.13 130.45C230.03 130.08 230.29 129.56 230.63 129.42Z" fill="black"/>
<path d="M217.83 134.91C217.67 134.8 217.36 134.68 217.22 134.46C217.02 134.13 217.31 133.55 217.63 133.45C217.96 133.34 218.48 133.65 218.58 134.02C218.68 134.38 218.34 134.85 217.82 134.92L217.83 134.91Z" fill="black"/>
<path d="M214.58 121.36C214.68 121.73 214.25 122.39 213.97 122.27C213.71 122.15 213.42 121.9 213.35 121.65C213.29 121.42 213.45 121.06 213.63 120.86C213.87 120.6 214.47 120.94 214.58 121.36Z" fill="black"/>
<path d="M197.84 155.41C198.04 155.96 197.99 156.36 197.62 156.63C197.49 156.72 197.23 156.74 197.08 156.67C196.64 156.48 196.58 156.05 196.58 155.63C196.58 155.37 196.96 154.98 197.19 155.04C197.46 155.12 197.69 155.32 197.84 155.41Z" fill="black"/>
<path d="M203.47 143.57C203.27 143.53 203.02 143.55 202.9 143.44C202.8 143.34 202.8 143.07 202.84 142.89C202.9 142.55 203.16 142.36 203.48 142.32C203.66 142.3 203.89 142.37 204.03 142.48C204.26 142.66 204.24 143.1 204 143.28C203.84 143.4 203.65 143.47 203.47 143.57Z" fill="black"/>
<path d="M225.86 137.76C226.12 137.6 226.71 137.78 226.91 138.1C227.15 138.48 227.1 138.95 226.79 139.16C226.46 139.37 225.97 139.22 225.78 138.86C225.58 138.48 225.63 137.91 225.86 137.77V137.76Z" fill="black"/>
<path d="M215.81 148.59C215.97 148.68 216.28 148.78 216.45 148.98C216.63 149.19 216.39 149.65 216.11 149.73C215.8 149.82 215.46 149.66 215.32 149.38C215.18 149.1 215.36 148.72 215.81 148.6V148.59Z" fill="black"/>
<path d="M195.86 127.95C195.83 128.12 195.86 128.36 195.76 128.44C195.52 128.63 195.23 128.59 195 128.37C194.8 128.18 194.88 127.76 195.14 127.65C195.46 127.51 195.69 127.69 195.87 127.94L195.86 127.95Z" fill="black"/>
<path d="M222.7 158.42C222.53 158.21 222.34 158.03 222.24 157.81C222.21 157.74 222.43 157.47 222.56 157.45C222.88 157.4 223.24 157.7 223.16 157.93C223.11 158.09 222.91 158.21 222.69 158.42H222.7Z" fill="black"/>
<path d="M204.07 132.17C203.83 132.31 203.62 132.51 203.38 132.57C203.14 132.62 202.99 132.41 203.03 132.15C203.08 131.79 203.33 131.54 203.62 131.65C203.78 131.71 203.88 131.94 204.08 132.18L204.07 132.17Z" fill="black"/>
<path d="M199.85 140.15C199.66 140.45 199.57 140.72 199.38 140.89C199.21 141.04 198.75 140.76 198.71 140.52C198.67 140.21 198.73 139.85 199.03 139.79C199.24 139.75 199.51 139.99 199.85 140.15Z" fill="black"/>
<path d="M224.29 132.04C224.45 132.13 224.68 132.18 224.74 132.31C224.87 132.6 224.6 132.94 224.27 132.92C224.18 132.92 224.06 132.85 224 132.77C223.8 132.49 223.96 132.11 224.29 132.03V132.04Z" fill="black"/>
<path d="M229.15 134C229.26 134.44 229 134.86 228.74 134.76C228.47 134.66 228.26 134.43 228.02 134.25C228.16 134.1 228.29 133.85 228.45 133.84C228.7 133.82 228.96 133.95 229.15 134Z" fill="black"/>
<path d="M212.43 136.34C212.45 136.69 212.17 136.99 211.94 136.84C211.79 136.75 211.65 136.54 211.63 136.37C211.6 136.13 211.79 136.01 212.03 136.01C212.28 136.01 212.41 136.12 212.43 136.34Z" fill="black"/>
<path d="M201.2 146.44C201.57 146.6 201.85 146.67 202.06 146.82C202.24 146.95 202.19 147.17 202 147.33C201.73 147.56 201.31 147.59 201.23 147.36C201.15 147.12 201.2 146.84 201.2 146.44Z" fill="black"/>
<path d="M233.06 136.75C232.96 136.71 232.83 136.71 232.78 136.64C232.64 136.42 232.9 135.92 233.16 135.91C233.24 135.91 233.36 136 233.4 136.08C233.59 136.43 233.46 136.68 233.06 136.75Z" fill="black"/>
<path d="M210.07 129.35C210.3 129.27 210.49 129.35 210.44 129.57C210.41 129.71 210.21 129.83 210.07 129.93C210.04 129.95 209.84 129.82 209.85 129.8C209.91 129.64 210 129.5 210.07 129.35Z" fill="black"/>
<path d="M203.28 163.9L203.48 163.93L203.31 164.05L203.28 163.9Z" fill="black"/>
<path d="M211.53 157.56C211.6 157.54 211.7 157.47 211.74 157.5C211.97 157.63 211.98 157.8 211.76 157.94C211.72 157.97 211.56 157.9 211.52 157.83C211.48 157.76 211.52 157.65 211.52 157.56H211.53Z" fill="black"/>
<path d="M218.7 123.89C218.64 123.97 218.58 124.13 218.51 124.13C218.25 124.13 218.12 123.97 218.17 123.71C218.19 123.61 218.27 123.53 218.32 123.44C218.45 123.59 218.57 123.74 218.7 123.89Z" fill="black"/>
<path d="M211.65 125.47C211.74 125.5 211.9 125.55 211.9 125.57C211.88 125.74 211.82 125.9 211.78 126.07C211.67 125.94 211.55 125.81 211.46 125.67C211.45 125.65 211.58 125.54 211.65 125.48V125.47Z" fill="black"/>
<path d="M218.24 113.07C218.32 113.13 218.45 113.19 218.46 113.25C218.46 113.4 218.46 113.65 218.37 113.69C218.23 113.75 218.03 113.69 217.86 113.65C217.84 113.65 217.82 113.48 217.86 113.44C217.98 113.31 218.12 113.19 218.26 113.07H218.24Z" fill="black"/>
<path d="M197.08 124.09C197.01 124.02 196.87 123.95 196.87 123.88C196.85 123.61 197.01 123.49 197.27 123.55C197.36 123.57 197.44 123.66 197.52 123.72C197.37 123.84 197.23 123.97 197.08 124.09Z" fill="black"/>
<path d="M194.93 169.94C195.01 169.99 195.09 170.03 195.17 170.08C195.12 170.16 195.08 170.29 195.02 170.3C194.96 170.32 194.86 170.22 194.78 170.17C194.83 170.09 194.88 170.01 194.93 169.94Z" fill="black"/>
<path d="M203.57 153.1C203.53 153.21 203.5 153.31 203.46 153.42C203.38 153.38 203.26 153.35 203.24 153.29C203.22 153.23 203.29 153.12 203.35 153.07C203.38 153.04 203.48 153.09 203.56 153.1H203.57Z" fill="black"/>
<path d="M224.63 153.49C224.58 153.57 224.54 153.7 224.48 153.72C224.41 153.74 224.32 153.64 224.24 153.59C224.29 153.51 224.33 153.38 224.4 153.36C224.47 153.34 224.56 153.44 224.64 153.49H224.63Z" fill="black"/>
<path d="M220.63 140.68L220.78 140.57L220.8 140.75L220.63 140.68Z" fill="black"/>
<mask id="mask0_394_2" style="mask-type:luminance" maskUnits="userSpaceOnUse" x="105" y="27" width="62" height="61">
<path d="M166.67 27.7H105.57V87.69H166.67V27.7Z" fill="white"/>
</mask>
<g mask="url(#mask0_394_2)">
<path d="M150.67 71.9599V72.5999C150.67 76.9699 149.21 87.6099 143.82 87.6099C141.7 87.6099 139.57 86.1799 138.83 85.1299C138.27 84.3399 138.01 83.0299 138.01 81.8299C138.01 77.6399 139.62 72.4899 140.44 70.9599C140.59 70.6999 140.77 70.5499 141.11 70.5499C141.6 70.5499 142.95 70.9799 143.59 71.2199C143.79 71.2999 143.9 71.5299 143.9 71.7299C143.9 71.8599 143.85 72.0099 143.85 72.0099C142.83 74.7699 141.68 79.5799 141.68 81.9799C141.68 83.3099 141.94 84.2299 142.96 84.2299C144.42 84.2299 145.24 82.0599 145.9 79.3999C146.67 76.3599 147.13 72.4199 147.26 71.0899C147.29 70.8299 147.46 70.6799 147.69 70.6799C148.07 70.6799 149.61 71.0599 150.22 71.2899C150.53 71.4199 150.65 71.6999 150.68 71.9599H150.67Z" fill="#DB433B"/>
<path d="M156.25 87.69C155.02 87.69 153.03 87.2 151.83 86.18C151.01 85.49 150.65 84.59 150.45 83.21C150.45 83.21 150.42 82.98 150.42 82.88C150.42 82.57 150.6 82.39 150.88 82.27C151.9 81.89 152.95 81.73 153.18 81.71C153.51 81.71 153.61 81.94 153.67 82.12C154.03 83.4 154.13 84.6 155.82 84.6C157.02 84.6 157.82 83.91 157.82 83.24C157.82 81.17 151.66 80.78 151.66 76.49C151.66 73.78 154.09 70.45 156.75 70.45C158.51 70.45 162.91 71.91 162.91 74.26C162.91 75.05 162.4 76.38 162.12 76.87C161.94 77.23 161.81 77.3 161.51 77.33C161.13 77.38 159.57 77.38 159.16 77.38C158.8 77.38 158.67 77.25 158.67 77.05C158.67 76.85 159.03 75.54 159.03 74.77C159.03 73.77 158.49 73.44 157.93 73.44C156.6 73.44 155.55 75.26 155.55 76.25C155.55 78.88 161.64 78.83 161.64 82.82C161.64 85.4 158.95 87.68 156.27 87.68L156.25 87.69Z" fill="#DB433B"/>
<path d="M127.84 29.2699C128.85 29.2699 133 30.4999 133.73 30.8999C134.12 31.1199 134.4 31.5199 134.4 31.9599C134.4 32.0699 134.34 32.2999 134.34 32.2999C132.43 37.6799 128.68 53.2199 126.94 67.2399C126.88 67.7999 126.44 68.1399 125.93 68.1399C125.03 68.1399 122.23 67.3599 121.39 67.0199C120.89 66.7999 120.49 66.3499 120.44 65.5599L120.33 63.7099C120.33 63.4299 120.22 63.1499 120.05 63.1499C119.94 63.1499 119.83 63.2099 119.66 63.4299C117.86 66.0699 115.74 68.3099 113.94 68.3099C110.02 68.3099 105.58 63.2099 105.58 58.1599C105.58 48.9599 110.29 39.5399 117.36 39.5399C118.65 39.5399 120.39 40.2099 122.18 41.1699C122.18 41.1699 122.46 41.3399 122.63 41.3399C122.97 41.3399 123.19 41.1199 123.3 40.6099C124.48 35.7299 125.6 32.0899 126.55 30.0699C126.77 29.6199 127.28 29.2899 127.84 29.2899V29.2699ZM120.15 56.3599C120.77 53.4399 121.83 48.1699 121.83 47.7199C121.83 47.3299 121.66 46.9899 121.21 46.8199C120.43 46.5399 119.7 46.3699 119.25 46.3699C115.61 46.3699 113.59 54.0499 113.59 57.9199C113.59 59.5499 113.98 60.6699 114.49 60.6699C115.67 60.6699 117.8 59.1599 119.43 57.6399C119.88 57.2499 120.1 56.7399 120.16 56.3499L120.15 56.3599Z" fill="black"/>
<path d="M140.45 37.4599C143.81 37.4599 145.89 35.33 145.89 32.36C145.89 29.05 142.64 27.7 139.95 27.7C139.39 27.7 138.55 27.98 138.15 28.26C136.97 29.21 135.74 30.73 135.74 32.69C135.74 35.27 137.2 37.4599 140.45 37.4599Z" fill="black"/>
<path d="M158.32 51.99C158.32 51.54 159.05 48.85 159.05 47.78C159.05 46.71 158.77 46.04 157.99 46.04C155.52 46.04 152.38 51.93 152.38 56.47C152.38 59.22 153.61 60.9 155.69 60.9C157.65 60.9 159.78 60.12 161.35 59.22C161.35 59.22 161.57 59.11 161.8 59.11C162.19 59.11 162.42 59.28 162.64 59.67C163.03 60.4 164.1 62.7 164.1 63.48C164.1 64.1 163.88 64.54 163.54 64.88C161.52 66.68 158.88 68.3 155.74 68.3C153.89 68.3 148.73 66.79 146.6 64.09C145.09 62.18 144.3 59.77 144.3 56.69C144.3 48.84 149.46 39.47 155.85 39.47C158.04 39.47 166.67 42.44 166.67 46.99C166.67 48.34 165.61 51.03 165.04 51.93C164.76 52.38 164.31 52.71 163.69 52.77C162.79 52.83 160.44 52.83 159.15 52.83C158.65 52.77 158.31 52.44 158.31 51.99H158.32Z" fill="black"/>
<path d="M143.31 41.95C143.31 44.19 139.55 63.43 138.77 67.08C138.73 67.26 138.68 67.46 138.64 67.65C138.64 67.65 138.62 67.65 138.61 67.65C137.72 71.42 134.86 78.52 127.11 78.52C125.09 78.52 121.5 77.4 119.76 76.11C119.25 75.77 119.09 75.38 119.09 74.93C119.09 74.26 119.88 71.57 120.16 70.95C120.33 70.56 120.66 70.33 121.06 70.33C121.17 70.33 121.4 70.39 121.51 70.44C123.19 71.17 124.65 71.45 125.72 71.45C126.9 71.45 128.04 71.08 128.97 70.35C129.39 70.02 129.75 69.62 130.07 69.19C130.72 68.3 130.88 67.2 131.07 66.14C131.29 64.92 131.51 63.7 131.73 62.48C132.09 60.45 132.44 58.42 132.78 56.39C133.15 54.21 133.52 52.03 133.89 49.84C134.22 47.88 134.55 45.92 134.89 43.97C135.08 42.87 135.26 41.76 135.48 40.67C135.59 40.11 136.1 39.72 136.71 39.72C137.49 39.72 140.92 40.28 142.43 40.67C142.94 40.84 143.33 41.4 143.33 41.96L143.31 41.95Z" fill="black"/>
</g>
<path d="M20.91 116.34C18.62 117.3 15.34 126.92 13.81 127.78C12.43 128.56 10.46 127.56 5.76 125.67C4.73 125.28 1.59 126.88 3.76 128.57C7.3 131.27 12.71 132.28 14.83 131.73C19.22 130.56 20.38 121.48 22.74 120.65C25.1 119.81 33.91 128.29 39.39 126.19C44.8 123.96 46.13 116.25 47.8 115.63C49.47 115.01 54.49 121.42 59.91 120.64C62.92 120.24 66.37 116.68 69.54 112.96C72.19 109.04 68.67 108.49 66.89 110.41C64.52 112.95 61.09 116.26 59.28 116.63C55.28 117.42 52.98 110.46 47.46 111.78C42.62 112.88 41.59 120.74 38.47 122.01C35.35 123.28 25.13 114.45 20.93 116.33L20.91 116.34Z" fill="#F39745"/>
<path d="M33.3 153.82C29.46 155.98 29.98 163.28 28.06 164.36C26.39 165.51 19.27 159.6 17.4 163.39C16.91 164.58 17.46 165.94 18.65 166.43C18.67 166.43 18.69 166.45 18.7 166.45C28.2 170.6 29.79 170.42 31.97 168.69C33.58 167.42 34.26 160.02 35.39 159.39C36.52 158.76 42.88 165.6 46.78 163.53C50.19 161.72 52.16 150.6 53.11 150.06C54.06 149.52 62.67 155.44 64.22 151.83C65.77 148.22 60.3 147.49 52.67 144.4C48.4 142.8 46.91 157.76 45.14 158.75C43.54 159.65 36.18 152.18 33.3 153.8V153.82Z" fill="#DB433B"/>
<path d="M34.6 57.75C33.36 57.75 32.35 56.74 32.35 55.5V50.47C32.35 49.23 33.36 48.22 34.6 48.22C35.84 48.22 36.85 49.23 36.85 50.47V55.5C36.85 56.74 35.84 57.75 34.6 57.75Z" fill="#5FBFFA"/>
<path d="M45.26 62.17C44.68 62.17 44.11 61.95 43.67 61.51C42.79 60.63 42.79 59.21 43.67 58.33L47.23 54.77C48.11 53.89 49.53 53.89 50.41 54.77C51.29 55.65 51.29 57.07 50.41 57.95L46.85 61.51C46.41 61.95 45.83 62.17 45.26 62.17Z" fill="#5FBFFA"/>
<path d="M54.7101 72.83H49.6801C48.4401 72.83 47.4301 71.82 47.4301 70.58C47.4301 69.34 48.4401 68.33 49.6801 68.33H54.7101C55.9501 68.33 56.9601 69.34 56.9601 70.58C56.9601 71.82 55.9501 72.83 54.7101 72.83Z" fill="#5FBFFA"/>
<path d="M48.81 87.06C48.23 87.06 47.66 86.84 47.22 86.4L43.66 82.84C42.78 81.96 42.78 80.54 43.66 79.66C44.54 78.78 45.96 78.78 46.84 79.66L50.4 83.22C51.28 84.1 51.28 85.52 50.4 86.4C49.96 86.84 49.38 87.06 48.81 87.06Z" fill="#5FBFFA"/>
<path d="M34.6 92.94C33.36 92.94 32.35 91.93 32.35 90.69V85.66C32.35 84.42 33.36 83.41 34.6 83.41C35.84 83.41 36.85 84.42 36.85 85.66V90.69C36.85 91.93 35.84 92.94 34.6 92.94Z" fill="#5FBFFA"/>
<path d="M20.37 87.06C19.79 87.06 19.22 86.84 18.78 86.4C17.9 85.52 17.9 84.1 18.78 83.22L22.33 79.66C23.21 78.78 24.63 78.78 25.51 79.66C26.39 80.54 26.39 81.96 25.51 82.84L21.96 86.4C21.52 86.84 20.94 87.06 20.37 87.06Z" fill="#5FBFFA"/>
<path d="M19.51 72.83H14.48C13.24 72.83 12.23 71.82 12.23 70.58C12.23 69.34 13.24 68.33 14.48 68.33H19.51C20.75 68.33 21.76 69.34 21.76 70.58C21.76 71.82 20.75 72.83 19.51 72.83Z" fill="#5FBFFA"/>
<path d="M23.93 62.17C23.35 62.17 22.78 61.95 22.34 61.51L18.79 57.95C17.91 57.07 17.91 55.65 18.79 54.77C19.67 53.89 21.09 53.89 21.97 54.77L25.52 58.33C26.4 59.21 26.4 60.63 25.52 61.51C25.08 61.95 24.5 62.17 23.93 62.17Z" fill="#5FBFFA"/>
<path d="M222.44 81.72C222.27 81.72 222.11 81.7 221.94 81.65C216.27 79.94 211.6 76.12 208.8 70.9C206 65.68 205.4 59.68 207.11 54C209.99 44.45 220.11 39.03 229.66 41.91C233.45 43.05 236.57 45.6 238.44 49.09C240.31 52.58 240.71 56.59 239.57 60.38C238.63 63.5 236.53 66.07 233.66 67.61C230.79 69.15 227.49 69.48 224.37 68.54C219.04 66.93 216.01 61.28 217.61 55.94C218.26 53.78 219.71 52.01 221.69 50.94C223.68 49.87 225.96 49.64 228.12 50.29C231.86 51.42 233.99 55.39 232.86 59.13C231.9 62.3 228.53 64.1 225.36 63.16C224.44 62.89 223.92 61.92 224.2 61.01C224.47 60.09 225.44 59.57 226.35 59.85C227.7 60.25 229.13 59.48 229.54 58.14C230.12 56.23 229.03 54.2 227.11 53.62C225.84 53.24 224.49 53.37 223.32 54C222.15 54.63 221.29 55.68 220.91 56.95C219.85 60.46 221.85 64.18 225.35 65.24C227.59 65.92 229.95 65.68 232.01 64.57C234.07 63.47 235.57 61.63 236.25 59.39C237.13 56.48 236.82 53.41 235.38 50.74C233.95 48.07 231.56 46.11 228.65 45.24C220.93 42.91 212.75 47.3 210.41 55.02C208.97 59.81 209.47 64.87 211.84 69.28C214.2 73.69 218.14 76.91 222.93 78.35C223.85 78.63 224.36 79.59 224.09 80.51C223.86 81.26 223.18 81.74 222.43 81.74L222.44 81.72Z" fill="#64A03D"/>
<path d="M234.04 21.5801C233.73 22.5201 232.85 23.1201 231.91 23.1201C231.67 23.1201 231.43 23.0801 231.2 23.0101L223.11 20.3201L220.42 28.4001C220.1 29.3401 219.23 29.9401 218.28 29.9401C218.05 29.9401 217.81 29.9001 217.57 29.8201C216.39 29.4301 215.76 28.1501 216.15 26.9801L218.84 18.8901L210.76 16.2001C209.58 15.8001 208.94 14.5301 209.34 13.3501C209.73 12.1701 211 11.5301 212.18 11.9301L220.27 14.6201L222.96 6.54005C223.35 5.36005 224.62 4.72005 225.8 5.11005C226.98 5.51005 227.62 6.78005 227.23 7.96005L224.54 16.0501L232.62 18.7401C233.8 19.1301 234.44 20.4001 234.04 21.5801Z" fill="#B989C9"/>
<path d="M141.8 163.69C141.81 163.9 141.6 164.15 141.41 164.33C141.38 164.36 141.35 164.39 141.32 164.42C141.18 164.55 140.93 164.56 140.72 164.61C140.15 164.74 139.82 165.13 139.63 165.65C139.53 165.95 139.48 166.27 139.4 166.57C139.4 166.59 139.39 166.6 139.38 166.62C138.31 166.58 137.24 166.58 136.17 166.6C136.73 165.76 137.48 165.14 138.29 164.54C138.37 164.48 138.45 164.41 138.53 164.33C138.91 163.98 139.21 163.54 139.57 163.16C140 162.69 140.72 162.57 141.29 162.95C141.53 163.11 141.78 163.43 141.8 163.69Z" fill="black"/>
<path d="M132.78 166.48C131.72 166.4 130.66 166.33 129.61 166.25C129.86 165.78 130.29 165.62 131.03 165.68C131.73 165.72 132.33 165.91 132.78 166.48Z" fill="black"/>
<path d="M181.02 97.83C180.85 97.76 180.5 97.71 180.31 97.51C180.03 97.22 179.74 96.84 179.66 96.46C179.45 95.53 178.89 95 178.03 94.7C177.75 94.6 177.49 94.38 177.26 94.18C176.77 93.75 176.79 92.59 177.26 92.15C177.34 92.08 177.41 91.98 177.5 91.95C178.9 91.4 179.64 90.38 179.83 88.88C179.9 88.29 180.92 88.1 181.42 88.52C181.58 88.65 181.71 88.83 181.82 89.01C182.12 89.49 182.03 90.14 181.61 90.44C181.27 90.68 180.87 90.85 180.53 91.09C179.37 91.92 179.36 93.77 180.51 94.65C181.01 95.03 181.58 95.32 182.06 95.73C182.39 96.01 182.45 96.47 182.31 96.9C182.14 97.44 181.67 97.82 181.03 97.86L181.02 97.83Z" fill="black"/>
<path d="M100.07 163.95C101.06 164 102.04 164.06 103.03 164.12C102.99 164.04 102.95 163.96 102.92 163.88C102.78 163.49 102.73 163.06 102.55 162.69C102.42 162.43 102.18 162.19 101.93 162.04C101.48 161.77 100.97 161.61 100.44 161.82C100.04 161.98 99.83 162.81 99.95 163.53C99.98 163.69 100.02 163.83 100.08 163.96L100.07 163.95Z" fill="black"/>
<path d="M106.28 154.23C106.12 154.51 105.98 154.77 105.82 155.02C105.77 155.1 105.65 155.16 105.55 155.18C104.29 155.48 103.14 155.92 102.54 157.2C102.5 157.29 102.38 157.33 102.3 157.4C101.91 157.72 100.84 157.78 100.6 157.27C100.34 156.7 100.35 155.88 100.76 155.52C100.91 155.38 101.08 155.19 101.26 155.17C102.55 155.03 102.98 154.16 103.2 153.04C103.25 152.75 103.47 152.48 103.66 152.24C103.93 151.89 104.34 151.72 104.76 151.75C105.18 151.78 105.59 151.96 105.74 152.41C105.94 153 106.09 153.61 106.28 154.24V154.23Z" fill="black"/>
<path d="M111.17 154.92C110.87 154.8 110.54 154.75 110.32 154.57C109.58 153.94 109.37 152.92 109.81 152C109.93 151.76 110.26 151.53 110.53 151.48C110.93 151.4 111.36 151.51 111.78 151.48C112.12 151.46 112.59 151 112.64 150.67C112.7 150.26 112.72 149.84 112.77 149.42C112.84 148.79 113.26 148.54 113.86 148.73C114.28 148.86 114.6 149.1 114.86 149.44C115.18 149.85 115.19 150.55 114.82 150.88C114.51 151.15 114.18 151.42 113.81 151.6C113.2 151.89 112.83 152.31 112.64 152.98C112.51 153.47 112.23 153.95 111.94 154.37C111.78 154.6 111.45 154.72 111.16 154.91L111.17 154.92Z" fill="black"/>
<path d="M98.8899 153.36C98.8899 154.02 98.7599 154.65 98.0699 154.91C97.0099 155.3 96.3399 155.99 95.9399 157.06C95.7199 157.66 95.0999 157.97 94.4999 158.19C94.1799 158.31 93.4699 158.12 93.3799 157.82C93.2999 157.55 93.2799 157.19 93.3999 156.94C93.5699 156.57 93.8399 156.22 94.1399 155.94C94.5199 155.58 94.9699 155.3 95.3899 155C95.8399 154.67 96.0699 154.23 96.1099 153.67C96.1199 153.46 96.1299 153.25 96.1799 153.04C96.3399 152.31 96.8099 151.93 97.4899 151.97C98.2899 152.01 98.8599 152.58 98.8999 153.37L98.8899 153.36Z" fill="black"/>
<path d="M148.94 164.33C148.83 164.52 148.7 164.68 148.55 164.76C148.28 164.91 147.97 164.99 147.67 165.09C146.81 165.38 146.27 165.94 146.13 166.87C146.12 166.95 146.09 167.01 146.06 167.07C145.12 166.98 144.17 166.89 143.23 166.82C143.2 166.78 143.18 166.75 143.15 166.71C142.99 166.47 143.13 165.97 143.36 165.9C143.76 165.79 144.17 165.72 144.57 165.6C145.19 165.42 145.7 165.09 145.9 164.41C145.91 164.38 145.92 164.36 145.93 164.33C146.02 164.06 146.14 163.8 146.25 163.54C146.61 162.67 147.31 162.28 148.19 162.15C148.5 162.11 148.81 162.18 148.99 162.5C149.26 162.99 149.21 163.81 148.94 164.33Z" fill="black"/>
<path d="M118.17 161.11C117.49 161 117 160.19 117.23 159.65C117.35 159.37 117.46 159.04 117.68 158.85C118.57 158.08 119.22 157.18 119.61 156.06C119.82 155.47 120.63 155.18 121.19 155.36C122.03 155.64 122.47 156.52 122.14 157.37C122.04 157.64 121.8 158 121.57 158.05C120.3 158.34 119.61 159.12 119.34 160.36C119.3 160.54 119.12 160.73 118.95 160.82C118.69 160.96 118.38 161.03 118.18 161.1L118.17 161.11Z" fill="black"/>
<path d="M136.45 157.47C136.78 158.11 137.46 158.16 138.03 158.4C138.68 158.67 138.96 159.24 138.98 159.91C139.01 160.68 138.89 161.46 138.09 161.77C137.04 162.17 136.3 162.79 135.92 163.87C135.79 164.22 135.18 164.39 134.81 164.24C134.42 164.09 133.99 163.94 133.9 163.46C133.86 163.28 133.9 162.94 134 162.89C134.55 162.6 135.14 162.37 135.72 162.12C136.14 161.94 136.39 161.61 136.39 161.16C136.39 160.53 136.29 159.9 136.31 159.27C136.33 158.64 136.46 158.02 136.54 157.4L136.46 157.47H136.45Z" fill="black"/>
<path d="M139.41 154.45C139.61 154.52 139.82 154.55 140 154.66C140.99 155.23 141.84 155.01 142.54 154.18C142.94 153.7 143.23 153.12 143.84 152.84C144.18 152.69 144.45 152.77 144.7 153C144.98 153.25 145.04 153.62 144.88 153.85C144.76 154.02 144.69 154.25 144.54 154.37C143.72 155.04 142.97 155.74 142.5 156.73C142.3 157.16 141.76 157.47 141.33 157.75C140.44 158.32 139.56 157.91 139.5 156.91C139.45 156.07 139.47 155.22 139.46 154.38L139.4 154.45H139.41Z" fill="black"/>
<path d="M136.11 150.32C135.99 150.5 135.85 150.79 135.64 150.99C135.39 151.23 134.76 151.14 134.48 150.9C134.32 150.76 134.11 150.66 134.02 150.49C133.22 149.14 132.21 147.99 130.94 147.06C130.82 146.97 130.78 146.64 130.85 146.49C130.91 146.34 131.15 146.23 131.33 146.17C131.76 146.01 132.14 146.16 132.48 146.43C132.56 146.49 132.61 146.6 132.65 146.69C132.99 147.65 133.69 148.2 134.62 148.53C135 148.67 135.37 148.88 135.7 149.12C136.07 149.38 136.14 149.8 136.11 150.33V150.32Z" fill="black"/>
<path d="M155.74 163.16C155.7 163.64 155.42 164.08 155.04 164.33C154.82 164.48 154.57 164.57 154.31 164.57C154 164.57 153.73 164.48 153.5 164.33C153.06 164.03 152.82 163.49 152.91 162.88C153.03 162.11 153.68 161.59 154.46 161.64C155.21 161.7 155.81 162.41 155.74 163.16Z" fill="black"/>
<path d="M106.1 139.65C106.09 139.75 106.08 140.06 106.01 140.36C105.75 141.51 104.55 141.88 103.6 141.12C103.24 140.83 103.12 140.44 103.14 140.03C103.19 139.02 103.95 138.34 104.98 138.34C105.74 138.34 106.17 138.75 106.11 139.65H106.1Z" fill="black"/>
<path d="M97.5399 158.36C98.2699 158.5 98.9299 158.92 99.2799 159.76C99.4199 160.1 99.2499 160.69 98.9199 160.84C98.5499 161.01 98.1699 161.19 97.7699 161.3C97.1299 161.48 96.5499 161.1 96.3399 160.45C96.1799 159.93 96.1899 159.43 96.3899 158.94C96.5199 158.62 97.0599 158.31 97.5399 158.36Z" fill="black"/>
<path d="M96.0001 163.76C96.0801 163.48 96.1101 163.18 96.1501 163C96.1601 162.78 96.1701 162.67 96.1701 162.57C96.1901 162.15 95.7601 161.8 95.3301 161.85C94.4401 161.96 93.7401 162.37 93.2101 163.1C93.1001 163.26 93.0601 163.46 93.0601 163.67C94.0401 163.7 95.0201 163.73 96.0001 163.77V163.76Z" fill="black"/>
<path d="M132.53 159.52C132.56 160.03 132.44 160.53 132.09 160.95C131.72 161.38 131.26 161.55 130.7 161.42C130.24 161.31 129.9 160.83 129.88 160.24C129.84 159.1 130.36 158.47 131.45 158.32C131.85 158.26 132.34 158.55 132.41 158.89C132.45 159.09 132.48 159.3 132.52 159.53L132.53 159.52Z" fill="black"/>
<path d="M136.53 157.4C135.61 157.66 134.67 157.66 133.72 157.57C133.22 157.52 132.86 157 132.94 156.43C133.09 155.49 134.16 154.82 135.06 155.14C135.24 155.2 135.46 155.33 135.54 155.5C135.86 156.15 136.14 156.82 136.44 157.48L136.53 157.41V157.4Z" fill="black"/>
<path d="M159.2 153.19C159.16 153.35 159.13 153.66 159.01 153.93C158.72 154.62 157.81 154.94 157.22 154.59C156.58 154.21 156.32 153.34 156.7 152.73C156.86 152.47 157.07 152.23 157.31 152.05C157.64 151.81 158.02 151.67 158.46 151.82C158.92 151.98 159.2 152.42 159.19 153.18L159.2 153.19Z" fill="black"/>
<path d="M164.29 91.91C164.56 91.97 164.96 92.04 165.35 92.15C165.82 92.28 165.95 93.01 165.65 93.43C165.33 93.87 164.88 94.09 164.4 94.28C163.64 94.57 163 94.13 162.93 93.26C162.91 93.06 162.95 92.85 162.96 92.65C162.98 92.29 163.25 92.13 163.54 92.02C163.73 91.95 163.94 91.96 164.28 91.92L164.29 91.91Z" fill="black"/>
<path d="M137.81 127.68C136.58 127.64 135.95 126.48 136.56 125.46C136.69 125.24 137.04 125.04 137.3 125.02C138.23 124.95 139.11 125.77 139.09 126.72C139.09 126.98 138.83 127.3 138.6 127.46C138.37 127.62 138.02 127.62 137.81 127.67V127.68Z" fill="black"/>
<path d="M102.49 150.06C102.41 150.83 102 151.32 101.33 151.51C100.8 151.66 100.29 151.64 99.88 151.21C99.54 150.85 99.74 149.94 100.3 149.56C100.84 149.19 101.46 149.02 102.06 149.41C102.29 149.56 102.39 149.89 102.5 150.06H102.49Z" fill="black"/>
<path d="M148.96 122.82C148.9 122.99 148.85 123.31 148.7 123.58C148.46 124 147.72 124.2 147.31 124.01C146.82 123.78 146.58 123.22 146.79 122.69C146.9 122.4 147.07 122.13 147.27 121.89C147.51 121.6 148.09 121.5 148.43 121.65C148.78 121.8 148.99 122.21 148.96 122.82Z" fill="black"/>
<path d="M145.85 159.31C145.85 160.4 144.98 161.05 143.93 160.75C143.55 160.64 143.27 160.14 143.36 159.76C143.53 159.09 143.96 158.67 144.57 158.41C145.19 158.14 145.86 158.61 145.85 159.31Z" fill="black"/>
<path d="M125.88 113.56C125.74 113.75 125.61 114.06 125.37 114.21C124.86 114.52 124.08 114.3 123.7 113.8C123.4 113.41 123.42 112.82 123.74 112.35C123.94 112.06 124.23 111.96 124.55 111.99C125.27 112.06 125.89 112.76 125.89 113.56H125.88Z" fill="black"/>
<path d="M131.2 131.72C131.76 131.66 132.42 132.18 132.54 132.77C132.7 133.54 132.17 134.24 131.39 134.28C130.74 134.31 130.15 133.86 130.03 133.25C129.89 132.5 130.43 131.79 131.2 131.71V131.72Z" fill="black"/>
<path d="M91.0599 125.44C92.1799 125.43 92.79 126.16 92.62 127.11C92.59 127.3 92.4699 127.52 92.3199 127.62C91.5899 128.13 90.2299 127.69 89.9899 126.83C89.9199 126.57 90.01 126.15 90.19 125.97C90.46 125.69 90.8799 125.55 91.0799 125.44H91.0599Z" fill="black"/>
<path d="M164.72 105.35C165.5 105.33 166.14 105.95 166.09 106.67C166.04 107.32 165.6 107.77 164.91 107.87C164.18 107.98 163.56 107.37 163.59 106.55C163.61 105.88 164.09 105.37 164.73 105.35H164.72Z" fill="black"/>
<path d="M125.95 153.92C125.87 154.6 125.03 155 124.5 154.67C123.66 154.13 123.42 153.35 123.84 152.52C124.04 152.13 124.54 151.8 124.84 151.94C125.1 152.06 125.37 152.26 125.53 152.5C125.83 152.93 126.04 153.42 125.94 153.92H125.95Z" fill="black"/>
<path d="M165.34 160.31C165.28 160.74 165.11 161.15 164.72 161.33C164.35 161.5 163.93 161.57 163.53 161.61C163.38 161.62 163.11 161.45 163.07 161.31C162.89 160.69 162.93 160.08 163.37 159.55C163.63 159.24 164.14 159.04 164.48 159.14C164.96 159.28 165.38 159.86 165.35 160.31H165.34Z" fill="black"/>
<path d="M105.73 146.93C105.53 147.23 105.35 147.6 105.09 147.89C104.83 148.17 104.25 148.16 103.93 147.93C103.51 147.64 103.24 147.03 103.38 146.57C103.53 146.06 103.82 145.64 104.38 145.48C104.76 145.38 105.27 145.57 105.44 145.94C105.56 146.21 105.61 146.52 105.73 146.92V146.93Z" fill="black"/>
<path d="M132.7 153.74C132.61 153.92 132.55 154.13 132.42 154.26C131.85 154.8 130.85 154.61 130.3 153.88C129.93 153.39 130.01 152.66 130.55 152.25C130.77 152.08 131.12 151.95 131.39 151.99C132.24 152.09 132.8 152.88 132.71 153.74H132.7Z" fill="black"/>
<path d="M89.12 143.31C88.99 143.94 88.27 144.36 87.62 144.25C86.98 144.14 86.6 143.53 86.72 142.85C86.79 142.48 87.06 142.34 87.35 142.22C87.9 141.99 88.4 142.21 88.79 142.55C88.99 142.73 89.03 143.1 89.12 143.31Z" fill="black"/>
<path d="M111.37 159.11C112.06 159 112.78 159.83 112.56 160.54C112.47 160.82 112.27 161.11 112.04 161.29C111.54 161.67 110.64 161.59 110.33 161.2C109.92 160.68 110.15 159.76 110.81 159.34C110.98 159.23 111.19 159.19 111.38 159.12L111.37 159.11Z" fill="black"/>
<path d="M166.8 163.4C166.77 162.38 167.13 161.85 167.88 161.67C168.24 161.58 168.82 161.78 168.94 162.1C169.04 162.37 169.1 162.72 169.02 162.98C168.8 163.7 168.08 164.1 167.32 163.9C167.09 163.84 166.92 163.52 166.8 163.39V163.4Z" fill="black"/>
<path d="M111.89 132.99C111.97 133.61 111.5 134.17 110.83 134.27C110.34 134.34 109.77 133.95 109.66 133.49C109.52 132.86 109.91 132.2 110.51 132.07C111.12 131.94 111.81 132.4 111.88 132.99H111.89Z" fill="black"/>
<path d="M118.36 146.92C118.39 147.37 118.09 147.78 117.69 147.85C116.94 147.98 116.07 147.28 116.18 146.65C116.24 146.31 116.71 145.87 117.05 145.82C117.64 145.75 118.31 146.31 118.35 146.92H118.36Z" fill="black"/>
<path d="M114.4 115.07C115.01 115.09 115.59 115.59 115.67 116.18C115.74 116.72 115.11 117.32 114.48 117.31C113.84 117.31 113.36 116.73 113.44 116.08C113.51 115.51 113.93 115.07 114.4 115.08V115.07Z" fill="black"/>
<path d="M112.12 120.01C112.1 120.68 111.49 121.25 110.91 121.15C110.3 121.04 109.78 120.36 109.86 119.79C109.92 119.35 110.49 118.87 110.96 118.84C111.64 118.81 112.15 119.31 112.13 120.01H112.12Z" fill="black"/>
<path d="M144.64 133.95C144.16 134.02 143.58 133.63 143.44 133.15C143.27 132.54 144.01 131.68 144.7 131.7C145.01 131.7 145.4 132.12 145.5 132.55C145.66 133.21 145.26 133.86 144.64 133.95Z" fill="black"/>
<path d="M114.29 144.36C113.82 144.41 113.37 144.09 113.39 143.7C113.42 143.28 113.46 142.86 113.56 142.45C113.67 142.03 114.14 141.75 114.52 141.8C115 141.86 115.27 142.16 115.41 142.58C115.75 143.55 115.27 144.29 114.28 144.37L114.29 144.36Z" fill="black"/>
<path d="M155.98 103C155.89 103.18 155.79 103.48 155.62 103.72C155.4 104.03 154.75 104.19 154.5 103.99C154.27 103.8 154.04 103.53 153.98 103.25C153.92 102.97 154.03 102.64 154.13 102.36C154.28 101.95 154.74 101.7 155.11 101.76C155.5 101.82 155.86 102.17 155.94 102.58C155.96 102.68 155.96 102.79 155.97 103H155.98Z" fill="black"/>
<path d="M118.66 153.64C118.66 154.19 118.25 154.69 117.73 154.73C117 154.79 116.31 154.13 116.31 153.37C116.31 152.89 116.86 152.45 117.42 152.48C118.16 152.52 118.65 152.98 118.66 153.64Z" fill="black"/>
<path d="M117.68 114.39C117.43 114.23 117.07 114.12 116.96 113.88C116.85 113.65 116.93 113.27 117.05 113.02C117.24 112.63 117.61 112.45 118.07 112.44C118.53 112.44 118.9 112.65 119.03 113.04C119.14 113.37 118.94 113.94 118.6 114.1C118.33 114.23 118.01 114.28 117.68 114.38V114.39Z" fill="black"/>
<path d="M139.47 154.38C138.56 154.66 137.84 154.3 137.21 153.67C136.94 153.4 137.07 152.73 137.45 152.62C137.85 152.51 138.26 152.36 138.66 152.38C138.91 152.39 139.3 152.67 139.35 152.88C139.46 153.38 139.4 153.91 139.41 154.43L139.47 154.36V154.38Z" fill="black"/>
<path d="M174.59 84.0401C173.95 83.9601 173.51 83.3701 173.6 82.7001C173.67 82.1901 174.19 81.7801 174.71 81.8301C175.37 81.8901 175.79 82.4601 175.69 83.1501C175.61 83.6801 175.09 84.1001 174.6 84.0401H174.59Z" fill="black"/>
<path d="M176.09 103.37C176.01 103.56 175.98 103.78 175.85 103.93C175.26 104.62 174.13 104.38 173.84 103.53C173.62 102.9 174.11 102.29 174.81 102.3C175.55 102.32 176.08 102.77 176.09 103.37Z" fill="black"/>
<path d="M178.91 106.85C178.87 107.05 178.83 107.25 178.77 107.44C178.69 107.68 178.25 107.87 178.01 107.8C177.5 107.64 177.1 107.33 176.82 106.88C176.66 106.62 176.55 106.34 176.74 106.03C176.98 105.65 177.39 105.46 177.78 105.56C178.45 105.74 178.85 106.21 178.9 106.85H178.91Z" fill="black"/>
<path d="M139.22 140.27C139.1 140.82 138.32 141.23 137.74 141.05C137.26 140.91 136.95 140.39 137.01 139.83C137.07 139.32 137.63 138.9 138.11 139C138.79 139.15 139.33 139.76 139.22 140.27Z" fill="black"/>
<path d="M125.7 133.54C125.62 133.75 125.55 134.04 125.41 134.31C125.22 134.66 124.66 134.76 124.33 134.54C123.77 134.16 123.54 133.54 123.77 132.94C123.92 132.55 124.18 132.24 124.63 132.17C125 132.12 125.38 132.4 125.53 132.86C125.59 133.05 125.62 133.26 125.69 133.55L125.7 133.54Z" fill="black"/>
<path d="M115.96 163.77C115.99 163.98 115.87 164.2 115.7 164.33C115.54 164.46 115.34 164.52 115.15 164.47C115.01 164.43 114.87 164.39 114.74 164.33C114.28 164.15 113.9 163.85 113.64 163.4C113.57 163.28 113.64 162.93 113.75 162.88C114.45 162.51 115.35 162.64 115.78 163.17C115.9 163.32 115.9 163.57 115.96 163.77Z" fill="black"/>
<path d="M162.51 103.1C162.48 103.63 161.91 104.08 161.43 103.96C160.89 103.82 160.51 103.29 160.59 102.8C160.67 102.24 161.17 101.84 161.68 101.91C162.13 101.98 162.54 102.56 162.51 103.1Z" fill="black"/>
<path d="M138.24 99.94C138.16 100.76 137.34 101.38 136.68 101.2C136.52 101.16 136.37 100.95 136.3 100.78C136.22 100.6 136.22 100.38 136.22 100.17C136.21 99.75 136.25 99.31 136.69 99.13C137.08 98.97 137.52 98.99 137.84 99.29C138.04 99.48 138.15 99.77 138.24 99.93V99.94Z" fill="black"/>
<path d="M125.35 99.9C125.38 100.44 124.99 100.89 124.45 100.94C123.92 101 123.42 100.6 123.37 100.08C123.32 99.58 123.74 99.11 124.28 99.06C124.84 99.01 125.33 99.4 125.36 99.9H125.35Z" fill="black"/>
<path d="M158.57 159.91C158.57 160.54 158.04 161.11 157.61 161.1C157.31 161.1 156.77 160.66 156.71 160.33C156.67 160.13 156.59 159.9 156.66 159.72C156.76 159.44 156.92 159.16 157.14 158.97C157.4 158.74 158.02 158.89 158.25 159.21C158.42 159.45 158.5 159.75 158.57 159.9V159.91Z" fill="black"/>
<path d="M179.02 87.34C178.32 87.45 177.84 87.24 177.5 86.87C177.35 86.71 177.29 86.23 177.42 86.06C177.76 85.6 178.56 85.48 179.09 85.7C179.38 85.82 179.59 86.32 179.44 86.75C179.36 87 179.13 87.2 179.03 87.33L179.02 87.34Z" fill="black"/>
<path d="M150.66 159.02C151.15 158.98 151.51 159.23 151.63 159.66C151.73 160.04 151.53 160.54 151.17 160.7C150.98 160.79 150.77 160.84 150.57 160.86C150.26 160.88 149.89 160.91 149.77 160.55C149.68 160.28 149.65 159.94 149.74 159.67C149.87 159.24 150.24 159.03 150.67 159.03L150.66 159.02Z" fill="black"/>
<path d="M140.81 124.6C140.32 124.63 139.76 124.1 139.78 123.63C139.8 123.16 140.33 122.66 140.82 122.64C141.33 122.62 141.88 123.13 141.84 123.6C141.81 124.08 141.29 124.57 140.8 124.6H140.81Z" fill="black"/>
<path d="M129.18 163.18C129.13 163.71 128.59 164.12 128.07 164.04C127.54 163.95 127.1 163.46 127.11 162.98C127.12 162.51 127.67 162.12 128.26 162.15C128.85 162.18 129.24 162.62 129.18 163.18Z" fill="black"/>
<path d="M150.09 120.25C150.13 119.76 150.67 119.34 151.22 119.38C151.77 119.42 152.17 119.88 152.13 120.44C152.1 121 151.62 121.38 151.05 121.3C150.5 121.22 150.05 120.73 150.09 120.26V120.25Z" fill="black"/>
<path d="M147.52 150.75C147.09 150.73 146.66 150.37 146.65 150.02C146.62 149.34 147.23 148.75 147.81 148.88C148.37 149 148.74 149.46 148.72 149.98C148.7 150.41 148.11 150.79 147.52 150.76V150.75Z" fill="black"/>
<path d="M115.26 136.92C115.22 137.01 115.22 137.14 115.15 137.2C114.62 137.67 113.84 137.69 113.17 137.27C112.85 137.07 112.87 136.45 113.19 136.22C113.83 135.77 114.64 135.81 115.12 136.36C115.23 136.49 115.22 136.73 115.26 136.92Z" fill="black"/>
<path d="M152.18 132.94C152.25 133.55 151.95 134.01 151.43 134.11C150.86 134.21 150.34 133.87 150.29 133.36C150.23 132.77 150.53 132.32 151.06 132.2C151.63 132.07 152.12 132.39 152.18 132.95V132.94Z" fill="black"/>
<path d="M105.68 159.43C105.76 159.95 105.45 160.45 104.93 160.63C104.46 160.79 103.85 160.29 103.91 159.79C103.97 159.21 104.77 158.72 105.32 158.97C105.48 159.04 105.56 159.28 105.68 159.44V159.43Z" fill="black"/>
<path d="M148.45 156.3C148.48 157 148.06 157.5 147.39 157.55C146.85 157.59 146.41 157.21 146.35 156.64C146.3 156.02 146.83 155.57 147.58 155.59C148.04 155.6 148.44 155.92 148.45 156.3Z" fill="black"/>
<path d="M145.06 100.35C144.96 100.95 144.47 101.35 143.99 101.21C143.5 101.07 143.15 100.5 143.23 99.98C143.29 99.61 143.78 99.23 144.15 99.27C144.68 99.32 145.14 99.87 145.06 100.35Z" fill="black"/>
<path d="M168.55 90.01C168.46 90.64 168.09 91.04 167.51 91.15C167.35 91.18 167.1 91.08 166.98 90.95C166.59 90.54 166.61 90.01 166.99 89.55C167.27 89.22 167.71 89.11 168.1 89.39C168.32 89.55 168.44 89.85 168.55 90.01Z" fill="black"/>
<path d="M159.14 92.05C159.15 92.74 158.98 93.17 158.45 93.43C158.14 93.59 157.86 93.53 157.59 93.37C157.29 93.19 157.22 92.89 157.29 92.58C157.42 91.97 157.99 91.51 158.62 91.59C158.84 91.62 159.02 91.93 159.14 92.05Z" fill="black"/>
<path d="M101.07 137.91C100.56 137.98 100.1 137.63 100 137.09C99.88 136.46 100.12 135.97 100.59 135.89C101.23 135.78 101.81 136.19 101.91 136.83C101.99 137.32 101.58 137.84 101.08 137.91H101.07Z" fill="black"/>
<path d="M107.4 137.69C107.22 137.63 106.97 137.63 106.89 137.5C106.54 136.99 106.33 136.42 106.63 135.81C106.7 135.67 106.95 135.52 107.1 135.54C107.63 135.59 108.04 136 108.11 136.48C108.19 136.94 107.83 137.54 107.39 137.69H107.4Z" fill="black"/>
<path d="M91.36 146.16C91.88 146.21 92.35 146.73 92.26 147.15C92.15 147.65 91.72 147.96 91.14 147.94C90.68 147.92 90.34 147.37 90.47 146.82C90.56 146.44 90.97 146.14 91.35 146.17L91.36 146.16Z" fill="black"/>
<path d="M142.28 116.16C142.36 116.73 141.86 117.43 141.29 117.54C141.2 117.56 141.09 117.54 141 117.52C140.67 117.41 140.52 117.13 140.48 116.81C140.42 116.25 140.73 115.83 141.29 115.66C141.62 115.56 141.9 115.67 142.13 115.9C142.2 115.97 142.23 116.07 142.28 116.16Z" fill="black"/>
<path d="M141.63 129.89C141.44 130.13 141.29 130.4 141.08 130.58C140.88 130.75 140.41 130.58 140.29 130.32C140.16 130.05 140.02 129.74 140.05 129.46C140.08 129.2 140.28 128.92 140.47 128.72C140.63 128.55 141.1 128.73 141.26 129.02C141.41 129.28 141.5 129.57 141.64 129.89H141.63Z" fill="black"/>
<path d="M150.57 105.56C151.09 105.6 151.53 106.09 151.47 106.57C151.42 106.93 150.97 107.26 150.58 107.25C150.05 107.23 149.62 106.74 149.69 106.25C149.74 105.89 150.2 105.54 150.57 105.56Z" fill="black"/>
<path d="M135.4 103.13C135.45 103.7 135.05 104.17 134.5 104.17C134.15 104.17 133.92 103.94 133.82 103.63C133.66 103.13 134.04 102.52 134.54 102.41C134.91 102.33 135.37 102.72 135.4 103.12V103.13Z" fill="black"/>
<path d="M111.26 112.38C111.63 112.44 111.94 112.47 112.24 112.55C112.6 112.65 112.65 112.97 112.63 113.29C112.62 113.65 112.35 113.85 112.04 113.89C111.75 113.92 111.43 113.87 111.14 113.77C110.66 113.61 110.35 113.09 110.58 112.84C110.77 112.64 111.05 112.52 111.26 112.39V112.38Z" fill="black"/>
<path d="M101.66 130.92C101.12 130.98 100.65 130.61 100.6 130.1C100.55 129.57 100.95 129.07 101.44 129.06C101.94 129.05 102.38 129.4 102.52 129.93C102.64 130.4 102.24 130.86 101.66 130.92Z" fill="black"/>
<path d="M144.15 113.73C143.76 113.79 143.34 113.5 143.26 113.12C143.15 112.62 143.46 112.11 143.95 111.96C144.46 111.81 144.96 112.15 145.01 112.69C145.06 113.19 144.68 113.64 144.15 113.72V113.73Z" fill="black"/>
<path d="M128.35 150.17C128.33 150.49 127.92 150.96 127.58 151.04C127.08 151.16 126.48 150.84 126.35 150.38C126.33 150.29 126.32 150.18 126.35 150.1C126.49 149.67 126.82 149.45 127.24 149.37C127.66 149.29 128.02 149.47 128.25 149.88C128.3 149.97 128.31 150.07 128.34 150.17H128.35Z" fill="black"/>
<path d="M122.02 150.21C122.04 150.52 121.62 151.12 121.3 151.11C121.02 151.1 120.68 150.99 120.5 150.8C120.3 150.59 120.26 150.24 120.15 149.95C120.06 149.71 120.15 149.56 120.36 149.42C121.1 148.95 121.9 149.57 122.02 150.21Z" fill="black"/>
<path d="M155.32 116.29C155.32 116.8 154.79 117.25 154.28 117.18C153.87 117.12 153.54 116.77 153.48 116.34C153.42 115.9 153.94 115.26 154.38 115.22C154.78 115.19 155.32 115.8 155.32 116.29Z" fill="black"/>
<path d="M138.52 112.07C138.9 112 139.32 112.36 139.37 112.8C139.43 113.29 139.22 113.63 138.78 113.76C138.19 113.92 137.58 113.62 137.57 113.14C137.57 112.61 137.96 112.17 138.52 112.07Z" fill="black"/>
<path d="M98.8101 125.93C98.8401 126.51 98.5001 126.96 98.0001 127C97.5101 127.04 96.9501 126.54 96.9901 126.1C97.0301 125.65 97.5401 125.2 98.0301 125.17C98.4201 125.15 98.7901 125.5 98.8101 125.92V125.93Z" fill="black"/>
<path d="M131.66 127.12C131.35 126.96 131.05 126.86 130.85 126.66C130.75 126.56 130.78 126.26 130.84 126.07C130.9 125.88 131.02 125.64 131.18 125.56C131.44 125.43 131.77 125.32 132.03 125.37C132.35 125.43 132.54 126.11 132.33 126.44C132.17 126.69 131.92 126.87 131.67 127.12H131.66Z" fill="black"/>
<path d="M101.67 123.18C101.6 123.92 101.15 124.32 100.62 124.2C100.29 124.12 100.07 123.89 100.06 123.53C100.03 122.91 100.48 122.51 101.06 122.68C101.31 122.76 101.51 123.03 101.67 123.17V123.18Z" fill="black"/>
<path d="M147.82 128.75C147.99 128.84 148.24 128.88 148.34 129.02C148.68 129.5 148.58 130.15 148.1 130.37C147.86 130.48 147.48 130.46 147.24 130.34C146.96 130.21 146.83 129.88 146.96 129.53C147.11 129.11 147.34 128.8 147.82 128.74V128.75Z" fill="black"/>
<path d="M88.45 129.72C88.49 130.15 88.2 130.54 87.76 130.62C87.14 130.74 86.47 130.15 86.53 129.54C86.57 129.13 86.99 128.76 87.38 128.78C87.97 128.82 88.39 129.2 88.44 129.72H88.45Z" fill="black"/>
<path d="M154.3 157.23C154.11 157.13 153.82 157.01 153.57 156.84C153.35 156.7 153.29 156.22 153.43 155.98C153.69 155.53 154.31 155.28 154.78 155.45C155.21 155.6 155.51 155.97 155.51 156.37C155.51 156.86 154.97 157.29 154.31 157.23H154.3Z" fill="black"/>
<path d="M128.17 103.25C128.01 104.04 127.22 104.37 126.7 103.95C126.56 103.84 126.46 103.57 126.49 103.41C126.58 102.89 127.18 102.5 127.67 102.67C127.9 102.75 128.04 103.09 128.18 103.26L128.17 103.25Z" fill="black"/>
<path d="M122 102.32C121.91 102.61 121.86 102.81 121.78 103C121.64 103.32 121.37 103.46 121.03 103.36C120.71 103.26 120.52 103.01 120.53 102.67C120.53 102.47 120.59 102.26 120.67 102.09C120.82 101.78 121.13 101.62 121.43 101.77C121.67 101.89 121.83 102.17 121.99 102.34L122 102.32Z" fill="black"/>
<path d="M108.44 156.24C108.4 156.91 108.21 157.39 107.76 157.7C107.61 157.8 107.36 157.88 107.21 157.83C107.05 157.78 106.84 157.54 106.85 157.41C106.9 156.91 107.02 156.4 107.15 155.92C107.22 155.68 107.73 155.51 107.95 155.67C108.17 155.83 108.32 156.1 108.44 156.24Z" fill="black"/>
<path d="M182.14 76.84C182.14 77.24 181.7 77.62 181.31 77.59C180.92 77.56 180.48 77.16 180.45 76.82C180.4 76.3 180.83 75.7601 181.31 75.7301C181.76 75.7101 182.16 76.23 182.13 76.83L182.14 76.84Z" fill="black"/>
<path d="M134.67 110.65C134.02 110.6 133.61 110.02 133.75 109.35C133.83 108.94 134.3 108.66 134.65 108.81C135.05 108.97 135.33 109.23 135.47 109.65C135.63 110.12 135.19 110.69 134.67 110.65Z" fill="black"/>
<path d="M124.86 160.98C124.49 160.84 124.02 160.69 123.6 160.46C123.48 160.39 123.39 160.09 123.43 159.92C123.47 159.76 123.66 159.6 123.83 159.53C124.35 159.31 124.85 159.45 125.24 159.8C125.42 159.96 125.46 160.32 125.46 160.59C125.46 160.69 125.16 160.79 124.87 160.97L124.86 160.98Z" fill="black"/>
<path d="M90.99 158.4C91.09 158.41 91.2 158.41 91.29 158.45C91.65 158.57 91.82 158.97 91.75 159.47C91.69 159.88 91.3 160.26 90.93 160.27C90.38 160.29 89.96 159.74 90.14 159.24C90.29 158.82 90.55 158.53 90.98 158.4H90.99Z" fill="black"/>
<path d="M90.91 154.47C90.43 154.42 90.07 153.86 90.17 153.33C90.28 152.8 90.81 152.43 91.3 152.54C91.63 152.62 91.97 153.13 91.93 153.49C91.87 154.02 91.36 154.51 90.91 154.46V154.47Z" fill="black"/>
<path d="M177.49 78.84C178.06 78.85 178.44 79.23 178.45 79.61C178.45 79.99 178.02 80.39 177.64 80.35C177.24 80.3 176.93 79.9 177.04 79.43C177.1 79.18 177.37 78.99 177.49 78.84Z" fill="black"/>
<path d="M144.29 105.66C144.73 105.64 145.08 105.93 145.13 106.35C145.18 106.79 144.87 107.23 144.51 107.22C144.09 107.22 143.7 106.91 143.64 106.53C143.58 106.15 143.93 105.68 144.28 105.66H144.29Z" fill="black"/>
<path d="M121.82 109.57C121.79 109.97 121.37 110.31 121 110.21C120.69 110.13 120.49 109.91 120.47 109.58C120.45 109.17 120.78 108.78 121.15 108.75C121.49 108.73 121.85 109.16 121.82 109.57Z" fill="black"/>
<path d="M121.55 95.18C121.94 95.14 122.33 95.59 122.21 95.98C122.15 96.17 122.06 96.36 121.92 96.5C121.71 96.71 121.48 96.94 121.13 96.79C120.84 96.67 120.54 96.5 120.61 96.14C120.66 95.87 120.81 95.59 120.99 95.38C121.1 95.25 121.35 95.25 121.54 95.18H121.55Z" fill="black"/>
<path d="M135.1 123.37C134.99 123.53 134.91 123.76 134.76 123.83C134.49 123.95 134.15 124.07 133.88 124.02C133.62 123.97 133.26 123.74 133.21 123.53C133.15 123.3 133.33 122.91 133.53 122.73C133.9 122.39 134.54 122.46 134.92 122.82C135.04 122.94 135.05 123.18 135.11 123.37H135.1Z" fill="black"/>
<path d="M138.87 147.07C138.84 147.65 138.37 148.09 137.9 147.98C137.58 147.9 137.2 147.42 137.19 147.08C137.17 146.6 137.68 146.15 138.21 146.19C138.56 146.22 138.89 146.65 138.87 147.08V147.07Z" fill="black"/>
<path d="M117.79 139.38C117.97 139.47 118.2 139.51 118.31 139.66C118.65 140.11 118.54 140.69 118.11 141.03C117.77 141.3 117.24 141.17 117.08 140.79C116.81 140.15 117.21 139.36 117.79 139.38Z" fill="black"/>
<path d="M85.28 147.25C85.28 147.25 84.91 147.47 84.61 147.43C84.42 147.4 84.26 147.34 84.12 147.26C83.81 147.08 83.62 146.79 83.52 146.44C83.46 146.21 83.67 145.87 83.84 145.64C83.87 145.59 84 145.6 84.14 145.64C84.24 145.66 84.34 145.69 84.42 145.73C84.9 145.98 85.26 146.35 85.28 147.25Z" fill="black"/>
<path d="M162.24 162.62C162.35 163.08 162.16 163.45 161.8 163.65C161.58 163.78 161.24 163.76 160.97 163.7C160.85 163.68 160.69 163.37 160.72 163.22C160.83 162.66 161.25 162.38 161.79 162.33C161.93 162.32 162.1 162.51 162.24 162.61V162.62Z" fill="black"/>
<path d="M85.23 153.61C85.16 153.79 85.11 153.99 85.01 154.16C84.84 154.43 84.51 154.52 84.25 154.39C84.16 154.35 84.07 154.28 84.01 154.18C83.9 154.02 83.79 153.83 83.77 153.64C83.72 153.34 83.85 153.05 84.06 152.87C84.22 152.73 84.42 152.65 84.63 152.68C84.97 152.74 85.26 153.18 85.23 153.61Z" fill="black"/>
<path d="M151.36 152.67C151.76 152.64 152.18 152.99 152.23 153.41C152.28 153.84 151.96 154.29 151.59 154.32C151.09 154.36 150.49 153.88 150.48 153.45C150.48 153.14 150.97 152.7 151.36 152.67Z" fill="black"/>
<path d="M173.91 96.02C174.1 96.07 174.3 96.1 174.48 96.17C174.76 96.29 174.81 96.79 174.54 96.93C174.28 97.06 173.98 97.16 173.69 97.17C173.53 97.17 173.26 97.01 173.21 96.87C173.16 96.72 173.27 96.46 173.39 96.32C173.51 96.18 173.73 96.12 173.9 96.02H173.91Z" fill="black"/>
<path d="M185.29 86.03C185.21 86.22 185.15 86.42 185.06 86.6C184.93 86.87 184.5 86.92 184.26 86.74C183.96 86.52 183.96 86.21 183.98 85.9C184.01 85.55 184.22 85.35 184.54 85.24C184.78 85.15 184.97 85.22 185.07 85.46C185.15 85.65 185.22 85.84 185.29 86.04V86.03Z" fill="black"/>
<path d="M172.01 107.48C171.77 107.65 171.58 107.86 171.34 107.96C171.1 108.06 170.68 107.78 170.67 107.52C170.66 107.23 170.67 106.92 170.78 106.64C170.83 106.5 171.06 106.4 171.23 106.32C171.46 106.22 171.64 106.32 171.73 106.56C171.83 106.84 171.9 107.12 172.02 107.48H172.01Z" fill="black"/>
<path d="M168.64 96.31C168.43 96.57 168.3 96.85 168.08 96.99C167.83 97.16 167.49 96.96 167.34 96.64C167.19 96.33 167.22 96.03 167.44 95.79C167.55 95.67 167.84 95.56 167.94 95.63C168.18 95.78 168.37 96.03 168.63 96.3L168.64 96.31Z" fill="black"/>
<path d="M90.58 120.69C90.52 120.09 90.68 119.84 91.13 119.66C91.37 119.57 91.55 119.62 91.61 119.86C91.68 120.13 91.75 120.42 91.73 120.69C91.7 121.03 91.35 121.27 91.12 121.14C90.89 121.01 90.71 120.79 90.58 120.68V120.69Z" fill="black"/>
<path d="M151.7 139.57C151.47 139.8 151.3 140.05 151.06 140.17C150.95 140.23 150.67 140.07 150.53 139.94C150.31 139.72 150.2 139.42 150.37 139.11C150.51 138.86 151 138.63 151.15 138.79C151.36 139 151.49 139.28 151.69 139.58L151.7 139.57Z" fill="black"/>
<path d="M114.79 130.76C114.38 130.74 113.98 130.24 114.16 129.86C114.28 129.61 114.56 129.36 114.82 129.27C115.17 129.15 115.68 129.65 115.66 130.01C115.64 130.36 115.16 130.77 114.78 130.76H114.79Z" fill="black"/>
<path d="M151.92 126.58C151.61 126.78 151.39 127.01 151.15 127.04C150.77 127.09 150.47 126.55 150.62 126.19C150.73 125.93 151.1 125.73 151.35 125.89C151.56 126.03 151.7 126.3 151.92 126.58Z" fill="black"/>
<path d="M94.22 136.87C93.88 136.89 93.53 136.49 93.49 136.09C93.46 135.7 93.81 135.3 94.19 135.33C94.6 135.35 94.93 135.69 94.92 136.08C94.91 136.49 94.57 136.87 94.21 136.87H94.22Z" fill="black"/>
<path d="M161.16 110.62C160.95 110.37 160.72 110.19 160.62 109.95C160.57 109.83 160.73 109.56 160.87 109.44C161.11 109.23 161.41 109.09 161.73 109.24C161.91 109.32 162.15 109.44 162.2 109.6C162.25 109.76 162.15 110.04 162.02 110.16C161.8 110.35 161.5 110.45 161.15 110.63L161.16 110.62Z" fill="black"/>
<path d="M108.39 123.35C108.34 123.66 108.36 123.88 108.26 124.05C108.17 124.2 107.97 124.36 107.8 124.37C107.63 124.39 107.4 124.28 107.28 124.15C107.07 123.92 106.99 123.61 107.15 123.3C107.29 123.02 107.49 122.71 107.84 122.83C108.08 122.92 108.24 123.2 108.39 123.35Z" fill="black"/>
<path d="M141.84 150.06C141.8 150.57 141.39 150.96 141.02 150.94C140.77 150.93 140.43 150.55 140.44 150.28C140.45 149.89 140.89 149.45 141.24 149.56C141.49 149.64 141.67 149.91 141.83 150.06H141.84Z" fill="black"/>
<path d="M134.67 136.62C134.53 137.05 134.07 137.28 133.75 137.04C133.62 136.94 133.51 136.7 133.52 136.53C133.55 136.12 134.03 135.91 134.43 136.14C134.56 136.21 134.59 136.46 134.67 136.62Z" fill="black"/>
<path d="M134.4 144.14C134.2 143.83 133.98 143.62 133.92 143.37C133.86 143.1 134.23 142.82 134.52 142.83C134.98 142.84 135.41 143.32 135.18 143.61C135.02 143.82 134.72 143.93 134.39 144.15L134.4 144.14Z" fill="black"/>
<path d="M84.6701 140.32C84.5801 140.48 84.4201 140.6 84.2201 140.76C84.1301 140.83 84.0401 140.91 83.9401 141C83.7801 140.6 83.6001 140.34 83.6001 140.08C83.5901 139.8 83.9601 139.56 84.2401 139.58C84.2601 139.58 84.2801 139.58 84.3001 139.59C84.5701 139.64 84.8101 140.04 84.6701 140.32Z" fill="black"/>
<path d="M104.12 113.75C103.49 113.78 103.23 113.58 103.14 113.11C103.08 112.8 103.28 112.5 103.58 112.44C104.12 112.32 104.68 112.73 104.57 113.24C104.52 113.47 104.23 113.64 104.12 113.76V113.75Z" fill="black"/>
<path d="M112.12 146.35C112.02 146.56 111.95 146.93 111.75 147.03C111.59 147.11 111.19 146.92 111.03 146.74C110.79 146.47 111 146.17 111.24 145.98C111.39 145.86 111.63 145.74 111.78 145.78C111.92 145.83 111.98 146.09 112.12 146.34V146.35Z" fill="black"/>
<path d="M174.85 89.63C174.84 89.8 174.87 89.95 174.82 89.98C174.58 90.13 174.3 90.38 174.08 90.35C173.85 90.32 173.65 90 173.44 89.8C173.67 89.61 173.88 89.31 174.13 89.28C174.36 89.25 174.63 89.51 174.85 89.63Z" fill="black"/>
<path d="M187.94 110.02C187.8 110.13 187.58 110.23 187.43 110.2C187.02 110.12 186.7 109.54 186.91 109.32C187.04 109.18 187.23 109.11 187.4 109.01C187.57 109.1 187.76 109.16 187.91 109.28C188.18 109.5 188.2 109.8 187.94 110.02Z" fill="black"/>
<path d="M141.29 103.96C141.04 103.68 140.79 103.5 140.7 103.25C140.61 103.01 141 102.68 141.29 102.68C141.6 102.68 142.01 103 141.92 103.22C141.81 103.47 141.56 103.65 141.29 103.95V103.96Z" fill="black"/>
<path d="M88.3 150.48C88.14 150.62 87.95 150.88 87.7 150.97C87.39 151.09 86.97 150.57 87.02 150.19C87.05 149.95 87.41 149.57 87.62 149.56C87.98 149.56 88.37 150.01 88.31 150.48H88.3Z" fill="black"/>
<path d="M124.72 119.78C124.82 120.16 124.51 120.65 124.09 120.66C123.81 120.66 123.53 120.5 123.24 120.42C123.37 120.16 123.43 119.81 123.64 119.67C123.86 119.52 124.22 119.56 124.51 119.56C124.58 119.56 124.65 119.71 124.71 119.79L124.72 119.78Z" fill="black"/>
<path d="M154.91 150.56C154.75 150.63 154.59 150.7 154.42 150.77C154.36 150.59 154.23 150.41 154.25 150.24C154.27 149.98 154.49 149.9 154.68 150.08C154.8 150.19 154.83 150.4 154.91 150.56Z" fill="black"/>
<path d="M180.81 109.49C181.04 109.63 181.26 109.69 181.33 109.82C181.48 110.13 181.29 110.44 180.96 110.42C180.78 110.42 180.61 110.27 180.43 110.2C180.56 109.97 180.68 109.73 180.81 109.49Z" fill="black"/>
<path d="M178.58 72.89C178.67 73.14 178.58 73.31 178.34 73.41C178.1 73.51 177.86 73.46 177.82 73.21C177.79 73.04 177.91 72.76 178.05 72.68C178.16 72.62 178.4 72.81 178.58 72.88V72.89Z" fill="black"/>
<path d="M131.61 105.99C131.71 106.02 131.81 106.04 131.9 106.08C132.15 106.17 132.25 106.36 132.09 106.57C131.98 106.72 131.76 106.87 131.59 106.87C131.42 106.87 131.2 106.72 131.1 106.57C130.97 106.37 131.08 106.16 131.31 106.06C131.4 106.02 131.51 106.01 131.61 105.98V105.99Z" fill="black"/>
<path d="M105.55 133.71C105.42 133.83 105.36 133.93 105.27 133.97C104.97 134.11 104.68 134.06 104.42 133.86C104.15 133.65 104.08 133.27 104.26 133.06C104.46 132.82 104.88 132.76 105.09 132.99C105.28 133.2 105.41 133.48 105.55 133.71Z" fill="black"/>
<path d="M91.69 133.21C91.41 133.5 91.25 133.73 91.04 133.87C90.85 134 90.65 133.87 90.56 133.63C90.44 133.3 90.55 132.84 90.77 132.86C91.04 132.88 91.29 133.05 91.69 133.21Z" fill="black"/>
<path d="M114.98 109.73C114.74 110.04 114.61 110.31 114.39 110.46C114.19 110.6 113.87 110.32 113.78 109.98C113.7 109.69 113.93 109.27 114.2 109.31C114.44 109.34 114.66 109.55 114.97 109.73H114.98Z" fill="black"/>
<path d="M108.36 116.73C107.95 116.81 107.68 116.94 107.44 116.9C107.14 116.85 107.07 116.5 107.24 116.16C107.35 115.93 107.56 115.82 107.75 115.97C107.96 116.13 108.09 116.39 108.36 116.74V116.73Z" fill="black"/>
<path d="M128.05 116.66C127.64 116.75 127.36 116.87 127.1 116.85C126.81 116.83 126.74 116.46 126.9 116.09C127.01 115.85 127.21 115.74 127.41 115.9C127.62 116.07 127.78 116.32 128.05 116.65V116.66Z" fill="black"/>
<path d="M145.01 146.87C144.92 147.03 144.88 147.27 144.74 147.34C144.49 147.48 144.1 147.21 144.11 146.91C144.11 146.74 144.23 146.51 144.37 146.41C144.59 146.25 144.93 146.52 145.01 146.87Z" fill="black"/>
<path d="M91.09 139.85C91.26 139.94 91.49 139.98 91.58 140.12C91.72 140.32 91.4 140.77 91.14 140.75C90.97 140.73 90.77 140.6 90.67 140.46C90.5 140.2 90.73 139.89 91.09 139.85Z" fill="black"/>
<path d="M111.45 139.17C111.81 139.23 112.01 139.53 111.86 139.79C111.7 140.07 111.45 140.25 111.15 140.18C111.03 140.15 110.93 139.86 110.91 139.68C110.86 139.31 111.1 139.12 111.46 139.17H111.45Z" fill="black"/>
<path d="M151.47 113.09C151.37 113.24 151.31 113.47 151.17 113.53C150.88 113.66 150.33 113.06 150.49 112.79C150.57 112.65 150.81 112.56 150.98 112.54C151.33 112.51 151.5 112.72 151.47 113.09Z" fill="black"/>
<path d="M138.22 120.13C138.12 120.53 137.9 120.7 137.6 120.61C137.2 120.49 137.02 120.27 137.11 119.98C137.2 119.66 137.4 119.47 137.76 119.51C138.1 119.55 138.31 119.82 138.22 120.14V120.13Z" fill="black"/>
<path d="M135.04 130.31C134.93 130.43 134.79 130.71 134.59 130.77C134.25 130.87 134.09 130.56 133.99 130.27C133.89 129.98 134.07 129.76 134.45 129.66C134.75 129.58 134.96 129.77 135.04 130.3V130.31Z" fill="black"/>
<path d="M117.96 133.11C117.88 133.28 117.84 133.48 117.72 133.6C117.53 133.78 117.33 133.7 117.31 133.44C117.3 133.28 117.4 133.11 117.45 132.94C117.62 133 117.79 133.06 117.97 133.11H117.96Z" fill="black"/>
<path d="M148.26 143.44C148.13 143.55 148.02 143.74 147.88 143.76C147.59 143.8 147.31 143.37 147.49 143.19C147.61 143.07 147.85 142.98 148.01 143.02C148.12 143.04 148.17 143.3 148.25 143.45L148.26 143.44Z" fill="black"/>
<path d="M175.03 76.28C175.12 76.51 175.06 76.74 174.83 76.78C174.67 76.81 174.47 76.66 174.29 76.59C174.37 76.42 174.41 76.2 174.55 76.09C174.75 75.93 174.94 76.04 175.03 76.28Z" fill="black"/>
<path d="M125.26 106.28C125.09 106.52 125.01 106.73 124.87 106.81C124.57 106.97 124.24 106.77 124.25 106.44C124.25 106.27 124.45 105.97 124.52 105.98C124.77 106.02 125 106.16 125.26 106.28Z" fill="black"/>
<path d="M107.73 163.27C107.79 163.19 107.85 163.04 107.92 163.03C108.17 162.99 108.58 163.44 108.51 163.67C108.49 163.74 108.34 163.81 108.24 163.82C107.79 163.88 107.64 163.71 107.72 163.27H107.73Z" fill="black"/>
<path d="M128.05 156.52C127.97 156.64 127.89 156.76 127.82 156.87C127.69 156.78 127.55 156.7 127.43 156.59C127.43 156.59 127.53 156.38 127.57 156.38C127.73 156.39 127.88 156.46 128.05 156.51V156.52Z" fill="black"/>
<path d="M141.48 143.17C141.34 143.28 141.27 143.37 141.19 143.39C140.92 143.43 140.73 143.15 140.83 142.84C140.86 142.76 140.96 142.71 141.03 142.64C141.18 142.81 141.33 142.99 141.48 143.16V143.17Z" fill="black"/>
<path d="M144.41 139.99C144.38 140.07 144.36 140.2 144.3 140.22C144.05 140.3 143.93 140.18 144 139.91C144.02 139.85 144.16 139.76 144.22 139.78C144.29 139.8 144.34 139.91 144.41 139.98V139.99Z" fill="black"/>
<path d="M93.9 129.37C93.97 129.37 94.08 129.37 94.11 129.4C94.16 129.48 94.19 129.59 94.17 129.68C94.15 129.76 94.05 129.83 93.98 129.9C93.93 129.82 93.85 129.74 93.83 129.64C93.82 129.56 93.87 129.46 93.89 129.37H93.9Z" fill="black"/>
<path d="M107.53 150.1C107.46 150.12 107.39 150.14 107.33 150.16C107.31 150.08 107.24 149.95 107.27 149.92C107.44 149.76 107.54 149.83 107.53 150.1Z" fill="black"/>
<path d="M87.81 156.72C87.73 156.76 87.63 156.84 87.56 156.83C87.32 156.77 87.27 156.6 87.41 156.4C87.46 156.33 87.56 156.3 87.63 156.25C87.69 156.41 87.75 156.56 87.81 156.72Z" fill="black"/>
<path d="M100.96 116.44C100.84 116.54 100.73 116.72 100.63 116.71C100.5 116.7 100.38 116.54 100.26 116.44C100.32 116.37 100.4 116.23 100.45 116.24C100.62 116.27 100.78 116.36 100.96 116.44Z" fill="black"/>
<path d="M181.31 83.44C181.24 83.5 181.18 83.56 181.11 83.62C181.07 83.54 180.99 83.45 181 83.37C181.02 83.29 181.12 83.24 181.19 83.17C181.23 83.26 181.27 83.34 181.31 83.43V83.44Z" fill="black"/>
<path d="M148.08 110.09C148.01 110.06 147.89 110.03 147.89 110C147.89 109.91 147.94 109.82 147.96 109.73C148.03 109.76 148.15 109.79 148.15 109.82C148.15 109.91 148.11 110 148.08 110.08V110.09Z" fill="black"/>
<path d="M158.47 99.95C158.38 100.07 158.29 100.3 158.2 100.3C158.04 100.3 157.88 100.16 157.72 100.08C157.82 99.96 157.89 99.8 158.02 99.73C158.23 99.61 158.4 99.71 158.47 99.94V99.95Z" fill="black"/>
<path d="M178.14 99.96C178.2 100.21 178.11 100.4 177.86 100.46C177.8 100.47 177.66 100.36 177.62 100.27C177.52 100.02 177.62 99.84 177.88 99.79C177.95 99.78 178.05 99.9 178.13 99.96H178.14Z" fill="black"/>
<path d="M180.78 103.47C180.63 103.36 180.48 103.26 180.33 103.15C180.49 103.05 180.64 102.87 180.8 102.88C180.96 102.88 181.11 103.07 181.26 103.18C181.1 103.28 180.94 103.38 180.78 103.48V103.47Z" fill="black"/>
<path d="M114.47 103.51C114.27 103.55 114.13 103.46 114.13 103.23C114.13 103.16 114.27 103.03 114.29 103.04C114.43 103.12 114.56 103.22 114.69 103.32C114.62 103.38 114.56 103.44 114.47 103.52V103.51Z" fill="black"/>
<path d="M131.62 112.87C131.59 112.95 131.59 113.06 131.53 113.09C131.37 113.18 131.26 113.09 131.28 112.85C131.28 112.79 131.39 112.73 131.45 112.68C131.5 112.74 131.56 112.81 131.61 112.87H131.62Z" fill="black"/>
<path d="M154.67 96.4701C154.57 96.6901 154.41 96.7501 154.3 96.6001C154.22 96.4801 154.23 96.3001 154.23 96.1501C154.23 96.1201 154.38 96.0501 154.45 96.0601C154.69 96.1001 154.76 96.2501 154.66 96.4701H154.67Z" fill="black"/>
<path d="M151.19 93.0701C151.29 93.1901 151.47 93.3001 151.46 93.4101C151.46 93.5301 151.3 93.6501 151.2 93.7701C151.13 93.7101 150.99 93.6301 151 93.5801C151.03 93.4101 151.11 93.2501 151.18 93.0601L151.19 93.0701Z" fill="black"/>
<path d="M151.39 99.57C151.31 99.74 151.24 99.91 151.16 100.07C151.1 99.99 151 99.93 150.97 99.84C150.94 99.75 150.94 99.63 150.97 99.54C151.01 99.46 151.11 99.4 151.18 99.33C151.24 99.41 151.31 99.48 151.38 99.56L151.39 99.57Z" fill="black"/>
<path d="M117.93 126.73C117.78 126.82 117.63 126.92 117.47 126.98C117.45 126.98 117.31 126.83 117.32 126.77C117.34 126.52 117.5 126.44 117.73 126.54C117.81 126.57 117.86 126.67 117.93 126.73Z" fill="black"/>
<path d="M101.2 143.35C101.13 143.4 101.05 143.51 100.99 143.5C100.93 143.5 100.88 143.37 100.82 143.31C100.89 143.26 100.97 143.15 101.03 143.16C101.09 143.16 101.14 143.29 101.2 143.35Z" fill="black"/>
<path d="M144.48 126.18C144.4 126.24 144.33 126.31 144.25 126.37C144.19 126.29 144.07 126.21 144.08 126.14C144.08 126.07 144.22 126.01 144.3 125.95C144.36 126.03 144.42 126.11 144.48 126.19V126.18Z" fill="black"/>
<path d="M94.21 123.57C94.14 123.63 94.06 123.73 93.99 123.73C93.92 123.73 93.8 123.56 93.82 123.54C93.96 123.29 94.1 123.31 94.21 123.58V123.57Z" fill="black"/>
<path d="M131.07 140.07C131.01 140.12 130.95 140.18 130.88 140.24C130.83 140.18 130.73 140.11 130.73 140.05C130.73 139.99 130.84 139.94 130.9 139.88C130.95 139.94 131.01 140.01 131.06 140.07H131.07Z" fill="black"/>
<path d="M124.52 139.89C124.58 139.96 124.7 140.04 124.69 140.11C124.68 140.18 124.56 140.24 124.49 140.31C124.43 140.23 124.31 140.16 124.32 140.09C124.32 140.02 124.45 139.96 124.52 139.89Z" fill="black"/>
<path d="M147.99 136.72L148.09 136.94L147.87 136.93L147.99 136.72Z" fill="black"/>
<path d="M141.04 136.44L140.98 136.27L141.14 136.29L141.04 136.44Z" fill="black"/>
<path d="M140.94 110.14L141.1 110.09L141.07 110.25L140.94 110.14Z" fill="black"/>
<path d="M114.49 156.72C114.43 156.78 114.37 156.84 114.31 156.89C114.25 156.83 114.15 156.76 114.16 156.7C114.16 156.64 114.27 156.58 114.33 156.53C114.39 156.59 114.44 156.66 114.5 156.72H114.49Z" fill="black"/>
</g>
<defs>
<clipPath id="clip0_394_2">
<rect width="237.2" height="171.14" fill="white" transform="translate(3 5)"/>
</clipPath>
</defs>
</svg>
