<svg width="243" height="182" viewBox="0 0 243 182" fill="none" xmlns="http://www.w3.org/2000/svg">
<g clip-path="url(#clip0_394_1263)">
<path d="M107.57 98.8199C103.44 98.8199 100.08 95.4699 100.08 91.3299V83.0299C100.08 78.8899 103.43 75.5199 107.57 75.5199C117.82 75.5199 124.23 64.4199 119.1 55.5399C113.97 46.6599 101.16 46.6699 96.03 55.5399C94.86 57.5599 94.25 59.8599 94.25 62.1999C94.24 67.9599 87.99 71.56 83 68.66C80.7 67.32 79.27 64.8599 79.27 62.1999C79.25 40.4099 102.83 26.7699 121.71 37.6399C140.59 48.5199 140.62 75.7599 121.75 86.6699C119.64 87.8899 117.39 88.8299 115.04 89.4699V91.3099C115.04 95.4399 111.7 98.7999 107.57 98.8099V98.8199Z" fill="#F39745"/>
<path d="M97.98 114.22C97.97 121.59 105.94 126.21 112.32 122.54C115.3 120.83 117.13 117.66 117.12 114.22C117.13 106.85 109.16 102.23 102.78 105.9C99.8 107.61 97.97 110.78 97.98 114.22Z" fill="#F39745"/>
<path d="M102.68 103.9C97.3199 103.9 92.9499 99.53 92.9399 94.16V85.85C92.9399 80.48 97.2999 76.1 102.68 76.09C106.68 76.09 110.27 74.02 112.27 70.55C114.27 67.08 114.27 62.95 112.27 59.48C110.27 56.02 106.69 53.95 102.69 53.95C98.6899 53.95 95.1099 56.02 93.1099 59.49C92.1399 61.17 91.6299 63.08 91.6299 65.02C91.6299 68.55 89.7999 71.69 86.7399 73.45C83.6899 75.2 80.0499 75.2 76.9999 73.43C74.0099 71.7 72.1499 68.48 72.1499 65.03C72.1499 53.98 77.8399 44.08 87.4099 38.55C96.9699 33.02 108.4 33.01 117.97 38.52C127.54 44.03 133.26 53.92 133.27 64.97C133.27 76.02 127.58 85.92 118.01 91.45C116.24 92.48 114.36 93.32 112.42 93.97V94.14C112.42 99.5 108.06 103.87 102.7 103.89L102.68 103.9ZM102.68 49.46C108.31 49.46 113.34 52.37 116.16 57.24C118.98 62.11 118.98 67.93 116.16 72.81C113.35 77.69 108.31 80.6 102.68 80.6C99.7899 80.6 97.4299 82.96 97.4399 85.86V94.17C97.4399 97.05 99.7899 99.4 102.68 99.41C105.56 99.4 107.91 97.05 107.91 94.16V92.32C107.91 91.31 108.59 90.42 109.57 90.15C111.73 89.56 113.81 88.69 115.75 87.57C123.9 82.85 128.77 74.41 128.76 64.99C128.76 55.57 123.87 47.14 115.71 42.43C107.55 37.73 97.7999 37.74 89.6499 42.45C81.4999 47.17 76.6299 55.61 76.6399 65.03C76.6399 66.88 77.6399 68.62 79.2499 69.55C80.8899 70.5 82.8499 70.5 84.4899 69.56C86.1299 68.62 87.1099 66.92 87.1199 65.03C87.1199 62.31 87.8399 59.62 89.1999 57.26C92.0099 52.38 97.0499 49.47 102.68 49.47V49.46Z" fill="black"/>
<path d="M102.67 128.91C100.63 128.91 98.5999 128.37 96.7399 127.3C93.0399 125.16 90.8399 121.33 90.8499 117.05C90.8499 112.82 93.1199 108.89 96.7799 106.78C100.48 104.65 104.9 104.66 108.6 106.8C112.3 108.94 114.5 112.78 114.49 117.05C114.49 121.27 112.23 125.2 108.56 127.31C106.71 128.37 104.69 128.9 102.67 128.9V128.91ZM102.67 109.7C101.42 109.7 100.16 110.03 99.0199 110.69C96.7499 112 95.3399 114.43 95.3499 117.05C95.3499 119.71 96.7099 122.08 98.9999 123.41C101.29 124.74 104.03 124.74 106.32 123.42C108.59 122.11 110 119.68 109.99 117.06C109.99 114.4 108.63 112.03 106.34 110.7C105.19 110.03 103.93 109.7 102.67 109.7Z" fill="black"/>
<path d="M89.9899 138.7C89.9899 138.7 89.9899 138.71 89.9799 138.71C89.9599 138.74 89.9299 138.78 89.9199 138.82L89.9499 138.78L89.9699 138.74L90.0199 138.67C90.0199 138.67 89.9999 138.69 89.9899 138.7ZM72.7499 149.77C72.7499 149.77 72.7399 149.79 72.7299 149.81V149.83L73.1899 150.02C73.2499 150.04 73.2599 150.04 73.2699 150.04L72.8799 149.6C72.8299 149.64 72.7799 149.7 72.7499 149.77ZM72.7199 149.87V149.85V149.83C72.7199 149.83 72.6999 149.88 72.6999 149.91V149.87H72.7199ZM72.6799 150.06C72.6799 150.06 72.6699 150.07 72.6699 150.08V150.11C72.6699 150.18 72.6799 150.25 72.6999 150.33V149.91C72.6999 149.91 72.6899 149.93 72.6999 149.95C72.6799 149.98 72.6799 150.02 72.6799 150.06Z" fill="#010101"/>
<path d="M200.93 72.36C200.6 70.7 200.26 69.89 200.11 69.89C200.25 69.83 200.28 68.95 199.97 67.28C199.63 65.6 199 63.04 197.53 59.91C195.84 56.23 193.62 52.82 191.06 49.7C186.82 44.5 181.63 40.15 176.08 36.46C170.52 32.76 164.53 29.74 158.37 27.23C146.02 22.22 132.93 19.16 119.71 17.71C106.49 16.31 93.0399 16.46 79.9199 18.82C73.3599 20 66.8699 21.7 60.6899 24.25C54.5199 26.78 48.6099 30.25 43.8699 35.05C38.9999 39.71 35.7899 46.21 35.2899 52.99C34.7499 59.77 36.4699 66.47 38.9399 72.65C44.0399 85.05 51.8999 95.92 59.2199 106.92C61.0399 109.67 62.8299 112.46 64.4999 115.29C65.3299 116.71 66.1099 118.15 66.7999 119.63C67.4799 121.11 68.1399 122.62 68.4699 124.17C70.0999 130.51 70.6599 137.2 69.3299 143.58C69.1599 144.37 68.9599 145.16 68.7199 145.95L68.3599 147.11C68.2299 147.49 68.0699 147.86 67.9499 148.3C67.3599 150.01 67.6199 152.07 68.6799 153.58C69.6999 155.11 71.4199 156.16 73.2599 156.33C74.1799 156.43 75.1199 156.29 75.9799 155.98C76.3999 155.84 76.8499 155.61 77.1999 155.39L78.2799 154.73C83.9699 151.05 88.1899 145.5 90.9999 139.44C90.9699 139.48 90.9499 139.51 90.9199 139.54L90.9899 139.44C90.9899 139.44 90.9599 139.44 90.9399 139.42H90.9899L91.0299 139.39V139.44H90.9999C92.2599 139.99 93.5399 140.51 94.8399 140.98L96.8099 141.71L98.8099 142.34C101.48 143.16 104.14 144.05 106.87 144.66C112.31 145.94 117.87 146.77 123.47 147.01C129.06 147.27 134.69 146.97 140.22 146.01C145.75 145.06 151.15 143.39 156.27 141.1C161.41 138.79 166.21 135.91 170.66 132.44C172.86 130.74 174.96 128.82 176.96 126.91C178.92 124.94 180.88 122.85 182.66 120.72C183.1 120.19 183.57 119.68 183.99 119.12L185.26 117.45C186.1 116.34 186.98 115.23 187.76 114.06C188.54 112.91 189.31 111.73 190.06 110.58C190.79 109.38 191.55 108.18 192.25 106.98C193.72 104.63 194.88 102.05 196.15 99.56C197.42 97.06 198.38 94.41 199.23 91.73C200.4 87.97 201.12 84.0601 201.36 80.12C201.56 76.66 201.26 74.06 200.93 72.36ZM72.6999 150.32C72.6799 150.24 72.6699 150.17 72.6699 150.1V150.07L72.6799 150.05C72.6799 150.02 72.6799 149.99 72.6999 149.96V150.32ZM73.1899 150.01L72.7299 149.82V149.8C72.7299 149.8 72.7399 149.77 72.7499 149.76C72.7799 149.69 72.8299 149.63 72.8799 149.59L73.2699 150.03C73.2699 150.03 73.2499 150.03 73.1899 150.01ZM73.3399 150.11H73.3599L73.4199 150.13L73.6199 150.22L73.3399 150.11ZM89.9699 138.73L89.9499 138.77L89.9199 138.81C89.9199 138.81 89.9399 138.75 89.9699 138.73V138.7L89.9899 138.69C89.9999 138.69 90.0099 138.67 90.0199 138.66L89.9699 138.73ZM91.0899 139.27V139.29H91.0699C91.0699 139.29 91.0699 139.33 91.0399 139.36C91.0399 139.36 91.0299 139.36 91.0299 139.38V139.27L90.9699 139.24V139.26C90.9499 139.32 90.9599 139.42 90.9599 139.4C90.9599 139.39 90.8899 139.24 90.7699 139.16L90.9699 139.24L91.0699 138.96L91.0799 138.99L91.0399 139.27H91.0699C91.0699 139.27 91.0999 139.22 91.0999 139.2V139.27H91.0899ZM194.06 86.82C193.33 89.89 192.59 92.15 192.12 93.67C192.11 93.7 192.1 93.73 192.09 93.75C191.88 94.45 191.72 94.98 191.63 95.36C191.54 95.78 191.52 96 191.6 96.04C191.28 95.89 189.77 98.71 186.6 104.21C184.71 107.41 182.66 110.5 180.42 113.45C180.19 113.75 179.96 114.05 179.73 114.34C179.21 115.02 178.68 115.68 178.13 116.34C173.34 122.13 167.76 127.26 161.41 131.25C161.36 131.29 161.31 131.32 161.26 131.35C161.21 131.38 161.17 131.41 161.12 131.44C157.26 133.85 153.13 135.81 148.83 137.3C148.17 137.53 147.51 137.75 146.84 137.95C143.52 138.98 140.11 139.73 136.67 140.2C127.96 141.36 119.05 140.84 110.45 139.03C106.13 138.15 101.92 136.78 97.7599 135.37C96.7299 134.99 95.6999 134.61 94.6899 134.19L93.1299 133.55C92.5499 133.36 91.9399 133.19 91.3299 133.16C90.0899 133.09 88.8499 133.4 87.7899 134.03C87.2599 134.34 86.7699 134.74 86.3599 135.2C86.1499 135.43 85.9599 135.68 85.7999 135.95L85.5499 136.34L85.3399 136.73C83.9999 139.65 82.2899 142.38 80.1999 144.79C79.1599 145.99 78.0099 147.1 76.7699 148.09C76.1599 148.6 75.4599 148.98 74.8099 149.44L73.9899 149.98C73.9899 149.98 73.9699 150.06 73.9499 150.1C73.9499 150.1 73.9499 150.15 73.9299 150.16L73.9199 150.19C73.9199 150.22 73.9099 150.24 73.9099 150.26L73.8899 150.31H73.8699C73.8699 150.32 73.8699 150.33 73.8499 150.34C73.8299 150.39 73.7999 150.44 73.7599 150.47L73.8299 150.3L73.7899 150.28L73.6599 150.23C73.6599 150.23 73.6399 150.22 73.6299 150.22C73.6499 150.21 73.6899 150.2 73.7499 150.16C73.7699 150.14 73.7899 150.13 73.8099 150.12V150.09L73.8399 150.08L73.9599 150L73.9899 149.98C75.0399 147.09 75.7699 144.09 76.0899 141.02C76.4199 137.89 76.4199 134.74 76.1299 131.61C75.9899 130.05 75.7799 128.49 75.4999 126.95C75.2299 125.41 74.8299 123.89 74.4899 122.37C73.7099 119.25 72.2899 116.43 70.7999 113.68C67.7299 108.23 64.2299 103.11 60.7699 97.96C57.2999 92.83 53.8699 87.67 50.7699 82.33C47.6999 76.98 44.8799 71.46 43.0999 65.59C42.2199 62.66 41.6099 59.64 41.4899 56.61C41.3499 53.58 41.7599 50.55 42.8299 47.72C43.8799 44.9 45.5699 42.34 47.6399 40.13C49.7299 37.92 52.1599 36.07 54.7499 34.4C57.3299 32.69 59.9099 30.97 62.6599 29.75C65.4199 28.57 68.5199 28.14 71.5199 27.21C83.3699 23.82 95.8299 22.78 108.15 23.17C120.49 23.61 132.79 25.55 144.63 29.05C150.54 30.82 156.33 32.99 161.9 35.65C167.45 38.3 172.77 41.48 177.59 45.3C182.4 49.1 186.7 53.61 189.86 58.84C191.44 61.46 192.72 64.23 193.61 67.16C194.08 68.62 194.42 70.07 194.66 71.6C194.93 73.1 195.07 74.62 195.13 76.14C195.28 79.72 194.86 83.32 194.06 86.82Z" fill="#010101"/>
<path d="M72.6799 150.06C72.6799 150.06 72.6799 149.98 72.6999 149.95V150.33C72.6799 150.25 72.6699 150.18 72.6699 150.11V150.08L72.6799 150.06Z" fill="#020202"/>
<path d="M72.71 149.91C72.71 149.91 72.72 149.85 72.73 149.83V149.85C72.73 149.85 72.73 149.86 72.73 149.87V149.91H72.71Z" fill="#020202"/>
<path d="M73.9899 149.99C73.9899 149.99 73.9699 150.07 73.9499 150.11C73.9499 150.11 73.9399 150.16 73.9299 150.17L73.9199 150.2C73.9199 150.23 73.9199 150.25 73.9199 150.27L73.8999 150.32H73.8799C73.8799 150.33 73.8799 150.34 73.8599 150.35C73.8399 150.4 73.8099 150.45 73.7699 150.48L73.8399 150.31L73.7999 150.29L73.6699 150.24C73.6699 150.24 73.6499 150.24 73.6399 150.24C73.6599 150.23 73.6999 150.22 73.7599 150.18C73.7799 150.16 73.7999 150.15 73.8199 150.14V150.11L73.8499 150.1L73.9699 150.02L73.9999 150L73.9899 149.99Z" fill="#020202"/>
<path d="M89.9199 138.82C89.9199 138.82 89.9599 138.74 89.9799 138.71V138.74L89.9499 138.78L89.9199 138.82Z" fill="#020202"/>
<path d="M90.96 139.41C90.96 139.41 90.89 139.25 90.77 139.17L90.97 139.25V139.27C90.95 139.33 90.96 139.43 90.96 139.41Z" fill="#020202"/>
<path d="M90.9899 139.44L91.0299 139.39C91.0299 139.39 91.0099 139.43 90.9999 139.45C90.9699 139.49 90.9499 139.52 90.9199 139.55L90.9899 139.45C90.9899 139.45 90.9599 139.44 90.9399 139.43H90.9899V139.44Z" fill="#020202"/>
<path d="M91.07 139.29C91.07 139.29 91.06 139.34 91.04 139.37C91.04 139.38 91.03 139.38 91.03 139.39V139.28L91.07 139.29Z" fill="#020202"/>
<path d="M150.37 130.42C149.7 130.65 149.01 130.76 148.33 130.76C145.72 130.76 143.29 129.14 142.38 126.56C142.29 126.32 142.23 126.07 142.17 125.82C142.01 125.24 141.93 124.67 141.93 124.12C141.93 122.71 142.46 121.41 143.49 120.37C145.17 118.68 147.91 117.96 150.31 118.61C152.29 119.15 153.72 120.56 154.24 122.48C155.33 125.73 153.61 129.28 150.37 130.42Z" fill="#191919"/>
<path d="M151.14 100.79C150.82 100.87 150.57 101.38 150.66 101.76C150.8 102.36 151.18 102.62 151.74 102.54C152.13 102.48 152.52 102.03 152.47 101.71C152.39 101.12 151.72 100.65 151.14 100.79ZM151.05 94.45C151.12 94.6 151.29 94.75 151.45 94.79C151.74 94.88 151.98 94.58 151.93 94.22C151.81 94.1 151.71 93.9 151.57 93.88C151.27 93.82 150.94 94.2 151.05 94.45ZM151.18 74.82C151.26 74.76 151.37 74.7 151.41 74.62C151.52 74.36 151.41 74.18 151.13 74.16C151.05 74.16 150.91 74.26 150.88 74.33C150.81 74.58 150.93 74.75 151.18 74.82ZM150.62 107.16C150.37 107.29 150.27 107.65 150.45 107.96C150.52 108.07 150.59 108.18 150.68 108.29C150.95 107.91 151.17 107.51 151.35 107.09C151.12 106.97 150.87 107.04 150.62 107.16ZM144.65 67.12C144.4 67.14 144.06 67.55 144.15 67.8C144.24 68.04 144.48 68.22 144.61 68.37C144.87 68.37 145.08 68.2 145.17 68C145.18 67.88 145.19 67.75 145.2 67.62C145.11 67.32 144.89 67.11 144.65 67.12ZM144.4 101.02C144.05 101.18 143.74 101.25 143.51 101.44C143.09 101.78 143.11 102.4 143.48 102.8C143.82 103.17 144.44 103.07 144.77 102.53C144.83 102.43 144.88 102.31 144.91 102.18C144.86 101.92 144.82 101.65 144.77 101.37C144.65 101.26 144.51 101.15 144.4 101.02ZM144.48 75.79C144.53 75.23 144.58 74.68 144.63 74.13C144.51 74.13 144.39 74.16 144.29 74.23C143.97 74.44 143.83 74.96 144.01 75.3C144.06 75.38 144.11 75.47 144.18 75.54C144.27 75.63 144.37 75.73 144.48 75.79ZM142.62 51.88C142.62 51.88 142.67 51.81 142.69 51.77C142.73 51.67 142.74 51.57 142.77 51.47C142.76 51.37 142.7 51.25 142.61 51.13C142.61 51.38 142.61 51.63 142.62 51.88ZM141.23 97.58C141.28 98.11 141.34 98.64 141.41 99.16C141.86 99.06 142.2 98.59 142.12 98.16C142.04 97.77 141.71 97.56 141.23 97.58Z" fill="#191919"/>
<path d="M152.79 73.96C152.83 71.13 153 68.24 153.17 65.45C153.57 58.57 153.99 51.45 152.56 44.36C152.02 41.71 150.86 40.14 149.12 39.7C146.6 39.07 144.53 41.2 143.67 43.45C142.72 45.95 142.58 48.55 142.61 51.13C142.7 51.25 142.76 51.37 142.77 51.47C142.74 51.57 142.73 51.67 142.69 51.77C142.67 51.81 142.65 51.85 142.62 51.88C142.63 52.33 142.64 52.78 142.65 53.23L142.69 54.47C142.83 60.67 142.26 66.98 141.71 73.09C141.38 76.77 141.03 80.58 140.84 84.35C140.83 84.47 140.58 91.07 141.23 97.58C141.71 97.56 142.04 97.77 142.12 98.16C142.2 98.59 141.86 99.06 141.41 99.16C142.02 104.12 143.21 108.71 145.51 109.98C145.86 110.17 146.4 110.39 147.08 110.39C147.76 110.39 148.53 110.19 149.41 109.58C149.93 109.22 150.35 108.78 150.68 108.29C150.59 108.18 150.52 108.07 150.45 107.96C150.27 107.65 150.37 107.29 150.62 107.16C150.87 107.04 151.12 106.97 151.35 107.09C151.72 106.25 151.94 105.36 152.09 104.57C153.44 97.57 153.2 90.44 152.96 83.54C152.87 80.98 152.78 78.35 152.78 75.76V75.38C152.78 74.91 152.78 74.44 152.79 73.96ZM148.23 105.51C147.86 105.58 147.33 105.19 147.4 104.83C147.45 104.57 147.7 104.35 147.81 104.18C148.31 104.1 148.77 104.47 148.78 104.85C148.79 105.1 148.5 105.45 148.23 105.51ZM148.04 79.09C147.78 78.81 147.52 78.65 147.43 78.41C147.32 78.11 147.5 77.84 147.81 77.72C148.21 77.57 148.73 77.95 148.61 78.32C148.54 78.58 148.28 78.77 148.04 79.09ZM148.07 97.89C147.95 98.14 147.82 98.14 147.73 97.87C147.73 97.83 147.85 97.76 147.91 97.7C147.97 97.77 148.07 97.85 148.07 97.89ZM148.68 65.63C148.15 65.67 147.59 65.23 147.56 64.77C147.53 64.43 147.97 63.95 148.34 63.93C148.87 63.89 149.42 64.32 149.46 64.8C149.49 65.15 149.06 65.61 148.68 65.63ZM144.65 67.12C144.89 67.12 145.11 67.32 145.2 67.62C145.21 67.65 145.21 67.68 145.22 67.71C145.23 67.81 145.22 67.91 145.17 68C145.08 68.2 144.87 68.36 144.61 68.37C144.48 68.22 144.24 68.04 144.15 67.8C144.06 67.55 144.4 67.14 144.65 67.12ZM144.29 74.23C144.39 74.16 144.51 74.13 144.63 74.13C144.9 74.13 145.19 74.29 145.32 74.55C145.41 74.72 145.42 74.92 145.49 75.21C145.34 75.38 145.18 75.63 144.95 75.79C144.77 75.92 144.62 75.88 144.48 75.79C144.37 75.73 144.27 75.63 144.18 75.54C144.11 75.47 144.06 75.38 144.01 75.3C143.83 74.96 143.97 74.44 144.29 74.23ZM144.06 95.17C144.03 95.11 144.02 95.05 144.04 94.98C144.05 94.94 144.07 94.89 144.1 94.85C144.2 94.72 144.43 94.69 144.6 94.61C144.66 94.78 144.72 94.96 144.78 95.13C144.61 95.21 144.42 95.36 144.27 95.34C144.17 95.32 144.09 95.25 144.06 95.17ZM144.77 102.53C144.44 103.07 143.82 103.17 143.48 102.8C143.11 102.4 143.09 101.78 143.51 101.44C143.74 101.25 144.05 101.18 144.4 101.02C144.51 101.15 144.65 101.26 144.77 101.37C144.86 101.46 144.93 101.56 144.96 101.67C144.99 101.82 144.97 102.01 144.91 102.18C144.88 102.31 144.83 102.43 144.77 102.53ZM151.93 94.22C151.98 94.58 151.74 94.88 151.45 94.79C151.29 94.75 151.12 94.6 151.05 94.45C150.94 94.2 151.27 93.82 151.57 93.88C151.71 93.9 151.81 94.1 151.93 94.22ZM150.88 74.33C150.91 74.26 151.05 74.16 151.13 74.16C151.41 74.18 151.52 74.36 151.41 74.62C151.37 74.7 151.26 74.76 151.18 74.82C150.93 74.75 150.81 74.58 150.88 74.33ZM151.74 102.54C151.18 102.62 150.8 102.36 150.66 101.76C150.57 101.38 150.82 100.87 151.14 100.79C151.72 100.65 152.39 101.12 152.47 101.71C152.52 102.03 152.13 102.48 151.74 102.54Z" fill="#191919"/>
<path d="M144.78 95.13C144.61 95.21 144.42 95.36 144.27 95.34C144.17 95.32 144.09 95.25 144.06 95.17C144.05 95.11 144.05 95.05 144.04 94.98C144.05 94.94 144.07 94.89 144.1 94.85C144.2 94.72 144.43 94.69 144.6 94.61C144.66 94.78 144.72 94.96 144.78 95.13Z" fill="black"/>
<path d="M144.96 101.67C144.99 101.82 144.97 102.01 144.91 102.18C144.86 101.92 144.82 101.65 144.77 101.37C144.86 101.46 144.93 101.56 144.96 101.67Z" fill="black"/>
<path d="M145.22 67.71C145.23 67.81 145.22 67.91 145.17 68C145.18 67.88 145.19 67.75 145.2 67.62C145.21 67.65 145.21 67.68 145.22 67.71Z" fill="black"/>
<path d="M145.32 74.55C145.41 74.72 145.42 74.92 145.49 75.21C145.34 75.38 145.18 75.63 144.95 75.79C144.77 75.92 144.62 75.88 144.48 75.79C144.53 75.23 144.58 74.68 144.63 74.13C144.9 74.13 145.19 74.29 145.32 74.55Z" fill="black"/>
<path d="M147.91 97.7C147.97 97.77 148.07 97.85 148.07 97.89C147.95 98.14 147.82 98.14 147.73 97.87C147.73 97.83 147.85 97.76 147.91 97.7Z" fill="black"/>
<path d="M148.61 78.32C148.54 78.58 148.28 78.77 148.04 79.09C147.78 78.81 147.52 78.65 147.43 78.41C147.32 78.11 147.5 77.84 147.81 77.72C148.21 77.57 148.73 77.95 148.61 78.32Z" fill="black"/>
<path d="M148.78 104.85C148.79 105.1 148.5 105.45 148.23 105.51C147.86 105.58 147.33 105.19 147.4 104.83C147.45 104.57 147.7 104.35 147.81 104.18C148.31 104.1 148.77 104.47 148.78 104.85Z" fill="black"/>
<path d="M149.46 64.8C149.49 65.15 149.06 65.61 148.68 65.63C148.15 65.67 147.59 65.23 147.56 64.77C147.53 64.43 147.97 63.95 148.34 63.93C148.87 63.89 149.42 64.32 149.46 64.8Z" fill="black"/>
<path d="M166.07 119.47C166.3 118.82 166.51 118.11 166.78 117.44C167.01 116.87 167.78 116.57 168.37 116.77C169.07 117.01 169.46 117.88 169.16 118.58C169.08 118.77 168.97 118.99 168.81 119.08C168.45 119.29 168.06 119.51 167.66 119.58C166.72 119.75 166.18 120.28 165.88 121.16C165.82 121.34 165.62 121.48 165.47 121.63C165.23 121.88 164.57 121.83 164.33 121.55C164.09 121.27 164.1 120.61 164.4 120.42C164.92 120.08 165.47 119.8 166.06 119.46L166.07 119.47Z" fill="black"/>
<path d="M179.79 113.48C179.81 114.53 179.55 115.3 178.94 115.94C178.54 116.36 177.91 116.49 177.54 116.21C176.98 115.78 176.73 115.09 176.97 114.57C177.4 113.63 178.16 113.16 179.18 113.07C179.45 113.05 179.79 113.37 179.79 113.48Z" fill="black"/>
<path d="M141.51 112.94C141.22 112.85 140.99 112.84 140.83 112.72C140.19 112.23 139.92 111.58 140.11 110.77C140.28 110.03 141.33 109.68 141.88 110.19C142.49 110.75 142.67 111.76 142.21 112.5C142.07 112.73 141.71 112.82 141.51 112.95V112.94Z" fill="black"/>
<path d="M96.0901 110.83C96.0101 111.01 95.9501 111.33 95.7501 111.55C95.4001 111.94 94.9401 112.18 94.3801 112.18C93.9401 112.18 93.5501 111.97 93.3901 111.59C93.2501 111.27 93.3901 110.7 93.6601 110.45C94.1401 110.01 94.6901 109.79 95.3601 109.84C95.7001 109.87 96.1001 110.31 96.0801 110.82L96.0901 110.83Z" fill="black"/>
<path d="M168.03 46.3401C167.54 46.3201 167.07 46.1901 166.81 45.6601C166.57 45.1801 166.7 44.5301 167.06 44.2701C167.6 43.8801 168.22 43.9101 168.74 44.3501C169.13 44.6801 169.28 45.2901 169.07 45.7401C168.87 46.1601 168.5 46.2801 168.03 46.3401Z" fill="black"/>
<path d="M154.9 126.36C154.5 126.4 154.03 126.08 153.95 125.7C153.74 124.77 154.18 124 155.07 123.74C155.51 123.61 156.22 124.06 156.28 124.52C156.39 125.34 155.69 126.28 154.91 126.36H154.9Z" fill="black"/>
<path d="M158.66 116.41C158.56 116.39 158.45 116.39 158.36 116.36C157.83 116.2 157.51 115.8 157.29 115.33C157.02 114.75 157.47 114.07 158.14 114.02C158.69 113.97 159.22 114.24 159.42 114.67C159.69 115.23 159.5 115.86 158.93 116.26C158.85 116.32 158.75 116.36 158.66 116.41Z" fill="black"/>
<path d="M129.29 125C129.2 125.74 128.54 126.38 127.79 126.35C127.54 126.35 127.19 126.09 127.07 125.85C126.66 125.01 127.15 124.09 128.04 123.9C128.65 123.76 129.36 124.39 129.28 125H129.29Z" fill="black"/>
<path d="M158.49 107.41C159.15 107.38 159.59 107.81 159.61 108.2C159.64 108.94 158.83 109.66 158.17 109.42C157.8 109.28 157.49 108.98 157.18 108.71C157 108.55 157.12 107.99 157.35 107.89C157.81 107.68 158.29 107.5 158.49 107.42V107.41Z" fill="black"/>
<path d="M116.15 138.49C116.03 139.09 115.29 139.57 114.78 139.39C114.32 139.23 113.94 138.65 113.99 138.19C114.06 137.56 114.77 137.1 115.34 137.31C115.85 137.5 116.23 138.06 116.15 138.49Z" fill="black"/>
<path d="M132.14 115.18C131.98 115.37 131.83 115.66 131.59 115.78C131.34 115.91 131 115.92 130.7 115.92C130.22 115.92 129.88 115.63 129.82 115.26C129.75 114.8 129.98 114.47 130.32 114.24C130.84 113.89 131.56 114.03 131.94 114.54C132.05 114.69 132.06 114.91 132.13 115.17L132.14 115.18Z" fill="black"/>
<path d="M158.77 122.42C157.63 122.41 157.18 121.69 157.57 120.75C157.81 120.18 158.36 119.82 158.74 119.98C159.49 120.29 159.88 121.4 159.41 122.04C159.25 122.25 158.91 122.33 158.77 122.42Z" fill="black"/>
<path d="M171.41 122.25C170.98 122.2 170.48 121.74 170.39 121.25C170.32 120.84 170.37 120.45 170.72 120.15C171.07 119.84 171.74 119.87 172.09 120.22C172.63 120.77 172.59 121.62 171.98 122.07C171.83 122.18 171.61 122.19 171.42 122.25H171.41Z" fill="black"/>
<path d="M109.06 124.75C109.07 125.31 108.78 125.71 108.41 126.07C108.04 126.41 107.33 126.39 107.03 126.07C106.63 125.63 106.65 124.79 107.08 124.42C107.56 124.01 108.25 123.93 108.76 124.27C108.91 124.37 108.97 124.59 109.07 124.75H109.06Z" fill="black"/>
<path d="M178.66 74.2101C178.72 74.7101 178.3 75.2601 177.8 75.3301C177.16 75.4201 176.61 75.0001 176.45 74.3101C176.34 73.8201 176.77 73.2701 177.29 73.2101C177.96 73.1401 178.57 73.5901 178.65 74.2101H178.66Z" fill="black"/>
<path d="M148.88 137.56C148.86 138.11 148.57 138.5 148.05 138.75C147.53 139 146.94 138.75 146.85 138.17C146.8 137.87 146.82 137.55 146.88 137.25C146.97 136.83 147.4 136.55 147.81 136.58C148.36 136.61 148.87 137.07 148.88 137.56Z" fill="black"/>
<path d="M152.34 114.51C152.38 114.95 151.86 115.46 151.34 115.48C150.81 115.51 150.31 115.11 150.24 114.62C150.17 114.13 150.57 113.55 151.03 113.46C151.57 113.36 152.28 113.92 152.34 114.51Z" fill="black"/>
<path d="M98.5699 129.03C97.5999 128.98 97.1299 128.43 97.1899 127.56C97.2199 127.13 97.6899 126.73 98.0499 126.88C98.4299 127.03 98.7999 127.25 99.1199 127.51C99.4599 127.79 99.5399 128.4 99.2699 128.65C99.0599 128.85 98.7499 128.95 98.5699 129.04V129.03Z" fill="black"/>
<path d="M191.55 95.37C191.04 95.37 190.67 95.03 190.51 94.44C190.43 94.12 190.65 93.52 190.95 93.38C191.12 93.3 191.35 93.29 191.54 93.33C192.02 93.41 192.14 93.83 192.25 94.22C192.37 94.66 192.14 95.01 191.84 95.31C191.78 95.37 191.64 95.36 191.54 95.37H191.55Z" fill="black"/>
<path d="M95.4701 119.34C95.1601 119.3 94.9501 119.29 94.7501 119.24C94.1401 119.07 93.8001 118.62 93.9001 118.12C94.0301 117.47 94.6701 117.12 95.3501 117.32C95.8901 117.48 96.3201 118.26 96.1001 118.85C96.0101 119.08 95.6501 119.21 95.4701 119.34Z" fill="black"/>
<path d="M142.27 118.17C142.15 118.32 141.99 118.59 141.77 118.81C141.47 119.12 140.96 119.07 140.64 118.75C140.34 118.45 140.28 117.96 140.5 117.58C140.72 117.19 141.01 116.88 141.48 116.89C141.95 116.89 142.42 117.6 142.26 118.17H142.27Z" fill="black"/>
<path d="M157.93 53.8C158.56 53.87 159.06 54.53 158.94 55.14C158.84 55.66 158.26 56.08 157.8 55.95C157.32 55.82 156.94 55.31 156.93 54.78C156.93 54.26 157.44 53.74 157.92 53.8H157.93Z" fill="black"/>
<path d="M107.82 104.35C108.29 104.34 108.74 104.81 108.78 105.36C108.82 105.96 108.43 106.44 107.93 106.39C107.38 106.34 106.98 105.94 106.93 105.4C106.89 104.88 107.33 104.36 107.82 104.35Z" fill="black"/>
<path d="M144.91 102.18C144.88 102.31 144.83 102.43 144.77 102.53C144.44 103.07 143.82 103.17 143.48 102.8C143.11 102.4 143.09 101.78 143.51 101.44C143.74 101.25 144.05 101.18 144.4 101.02C144.51 101.15 144.65 101.26 144.77 101.37C144.86 101.46 144.93 101.56 144.96 101.67C144.99 101.82 144.97 102.01 144.91 102.18Z" fill="black"/>
<path d="M138.87 141.63C138.87 142.2 138.38 142.69 137.88 142.62C137.33 142.54 136.98 142.12 136.97 141.52C136.97 141.17 137.38 140.77 137.8 140.71C138.33 140.64 138.87 141.1 138.87 141.63Z" fill="black"/>
<path d="M121.06 133.06C120.55 132.99 120.23 132.48 120.36 131.94C120.48 131.43 121.04 131.08 121.48 131.24C121.87 131.38 122.12 131.77 122.07 132.17C122 132.71 121.53 133.12 121.06 133.06Z" fill="black"/>
<path d="M177.89 55.34C177.37 55.37 176.89 55 176.78 54.47C176.67 53.96 177.1 53.37 177.6 53.35C178.13 53.33 178.61 53.7 178.72 54.22C178.83 54.72 178.4 55.31 177.9 55.34H177.89Z" fill="black"/>
<path d="M162.32 111.61C162.23 112.21 161.51 112.7 160.95 112.54C160.52 112.42 160.25 112.05 160.28 111.62C160.31 111.01 160.97 110.58 161.65 110.71C162.08 110.79 162.38 111.2 162.33 111.61H162.32Z" fill="black"/>
<path d="M149.46 64.8C149.49 65.15 149.06 65.61 148.68 65.63C148.15 65.67 147.59 65.23 147.56 64.77C147.53 64.43 147.97 63.95 148.34 63.93C148.87 63.89 149.42 64.32 149.46 64.8Z" fill="black"/>
<path d="M118.16 113.37C118.61 113.32 119.13 113.87 119.11 114.37C119.09 114.88 118.59 115.41 118.16 115.39C117.68 115.36 117.16 114.84 117.17 114.39C117.17 113.94 117.68 113.43 118.17 113.38L118.16 113.37Z" fill="black"/>
<path d="M132.21 60.7399C132.17 61.0399 132.17 61.2499 132.11 61.4399C131.99 61.8199 131.59 62.0999 131.18 62.0599C130.99 62.0399 130.78 61.9399 130.65 61.7999C130.38 61.5199 130.39 61.0099 130.65 60.6899C130.78 60.5299 130.92 60.3699 131.09 60.2899C131.26 60.2099 131.52 60.1299 131.65 60.1999C131.88 60.3299 132.05 60.5799 132.2 60.7399H132.21Z" fill="black"/>
<path d="M155.48 98.25C155.52 98.82 155.11 99.32 154.6 99.33C154.13 99.33 153.64 98.85 153.57 98.32C153.53 97.99 153.95 97.5 154.33 97.43C154.85 97.34 155.45 97.77 155.48 98.26V98.25Z" fill="black"/>
<path d="M116.42 109.65C116.22 108.8 116.62 108.25 117.32 107.85C117.65 107.66 118.19 107.81 118.42 108.14C118.7 108.55 118.58 109.31 118.16 109.51C117.58 109.79 116.98 109.93 116.36 109.59L116.42 109.64V109.65Z" fill="black"/>
<path d="M182.57 118.51C182.54 119.05 182.03 119.6 181.61 119.54C181.16 119.48 180.71 118.83 180.78 118.36C180.84 117.98 181.24 117.59 181.62 117.53C182.12 117.46 182.6 117.95 182.57 118.51Z" fill="black"/>
<path d="M128.54 116.83C128.66 117.03 128.93 117.28 128.91 117.5C128.83 118.31 128.31 118.73 127.46 118.78C127.16 118.8 126.78 118.55 126.78 118.29C126.78 118.1 126.79 117.84 126.91 117.74C127.29 117.41 127.72 117.13 128.14 116.84C128.21 116.79 128.34 116.84 128.54 116.84V116.83Z" fill="black"/>
<path d="M142.77 51.47C142.74 51.57 142.73 51.67 142.69 51.77C142.67 51.81 142.65 51.85 142.62 51.88C142.43 52.23 142.12 52.4 141.72 52.35C141.28 52.29 140.94 52.07 140.83 51.63C140.78 51.46 140.82 51.22 140.91 51.06C141.1 50.7 141.59 50.52 141.96 50.61C142.18 50.68 142.45 50.9 142.61 51.13C142.7 51.25 142.76 51.37 142.77 51.47Z" fill="black"/>
<path d="M170.72 75.99C170.29 75.93 170.03 75.45 170.24 75.04C170.33 74.86 170.46 74.61 170.62 74.56C170.89 74.47 171.25 74.42 171.48 74.54C171.79 74.69 171.77 75.07 171.68 75.39C171.55 75.85 171.19 76.06 170.72 75.99Z" fill="black"/>
<path d="M158.83 75.15C158.81 75.49 158.34 75.92 158 75.9C157.55 75.87 157.13 75.33 157.17 74.82C157.2 74.44 157.64 74.04 157.98 74.08C158.45 74.13 158.86 74.65 158.83 75.16V75.15Z" fill="black"/>
<path d="M191.06 75.5899C190.6 75.5599 190.2 74.9799 190.27 74.4499C190.32 74.0399 190.74 73.6099 191.06 73.6299C191.51 73.6499 192.01 74.1699 192.03 74.6299C192.05 75.0899 191.52 75.6199 191.06 75.5799V75.5899Z" fill="black"/>
<path d="M128.38 45.06C128.34 45.51 128.02 45.88 127.64 45.95C127.38 45.99 127.01 45.71 126.96 45.43C126.88 45.02 127.11 44.63 127.55 44.44C127.95 44.27 128.43 44.63 128.39 45.06H128.38Z" fill="black"/>
<path d="M135.42 77.94C135.42 78.35 135.1 78.71 134.69 78.77C134.09 78.86 133.5 78.26 133.59 77.66C133.64 77.32 134.12 76.93 134.46 76.95C134.95 76.98 135.42 77.47 135.41 77.94H135.42Z" fill="black"/>
<path d="M142.12 98.16C142.2 98.59 141.86 99.06 141.41 99.16C141.37 99.17 141.32 99.18 141.28 99.18C140.92 99.21 140.53 98.81 140.5 98.41C140.48 98.01 140.83 97.61 141.2 97.58H141.23C141.71 97.56 142.04 97.77 142.12 98.16Z" fill="black"/>
<path d="M154.92 132.49C154.43 132.56 153.95 132.12 153.95 131.59C153.95 131.2 154.29 130.75 154.64 130.71C155.1 130.66 155.58 131.1 155.62 131.64C155.65 132 155.3 132.45 154.91 132.49H154.92Z" fill="black"/>
<path d="M134.66 138.63C134.32 138.6 133.92 138.16 133.88 137.8C133.83 137.31 134.38 136.87 134.89 136.98C135.31 137.07 135.52 137.42 135.46 137.89C135.41 138.29 135.01 138.65 134.65 138.62L134.66 138.63Z" fill="black"/>
<path d="M125.66 142C125.72 142.26 125.3 142.64 125.05 142.51C124.69 142.33 124.33 142.13 124.03 141.87C123.91 141.77 123.86 141.48 123.91 141.31C123.96 141.16 124.19 140.98 124.34 140.97C124.99 140.93 125.52 141.37 125.65 141.99L125.66 142Z" fill="black"/>
<path d="M118.68 94.98C118.74 95.5 118.32 96.05 117.85 96.1C117.52 96.13 117.13 95.69 117.1 95.25C117.07 94.79 117.37 94.39 117.77 94.36C118.25 94.32 118.64 94.59 118.68 94.98Z" fill="black"/>
<path d="M135.4 118.4C135.44 118.87 134.99 119.42 134.5 119.5C134.17 119.55 133.67 119.16 133.6 118.81C133.47 118.17 133.99 117.54 134.61 117.58C134.99 117.61 135.36 118 135.4 118.4Z" fill="black"/>
<path d="M91.97 121.41C91.91 121.96 91.41 122.31 90.9 122.17C90.44 122.05 90.15 121.52 90.23 120.98C90.29 120.58 90.71 120.28 91.11 120.36C91.64 120.45 92.03 120.93 91.97 121.42V121.41Z" fill="black"/>
<path d="M155.72 111.06C155.69 111.6 155.18 112.03 154.7 111.92C154.31 111.83 154.02 111.48 153.99 111.04C153.96 110.58 154.47 109.94 154.86 109.94C155.25 109.94 155.75 110.59 155.72 111.05V111.06Z" fill="black"/>
<path d="M124.87 120.58C125.14 120.61 125.4 120.94 125.39 121.22C125.38 121.66 125.17 121.98 124.78 122.17C124.46 122.33 123.83 122.19 123.72 121.86C123.64 121.62 123.68 121.25 123.82 121.03C124.04 120.69 124.42 120.5 124.87 120.58Z" fill="black"/>
<path d="M138.7 121.47C138.68 121.99 138.21 122.41 137.68 122.35C137.27 122.3 136.91 121.87 136.97 121.52C137.07 120.98 137.51 120.6 138.01 120.6C138.35 120.6 138.7 121.07 138.69 121.47H138.7Z" fill="black"/>
<path d="M151.91 108.22C151.84 108.68 151.32 108.95 151.02 108.67C150.9 108.55 150.78 108.42 150.68 108.29C150.59 108.18 150.52 108.07 150.45 107.96C150.27 107.65 150.37 107.29 150.62 107.16C150.87 107.04 151.12 106.97 151.35 107.09C151.4 107.1 151.44 107.13 151.48 107.16C151.83 107.43 152.02 107.77 151.91 108.22Z" fill="black"/>
<path d="M152.47 101.71C152.52 102.03 152.13 102.48 151.74 102.54C151.18 102.62 150.8 102.36 150.66 101.76C150.57 101.38 150.82 100.87 151.14 100.79C151.72 100.65 152.39 101.12 152.47 101.71Z" fill="black"/>
<path d="M164.63 113.54C164.72 113.57 164.83 113.59 164.91 113.64C165.41 113.94 165.48 114.43 165.42 114.94C165.4 115.08 165.17 115.26 165.01 115.3C164.41 115.44 163.82 114.91 163.83 114.29C163.83 113.93 164.28 113.52 164.63 113.54Z" fill="black"/>
<path d="M134.7 124.43C135.05 124.46 135.39 124.86 135.42 125.27C135.45 125.69 135.08 126.12 134.73 126.09C134.4 126.06 134.01 125.62 133.99 125.26C133.97 124.89 134.38 124.41 134.7 124.43Z" fill="black"/>
<path d="M162.22 125.19C162.11 125.36 162 125.69 161.78 125.81C161.37 126.03 160.83 125.57 160.75 124.94C160.73 124.78 160.88 124.5 161.02 124.44C161.56 124.21 162.11 124.53 162.23 125.19H162.22Z" fill="black"/>
<path d="M137.93 35.21C137.8 35.07 137.51 34.89 137.44 34.65C137.28 34.13 137.77 33.63 138.32 33.67C138.74 33.7 139.07 34.12 139.01 34.54C138.95 34.93 138.6 35.17 137.94 35.2L137.93 35.21Z" fill="black"/>
<path d="M128.37 38.99C127.82 38.97 127.45 38.65 127.41 38.26C127.38 37.91 127.84 37.54 128.24 37.59C128.65 37.64 129 38.06 128.87 38.45C128.79 38.68 128.5 38.85 128.37 38.99Z" fill="black"/>
<path d="M188.03 58.51C187.47 58.56 187.11 58.26 187.05 57.83C186.99 57.39 187.36 56.96 187.73 57.03C188.13 57.11 188.49 57.48 188.44 57.88C188.4 58.13 188.15 58.34 188.04 58.51H188.03Z" fill="black"/>
<path d="M188.76 85C188.58 85.38 188.12 85.55 187.74 85.39C187.3 85.2 187.12 84.76 187.33 84.41C187.57 84 188.02 83.81 188.33 84C188.76 84.25 188.93 84.65 188.76 85.01V85Z" fill="black"/>
<path d="M128.86 84.56C128.87 84.99 128.31 85.44 127.82 85.42C127.47 85.4 127.11 84.95 127.12 84.57C127.12 84.19 127.48 83.73 127.81 83.7C128.28 83.66 128.85 84.11 128.86 84.56Z" fill="black"/>
<path d="M145.49 75.21C145.34 75.38 145.18 75.63 144.95 75.79C144.77 75.92 144.62 75.88 144.48 75.79C144.37 75.73 144.27 75.63 144.18 75.54C144.11 75.47 144.06 75.38 144.01 75.3C143.83 74.96 143.97 74.44 144.29 74.23C144.39 74.16 144.51 74.13 144.63 74.13C144.9 74.13 145.19 74.29 145.32 74.55C145.41 74.72 145.42 74.92 145.49 75.21Z" fill="black"/>
<path d="M145.59 134.9C145.55 135.29 145.16 135.59 144.73 135.54C144.37 135.5 144 135.04 144.06 134.7C144.12 134.34 144.54 134.03 144.94 134.04C145.31 134.05 145.63 134.48 145.59 134.89V134.9Z" fill="black"/>
<path d="M91.0099 109.62C90.6399 109.65 90.2399 109.27 90.2099 108.86C90.1799 108.27 90.5599 107.78 91.0399 107.79C91.4199 107.79 91.8299 108.18 91.8699 108.56C91.9199 109.07 91.5099 109.58 90.9999 109.63L91.0099 109.62Z" fill="black"/>
<path d="M111.93 108.28C112.03 108.64 111.53 109.05 111.08 108.95C110.66 108.85 110.34 108.6 110.15 108.18C109.98 107.81 110.25 107.29 110.66 107.24C111.33 107.17 111.89 107.62 111.93 108.27V108.28Z" fill="black"/>
<path d="M151.11 27.23C151.44 27.18 151.93 27.61 151.97 27.99C152.02 28.46 151.77 28.81 151.32 28.89C150.83 28.98 150.43 28.78 150.32 28.38C150.19 27.92 150.62 27.29 151.11 27.22V27.23Z" fill="black"/>
<path d="M135.47 98.12C135.42 98.53 135.05 98.82 134.62 98.77C134.26 98.73 133.84 98.28 133.86 97.96C133.9 97.48 134.5 97.03 134.94 97.17C135.33 97.29 135.53 97.65 135.47 98.12Z" fill="black"/>
<path d="M148.78 104.85C148.79 105.1 148.5 105.45 148.23 105.51C147.86 105.58 147.33 105.19 147.4 104.83C147.45 104.57 147.7 104.35 147.81 104.18C148.31 104.1 148.77 104.47 148.78 104.85Z" fill="black"/>
<path d="M94.42 124.23C94.65 124.46 94.91 124.61 95.02 124.84C95.14 125.09 94.82 125.38 94.48 125.41C93.98 125.44 93.52 125.07 93.72 124.77C93.86 124.56 94.14 124.44 94.42 124.24V124.23Z" fill="black"/>
<path d="M194.19 65.29C194.03 65.18 193.75 65.05 193.57 64.83C193.48 64.72 193.54 64.41 193.64 64.26C193.83 63.96 194.17 63.92 194.48 64.05C194.78 64.17 194.98 64.4 195 64.75C195.01 65.01 194.63 65.3 194.19 65.3V65.29Z" fill="black"/>
<path d="M127.27 31.0201C127.24 30.6001 127.64 30.1801 128 30.2801C128.31 30.3701 128.53 30.6101 128.49 30.9101C128.45 31.1801 128.3 31.4801 128.1 31.6601C127.88 31.8501 127.29 31.3801 127.27 31.0201Z" fill="black"/>
<path d="M161.39 43.78C161.87 43.84 162.28 44.47 162.12 44.92C162.01 45.23 161.74 45.38 161.42 45.36C161.05 45.34 160.64 44.91 160.61 44.57C160.58 44.24 161.07 43.74 161.39 43.78Z" fill="black"/>
<path d="M98.7299 114.32C98.8099 114.91 98.5399 115.29 98.1199 115.33C97.6599 115.37 97.3099 115.05 97.3399 114.63C97.3699 114.19 97.6999 113.83 98.1299 113.9C98.3699 113.94 98.5799 114.21 98.7299 114.32Z" fill="black"/>
<path d="M115.73 110.26C115.91 110.94 115.69 111.44 115.09 111.79C114.84 111.94 114.5 111.88 114.29 111.61C114.1 111.35 114.02 111.07 114.23 110.78C114.63 110.24 115.11 109.96 115.78 110.3L115.72 110.25L115.73 110.26Z" fill="black"/>
<path d="M118.51 121.13C118.34 121.29 118.17 121.54 117.92 121.65C117.72 121.74 117.32 121.32 117.35 121.05C117.39 120.77 117.52 120.5 117.66 120.25C117.79 120.02 118 120.02 118.18 120.22C118.25 120.29 118.33 120.37 118.36 120.46C118.42 120.65 118.44 120.85 118.49 121.14L118.51 121.13Z" fill="black"/>
<path d="M165.23 94.7C165.07 94.85 164.91 95.12 164.67 95.23C164.24 95.43 163.71 94.93 163.74 94.4C163.76 94.11 164.07 93.86 164.37 93.89C164.78 93.93 165.18 94.27 165.22 94.7H165.23Z" fill="black"/>
<path d="M162.46 92.3C162.46 92.75 161.96 93.03 161.57 92.8C161.02 92.48 160.86 92.09 161.05 91.51C161.13 91.28 161.31 91.19 161.56 91.24C162.17 91.38 162.46 91.72 162.46 92.29V92.3Z" fill="black"/>
<path d="M148.61 78.32C148.54 78.58 148.28 78.77 148.04 79.09C147.78 78.81 147.52 78.65 147.43 78.41C147.32 78.11 147.5 77.84 147.81 77.72C148.21 77.57 148.73 77.95 148.61 78.32Z" fill="black"/>
<path d="M178.27 107.04C178.63 107.1 178.91 107.54 178.82 107.94C178.73 108.37 178.34 108.66 177.97 108.59C177.61 108.53 177.35 108.09 177.42 107.67C177.49 107.25 177.86 106.97 178.27 107.04Z" fill="black"/>
<path d="M137.77 108.68C137.67 108.5 137.43 108.27 137.42 108.02C137.4 107.64 137.99 107.27 138.31 107.43C138.46 107.51 138.61 107.74 138.63 107.92C138.67 108.37 138.27 108.76 137.77 108.68Z" fill="black"/>
<path d="M157.67 102.42C157.59 102.27 157.4 102.05 157.35 101.81C157.3 101.55 157.7 101.26 157.98 101.27C158.26 101.29 158.46 101.58 158.42 101.92C158.38 102.27 158.11 102.5 157.67 102.42Z" fill="black"/>
<path d="M178.2 87.72C178.12 88.15 177.76 88.34 177.53 88.17C177.38 88.06 177.21 87.93 177.13 87.77C177.06 87.61 177.05 87.39 177.11 87.22C177.17 87 177.7 86.91 177.86 87.1C178.03 87.3 178.12 87.58 178.2 87.72Z" fill="black"/>
<path d="M128.41 111.49C128.25 111.62 128.07 111.86 127.82 111.96C127.54 112.08 127.17 111.78 127.21 111.46C127.24 111.19 127.38 110.86 127.58 110.71C127.85 110.52 128.4 110.99 128.41 111.5V111.49Z" fill="black"/>
<path d="M115.49 91.28C115.2 91.52 115.02 91.77 114.77 91.86C114.55 91.94 114.22 91.51 114.23 91.23C114.25 90.93 114.59 90.51 114.79 90.61C115.03 90.73 115.2 90.99 115.48 91.27L115.49 91.28Z" fill="black"/>
<path d="M127.58 99.21C127.43 98.84 127.26 98.58 127.25 98.32C127.24 98 127.66 97.75 127.93 97.83C128.24 97.93 128.48 98.29 128.33 98.54C128.18 98.78 127.9 98.93 127.58 99.21Z" fill="black"/>
<path d="M162.27 64.04C162.21 64.23 162.17 64.44 162.08 64.62C161.95 64.89 161.54 65.01 161.31 64.82C161.17 64.7 161.02 64.46 161.05 64.31C161.12 64.03 161.28 63.75 161.48 63.54C161.57 63.44 161.89 63.43 162 63.51C162.14 63.61 162.18 63.86 162.26 64.04H162.27Z" fill="black"/>
<path d="M141.8 45.26C141.78 45.81 141.55 46.08 141.09 46.08C140.77 46.08 140.54 45.82 140.57 45.47C140.6 44.92 140.84 44.64 141.28 44.64C141.58 44.64 141.82 44.92 141.8 45.27V45.26Z" fill="black"/>
<path d="M180.98 78.26C180.89 77.81 181.31 77.27 181.65 77.36C181.9 77.42 182.16 77.66 182.29 77.89C182.46 78.18 181.99 78.74 181.63 78.67C181.37 78.62 181.15 78.38 180.98 78.26Z" fill="black"/>
<path d="M178.54 121.72C178.43 122 178.41 122.22 178.29 122.34C178.16 122.46 177.93 122.57 177.77 122.54C177.45 122.49 177.26 121.91 177.46 121.55C177.54 121.41 177.8 121.25 177.91 121.28C178.15 121.36 178.35 121.57 178.54 121.71V121.72Z" fill="black"/>
<path d="M121.54 118.73C121.36 118.64 121.15 118.57 121 118.44C120.76 118.24 120.79 117.84 121.01 117.61C121.22 117.39 121.6 117.4 121.84 117.67C121.97 117.81 122.06 118.01 122.12 118.2C122.21 118.51 121.87 118.81 121.54 118.74V118.73Z" fill="black"/>
<path d="M141.03 125.7C140.74 125.64 140.56 125.29 140.67 124.97C140.78 124.65 141.14 124.48 141.4 124.68C141.55 124.79 141.66 125 141.7 125.18C141.75 125.46 141.32 125.75 141.03 125.69V125.7Z" fill="black"/>
<path d="M105.39 121.47C105.12 121.56 104.86 121.65 104.59 121.71C104.54 121.72 104.39 121.56 104.4 121.5C104.45 121.22 104.55 120.95 104.63 120.68C104.82 120.74 105.05 120.74 105.17 120.87C105.29 120.99 105.31 121.22 105.4 121.48L105.39 121.47Z" fill="black"/>
<path d="M131.52 121.27C131.39 121.36 131.26 121.54 131.14 121.53C130.82 121.49 130.67 121.18 130.8 120.91C130.83 120.84 130.93 120.77 131.01 120.74C131.27 120.64 131.55 120.94 131.51 121.27H131.52Z" fill="black"/>
<path d="M117.84 127.67C117.98 127.92 118.13 128.08 118.14 128.25C118.16 128.53 117.84 128.73 117.54 128.59C117.41 128.53 117.24 128.24 117.28 128.19C117.42 127.99 117.63 127.85 117.84 127.67Z" fill="black"/>
<path d="M151.87 128.05C151.87 128.39 151.56 128.68 151.26 128.55C151.11 128.49 150.95 128.3 150.93 128.14C150.88 127.81 151.24 127.51 151.53 127.63C151.68 127.69 151.76 127.9 151.87 128.04V128.05Z" fill="black"/>
<path d="M151.93 94.22C151.98 94.58 151.74 94.88 151.45 94.79C151.29 94.75 151.12 94.6 151.05 94.45C150.94 94.2 151.27 93.82 151.57 93.88C151.71 93.9 151.81 94.1 151.93 94.22Z" fill="black"/>
<path d="M154.89 91.5199C154.75 91.7499 154.64 92.0399 154.44 92.2199C154.33 92.3299 154.07 92.2999 153.88 92.2799C153.8 92.2799 153.67 92.1399 153.67 92.0699C153.67 91.8799 153.7 91.6599 153.8 91.5199C153.98 91.2499 154.27 91.1399 154.59 91.2799C154.68 91.3199 154.75 91.4099 154.88 91.5199H154.89Z" fill="black"/>
<path d="M130.63 48.11C130.78 47.84 130.84 47.62 130.98 47.51C131.24 47.32 131.59 47.55 131.6 47.93C131.6 48.11 131.45 48.28 131.37 48.46C131.13 48.34 130.88 48.23 130.63 48.11Z" fill="black"/>
<path d="M137.89 74.75C137.74 74.85 137.59 75.04 137.46 75.03C137.12 75 136.89 74.59 137.07 74.38C137.18 74.26 137.48 74.18 137.62 74.24C137.76 74.3 137.81 74.57 137.9 74.75H137.89Z" fill="black"/>
<path d="M132.22 54.86C132.09 54.98 131.93 55.21 131.71 55.35C131.46 55.5 131.2 55.28 131.12 54.9C131.03 54.49 131.34 54.4 131.62 54.31C131.92 54.2 132.22 54.44 132.23 54.87L132.22 54.86Z" fill="black"/>
<path d="M144.78 95.13C144.61 95.21 144.42 95.36 144.27 95.34C144.17 95.32 144.09 95.25 144.06 95.17C144.05 95.11 144.05 95.05 144.04 94.98C144.05 94.94 144.07 94.89 144.1 94.85C144.2 94.72 144.43 94.69 144.6 94.61C144.66 94.78 144.72 94.96 144.78 95.13Z" fill="black"/>
<path d="M127.5 58.79C127.33 58.71 127.09 58.67 127 58.54C126.83 58.28 127.28 57.76 127.63 57.83C127.78 57.86 127.94 58.06 128 58.21C128.1 58.47 127.82 58.76 127.49 58.79H127.5Z" fill="black"/>
<path d="M148.24 131.68C148.08 131.59 147.83 131.53 147.77 131.4C147.64 131.1 147.77 130.83 148.07 130.67C148.34 130.52 148.68 130.73 148.72 131.05C148.76 131.39 148.57 131.64 148.23 131.69L148.24 131.68Z" fill="black"/>
<path d="M114.33 130.66C114.62 130.95 114.85 131.11 114.97 131.33C115.02 131.43 114.89 131.73 114.77 131.79C114.48 131.93 114.12 131.82 114.03 131.55C113.97 131.35 114.18 131.06 114.33 130.66Z" fill="black"/>
<path d="M101.59 131.64C101.42 131.71 101.17 131.88 100.92 131.87C100.64 131.87 100.48 131.42 100.66 131.16C100.75 131.02 100.97 130.9 101.14 130.89C101.48 130.88 101.71 131.21 101.59 131.64Z" fill="black"/>
<path d="M158.39 61.34C158.49 61.66 158.27 61.95 157.93 61.97C157.58 61.99 157.36 61.81 157.27 61.49C157.19 61.19 157.37 60.95 157.77 60.84C158.08 60.75 158.27 60.92 158.39 61.35V61.34Z" fill="black"/>
<path d="M145.22 67.71C145.23 67.81 145.22 67.91 145.17 68C145.08 68.2 144.87 68.36 144.61 68.37C144.48 68.22 144.24 68.04 144.15 67.8C144.06 67.55 144.4 67.14 144.65 67.12C144.89 67.12 145.11 67.32 145.2 67.62C145.21 67.65 145.21 67.68 145.22 67.71Z" fill="black"/>
<path d="M131.11 129.28C130.86 129.38 130.7 129.3 130.6 129.05C130.38 128.53 130.48 128.3 130.99 128.09C131.24 127.99 131.41 128.05 131.51 128.3C131.71 128.8 131.6 129.07 131.12 129.27L131.11 129.28Z" fill="black"/>
<path d="M170.77 100.72C171.01 100.84 171.29 100.93 171.5 101.11C171.65 101.23 171.4 101.75 171.17 101.82C170.82 101.94 170.37 101.59 170.43 101.19C170.45 101.04 170.63 100.91 170.77 100.72Z" fill="black"/>
<path d="M98.25 121.75C98.11 121.86 97.97 122.06 97.81 122.07C97.53 122.09 97.35 121.73 97.46 121.4C97.54 121.17 97.76 121.09 97.96 121.26C98.1 121.37 98.15 121.58 98.24 121.75H98.25Z" fill="black"/>
<path d="M168.37 104.52C168.34 104.84 167.99 105.07 167.77 104.9C167.64 104.79 167.53 104.6 167.5 104.43C167.47 104.16 167.87 103.92 168.1 104.07C168.23 104.16 168.28 104.37 168.37 104.52Z" fill="black"/>
<path d="M122.05 77.76C122.02 78.13 121.78 78.35 121.45 78.32C121.1 78.29 120.86 77.94 121.01 77.67C121.17 77.37 121.45 77.21 121.76 77.29C121.89 77.32 121.96 77.6 122.06 77.76H122.05Z" fill="black"/>
<path d="M128.02 138.61C127.83 138.68 127.64 138.82 127.47 138.8C127.22 138.76 127.18 138.54 127.29 138.3C127.4 138.06 127.58 137.94 127.78 138.1C127.91 138.2 127.95 138.44 128.02 138.62V138.61Z" fill="black"/>
<path d="M148.35 117.93C148.27 118.1 148.23 118.32 148.1 118.42C147.88 118.59 147.51 118.32 147.52 117.99C147.52 117.81 147.62 117.6 147.75 117.47C147.92 117.3 148.3 117.6 148.35 117.93Z" fill="black"/>
<path d="M115.07 124.5C115 124.81 114.74 124.91 114.42 124.77C114.19 124.67 114.13 124.51 114.25 124.28C114.41 123.96 114.75 123.79 114.9 123.97C115.01 124.11 115.02 124.33 115.08 124.51L115.07 124.5Z" fill="black"/>
<path d="M144.86 34.74C144.86 34.82 144.78 34.9299 144.71 34.9699C144.64 34.9999 144.47 34.97 144.44 34.93C144.35 34.77 144.23 34.57 144.28 34.43C144.32 34.31 144.57 34.27 144.73 34.2C144.77 34.38 144.84 34.56 144.85 34.74H144.86Z" fill="black"/>
<path d="M194.63 91.42C194.63 91.51 194.67 91.63 194.63 91.68C194.4 91.95 194.11 91.98 193.81 91.8C193.73 91.75 193.68 91.64 193.62 91.55C193.78 91.43 193.94 91.25 194.12 91.22C194.28 91.2 194.47 91.35 194.64 91.42H194.63Z" fill="black"/>
<path d="M144.25 27.6999C144.43 27.7599 144.66 27.7599 144.78 27.8799C144.97 28.0599 144.52 28.4099 144.2 28.3099C144.12 28.2799 144.03 28.1899 143.99 28.1099C143.89 27.8699 143.99 27.7199 144.25 27.6899V27.6999Z" fill="black"/>
<path d="M134.74 51.61C134.74 51.7 134.8 51.82 134.76 51.89C134.68 52.04 134.57 52.26 134.44 52.29C134.29 52.32 134.03 52.23 133.95 52.11C133.89 52.02 134 51.75 134.11 51.63C134.23 51.5 134.43 51.44 134.6 51.37C134.61 51.37 134.69 51.53 134.74 51.61Z" fill="black"/>
<path d="M175 44.9001C175.02 45.1401 174.9 45.2801 174.65 45.2601C174.4 45.2401 174.31 45.0701 174.38 44.8301C174.41 44.7301 174.48 44.6501 174.54 44.5601C174.69 44.6701 174.85 44.7801 175 44.9001Z" fill="black"/>
<path d="M127.62 51.85C127.31 51.78 127.13 51.47 127.23 51.2C127.34 50.92 127.66 50.79 127.94 50.97C128.08 51.06 128.21 51.26 128.23 51.42C128.27 51.72 127.95 51.93 127.62 51.85Z" fill="black"/>
<path d="M88.18 111.25C87.97 111.38 87.82 111.54 87.67 111.55C87.52 111.56 87.23 111.41 87.22 111.33C87.22 111.07 87.32 110.81 87.38 110.55C87.47 110.57 87.6 110.57 87.65 110.63C87.84 110.82 88 111.04 88.18 111.25Z" fill="black"/>
<path d="M185.25 100.9C185.33 100.96 185.45 101.01 185.49 101.09C185.58 101.33 185.16 101.7 184.88 101.63C184.8 101.61 184.72 101.49 184.69 101.39C184.59 101.04 184.83 100.83 185.25 100.9Z" fill="black"/>
<path d="M164.83 74.55C164.76 74.9 164.43 75.11 164.24 74.91C164.07 74.72 163.98 74.44 163.86 74.2C164.03 74.12 164.19 73.99 164.36 73.98C164.71 73.98 164.9 74.23 164.83 74.54V74.55Z" fill="black"/>
<path d="M167.78 84.54C167.92 84.43 168.04 84.25 168.19 84.21C168.51 84.14 168.7 84.47 168.56 84.79C168.46 85.02 168.27 85.14 168.06 85C167.92 84.91 167.86 84.69 167.77 84.53L167.78 84.54Z" fill="black"/>
<path d="M121.82 84.45C121.62 84.68 121.45 84.87 121.28 85.07C121.17 84.95 120.97 84.83 120.96 84.7C120.95 84.54 121.06 84.26 121.17 84.23C121.33 84.19 121.53 84.34 121.82 84.44V84.45Z" fill="black"/>
<path d="M185.46 108.39C185.28 108.58 185.16 108.8 185.05 108.8C184.9 108.8 184.66 108.66 184.63 108.53C184.59 108.37 184.72 108.17 184.77 107.99C184.99 108.12 185.22 108.25 185.46 108.39Z" fill="black"/>
<path d="M91.5199 114.3C91.5999 114.58 91.6699 114.81 91.7399 115.04C91.5699 115.08 91.3399 115.2 91.2399 115.14C91.1199 115.06 91.0499 114.8 91.0799 114.64C91.0999 114.53 91.3199 114.45 91.5299 114.3H91.5199Z" fill="black"/>
<path d="M185.03 68.29C184.96 68.56 184.77 68.67 184.56 68.5C184.42 68.39 184.37 68.15 184.32 67.96C184.31 67.92 184.46 67.81 184.55 67.77C184.79 67.66 184.98 67.74 185.06 67.98C185.09 68.07 185.04 68.18 185.03 68.29Z" fill="black"/>
<path d="M131.56 67.87C131.47 68.01 131.38 68.26 131.29 68.26C131.12 68.26 130.95 68.11 130.79 68.03C130.89 67.9 130.97 67.74 131.1 67.66C131.33 67.52 131.5 67.62 131.56 67.88V67.87Z" fill="black"/>
<path d="M151.41 74.62C151.37 74.7 151.26 74.76 151.18 74.82C150.93 74.75 150.81 74.58 150.88 74.33C150.91 74.26 151.05 74.16 151.13 74.16C151.41 74.18 151.52 74.36 151.41 74.62Z" fill="black"/>
<path d="M121.34 91.56L121.35 91.36L121.57 91.46L121.34 91.56Z" fill="black"/>
<path d="M178.46 94.84C178.38 94.87 178.28 94.94 178.21 94.92C177.93 94.82 177.9 94.68 178.15 94.55C178.22 94.52 178.36 94.54 178.42 94.59C178.47 94.63 178.45 94.75 178.46 94.84Z" fill="black"/>
<path d="M178.17 81.1901C178.26 81.2201 178.4 81.2401 178.42 81.2901C178.48 81.5001 178.34 81.6001 178.08 81.5301C178.02 81.5101 177.98 81.4001 177.93 81.3301C178.01 81.2801 178.09 81.2301 178.17 81.1801V81.1901Z" fill="black"/>
<path d="M134.97 38.1001C134.82 38.1901 134.67 38.2801 134.51 38.3501C134.5 38.3501 134.37 38.2001 134.37 38.1301C134.39 37.8701 134.54 37.7901 134.77 37.9001C134.85 37.9401 134.9 38.0301 134.97 38.1001Z" fill="black"/>
<path d="M124.78 61.41C124.86 61.44 125 61.46 125.01 61.51C125.07 61.74 124.95 61.84 124.69 61.77C124.63 61.75 124.59 61.64 124.54 61.57C124.62 61.52 124.7 61.46 124.77 61.41H124.78Z" fill="black"/>
<path d="M157.96 47.9399L158.08 47.7L158.15 47.97L157.96 47.9399Z" fill="black"/>
<path d="M134.48 130.94C134.55 130.95 134.66 130.94 134.69 130.98C134.73 131.04 134.75 131.15 134.72 131.22C134.69 131.3 134.6 131.35 134.53 131.42C134.48 131.34 134.41 131.26 134.4 131.18C134.39 131.11 134.45 131.02 134.47 130.95L134.48 130.94Z" fill="black"/>
<path d="M161.42 131.27C161.42 131.36 161.46 131.47 161.42 131.54C161.38 131.61 161.27 131.65 161.2 131.7C161.15 131.54 161.07 131.38 161.05 131.22C161.05 131.17 161.18 131.1 161.25 131.05C161.31 131.12 161.36 131.2 161.42 131.27Z" fill="black"/>
<path d="M104.2 134.81C104.36 134.73 104.51 134.63 104.68 134.57C104.7 134.57 104.83 134.71 104.83 134.79C104.83 134.87 104.71 135.03 104.69 135.02C104.52 134.97 104.37 134.88 104.2 134.8V134.81Z" fill="black"/>
<path d="M111.84 134.84C111.84 134.94 111.86 135.04 111.82 135.12C111.78 135.2 111.69 135.26 111.62 135.33C111.54 135.16 111.45 135 111.4 134.82C111.39 134.79 111.54 134.66 111.62 134.66C111.69 134.66 111.77 134.77 111.84 134.83V134.84Z" fill="black"/>
<path d="M151.15 134.54C151.23 134.6 151.39 134.71 151.38 134.73C151.3 134.9 151.18 135.06 151.07 135.22C151 135.14 150.9 135.08 150.87 134.99C150.77 134.73 150.87 134.58 151.15 134.54Z" fill="black"/>
<path d="M127.59 131.83C127.52 131.75 127.39 131.63 127.41 131.58C127.51 131.35 127.71 131.28 127.94 131.39C128.03 131.43 128.08 131.54 128.15 131.62C127.96 131.69 127.78 131.76 127.59 131.83Z" fill="black"/>
<path d="M164.7 128.42C164.61 128.47 164.51 128.57 164.44 128.55C164.2 128.48 164.13 128.3 164.25 128.08C164.3 128 164.4 127.96 164.48 127.91C164.55 128.08 164.62 128.25 164.69 128.42H164.7Z" fill="black"/>
<path d="M104.25 141.59C104.34 141.62 104.49 141.64 104.5 141.7C104.55 141.89 104.41 141.99 104.15 141.94C104.09 141.94 104.05 141.81 104.01 141.73C104.09 141.68 104.18 141.63 104.26 141.59H104.25Z" fill="black"/>
<path d="M181.11 104.79C181.19 104.76 181.28 104.69 181.35 104.71C181.62 104.77 181.65 104.9 181.42 105.02C181.36 105.05 181.24 105.02 181.16 104.97C181.12 104.95 181.12 104.85 181.1 104.78L181.11 104.79Z" fill="black"/>
<path d="M181.46 97.84C181.43 97.91 181.4 98.03 181.37 98.04C181.28 98.04 181.11 98 181.11 97.96C181.08 97.73 181.22 97.69 181.46 97.84Z" fill="black"/>
<path d="M145 114.79C145.11 114.89 145.22 115 145.32 115.1C145.25 115.16 145.16 115.27 145.1 115.26C144.93 115.22 144.77 115.13 144.61 115.06C144.74 114.97 144.87 114.88 145 114.79Z" fill="black"/>
<path d="M151.83 121.46C151.77 121.53 151.69 121.68 151.65 121.67C151.48 121.62 151.32 121.52 151.16 121.44C151.33 121.37 151.49 121.28 151.66 121.24C151.7 121.24 151.77 121.38 151.83 121.46Z" fill="black"/>
<path d="M181.02 111.97L180.94 111.77L181.14 111.79L181.02 111.97Z" fill="black"/>
<path d="M174.76 51.36C174.69 51.46 174.62 51.56 174.55 51.66C174.49 51.59 174.37 51.52 174.37 51.45C174.37 51.38 174.48 51.29 174.56 51.26C174.6 51.24 174.69 51.32 174.76 51.36Z" fill="black"/>
<path d="M116.36 109.6C116.36 110.03 116.09 110.19 115.72 110.26L115.78 110.31C115.78 109.88 116.05 109.72 116.42 109.65L116.36 109.6Z" fill="black"/>
<path d="M137.76 114.9L137.83 115.09L137.64 115.07L137.76 114.9Z" fill="black"/>
<path d="M178.01 41.26C177.93 41.32 177.85 41.44 177.78 41.44C177.71 41.44 177.65 41.31 177.58 41.23C177.66 41.17 177.74 41.05 177.81 41.06C177.88 41.06 177.94 41.19 178.01 41.26Z" fill="black"/>
<path d="M155.08 118.23C155.02 118.28 154.92 118.38 154.89 118.37C154.66 118.25 154.68 118.12 154.93 118.06C154.96 118.06 155.03 118.18 155.08 118.24V118.23Z" fill="black"/>
<path d="M148.07 97.89C147.95 98.14 147.82 98.14 147.73 97.87C147.73 97.83 147.85 97.76 147.91 97.7C147.97 97.77 148.07 97.85 148.07 97.89Z" fill="black"/>
<path d="M174.54 104.99L174.47 104.8L174.66 104.83L174.54 104.99Z" fill="black"/>
<path d="M154.53 77.87L154.64 77.9L154.6 77.79L154.53 77.87Z" fill="black"/>
<path d="M154.6 77.79C154.33 77.84 154.22 77.76 154.3 77.55C154.3 77.54 154.49 77.55 154.5 77.59C154.54 77.67 154.52 77.77 154.52 77.87L154.6 77.79Z" fill="black"/>
<path d="M27.6999 177.83C26.8699 177.83 26.0799 177.37 25.6799 176.58L16.0599 157.31C15.5099 156.2 15.9599 154.85 17.0699 154.29C18.1799 153.74 19.5299 154.19 20.0899 155.3L29.7099 174.57C30.2599 175.68 29.8099 177.03 28.6999 177.59C28.3799 177.75 28.0299 177.83 27.6999 177.83Z" fill="#B989C9"/>
<path d="M13.2501 173C12.4201 173 11.6301 172.54 11.2301 171.75C10.6801 170.64 11.1301 169.29 12.2401 168.73L31.5101 159.11C32.6201 158.56 33.9701 159.01 34.5301 160.12C35.0801 161.23 34.6301 162.58 33.5201 163.14L14.2501 172.76C13.9301 172.92 13.5801 173 13.2501 173Z" fill="#B989C9"/>
<path d="M120.61 163.38C111.64 162.99 111.87 176.26 120.08 176.65C128.86 177.05 129.54 163.76 120.61 163.38Z" fill="#64A03D"/>
<path d="M219.58 27.07C220.61 26.14 228.32 29.62 228.55 28.52C228.75 27.58 221.5 24.93 221.76 23.25C221.85 21.93 231.33 18.83 231.01 18.09C230.69 17.35 221.76 20.43 220.65 19.23C219.17 17.68 225.51 5.39003 224.86 5.02003C224.06 4.55003 217.36 16.03 215.82 15.88C213.53 15.68 210.99 5.90003 209.9 6.41003C209.27 6.75003 212.09 16.72 211.07 17.49C209.46 18.7 200.03 15.44 199.65 16.21C199.17 17.18 209.74 19.93 209.78 21.93C209.81 23.71 197.33 26.39 198.09 27.79C198.63 28.77 210.79 25.1 211.39 26.04C212.44 27.46 205.96 40.2 206.74 40.76C207.32 41.18 213.88 28.58 216.06 28.75C217.27 28.81 220.29 36.97 221.24 36.72C222.15 36.4 218.66 27.87 219.59 27.09L219.58 27.07Z" fill="#5FBFFA"/>
<path d="M35.9599 3.99998C28.0899 3.65998 28.2899 15.3 35.4999 15.64C43.1999 15.99 43.7999 4.32998 35.9599 3.99998Z" fill="#E7BB43"/>
<path d="M36.9699 109.09C34.4499 110.9 30.5299 101.79 29.5799 105.82C29.0899 108.06 30.9299 111.91 28.8299 113.43C25.6599 115.64 17.6899 119.36 27.8299 118.7C30.7099 118.49 30.5599 119.77 30.5699 120.85C30.7599 125.36 31.1799 126.42 31.5599 126.81C33.5799 128.17 34.5499 118.05 37.4399 118.51C43.8399 119.34 44.3899 119.66 45.0199 118.87C45.6499 118.08 43.2399 116.46 41.2399 114.83C38.3799 112.32 46.0599 102.77 36.9699 109.1V109.09Z" fill="#DB433B"/>
<path d="M199.03 161.88C201.68 164.89 208.08 163.05 209.4 164.55C210.74 165.82 206.82 173.27 210.55 174.22C211.7 174.44 212.81 173.68 213.02 172.53C213.02 172.51 213.02 172.49 213.03 172.48C214.93 163.24 214.46 161.86 212.52 160.24C211.08 159.05 204.37 159.84 203.6 158.96C202.83 158.08 207.71 151.11 205.13 148.04C202.87 145.35 192.6 145.7 191.94 144.95C191.28 144.2 194.92 135.42 191.42 134.73C187.91 134.04 188.3 139.04 186.99 146.41C186.37 150.52 199.97 149.01 201.19 150.4C202.29 151.66 197.04 159.61 199.03 161.87V161.88Z" fill="#DB433B"/>
</g>
<defs>
<clipPath id="clip0_394_1263">
<rect width="220.01" height="173.83" fill="white" transform="translate(11 4)"/>
</clipPath>
</defs>
</svg>
