<svg width="243" height="182" viewBox="0 0 243 182" fill="none" xmlns="http://www.w3.org/2000/svg">
<g clip-path="url(#clip0_415_13)">
<path d="M165.8 113C166.31 111.11 163.18 99.73 163.91 98.19C164.64 96.65 175.24 99.07 176.65 100.79C177.66 102.01 180.18 110.09 182.16 117.32C196.1 96.31 195.08 65.66 180.78 43.95C180.96 60.65 170.79 47.48 164.59 45.51C161.35 46.44 158.18 47.63 155.12 49.04C153.74 56.29 150.81 61.41 142.2 57.31C142.2 57.31 137.37 66.45 140.82 67.65C144.27 68.85 155.63 71.79 155.98 74.37C154.42 89.69 147.14 75.57 138.75 75.4C123.94 79.71 120.16 85.23 127.21 97.97C128.59 98.82 135.66 101.06 136.86 102.62C141.17 111.56 134.79 112.25 130.66 118.12C129.97 119.89 131.7 130.17 132.9 131.04C134.1 131.91 139.1 129.82 142.89 129.13C153.92 128.62 149.43 123.63 154.43 117.77C156.67 116.64 165.28 114.92 165.79 113.02L165.8 113Z" fill="#64A03D"/>
<path d="M116.21 118.69C114.32 118.69 108.8 119.89 106.91 122.14C97.26 133.68 103.8 133.84 114.65 134.71C116.89 134.02 123.26 127.48 123.26 125.87C123.26 124.26 118.1 118.69 116.21 118.69Z" fill="#64A03D"/>
<path d="M72.98 52.72C73.33 61.56 80.39 65.29 82.45 71.15C82.96 77.51 74.02 87.06 73.84 90.77C73.66 94.48 79.51 97.33 80.56 100.6C81.25 103 79.36 117.48 82.33 121.08C84.1 123.32 93.36 108.34 95.43 108.34C104.04 110.41 108 106.96 111.96 99.91C112.47 98.35 104.73 93.71 103.35 91.46C102.32 89.57 102.48 78.38 100.59 76.31C98.35 73.73 91.49 73.02 90.27 71.48C89.42 70.44 87.67 56.49 91.81 53.81C94.39 52.04 101.28 55.03 103.7 54.5C106.12 53.97 110.24 47.27 112.31 46.76C125.05 54.5 121.61 57.61 128.32 40.38C129.01 26.1 123.02 35.08 115.4 31.26C114.2 29.7 122.81 21.45 126 17.31C103.02 18.21 83.6 32.84 72.98 52.71V52.72Z" fill="#64A03D"/>
<path d="M138.6 37.75C142.03 40.33 154.79 36.6 157.71 36.55C162.89 36.46 171.14 43.27 175.1 36.73C165.29 25.19 147.55 18.65 133.25 17.61C130.33 22.26 133.78 23.81 136.54 27.95C137.39 29.51 135.85 35.69 138.61 37.76L138.6 37.75Z" fill="#64A03D"/>
<path d="M168.6 178.54C168.4 179.68 168.14 181.24 131.69 181.34H128.6C111.4 181.34 95.03 180.97 93.35 180.72C91.02 180.37 89.68 179.94 89.69 178.81C89.71 177.14 92.67 176.27 112.19 173.71C116.09 173.2 120.12 172.68 120.69 172.46C122.74 171.38 123.46 168.4 124.15 165.53C124.59 163.69 125 161.96 125.8 160.74C126.4 159.79 127.55 159.18 128.94 159.08C131.02 158.92 133.2 159.85 134.63 161.49C135.32 162.27 135.45 163.62 135.61 165.33C135.95 169 136.47 171.86 139.61 172.4C141.86 172.72 144.16 173.04 146.41 173.34C152.54 174.18 158.33 174.97 162.88 175.85C167.52 176.7 168.8 177.31 168.6 178.54Z" fill="black"/>
<path d="M199.38 55.19C192.38 35.6 179.93 21.22 163.34 13.52C163.74 12.6 164.29 11.56 164.87 10.47C166.43 7.52997 167.91 4.73997 167.15 2.80997C166.95 2.29997 166.49 1.62997 165.46 1.25997C164.95 1.02997 164.4 1.00997 163.86 1.19997C161.98 1.86997 160.45 4.99997 158.49 9.35997C158.18 10.05 157.88 10.71 157.6 11.3C155.95 10.67 154.48 10.02 153.16 9.44997C149.76 7.95997 147.52 6.96997 145.93 7.84997C145.11 8.29997 144.61 9.17997 144.41 10.59C144.24 12.52 145.91 13.13 148.66 14.13C150.18 14.68 152.19 15.42 154.69 16.6L153.39 19.19C137.85 13.49 122.9 12.89 109.01 17.38C108.84 17.42 106.7 17.98 103.72 19.19C100.73 20.4 96.9 22.28 93.33 24.97C75.67 38.28 64.45 59.34 63.32 81.31C62.31 101.19 69.59 119.41 83.82 132.61C87.46 135.99 91.54 139.02 95.94 141.61C95.69 142.12 95.4 142.61 95.12 143.09C95.07 143.18 95.02 143.26 94.97 143.35C92.19 141.94 89.63 140.15 87.37 138.03C87.08 137.73 86.72 137.5 86.32 137.34C85.93 137.19 85.51 137.12 85.08 137.15C84.66 137.17 84.24 137.29 83.87 137.48C83.5 137.68 83.17 137.95 82.91 138.29L82.83 138.4C82.48 139.04 82.42 139.79 82.66 140.58C83.62 143.66 89.12 147.19 91.87 148.69C89.23 153.62 87.72 156.75 88.88 158.47C89.3 159.09 89.98 159.4 90.91 159.4C91.08 159.4 91.25 159.39 91.43 159.37C92.96 159.2 93.84 157.57 95.45 154.61C96 153.59 96.62 152.46 97.37 151.18C125.52 163.53 156.83 158.37 179.25 137.63C202.3 116.3 210.01 84.71 199.38 55.19ZM147.28 148.95C132.25 152.67 115.65 151.48 100.43 145.6C100.51 145.45 100.6 145.3 100.68 145.15C100.91 144.76 101.14 144.35 101.36 143.93C110.49 147.3 119.25 148.81 127.5 148.81C155.64 148.81 177.86 131.3 188.52 110.83C200.72 87.23 197.29 42.06 159.45 21.53C159.87 20.69 160.3 19.86 160.72 19.09C175.56 25.35 187.51 39.46 193.6 57.93C200.46 78.74 198.71 101.45 189.01 117.21C179.39 133.6 164.96 144.57 147.28 148.95ZM72.27 105.28C64.69 82.34 70.19 64.63 76.13 53.81C83.67 40.07 96.63 29.1 111.69 23.69C125.78 18.64 140.51 18.81 153.16 24.18C167.49 30.26 178.66 42.75 185.47 60.29C199.56 96.64 178.57 127.15 150.55 138.49C136.01 144.38 120.52 144.96 106.94 140.12C91.58 134.66 79.6 122.61 72.27 105.28Z" fill="black"/>
<path d="M73.5 5.48998C66.46 11.09 65.62 22.52 70.05 28.34C75.62 35.5 88.29 40.87 97.28 44.06C98.48 44.56 99.85 44 100.36 42.81C100.48 42.54 100.54 42.24 100.54 41.95C101.53 30.49 102.9 18.91 98.58 10.46C94.45 2.68998 82.03 -1.34002 73.5 5.48998ZM84.25 21.21C79.63 24.97 74.01 18.43 78.88 14.23C83.53 10.35 88.83 17.57 84.25 21.21Z" fill="#E7BB43"/>
<path d="M38.59 147.63C39.82 146.52 48.97 150.66 49.25 149.35C49.48 148.23 40.87 145.09 41.18 143.09C41.29 141.52 52.55 137.83 52.18 136.95C51.81 136.07 41.19 139.74 39.87 138.3C38.11 136.46 45.65 121.86 44.87 121.42C43.92 120.86 35.96 134.51 34.13 134.32C31.41 134.08 28.39 122.46 27.1 123.06C26.35 123.47 29.71 135.31 28.49 136.23C26.57 137.67 15.37 133.79 14.92 134.71C14.35 135.86 26.91 139.13 26.95 141.5C26.99 143.62 12.15 146.8 13.06 148.46C13.7 149.62 28.15 145.27 28.87 146.38C30.12 148.07 22.42 163.21 23.34 163.87C24.03 164.37 31.82 149.4 34.41 149.6C35.85 149.67 39.44 159.37 40.57 159.07C41.66 158.69 37.51 148.55 38.61 147.62L38.59 147.63Z" fill="#B989C9"/>
<path d="M212.33 160.47C214.98 163.48 221.38 161.64 222.7 163.14C224.04 164.41 220.12 171.86 223.85 172.81C225 173.03 226.11 172.27 226.32 171.12C226.32 171.1 226.32 171.08 226.33 171.07C228.23 161.83 227.76 160.45 225.82 158.83C224.38 157.64 217.67 158.43 216.9 157.55C216.13 156.67 221.01 149.7 218.43 146.63C216.17 143.94 205.9 144.29 205.24 143.54C204.58 142.79 208.22 134.01 204.72 133.32C201.21 132.63 201.6 137.63 200.29 145C199.67 149.11 213.27 147.6 214.49 148.99C215.59 150.25 210.34 158.2 212.33 160.46V160.47Z" fill="#DB433B"/>
<path d="M39.68 32.48C38.54 31.93 37.4 31.31 36.23 30.61C37.42 31.2 38.57 31.83 39.68 32.48Z" fill="#F39745"/>
<path d="M41.98 53.44C39.45 53.44 35.38 53.03 32.66 52.2C30.32 51.49 29.99 50.17 30.12 49.19C30.21 48.55 30.54 48 31.08 47.6C32.67 46.42 35.9 46.82 39.65 47.42C40.09 47.49 40.48 47.55 40.79 47.59C41.74 47.72 42.69 47.88 43.63 48.05C45.82 48.45 46.14 49.89 46.13 50.72C46.12 52.73 44.35 53.18 43.77 53.32C43.71 53.34 43.66 53.35 43.6 53.36C43.2 53.41 42.64 53.44 41.98 53.44Z" fill="#F39745"/>
<path d="M33.3199 32.35C36.2999 34.23 39.1499 35.67 42.0299 36.76C42.5299 36.95 43.0199 37.04 43.4799 37.04C44.6099 37.04 45.5499 36.5 45.9499 35.53C46.7399 33.58 45.1199 32.44 44.5699 32.06C41.9999 30.26 39.1599 28.64 36.1099 27.23C35.2899 26.85 34.4299 26.7 33.6199 26.8C33.5599 26.81 33.5099 26.82 33.4599 26.83C32.3499 27.08 31.5899 27.83 31.4199 28.83C31.1999 30.08 31.9699 31.49 33.3199 32.35ZM39.6799 32.48C38.5399 31.93 37.3999 31.31 36.2299 30.61C37.4199 31.2 38.5699 31.83 39.6799 32.48Z" fill="#F39745"/>
<path d="M47.3899 65.89C46.9299 66.64 46.3299 67.26 45.6099 67.74C42.3999 69.86 39.5999 71.4 36.8099 72.56C36.2799 72.78 35.7999 72.87 35.3899 72.87C34.2299 72.87 33.5599 72.16 33.2799 71.77C32.5099 70.7 32.6199 69.51 33.5899 68.24C34.5299 67.01 37.1899 65.53 41.1499 63.42C42.0399 62.94 42.8599 62.5 43.5199 62.13C44.7699 61.43 46.1599 61.57 47.0499 62.49C47.9199 63.39 48.0599 64.79 47.3899 65.89Z" fill="#F39745"/>
<path d="M210.45 37.5C210.11 37.5 209.79 37.34 209.57 37.07C193.39 19.34 210.13 6.31998 217.26 21.17C234.52 16.16 234.4 39.33 210.45 37.5Z" fill="#5FBFFA"/>
<path d="M93.81 132.92C94.4 132.75 95 132.57 95.59 132.4C95.69 132.22 95.86 132.04 95.88 131.85C96 130.84 96.72 130.43 97.57 130.19C97.84 130.11 98.2 130.19 98.48 130.29C98.9 130.45 99.11 130.83 99.17 131.27C99.24 131.83 99.12 132.35 98.62 132.66C98.27 132.88 97.86 133.07 97.46 133.12C96.58 133.22 96.14 133.7 96.01 134.53C95.96 134.84 95.94 135.16 95.9 135.47C95.84 136.01 95.55 136.33 95.15 136.53C95.56 136.68 95.97 136.82 96.38 136.97C96.68 136.53 97.51 136.36 98 136.63C98.53 136.92 98.85 137.36 98.96 137.92C100.06 138.33 101.17 138.75 102.27 139.17C102.27 139.16 102.27 139.14 102.27 139.13C102.38 137.96 101.98 137.08 100.81 136.64C100.61 136.57 100.42 136.48 100.24 136.36C99.48 135.88 99.36 134.45 100.04 133.87C100.2 133.73 100.35 133.55 100.53 133.49C101.72 133.1 102.44 132.32 102.82 131.12C103.02 130.51 103.67 130.2 104.32 130.12C105.44 129.99 105.98 130.95 105.75 131.66C105.51 132.38 105.19 132.99 104.4 133.28C104.03 133.42 103.71 133.75 103.43 134.04C102.99 134.49 102.98 135.24 103.34 135.79C103.66 136.28 104.14 136.42 104.7 136.38C105.16 136.35 105.53 136.12 105.73 135.75C106.07 135.11 106.28 134.4 106.62 133.75C107.01 133.01 108.3 133.01 108.74 133.75C108.95 134.1 109.16 134.49 109.23 134.89C109.32 135.36 109.3 135.84 109.32 136.33C109.81 136.31 110.33 136.35 110.78 136.21C111.85 135.87 112.12 134.76 111.51 133.91C111.22 133.5 110.74 133.21 110.32 132.9C109.79 132.51 109.38 132.05 109.27 131.38C109.19 130.9 108.87 130.63 108.46 130.51C107.76 130.31 107.05 130.16 106.28 129.98C106.15 129.46 106.05 128.95 105.88 128.47C105.51 127.37 104.22 126.69 103.08 126.99C102.89 127.04 102.7 127.18 102.58 127.33C102.46 127.49 102.41 127.71 102.35 127.91C101.86 129.38 100.22 129.81 99.15 128.45C98.77 127.96 98.31 127.52 97.83 127.1C97.38 126.7 96.44 127 96.26 127.6C96.08 128.2 95.98 128.82 95.84 129.44C95.74 129.88 95.45 130.19 95.06 130.38C94.68 130.56 94.27 130.66 93.87 130.82C93.52 130.96 93.22 131.43 93.31 131.84C93.4 132.22 93.62 132.57 93.79 132.93L93.81 132.92Z" fill="black"/>
<path d="M147.76 139.68C148.02 139.86 148.31 140 148.55 140.2C148.8 140.41 148.96 140.68 149.04 140.97C150.06 140.7 151.07 140.43 152.09 140.16C152.07 140.14 152.05 140.12 152.03 140.1C151.85 140 151.67 139.85 151.47 139.82C150.42 139.67 149.73 139.12 149.39 138.11C149.32 137.91 149.22 137.72 149.09 137.56C148.8 137.22 148.42 137.06 147.97 137.11C147.46 137.17 146.95 137.63 146.89 138.12C146.83 138.56 146.96 138.96 147.27 139.29C147.41 139.44 147.6 139.55 147.77 139.67L147.76 139.68Z" fill="black"/>
<path d="M137.52 143.03C137.9 143.22 138.31 143.34 138.67 143.56C138.78 143.62 138.86 143.72 138.94 143.82C140.95 143.2 142.98 142.63 145.02 142.07C145.19 141.75 145.23 141.38 145.13 140.98C144.93 140.18 144.49 139.79 143.56 139.65C143.1 139.58 142.65 139.86 142.64 140.25C142.63 140.67 142.67 141.1 142.62 141.51C142.57 141.95 142.32 142.31 141.94 142.52C141.01 143.04 139.81 142.81 139.08 142.01C138.94 141.85 138.82 141.68 138.69 141.51C138.17 140.83 137.46 140.76 136.69 140.93C136.39 140.99 136.16 141.39 136.29 141.64C136.58 142.22 136.93 142.74 137.53 143.04L137.52 143.03Z" fill="black"/>
<path d="M129.72 145.76C129.24 144.88 129.67 143.47 130.56 143.03C130.94 142.84 131.38 142.79 131.74 142.58C132.11 142.37 132.32 141.98 132.37 141.53C132.5 140.4 131.96 139.78 130.77 139.67C130.67 139.66 130.56 139.67 130.45 139.66C129.95 139.64 129.56 139.88 129.49 140.28C129.41 140.8 129.38 141.33 129.28 141.85C129.2 142.28 128.97 142.63 128.57 142.84C128.29 142.99 128.01 143.15 127.71 143.26C126.61 143.66 125.98 144.4 125.84 145.59C125.84 145.59 125.84 145.61 125.84 145.62C127.13 145.72 128.42 145.78 129.71 145.76H129.72Z" fill="black"/>
<path d="M87.69 132.65C87.9 132.61 88.11 132.57 88.32 132.51C88.61 132.43 88.97 132.27 89.11 132.04C89.79 130.91 90.76 130.14 91.9 129.54C92.2 129.38 92.28 128.79 92.17 128.38C92.04 127.84 91.71 127.43 91.32 127.07C90.55 126.36 89.65 126.57 89.35 127.53C89.22 127.93 89.13 128.35 89.02 128.76C88.85 129.41 88.46 129.88 87.87 130.2C87.31 130.5 86.79 130.84 86.37 131.28C86.8 131.76 87.24 132.21 87.69 132.66V132.65Z" fill="black"/>
<path d="M83.92 128.23C84.2 128.62 84.48 129 84.77 129.36C85.14 128.95 85.25 128.42 85.25 127.83C85.25 127.14 84.82 126.57 84.19 126.43C83.71 126.33 83.21 126.29 82.72 126.23C82.72 126.31 82.71 126.38 82.7 126.46C83.11 127.05 83.52 127.64 83.94 128.23H83.92Z" fill="black"/>
<path d="M107.14 139.35C107.48 139.74 107.94 140.03 108.35 140.36C108.86 140.76 109.17 141.26 109.29 141.88C109.78 142.07 110.26 142.25 110.75 142.44C111.3 142.15 111.73 141.74 111.95 141.16C112.3 140.22 113.05 139.96 113.91 139.82C114.99 139.64 115.72 140.17 115.97 141.27C116.08 141.76 116.19 142.24 116.3 142.73C117.5 143 118.25 142.3 118.92 141.45C119.21 141.07 119.04 140.28 118.61 140.05C118.06 139.75 117.45 139.54 116.93 139.2C116.07 138.62 116.13 137.35 117.02 136.78C117.37 136.56 117.8 136.46 118.17 136.26C118.77 135.95 118.99 135.27 118.7 134.64C118.57 134.36 118.37 134.1 118.14 133.89C117.67 133.46 116.8 133.51 116.41 133.98C116.21 134.22 116.03 134.49 115.9 134.77C115.62 135.37 115.26 135.92 114.65 136.15C113.67 136.53 113.14 137.25 112.79 138.18C112.64 138.57 112.51 139 112.25 139.32C112.08 139.53 111.71 139.66 111.42 139.68C110.86 139.72 110.38 139.48 110.06 139.02C109.53 138.25 109.22 137.41 109.22 136.47C108.52 136.49 107.81 136.49 107.12 136.55C106.53 136.6 106.09 137.44 106.35 138.01C106.57 138.48 106.8 138.97 107.13 139.36L107.14 139.35Z" fill="black"/>
<path d="M144.67 135.16C144.4 135.03 144.15 134.99 144.04 134.85C143.84 134.6 143.86 134.28 144.02 133.98C144.22 133.59 144.51 133.31 144.92 133.13C145.66 132.81 146.06 132.24 146.14 131.42C146.17 131.12 146.32 130.82 146.44 130.53C146.58 130.22 147.2 129.96 147.53 130.06C148.26 130.27 149 130.57 149.24 131.32C149.57 132.34 150.26 132.88 151.19 133.22C151.91 133.48 152.04 134.13 152.08 134.76C152.1 135.03 151.88 135.35 151.68 135.58C151.47 135.81 150.72 135.71 150.49 135.52C149.96 135.11 149.67 134.56 149.48 133.95C149.25 133.2 148.68 133.03 148.02 133C147.13 132.96 146.33 133.04 145.99 134.08C145.9 134.36 145.68 134.64 145.44 134.83C145.22 135.01 144.89 135.07 144.67 135.15V135.16Z" fill="black"/>
<path d="M161.5 132.51C161.08 132.49 160.87 132.49 160.66 132.47C160.17 132.41 159.61 131.95 159.56 131.48C159.5 130.96 159.49 130.43 159.53 129.91C159.54 129.75 159.74 129.54 159.91 129.46C160.08 129.37 160.32 129.36 160.53 129.37C161.89 129.37 162.71 128.77 162.87 127.36C162.92 126.89 163.34 126.64 163.74 126.54C164.25 126.42 165.04 126.99 165.22 127.52C165.43 128.16 165.44 128.86 164.95 129.3C164 130.15 163.12 131.03 162.45 132.13C162.28 132.4 161.71 132.43 161.5 132.51Z" fill="black"/>
<path d="M92.54 135.63C92.54 135.63 92.57 135.58 92.58 135.55C92.75 134.84 92.92 134.13 93.1 133.42C93.19 133.08 93.46 132.99 93.76 132.93C93.26 132.82 92.76 132.63 92.28 132.66C91.46 132.71 90.64 132.89 89.83 133.07C89.66 133.11 89.48 133.33 89.41 133.51C89.34 133.72 89.29 133.91 89.24 134.09C89.53 134.34 89.82 134.58 90.11 134.83C90.92 135.09 91.73 135.36 92.54 135.63Z" fill="black"/>
<path d="M152.55 126.25C152.55 125.72 152.58 125.2 152.56 124.67C152.54 124.01 152.37 123.42 151.78 123.03C151.34 122.74 150.94 122.4 150.72 121.89C150.58 121.58 150.75 120.98 151.09 120.77C151.44 120.55 152.09 120.55 152.27 120.79C152.4 120.95 152.55 121.11 152.62 121.29C152.94 122.1 153.36 122.8 154.18 123.21C154.44 123.34 154.63 123.64 154.83 123.88C155.13 124.25 155.08 125.08 154.75 125.35C154.09 125.89 153.41 126.36 152.48 126.18L152.55 126.24V126.25Z" fill="black"/>
<path d="M105.59 107.99C105.53 108.19 105.54 108.46 105.41 108.56C104.92 108.94 104.4 109.32 103.85 109.6C103.24 109.91 102.86 110.35 102.67 111C102.58 111.3 102.44 111.6 102.27 111.86C102.01 112.24 101.59 112.38 101.17 112.29C100.89 112.23 100.6 112.02 100.42 111.79C100.2 111.5 100.33 110.82 100.55 110.6C100.62 110.53 100.68 110.42 100.77 110.38C101.92 109.89 102.5 108.93 103.01 107.84C103.35 107.13 104.5 106.98 105.25 107.46C105.41 107.56 105.48 107.8 105.59 107.98V107.99Z" fill="black"/>
<path d="M78.91 120.99C79.79 120.41 81.04 119.67 81.36 119.54C81.55 119.47 81.74 119.35 81.88 119.2C82.01 119.06 82.08 118.85 82.17 118.67C82.22 118.25 81.84 117.63 81.37 117.43C80.97 117.26 80.55 117.22 80.18 117.5C79.94 117.69 79.66 117.9 79.53 118.16C79.17 118.88 78.67 119.39 77.99 119.72C78.3 120.14 78.61 120.56 78.91 120.98V120.99Z" fill="black"/>
<path d="M125.23 139.59C125.4 139.74 125.73 139.9 125.8 140.13C126.1 141.18 125.74 142 124.84 142.48C124.08 142.88 123.11 142.5 122.81 141.67C122.58 141.04 122.98 140.14 123.61 139.86C123.8 139.78 124 139.71 124.2 139.68C124.5 139.63 124.81 139.62 125.23 139.59Z" fill="black"/>
<path d="M102.63 124.64C102.63 124.75 102.63 124.85 102.62 124.96C102.54 126.13 101.65 126.61 100.63 126.04C99.9401 125.65 99.6201 124.98 99.7401 124.17C99.8201 123.66 100.27 123.21 100.78 123.12C101.99 122.93 102.62 123.44 102.63 124.64Z" fill="black"/>
<path d="M119.35 138.27C119.37 137.91 119.37 137.49 119.43 137.09C119.46 136.9 119.57 136.67 119.72 136.57C120.25 136.21 121.64 136.48 121.83 137.22C122.23 138.77 121.7 139.59 120.53 139.89C119.91 140.05 119.48 139.84 119.43 139.25C119.4 138.94 119.38 138.63 119.35 138.27Z" fill="black"/>
<path d="M130.9 129.68C130.73 129.57 130.42 129.46 130.24 129.23C129.76 128.62 129.65 127.91 129.85 127.15C129.97 126.7 130.67 126.3 131.11 126.5C131.49 126.67 131.86 126.88 132.17 127.16C132.68 127.62 132.81 128.22 132.6 128.88C132.44 129.35 131.72 129.71 130.9 129.68Z" fill="black"/>
<path d="M173.33 104.69C173.4 104.43 173.49 104.01 173.63 103.62C173.75 103.28 174.51 102.97 175 103.03C175.5 103.09 175.98 103.58 176.03 104.06C176.09 104.6 176.03 105.12 175.7 105.56C175.52 105.81 175.3 106.05 175.04 106.21C174.37 106.65 173.45 106.23 173.37 105.46C173.35 105.25 173.35 105.04 173.33 104.68V104.69Z" fill="black"/>
<path d="M130.96 133.31C131.34 133.28 131.84 133.56 132 133.88C132.34 134.58 132.37 135.29 132 135.97C131.72 136.47 131.17 136.55 130.65 136.6C129.98 136.67 129.38 136.2 129.38 135.55C129.38 135.14 129.42 134.71 129.56 134.33C129.79 133.7 130.28 133.34 130.98 133.32L130.96 133.31Z" fill="black"/>
<path d="M116.99 126.5C117.69 126.54 118.12 126.94 118.4 127.54C118.68 128.15 118.64 128.74 118.23 129.29C117.83 129.82 116.85 129.98 116.27 129.62C116.18 129.57 116.07 129.49 116.05 129.41C115.9 128.48 115.9 127.57 116.46 126.76C116.56 126.62 116.81 126.59 116.99 126.51V126.5Z" fill="black"/>
<path d="M154.57 111.24C154.5 111.32 154.45 111.44 154.37 111.46C154.18 111.52 153.96 111.6 153.79 111.54C153.02 111.26 153.05 110.29 152.41 109.88C151.88 109.54 151.37 109.17 150.87 108.79C150.57 108.56 150.56 107.98 150.82 107.64C151.11 107.26 151.95 107.21 152.24 107.56C152.37 107.72 152.56 107.86 152.63 108.05C153.03 109.05 153.7 109.85 154.4 110.64C154.52 110.78 154.52 111.03 154.58 111.24H154.57Z" fill="black"/>
<path d="M173.19 123.36C172.91 123.46 172.62 123.67 172.34 123.65C171.83 123.61 171.32 123.48 170.83 123.3C170.32 123.12 169.92 122.77 169.89 122.18C169.86 121.48 170.44 120.78 171.18 120.63C171.49 120.57 171.84 120.61 172.01 120.91C172.21 121.27 172.32 121.67 172.48 122.05C172.68 122.52 172.89 122.99 173.11 123.45C173.12 123.44 173.19 123.36 173.19 123.36Z" fill="black"/>
<path d="M155.51 98.14C155.35 98.43 155.23 98.9 154.93 99.11C154.43 99.46 153.82 99.66 153.25 99.9C153.01 100 152.82 99.89 152.75 99.66C152.44 98.66 152.76 97.66 153.54 97.17C154.09 96.82 154.83 96.93 155.21 97.46C155.33 97.62 155.38 97.83 155.51 98.14Z" fill="black"/>
<path d="M132.75 131.59C132.75 131.48 132.77 131.38 132.78 131.28C132.86 130.51 133.3 129.94 133.82 129.96C134.5 129.99 134.97 130.36 135.24 130.97C135.64 131.87 135.09 132.9 134.12 133.09C133.43 133.23 132.86 132.85 132.79 132.2C132.77 132 132.76 131.79 132.75 131.6V131.59Z" fill="black"/>
<path d="M147.51 109.81C147.61 109.81 147.72 109.78 147.82 109.8C148.52 109.95 148.83 110.48 149.03 111.1C149.21 111.67 148.95 112.13 148.59 112.52C148.18 112.96 147.26 112.86 146.91 112.39C146.38 111.67 146.39 110.7 146.96 110.08C147.09 109.94 147.33 109.9 147.51 109.82V109.81Z" fill="black"/>
<path d="M139.24 128.46C139.17 128.89 139.16 129.21 139.05 129.5C138.99 129.66 138.79 129.85 138.64 129.88C137.86 130.01 137.06 129.56 136.85 128.93C136.63 128.27 136.95 127.41 137.56 127.01C137.98 126.73 138.72 126.92 138.91 127.38C139.07 127.76 139.16 128.16 139.25 128.46H139.24Z" fill="black"/>
<path d="M138.99 114.76C138.96 115.6 138.45 116.16 137.8 116.29C137.29 116.39 136.75 116.13 136.51 115.61C136.38 115.33 136.3 115.01 136.28 114.71C136.24 114.23 136.66 113.66 137.1 113.48C137.57 113.29 138.18 113.43 138.51 113.87C138.75 114.19 138.89 114.58 138.99 114.76Z" fill="black"/>
<path d="M95.23 110.13C95.61 110.09 96.02 110.58 95.91 110.96C95.67 111.83 95.14 112.45 94.33 112.83C93.93 113.02 93.51 112.97 93.14 112.69C92.79 112.43 92.75 111.72 93.06 111.25C93.57 110.48 94.3 110.14 95.22 110.12L95.23 110.13Z" fill="black"/>
<path d="M138.09 122.48C137.09 122.52 136.32 121.98 136.25 121.21C136.19 120.61 136.96 119.91 137.7 119.89C138.42 119.87 139.04 120.44 139.14 121.22C139.22 121.87 138.73 122.46 138.09 122.48Z" fill="black"/>
<path d="M114.47 110.27C115.25 110.32 115.88 110.92 115.88 111.62C115.88 112.3 115.25 112.8 114.36 112.81C113.66 112.81 113.06 112.08 113.15 111.32C113.22 110.72 113.83 110.23 114.46 110.27H114.47Z" fill="black"/>
<path d="M145.89 117C145.3 116.59 144.66 116.22 144.13 115.74C143.85 115.49 143.7 115.05 143.57 114.67C143.52 114.52 143.63 114.26 143.75 114.12C144.14 113.69 144.67 113.6 145.18 113.76C145.57 113.88 145.92 114.19 145.99 114.63C146.11 115.44 146.35 116.28 145.85 117.06L145.9 116.99L145.89 117Z" fill="black"/>
<path d="M152.33 74.48C152.19 74.69 152.07 75.01 151.84 75.17C151.19 75.62 150.5 75.6 149.84 75.17C149.45 74.91 149.42 74.49 149.44 74.08C149.46 73.65 149.65 73.3 150.08 73.13C150.9 72.81 151.78 73.1 152.19 73.84C152.28 74.01 152.28 74.23 152.33 74.48Z" fill="black"/>
<path d="M104.88 116.3C104.39 116.36 103.82 116.07 103.58 115.63C103.32 115.14 103.26 114.62 103.59 114.17C103.75 113.96 104.11 113.76 104.36 113.78C104.75 113.81 105.16 113.98 105.5 114.2C105.87 114.43 105.99 114.84 105.9 115.28C105.8 115.8 105.36 116.24 104.87 116.29L104.88 116.3Z" fill="black"/>
<path d="M122.09 98.23C122.06 98.84 121.3 99.37 120.46 99.35C119.86 99.34 119.37 98.73 119.42 98.05C119.47 97.27 120.09 96.71 120.86 96.75C121.61 96.79 122.13 97.4 122.09 98.23Z" fill="black"/>
<path d="M151.33 93.6C152.13 93.63 152.63 94.18 152.62 95C152.61 95.89 152.11 96.36 151.28 96.28C150.44 96.2 149.95 95.69 149.94 94.89C149.94 94.1 150.52 93.56 151.33 93.59V93.6Z" fill="black"/>
<path d="M137.22 106.51C138.13 106.45 138.88 107.07 138.95 107.96C138.98 108.41 138.74 108.75 138.36 108.98C137.92 109.26 137.28 109.2 136.89 108.87C136.35 108.42 136.1 107.74 136.28 107.22C136.41 106.84 136.81 106.53 137.21 106.51H137.22Z" fill="black"/>
<path d="M122.06 124.95C122.09 125.74 121.76 126.21 121.24 126.27C120.66 126.34 120.19 126.11 119.96 125.58C119.84 125.3 119.75 124.98 119.72 124.68C119.68 124.15 120.1 123.59 120.57 123.48C121.02 123.38 121.64 123.7 121.85 124.19C121.97 124.47 122.02 124.79 122.06 124.94V124.95Z" fill="black"/>
<path d="M133.9 137.1C134.89 137.13 135.53 138.07 135.22 139.06C135.16 139.23 135 139.41 134.84 139.51C134.68 139.61 134.46 139.67 134.26 139.68C132.92 139.71 132.6 139.11 132.81 137.96C132.91 137.42 133.34 137.09 133.9 137.1Z" fill="black"/>
<path d="M110.34 129.64C110.15 129.57 109.93 129.53 109.76 129.42C109.24 129.07 109.17 128.05 109.6 127.41C109.87 127.01 110.52 126.82 111.02 127.02C111.66 127.27 111.95 127.88 111.75 128.57C111.58 129.17 110.99 129.62 110.34 129.65V129.64Z" fill="black"/>
<path d="M95.2601 98.38C95.2001 98.51 95.1101 98.81 94.9501 99.07C94.7301 99.41 94.1701 99.53 93.8301 99.34C93.2401 99.01 92.8601 98.51 92.8701 97.83C92.8701 97.57 93.0901 97.22 93.3201 97.07C93.7801 96.76 94.3301 96.77 94.7901 97.11C95.1401 97.37 95.3201 97.75 95.2601 98.37V98.38Z" fill="black"/>
<path d="M104.45 99.82C104.55 99.85 104.66 99.86 104.76 99.9C105.32 100.1 105.6 100.52 105.67 101.08C105.74 101.64 105.56 102.13 105.07 102.44C104.9 102.55 104.67 102.61 104.47 102.62C103.78 102.63 103.15 101.85 103.2 101.09C103.24 100.53 103.9 99.87 104.46 99.83L104.45 99.82Z" fill="black"/>
<path d="M118.99 107.91C118.89 108.76 118.06 109.27 117.37 109.01C116.59 108.71 116.12 107.81 116.38 107C116.43 106.83 116.62 106.63 116.79 106.58C117.5 106.34 118.31 106.58 118.72 107.16C118.89 107.4 118.93 107.72 118.99 107.91Z" fill="black"/>
<path d="M140.87 133.02C140.21 133.11 139.75 132.85 139.57 132.51C139.33 132.03 139.28 131.53 139.45 131.03C139.51 130.85 139.66 130.66 139.82 130.58C140.32 130.31 140.81 130.45 141.25 130.76C141.63 131.02 141.84 131.65 141.67 132.13C141.5 132.65 141.14 132.99 140.86 133.02H140.87Z" fill="black"/>
<path d="M134.62 110.31C135.19 110.34 135.58 110.47 135.8 110.88C136.03 111.32 135.87 111.91 135.41 112.27C135.25 112.4 135.07 112.51 134.88 112.6C134.4 112.82 133.74 112.62 133.5 112.21C133.18 111.65 133.34 110.82 133.86 110.54C134.13 110.4 134.45 110.36 134.62 110.31Z" fill="black"/>
<path d="M108.6 111.69C108.66 112.38 108.28 112.87 107.58 112.97C106.86 113.08 106.28 112.72 106.19 112.12C106.07 111.3 106.48 110.61 107.17 110.45C107.84 110.29 108.52 110.88 108.59 111.69H108.6Z" fill="black"/>
<path d="M77.18 102.57C76.63 102.61 76.12 102.24 76.04 101.71C75.93 101.07 76.39 100.41 77.02 100.31C77.64 100.21 78.26 100.69 78.36 101.35C78.45 101.91 77.87 102.51 77.18 102.56V102.57Z" fill="black"/>
<path d="M119.33 101.52C119.33 102.14 119 102.62 118.53 102.67C117.98 102.72 117.53 102.51 117.19 102.07C116.89 101.69 116.93 101.03 117.32 100.66C117.53 100.46 117.81 100.29 118.09 100.2C118.6 100.04 119.15 100.39 119.26 100.91C119.3 101.11 119.31 101.32 119.33 101.52Z" fill="black"/>
<path d="M97.67 109.66C96.97 109.68 96.56 109.26 96.55 108.52C96.55 107.76 96.96 107.22 97.55 107.22C98.28 107.22 98.92 107.86 98.92 108.59C98.92 109.19 98.39 109.64 97.66 109.66H97.67Z" fill="black"/>
<path d="M172.85 95.54C172.79 96.05 172.43 96.31 172.14 96.28C171.72 96.23 171.33 96.15 171.03 95.79C170.71 95.41 170.57 94.95 170.81 94.66C171 94.43 171.26 94.22 171.53 94.12C171.87 93.99 172.47 94.26 172.6 94.58C172.75 94.96 172.81 95.37 172.85 95.54Z" fill="black"/>
<path d="M84.3 89.13C84.09 89.03 83.78 88.94 83.56 88.76C83.26 88.52 83.26 88.02 83.48 87.61C83.53 87.52 83.58 87.42 83.64 87.34C84.01 86.81 84.44 86.61 84.95 86.73C85.32 86.82 85.67 87.23 85.68 87.64C85.7 88.2 85.52 88.67 84.98 88.93C84.8 89.02 84.59 89.05 84.31 89.13H84.3Z" fill="black"/>
<path d="M78.54 108.01C78.54 108.65 77.93 109.42 77.21 109.47C76.96 109.49 76.56 109.27 76.45 109.05C76.13 108.44 76.26 107.83 76.74 107.31C77.07 106.95 77.51 106.79 77.86 106.96C78.28 107.15 78.51 107.48 78.54 108.01Z" fill="black"/>
<path d="M157.4 80.33C157.82 80.33 158.2 80.43 158.47 80.79C158.88 81.33 158.9 81.89 158.5 82.47C158.39 82.62 158.2 82.75 158.02 82.82C157.42 83.03 156.68 82.47 156.5 81.69C156.35 81.08 156.8 80.41 157.4 80.33Z" fill="black"/>
<path d="M168.94 124.82C168.79 124.96 168.62 125.25 168.37 125.37C167.82 125.62 167.1 125.22 166.85 124.61C166.63 124.07 167.09 123.32 167.75 123.22C167.93 123.19 168.18 123.25 168.33 123.36C168.86 123.74 169.02 124.11 168.95 124.82H168.94Z" fill="black"/>
<path d="M74.5101 105.92C73.9001 105.95 73.3701 105.43 73.3001 104.74C73.2401 104.11 73.7701 103.46 74.3601 103.44C74.9601 103.42 75.4801 103.94 75.5501 104.64C75.6201 105.31 75.1501 105.9 74.5101 105.93V105.92Z" fill="black"/>
<path d="M132.6 114.59C132.51 115.2 131.85 115.59 131.19 115.43C130.67 115.31 130.29 114.79 130.35 114.29C130.42 113.69 131.09 113.29 131.76 113.46C132.29 113.59 132.68 114.1 132.61 114.58L132.6 114.59Z" fill="black"/>
<path d="M152.49 126.19C152.73 127.02 152.47 127.8 152.19 128.56C152.01 129.03 151.6 129.29 151.3 129.16C150.88 128.98 150.62 128.64 150.64 128.23C150.65 127.85 150.77 127.39 151.01 127.12C151.41 126.69 151.89 126.26 152.56 126.24L152.49 126.18V126.19Z" fill="black"/>
<path d="M119.11 121.37C119.14 121.92 118.88 122.36 118.54 122.74C118.26 123.05 117.45 123.06 117.12 122.81C116.85 122.61 116.73 122.04 116.87 121.68C117.12 121.05 117.58 120.7 118.25 120.64C118.61 120.61 119.1 121.03 119.1 121.37H119.11Z" fill="black"/>
<path d="M84.2401 120.73C84.7201 120.75 85.4401 121.17 85.5001 121.53C85.5801 121.98 85.3401 122.36 84.9901 122.59C84.7601 122.74 84.4101 122.85 84.1401 122.8C83.7101 122.72 83.3101 122.03 83.4201 121.55C83.4801 121.28 83.7501 121.06 83.9501 120.83C84.0101 120.76 84.1401 120.76 84.2401 120.73Z" fill="black"/>
<path d="M78.5899 115.1C78.6599 115.68 77.99 116.3 77.4 116.2C76.81 116.1 76.5399 115.67 76.3899 115.17C76.2299 114.64 76.44 114.11 76.88 113.83C76.97 113.78 77.07 113.7 77.16 113.7C77.81 113.72 78.5199 114.43 78.5899 115.1Z" fill="black"/>
<path d="M92.08 114.34C92.04 114.86 91.88 115.23 91.48 115.45C90.95 115.75 90.45 115.74 90.05 115.36C89.91 115.23 89.79 115.01 89.79 114.84C89.81 114.02 90.87 113.34 91.59 113.7C91.82 113.82 91.95 114.16 92.08 114.34Z" fill="black"/>
<path d="M147.76 79.09C147.19 79.09 146.76 78.66 146.79 78.12C146.82 77.5 147.38 76.92 147.98 76.88C148.44 76.85 148.84 77.29 148.93 77.93C149.01 78.56 148.47 79.1 147.77 79.09H147.76Z" fill="black"/>
<path d="M124.37 82.47C123.74 82.4 123.25 81.82 123.32 81.21C123.38 80.61 124 80.16 124.65 80.24C125.29 80.32 125.79 80.91 125.71 81.49C125.63 82.09 125.02 82.53 124.37 82.47Z" fill="black"/>
<path d="M70.79 93.15C71.07 93.21 71.3 93.2 71.46 93.3C71.93 93.59 72.18 94.07 72.22 94.59C72.24 94.82 72.01 95.18 71.79 95.32C71.39 95.57 70.98 95.34 70.65 95.09C70.2 94.75 69.97 94.12 70.19 93.73C70.32 93.49 70.61 93.32 70.79 93.16V93.15Z" fill="black"/>
<path d="M111.74 94.84C111.71 95.33 111.41 95.69 110.99 95.79C110.57 95.89 110.13 95.69 109.93 95.31C109.88 95.22 109.84 95.12 109.8 95.02C109.61 94.42 109.71 93.79 110.13 93.59C110.36 93.48 110.75 93.5 111 93.62C111.5 93.86 111.81 94.28 111.74 94.84Z" fill="black"/>
<path d="M124.2 95.47C123.66 95.54 123.03 95.04 122.89 94.43C122.79 94.01 123.2 93.4 123.66 93.27C124.36 93.08 125.1 93.67 125.11 94.41C125.11 94.86 124.64 95.41 124.19 95.47H124.2Z" fill="black"/>
<path d="M182.25 64.46C182.25 64.96 181.8 65.43 181.26 65.49C180.79 65.54 180.27 65.11 180.15 64.57C180.05 64.14 180.5 63.5 180.97 63.39C181.54 63.26 182.24 63.84 182.25 64.46Z" fill="black"/>
<path d="M142.66 112.19C142.48 112.47 142.41 112.69 142.25 112.79C141.82 113.06 141.17 112.95 140.8 112.59C140.34 112.15 140.3 111.4 140.71 110.89C140.97 110.57 141.48 110.49 141.84 110.69C142.49 111.04 142.55 111.66 142.66 112.19Z" fill="black"/>
<path d="M75.84 111.55C75.79 112.2 75.12 112.77 74.58 112.64C74.14 112.53 73.67 111.97 73.64 111.52C73.6 110.96 74.22 110.48 74.95 110.49C75.47 110.5 75.88 111 75.84 111.55Z" fill="black"/>
<path d="M87.66 99.46C87.48 99.38 87.26 99.34 87.13 99.21C86.54 98.62 86.71 97.57 87.46 97.12C87.61 97.03 87.89 96.98 88.03 97.05C88.53 97.3 88.71 97.78 88.74 98.31C88.77 98.74 88.62 99.12 88.23 99.34C88.07 99.43 87.85 99.43 87.66 99.47V99.46Z" fill="black"/>
<path d="M81.38 103.37C82.21 103.55 82.7 104.58 82.3 105.31C82.11 105.65 81.65 105.88 81.25 105.82C80.85 105.76 80.49 105.39 80.43 105C80.35 104.46 80.48 103.97 80.82 103.57C80.93 103.44 81.19 103.44 81.38 103.38V103.37Z" fill="black"/>
<path d="M91.09 107.22C91.21 107.39 91.44 107.6 91.52 107.86C91.66 108.27 91.5 108.67 91.24 109C90.99 109.32 90.47 109.5 90.15 109.38C89.71 109.21 89.4 108.57 89.54 108.11C89.71 107.52 90.37 107.11 91.09 107.23V107.22Z" fill="black"/>
<path d="M145.53 81.44C145.57 81.97 145.17 82.51 144.7 82.58C143.97 82.68 143.21 82.03 143.23 81.33C143.24 80.85 143.71 80.42 144.27 80.38C144.95 80.33 145.49 80.78 145.53 81.44Z" fill="black"/>
<path d="M180.52 70.16C181.07 70.17 181.54 70.52 181.66 71.05C181.73 71.36 181.68 71.66 181.42 71.9C181.08 72.2 180.69 72.27 180.27 72.08C179.79 71.86 179.47 71.28 179.59 70.82C179.69 70.44 180.1 70.15 180.53 70.16H180.52Z" fill="black"/>
<path d="M114.78 123.6C115.49 123.63 115.93 124.1 115.9 124.8C115.87 125.34 115.43 125.71 114.83 125.68C114.12 125.65 113.65 125.15 113.71 124.48C113.75 123.93 114.19 123.57 114.78 123.59V123.6Z" fill="black"/>
<path d="M94.77 125.85C94.57 125.81 94.36 125.79 94.18 125.72C93.76 125.55 93.44 125.1 93.56 124.78C93.66 124.51 93.86 124.26 94.08 124.07C94.38 123.81 94.8 123.88 95.2 124.18C95.54 124.44 95.77 124.75 95.71 125.21C95.67 125.51 95.18 125.84 94.77 125.85Z" fill="black"/>
<path d="M154.97 131.92C154.86 132.44 154.22 132.75 153.74 132.5C153.25 132.24 152.93 131.86 152.83 131.3C152.79 131.05 152.85 130.9 153.07 130.77C153.58 130.44 154.09 130.51 154.54 130.83C154.89 131.07 155.09 131.46 154.96 131.93L154.97 131.92Z" fill="black"/>
<path d="M120.62 110.85C120.79 110.93 121.17 111.07 121.5 111.29C121.81 111.5 121.97 112.14 121.77 112.39C121.59 112.61 121.32 112.82 121.05 112.89C120.35 113.08 119.85 112.79 119.57 112.14C119.3 111.51 119.73 110.84 120.63 110.84L120.62 110.85Z" fill="black"/>
<path d="M84.52 115.51C83.78 115.53 83.39 114.93 83.69 114.23C83.91 113.69 84.36 113.35 84.9 113.44C85.17 113.49 85.53 113.72 85.62 113.95C85.88 114.69 85.28 115.5 84.53 115.52L84.52 115.51Z" fill="black"/>
<path d="M125.58 134.59C125.64 135.24 125.13 135.77 124.44 135.75C123.93 135.74 123.4 135.23 123.42 134.78C123.44 134.32 123.94 133.83 124.45 133.77C124.98 133.7 125.53 134.11 125.58 134.59Z" fill="black"/>
<path d="M131.87 120.92C131.85 121.02 131.85 121.13 131.82 121.23C131.64 121.91 131.18 122.34 130.79 122.22C130.25 122.04 129.9 121.68 129.82 121.11C129.76 120.66 130.18 120.05 130.64 119.88C131.23 119.67 131.94 120.27 131.87 120.92Z" fill="black"/>
<path d="M181.91 98.39C181.88 98.76 181.43 99.19 181.09 99.18C180.37 99.16 179.83 98.67 179.88 98.08C179.92 97.61 180.44 97.07 180.88 97.07C181.41 97.06 181.97 97.78 181.91 98.4V98.39Z" fill="black"/>
<path d="M100.64 98.94C99.93 98.92 99.47 98.42 99.54 97.73C99.6 97.16 100.03 96.77 100.58 96.8C101.29 96.84 101.71 97.31 101.68 98.04C101.66 98.61 101.25 98.96 100.64 98.94Z" fill="black"/>
<path d="M140.59 123.39C141.2 123.46 141.72 124.13 141.61 124.69C141.54 125.04 141.06 125.43 140.71 125.41C140.11 125.39 139.6 124.73 139.71 124.11C139.78 123.72 140.24 123.34 140.59 123.38V123.39Z" fill="black"/>
<path d="M81.44 97.07C81.59 97.16 81.88 97.27 82.1 97.47C82.52 97.84 82.4 98.55 81.9 98.76C81.71 98.84 81.5 98.88 81.3 98.92C80.85 99 80.42 98.84 80.21 98.48C80.08 98.26 80.15 97.86 80.25 97.59C80.39 97.23 80.92 97.02 81.44 97.07Z" fill="black"/>
<path d="M121.91 117.66C122.01 118.44 121.4 119.3 120.6 119.45C120.47 119.47 120.22 119.31 120.15 119.17C119.91 118.7 119.92 118.19 120.07 117.69C120.25 117.08 121.02 116.81 121.55 117.2C121.7 117.31 121.79 117.51 121.91 117.67V117.66Z" fill="black"/>
<path d="M115.44 130.66C115.38 130.82 115.32 131.12 115.19 131.38C114.99 131.76 114.51 131.98 114.18 131.9C113.73 131.78 113.39 131.24 113.42 130.72C113.44 130.37 113.83 129.98 114.22 129.9C114.76 129.79 115.39 130.12 115.44 130.67V130.66Z" fill="black"/>
<path d="M185.53 88.18C185.47 88.56 185 88.85 184.6 88.76C183.91 88.61 183.57 88.14 183.38 87.51C183.31 87.26 183.36 87.1 183.6 86.99C184.41 86.62 185.34 87.04 185.55 87.88C185.57 87.97 185.54 88.08 185.53 88.19V88.18Z" fill="black"/>
<path d="M118.85 114.81C118.88 115.33 118.37 115.78 118.04 115.76C117.61 115.73 117.27 115.55 117.02 115.2C116.72 114.79 116.8 114.13 117.17 113.82C117.43 113.61 117.91 113.65 118.25 114C118.52 114.28 118.71 114.63 118.84 114.81H118.85Z" fill="black"/>
<path d="M88.76 124.85C88.73 125.37 88.21 125.77 87.68 125.67C87.18 125.58 86.63 125.05 86.64 124.67C86.66 124.15 87.46 123.55 87.99 123.66C88.44 123.75 88.79 124.3 88.76 124.85Z" fill="black"/>
<path d="M178.61 74.28C178.58 74.86 178.11 75.3 177.62 75.22C177.12 75.14 176.74 74.62 176.79 74.08C176.84 73.55 177.35 73.06 177.79 73.12C178.25 73.18 178.64 73.73 178.61 74.28Z" fill="black"/>
<path d="M144.17 120.56C144.6 120.5 144.97 120.65 145.28 120.93C145.63 121.24 145.67 121.97 145.39 122.31C145.1 122.67 144.43 122.69 144.01 122.39C143.65 122.13 143.52 121.76 143.47 121.35C143.42 120.96 143.77 120.56 144.17 120.54V120.56Z" fill="black"/>
<path d="M97.35 89.14C96.88 89.19 96.54 88.97 96.3 88.62C96.2 88.47 96.15 88.22 96.21 88.06C96.39 87.52 96.81 87.24 97.37 87.2C97.75 87.17 98.21 87.49 98.31 87.85C98.43 88.27 98.29 88.67 97.9 88.9C97.73 89 97.53 89.06 97.35 89.14Z" fill="black"/>
<path d="M147.39 90.29C147.67 90.39 148.09 90.49 148.45 90.68C148.58 90.74 148.66 91.04 148.63 91.21C148.61 91.38 148.46 91.6 148.31 91.69C147.71 92.01 147.1 91.99 146.54 91.6C146.28 91.42 146.15 91.11 146.28 90.78C146.4 90.48 146.58 90.24 146.96 90.26C147.06 90.26 147.17 90.28 147.39 90.29Z" fill="black"/>
<path d="M111.37 114.11C111.47 114.13 111.57 114.14 111.67 114.17C111.96 114.25 112.23 114.34 112.35 114.67C112.47 115 112.26 115.48 111.88 115.67C111.21 116.02 110.48 115.8 110.06 115.12C109.85 114.78 110.08 114.23 110.46 114.15C110.56 114.13 110.66 114.1 110.76 114.1C110.96 114.1 111.16 114.1 111.36 114.1L111.37 114.11Z" fill="black"/>
<path d="M125.55 128.11C125.55 128.54 124.97 128.94 124.41 128.88C123.85 128.82 123.37 128.37 123.39 127.92C123.4 127.46 123.91 126.97 124.4 126.95C125.02 126.93 125.55 127.45 125.55 128.1V128.11Z" fill="black"/>
<path d="M122.17 91.39C122.23 91.95 121.78 92.43 121.24 92.41C120.68 92.38 120.27 92 120.19 91.43C120.12 90.92 120.58 90.42 121.14 90.4C121.69 90.39 122.12 90.79 122.18 91.39H122.17Z" fill="black"/>
<path d="M128.64 138.11C128.59 138.2 128.56 138.32 128.49 138.38C128.08 138.76 127.59 138.86 127.04 138.83C126.65 138.81 126.51 138.54 126.42 138.24C126.31 137.88 126.5 137.19 126.75 137.12C127.04 137.04 127.41 136.97 127.65 137.09C128.01 137.26 128.3 137.58 128.61 137.86C128.66 137.9 128.63 138.03 128.63 138.12L128.64 138.11Z" fill="black"/>
<path d="M127.12 111.85C126.98 110.97 127.6 110.36 128.38 110.47C128.73 110.52 129.09 111.01 129.02 111.34C128.9 111.95 128.28 112.42 127.69 112.28C127.45 112.22 127.26 111.96 127.12 111.85Z" fill="black"/>
<path d="M180.35 110.23C180.78 110.2 181.22 110.28 181.46 110.63C181.6 110.84 181.65 111.26 181.52 111.46C181.3 111.83 180.86 111.92 180.43 111.79C180.02 111.67 179.66 111.45 179.59 111C179.56 110.84 179.69 110.6 179.82 110.48C179.96 110.35 180.18 110.3 180.36 110.22L180.35 110.23Z" fill="black"/>
<path d="M141.92 51.44C141.89 51.88 141.57 52.25 141.16 52.31C140.7 52.38 140.13 51.9 140.06 51.39C139.99 50.9 140.49 50.39 141.02 50.38C141.54 50.38 141.96 50.87 141.92 51.43V51.44Z" fill="black"/>
<path d="M91.37 89.09C90.86 89.16 90.39 88.76 90.32 88.21C90.27 87.82 90.6 87.37 90.99 87.3C91.51 87.2 91.95 87.58 92.02 88.18C92.07 88.64 91.79 89.04 91.38 89.09H91.37Z" fill="black"/>
<path d="M131.2 94.11C131.61 94.14 132.11 94.7 132.13 95.15C132.15 95.64 131.65 96.2 131.23 96.16C130.8 96.12 130.33 95.59 130.29 95.12C130.26 94.66 130.78 94.07 131.19 94.1L131.2 94.11Z" fill="black"/>
<path d="M115.74 105.29C115.62 105.44 115.53 105.67 115.38 105.73C114.68 105.97 113.86 105.35 113.89 104.65C113.91 104.23 114.22 103.83 114.64 103.84C114.91 103.84 115.24 103.97 115.43 104.16C115.73 104.45 115.83 104.86 115.74 105.29Z" fill="black"/>
<path d="M102.42 103.96C102.27 104.31 102.2 104.61 102.04 104.85C101.74 105.29 101.14 105.33 100.68 105.01C100.28 104.72 100.29 104.07 100.69 103.66C101.01 103.33 101.42 103.22 101.82 103.35C102.05 103.43 102.21 103.74 102.42 103.96Z" fill="black"/>
<path d="M88.82 104.01C88.77 104.77 88.27 105.26 87.68 105.16C87.32 105.1 87.01 104.64 87.03 104.22C87.05 103.7 87.53 103.23 88.03 103.23C88.44 103.23 88.85 103.63 88.82 104.01Z" fill="black"/>
<path d="M179.2 54.63C179.21 55 178.81 55.45 178.42 55.49C177.9 55.55 177.36 55.11 177.34 54.6C177.32 54.23 177.73 53.78 178.11 53.75C178.66 53.71 179.2 54.14 179.2 54.63Z" fill="black"/>
<path d="M115.3 84.51C115.24 85.05 114.67 85.52 114.22 85.4C113.74 85.28 113.45 84.73 113.54 84.14C113.61 83.68 114 83.34 114.41 83.39C114.93 83.45 115.36 83.99 115.31 84.51H115.3Z" fill="black"/>
<path d="M157.93 102.1C157.54 102.07 157.15 101.69 157.12 101.31C157.08 100.6 157.6 100.1 158.25 100.23C158.6 100.3 158.94 100.76 158.93 101.13C158.91 101.62 158.4 102.12 157.93 102.09V102.1Z" fill="black"/>
<path d="M125.65 121.37C125.67 121.87 125.27 122.32 124.73 122.41C124.35 122.47 123.9 122.09 123.91 121.71C123.92 121.17 124.33 120.69 124.8 120.64C125.16 120.61 125.65 121.01 125.65 121.37Z" fill="black"/>
<path d="M141.64 137.1C141.79 137.22 141.99 137.31 142.09 137.47C142.31 137.83 142.35 138.24 142.14 138.61C142.06 138.75 141.84 138.88 141.67 138.9C141.21 138.95 140.93 138.67 140.75 138.27C140.6 137.95 140.75 137.41 141.07 137.21C141.22 137.12 141.45 137.13 141.64 137.1Z" fill="black"/>
<path d="M124.99 101.36C124.99 101.7 124.52 102.12 124.16 102.11C123.7 102.11 123.29 101.56 123.35 101.03C123.4 100.63 123.82 100.22 124.15 100.25C124.6 100.3 125.01 100.84 124.99 101.35V101.36Z" fill="black"/>
<path d="M161.42 98.9C160.84 98.86 160.45 98.4 160.57 97.88C160.67 97.45 161.06 97.14 161.45 97.18C161.98 97.24 162.36 97.71 162.31 98.25C162.28 98.64 161.87 98.93 161.42 98.9Z" fill="black"/>
<path d="M82.0701 91.07C82.0101 91.37 82.0001 91.57 81.9401 91.76C81.7901 92.22 81.4201 92.45 81.0201 92.37C80.6401 92.3 80.3101 91.9 80.3101 91.5C80.3101 90.88 80.9901 90.28 81.5601 90.49C81.7901 90.57 81.9401 90.9 82.0801 91.07H82.0701Z" fill="black"/>
<path d="M164.2 86.93C164.72 86.98 165.15 87.48 165.12 87.99C165.1 88.34 164.65 88.68 164.21 88.68C163.65 88.68 163.21 88.18 163.31 87.66C163.39 87.26 163.83 86.89 164.19 86.93H164.2Z" fill="black"/>
<path d="M75.55 84.88C75.54 85.3 75.18 85.69 74.78 85.69C74.27 85.7 73.8 85.24 73.8 84.72C73.8 84.31 74.2101 83.87 74.5601 83.9C75.0601 83.94 75.56 84.44 75.55 84.88Z" fill="black"/>
<path d="M88.13 84.51C88.07 84.97 87.6 85.37 87.08 85.38C86.74 85.38 86.36 84.92 86.42 84.55C86.5 84.04 86.98 83.62 87.44 83.66C87.79 83.69 88.17 84.16 88.13 84.51Z" fill="black"/>
<path d="M181.18 84.09C181.52 84.24 181.82 84.33 182.06 84.5C182.41 84.76 182.44 85.23 182.17 85.6C181.94 85.92 181.63 85.86 181.33 85.77C181.14 85.71 180.94 85.6 180.79 85.46C180.56 85.25 180.31 84.97 180.51 84.66C180.65 84.43 180.93 84.29 181.17 84.1L181.18 84.09Z" fill="black"/>
<path d="M155.35 78.51C155.27 78.9 154.85 79.15 154.41 79.07C153.91 78.97 153.61 78.39 153.82 77.88C153.94 77.58 154.2 77.39 154.53 77.43C155.06 77.5 155.45 78.04 155.35 78.52V78.51Z" fill="black"/>
<path d="M104.63 94.18C104.74 94.18 104.84 94.18 104.95 94.2C105.42 94.28 105.83 94.62 105.82 94.98C105.82 95.16 105.71 95.39 105.57 95.52C105.23 95.82 104.81 95.88 104.4 95.66C104.22 95.56 104.07 95.41 103.93 95.26C103.71 95.02 103.77 94.61 104.06 94.43C104.24 94.33 104.44 94.26 104.63 94.18Z" fill="black"/>
<path d="M118.29 81.4C118.22 81.65 118.21 81.88 118.1 82.01C118 82.13 117.75 82.23 117.61 82.19C117.07 82.04 116.84 81.59 116.73 81.08C116.66 80.77 116.73 80.47 117 80.28C117.31 80.07 117.86 80.23 118.02 80.59C118.14 80.86 118.21 81.15 118.28 81.39L118.29 81.4Z" fill="black"/>
<path d="M161.36 103.6C161.46 103.61 161.57 103.61 161.66 103.64C162.04 103.77 162.23 104.17 162.13 104.65C162.07 104.97 161.88 105.2 161.54 105.27C161.08 105.36 160.65 105.13 160.57 104.75C160.47 104.26 160.84 103.71 161.35 103.6H161.36Z" fill="black"/>
<path d="M145.85 117.07C146.92 116.46 147.68 116.64 148.05 117.62C148.11 117.78 148.05 118.02 147.97 118.19C147.87 118.44 147.42 118.49 147.19 118.27C146.75 117.85 146.34 117.4 145.91 116.98C145.9 116.99 145.85 117.07 145.85 117.07Z" fill="black"/>
<path d="M141.48 118.96C140.98 118.87 140.47 118.15 140.72 117.8C140.88 117.57 141.18 117.38 141.45 117.32C141.83 117.24 142.25 117.72 142.24 118.11C142.24 118.52 141.79 119.01 141.48 118.96Z" fill="black"/>
<path d="M118.8 41.15C118.75 41.67 118.21 42.08 117.71 42C117.34 41.94 116.97 41.52 116.95 41.13C116.93 40.65 117.45 40.26 118.04 40.32C118.45 40.36 118.83 40.78 118.79 41.15H118.8Z" fill="black"/>
<path d="M174.25 109.88C174.74 109.84 175.25 110.27 175.27 110.75C175.28 111.1 174.92 111.52 174.55 111.6C174.06 111.71 173.57 111.28 173.57 110.74C173.57 110.33 173.9 109.89 174.25 109.87V109.88Z" fill="black"/>
<path d="M101.48 119.19C100.97 119.25 100.45 118.82 100.45 118.35C100.45 118 100.83 117.55 101.18 117.51C101.66 117.46 102.18 117.89 102.22 118.37C102.24 118.71 101.86 119.15 101.49 119.19H101.48Z" fill="black"/>
<path d="M108.03 119.02C107.35 119.02 106.97 118.73 106.78 118.2C106.65 117.82 106.94 117.38 107.34 117.31C107.78 117.24 108.19 117.33 108.43 117.66C108.58 117.87 108.63 118.25 108.55 118.49C108.47 118.73 108.17 118.89 108.03 119.02Z" fill="black"/>
<path d="M100.71 85.52C100.2 85.57 99.79 85.29 99.82 84.91C99.86 84.44 100.15 84.11 100.55 84.07C100.98 84.02 101.44 84.34 101.44 84.71C101.44 85.17 101.17 85.48 100.71 85.52Z" fill="black"/>
<path d="M113.36 57.93C113.41 57.55 113.85 57.24 114.27 57.29C114.56 57.32 114.87 57.64 114.87 57.91C114.87 58.33 114.52 58.71 114.11 58.72C113.7 58.73 113.3 58.32 113.36 57.93Z" fill="black"/>
<path d="M160.99 57C161.37 57 161.77 57.47 161.73 57.84C161.69 58.22 161.2 58.57 160.82 58.47C160.5 58.38 160.27 58.17 160.25 57.82C160.23 57.4 160.61 56.99 161 57H160.99Z" fill="black"/>
<path d="M73.8099 72.23C73.3899 72.18 73.0299 71.77 73.0699 71.4C73.1299 70.88 73.6399 70.46 74.1299 70.53C74.4899 70.58 74.8499 71.01 74.8699 71.41C74.8799 71.91 74.3699 72.31 73.8099 72.24V72.23Z" fill="black"/>
<path d="M151.78 61.21C151.73 61.84 151.11 62.3 150.51 62.14C150.27 62.08 150.03 61.67 150.08 61.42C150.21 60.81 150.87 60.47 151.49 60.74C151.63 60.8 151.69 61.04 151.78 61.2V61.21Z" fill="black"/>
<path d="M134.52 77.4C134.87 77.4 135.34 77.84 135.34 78.17C135.34 78.5 134.85 78.94 134.52 78.93C134.19 78.92 133.69 78.45 133.69 78.16C133.69 77.87 134.21 77.41 134.53 77.4H134.52Z" fill="black"/>
<path d="M115.18 78.09C115.23 78.51 114.88 78.97 114.51 78.98C114.05 78.98 113.66 78.69 113.61 78.29C113.56 77.89 113.92 77.43 114.29 77.41C114.75 77.39 115.14 77.68 115.19 78.09H115.18Z" fill="black"/>
<path d="M88.4 44.41C88.4 44.83 88.04 45.28 87.69 45.3C87.14 45.33 86.75 44.89 86.81 44.3C86.85 43.87 87.22 43.54 87.65 43.56C88.02 43.57 88.4 44.01 88.4 44.42V44.41Z" fill="black"/>
<path d="M84.8199 94.73C84.6599 95.09 84.1399 95.27 83.8199 95.08C83.3999 94.83 83.2299 94.44 83.3899 94.08C83.5499 93.71 84.0599 93.52 84.3799 93.73C84.7999 94 84.9799 94.38 84.8199 94.73Z" fill="black"/>
<path d="M128.31 124.5C128.26 124.66 128.26 124.8 128.2 124.84C127.96 125.01 127.72 125.23 127.45 125.28C127.12 125.33 126.62 124.84 126.62 124.51C126.62 124.33 126.74 124.11 126.87 123.99C127.1 123.78 127.42 123.67 127.7 123.88C127.93 124.05 128.12 124.3 128.3 124.49L128.31 124.5Z" fill="black"/>
<path d="M127.14 98.75C127.02 98.6 126.77 98.41 126.69 98.16C126.59 97.83 127.06 97.39 127.42 97.38C127.79 97.37 128.19 97.8 128.15 98.16C128.11 98.55 127.7 98.82 127.13 98.74L127.14 98.75Z" fill="black"/>
<path d="M171.42 88.27C171.39 88.37 171.39 88.48 171.33 88.57C171.13 88.88 170.56 89 170.24 88.8C169.9 88.6 169.63 87.93 169.86 87.77C170.09 87.6 170.41 87.5 170.69 87.49C171.17 87.48 171.45 87.83 171.41 88.27H171.42Z" fill="black"/>
<path d="M78.6 87.97C78.51 88.15 78.46 88.4 78.31 88.48C78.02 88.65 77.48 88.42 77.21 88.08C76.92 87.71 76.91 87.26 77.2 86.95C77.42 86.71 77.82 86.69 78.02 86.89C78.31 87.19 78.6 87.5 78.6 87.96V87.97Z" fill="black"/>
<path d="M126.99 104.38C126.98 103.94 127.26 103.52 127.63 103.47C128.14 103.39 128.6 103.84 128.55 104.39C128.52 104.79 128.14 105.17 127.75 105.18C127.37 105.19 127 104.8 126.99 104.38Z" fill="black"/>
<path d="M98.3 101.33C98.25 101.85 97.85 102.31 97.52 102.33C97.19 102.35 96.75 101.84 96.79 101.47C96.84 101.06 97.26 100.72 97.7 100.84C97.95 100.91 98.14 101.19 98.3 101.32V101.33Z" fill="black"/>
<path d="M144.98 101.66C144.93 102.18 144.39 102.61 143.91 102.51C143.51 102.43 143.23 101.98 143.33 101.59C143.44 101.18 143.78 100.9 144.21 100.85C144.56 100.82 145 101.28 144.97 101.65L144.98 101.66Z" fill="black"/>
<path d="M170.59 115.84C170.46 115.68 170.19 115.5 170.13 115.25C169.99 114.75 170.37 114.34 170.95 114.27C171.23 114.24 171.51 114.5 171.54 114.82C171.6 115.39 171.27 115.79 170.59 115.84Z" fill="black"/>
<path d="M107.68 104.33C108.04 104.26 108.46 104.6 108.5 105C108.53 105.41 108.2 105.83 107.83 105.81C107.5 105.79 107.3 105.57 107.2 105.27C107.06 104.85 107.3 104.4 107.68 104.33Z" fill="black"/>
<path d="M171.17 54.92C170.83 54.86 170.61 54.57 170.67 54.27C170.77 53.81 171.08 53.59 171.56 53.66C171.89 53.71 172.12 54 172.05 54.3C171.94 54.78 171.63 55 171.16 54.92H171.17Z" fill="black"/>
<path d="M144.06 40.81C144.25 40.94 144.59 41.05 144.71 41.28C144.9 41.64 144.3 42.23 143.79 42.23C143.5 42.23 143.23 41.96 143.2 41.66C143.17 41.33 143.6 40.88 144.05 40.81H144.06Z" fill="black"/>
<path d="M145.19 107.87C145.19 108.23 144.75 108.69 144.4 108.69C144.05 108.69 143.68 108.28 143.64 107.85C143.6 107.42 143.98 107.02 144.38 107.07C144.8 107.11 145.19 107.5 145.19 107.87Z" fill="black"/>
<path d="M177.22 113.89C177.8 113.83 178.25 114.15 178.29 114.53C178.33 114.92 177.93 115.33 177.5 115.33C177.08 115.33 176.66 114.94 176.76 114.51C176.82 114.25 177.1 114.05 177.22 113.89Z" fill="black"/>
<path d="M161.99 124.77C161.87 124.89 161.71 125.15 161.48 125.24C161.21 125.35 160.88 125.02 160.86 124.72C160.84 124.43 161.07 124.16 161.38 124.11C161.69 124.06 161.98 124.32 161.99 124.77Z" fill="black"/>
<path d="M107.84 125.33C107.46 125.42 106.99 125.06 106.96 124.65C106.93 124.25 107.36 123.71 107.7 123.82C107.97 123.9 108.24 124.14 108.39 124.38C108.6 124.71 108.27 125.23 107.85 125.33H107.84Z" fill="black"/>
<path d="M164.9 121.21C164.77 121.36 164.64 121.64 164.41 121.76C164.01 121.97 163.59 121.7 163.51 121.26C163.44 120.9 163.66 120.68 163.95 120.55C164.36 120.37 164.72 120.59 164.89 121.21H164.9Z" fill="black"/>
<path d="M151.44 100.4C151.61 100.48 151.84 100.52 151.94 100.66C152.21 101.03 152.14 101.4 151.82 101.76C151.52 102.09 151.13 102.17 150.74 101.91C150.6 101.81 150.48 101.57 150.5 101.41C150.56 100.79 150.83 100.53 151.44 100.41V100.4Z" fill="black"/>
<path d="M74 98.38C73.53 98.4 73.16 98.13 73.1 97.72C73.04 97.28 73.42 96.87 73.81 96.93C74.22 97 74.51 97.32 74.59 97.78C74.63 98.05 74.32 98.37 74 98.39V98.38Z" fill="black"/>
<path d="M75.36 77.85C75.23 78 75.13 78.2 74.97 78.28C74.81 78.36 74.57 78.37 74.39 78.31C74.13 78.23 73.97 77.76 74.14 77.55C74.26 77.4 74.45 77.26 74.63 77.23C74.8 77.19 75.02 77.25 75.2 77.32C75.44 77.41 75.49 77.61 75.36 77.84V77.85Z" fill="black"/>
<path d="M181.48 78.16C181.41 78.69 181.05 79.02 180.64 79.03C180.33 79.03 180.03 78.72 180.07 78.42C180.13 77.98 180.48 77.59 180.87 77.68C181.12 77.73 181.32 78.02 181.49 78.16H181.48Z" fill="black"/>
<path d="M102.02 91.56C102.06 91.94 101.72 92.35 101.33 92.41C100.89 92.47 100.48 92.16 100.47 91.78C100.47 91.32 100.76 90.95 101.14 90.91C101.53 90.87 101.99 91.21 102.02 91.57V91.56Z" fill="black"/>
<path d="M137.93 62.6C137.4 62.6 137.05 62.24 137.06 61.81C137.06 61.38 137.48 60.96 137.81 61.04C138.18 61.12 138.48 61.55 138.38 62C138.32 62.25 138.06 62.45 137.93 62.61V62.6Z" fill="black"/>
<path d="M111.36 87.69C111.28 87.87 111.24 88.09 111.12 88.23C110.93 88.45 110.61 88.36 110.34 88.08C110.12 87.84 110.04 87.56 110.21 87.27C110.41 86.92 110.92 87 111.22 87.42C111.28 87.5 111.31 87.6 111.36 87.7V87.69Z" fill="black"/>
<path d="M125.45 75.06C125.41 75.15 125.39 75.28 125.31 75.33C125.14 75.44 124.95 75.59 124.77 75.59C124.39 75.59 124 75.08 124.07 74.71C124.11 74.54 124.26 74.33 124.42 74.25C124.89 74.02 125.51 74.52 125.45 75.06Z" fill="black"/>
<path d="M177.52 102.11C177.34 101.82 177.11 101.6 177.09 101.36C177.07 101.05 177.35 100.85 177.66 100.82C178.05 100.79 178.49 101.32 178.28 101.6C178.13 101.8 177.83 101.91 177.52 102.11Z" fill="black"/>
<path d="M97.69 121.19C98.11 121.15 98.46 121.49 98.45 121.97C98.45 122.3 98.26 122.54 97.93 122.62C97.56 122.71 97.24 122.35 97.18 121.82C97.14 121.51 97.38 121.22 97.7 121.19H97.69Z" fill="black"/>
<path d="M167.82 78.44C167.65 78.36 167.41 78.33 167.33 78.2C167.12 77.84 167.23 77.35 167.56 77.16C167.71 77.07 168.03 77.02 168.08 77.09C168.23 77.32 168.35 77.6 168.38 77.87C168.41 78.18 168.16 78.39 167.82 78.44Z" fill="black"/>
<path d="M161.07 77.34C161.35 77.56 161.62 77.69 161.76 77.9C161.96 78.21 161.58 78.68 161.18 78.68C160.9 78.68 160.53 78.36 160.61 78.11C160.68 77.86 160.88 77.65 161.08 77.34H161.07Z" fill="black"/>
<path d="M145.07 88.52C144.96 89.08 144.43 89.28 144.15 88.97C143.97 88.77 143.84 88.47 143.8 88.2C143.75 87.85 144.04 87.7 144.34 87.61C144.58 87.53 144.75 87.6 144.84 87.83C144.94 88.1 145.02 88.38 145.07 88.53V88.52Z" fill="black"/>
<path d="M95.1 84.34C95.05 84.82 94.53 85.21 94.25 85.04C94.11 84.95 93.99 84.72 93.98 84.55C93.95 83.99 94.29 83.62 94.61 83.82C94.83 83.95 94.97 84.2 95.1 84.34Z" fill="black"/>
<path d="M103.73 87.48C103.78 86.96 104.32 86.54 104.57 86.72C104.85 86.92 104.86 87.24 104.82 87.55C104.77 87.93 104.47 88.18 104.22 88.01C104 87.86 103.85 87.62 103.73 87.48Z" fill="black"/>
<path d="M107.93 91.06C108.22 91.19 108.43 91.24 108.56 91.37C108.68 91.5 108.78 91.72 108.76 91.89C108.74 92.05 108.59 92.27 108.44 92.34C107.97 92.56 107.35 92.11 107.45 91.59C107.49 91.38 107.78 91.22 107.93 91.06Z" fill="black"/>
<path d="M158.64 128.39C158.61 128.47 158.6 128.59 158.55 128.61C158.38 128.69 158.17 128.81 158.01 128.77C157.61 128.69 157.22 128.51 157.19 128.03C157.19 127.89 157.37 127.65 157.49 127.62C157.98 127.53 158.49 127.9 158.64 128.38V128.39Z" fill="black"/>
<path d="M87.8 110.69C87.93 110.8 88.03 110.85 88.09 110.93C88.28 111.21 88.33 111.54 88.09 111.76C87.88 111.95 87.56 112.03 87.28 112.13C87.22 112.15 87.09 112.04 87.04 111.96C86.85 111.68 86.86 111.35 87.07 111.13C87.27 110.93 87.57 110.82 87.81 110.69H87.8Z" fill="black"/>
<path d="M108.12 98.55C108.02 98.71 107.94 98.97 107.81 99.01C107.67 99.05 107.43 98.91 107.31 98.78C107.19 98.65 107.1 98.42 107.12 98.25C107.14 98.09 107.29 97.86 107.43 97.82C107.57 97.78 107.81 97.89 107.93 98.01C108.05 98.14 108.06 98.36 108.12 98.55Z" fill="black"/>
<path d="M81.5001 71.31C81.3101 71.62 81.2001 71.91 81.0001 72.09C80.9101 72.17 80.6201 72.07 80.4501 71.99C80.1101 71.84 80.1001 71.51 80.1601 71.21C80.2201 70.89 80.5301 70.64 80.8201 70.75C81.0601 70.84 81.2401 71.09 81.5001 71.32V71.31Z" fill="black"/>
<path d="M124.93 115.45C124.73 115.4 124.49 115.39 124.35 115.27C124.23 115.17 124.2 114.93 124.18 114.75C124.18 114.68 124.3 114.57 124.38 114.52C124.69 114.36 124.99 114.42 125.22 114.66C125.35 114.8 125.4 115.02 125.49 115.2C125.3 115.28 125.11 115.36 124.92 115.45H124.93Z" fill="black"/>
<path d="M158.09 88.07C158 88.23 157.94 88.47 157.81 88.54C157.54 88.68 157.17 88.44 157.17 88.12C157.17 87.95 157.3 87.71 157.44 87.63C157.68 87.48 158.03 87.74 158.1 88.07H158.09Z" fill="black"/>
<path d="M111.31 107.16C111.55 107.31 111.79 107.38 111.85 107.52C111.99 107.85 111.54 108.35 111.19 108.3C110.82 108.24 110.58 107.95 110.74 107.71C110.89 107.49 111.13 107.33 111.31 107.17V107.16Z" fill="black"/>
<path d="M124.89 54.5C124.73 54.59 124.57 54.75 124.4 54.77C124.11 54.79 123.95 54.36 124.18 54.13C124.29 54.02 124.57 53.94 124.68 54.01C124.8 54.09 124.82 54.33 124.89 54.51V54.5Z" fill="black"/>
<path d="M187.64 97.66C188.06 97.7 188.27 97.96 188.25 98.26C188.23 98.6 188.05 98.77 187.73 98.82C187.31 98.87 186.9 98.44 187.09 98.11C187.21 97.9 187.5 97.78 187.64 97.67V97.66Z" fill="black"/>
<path d="M183.99 101.35C184.12 101.23 184.25 101.03 184.39 101.02C184.72 101 184.89 101.28 184.83 101.67C184.82 101.76 184.68 101.91 184.64 101.9C184.45 101.84 184.26 101.74 184.1 101.63C184.03 101.58 184.03 101.44 184 101.35H183.99Z" fill="black"/>
<path d="M164.61 101.46C164.5 101.59 164.37 101.88 164.15 101.97C163.79 102.13 163.42 101.82 163.33 101.37C163.28 101.14 163.54 100.74 163.76 100.7C164.17 100.64 164.56 100.9 164.61 101.45V101.46Z" fill="black"/>
<path d="M90.55 100.75C90.74 100.94 90.98 101.1 91.1 101.32C91.15 101.41 91.01 101.71 90.88 101.78C90.5 101.98 90.08 101.65 90.15 101.2C90.17 101.06 90.37 100.94 90.55 100.75Z" fill="black"/>
<path d="M134.49 105.29C134.17 105.2 134.01 104.89 134.11 104.58C134.22 104.27 134.57 104.13 134.84 104.3C135.11 104.47 135.24 104.86 135.04 105.08C134.92 105.21 134.68 105.23 134.49 105.29Z" fill="black"/>
<path d="M174.2 118.01C174.36 118.23 174.55 118.37 174.56 118.52C174.59 118.94 174.14 119.22 173.76 119.05C173.54 118.95 173.46 118.73 173.61 118.54C173.77 118.34 174 118.19 174.2 118.01Z" fill="black"/>
<path d="M148.04 104.72C147.98 105.05 147.64 105.24 147.37 105.09C147.09 104.93 146.89 104.55 147.04 104.35C147.15 104.21 147.37 104.11 147.55 104.1C147.9 104.09 148.1 104.38 148.04 104.72Z" fill="black"/>
<path d="M140.6 78.15C140.88 78.06 141.08 77.91 141.24 77.95C141.57 78.05 141.64 78.34 141.54 78.66C141.46 78.93 141.26 79.02 141.06 78.83C140.87 78.65 140.76 78.39 140.6 78.15Z" fill="black"/>
<path d="M117.29 74.18C117.59 74.13 117.93 74.42 117.85 74.7C117.81 74.85 117.65 75.01 117.5 75.09C117.28 75.21 117.11 75.11 117.03 74.87C116.91 74.52 117.01 74.23 117.28 74.19L117.29 74.18Z" fill="black"/>
<path d="M171.48 61.24C171.38 61.62 171.1 61.81 170.83 61.69C170.58 61.58 170.37 61.16 170.45 60.95C170.54 60.74 170.94 60.62 171.25 60.74C171.48 60.83 171.56 61.01 171.48 61.23V61.24Z" fill="black"/>
<path d="M111.53 61.08C111.7 61.46 111.5 61.74 111.11 61.84C110.88 61.9 110.7 61.84 110.61 61.6C110.49 61.3 110.62 60.8 110.83 60.82C111.09 60.84 111.35 61.01 111.52 61.08H111.53Z" fill="black"/>
<path d="M91.23 95.18C91.06 95.49 90.65 95.6 90.5 95.34C90.42 95.2 90.42 94.93 90.52 94.82C90.62 94.7 90.88 94.62 91.04 94.66C91.28 94.72 91.32 94.95 91.23 95.18Z" fill="black"/>
<path d="M161.35 91.36C161.26 91.52 161.2 91.76 161.06 91.81C160.78 91.92 160.36 91.66 160.39 91.41C160.42 91.23 160.55 91.02 160.7 90.92C160.95 90.75 161.27 90.98 161.35 91.35V91.36Z" fill="black"/>
<path d="M168.27 91.29C168.16 91.42 168.06 91.62 167.92 91.66C167.62 91.74 167.3 91.34 167.48 91.1C167.58 90.97 167.82 90.85 167.97 90.88C168.09 90.9 168.17 91.15 168.27 91.3V91.29Z" fill="black"/>
<path d="M178.03 80.59C178.22 80.78 178.43 80.9 178.43 81.01C178.43 81.17 178.3 81.42 178.16 81.46C178.02 81.51 177.82 81.36 177.64 81.3C177.76 81.07 177.89 80.85 178.03 80.59Z" fill="black"/>
<path d="M95.02 91.02C94.89 91.29 94.86 91.52 94.72 91.62C94.43 91.83 94.07 91.69 94.05 91.38C94.04 91.2 94.17 90.87 94.25 90.86C94.49 90.84 94.74 90.95 95.01 91.02H95.02Z" fill="black"/>
<path d="M147.41 125.42C147.28 125.32 147.09 125.24 147.03 125.1C146.92 124.84 147.22 124.5 147.52 124.56C147.66 124.59 147.83 124.74 147.89 124.88C148.01 125.15 147.73 125.44 147.41 125.42Z" fill="black"/>
<path d="M84.58 47.25C84.82 47.5 85.05 47.65 85.17 47.86C85.28 48.07 84.99 48.47 84.76 48.5C84.36 48.56 83.88 48.19 84.01 47.86C84.09 47.65 84.34 47.49 84.59 47.24L84.58 47.25Z" fill="black"/>
<path d="M141.71 44.53C141.36 44.74 141.15 44.94 140.89 45.01C140.66 45.08 140.38 44.72 140.39 44.44C140.39 44.16 140.74 43.86 141 43.97C141.23 44.07 141.41 44.28 141.71 44.53Z" fill="black"/>
<path d="M81.53 111.27C81.32 111.45 81.19 111.66 81.02 111.69C80.72 111.75 80.4 111.45 80.42 111.15C80.43 110.97 80.57 110.79 80.69 110.63C80.73 110.57 80.93 110.54 80.96 110.58C81.16 110.8 81.34 111.04 81.53 111.27Z" fill="black"/>
<path d="M160.79 84.3C160.93 84.4 161.11 84.47 161.19 84.6C161.33 84.83 160.93 85.11 160.65 84.95C160.52 84.87 160.45 84.67 160.36 84.52C160.5 84.45 160.65 84.37 160.8 84.3H160.79Z" fill="black"/>
<path d="M150.37 88.26C150.51 87.95 150.86 87.77 151.03 87.95C151.14 88.07 151.18 88.31 151.14 88.48C151.08 88.71 150.87 88.75 150.64 88.68C150.4 88.6 150.3 88.48 150.37 88.27V88.26Z" fill="black"/>
<path d="M77.2 75.02C77.12 74.86 76.98 74.7 76.98 74.55C76.99 74.25 77.3 74.13 77.6 74.29C77.79 74.39 77.84 74.56 77.67 74.74C77.55 74.87 77.36 74.93 77.2 75.02Z" fill="black"/>
<path d="M131.58 101.19C131.49 101.35 131.43 101.57 131.3 101.67C131.11 101.81 130.7 101.51 130.71 101.23C130.71 101.08 130.86 100.87 130.99 100.81C131.27 100.68 131.57 100.9 131.58 101.2V101.19Z" fill="black"/>
<path d="M84.39 101.11C84.41 101.19 84.48 101.29 84.45 101.35C84.35 101.58 84.2 101.59 84.09 101.38C84.06 101.32 84.1 101.19 84.16 101.14C84.2 101.1 84.31 101.11 84.39 101.11Z" fill="black"/>
<path d="M74.49 90.88C74.33 90.98 74.16 91.17 74.01 91.16C73.71 91.13 73.62 90.81 73.76 90.42C73.79 90.34 73.87 90.26 73.95 90.23C74.17 90.13 74.53 90.57 74.49 90.88Z" fill="black"/>
<path d="M179.11 94.57C178.98 94.82 178.94 95.03 178.82 95.09C178.66 95.16 178.43 95.16 178.26 95.09C178.09 95.03 177.97 94.85 177.82 94.73C177.98 94.62 178.13 94.43 178.29 94.42C178.54 94.4 178.81 94.51 179.12 94.57H179.11Z" fill="black"/>
<path d="M158.18 41.33C158.06 41.45 157.95 41.57 157.83 41.69C157.73 41.54 157.62 41.4 157.55 41.24C157.54 41.21 157.67 41.08 157.75 41.06C157.99 40.99 158.13 41.09 158.17 41.33H158.18Z" fill="black"/>
<path d="M111.21 41.46C111.08 41.68 110.9 41.74 110.67 41.63C110.44 41.52 110.37 41.33 110.49 41.1C110.61 40.88 110.8 40.81 111.03 40.92C111.25 41.03 111.31 41.23 111.21 41.46Z" fill="black"/>
<path d="M104.68 41.27C104.55 41.37 104.42 41.54 104.28 41.55C103.93 41.6 103.67 41.24 103.87 41.03C103.99 40.91 104.23 40.81 104.38 40.84C104.5 40.87 104.58 41.11 104.68 41.26V41.27Z" fill="black"/>
<path d="M114.32 31.35C114.14 31.29 113.89 31.29 113.81 31.17C113.73 31.04 113.81 30.8 113.86 30.62C113.87 30.56 114 30.5 114.08 30.5C114.34 30.48 114.67 30.92 114.57 31.16C114.54 31.24 114.41 31.29 114.33 31.35H114.32Z" fill="black"/>
<path d="M145.02 34.82C144.99 34.93 144.7 34.98 144.53 35.05C144.47 34.87 144.36 34.68 144.37 34.5C144.38 34.23 144.6 34.12 144.81 34.29C144.94 34.4 145.06 34.66 145.02 34.81V34.82Z" fill="black"/>
<path d="M154.8 71.83C154.71 71.81 154.59 71.83 154.53 71.78C154.24 71.55 154.23 71.23 154.51 71.1C154.59 71.06 154.71 71.05 154.78 71.08C154.99 71.2 154.99 71.71 154.8 71.83Z" fill="black"/>
<path d="M141.85 71.12C141.77 71.28 141.72 71.5 141.59 71.6C141.4 71.74 141.2 71.64 141.1 71.42C140.99 71.19 141.06 70.99 141.31 70.96C141.48 70.94 141.67 71.06 141.85 71.12Z" fill="black"/>
<path d="M81.64 51.52C81.51 51.76 81.02 51.86 80.87 51.64C80.78 51.51 80.79 51.27 80.84 51.11C80.91 50.9 81.15 50.86 81.34 51.03C81.48 51.15 81.54 51.36 81.64 51.52Z" fill="black"/>
<path d="M81.1099 57.88C81.0099 58.02 80.8999 58.15 80.7899 58.29C80.6699 58.16 80.5499 58.04 80.4399 57.91C80.4399 57.9 80.5399 57.77 80.6199 57.73C80.8399 57.6 81.0099 57.66 81.0999 57.89L81.1099 57.88Z" fill="black"/>
<path d="M130.59 108.42L130.74 108.27L130.77 108.44L130.59 108.42Z" fill="black"/>
<path d="M124.2 108.58C123.96 108.62 123.77 108.51 123.8 108.29C123.82 108.15 124.03 108.03 124.17 107.93C124.2 107.91 124.4 108.04 124.39 108.07C124.34 108.25 124.26 108.42 124.19 108.59L124.2 108.58Z" fill="black"/>
<path d="M164.81 115.13C164.63 115.21 164.43 115.37 164.26 115.34C164.02 115.3 163.98 115.07 164.05 114.83C164.13 114.57 164.31 114.45 164.53 114.61C164.67 114.72 164.72 114.95 164.81 115.13Z" fill="black"/>
<path d="M178.55 108.12C178.49 108.18 178.41 108.31 178.37 108.3C178.21 108.25 178.07 108.16 177.92 108.08C178.08 108.02 178.23 107.94 178.39 107.91C178.43 107.91 178.5 108.04 178.55 108.11V108.12Z" fill="black"/>
<path d="M164.82 108.02C164.73 108.14 164.66 108.3 164.54 108.38C164.33 108.53 164.14 108.44 164.13 108.19C164.13 108.06 164.26 107.81 164.33 107.81C164.49 107.81 164.64 107.93 164.81 108.01L164.82 108.02Z" fill="black"/>
<path d="M157.98 108.17C157.8 108.25 157.63 108.38 157.47 108.37C157.37 108.37 157.2 108.13 157.22 108.02C157.25 107.79 157.47 107.7 157.68 107.82C157.81 107.89 157.88 108.05 157.98 108.17Z" fill="black"/>
<path d="M111.17 121.46C111.1 121.52 111.04 121.62 110.97 121.62C110.74 121.62 110.67 121.5 110.79 121.3C110.82 121.25 110.96 121.23 111.03 121.26C111.09 121.28 111.12 121.39 111.16 121.46H111.17Z" fill="black"/>
<path d="M127.71 118.05C127.61 118.14 127.51 118.24 127.41 118.33C127.36 118.18 127.28 118.02 127.26 117.87C127.26 117.82 127.38 117.74 127.44 117.68C127.53 117.81 127.62 117.93 127.72 118.06L127.71 118.05Z" fill="black"/>
<path d="M96.9399 115.41C96.8599 115.28 96.7499 115.15 96.6999 115C96.6799 114.95 96.8299 114.79 96.8899 114.8C97.0699 114.82 97.2499 114.89 97.4099 114.96C97.4499 114.98 97.4799 115.16 97.4599 115.17C97.2899 115.26 97.1099 115.33 96.9299 115.41H96.9399Z" fill="black"/>
<path d="M150.65 114.95C150.73 114.71 150.91 114.59 151.03 114.72C151.14 114.83 151.15 115.06 151.16 115.23C151.16 115.29 150.99 115.42 150.93 115.4C150.68 115.34 150.59 115.17 150.65 114.94V114.95Z" fill="black"/>
<path d="M71.2599 87.76C71.2299 87.83 71.2099 87.95 71.1799 87.95C71.0999 87.95 71.0199 87.9 70.9399 87.87C70.9599 87.8 70.9899 87.68 71.0199 87.68C71.0999 87.68 71.1799 87.72 71.2599 87.75V87.76Z" fill="black"/>
<path d="M77.7399 94.09C77.8499 94.21 78.0299 94.33 78.0299 94.44C78.0199 94.58 77.8499 94.7 77.7499 94.83C77.6799 94.76 77.5399 94.68 77.5499 94.63C77.5799 94.45 77.6699 94.28 77.7499 94.09H77.7399Z" fill="black"/>
<path d="M88.27 90.97C88.19 91.13 88.1 91.28 88.01 91.44C87.89 91.35 87.73 91.28 87.65 91.16C87.52 90.95 87.62 90.75 87.87 90.75C88 90.75 88.13 90.9 88.26 90.98L88.27 90.97Z" fill="black"/>
<path d="M104.5 81.43C104.43 81.46 104.35 81.52 104.28 81.51C104.21 81.5 104.16 81.42 104.09 81.36C104.26 81.22 104.4 81.25 104.5 81.42V81.43Z" fill="black"/>
<path d="M84.8 81.33C84.66 81.43 84.53 81.6 84.38 81.61C84.28 81.61 84.16 81.41 84.05 81.3C84.12 81.24 84.21 81.11 84.26 81.12C84.44 81.16 84.62 81.26 84.79 81.33H84.8Z" fill="black"/>
<path d="M107.71 85.06C107.62 84.9 107.53 84.75 107.46 84.59C107.46 84.57 107.6 84.44 107.68 84.44C107.76 84.44 107.92 84.55 107.91 84.58C107.86 84.75 107.78 84.91 107.7 85.07L107.71 85.06Z" fill="black"/>
<path d="M84.23 107.83C84.31 107.95 84.38 108.07 84.45 108.19C84.29 108.23 84.13 108.29 83.97 108.29C83.91 108.29 83.85 108.16 83.78 108.09C83.93 108.01 84.08 107.92 84.23 107.84V107.83Z" fill="black"/>
<path d="M121.28 130.97C121.2 131.13 121.12 131.28 121.04 131.44C120.98 131.37 120.89 131.32 120.85 131.24C120.75 131.02 120.82 130.85 121.06 130.81C121.12 130.8 121.2 130.92 121.28 130.97Z" fill="black"/>
<path d="M144.45 68C144.3 68.12 144.19 68.28 144.04 68.32C143.98 68.34 143.76 68.1 143.77 68C143.79 67.78 143.99 67.71 144.23 67.8C144.32 67.83 144.38 67.93 144.46 68H144.45Z" fill="black"/>
<path d="M151 67.23C151.09 67.38 151.26 67.53 151.26 67.68C151.26 67.83 151.08 67.97 150.98 68.12C150.89 67.97 150.73 67.81 150.73 67.66C150.73 67.52 150.91 67.38 151.01 67.24L151 67.23Z" fill="black"/>
<path d="M97.61 68.48C97.37 68.41 97.25 68.24 97.32 68C97.34 67.92 97.48 67.82 97.56 67.83C97.83 67.85 97.94 68.02 97.83 68.28C97.8 68.37 97.68 68.42 97.6 68.48H97.61Z" fill="black"/>
<path d="M94.27 71.37C94.33 71.4 94.45 71.43 94.45 71.46C94.45 71.55 94.42 71.71 94.39 71.71C94.16 71.73 94.12 71.61 94.27 71.37Z" fill="black"/>
<path d="M161.09 38.25C161.04 38.18 160.94 38.1 160.95 38.03C160.99 37.75 161.13 37.68 161.29 37.86C161.35 37.92 161.37 38.06 161.34 38.14C161.31 38.2 161.18 38.22 161.1 38.25H161.09Z" fill="black"/>
<path d="M168.19 57.78C168.09 58.02 167.9 58.11 167.66 58.01C167.57 57.97 167.51 57.87 167.43 57.79C167.61 57.71 167.78 57.61 167.97 57.56C168.02 57.55 168.11 57.7 168.18 57.78H168.19Z" fill="black"/>
<path d="M91.41 54.39C91.48 54.67 91.39 54.82 91.13 54.83C91.05 54.83 90.9 54.68 90.91 54.66C90.99 54.5 91.1 54.35 91.2 54.2C91.27 54.27 91.34 54.33 91.4 54.38L91.41 54.39Z" fill="black"/>
<path d="M164.62 54.51C164.54 54.58 164.47 54.69 164.39 54.7C164.13 54.75 163.9 54.41 164 54.11C164.02 54.03 164.14 53.94 164.23 53.92C164.51 53.87 164.71 54.18 164.63 54.51H164.62Z" fill="black"/>
<path d="M174.43 64.81C174.41 64.72 174.37 64.63 174.38 64.55C174.38 64.52 174.5 64.5 174.57 64.48C174.59 64.57 174.63 64.66 174.63 64.75C174.63 64.77 174.5 64.79 174.42 64.81H174.43Z" fill="black"/>
<path d="M87.36 78.31C87.14 78.24 87.06 78.09 87.17 77.88C87.21 77.8 87.3 77.75 87.36 77.69C87.43 77.84 87.52 78 87.57 78.16C87.57 78.19 87.43 78.26 87.36 78.32V78.31Z" fill="black"/>
<path d="M187.99 78.04C188.23 78.14 188.33 78.33 188.2 78.55C188.12 78.68 187.94 78.75 187.81 78.85C187.73 78.67 187.59 78.49 187.6 78.31C187.6 78.22 187.85 78.13 187.99 78.04Z" fill="black"/>
<path d="M134.31 31.26L134.07 31.14L134.32 31.04L134.31 31.26Z" fill="black"/>
<path d="M127.38 51.54L127.34 51.37L127.49 51.4L127.38 51.54Z" fill="black"/>
<path d="M137.77 27.94C137.7 27.99 137.61 28.1 137.58 28.09C137.34 27.97 137.36 27.83 137.61 27.76C137.64 27.76 137.71 27.88 137.77 27.95V27.94Z" fill="black"/>
<path d="M174.49 98.12C174.42 98.08 174.36 98.04 174.29 98.01C174.36 97.91 174.43 97.81 174.51 97.71C174.57 97.78 174.64 97.85 174.7 97.92C174.63 97.98 174.56 98.05 174.49 98.11V98.12Z" fill="black"/>
<path d="M90.95 81.36L91.14 81.29L91.12 81.46L90.95 81.36Z" fill="black"/>
<path d="M188.02 91.54C187.95 91.6 187.88 91.72 187.81 91.72C187.74 91.72 187.68 91.6 187.61 91.53C187.68 91.46 187.75 91.35 187.82 91.35C187.89 91.35 187.95 91.47 188.02 91.54Z" fill="black"/>
<path d="M177.67 87.9L177.59 87.69L177.79 87.71L177.67 87.9Z" fill="black"/>
<path d="M164.37 60.94L164.42 61.12L164.26 61.08L164.37 60.94Z" fill="black"/>
<path d="M114.61 64.97L114.54 64.77L114.73 64.8L114.61 64.97Z" fill="black"/>
<path d="M154.74 64.68L154.81 64.85L154.64 64.84L154.74 64.68Z" fill="black"/>
<path d="M161.26 111.33C161.19 111.39 161.11 111.51 161.04 111.51C160.97 111.51 160.91 111.38 160.84 111.31C160.91 111.25 160.99 111.13 161.06 111.13C161.13 111.13 161.19 111.26 161.26 111.33Z" fill="black"/>
</g>
<defs>
<clipPath id="clip0_415_13">
<rect width="216.42" height="181.34" fill="white" transform="translate(13)"/>
</clipPath>
</defs>
</svg>
