<svg width="243" height="182" viewBox="0 0 243 182" fill="none" xmlns="http://www.w3.org/2000/svg">
<g clip-path="url(#clip0_449_1595)">
<path d="M167.399 63.5406C164.777 63.0712 163.025 60.5625 163.495 57.9343L164.439 52.6652C164.909 50.037 167.419 48.2784 170.047 48.749C176.554 49.9141 181.885 43.5961 179.638 37.3756C177.391 31.1552 169.257 29.7054 164.992 34.7533C164.02 35.9026 163.371 37.2934 163.105 38.7789C162.444 42.4344 158.067 44.0094 155.229 41.6012C153.921 40.4891 153.293 38.7648 153.596 37.0762C156.06 23.2409 172.58 17.2621 183.33 26.3088C194.079 35.3619 191.001 52.6581 177.782 57.4392C176.304 57.9739 174.768 58.3149 173.204 58.454L172.995 59.6221C172.525 62.244 170.023 63.9974 167.4 63.5343L167.399 63.5406Z" fill="#F39745"/>
<path d="M159.568 72.2218C158.724 76.8993 163.258 80.7382 167.726 79.1336C169.812 78.3868 171.334 76.5824 171.718 74.3974C172.563 69.7198 168.028 65.8809 163.561 67.4856C161.474 68.2324 159.952 70.0368 159.568 72.2218Z" fill="#F39745"/>
<path d="M163.979 64.7825C161.357 64.3131 159.605 61.8044 160.076 59.1762L161.019 53.9071C161.49 51.2789 163.999 49.5203 166.628 49.9909C173.135 51.156 178.466 44.838 176.218 38.6175C173.971 32.3971 165.838 30.9473 161.573 35.9952C160.6 37.1445 159.952 38.5353 159.686 40.0208C159.025 43.6763 154.648 45.2513 151.809 42.8431C150.502 41.7309 149.873 40.0067 150.176 38.318C152.64 24.4827 169.16 18.5039 179.91 27.5507C190.659 36.6037 187.582 53.9 174.362 58.6811C172.884 59.2158 171.349 59.5568 169.784 59.6959L169.575 60.864C169.105 63.4859 166.603 65.2393 163.98 64.7762L163.979 64.7825Z" stroke="black" stroke-width="2.90219" stroke-linecap="round" stroke-linejoin="round"/>
<path d="M156.141 73.4688C155.297 78.1464 159.831 81.9853 164.298 80.3807C166.385 79.6338 167.907 77.8294 168.291 75.6445C169.135 70.9669 164.601 67.128 160.134 68.7326C158.047 69.4795 156.525 71.2839 156.141 73.4688Z" stroke="black" stroke-width="2.90219" stroke-linecap="round" stroke-linejoin="round"/>
<path d="M151.706 86.8531C151.706 86.8531 151.705 86.8594 151.699 86.8583C151.683 86.8751 151.659 86.8971 151.648 86.9213L151.672 86.8993L151.689 86.8762L151.729 86.8375C151.729 86.8375 151.714 86.8479 151.706 86.8531ZM139.504 91.921C139.504 91.921 139.495 91.9326 139.486 91.9442L139.484 91.9569L139.754 92.1298C139.79 92.1493 139.797 92.1504 139.803 92.1516L139.605 91.8279C139.569 91.8476 139.531 91.88 139.504 91.921ZM139.473 91.9811L139.475 91.9684L139.478 91.9557C139.478 91.9557 139.459 91.9852 139.456 92.0042L139.46 91.9788L139.473 91.9811ZM139.426 92.0972C139.426 92.0972 139.419 92.1024 139.418 92.1088L139.414 92.1278C139.406 92.1722 139.405 92.2178 139.408 92.2709L139.456 92.0042C139.456 92.0042 139.447 92.0158 139.451 92.0296C139.435 92.0464 139.431 92.0718 139.426 92.0972Z" fill="#010101"/>
<path d="M229.675 57.355C229.654 56.2637 229.53 55.7108 229.435 55.6937C229.531 55.6716 229.65 55.1163 229.643 54.0209C229.618 52.9157 229.509 51.219 228.931 49.0648C228.277 46.5365 227.255 44.1194 225.985 41.8477C223.884 38.0646 221.084 34.7132 217.98 31.7398C214.871 28.7589 211.411 26.1608 207.786 23.8672C200.515 19.2828 192.553 15.8523 184.325 13.4291C176.092 11.0376 167.537 9.60395 158.939 9.61082C154.641 9.61425 150.327 9.95575 146.114 10.8721C141.91 11.7769 137.763 13.308 134.209 15.8164C130.587 18.2211 127.811 21.9827 126.723 26.23C125.609 30.4728 125.939 34.9217 126.805 39.1257C128.633 47.5774 132.387 55.3715 135.784 63.1867C136.627 65.1394 137.446 67.1141 138.184 69.1005C138.55 70.0963 138.881 71.0991 139.151 72.1171C139.415 73.1339 139.662 74.1675 139.695 75.1891C140.009 79.3992 139.604 83.7099 138.035 87.6089C137.837 88.0911 137.62 88.5699 137.378 89.0442L137.018 89.7396C136.892 89.9661 136.749 90.1828 136.622 90.4485C136.053 91.467 135.984 92.8043 136.486 93.8834C136.959 94.9706 137.932 95.8327 139.081 96.1498C139.653 96.3178 140.266 96.3358 140.847 96.2368C141.13 96.1956 141.441 96.1008 141.689 96.0009L142.449 95.7047C146.48 94.0153 149.79 90.9716 152.262 87.4439C152.239 87.4659 152.223 87.4827 152.2 87.4983L152.256 87.4428C152.256 87.4428 152.238 87.433 152.227 87.4244L152.258 87.4301L152.288 87.4093L152.301 87.3394L152.266 87.3136L152.264 87.3263C152.244 87.3621 152.239 87.4267 152.242 87.414C152.243 87.4077 152.215 87.3045 152.148 87.24L152.266 87.3136L152.364 87.1345L152.361 87.1472L152.364 87.1674L152.307 87.3406L152.326 87.344C152.326 87.344 152.351 87.3156 152.353 87.3029L152.345 87.3474C152.345 87.3474 152.338 87.3526 152.337 87.3589L152.324 87.3567C152.324 87.3567 152.313 87.3809 152.297 87.3977C152.296 87.4041 152.289 87.4029 152.288 87.4093L152.275 87.4462L152.262 87.4439C153 87.9363 153.753 88.4119 154.525 88.8581L155.693 89.5454L156.891 90.1727C158.493 90.9968 160.08 91.8641 161.744 92.5617C165.052 93.9927 168.487 95.1516 172.015 95.9405C175.534 96.741 179.142 97.1905 182.762 97.2096C186.381 97.2351 189.999 96.7888 193.509 95.917C197.035 95.0348 200.41 93.7521 203.629 92.055C205.219 91.2259 206.77 90.2457 208.257 89.2605C209.725 88.2327 211.207 87.1287 212.579 85.9788C212.919 85.6924 213.275 85.422 213.605 85.1143L214.601 84.1984C215.261 83.5893 215.946 82.9846 216.574 82.3305C217.2 81.6891 217.823 81.0276 218.43 80.3827C219.029 79.7039 219.648 79.0285 220.229 78.3463C221.429 77.0215 222.459 75.5155 223.548 74.0791C224.639 72.6364 225.549 71.0632 226.394 69.4585C227.564 67.2045 228.465 64.8041 229.066 62.3302C229.586 60.1564 229.691 58.4717 229.675 57.355ZM139.418 92.1087L139.426 92.0971C139.431 92.0717 139.435 92.0463 139.451 92.0295C139.447 92.0157 139.455 92.0105 139.462 92.0053C139.466 91.9862 139.475 91.9683 139.484 91.9568L139.486 91.9441C139.486 91.9441 139.496 91.9262 139.504 91.921C139.531 91.8799 139.569 91.8475 139.605 91.8278L139.803 92.1515C139.803 92.1515 139.79 92.1492 139.755 92.1297L139.484 91.9568L139.482 91.9695C139.482 91.9695 139.481 91.9758 139.48 91.9822L139.475 92.0076L139.455 92.0434L139.415 92.2719C139.411 92.2189 139.413 92.1733 139.421 92.1288L139.424 92.1098L139.418 92.1087ZM216.957 75.9456C215.394 77.7622 213.741 79.4908 211.984 81.1089C207.816 84.9555 203.045 88.1831 197.785 90.2946C192.537 92.421 186.825 93.3639 181.169 93.1177C175.508 92.8641 169.91 91.5211 164.657 89.3945C162.014 88.3448 159.497 86.9966 157.017 85.6286C156.406 85.2703 155.795 84.9119 155.202 84.5305L154.284 83.9469C153.938 83.7603 153.57 83.5831 153.186 83.4947C152.407 83.3093 151.584 83.3652 150.84 83.6446C150.468 83.7812 150.111 83.9794 149.799 84.2248C149.639 84.347 149.49 84.4841 149.358 84.6373L149.155 84.8565L148.977 85.0802C147.795 86.7816 146.399 88.3203 144.798 89.6127C144.001 90.2563 143.145 90.8302 142.245 91.3177C141.8 91.5722 141.313 91.7338 140.848 91.952L140.266 92.2016C140.266 92.2016 140.244 92.2501 140.227 92.2732C140.227 92.2732 140.215 92.3038 140.207 92.309L140.197 92.3269C140.194 92.346 140.192 92.3587 140.19 92.3714L140.171 92.4008L140.158 92.3986C140.157 92.4049 140.156 92.4113 140.142 92.4153C140.124 92.4448 140.099 92.4731 140.07 92.4876L140.134 92.3877L140.111 92.3704L140.034 92.3239C140.034 92.3239 140.022 92.3216 140.015 92.3205L140.009 92.3194L139.844 92.2177L139.856 92.22L139.892 92.2395L140.015 92.3205C140.015 92.3205 140.056 92.3146 140.098 92.296C140.113 92.2856 140.127 92.2815 140.141 92.2775L140.144 92.2584L140.164 92.2555L140.25 92.2183L140.271 92.2091C141.266 90.4937 142.071 88.6722 142.623 86.7597C143.188 84.8101 143.546 82.8104 143.718 80.7904C143.806 79.7842 143.85 78.7699 143.847 77.7605C143.851 76.7521 143.77 75.7417 143.727 74.7381C143.586 72.6688 143.005 70.7171 142.372 68.802C141.043 64.9932 139.403 61.345 137.792 57.6823C136.172 54.0312 134.581 50.3655 133.22 46.6231C131.879 42.8778 130.716 39.053 130.254 35.1242C130.028 33.1641 129.984 31.1775 130.252 29.2404C130.508 27.3009 131.112 25.424 132.113 23.749C133.101 22.0781 134.464 20.645 136.03 19.4774C137.608 18.3119 139.361 17.4137 141.195 16.648C143.027 15.8557 144.86 15.057 146.745 14.5951C148.631 14.1597 150.648 14.2391 152.658 13.9897C160.566 13.1846 168.595 13.9407 176.371 15.5887C184.155 17.2707 191.743 19.9004 198.862 23.4682C202.412 25.2637 205.841 27.2994 209.075 29.6212C212.297 31.9344 215.313 34.5579 217.939 37.5308C220.56 40.4899 222.777 43.8418 224.189 47.5212C224.894 49.3641 225.392 51.268 225.624 53.2293C225.756 54.2096 225.807 55.1687 225.786 56.1673C225.787 57.1502 225.703 58.1311 225.568 59.1029C225.256 61.3926 224.581 63.6303 223.675 65.7613C222.862 67.6272 222.136 68.9778 221.665 69.8894C221.194 70.8009 220.978 71.2733 221.065 71.3348C220.879 71.2032 219.6 72.8218 216.962 75.953L216.957 75.9456ZM151.672 86.8992L151.648 86.9212C151.648 86.9212 151.683 86.875 151.699 86.8582C151.705 86.8594 151.706 86.853 151.706 86.853C151.714 86.8478 151.721 86.8426 151.729 86.8374L151.689 86.8761L151.672 86.8992Z" fill="#010101"/>
<path d="M139.426 92.0972C139.426 92.0972 139.435 92.0464 139.451 92.0297L139.408 92.2709C139.405 92.2178 139.406 92.1723 139.414 92.1278L139.418 92.1088L139.426 92.0972Z" fill="#020202"/>
<path d="M139.462 92.0048C139.462 92.0048 139.475 91.9683 139.484 91.9568L139.482 91.9694C139.482 91.9694 139.481 91.9757 139.479 91.9819L139.475 92.0071L139.462 92.0048Z" fill="#020202"/>
<path d="M140.266 92.2017C140.266 92.2017 140.244 92.2502 140.227 92.2733C140.227 92.2733 140.215 92.3039 140.207 92.3092L140.197 92.3271C140.194 92.3461 140.192 92.3588 140.19 92.3715L140.171 92.401L140.158 92.3987C140.157 92.4051 140.156 92.4114 140.142 92.4155C140.124 92.4449 140.099 92.4733 140.07 92.4878L140.134 92.3878L140.111 92.3706L140.034 92.324C140.034 92.324 140.022 92.3218 140.015 92.3206C140.029 92.3166 140.056 92.3148 140.098 92.2962C140.113 92.2858 140.127 92.2817 140.141 92.2776L140.144 92.2586L140.164 92.2556L140.25 92.2185L140.271 92.2092L140.266 92.2017Z" fill="#020202"/>
<path d="M151.649 86.9206C151.649 86.9206 151.683 86.8748 151.699 86.8582L151.695 86.8771L151.672 86.8988L151.649 86.9206Z" fill="#020202"/>
<path d="M152.242 87.4141C152.242 87.4141 152.215 87.3045 152.148 87.2401L152.266 87.3136L152.264 87.3263C152.244 87.3621 152.239 87.4268 152.242 87.4141Z" fill="#020202"/>
<path d="M152.257 87.4366L152.288 87.4094C152.288 87.4094 152.271 87.4325 152.262 87.444C152.239 87.466 152.223 87.4828 152.2 87.4984L152.256 87.4429C152.256 87.4429 152.238 87.4331 152.227 87.4245L152.258 87.4302L152.257 87.4366Z" fill="#020202"/>
<path d="M152.324 87.3567C152.324 87.3567 152.312 87.3869 152.296 87.4035C152.295 87.4098 152.288 87.4087 152.287 87.4149L152.3 87.3459L152.324 87.3567Z" fill="#020202"/>
<path d="M187.262 84.5187C186.891 80.6981 193.112 80.5014 193.38 83.9762C193.643 85.6547 192.508 87.24 190.828 87.5093C189.15 87.7722 187.572 86.6314 187.303 84.9518C187.276 84.8094 187.268 84.6704 187.266 84.5325L187.262 84.5187Z" fill="black" stroke="black" stroke-width="1.93479"/>
<path d="M197.812 53.6286C197.866 53.3239 197.921 53.0192 197.982 52.7156C199.186 46.5038 201.325 40.5185 201.183 34.1049C201.164 33.1514 200.975 32.0104 200.102 31.6181C199.101 31.1703 198.012 32.0564 197.444 32.9964C196.27 34.9418 196.04 37.2856 195.692 39.5229C194.697 45.9228 192.563 52.0598 191.108 58.3576C190.688 60.1891 187.66 76.4065 192.331 74.2488C193.245 73.8293 193.742 72.8438 194.1 71.9055C196.358 66.0658 196.703 59.7461 197.804 53.6338L197.812 53.6286Z" fill="black" stroke="black" stroke-width="1.93479"/>
<path d="M202.189 83.2996C202.409 82.9131 202.623 82.4862 202.871 82.0916C203.082 81.7559 203.605 81.6529 203.956 81.847C204.373 82.0789 204.522 82.6755 204.252 83.0858C204.18 83.1973 204.085 83.3245 203.973 83.3634C203.721 83.4558 203.448 83.5512 203.186 83.5501C202.57 83.5512 202.167 83.8263 201.877 84.3508C201.818 84.4583 201.675 84.5244 201.563 84.6026C201.382 84.734 200.969 84.6273 200.848 84.4222C200.728 84.2172 200.809 83.7994 201.021 83.7128C201.39 83.5561 201.771 83.4409 202.184 83.2921L202.189 83.2996Z" fill="black"/>
<path d="M211.588 81.0513C211.481 81.7201 211.228 82.1794 210.768 82.5164C210.467 82.7375 210.052 82.7484 209.849 82.5286C209.542 82.192 209.462 81.7255 209.673 81.4227C210.053 80.8748 210.589 80.6628 211.247 80.7217C211.421 80.7397 211.6 80.9814 211.588 81.0513Z" fill="black"/>
<path d="M187.341 76.3561C187.167 76.266 187.022 76.2335 186.935 76.1391C186.584 75.7553 186.486 75.312 186.699 74.8193C186.891 74.3689 187.597 74.2661 187.889 74.6523C188.212 75.0772 188.212 75.7388 187.836 76.1563C187.721 76.2864 187.482 76.3026 187.34 76.3624L187.341 76.3561Z" fill="black"/>
<path d="M158.747 69.8537C158.676 69.9589 158.601 70.1552 158.449 70.2722C158.183 70.48 157.863 70.58 157.508 70.5164C157.229 70.4664 157.005 70.2887 156.946 70.0293C156.894 69.8103 157.048 69.4643 157.247 69.3363C157.602 69.1115 157.976 69.0344 158.396 69.1423C158.608 69.2 158.812 69.5248 158.742 69.8463L158.747 69.8537Z" fill="black"/>
<path d="M211.746 37.097C211.437 37.0286 211.154 36.8926 211.049 36.5266C210.951 36.1946 211.108 35.7968 211.366 35.6726C211.753 35.4864 212.143 35.5759 212.423 35.9144C212.633 36.1682 212.659 36.5725 212.475 36.8343C212.3 37.0782 212.051 37.1123 211.746 37.097Z" fill="black"/>
<path d="M194.315 86.4039C194.057 86.3839 193.795 86.1273 193.787 85.877C193.759 85.2627 194.126 84.8239 194.721 84.76C195.015 84.7275 195.414 85.0939 195.4 85.3927C195.377 85.9258 194.826 86.4429 194.321 86.4051L194.315 86.4039Z" fill="black"/>
<path d="M197.833 80.5147C197.772 80.4907 197.702 80.4782 197.648 80.4489C197.33 80.2871 197.172 79.9968 197.086 79.6734C196.981 79.2745 197.344 78.8939 197.775 78.9384C198.129 78.9691 198.435 79.2008 198.513 79.4965C198.621 79.8827 198.429 80.261 198.022 80.4502C197.964 80.4792 197.896 80.4932 197.833 80.5147Z" fill="black"/>
<path d="M178.212 82.6295C178.07 83.0891 177.579 83.4203 177.106 83.316C176.947 83.2876 176.755 83.0828 176.706 82.9168C176.541 82.3369 176.956 81.8086 177.543 81.7891C177.946 81.7696 178.325 82.2502 178.205 82.6284L178.212 82.6295Z" fill="black"/>
<path d="M198.748 74.7819C199.171 74.8379 199.401 75.1608 199.369 75.4107C199.304 75.8839 198.708 76.2489 198.317 76.0215C198.098 75.8906 197.935 75.6649 197.769 75.4583C197.673 75.3362 197.813 74.9944 197.97 74.957C198.286 74.876 198.611 74.8163 198.747 74.7882L198.748 74.7819Z" fill="black"/>
<path d="M168.336 89.6998C168.192 90.067 167.668 90.2876 167.364 90.1154C167.091 89.9615 166.915 89.5501 166.999 89.2638C167.115 88.8718 167.618 88.6605 167.956 88.8586C168.258 89.0372 168.436 89.4359 168.336 89.6998Z" fill="black"/>
<path d="M181.137 76.7193C181.014 76.8217 180.886 76.9888 180.72 77.0377C180.546 77.0918 180.329 77.0595 180.139 77.0254C179.834 76.9708 179.651 76.7481 179.655 76.5064C179.663 76.2064 179.847 76.0231 180.089 75.9157C180.458 75.7526 180.9 75.9233 181.083 76.2903C181.136 76.398 181.117 76.5388 181.132 76.7118L181.137 76.7193Z" fill="black"/>
<path d="M197.22 84.3426C196.497 84.2066 196.293 83.6984 196.648 83.146C196.865 82.8114 197.255 82.6454 197.478 82.7902C197.919 83.0722 198.04 83.8212 197.669 84.1741C197.544 84.2892 197.319 84.3014 197.22 84.3426Z" fill="black"/>
<path d="M205.27 85.6726C205.002 85.592 204.737 85.2431 204.736 84.9218C204.738 84.6536 204.814 84.4117 205.07 84.261C205.328 84.104 205.75 84.1992 205.932 84.4612C206.212 84.8717 206.09 85.4068 205.652 85.6231C205.544 85.6759 205.403 85.6572 205.276 85.6737L205.27 85.6726Z" fill="black"/>
<path d="M165.398 80.1648C165.341 80.5215 165.112 80.7425 164.836 80.9289C164.562 81.1027 164.114 81.0093 163.96 80.7721C163.756 80.4473 163.864 79.9163 164.179 79.7303C164.53 79.5246 164.977 79.5522 165.262 79.826C165.346 79.9066 165.359 80.053 165.405 80.166L165.398 80.1648Z" fill="black"/>
<path d="M215.333 55.9993C215.314 56.3235 214.985 56.6249 214.66 56.6125C214.243 56.5969 213.942 56.2678 213.919 55.8115C213.904 55.488 214.24 55.1877 214.577 55.2087C215.01 55.2404 215.346 55.5954 215.327 55.9981L215.333 55.9993Z" fill="black"/>
<path d="M189.227 92.8309C189.151 93.1778 188.923 93.3924 188.564 93.492C188.206 93.5916 187.86 93.3658 187.869 92.9874C187.871 92.7913 187.92 92.5904 187.992 92.4068C188.097 92.1504 188.402 92.0215 188.659 92.0871C189.004 92.1687 189.276 92.5187 189.227 92.8309Z" fill="black"/>
<path d="M194.044 78.5849C194.02 78.8688 193.632 79.1334 193.299 79.087C192.959 79.0458 192.687 78.7351 192.699 78.416C192.71 78.097 193.03 77.7743 193.332 77.7694C193.686 77.7673 194.073 78.2035 194.044 78.5849Z" fill="black"/>
<path d="M158.251 81.6959C157.641 81.5539 157.405 81.1513 157.542 80.6058C157.61 80.3362 157.954 80.1357 158.166 80.2719C158.39 80.4103 158.6 80.592 158.773 80.7935C158.957 81.0099 158.939 81.4062 158.739 81.5342C158.583 81.6373 158.375 81.6656 158.25 81.7022L158.251 81.6959Z" fill="black"/>
<path d="M221.104 70.8964C220.781 70.8384 220.584 70.5805 220.55 70.1878C220.535 69.9756 220.743 69.6197 220.95 69.5649C221.067 69.5334 221.214 69.5532 221.33 69.6002C221.626 69.7056 221.654 69.9858 221.679 70.2459C221.706 70.5389 221.52 70.7349 221.295 70.8913C221.25 70.9225 221.163 70.9003 221.098 70.8953L221.104 70.8964Z" fill="black"/>
<path d="M157.385 75.192C157.193 75.1313 157.06 75.1011 156.939 75.0467C156.571 74.8694 156.407 74.5451 156.527 74.239C156.683 73.8412 157.129 73.6917 157.538 73.896C157.863 74.0589 158.047 74.603 157.84 74.9525C157.757 75.0883 157.514 75.1299 157.385 75.192Z" fill="black"/>
<path d="M187.229 79.7627C187.136 79.8442 187.004 79.9975 186.839 80.1121C186.613 80.2748 186.295 80.1851 186.128 79.9456C185.972 79.721 185.99 79.4031 186.173 79.1869C186.357 78.9643 186.576 78.8005 186.873 78.8603C187.172 78.9137 187.389 79.4179 187.223 79.7615L187.229 79.7627Z" fill="black"/>
<path d="M204.488 40.6784C204.88 40.7945 205.122 41.2703 204.976 41.6439C204.854 41.9627 204.438 42.1634 204.161 42.0286C203.871 41.8915 203.687 41.5245 203.741 41.1869C203.8 40.8568 204.183 40.5847 204.481 40.6773L204.488 40.6784Z" fill="black"/>
<path d="M166.935 67.0808C167.235 67.1279 167.467 67.4774 167.43 67.8311C167.387 68.2166 167.085 68.4769 166.773 68.3884C166.43 68.2941 166.221 67.9947 166.251 67.6462C166.285 67.3116 166.623 67.0315 166.935 67.0808Z" fill="black"/>
<path d="M190.53 69.1237C190.637 69.2936 190.801 69.4408 190.811 69.6C190.82 69.7719 190.716 69.9891 190.593 70.1244C190.322 70.4297 189.917 70.4227 189.743 70.1492C189.555 69.8468 189.613 69.4509 189.918 69.2828C190.085 69.1947 190.291 69.1792 190.531 69.1174L190.53 69.1237Z" fill="black"/>
<path d="M182.41 94.2705C182.346 94.6324 181.979 94.8877 181.669 94.7865C181.329 94.6732 181.155 94.3667 181.217 93.9847C181.257 93.7625 181.562 93.5552 181.836 93.5648C182.18 93.5806 182.471 93.9341 182.41 94.2705Z" fill="black"/>
<path d="M172.071 86.8107C171.755 86.7083 171.61 86.3482 171.754 86.0201C171.888 85.71 172.283 85.5515 172.544 85.703C172.776 85.8363 172.89 86.1123 172.813 86.3605C172.707 86.6954 172.362 86.9022 172.071 86.8107Z" fill="black"/>
<path d="M216.984 43.9249C216.65 43.8848 216.388 43.5954 216.378 43.2464C216.366 42.9102 216.706 42.5845 217.026 42.6286C217.365 42.6762 217.627 42.9656 217.638 43.3082C217.651 43.6382 217.311 43.9638 216.99 43.926L216.984 43.9249Z" fill="black"/>
<path d="M200.71 77.8784C200.584 78.2491 200.072 78.4783 199.734 78.3131C199.475 78.188 199.345 77.9224 199.413 77.6528C199.502 77.269 199.97 77.0711 200.387 77.2309C200.65 77.3305 200.794 77.6249 200.716 77.8795L200.71 77.8784Z" fill="black"/>
<path d="M197.859 46.7051C197.838 46.9307 197.513 47.1739 197.268 47.1497C196.929 47.1085 196.616 46.7708 196.649 46.4753C196.676 46.2509 197.009 46.0025 197.247 46.0255C197.581 46.0656 197.882 46.3947 197.859 46.7051Z" fill="black"/>
<path d="M172.468 73.9812C172.759 74.0006 173.027 74.4089 172.957 74.724C172.887 75.0455 172.509 75.3251 172.238 75.2636C171.937 75.19 171.666 74.8007 171.723 74.5162C171.775 74.2305 172.156 73.9647 172.473 73.9887L172.468 73.9812Z" fill="black"/>
<path d="M187.37 42.1669C187.31 42.3529 187.286 42.4862 187.227 42.6C187.107 42.8276 186.822 42.9598 186.566 42.8879C186.447 42.8536 186.326 42.7662 186.259 42.6625C186.119 42.4541 186.184 42.1315 186.385 41.9579C186.486 41.8711 186.593 41.7854 186.71 41.754C186.827 41.7225 187.001 41.7013 187.076 41.7605C187.207 41.8692 187.286 42.0472 187.363 42.1658L187.37 42.1669Z" fill="black"/>
<path d="M197.88 68.6183C197.84 68.9847 197.523 69.2555 197.198 69.2039C196.9 69.1505 196.643 68.7901 196.659 68.4457C196.671 68.2316 196.994 67.9683 197.243 67.967C197.583 67.969 197.915 68.3102 197.879 68.6247L197.88 68.6183Z" fill="black"/>
<path d="M171.786 71.4218C171.756 70.8595 172.072 70.5558 172.562 70.3814C172.793 70.2983 173.119 70.4549 173.227 70.6906C173.359 70.9827 173.196 71.4515 172.907 71.5308C172.507 71.6426 172.11 71.6632 171.755 71.3769L171.787 71.4155L171.786 71.4218Z" fill="black"/>
<path d="M212.78 84.5668C212.699 84.9062 212.313 85.1974 212.053 85.1116C211.774 85.0223 211.562 84.5585 211.66 84.2681C211.742 84.0337 212.04 83.8316 212.288 83.8367C212.613 83.8491 212.862 84.2147 212.78 84.5668Z" fill="black"/>
<path d="M178.664 77.3577C178.718 77.4983 178.861 77.6877 178.823 77.8251C178.68 78.3302 178.302 78.5377 177.757 78.4728C177.564 78.4514 177.351 78.2495 177.381 78.0845C177.402 77.9638 177.438 77.7999 177.526 77.7501C177.805 77.5838 178.109 77.4549 178.409 77.3185C178.459 77.2948 178.536 77.3413 178.663 77.364L178.664 77.3577Z" fill="black"/>
<path d="M195.127 37.4824C195.097 37.5425 195.079 37.6048 195.043 37.6574C194.873 37.9151 194.634 38.0035 194.362 37.9154C194.089 37.8273 193.905 37.6501 193.877 37.3635C193.865 37.2499 193.924 37.1032 193.993 37.0107C194.161 36.8049 194.492 36.7463 194.711 36.8444C194.91 36.939 195.136 37.2874 195.127 37.4824Z" fill="black"/>
<path d="M210.085 56.2193C209.819 56.1323 209.708 55.798 209.888 55.5616C209.966 55.4576 210.077 55.3137 210.184 55.3001C210.365 55.2737 210.6 55.2828 210.732 55.3852C210.912 55.5156 210.856 55.7546 210.762 55.9475C210.628 56.2248 210.375 56.3171 210.085 56.2193Z" fill="black"/>
<path d="M202.631 54.3408C202.58 54.5544 202.232 54.7739 202.019 54.7226C201.737 54.6524 201.531 54.2618 201.615 53.9426C201.677 53.7048 202.002 53.5009 202.213 53.5649C202.506 53.6501 202.707 54.0268 202.63 54.3471L202.631 54.3408Z" fill="black"/>
<path d="M223.042 58.2837C222.753 58.2124 222.565 57.7987 222.67 57.4702C222.748 57.2156 223.064 56.9904 223.264 57.0394C223.548 57.1033 223.806 57.4902 223.767 57.7845C223.727 58.0788 223.33 58.355 223.043 58.2774L223.042 58.2837Z" fill="black"/>
<path d="M186.722 31.7711C186.645 32.0522 186.4 32.2507 186.151 32.2519C185.981 32.2478 185.778 32.028 185.778 31.8445C185.774 31.5752 185.964 31.3537 186.265 31.2831C186.539 31.2207 186.802 31.5038 186.728 31.7722L186.722 31.7711Z" fill="black"/>
<path d="M187.453 53.4446C187.407 53.7049 187.163 53.8971 186.896 53.8886C186.505 53.8775 186.198 53.4295 186.324 53.0589C186.394 52.8487 186.743 52.6557 186.957 52.707C187.264 52.7818 187.507 53.1463 187.447 53.4435L187.453 53.4446Z" fill="black"/>
<path d="M189.407 67.0489C189.417 67.3587 189.092 67.6411 188.758 67.601C188.533 67.5803 188.324 67.2809 188.357 67.0246C188.39 66.7684 188.651 66.5532 188.896 66.5773C189.216 66.6151 189.402 66.7859 189.414 67.0501L189.407 67.0489Z" fill="black"/>
<path d="M193.631 90.2977C193.312 90.2865 193.057 89.9526 193.117 89.6161C193.162 89.3685 193.429 89.1215 193.655 89.1359C193.953 89.1564 194.208 89.4903 194.172 89.8377C194.15 90.0696 193.877 90.3155 193.625 90.2966L193.631 90.2977Z" fill="black"/>
<path d="M180.071 91.8926C179.859 91.8349 179.655 91.5101 179.67 91.277C179.694 90.9603 180.094 90.7435 180.405 90.8713C180.661 90.9762 180.755 91.2222 180.663 91.5138C180.586 91.762 180.291 91.9451 180.066 91.8851L180.071 91.8926Z" fill="black"/>
<path d="M173.975 93.009C173.983 93.1809 173.674 93.3744 173.53 93.2634C173.322 93.1082 173.116 92.9403 172.955 92.7412C172.89 92.6641 172.891 92.4743 172.942 92.372C172.991 92.2825 173.158 92.1944 173.254 92.2051C173.671 92.2536 173.958 92.5931 173.97 93.0015L173.975 93.009Z" fill="black"/>
<path d="M174.889 62.3594C174.868 62.6963 174.539 62.9977 174.235 62.976C174.022 62.9576 173.825 62.6339 173.856 62.3512C173.889 62.0557 174.125 61.8359 174.382 61.8623C174.692 61.8915 174.908 62.1072 174.889 62.3594Z" fill="black"/>
<path d="M182.841 79.1341C182.813 79.437 182.464 79.735 182.144 79.7301C181.929 79.7243 181.656 79.4199 181.651 79.1897C181.642 78.7687 182.043 78.4278 182.432 78.5237C182.67 78.5859 182.861 78.8756 182.841 79.1341Z" fill="black"/>
<path d="M154.934 76.1094C154.833 76.4517 154.476 76.6171 154.168 76.4702C153.89 76.3418 153.766 75.9724 153.878 75.6386C153.962 75.3915 154.263 75.2488 154.507 75.3451C154.834 75.4624 155.027 75.8115 154.933 76.1157L154.934 76.1094Z" fill="black"/>
<path d="M196.576 76.7778C196.495 77.1172 196.123 77.3322 195.831 77.2078C195.593 77.1063 195.449 76.8512 195.48 76.5685C195.513 76.273 195.91 75.9247 196.157 75.969C196.405 76.0134 196.648 76.4828 196.577 76.7715L196.576 76.7778Z" fill="black"/>
<path d="M175.908 79.3211C176.076 79.3708 176.204 79.6099 176.165 79.7865C176.109 80.0647 175.939 80.244 175.67 80.3202C175.449 80.3854 175.065 80.225 175.032 80.003C175.009 79.8415 175.076 79.6112 175.19 79.4874C175.369 79.2966 175.631 79.2192 175.908 79.3211Z" fill="black"/>
<path d="M184.588 81.4518C184.516 81.7796 184.17 81.9928 183.84 81.8945C183.586 81.8162 183.406 81.5023 183.484 81.2869C183.609 80.9554 183.931 80.7642 184.249 80.8211C184.464 80.8597 184.633 81.1979 184.581 81.4507L184.588 81.4518Z" fill="black"/>
<path d="M194.479 74.5482C194.381 74.8386 194.021 74.9446 193.863 74.7327C193.746 74.5807 193.654 74.4004 193.582 74.2172C193.503 73.9999 193.607 73.7827 193.78 73.7286C193.974 73.6716 194.173 73.6612 194.326 73.8264C194.518 74.0376 194.6 74.275 194.48 74.5418L194.479 74.5482Z" fill="black"/>
<path d="M195.574 70.4791C195.57 70.6879 195.271 70.9293 195.017 70.923C194.644 70.9154 194.44 70.7019 194.42 70.3051C194.406 70.0536 194.622 69.7583 194.835 69.7439C195.212 69.7198 195.591 70.0954 195.574 70.4791Z" fill="black"/>
<path d="M201.949 79.3714C202.003 79.4006 202.071 79.4258 202.116 79.4667C202.399 79.714 202.388 80.033 202.292 80.3499C202.263 80.4365 202.097 80.5247 201.99 80.5319C201.594 80.5525 201.279 80.149 201.356 79.7566C201.397 79.528 201.729 79.3189 201.949 79.3714Z" fill="black"/>
<path d="M181.717 82.8837C181.936 82.9426 182.106 83.2351 182.079 83.4988C182.05 83.7689 181.766 83.9998 181.547 83.941C181.341 83.8844 181.144 83.5607 181.172 83.3299C181.201 83.0928 181.516 82.8346 181.717 82.8837Z" fill="black"/>
<path d="M199.103 86.488C199.013 86.5834 198.906 86.7804 198.753 86.8316C198.467 86.9246 198.177 86.5712 198.198 86.1622C198.203 86.0584 198.33 85.8976 198.426 85.8755C198.795 85.7908 199.108 86.0565 199.109 86.4891L199.103 86.488Z" fill="black"/>
<path d="M193.904 26.6035C193.837 26.4999 193.674 26.3526 193.657 26.1923C193.614 25.844 193.982 25.5823 194.327 25.6702C194.59 25.737 194.752 26.0411 194.666 26.3009C194.583 26.5417 194.334 26.6543 193.912 26.5983L193.904 26.6035Z" fill="black"/>
<path d="M187.405 27.9165C187.058 27.8413 186.86 27.5961 186.879 27.3439C186.9 27.1183 187.234 26.9357 187.482 27.0129C187.737 27.0913 187.911 27.3977 187.784 27.6305C187.707 27.7674 187.504 27.8424 187.405 27.9165Z" fill="black"/>
<path d="M223.06 47.0963C222.698 47.0644 222.504 46.833 222.515 46.5532C222.527 46.2671 222.81 46.0362 223.037 46.1227C223.282 46.2189 223.469 46.4947 223.391 46.743C223.338 46.8971 223.155 47.002 223.066 47.0975L223.06 47.0963Z" fill="black"/>
<path d="M220.519 63.9908C220.362 64.2116 220.051 64.2672 219.828 64.1225C219.57 63.9518 219.506 63.652 219.679 63.4537C219.878 63.2207 220.185 63.1513 220.36 63.3071C220.605 63.5147 220.667 63.788 220.518 63.9972L220.519 63.9908Z" fill="black"/>
<path d="M182.543 56.9028C182.5 57.1769 182.094 57.3989 181.785 57.3305C181.565 57.278 181.388 56.9514 181.437 56.7113C181.48 56.4701 181.761 56.219 181.974 56.2374C182.277 56.2655 182.588 56.6159 182.543 56.9028Z" fill="black"/>
<path d="M194.162 52.8637C194.047 52.9545 193.916 53.1014 193.753 53.1705C193.525 53.2738 193.402 53.0814 193.293 52.9243C193.256 52.8719 193.228 52.8079 193.213 52.7462C193.138 52.5099 193.284 52.2021 193.513 52.0988C193.733 52.0007 194.053 52.1562 194.13 52.419C194.168 52.5372 194.15 52.6716 194.163 52.8573L194.162 52.8637Z" fill="black"/>
<path d="M187.434 90.7671C187.364 91.0102 187.083 91.1563 186.815 91.0757C186.591 91.0094 186.409 90.6753 186.485 90.4663C186.564 90.2445 186.866 90.0955 187.119 90.1473C187.353 90.1957 187.507 90.5051 187.435 90.7608L187.434 90.7671Z" fill="black"/>
<path d="M155.658 68.5144C155.42 68.4914 155.209 68.2047 155.237 67.941C155.285 67.5631 155.582 67.2952 155.885 67.3561C156.127 67.3993 156.343 67.6935 156.325 67.9393C156.299 68.2687 155.98 68.5459 155.651 68.5197L155.658 68.5144Z" fill="black"/>
<path d="M169.091 70.0417C169.114 70.2817 168.75 70.4851 168.476 70.3705C168.22 70.2592 168.046 70.0642 167.973 69.7759C167.907 69.5217 168.137 69.2223 168.403 69.2372C168.837 69.2689 169.141 69.6182 169.093 70.0354L169.091 70.0417Z" fill="black"/>
<path d="M203.178 23.0357C203.393 23.0415 203.656 23.3702 203.638 23.6159C203.616 23.92 203.418 24.1138 203.123 24.1134C202.802 24.1148 202.57 23.9424 202.546 23.676C202.516 23.3692 202.86 23.0181 203.179 23.0294L203.178 23.0357Z" fill="black"/>
<path d="M185.197 66.2687C185.118 66.5233 184.85 66.6654 184.583 66.5847C184.359 66.5184 184.144 66.185 184.193 65.9841C184.273 65.684 184.705 65.4665 184.968 65.6054C185.202 65.7259 185.288 65.9772 185.197 66.2687Z" fill="black"/>
<path d="M192.342 71.5185C192.668 71.5245 192.912 71.8106 192.881 72.0541C192.859 72.2139 192.635 72.4032 192.452 72.4031C192.208 72.4118 191.916 72.104 192.009 71.8782C192.07 71.7188 192.254 71.6076 192.343 71.5121L192.342 71.5185Z" fill="black"/>
<path d="M156.169 78.1782C156.289 78.3503 156.437 78.4751 156.48 78.6336C156.528 78.8059 156.292 78.9537 156.073 78.9341C155.752 78.8963 155.502 78.6091 155.663 78.4414C155.776 78.324 155.967 78.2796 156.168 78.1845L156.169 78.1782Z" fill="black"/>
<path d="M226.2 52.1007C226.11 52.0127 225.948 51.8983 225.858 51.7382C225.814 51.6581 225.887 51.4682 225.967 51.3843C226.122 51.2155 226.343 51.2287 226.525 51.3465C226.701 51.4568 226.802 51.6255 226.775 51.85C226.752 52.0162 226.478 52.1571 226.198 52.1071L226.2 52.1007Z" fill="black"/>
<path d="M187.612 22.7382C187.641 22.4681 187.942 22.247 188.159 22.3514C188.346 22.4437 188.458 22.6211 188.399 22.807C188.343 22.9739 188.213 23.1473 188.066 23.2388C187.905 23.3344 187.584 22.969 187.612 22.7382Z" fill="black"/>
<path d="M207.822 34.7171C208.12 34.8097 208.308 35.2563 208.156 35.5238C208.051 35.7081 207.862 35.7726 207.661 35.7235C207.429 35.6688 207.217 35.3492 207.237 35.1299C207.255 34.917 207.623 34.6553 207.822 34.7171Z" fill="black"/>
<path d="M160.026 72.3694C160.01 72.753 159.795 72.9635 159.524 72.9412C159.227 72.9143 159.042 72.6714 159.108 72.4082C159.178 72.1322 159.428 71.9412 159.693 72.0345C159.841 72.0872 159.943 72.2825 160.026 72.3694Z" fill="black"/>
<path d="M171.279 71.7307C171.316 72.1828 171.119 72.4752 170.699 72.6292C170.523 72.696 170.314 72.6193 170.211 72.424C170.12 72.2373 170.101 72.0505 170.267 71.8903C170.583 71.5929 170.919 71.4697 171.306 71.7617L171.274 71.7232L171.279 71.7307Z" fill="black"/>
<path d="M171.808 78.9473C171.682 79.0295 171.546 79.1689 171.374 79.2103C171.237 79.2447 171.031 78.9327 171.081 78.7647C171.138 78.5914 171.251 78.4348 171.368 78.292C171.477 78.1608 171.61 78.1847 171.702 78.3321C171.738 78.3845 171.78 78.4444 171.789 78.5049C171.805 78.6323 171.795 78.7616 171.794 78.9514L171.808 78.9473Z" fill="black"/>
<path d="M204.472 67.4793C204.353 67.5563 204.221 67.7095 204.056 67.7521C203.76 67.8302 203.481 67.4525 203.56 67.1195C203.606 66.9376 203.831 66.8142 204.018 66.8673C204.274 66.9393 204.489 67.2006 204.465 67.4781L204.472 67.4793Z" fill="black"/>
<path d="M202.992 65.642C202.941 65.9276 202.592 66.0486 202.371 65.8582C202.058 65.5926 202.001 65.3268 202.187 64.9802C202.264 64.8433 202.388 64.8066 202.542 64.8667C202.913 65.025 203.058 65.2738 202.994 65.6356L202.992 65.642Z" fill="black"/>
<path d="M195.333 55.6155C195.199 55.4146 195.053 55.2771 195.022 55.1209C194.986 54.9179 195.132 54.7606 195.342 54.726C195.606 54.6751 195.893 54.9755 195.781 55.1979C195.702 55.3475 195.521 55.446 195.333 55.6155Z" fill="black"/>
<path d="M211.347 76.7954C211.569 76.8744 211.697 77.1856 211.594 77.4293C211.488 77.692 211.207 77.8318 210.981 77.7453C210.759 77.6663 210.644 77.3574 210.736 77.0987C210.828 76.84 211.095 76.7044 211.347 76.7954Z" fill="black"/>
<path d="M185.451 73.2266C185.408 73.1009 185.282 72.9276 185.304 72.7678C185.335 72.5243 185.751 72.3565 185.936 72.4944C186.022 72.5622 186.091 72.7253 186.084 72.8418C186.058 73.1321 185.76 73.3342 185.451 73.2266Z" fill="black"/>
<path d="M198.795 71.5209C198.761 71.4165 198.665 71.2553 198.661 71.0972C198.659 70.9265 198.946 70.7879 199.122 70.826C199.298 70.8706 199.392 71.0774 199.328 71.2887C199.263 71.5063 199.065 71.6217 198.795 71.5209Z" fill="black"/>
<path d="M213.499 64.5225C213.399 64.7863 213.149 64.866 213.022 64.732C212.94 64.6451 212.847 64.5432 212.814 64.4326C212.788 64.323 212.806 64.1822 212.864 64.0811C212.927 63.9483 213.274 63.9514 213.354 64.0902C213.439 64.2365 213.464 64.4245 213.499 64.5225Z" fill="black"/>
<path d="M179.189 73.9528C179.072 74.0172 178.931 74.1491 178.761 74.1842C178.569 74.2285 178.368 73.996 178.43 73.7974C178.48 73.6294 178.606 73.4358 178.75 73.3633C178.943 73.2734 179.239 73.6343 179.187 73.9592L179.189 73.9528Z" fill="black"/>
<path d="M173.285 59.6479C173.074 59.7673 172.931 59.9055 172.762 59.9343C172.613 59.96 172.453 59.6496 172.491 59.4729C172.537 59.2848 172.801 59.0568 172.917 59.143C173.055 59.2465 173.134 59.4308 173.28 59.6404L173.285 59.6479Z" fill="black"/>
<path d="M180.058 66.0627C180.004 65.8108 179.926 65.6264 179.949 65.4602C179.979 65.2559 180.274 65.145 180.437 65.2265C180.622 65.3252 180.733 65.581 180.61 65.7227C180.487 65.858 180.292 65.9214 180.058 66.0627Z" fill="black"/>
<path d="M206.079 47.6725C206.019 47.7863 205.97 47.915 205.892 48.0191C205.779 48.1757 205.505 48.2053 205.381 48.0585C205.305 47.9664 205.238 47.797 205.274 47.7052C205.35 47.5354 205.483 47.3758 205.634 47.2652C205.703 47.212 205.907 47.242 205.968 47.3053C206.045 47.3847 206.042 47.548 206.072 47.6713L206.079 47.6725Z" fill="black"/>
<path d="M195.217 33.4298C195.142 33.7767 194.965 33.922 194.673 33.8697C194.47 33.8333 194.354 33.6421 194.413 33.4233C194.494 33.0776 194.678 32.9271 194.958 32.9771C195.148 33.0112 195.269 33.2163 195.216 33.4362L195.217 33.4298Z" fill="black"/>
<path d="M216.339 58.8329C216.333 58.537 216.661 58.2419 216.867 58.3377C217.019 58.4042 217.156 58.5861 217.213 58.7469C217.288 58.9503 216.926 59.2524 216.705 59.1671C216.546 59.1058 216.433 58.9284 216.339 58.8329Z" fill="black"/>
<path d="M209.851 86.1391C209.749 86.3043 209.712 86.4417 209.622 86.5043C209.526 86.5657 209.367 86.6093 209.269 86.5721C209.072 86.504 209.017 86.1142 209.185 85.9084C209.251 85.8286 209.435 85.7566 209.501 85.7881C209.644 85.8662 209.747 86.0223 209.852 86.1327L209.851 86.1391Z" fill="black"/>
<path d="M174.006 77.7618C173.901 77.6842 173.776 77.6159 173.696 77.5163C173.566 77.3621 173.631 77.1116 173.796 76.9905C173.955 76.8748 174.195 76.9243 174.316 77.123C174.383 77.2266 174.417 77.3638 174.434 77.4913C174.456 77.6983 174.206 77.8501 174.004 77.7682L174.006 77.7618Z" fill="black"/>
<path d="M185.585 84.4083C185.408 84.3373 185.333 84.0946 185.439 83.904C185.546 83.7134 185.793 83.6464 185.936 83.8029C186.019 83.8898 186.064 84.0356 186.069 84.1544C186.069 84.3378 185.763 84.4731 185.586 84.402L185.585 84.4083Z" fill="black"/>
<path d="M163.44 77.6718C163.259 77.6982 163.083 77.7258 162.905 77.7332C162.872 77.7339 162.795 77.6152 162.808 77.5783C162.872 77.4062 162.966 77.2462 163.048 77.0839C163.161 77.1436 163.307 77.1697 163.369 77.2659C163.431 77.3557 163.418 77.504 163.445 77.6793L163.44 77.6718Z" fill="black"/>
<path d="M180.051 80.515C179.958 80.5574 179.855 80.6569 179.78 80.6369C179.582 80.5751 179.522 80.3612 179.635 80.2046C179.662 80.1636 179.734 80.1305 179.788 80.1206C179.964 80.0866 180.108 80.3089 180.045 80.5139L180.051 80.515Z" fill="black"/>
<path d="M170.64 83.0166C170.701 83.1912 170.778 83.3098 170.765 83.4189C170.746 83.5989 170.52 83.6895 170.345 83.5666C170.27 83.5137 170.195 83.3103 170.226 83.2831C170.337 83.172 170.487 83.107 170.64 83.0166Z" fill="black"/>
<path d="M192.199 87.1324C192.161 87.3482 191.931 87.4971 191.755 87.3804C191.667 87.3253 191.587 87.1865 191.592 87.0826C191.598 86.8675 191.861 86.7179 192.031 86.8271C192.12 86.8822 192.147 87.0246 192.201 87.126L192.199 87.1324Z" fill="black"/>
<path d="M196.083 65.6627C196.074 65.897 195.887 66.0601 195.713 65.97C195.618 65.9201 195.527 65.8056 195.498 65.7087C195.457 65.5375 195.709 65.3338 195.893 65.406C195.979 65.4409 196.02 65.5729 196.083 65.6627Z" fill="black"/>
<path d="M198.27 64.2788C198.155 64.4089 198.052 64.5805 197.905 64.6721C197.822 64.7294 197.661 64.6808 197.543 64.6465C197.492 64.6374 197.425 64.5337 197.433 64.4893C197.455 64.3687 197.499 64.2324 197.578 64.1549C197.723 64.004 197.92 63.9671 198.107 64.0924C198.159 64.128 198.194 64.1931 198.264 64.2777L198.27 64.2788Z" fill="black"/>
<path d="M187.803 33.9631C187.929 33.8087 187.992 33.6759 188.094 33.6219C188.28 33.5309 188.476 33.7167 188.44 33.9591C188.419 34.0733 188.305 34.1642 188.233 34.2694C188.095 34.1659 187.948 34.0677 187.803 33.9631Z" fill="black"/>
<path d="M189.383 51.7066C189.276 51.753 189.16 51.8566 189.078 51.8355C188.866 51.7778 188.766 51.4914 188.905 51.3785C188.988 51.3148 189.188 51.2981 189.27 51.3522C189.352 51.4062 189.353 51.5832 189.389 51.7077L189.383 51.7066Z" fill="black"/>
<path d="M188.044 38.4353C187.948 38.4967 187.821 38.6245 187.665 38.6884C187.489 38.7552 187.349 38.586 187.342 38.3357C187.331 38.0652 187.538 38.0433 187.726 38.018C187.929 37.9822 188.092 38.1687 188.05 38.4428L188.044 38.4353Z" fill="black"/>
<path d="M191.44 65.4277C191.325 65.4528 191.192 65.5339 191.094 65.4967C190.953 65.4451 190.925 65.2699 191.041 65.1726C191.119 65.1015 191.269 65.1022 191.385 65.0771C191.404 65.1919 191.422 65.3129 191.434 65.4266L191.44 65.4277Z" fill="black"/>
<path d="M184.601 40.3937C184.502 40.3236 184.355 40.2709 184.312 40.1781C184.234 39.9938 184.579 39.7148 184.793 39.799C184.885 39.8351 184.964 39.9803 184.985 40.0823C185.018 40.2587 184.808 40.411 184.595 40.3925L184.601 40.3937Z" fill="black"/>
<path d="M189.484 89.0179C189.392 88.9426 189.24 88.8761 189.217 88.7867C189.169 88.5815 189.282 88.4249 189.49 88.3574C189.679 88.2928 189.871 88.4648 189.86 88.6725C189.847 88.8929 189.698 89.03 189.476 89.0231L189.484 89.0179Z" fill="black"/>
<path d="M168.072 84.5158C168.223 84.7328 168.351 84.8605 168.402 85.0139C168.423 85.083 168.306 85.2587 168.223 85.2831C168.023 85.3391 167.807 85.2283 167.781 85.0467C167.765 84.9129 167.932 84.7526 168.072 84.5158Z" fill="black"/>
<path d="M159.878 83.6973C159.762 83.7224 159.584 83.8019 159.427 83.7671C159.249 83.7353 159.199 83.4314 159.342 83.2868C159.415 83.2082 159.569 83.157 159.678 83.17C159.895 83.2023 160.003 83.4379 159.878 83.6973Z" fill="black"/>
<path d="M203.928 45.5248C203.955 45.7394 203.782 45.8985 203.564 45.8725C203.34 45.8454 203.22 45.7061 203.2 45.4928C203.183 45.2932 203.325 45.1613 203.591 45.137C203.798 45.1151 203.899 45.2446 203.927 45.5312L203.928 45.5248Z" fill="black"/>
<path d="M194.374 48.4202C194.309 48.3102 194.177 48.1687 194.146 48.0124C194.118 47.8372 194.386 47.623 194.541 47.6376C194.708 47.6545 194.837 47.8479 194.835 48.0769C194.833 48.2731 194.628 48.4657 194.374 48.4202Z" fill="black"/>
<path d="M178.882 85.5471C178.711 85.5821 178.619 85.5132 178.584 85.3431C178.503 84.988 178.593 84.8533 178.941 84.778C179.111 84.7429 179.212 84.8003 179.247 84.9704C179.317 85.3106 179.216 85.4695 178.889 85.5419L178.882 85.5471Z" fill="black"/>
<path d="M207.312 71.9255C207.451 72.029 207.618 72.1179 207.731 72.2561C207.813 72.3493 207.595 72.651 207.441 72.6693C207.205 72.7057 206.959 72.4323 207.043 72.1852C207.072 72.0923 207.201 72.0302 207.312 71.9255Z" fill="black"/>
<path d="M158.877 77.0316C158.776 77.0855 158.664 77.1966 158.561 77.1848C158.381 77.1656 158.308 76.9166 158.415 76.7196C158.492 76.5827 158.641 76.5569 158.748 76.6876C158.825 76.7733 158.833 76.9123 158.871 77.0305L158.877 77.0316Z" fill="black"/>
<path d="M205.355 74.0714C205.3 74.2711 205.051 74.3774 204.931 74.2444C204.861 74.1598 204.813 74.0267 204.813 73.9154C204.825 73.7406 205.106 73.6337 205.235 73.755C205.307 73.8269 205.315 73.9659 205.355 74.0714Z" fill="black"/>
<path d="M178.985 51.817C178.924 52.0484 178.747 52.1608 178.541 52.1043C178.322 52.0454 178.209 51.796 178.335 51.6416C178.471 51.4694 178.667 51.3996 178.854 51.4856C178.934 51.5195 178.946 51.7052 178.992 51.8181L178.985 51.817Z" fill="black"/>
<path d="M175.858 91.1252C175.73 91.1481 175.593 91.2153 175.488 91.1833C175.333 91.1295 175.333 90.9853 175.43 90.8454C175.527 90.7056 175.655 90.6499 175.764 90.7742C175.835 90.8524 175.833 91.0093 175.857 91.1316L175.858 91.1252Z" fill="black"/>
<path d="M191.115 80.3078C191.045 80.4066 190.995 80.5417 190.901 80.5904C190.742 80.6733 190.538 80.4599 190.581 80.2515C190.602 80.1372 190.689 80.0153 190.787 79.9475C190.914 79.8589 191.121 80.0926 191.115 80.3078Z" fill="black"/>
<path d="M169.242 80.6893C169.162 80.8781 168.986 80.9121 168.799 80.7868C168.664 80.6972 168.644 80.5888 168.747 80.4564C168.885 80.2715 169.12 80.2022 169.194 80.3335C169.248 80.4349 169.23 80.5757 169.247 80.6968L169.242 80.6893Z" fill="black"/>
<path d="M198.356 27.0992C198.347 27.15 198.283 27.2107 198.234 27.2282C198.187 27.2393 198.082 27.2009 198.068 27.1721C198.029 27.0603 197.975 26.9197 198.023 26.8365C198.062 26.7649 198.225 26.7679 198.335 26.7416C198.34 26.8605 198.364 26.9827 198.349 27.0981L198.356 27.0992Z" fill="black"/>
<path d="M223.51 68.7326C223.499 68.7897 223.511 68.8704 223.48 68.8976C223.303 69.0429 223.116 69.029 222.946 68.8806C222.901 68.8397 222.882 68.7642 222.854 68.7003C222.969 68.6423 223.091 68.5462 223.209 68.5476C223.313 68.5531 223.416 68.6699 223.516 68.7337L223.51 68.7326Z" fill="black"/>
<path d="M198.77 22.5543C198.877 22.6128 199.023 22.639 199.086 22.7288C199.186 22.8647 198.861 23.0357 198.669 22.9358C198.621 22.9077 198.574 22.8403 198.558 22.785C198.522 22.6213 198.602 22.5374 198.771 22.5479L198.77 22.5543Z" fill="black"/>
<path d="M190.015 36.6522C190.005 36.7093 190.029 36.7923 189.996 36.8322C189.928 36.9183 189.833 37.0455 189.747 37.0498C189.648 37.0517 189.494 36.9651 189.456 36.8798C189.429 36.8158 189.529 36.6569 189.613 36.5933C189.704 36.5244 189.837 36.509 189.953 36.4839C189.96 36.485 189.992 36.5957 190.015 36.6522Z" fill="black"/>
<path d="M216.342 36.9699C216.328 37.1245 216.236 37.1998 216.079 37.1587C215.923 37.1175 215.885 36.9994 215.957 36.855C215.987 36.7949 216.04 36.7521 216.089 36.7018C216.172 36.7886 216.261 36.8767 216.342 36.9699Z" fill="black"/>
<path d="M185.466 36.0015C185.277 35.9219 185.198 35.7046 185.293 35.5446C185.394 35.3793 185.612 35.3332 185.769 35.4793C185.848 35.5523 185.908 35.6941 185.902 35.7979C185.894 35.9929 185.667 36.0898 185.466 36.0015Z" fill="black"/>
<path d="M153.678 69.2212C153.53 69.2798 153.416 69.3644 153.32 69.3536C153.223 69.3429 153.056 69.2148 153.059 69.1628C153.089 68.9978 153.182 68.8441 153.249 68.6859C153.304 68.7088 153.387 68.7236 153.412 68.7673C153.511 68.9095 153.587 69.0674 153.678 69.2212Z" fill="black"/>
<path d="M216.477 73.6846C216.521 73.7318 216.592 73.7772 216.608 73.8325C216.638 73.9951 216.329 74.1822 216.16 74.106C216.111 74.0842 216.074 73.9989 216.066 73.932C216.043 73.6985 216.219 73.5924 216.477 73.6846Z" fill="black"/>
<path d="M206.509 54.6356C206.425 54.8498 206.192 54.9456 206.094 54.797C206.008 54.6571 205.982 54.4691 205.933 54.3031C206.05 54.2717 206.167 54.2073 206.276 54.2203C206.498 54.2601 206.59 54.4404 206.511 54.6292L206.509 54.6356Z" fill="black"/>
<path d="M207.246 61.3128C207.348 61.2589 207.444 61.1583 207.544 61.15C207.755 61.1419 207.838 61.373 207.713 61.5602C207.624 61.6949 207.489 61.7494 207.372 61.6367C207.293 61.5636 207.28 61.4172 207.241 61.3054L207.246 61.3128Z" fill="black"/>
<path d="M178.079 56.0378C177.926 56.1611 177.796 56.2624 177.665 56.3701C177.609 56.2814 177.496 56.1825 177.504 56.0988C177.516 55.9961 177.618 55.8308 177.691 55.8243C177.797 55.8171 177.907 55.935 178.08 56.0315L178.079 56.0378Z" fill="black"/>
<path d="M215.758 78.4697C215.622 78.5698 215.521 78.6959 215.451 78.6834C215.356 78.6663 215.22 78.5501 215.215 78.4642C215.208 78.3581 215.313 78.2459 215.366 78.1373C215.491 78.2448 215.622 78.3535 215.758 78.4697Z" fill="black"/>
<path d="M155.451 71.5371C155.47 71.7239 155.489 71.8779 155.507 72.0319C155.394 72.0379 155.235 72.088 155.178 72.0385C155.111 71.9741 155.096 71.8011 155.133 71.7029C155.159 71.6353 155.307 71.6096 155.458 71.5382L155.451 71.5371Z" fill="black"/>
<path d="M220.05 52.9651C219.975 53.1286 219.841 53.1768 219.728 53.045C219.651 52.9593 219.647 52.8012 219.637 52.6749C219.635 52.6484 219.742 52.5956 219.804 52.5804C219.969 52.5379 220.081 52.6103 220.104 52.7717C220.113 52.8323 220.069 52.8964 220.05 52.9651Z" fill="black"/>
<path d="M186.154 46.6142C186.081 46.6929 185.995 46.8414 185.938 46.8311C185.83 46.8118 185.74 46.6973 185.647 46.6283C185.725 46.5571 185.794 46.4646 185.886 46.4286C186.048 46.3659 186.144 46.4487 186.153 46.6206L186.154 46.6142Z" fill="black"/>
<path d="M197.811 53.2681C197.668 53.19 197.611 53.0684 197.682 52.924C197.704 52.8755 197.811 52.8291 197.861 52.8445C198.036 52.889 198.08 53.0083 197.981 53.1609C197.945 53.2135 197.87 53.2327 197.811 53.2681Z" fill="black"/>
<path d="M176.973 60.4917L176.995 60.3711L177.13 60.4607L176.973 60.4917Z" fill="black"/>
<path d="M212.861 69.0731C212.807 69.0831 212.735 69.1162 212.693 69.0955C212.527 69.0002 212.524 68.9079 212.697 68.8538C212.745 68.8427 212.832 68.8713 212.864 68.9099C212.891 68.941 212.865 69.0149 212.861 69.0731Z" fill="black"/>
<path d="M214.223 60.3672C214.277 60.3965 214.364 60.4251 214.371 60.4591C214.385 60.5992 214.285 60.6468 214.127 60.5728C214.092 60.5533 214.079 60.4789 214.055 60.4288C214.111 60.4061 214.168 60.3835 214.224 60.3608L214.223 60.3672Z" fill="black"/>
<path d="M191.702 28.1092C191.596 28.1493 191.491 28.1894 191.381 28.2156C191.375 28.2145 191.309 28.1045 191.317 28.06C191.36 27.8973 191.464 27.8635 191.597 27.9595C191.644 27.994 191.665 28.0568 191.702 28.1092Z" fill="black"/>
<path d="M182.577 41.7477C182.624 41.7759 182.711 41.8045 182.711 41.8374C182.723 41.9902 182.636 42.04 182.479 41.9661C182.443 41.9465 182.43 41.8722 182.406 41.822C182.463 41.7994 182.52 41.7704 182.57 41.7466L182.577 41.7477Z" fill="black"/>
<path d="M205.172 36.9681L205.275 36.8294L205.29 37.0024L205.172 36.9681Z" fill="black"/>
<path d="M180.839 86.9851C180.882 86.9994 180.953 87.0056 180.967 87.0344C180.986 87.077 180.986 87.1491 180.959 87.1901C180.931 87.2375 180.868 87.259 180.816 87.2955C180.793 87.239 180.758 87.1803 180.761 87.1284C180.762 87.0828 180.81 87.0325 180.831 86.9903L180.839 86.9851Z" fill="black"/>
<path d="M197.903 90.2569C197.893 90.314 197.906 90.3884 197.873 90.4283C197.839 90.4682 197.765 90.481 197.715 90.5048C197.701 90.3976 197.669 90.2869 197.674 90.1831C197.68 90.1513 197.77 90.1217 197.821 90.0979C197.851 90.1491 197.873 90.2056 197.903 90.2569Z" fill="black"/>
<path d="M161.169 86.0052C161.279 85.9726 161.386 85.9262 161.501 85.9074C161.513 85.9097 161.58 86.0133 161.571 86.0641C161.562 86.1149 161.467 86.2028 161.456 86.1942C161.353 86.1431 161.268 86.069 161.17 85.9989L161.169 86.0052Z" fill="black"/>
<path d="M166.023 86.8875C166.011 86.951 166.013 87.0167 165.978 87.063C165.944 87.1092 165.88 87.1371 165.827 87.1735C165.796 87.0565 165.757 86.9447 165.746 86.8248C165.743 86.8046 165.853 86.7391 165.903 86.7482C165.948 86.7562 165.986 86.8351 166.024 86.8811L166.023 86.8875Z" fill="black"/>
<path d="M191.005 91.1706C191.049 91.2178 191.138 91.3058 191.129 91.3174C191.059 91.4162 190.965 91.5041 190.877 91.5932C190.841 91.5344 190.785 91.485 190.776 91.4244C190.742 91.248 190.822 91.1642 191.005 91.1706Z" fill="black"/>
<path d="M176.362 86.7733C176.327 86.7145 176.258 86.6236 176.276 86.5941C176.366 86.4594 176.501 86.4377 176.634 86.5337C176.687 86.5693 176.706 86.6449 176.742 86.7036C176.613 86.7264 176.491 86.7504 176.362 86.7733Z" fill="black"/>
<path d="M200.303 88.8193C200.241 88.8408 200.166 88.8929 200.124 88.8723C199.979 88.8006 199.955 88.6783 200.056 88.5523C200.097 88.5072 200.165 88.4932 200.222 88.4705C200.247 88.5864 200.272 88.7023 200.297 88.8182L200.303 88.8193Z" fill="black"/>
<path d="M160.429 90.3151C160.483 90.3443 160.576 90.3741 160.576 90.4133C160.586 90.5396 160.486 90.5872 160.326 90.5259C160.288 90.5191 160.277 90.432 160.261 90.3767C160.318 90.354 160.38 90.3325 160.436 90.3162L160.429 90.3151Z" fill="black"/>
<path d="M213.413 75.6846C213.468 75.6747 213.533 75.6404 213.575 75.6611C213.739 75.7299 213.744 75.8158 213.584 75.8659C213.543 75.8781 213.47 75.8454 213.425 75.8046C213.402 75.7873 213.413 75.7238 213.408 75.6771L213.413 75.6846Z" fill="black"/>
<path d="M214.418 71.3175C214.391 71.3585 214.358 71.4313 214.338 71.4342C214.281 71.424 214.178 71.3793 214.182 71.3539C214.189 71.2045 214.283 71.195 214.418 71.3175Z" fill="black"/>
<path d="M189.345 77.9336C189.404 78.0095 189.461 78.0919 189.513 78.1667C189.462 78.1969 189.392 78.2565 189.355 78.2433C189.252 78.1986 189.161 78.1232 189.067 78.0606C189.16 78.0183 189.253 77.9759 189.345 77.9336Z" fill="black"/>
<path d="M192.924 82.9379C192.878 82.9755 192.81 83.0617 192.786 83.0508C192.684 82.9997 192.594 82.918 192.501 82.8491C192.617 82.824 192.729 82.785 192.841 82.7789C192.867 82.7835 192.895 82.8803 192.924 82.9379Z" fill="black"/>
<path d="M212.539 80.2388L212.511 80.1028L212.629 80.1371L212.539 80.2388Z" fill="black"/>
<path d="M215.448 41.0488C215.392 41.1044 215.336 41.1599 215.281 41.2154C215.25 41.1642 215.182 41.1061 215.19 41.0617C215.198 41.0172 215.278 40.9726 215.332 40.9626C215.36 40.9545 215.408 41.0155 215.448 41.0488Z" fill="black"/>
<path d="M171.761 71.3781C171.712 71.6511 171.523 71.722 171.28 71.7244L171.312 71.7629C171.361 71.4899 171.551 71.4191 171.794 71.4167L171.761 71.3781Z" fill="black"/>
<path d="M184.738 77.1741L184.76 77.309L184.642 77.2684L184.738 77.1741Z" fill="black"/>
<path d="M218.659 35.0065C218.602 35.0355 218.537 35.1026 218.493 35.0946C218.448 35.0866 218.425 34.9973 218.39 34.9386C218.447 34.9096 218.512 34.8425 218.555 34.8568C218.6 34.8647 218.623 34.9541 218.659 35.0065Z" fill="black"/>
<path d="M195.36 81.2643C195.316 81.2892 195.241 81.3413 195.223 81.3316C195.091 81.2293 195.118 81.149 195.284 81.1393C195.303 81.1427 195.334 81.2269 195.359 81.2707L195.36 81.2643Z" fill="black"/>
<path d="M193.135 67.4151C193.166 67.4663 193.225 67.536 193.215 67.5539C193.111 67.6989 193.029 67.6778 193.002 67.5025C192.999 67.4823 193.09 67.4463 193.135 67.4151Z" fill="black"/>
<path d="M209.212 75.07L209.191 74.9351L209.308 74.9757L209.212 75.07Z" fill="black"/>
<path d="M199.592 55.5782L199.658 55.6094L199.651 55.5369L199.592 55.5782Z" fill="black"/>
<path d="M199.652 55.5371C199.475 55.5381 199.414 55.4748 199.489 55.3506C199.49 55.3442 199.609 55.3722 199.611 55.3987C199.627 55.4541 199.603 55.5153 199.592 55.5787L199.652 55.5371Z" fill="black"/>
</g>
<g clip-path="url(#clip1_449_1595)">
<path d="M60.2938 130.556C58.8008 129.363 57.6582 127.791 56.9955 126.005C55.6015 121.287 62.6704 120.71 65.7021 121.424C66.9361 121.705 68.1168 122.161 69.2213 122.776C72.2682 121.667 75.3456 120.649 78.4611 119.737C77.8898 119.578 77.3261 119.41 76.7548 119.236C72.2073 117.807 68.2996 114.761 68.3224 110.042C63.8511 109.412 60.5147 105.628 60.4613 101.123C60.5071 100.409 60.6518 99.7172 60.9032 99.0486C60.3928 98.8435 59.8977 98.6003 59.4254 98.3344C55.4111 96.0247 50.7188 90.1745 54.238 85.6158C56.9802 82.0829 62.3504 81.665 66.4562 81.9006C71.5598 82.0373 76.4501 84.0355 80.1902 87.5077C82.2012 89.6046 83.9989 91.8991 85.5452 94.3532C87.1905 96.6553 88.7216 99.0334 90.1156 101.495C91.0754 88.8373 102.996 86.4744 108.633 94.0797C110.18 93.8366 111.726 93.677 113.295 93.601C123.205 93.1148 122.39 96.8225 114.202 102.695C113.272 103.356 112.343 103.995 111.383 104.618C118.277 118.742 114.689 134.332 98.2052 140.183C89.4681 143.062 79.8627 141.277 72.7405 135.464C67.0427 137.896 54.0323 142.865 53.9638 136.627C53.9333 133.679 57.5363 131.574 60.2861 130.549L60.2938 130.556ZM67.0808 96.4198C66.2048 96.4654 65.3669 96.7845 64.6813 97.3163C64.4985 97.4531 64.3157 97.605 64.1557 97.7646C67.7664 98.1749 69.9221 96.3286 67.0808 96.4198ZM72.8014 107.877C79.1009 106.388 72.7481 104.291 70.8361 108.143C71.4988 108.105 72.1539 108.021 72.8014 107.877Z" fill="#DB433B"/>
<path d="M107.254 96.0703C107.414 96.1387 107.597 96.1614 107.772 96.1387C109.7 95.812 111.65 95.5992 113.6 95.5156C115.359 95.3333 117.127 95.5004 118.825 96.0095C118.193 96.944 117.431 97.7874 116.555 98.5015C114.118 100.523 111.566 102.392 108.9 104.101C108.184 101.465 107.635 98.7903 107.254 96.0855V96.0703Z" fill="#E7BB43"/>
<path d="M55.4263 99.4209L54.9311 99.1778C54.596 99.0106 54.2532 98.8663 53.9485 98.6611C53.3239 98.2736 52.7221 97.8558 52.1584 97.3847C51.0234 96.4502 50.0027 95.3941 49.142 94.2013C48.2812 93.0084 47.5804 91.6712 47.23 90.2049C46.872 88.7461 46.9558 87.1278 47.5957 85.7298C48.2355 84.3394 49.2867 83.1922 50.5207 82.3412C51.7699 81.5055 53.1715 80.9585 54.5884 80.6014C57.4449 79.8872 60.3928 79.9176 63.2493 80.0999C69.0537 80.533 74.7209 83.1542 78.6058 87.5229C79.5579 88.6018 80.472 89.7186 81.3328 90.8659C82.2012 92.0055 82.9705 93.2591 83.7627 94.3912C84.593 95.5613 85.3852 96.7541 86.1545 97.9621C86.5354 98.5699 86.9163 99.1778 87.2819 99.7932L87.6628 100.439L87.7618 99.7248C87.7846 99.3677 87.8913 99.0258 87.9827 98.6763L88.2645 97.6354C88.6759 96.2602 89.2776 94.9306 90.0698 93.715C90.245 93.3959 90.4888 93.1224 90.7173 92.8413L91.4181 91.9979C91.6619 91.732 91.9589 91.5117 92.2332 91.261C92.515 91.033 92.7588 90.7595 93.0787 90.5696C93.7109 90.2049 94.2975 89.7414 94.9983 89.5059C95.341 89.3691 95.6762 89.2248 96.019 89.0956L97.093 88.8373C99.9724 88.1687 103.057 88.9664 105.464 90.5772C105.784 90.7519 106.059 90.995 106.333 91.2382L107.155 91.9523C107.422 92.2031 107.643 92.4918 107.887 92.7653L108.237 93.1756L108.329 93.2819C108.329 93.2819 108.336 93.2895 108.351 93.2819L109.22 93.1604L110.271 93.0312C110.979 92.9552 111.68 92.8945 112.389 92.8489C113.805 92.7577 115.222 92.7121 116.654 92.8033C117.378 92.8565 118.094 92.94 118.818 93.1072C119.534 93.2819 120.28 93.5251 120.92 94.1101C121.232 94.4064 121.484 94.8243 121.56 95.2725C121.644 95.7284 121.552 96.1463 121.438 96.5338C121.179 97.2935 120.752 97.9089 120.295 98.4788C119.374 99.6184 118.315 100.576 117.226 101.48C116.129 102.376 115.001 103.235 113.836 104.025L112.092 105.218L111.741 105.453L112.092 106.259C113.31 108.827 114.095 111.57 114.681 114.343C115.215 117.139 115.321 119.995 115.093 122.837C114.788 125.671 114.011 128.444 112.823 131.043C111.596 133.633 109.837 135.928 107.833 137.964C106.752 138.891 105.723 139.894 104.512 140.646L103.629 141.254C103.339 141.459 103.042 141.664 102.722 141.816L100.841 142.827C100.231 143.191 99.5534 143.434 98.8983 143.708L96.9254 144.521C96.2399 144.718 95.5543 144.939 94.8611 145.114C94.168 145.258 93.4824 145.455 92.774 145.554C89.9632 146.048 87.0915 146.132 84.2578 145.828C81.4166 145.524 78.6362 144.764 76.0083 143.67L75.0333 143.244L74.0735 142.773C73.426 142.469 72.8242 142.09 72.2072 141.74C71.5826 141.391 71.0113 140.958 70.4095 140.578C70.1125 140.38 69.8382 140.152 69.5564 139.939L69.1298 139.613L68.9394 139.468L66.9589 140.289C66.2048 140.585 65.4507 140.882 64.6965 141.163C63.1807 141.725 61.642 142.242 60.0804 142.697C57.78 143.351 55.4263 143.936 52.943 143.951C51.8614 143.951 50.8787 143.791 50.0941 143.396C49.3019 143.017 48.7916 142.386 48.5783 141.846C48.4793 141.573 48.4107 141.33 48.4031 141.117C48.3726 140.912 48.3726 140.737 48.3955 140.6C48.4259 140.319 48.4793 140.19 48.5402 140.19C48.4564 140.205 48.2203 139.643 48.5326 138.549C48.8297 137.463 49.8885 136.042 51.7014 134.879C52.2651 134.522 52.8516 134.196 53.4458 133.899C53.7428 133.763 54.0399 133.618 54.3446 133.489L54.5198 133.413L54.4589 133.352C54.238 133.155 54.0323 132.942 53.8266 132.729C53.4229 132.289 53.0573 131.825 52.7221 131.339C52.2346 130.632 51.8233 129.865 51.5033 129.067C51.1606 128.209 51.0463 127.274 51.3053 126.34C51.5643 125.397 52.2651 124.653 53.0192 124.174C53.7885 123.688 54.6188 123.399 55.4643 123.202C57.1478 122.822 58.8617 122.769 60.5756 122.989C61.4363 123.111 62.259 123.338 63.0664 123.62C63.4702 123.764 63.8663 123.916 64.2547 124.098C64.4528 124.182 64.6432 124.273 64.8337 124.372L65.2145 124.569L70.1962 122.928C71.7197 122.412 74.4772 121.561 73.5783 121.781L73.2965 121.697L72.8471 121.545C72.6338 121.469 72.4053 121.401 72.192 121.317C71.316 120.991 70.4705 120.603 69.6478 120.163C68.8327 119.699 68.0482 119.175 67.3245 118.575C66.6085 117.959 65.9534 117.268 65.3897 116.493C64.8489 115.71 64.4147 114.844 64.1176 113.933C63.9881 113.469 63.8663 113.006 63.8129 112.535C63.7672 112.299 63.752 112.056 63.7444 111.82V111.638V111.608C63.7444 111.608 63.7368 111.6 63.6834 111.592L63.333 111.532C63.0969 111.486 62.876 111.41 62.6399 111.349C62.1828 111.235 61.741 111.038 61.2992 110.863C60.4308 110.476 59.6234 109.951 58.8921 109.343C57.4372 108.128 56.3023 106.51 55.7081 104.701C55.3958 103.797 55.213 102.87 55.1749 101.898C55.1597 101.67 55.1444 101.411 55.1749 101.161C55.1977 100.925 55.2282 100.682 55.2739 100.447C55.312 100.211 55.3729 99.9755 55.4339 99.74L55.5177 99.4665L55.4339 99.4209H55.4263ZM111.901 101.487C113.12 100.652 114.293 99.7628 115.436 98.8131L116.289 98.0913C116.586 97.8634 116.845 97.643 117.096 97.3923C117.347 97.1416 117.591 96.8833 117.812 96.6097L118.048 96.2982L117.987 96.283C117.751 96.2299 117.507 96.1843 117.271 96.1463C116.791 96.0627 116.304 96.0019 115.816 95.9715C114.841 95.888 113.882 95.9715 112.868 96.0323C111.871 96.0931 110.88 96.1843 109.898 96.3134L109.479 96.3742L110.416 102.475C110.918 102.148 111.414 101.822 111.901 101.487ZM50.6654 141.11L50.734 141.041L50.6959 141.072L50.6654 141.102V141.11ZM50.8102 140.897C50.8102 140.897 50.7949 140.904 50.7873 140.912C50.7188 140.942 50.6502 140.98 50.6121 141.011L50.7111 140.98H50.734L50.7949 140.958C50.8025 140.958 50.8178 140.95 50.8178 140.95L50.9397 140.828C50.9397 140.828 50.8559 140.866 50.8102 140.897ZM56.7669 96.5262L57.003 96.6249C57.003 96.6249 56.9878 96.6553 57.0335 96.6097C57.2468 96.321 57.4982 96.0627 57.7572 95.8044C58.7931 94.8015 60.1033 94.0417 61.543 93.7302C62.259 93.5783 63.0055 93.5251 63.752 93.6314C64.4985 93.7378 65.2526 94.0113 65.862 94.528C66.1743 94.7863 66.3876 95.0978 66.6237 95.4017C66.8142 95.7436 67.0198 96.1007 67.0655 96.5338C67.2255 97.3847 66.8142 98.2508 66.2581 98.7827C65.702 99.3449 65.0317 99.6868 64.3538 99.9527C63.6758 100.234 62.9674 100.371 62.259 100.485C61.901 100.53 61.543 100.553 61.1926 100.583C60.8346 100.583 60.4765 100.591 60.1185 100.583C59.7681 100.545 59.4101 100.538 59.0597 100.485C59.0597 100.485 58.6255 100.416 58.6179 100.431C58.6179 100.462 58.5265 100.864 58.5037 101.115C58.458 101.427 58.4427 101.746 58.458 102.057C58.4732 102.696 58.5874 103.326 58.7931 103.926C59.2121 105.134 59.9967 106.175 61.0402 106.95C61.5506 107.345 62.1143 107.68 62.7008 107.946C62.9979 108.075 63.3026 108.189 63.6149 108.28C63.8205 108.348 64.1481 108.432 64.2471 108.447C64.2471 108.432 64.2471 108.424 64.2547 108.401C64.3309 108.234 64.3842 108.059 64.468 107.9C64.6585 107.588 64.7956 107.239 65.0241 106.958C65.4278 106.342 65.961 105.826 66.5323 105.362C67.7054 104.481 69.1527 103.942 70.6533 103.972C71.3998 103.995 72.1615 104.154 72.8471 104.511L73.3422 104.823C73.4946 104.944 73.6317 105.081 73.7764 105.21C74.0582 105.476 74.302 105.811 74.4696 106.175C74.8123 106.905 74.8504 107.763 74.5838 108.531C74.2944 109.374 73.7002 109.754 72.969 110.187C71.7349 110.901 70.3791 111.402 68.9775 111.661C68.6271 111.729 68.2767 111.775 67.9263 111.813L67.3931 111.851L66.9589 111.866C66.9589 111.866 66.9589 111.896 66.9665 111.942C67.0122 112.253 67.0655 112.573 67.1646 112.869C67.515 114.084 68.2919 115.156 69.2669 116.007C71.2322 117.724 73.9135 118.59 76.4729 119.296C77.7907 119.616 79.078 119.806 80.472 119.882C80.7158 119.904 80.9443 119.988 81.15 120.109C81.2566 120.17 81.348 120.246 81.4394 120.33L81.5004 120.391C81.5004 120.391 81.5232 120.413 81.5308 120.429C81.5537 120.451 81.6146 120.505 81.6451 120.55C81.965 120.922 82.0945 121.447 81.9879 121.925C81.9345 122.161 81.8279 122.381 81.6679 122.579C81.5004 122.784 81.2718 122.936 81.0205 123.012C80.9062 123.05 80.7386 123.073 80.6548 123.073C80.6548 123.073 80.6472 123.073 80.6244 123.073L80.5025 123.111L80.0074 123.24C77.3718 123.961 74.7514 124.736 72.1463 125.572C70.8513 125.99 69.5564 126.423 68.2614 126.871L66.3343 127.586L65.8163 127.745C65.6716 127.791 65.443 127.859 65.2145 127.867C64.986 127.882 64.7575 127.852 64.5366 127.791C64.4299 127.753 64.3233 127.715 64.2243 127.662C64.1176 127.608 64.011 127.54 63.9805 127.517C62.876 126.864 61.7639 126.355 60.5375 126.142C59.3263 125.899 58.0695 125.922 56.8659 126.18C56.2642 126.317 55.67 126.499 55.1063 126.75C54.4055 127.099 54.3217 127.016 54.4132 127.631C54.535 128.133 54.855 128.672 55.213 129.166C55.571 129.66 55.9899 130.138 56.4241 130.594C56.8659 131.05 57.323 131.491 57.8029 131.909C58.039 132.121 58.2828 132.327 58.5265 132.517L58.7093 132.668C58.7703 132.714 58.8921 132.813 58.9607 132.896C59.1207 133.079 59.2197 133.284 59.2806 133.497C59.4101 133.922 59.3796 134.386 59.1511 134.803C59.0369 135.016 58.8617 135.198 58.6484 135.328C58.5417 135.396 58.4275 135.434 58.3132 135.48L58.0771 135.54C57.4677 135.715 56.8659 135.92 56.2794 136.156C55.114 136.619 53.9637 137.212 52.9506 137.918C52.4479 138.276 51.968 138.671 51.6481 139.119C51.4805 139.347 51.3662 139.582 51.3129 139.818C51.2901 139.932 51.2824 140.053 51.2901 140.167L51.3129 140.342C51.3129 140.342 51.3358 140.426 51.3434 140.449C51.351 140.456 51.3891 140.509 51.4195 140.555C51.4653 140.585 51.549 140.6 51.6024 140.638C51.7623 140.692 51.9375 140.737 52.1356 140.76C52.5164 140.813 52.9278 140.813 53.3467 140.775C54.7255 140.676 56.1271 140.35 57.5058 139.993C58.8845 139.628 60.248 139.202 61.6115 138.747C66.3724 137.113 68.749 136.277 68.8556 136.505C68.8327 136.46 68.9546 136.3 69.3279 136.255C69.5031 136.232 69.7544 136.255 70.0134 136.391C70.2724 136.543 70.4552 136.68 70.7295 136.87C71.7502 137.599 73.2736 138.678 75.4751 139.825C76.77 140.486 78.1106 141.049 79.4818 141.505C80.8681 141.93 82.2773 142.302 83.717 142.507C86.604 142.941 89.5823 142.925 92.4617 142.401C95.341 141.907 98.1137 140.821 100.643 139.362C103.149 137.865 105.426 135.958 107.27 133.687C108.191 132.562 109.045 131.354 109.738 130.085C110.37 128.801 110.896 127.441 111.216 126.02C112.549 120.33 111.741 114.244 109.677 108.781C109.403 108.052 109.128 107.285 108.74 106.608C108.153 105.583 107.856 104.671 107.673 103.516C107.567 102.817 107.453 102.118 107.346 101.419C107.133 100.051 106.919 98.6763 106.721 97.3087C106.63 96.6401 106.462 96.1235 106.051 95.584C105.914 95.3789 105.762 95.189 105.609 95.0066C105.457 94.8091 105.304 94.6267 105.137 94.452C104.977 94.2772 104.809 94.1025 104.634 93.9353C103.941 93.2743 103.156 92.7121 102.296 92.3246C101.443 91.9371 100.513 91.732 99.5763 91.7624C99.203 91.7776 98.8298 91.8232 98.4565 91.8992C97.8395 92.0359 97.2225 92.2183 96.6284 92.4386C96.537 92.469 96.4532 92.507 96.3618 92.5374C95.7219 92.7881 95.0744 93.0616 94.526 93.4795C93.8404 94.0037 93.2539 94.6647 92.7664 95.3941C91.7914 96.8605 91.2201 98.5927 90.9154 100.355C90.763 101.237 90.6716 102.148 90.6259 103.037C90.6183 103.942 90.6335 104.861 90.6792 105.765C90.7706 107.596 90.9611 109.412 91.2581 111.213C91.5552 113.013 91.9589 114.799 92.4617 116.554L92.8502 117.868C92.934 118.111 93.0025 118.476 92.9187 118.795C92.8426 119.122 92.6674 119.426 92.4236 119.631C91.9589 120.041 91.2734 120.254 90.6107 119.95C90.2907 119.813 90.0394 119.517 89.9175 119.228C89.8413 119.069 89.8185 118.962 89.7804 118.856L89.6737 118.522C89.1101 116.744 88.6454 114.943 88.2874 113.112C88.1046 112.2 87.9522 111.281 87.8227 110.354L87.6552 108.971L87.5257 107.657L87.1829 106.851L86.7944 105.985C86.5354 105.408 86.2612 104.838 85.987 104.268C85.4233 103.129 84.8291 102.012 84.1893 100.918C82.9172 98.7067 81.5384 96.6249 79.9693 94.566C78.7734 92.5222 77.3565 90.7367 75.6807 89.126C74.0201 87.5305 72.1006 86.1553 70.0896 85.0992C65.2145 83.0098 59.4558 82.516 54.3751 84.0507C53.1334 84.4686 51.9451 85.0916 51.1377 86.0413C50.7492 86.52 50.4445 87.0594 50.2998 87.652C50.2846 87.69 50.2922 87.6672 50.2846 87.6976V87.8192L50.2693 88.0547C50.277 88.2143 50.2693 88.3738 50.2769 88.5334C50.2922 88.8525 50.3379 89.1716 50.3912 89.4831C50.635 90.7367 51.2444 91.922 52.1203 92.8489L52.2879 93.0236L52.3717 93.1072C52.3717 93.1072 52.4936 93.2288 52.4936 93.244L52.8211 93.6162C52.9887 93.8062 53.1563 93.9885 53.3391 94.1633C53.8647 94.6723 54.436 95.151 55.0454 95.5537C55.5938 95.9183 56.1651 96.245 56.7669 96.5186V96.5262ZM60.9641 97.3999C61.4135 97.3923 61.8553 97.3543 62.2971 97.2631C62.6475 97.1948 62.9979 97.096 63.3026 96.9668C63.3787 96.9364 63.4625 96.8909 63.5082 96.8681L63.5387 96.8453H63.5082L63.394 96.8301C63.3102 96.8225 63.2264 96.8225 63.135 96.8225C62.7846 96.8073 62.4494 96.8453 62.1143 96.9288C61.7105 97.0276 61.3221 97.1796 60.9641 97.3999ZM67.8653 108.561C68.5738 108.47 69.2746 108.31 69.9677 108.097C70.3714 107.961 70.7828 107.816 71.1256 107.626C71.2017 107.573 71.3008 107.528 71.3617 107.474L71.4607 107.398L71.5064 107.353C71.5064 107.353 71.3084 107.262 71.1789 107.247C71.0037 107.216 70.8056 107.209 70.6152 107.216C70.2191 107.231 69.8154 107.323 69.4421 107.459C68.8251 107.687 68.2767 108.067 67.8653 108.561Z" fill="black"/>
<path d="M50.6122 141.011L50.7112 140.98L50.7874 140.912C50.7188 140.942 50.6502 140.98 50.6122 141.011Z" fill="#010101"/>
<path d="M97.0397 99.4893C97.7558 99.3753 98.1595 99.9528 98.4642 100.507C98.8527 101.214 99.2107 101.776 100.003 102.118C101.244 102.658 101.816 101.662 101.938 100.568C102.044 99.6564 101.496 97.9546 102.821 97.6962C103.438 97.5747 104.032 97.9697 104.162 98.5776C104.855 103.957 101.488 105.704 98.4946 103.942C96.7046 102.923 95.0821 99.8008 97.0397 99.4893Z" fill="black"/>
<path d="M48.3574 57.2613C48.2889 56.6382 48.7383 56.0836 49.3629 56.0076C54.3523 55.8633 59.2655 57.2461 63.4397 59.966C63.9273 60.3535 64.0187 61.0601 63.6378 61.5616C63.2417 62.0402 62.5409 62.1314 62.0458 61.7591C58.3514 59.3658 54.0171 58.1502 49.6143 58.2641C48.9973 58.3173 48.4412 57.8767 48.3574 57.2613Z" fill="#3D9CFB"/>
<path d="M45.4933 64.7982C51.511 61.0449 59.6387 64.517 57.9705 66.6596C57.582 67.1459 56.8736 67.2294 56.3785 66.8571C53.6286 65.0261 50.0865 64.8589 47.1691 66.4241C46.4988 66.8116 45.8056 67.1231 45.2572 66.3861C44.8839 65.8846 44.9906 65.1704 45.4933 64.7982Z" fill="#3D9CFB"/>
<path d="M39.7118 161.563C46.2855 162.132 52.8669 160.613 58.5265 157.232C59.7682 156.48 61.1393 158.296 59.8824 159.048C53.7276 162.763 46.5521 164.435 39.3842 163.804C37.9217 163.675 38.2568 161.433 39.7118 161.563Z" fill="#3D9CFB"/>
<path d="M38.2568 171.409C43.7793 172.169 49.4009 171.607 54.6568 169.768C56.0356 169.289 56.8735 171.394 55.4795 171.88C49.8503 173.848 43.8326 174.456 37.9216 173.651C36.4819 173.438 36.8095 171.204 38.2491 171.409H38.2568Z" fill="#3D9CFB"/>
<path d="M63.6072 134.614C63.7596 134.439 63.9043 134.332 63.95 134.196C64.1633 133.618 64.0719 133.094 63.6225 132.653C63.2111 132.251 62.3961 132.456 62.2437 132.995C62.0762 133.603 62.3732 134.325 62.9674 134.614C63.1502 134.705 63.4168 134.614 63.5996 134.614H63.6072Z" fill="black"/>
<path d="M76.3816 137.394C76.7396 137.827 77.4252 137.979 77.8974 137.653C78.0574 137.546 78.1793 137.242 78.1564 137.045C78.0802 136.338 77.3947 135.951 76.732 136.186C76.2826 136.346 76.0845 137.037 76.3816 137.394Z" fill="black"/>
<path d="M50.4217 137.956C49.9799 138.207 49.8732 138.655 50.0256 138.914C50.3074 139.4 51.1225 139.537 51.45 139.111C51.6328 138.876 51.709 138.549 51.7928 138.253C51.8461 138.07 51.5414 137.767 51.351 137.797C50.9701 137.85 50.5892 137.926 50.4217 137.956Z" fill="black"/>
<path d="M90.3365 140.722C90.6564 141.056 91.3343 141.072 91.5857 140.745C91.8142 140.449 91.8294 139.924 91.6009 139.651C91.2962 139.279 90.6488 139.271 90.3745 139.636C90.1232 139.962 90.1003 140.479 90.3365 140.722Z" fill="black"/>
<path d="M104.695 131.567C104.528 131.255 104.002 131.058 103.652 131.179C103.255 131.316 103.042 131.947 103.255 132.395C103.415 132.729 103.926 132.927 104.276 132.775C104.71 132.592 104.924 131.977 104.703 131.567H104.695Z" fill="black"/>
<path d="M70.5467 132.251C70.7295 132.304 70.9428 132.433 71.1484 132.41C71.3617 132.395 71.5826 132.258 71.7731 132.144C72.0778 131.954 72.1844 131.62 72.0701 131.362C71.9254 131.035 71.6436 130.921 71.3313 130.913C70.859 130.898 70.4476 131.278 70.4096 131.764C70.3943 131.901 70.4857 132.053 70.5391 132.251H70.5467Z" fill="black"/>
<path d="M89.3005 129.014C89.5138 129.379 89.8718 129.523 90.2526 129.591C90.6259 129.66 91.0829 129.363 91.1439 129.029C91.2277 128.581 90.8696 128.057 90.4431 127.988C89.9708 127.92 89.4909 128.148 89.3005 128.573C89.2472 128.695 89.3005 128.862 89.3005 129.006V129.014Z" fill="black"/>
<path d="M101.039 127.874C101.168 127.965 101.283 128.087 101.427 128.133C101.572 128.178 101.747 128.163 101.9 128.133C102.288 128.041 102.646 127.616 102.638 127.297C102.631 126.955 102.136 126.583 101.778 126.636C101.267 126.712 100.932 127.145 100.985 127.646C100.993 127.722 101.024 127.798 101.046 127.882L101.039 127.874Z" fill="black"/>
<path d="M97.8014 127.51C98.4032 127.084 98.487 126.537 98.0909 126.005C97.8929 125.747 97.4282 125.671 97.2606 125.914C97.0778 126.165 96.9255 126.454 96.8264 126.75C96.7198 127.069 96.9178 127.487 97.1997 127.54C97.4206 127.578 97.6567 127.517 97.8091 127.51H97.8014Z" fill="black"/>
<path d="M65.2451 138.276C65.3822 138.329 65.5955 138.435 65.824 138.481C66.1439 138.557 66.4562 138.321 66.5248 137.987C66.5933 137.675 66.4334 137.333 66.1363 137.174C65.8392 137.014 65.5269 136.938 65.2222 137.128C64.9251 137.326 64.9099 137.964 65.2374 138.268L65.2451 138.276Z" fill="black"/>
<path d="M102.829 123.832C102.722 123.597 102.296 123.422 102.037 123.513C101.465 123.718 101.26 124.288 101.587 124.805C101.724 125.025 102.189 125.147 102.41 125.025C102.798 124.82 103.004 124.227 102.829 123.825V123.832Z" fill="black"/>
<path d="M81.7975 115.422C81.4928 115.604 81.3938 116.09 81.5918 116.455C81.8127 116.858 82.2545 117.002 82.5592 116.774C82.8944 116.516 82.9934 116.098 82.803 115.733C82.6202 115.384 82.1174 115.224 81.7975 115.422Z" fill="black"/>
<path d="M56.8887 128.133C56.8507 128.361 56.7288 128.604 56.7973 128.778C56.8659 128.968 57.0716 129.158 57.2696 129.257C57.7038 129.47 58.138 129.288 58.2142 128.908C58.2903 128.497 58.0466 128.087 57.6352 128.041C57.4143 128.019 57.1858 128.095 56.8887 128.133Z" fill="black"/>
<path d="M84.9662 139.233C85.2632 138.982 85.2632 138.526 84.9662 138.23C84.6843 137.949 84.1816 137.957 83.9607 138.238C83.7626 138.481 83.7702 138.838 83.9607 139.073C84.2273 139.392 84.6919 139.468 84.9738 139.233H84.9662Z" fill="black"/>
<path d="M78.8115 125.405C78.4992 125.557 78.3925 126.119 78.6058 126.431C78.8267 126.75 79.3675 126.894 79.6342 126.697C79.9312 126.484 80.0531 125.937 79.8627 125.648C79.6799 125.359 79.1466 125.238 78.8115 125.405Z" fill="black"/>
<path d="M78.4153 122.313C78.1944 121.69 77.7145 121.492 77.1051 121.523C76.8157 121.538 76.5262 121.849 76.5186 122.161C76.5034 122.541 76.8918 122.974 77.2422 122.936C77.7297 122.875 78.1716 122.723 78.4305 122.26L78.4153 122.313Z" fill="black"/>
<path d="M73.5403 131.848C73.5403 132.023 73.4717 132.296 73.5784 132.425C73.9592 132.912 74.462 132.965 75.0333 132.661C75.239 132.554 75.3761 132.235 75.277 132.068C75.2009 131.947 75.0866 131.78 74.9647 131.764C74.5839 131.704 74.1954 131.696 73.8069 131.688C73.746 131.688 73.6774 131.764 73.5479 131.848H73.5403Z" fill="black"/>
<path d="M105.739 121.059C105.495 121.219 105.411 121.637 105.571 121.872C105.739 122.108 106.165 122.229 106.386 122.1C106.744 121.88 106.912 121.439 106.752 121.12C106.607 120.831 106.12 120.801 105.731 121.059H105.739Z" fill="black"/>
<path d="M69.762 135.639C69.922 135.958 70.44 136.125 70.7827 135.981C71.0113 135.882 71.1788 135.426 71.0798 135.176C70.897 134.712 70.3105 134.515 69.9296 134.796C69.6935 134.963 69.6173 135.366 69.7544 135.647L69.762 135.639Z" fill="black"/>
<path d="M98.9441 119.935C99.2031 120.261 99.6677 120.284 99.942 119.988C100.186 119.722 100.163 119.266 99.8886 118.947C99.6906 118.711 99.2945 118.696 99.066 118.901C98.7689 119.175 98.708 119.638 98.9365 119.935H98.9441Z" fill="black"/>
<path d="M53.6895 139.18C53.9333 139.514 54.4284 139.582 54.695 139.316C54.9159 139.104 54.954 138.754 54.794 138.458C54.6265 138.154 54.0399 137.949 53.7886 138.108C53.5372 138.268 53.4839 138.883 53.6895 139.172V139.18Z" fill="black"/>
<path d="M77.4251 132.76C77.2651 132.889 77.2346 133.208 77.3489 133.383C77.5393 133.664 77.7983 133.778 78.1335 133.747C78.4077 133.717 78.7505 133.375 78.6895 133.117C78.6438 132.927 78.4686 132.706 78.2858 132.631C78.004 132.501 77.6841 132.532 77.4251 132.767V132.76Z" fill="black"/>
<path d="M54.9844 135.806C55.2205 136.072 55.6623 136.034 55.7461 135.738C55.8071 135.518 55.8299 135.282 55.8223 135.054C55.8147 134.781 55.6014 134.591 55.3881 134.606C55.1444 134.629 54.9235 134.705 54.8321 134.955C54.7178 135.267 54.733 135.571 54.9844 135.806Z" fill="black"/>
<path d="M80.7538 119.608C80.8376 119.882 81.3251 119.942 81.5765 119.692C81.805 119.456 81.9117 119.167 81.866 118.825C81.8279 118.514 81.4394 118.294 81.1575 118.43C80.6929 118.658 80.5177 119.175 80.7614 119.608H80.7538Z" fill="black"/>
<path d="M102.532 139.18C102.578 138.952 102.707 138.716 102.638 138.572C102.555 138.397 102.326 138.23 102.128 138.2C101.938 138.169 101.679 138.253 101.511 138.367C101.359 138.473 101.572 139.035 101.823 139.127C102.014 139.195 102.25 139.165 102.532 139.18Z" fill="black"/>
<path d="M55.9824 131.552C55.632 131.704 55.4872 132.129 55.632 132.372C55.731 132.539 56.0585 132.638 56.2566 132.57C56.5232 132.471 56.706 132.007 56.508 131.802C56.3708 131.658 56.1195 131.62 55.9824 131.552Z" fill="black"/>
<path d="M98.5174 122.738C98.4564 122.981 98.3574 123.187 98.3803 123.369C98.4031 123.574 98.7307 123.635 98.9592 123.513C99.2944 123.331 99.4315 122.905 99.1877 122.791C99.0125 122.716 98.784 122.754 98.525 122.731L98.5174 122.738Z" fill="black"/>
<path d="M108.016 129.12C108.138 129.181 108.321 129.325 108.527 129.371C108.717 129.417 108.938 129.105 108.915 128.892C108.885 128.566 108.588 128.285 108.298 128.307C108.016 128.33 107.826 128.748 108.016 129.12Z" fill="black"/>
<path d="M105.282 124.607C105.205 124.744 105.106 124.873 105.053 125.025C104.977 125.253 105.244 125.496 105.503 125.451C105.769 125.397 105.906 125.23 105.944 124.957C105.975 124.767 105.921 124.615 105.739 124.577C105.594 124.547 105.434 124.6 105.282 124.615V124.607Z" fill="black"/>
<path d="M79.1086 122.419C79.2685 122.928 79.6113 123.164 80.1445 123.141C80.3654 123.133 80.5635 122.959 80.5863 122.7C80.6016 122.457 80.5406 122.244 80.2892 122.146C79.8094 121.963 79.3904 121.978 79.1009 122.472L79.1162 122.419H79.1086Z" fill="black"/>
<path d="M81.7518 130.533C81.9194 130.564 82.1403 130.663 82.3459 130.632C82.5135 130.609 82.5973 130.176 82.4678 130.017C82.3307 129.857 82.1326 129.728 81.9422 129.629C81.767 129.538 81.6299 129.629 81.5918 129.819C81.5766 129.895 81.5537 129.979 81.569 130.047C81.607 130.192 81.6756 130.328 81.7594 130.541L81.7518 130.533Z" fill="black"/>
<path d="M64.2775 130.359C64.2775 130.207 64.3232 129.956 64.2318 129.797C64.0871 129.546 63.5615 129.546 63.4244 129.781C63.3558 129.895 63.3558 130.1 63.4244 130.222C63.5843 130.526 63.9957 130.61 64.2851 130.359H64.2775Z" fill="black"/>
<path d="M71.4455 128.361C71.5979 128.383 71.8188 128.459 72.0168 128.421C72.2453 128.383 72.3596 128.041 72.2072 127.851C72.0777 127.692 71.8568 127.532 71.6588 127.525C71.4074 127.51 71.2475 128.041 71.4455 128.368V128.361Z" fill="black"/>
<path d="M78.8191 130.222C78.8953 130.085 79.0019 129.964 79.0476 129.819C79.1162 129.599 78.941 129.348 78.6972 129.287C78.4687 129.234 78.2326 129.394 78.1869 129.667C78.164 129.812 78.1869 129.971 78.225 130.116C78.2935 130.351 78.6363 130.404 78.8191 130.222Z" fill="black"/>
<path d="M90.3288 125.42C90.5345 125.367 90.7478 125.322 90.9458 125.253C90.9839 125.238 91.0144 125.071 90.9839 125.04C90.8392 124.881 90.664 124.744 90.504 124.6C90.405 124.714 90.2603 124.812 90.2298 124.942C90.1993 125.071 90.2831 125.223 90.3288 125.428V125.42Z" fill="black"/>
<path d="M73.426 135.905C73.5479 135.913 73.7079 135.973 73.7764 135.92C73.9668 135.768 73.9364 135.502 73.7459 135.388C73.6926 135.358 73.6088 135.358 73.5403 135.366C73.3346 135.404 73.2737 135.715 73.4336 135.905H73.426Z" fill="black"/>
<path d="M84.8368 134.454C84.852 134.674 84.8215 134.834 84.8825 134.948C84.9815 135.138 85.2709 135.13 85.408 134.925C85.469 134.834 85.4538 134.583 85.408 134.56C85.2405 134.492 85.0424 134.484 84.8368 134.454Z" fill="black"/>
<path d="M88.3178 134.948C88.2493 135.252 88.1655 135.449 88.1807 135.639C88.1807 135.723 88.394 135.867 88.5006 135.852C88.7444 135.829 88.9272 135.609 88.8739 135.396C88.8358 135.244 88.5768 135.145 88.3178 134.948Z" fill="black"/>
<path d="M96.9179 130.412C97.055 130.382 97.2835 130.389 97.4435 130.29C97.6187 130.176 97.5425 129.819 97.3216 129.728C97.2073 129.675 97.0169 129.69 96.9026 129.751C96.6817 129.88 96.6665 130.184 96.9179 130.412Z" fill="black"/>
<path d="M76.9529 140.882C77.1509 140.844 77.2271 140.73 77.189 140.532C77.1204 140.114 76.9605 140 76.5491 140.076C76.3511 140.114 76.2673 140.221 76.3054 140.418C76.3816 140.821 76.5644 140.95 76.9529 140.882Z" fill="black"/>
<path d="M95.044 122.7C95.1811 122.715 95.3487 122.784 95.4553 122.731C95.6457 122.632 95.6153 122.328 95.402 122.161C95.2573 122.047 95.0897 122.085 95.0211 122.275C94.9754 122.404 95.0287 122.564 95.0364 122.708L95.044 122.7Z" fill="black"/>
<path d="M104.71 128.011C104.627 128.14 104.543 128.269 104.459 128.391C104.588 128.459 104.718 128.581 104.855 128.588C105.053 128.596 105.16 128.437 105.061 128.254C105 128.14 104.825 128.087 104.703 128.011H104.71Z" fill="black"/>
<path d="M85.3319 131.293C85.4995 131.46 85.7127 131.422 85.8575 131.202C85.9641 131.043 85.9336 130.913 85.7661 130.815C85.5299 130.678 85.2405 130.701 85.2252 130.875C85.21 131.012 85.2938 131.156 85.3319 131.293Z" fill="black"/>
<path d="M96.5294 133.504C96.3923 133.512 96.2552 133.519 96.1257 133.542C96.1105 133.542 96.0876 133.694 96.1257 133.747C96.1562 133.801 96.3009 133.854 96.3085 133.839C96.3923 133.732 96.4609 133.618 96.5294 133.497V133.504Z" fill="black"/>
<path d="M91.6162 136.627C91.6619 136.688 91.6924 136.764 91.7457 136.802C91.8066 136.84 91.8904 136.84 91.959 136.855C91.9361 136.718 91.9285 136.574 91.8904 136.445C91.8904 136.422 91.7305 136.399 91.6848 136.429C91.6391 136.46 91.6391 136.558 91.6162 136.634V136.627Z" fill="black"/>
<path d="M80.2512 141.094C80.2588 141.011 80.3045 140.882 80.2664 140.859C80.1064 140.745 79.9465 140.783 79.8475 140.95C79.8094 141.011 79.817 141.102 79.8017 141.186C79.9541 141.155 80.0988 141.125 80.2512 141.094Z" fill="black"/>
<path d="M99.2563 137.881C99.2183 137.941 99.1269 138.01 99.1421 138.055C99.1878 138.192 99.3173 138.2 99.4696 138.063C99.5001 138.032 99.4772 137.934 99.4772 137.873C99.4011 137.873 99.3325 137.873 99.2563 137.881Z" fill="black"/>
<path d="M107.049 136.095L106.919 136.179L107.087 136.293L107.049 136.095Z" fill="black"/>
<path d="M62.1067 137.219C62.0762 137.333 62.0534 137.44 62.0229 137.554C62.0915 137.554 62.1981 137.599 62.2286 137.569C62.32 137.478 62.3885 137.356 62.4647 137.242C62.3428 137.242 62.2286 137.235 62.1067 137.227V137.219Z" fill="black"/>
<path d="M78.4306 122.252C78.6058 122.526 78.8419 122.518 79.1085 122.419L79.0933 122.472C78.9181 122.191 78.682 122.206 78.4153 122.305L78.4306 122.244V122.252Z" fill="black"/>
<path d="M66.8141 134.348L66.8522 134.5L66.9589 134.408L66.8141 134.348Z" fill="black"/>
</g>
<path d="M195.061 148.214C197.711 151.224 204.111 149.384 205.431 150.884C206.771 152.154 202.851 159.604 206.581 160.554C207.731 160.774 208.841 160.014 209.051 158.864C209.051 158.844 209.051 158.824 209.061 158.814C210.961 149.574 210.491 148.194 208.551 146.574C207.111 145.384 200.401 146.174 199.631 145.294C198.861 144.414 203.741 137.444 201.161 134.374C198.901 131.684 188.631 132.034 187.971 131.284C187.311 130.534 190.951 121.754 187.451 121.064C183.941 120.374 184.331 125.374 183.021 132.744C182.401 136.854 196.001 135.344 197.221 136.734C198.321 137.994 193.071 145.944 195.061 148.204V148.214Z" fill="#DB433B"/>
<path d="M149.968 151.797C150.308 151.797 150.628 151.637 150.848 151.367C167.028 133.637 150.288 120.617 143.158 135.467C125.898 130.457 126.018 153.627 149.968 151.797Z" fill="#5FBFFA"/>
<path d="M104.523 48.064C105.553 47.134 113.263 50.614 113.493 49.514C113.693 48.574 106.443 45.924 106.703 44.244C106.793 42.924 116.273 39.824 115.953 39.084C115.633 38.344 106.703 41.424 105.593 40.224C104.113 38.674 110.453 26.384 109.803 26.014C109.003 25.544 102.303 37.024 100.763 36.874C98.4734 36.674 95.9334 26.894 94.8434 27.404C94.2134 27.744 97.0334 37.714 96.0134 38.484C94.4034 39.694 84.9734 36.434 84.5934 37.204C84.1134 38.174 94.6834 40.924 94.7234 42.924C94.7534 44.704 82.2734 47.3841 83.0334 48.784C83.5734 49.7641 95.7334 46.094 96.3334 47.034C97.3834 48.454 90.9034 61.194 91.6834 61.754C92.2634 62.174 98.8234 49.574 101.003 49.744C102.213 49.804 105.233 57.9641 106.183 57.7141C107.093 57.3941 103.603 48.864 104.533 48.084L104.523 48.064Z" fill="#5FBFFA"/>
<path d="M25.8854 95.0073C18.0154 94.6673 18.2154 106.307 25.4254 106.647C33.1254 106.997 33.7254 95.3373 25.8854 95.0073Z" fill="#E7BB43"/>
<path d="M34.8907 24.3774C34.541 22.9266 41.9274 17.4567 40.9877 16.6722C40.1901 16.0059 33.8527 21.4651 32.3666 20.3582C31.1538 19.5845 33.1534 9.05287 32.2792 8.96689C31.4051 8.88092 29.6678 18.8967 27.9305 19.3158C25.6687 19.9176 17.2225 7.59134 16.5232 8.01045C15.649 8.52629 23.1337 20.7666 22.1831 22.1314C20.7954 24.184 10.0874 21.5296 10 22.8192C10 23.5929 21.0358 26.0754 21.2325 27.4402C21.5384 29.5895 13.4637 36.7789 14.01 37.5419C14.6875 38.4984 22.8715 29.9549 24.8055 30.9543C26.5319 31.8463 22.5437 45 24.281 45C25.5048 45 28.3675 31.6421 29.5913 31.5561C31.5034 31.2982 40.3102 43.9898 41.2499 43.5385C41.9492 43.2053 33.3282 30.5244 34.6394 28.5578C35.3387 27.4402 44.7355 28.8157 44.9977 27.7841C45.1726 26.7524 35.1638 25.6455 34.9016 24.3667L34.8907 24.3774Z" fill="#F39745"/>
<defs>
<clipPath id="clip0_449_1595">
<rect width="107.207" height="90" fill="white" transform="translate(130.771 3.25684) rotate(10.1515)"/>
</clipPath>
<clipPath id="clip1_449_1595">
<rect width="84.5904" height="118" fill="white" transform="matrix(-1 0 0 1 121.59 56)"/>
</clipPath>
</defs>
</svg>
