<svg width="243" height="182" viewBox="0 0 243 182" fill="none" xmlns="http://www.w3.org/2000/svg">
<g clip-path="url(#clip0_415_436)">
<path d="M180.35 95.45C179.15 87.87 185.67 86.02 191.43 85.79C193.09 85.87 194.74 86.1 196.36 86.48C198.13 72.73 186.81 61.97 176.03 64.28C169.86 65.4 165.16 70.45 164.48 76.68C164.48 76.68 152.66 68.83 141.83 78.26C130.54 88.06 136.51 105.96 149.06 111.93C162.6 118.29 174.42 118.43 180.87 119.6C187.32 120.77 191.29 120.45 192.32 115.05C192.69 113.03 193.12 109.49 193.52 105.41C189.83 103.43 181.2 100.75 180.35 95.45Z" fill="#5FBFFA"/>
<path d="M216.25 150.35C227.36 140.11 226.12 102.19 220.27 96.68C222.87 96.84 225.47 96.64 228.01 96.1C230.12 95.39 230.49 92.29 227.71 92.4C224.93 92.51 216.55 92.51 213.29 91.27C207.39 89 198.85 84.38 192.72 83.24C189.69 63.62 162.37 61.87 159.18 80.42C122.8 75.33 128.26 123.78 162.72 123.29C165.75 145.64 194.62 148.86 211.49 153.68C218.21 155.61 228.75 157.35 229.07 154.8C229.39 152.25 222.27 152.02 216.26 150.37L216.25 150.35ZM152.25 116.68C128.03 106.95 138.07 77.7 162.46 85.28C163.11 84.84 163.47 84.08 163.4 83.3C162.32 70.44 184.22 66.01 188.21 83.05C172.26 84.52 177.17 105.27 190.51 107.98C189.82 115.64 194.39 119.52 182.77 119.36C173.11 119.25 165.16 120.41 152.26 116.65V116.69L152.25 116.68ZM211.33 149.2C193.86 144.06 169.88 141.26 167.31 123.77C178.81 123.08 198.28 129.09 194.9 109.59C196.1 110.06 197.33 110.43 198.59 110.71C199.8 110.7 200.78 109.71 200.77 108.49C200.77 107.56 200.17 106.74 199.3 106.44C193.58 104.67 183.94 101.23 182.93 96.73C180.56 77.24 205.45 94.11 214.45 96.09C216.58 98.36 222.74 107.11 219.77 129.76C218.49 138.57 215.53 145.3 211.34 149.2H211.33Z" fill="black"/>
<path d="M12.44 63.07C10.99 61.36 15.2 57.14 15 55.59C14.76 53.82 11.08 51.12 12.23 49.46C13.38 47.8 17.97 49.62 20.26 48.45C21.67 47.74 23.74 42.8 25.74 43.22C28.6 43.81 28.71 49.93 29.66 50.53C30.77 51.24 36.56 51.03 36.83 53.25C37.16 56 30.42 57.8 29.66 58.93C28.7 60.38 29.87 67.09 26.72 67.4C24.1 67.66 21.24 59.86 19.57 60.02C18.34 60.09 13.75 64.61 12.45 63.06L12.44 63.07Z" fill="#E7BB43"/>
<path d="M48.36 69.25C45.13 67.82 51.11 60.05 50.9 58.52C50.66 56.74 44.92 54.96 46.81 52.12C48.28 49.9 53.88 51.85 56.13 50.73C57.55 50.02 60.2 42.09 63.31 42.23C66.42 42.37 64.59 50.21 65.5 50.8C66.62 51.51 73.59 49.72 73.88 51.92C74.21 54.67 69.5 56.79 68.75 57.91C67.79 59.34 70.52 67.71 67.35 68.07C64.73 68.33 60.39 62.11 58.66 62.25C57.47 62.33 50.39 70.16 48.35 69.24L48.36 69.25Z" fill="#E7BB43"/>
<path d="M87.12 64.42C83.61 64.09 87.95 54.31 87.27 52.92C86.47 51.31 81.37 51.21 81.56 48.64C81.67 46.83 88.49 45.11 90.29 43.28C91.4 42.14 92.35 34.73 95.37 33.88C98.39 33.03 99.42 40.89 100.52 41.17C101.8 41.48 108.05 38 109.03 40.03C110.22 42.53 105.06 47.59 104.71 48.89C104.26 50.56 111.17 54.33 110.02 55.86C107.37 59.34 98.79 54.25 97.2 54.93C96.02 55.39 89.35 64.64 87.12 64.42Z" fill="#E7BB43"/>
<path d="M122.49 55.15C118.55 54.78 123.42 43.79 122.65 42.23C121.75 40.43 116.02 40.31 116.23 37.42C116.35 35.38 124.02 33.46 126.04 31.39C127.28 30.11 128.36 21.78 131.76 20.83C135.16 19.88 136.32 28.71 137.55 29.02C138.99 29.37 146.02 25.45 147.11 27.73C148.44 30.54 142.65 36.23 142.26 37.69C141.75 39.56 149.53 43.8 148.23 45.52C145.25 49.43 135.6 43.71 133.82 44.47C132.5 44.98 125 55.38 122.49 55.14V55.15Z" fill="#E7BB43"/>
<path d="M160.26 45C155.79 44.58 161.31 32.12 160.45 30.35C159.43 28.3 152.93 28.18 153.17 24.9C153.31 22.59 162 20.41 164.3 18.06C165.71 16.61 166.93 7.15998 170.78 6.07998C174.64 4.99998 175.95 15.02 177.34 15.37C178.97 15.77 186.94 11.33 188.18 13.91C189.69 17.09 183.12 23.54 182.68 25.2C182.1 27.32 190.92 32.13 189.45 34.08C186.07 38.52 175.13 32.02 173.11 32.89C171.61 33.47 163.11 45.26 160.26 44.99V45Z" fill="#E7BB43"/>
<path d="M59.8701 172.94C53.7301 172.94 54.6801 162 53.2701 160C51.8601 158 42.8801 162.36 39.8001 161.04C36.2301 159.51 34.9501 154.24 30.8801 147.24C26.8101 140.24 19.8901 129.61 21.4901 122.95C23.9301 112.85 47.2401 103.64 54.4901 100.07C72.3401 91.33 84.8301 86.42 91.0401 89.97C97.2501 93.52 98.1801 100.41 102.96 111.06C105.53 116.79 111.31 126.98 108.31 132.14C105.31 137.3 71.8101 151.11 69.5501 153.16C67.2901 155.21 64.3701 172.99 59.8801 172.93L59.8701 172.94Z" fill="#B989C9"/>
<path d="M58.68 161.13C59.25 166.14 58.68 174.89 66.19 175.41C71.54 176.14 75.7 161.13 78.68 156.14C102.42 144.54 131.81 146.4 117.46 117.48C109.7 86.52 102.93 83.23 66.17 98.1C36.05 108.33 19.02 115.64 37.38 145.98C42.54 159.24 43.27 164.61 58.67 161.13H58.68ZM34.21 120.72C38.87 109.46 95.71 89.54 103.01 95.11C107.35 96.89 119.07 131.55 116.06 135.55C113.05 139.55 81.85 149.29 76.01 152.54C73.14 154.52 69.37 168.99 66.12 170.96C63.96 170.64 63.57 167.27 63.3 163.23C64.32 153.11 53.43 158.2 48.06 157.61C43.19 149.69 32.85 129.47 34.21 120.72Z" fill="black"/>
<path d="M56.16 119.99C68.56 122.11 69.62 126.04 77.4 113.32C85.4 121.03 92.69 109.54 100.78 107.68C101.97 107.45 102.76 106.32 102.56 105.13C99.99 100.08 91.85 107.22 89.78 108.57C79.77 117.73 78.77 99.31 69.43 117.21C58.9 119.3 51.76 107.48 49.42 127.28C47.55 127.38 45.7 126.95 44.07 126.03C41.46 124.82 39.59 128.97 42.29 130.06C56.42 135.86 51.53 127.4 56.16 119.99Z" fill="black"/>
<path d="M97.21 119.99C96.08 119.53 94.79 120.08 94.33 121.22C93.92 122.24 94.32 123.4 95.26 123.95C95.44 124.06 100.03 126.5 100.03 133.84C100.03 135.06 101.02 136.05 102.24 136.05C103.46 136.05 104.45 135.06 104.45 133.84C104.34 123.63 97.42 120.13 97.2 119.99H97.21Z" fill="black"/>
<path d="M72.9201 133.43C70.4001 135.45 70.3001 138.39 69.3501 140.57C59.9601 138.3 62.1001 137.16 55.2501 145.92C54.3701 144.98 53.5901 143.96 52.9101 142.87C52.2301 141.85 50.8601 141.57 49.8401 142.25C48.8201 142.93 48.5401 144.3 49.2201 145.32C54.5701 154.78 58.5001 149.41 63.0001 143.27C67.0201 145.79 73.7101 145.82 74.2101 139.88C74.3701 138.72 74.8801 137.63 75.6701 136.76C76.4101 135.79 76.2201 134.4 75.2501 133.66C74.5801 133.15 73.6801 133.07 72.9301 133.44L72.9201 133.43Z" fill="black"/>
<path d="M86.23 127.49C86.84 124.38 81.66 124.24 81.09 126.1C79.47 128.51 83.3 131.95 85.09 129.06C85.69 128.74 86.12 128.16 86.23 127.49Z" fill="black"/>
<path d="M90.23 136.68C89.54 136.28 88.69 136.28 88 136.68C84.25 136.06 84.57 141.59 88.23 141.39C90.07 141.64 92.67 138.18 90.23 136.68Z" fill="black"/>
<path d="M91.46 128.33C90.99 128.69 90.45 128.96 89.87 129.1C88.65 129.1 87.66 130.09 87.66 131.31C87.66 132.53 88.65 133.52 89.87 133.52C91.34 133.43 92.76 132.91 93.94 132.02C94.96 131.33 95.23 129.95 94.55 128.93C93.86 127.91 92.48 127.64 91.46 128.32V128.33Z" fill="black"/>
<path d="M221.71 72.11C222.9 71.69 224.15 71.33 225.47 70.99C224.21 71.41 222.95 71.78 221.71 72.11Z" fill="#F39745"/>
<path d="M205.26 58.91C207.05 57.12 210.22 54.53 212.73 53.2C214.89 52.05 216.05 52.75 216.65 53.53C217.04 54.05 217.19 54.67 217.1 55.33C216.81 57.29 214.24 59.29 211.17 61.52C210.81 61.78 210.49 62.01 210.24 62.21C209.48 62.79 208.69 63.35 207.91 63.89C206.08 65.16 204.83 64.36 204.25 63.77C202.84 62.34 203.77 60.77 204.08 60.26C204.11 60.2 204.14 60.16 204.17 60.11C204.42 59.79 204.79 59.37 205.26 58.91Z" fill="#F39745"/>
<path d="M226.3 67.7C222.86 68.48 219.83 69.47 217.02 70.74C216.53 70.96 216.12 71.24 215.8 71.57C215 72.37 214.72 73.42 215.12 74.38C215.94 76.32 217.89 75.98 218.55 75.86C221.64 75.32 224.79 74.45 227.95 73.29C228.8 72.98 229.51 72.48 230.01 71.83C230.05 71.78 230.07 71.74 230.1 71.7C230.71 70.74 230.72 69.67 230.13 68.84C229.4 67.8 227.86 67.35 226.3 67.69V67.7ZM221.71 72.11C222.9 71.69 224.15 71.33 225.47 70.99C224.21 71.41 222.95 71.78 221.71 72.11Z" fill="#F39745"/>
<path d="M192.63 53.94C192.42 53.08 192.41 52.22 192.58 51.37C193.35 47.6 194.24 44.53 195.39 41.74C195.61 41.21 195.88 40.81 196.17 40.52C196.99 39.7 197.97 39.73 198.44 39.81C199.74 40.02 200.5 40.94 200.72 42.53C200.93 44.06 200.09 46.99 198.78 51.28C198.49 52.25 198.22 53.14 198.02 53.87C197.63 55.25 196.55 56.13 195.27 56.11C194.02 56.09 192.93 55.2 192.63 53.95V53.94Z" fill="#F39745"/>
<path d="M139.83 152.48C130.68 152.08 130.91 165.62 139.29 166.02C148.25 166.43 148.95 152.87 139.83 152.48Z" fill="#64A03D"/>
<path d="M56.87 10.48C49 10.14 49.2 21.78 56.41 22.12C64.11 22.47 64.71 10.81 56.87 10.48Z" fill="#DB433B"/>
<path d="M58.09 155.41C57.93 155.7 57.81 156.17 57.51 156.38C57.01 156.73 56.4 156.93 55.83 157.17C55.59 157.27 55.4 157.16 55.33 156.93C55.02 155.93 55.34 154.93 56.12 154.44C56.67 154.09 57.41 154.2 57.79 154.73C57.91 154.89 57.96 155.1 58.09 155.41Z" fill="black"/>
<path d="M54.92 131.75C54.78 131.96 54.66 132.28 54.43 132.44C53.78 132.89 53.09 132.87 52.43 132.44C52.04 132.18 52.01 131.76 52.03 131.35C52.05 130.92 52.24 130.57 52.67 130.4C53.49 130.08 54.37 130.37 54.78 131.11C54.87 131.28 54.87 131.5 54.92 131.75Z" fill="black"/>
<path d="M53.92 150.87C54.72 150.9 55.22 151.45 55.21 152.27C55.2 153.16 54.7 153.63 53.87 153.55C53.03 153.47 52.54 152.96 52.53 152.16C52.53 151.37 53.11 150.83 53.92 150.86V150.87Z" fill="black"/>
<path d="M205.55 121.18C205.4 121.47 205.3 121.9 205.04 122.17C204.38 122.82 203.18 122.66 202.59 121.91C202.15 121.34 202.4 120.61 203.06 120.49C203.77 120.36 204.49 120.28 205.16 120.6C205.31 120.67 205.37 120.91 205.54 121.19L205.55 121.18Z" fill="black"/>
<path d="M217.32 134.16C218.44 134.15 219.05 134.88 218.88 135.83C218.85 136.02 218.73 136.24 218.58 136.34C217.85 136.85 216.49 136.41 216.25 135.55C216.18 135.29 216.27 134.87 216.45 134.69C216.72 134.41 217.14 134.27 217.34 134.16H217.32Z" fill="black"/>
<path d="M194.44 130.76C194.86 130.74 195.33 130.97 195.44 131.36C195.51 131.64 195.44 131.96 195.41 132.26C195.4 132.35 195.32 132.45 195.25 132.53C194.82 133.08 194.03 133.32 193.58 133.05C193.32 132.9 193.09 132.28 193.16 131.92C193.28 131.25 193.78 130.79 194.44 130.76Z" fill="black"/>
<path d="M75.44 152.82C75.38 153.33 75.02 153.59 74.73 153.56C74.31 153.51 73.92 153.43 73.62 153.07C73.3 152.69 73.16 152.23 73.4 151.94C73.59 151.71 73.85 151.5 74.12 151.4C74.46 151.27 75.06 151.54 75.19 151.86C75.34 152.24 75.4 152.65 75.44 152.82Z" fill="black"/>
<path d="M181.9 91.98C181.81 92.72 181.15 93.36 180.4 93.33C180.15 93.33 179.8 93.07 179.68 92.83C179.27 91.99 179.76 91.07 180.65 90.88C181.26 90.74 181.97 91.37 181.89 91.98H181.9Z" fill="black"/>
<path d="M59.98 137.6C60.4 137.6 60.78 137.7 61.05 138.06C61.46 138.6 61.48 139.16 61.08 139.74C60.97 139.89 60.78 140.02 60.6 140.09C60 140.3 59.26 139.74 59.08 138.96C58.93 138.35 59.38 137.68 59.98 137.6Z" fill="black"/>
<path d="M94 143.68C94.17 143.83 94.47 143.99 94.59 144.24C94.98 145.02 94.6 145.95 93.76 146.32C93.6 146.39 93.32 146.36 93.18 146.25C92.4 145.66 92.47 144.28 93.28 143.82C93.45 143.72 93.68 143.74 93.99 143.69L94 143.68Z" fill="black"/>
<path d="M50.35 136.36C49.78 136.36 49.35 135.93 49.38 135.39C49.41 134.77 49.97 134.19 50.57 134.15C51.03 134.12 51.43 134.56 51.52 135.2C51.6 135.83 51.06 136.37 50.36 136.36H50.35Z" fill="black"/>
<path d="M193.69 140.13C193.19 140.1 192.74 139.52 192.84 139.03C192.95 138.45 193.33 138.05 193.84 137.97C194.28 137.9 194.8 138.38 194.88 138.93C194.96 139.48 194.28 140.16 193.7 140.13H193.69Z" fill="black"/>
<path d="M168.76 105.47C168.64 106.07 167.9 106.55 167.39 106.37C166.93 106.21 166.55 105.63 166.6 105.17C166.67 104.54 167.38 104.08 167.95 104.29C168.46 104.48 168.84 105.04 168.76 105.47Z" fill="black"/>
<path d="M146.39 105.36C146.36 104.9 146.81 104.31 147.27 104.2C147.81 104.07 148.49 104.63 148.57 105.27C148.63 105.76 148.2 106.33 147.71 106.41C147.1 106.51 146.43 105.98 146.39 105.37V105.36Z" fill="black"/>
<path d="M184.75 82.16C184.59 82.35 184.44 82.64 184.2 82.76C183.95 82.89 183.61 82.9 183.31 82.9C182.83 82.9 182.49 82.61 182.43 82.24C182.36 81.78 182.59 81.45 182.93 81.22C183.45 80.87 184.17 81.01 184.55 81.52C184.66 81.67 184.67 81.89 184.74 82.15L184.75 82.16Z" fill="black"/>
<path d="M161.67 91.73C161.68 92.29 161.39 92.69 161.02 93.05C160.65 93.39 159.94 93.37 159.64 93.05C159.24 92.61 159.26 91.77 159.69 91.4C160.17 90.99 160.86 90.91 161.37 91.25C161.52 91.35 161.58 91.57 161.68 91.73H161.67Z" fill="black"/>
<path d="M84.84 121.73C84.84 122.23 84.39 122.7 83.85 122.76C83.38 122.81 82.86 122.38 82.74 121.84C82.64 121.41 83.09 120.77 83.56 120.66C84.13 120.53 84.83 121.11 84.84 121.73Z" fill="black"/>
<path d="M214.79 125C214.84 125.69 214.42 126.23 213.78 126.3C213.27 126.36 212.74 125.98 212.64 125.48C212.49 124.75 213.1 123.99 213.81 124C214.3 124.01 214.74 124.46 214.78 125H214.79Z" fill="black"/>
<path d="M48.11 138.71C48.15 139.24 47.75 139.78 47.28 139.85C46.55 139.95 45.79 139.3 45.81 138.6C45.82 138.12 46.29 137.69 46.85 137.65C47.53 137.6 48.07 138.05 48.11 138.71Z" fill="black"/>
<path d="M83.11 127.43C83.66 127.44 84.13 127.79 84.25 128.32C84.32 128.63 84.27 128.93 84.01 129.17C83.67 129.47 83.28 129.54 82.86 129.35C82.38 129.13 82.06 128.55 82.18 128.09C82.28 127.71 82.69 127.42 83.12 127.43H83.11Z" fill="black"/>
<path d="M147.84 98.69C147.76 98.88 147.72 99.1 147.59 99.25C147.46 99.4 147.26 99.51 147.06 99.57C146.56 99.74 145.87 99.52 145.65 99.16C145.42 98.77 145.7 98.01 146.14 97.82C146.76 97.55 147.43 97.79 147.73 98.39C147.78 98.48 147.79 98.59 147.83 98.69H147.84Z" fill="black"/>
<path d="M201.49 104.54C201.47 105.09 201.18 105.48 200.66 105.73C200.14 105.98 199.55 105.73 199.46 105.15C199.41 104.85 199.43 104.53 199.49 104.23C199.58 103.81 200.01 103.53 200.42 103.56C200.97 103.59 201.48 104.05 201.49 104.54Z" fill="black"/>
<path d="M151.18 96.01C150.21 95.96 149.74 95.41 149.8 94.54C149.83 94.11 150.3 93.71 150.66 93.86C151.04 94.01 151.41 94.23 151.73 94.49C152.07 94.77 152.15 95.38 151.88 95.63C151.67 95.83 151.36 95.93 151.18 96.02V96.01Z" fill="black"/>
<path d="M217.44 101C217.93 100.92 218.26 101.17 218.52 101.52C218.76 101.84 218.59 102.48 218.25 102.62C217.85 102.78 217.43 102.85 217.02 102.68C216.72 102.55 216.41 102.35 216.46 102.01C216.5 101.73 216.68 101.44 216.88 101.22C217 101.08 217.26 101.07 217.44 101Z" fill="black"/>
<path d="M148.08 86.32C147.77 86.28 147.56 86.27 147.36 86.22C146.75 86.05 146.41 85.6 146.51 85.1C146.64 84.45 147.28 84.1 147.96 84.3C148.5 84.46 148.93 85.24 148.71 85.83C148.62 86.06 148.26 86.19 148.08 86.32Z" fill="black"/>
<path d="M143.01 95.45C142.96 95.12 143.32 94.62 143.67 94.54C144.45 94.37 145.07 94.86 145.08 95.66C145.08 96 144.66 96.46 144.32 96.49C143.74 96.54 143.1 96.02 143.02 95.45H143.01Z" fill="black"/>
<path d="M88.12 145.46C88.06 145.84 87.59 146.13 87.19 146.04C86.5 145.89 86.16 145.42 85.97 144.79C85.9 144.54 85.95 144.38 86.19 144.27C87 143.9 87.93 144.32 88.14 145.16C88.16 145.25 88.13 145.36 88.12 145.47V145.46Z" fill="black"/>
<path d="M208.57 145.38C208.54 145.84 207.97 146.36 207.5 146.34C206.9 146.32 206.37 145.68 206.42 145.04C206.47 144.54 207 144.04 207.47 144.08C208.08 144.13 208.6 144.74 208.57 145.38Z" fill="black"/>
<path d="M81.2 131.55C81.17 132.13 80.7 132.57 80.21 132.49C79.71 132.41 79.33 131.89 79.38 131.35C79.43 130.82 79.94 130.33 80.38 130.39C80.84 130.45 81.23 131 81.2 131.55Z" fill="black"/>
<path d="M49.97 147.57C50.25 147.67 50.67 147.77 51.03 147.96C51.16 148.02 51.24 148.32 51.21 148.49C51.19 148.66 51.04 148.88 50.89 148.97C50.29 149.29 49.68 149.27 49.12 148.88C48.86 148.7 48.73 148.39 48.86 148.06C48.98 147.76 49.16 147.52 49.54 147.54C49.64 147.54 49.75 147.56 49.97 147.57Z" fill="black"/>
<path d="M157.21 113.81C157.52 113.83 158 114.25 158.1 114.58C158.22 115 158.21 115.41 157.92 115.73C157.63 116.05 157.23 116.15 156.8 116.03C156.36 115.91 156.08 115.32 156.18 114.78C156.28 114.26 156.79 113.78 157.22 113.81H157.21Z" fill="black"/>
<path d="M187.57 112.84C187.06 112.9 186.57 112.62 186.32 112.12C186.07 111.63 186.39 111.03 186.93 110.95C187.36 110.88 187.78 110.92 188.07 111.25C188.25 111.46 188.39 111.77 188.41 112.04C188.44 112.39 187.96 112.78 187.57 112.83V112.84Z" fill="black"/>
<path d="M211.59 122.24C211.44 122.54 211.39 122.78 211.24 122.87C211.1 122.96 210.82 122.98 210.66 122.91C209.95 122.57 209.59 121.94 209.43 121.2C209.4 121.05 209.55 120.85 209.66 120.7C209.7 120.64 209.86 120.64 209.96 120.66C210.89 120.84 211.3 121.52 211.59 122.24Z" fill="black"/>
<path d="M98.31 135.05C98.34 135.49 98.08 135.88 97.68 136C97.11 136.17 96.47 135.67 96.37 135C96.28 134.42 96.65 133.88 97.15 133.85C97.81 133.82 98.25 134.27 98.31 135.05Z" fill="black"/>
<path d="M191.48 108.61C191.48 109.18 190.99 109.67 190.49 109.6C189.94 109.52 189.59 109.1 189.58 108.5C189.58 108.15 189.99 107.75 190.41 107.69C190.94 107.62 191.48 108.08 191.48 108.61Z" fill="black"/>
<path d="M208.13 104.44C208.35 104.64 208.62 104.8 208.76 105.03C208.84 105.16 208.77 105.46 208.67 105.6C208.49 105.82 208.24 106.02 207.98 106.15C207.65 106.31 207.18 106.03 207.03 105.6C206.92 105.29 206.98 104.97 207.26 104.79C207.51 104.64 207.81 104.57 208.14 104.45L208.13 104.44Z" fill="black"/>
<path d="M173.67 100.04C173.16 99.97 172.84 99.46 172.97 98.92C173.09 98.41 173.65 98.06 174.09 98.22C174.48 98.36 174.73 98.75 174.68 99.15C174.61 99.69 174.14 100.1 173.67 100.04Z" fill="black"/>
<path d="M94.59 98.79C94.52 98.95 94.44 99.26 94.27 99.5C93.95 99.96 93.22 99.92 92.95 99.44C92.74 99.06 92.67 98.66 92.9 98.25C93.13 97.83 93.52 97.61 93.92 97.71C94.31 97.81 94.58 98.19 94.59 98.79Z" fill="black"/>
<path d="M100.65 124.4C101.04 124.4 101.47 124.75 101.54 125.15C101.62 125.67 101.17 126.19 100.64 126.18C100.24 126.18 99.8 125.81 99.74 125.44C99.66 124.93 100.11 124.41 100.65 124.41V124.4Z" fill="black"/>
<path d="M211.69 135.91C211.61 136.08 211.53 136.39 211.34 136.62C211.24 136.75 210.96 136.81 210.78 136.79C210.15 136.71 209.77 135.82 210.17 135.31C210.34 135.1 210.67 134.94 210.95 134.9C211.32 134.84 211.65 135.29 211.69 135.91Z" fill="black"/>
<path d="M81.79 111.91C81.8 112.28 81.4 112.73 81.01 112.77C80.49 112.83 79.95 112.39 79.93 111.88C79.91 111.51 80.32 111.06 80.7 111.03C81.25 110.99 81.79 111.42 81.79 111.91Z" fill="black"/>
<path d="M60.52 159.38C60.1301 159.35 59.74 158.97 59.71 158.59C59.67 157.88 60.19 157.38 60.84 157.51C61.19 157.58 61.53 158.04 61.52 158.41C61.5 158.9 60.99 159.4 60.52 159.37V159.38Z" fill="black"/>
<path d="M170.77 80.35C171.22 80.3 171.74 80.85 171.72 81.35C171.7 81.86 171.2 82.39 170.77 82.37C170.29 82.34 169.77 81.82 169.78 81.37C169.78 80.92 170.29 80.41 170.78 80.36L170.77 80.35Z" fill="black"/>
<path d="M181.15 83.81C181.27 84.01 181.54 84.26 181.52 84.48C181.44 85.29 180.92 85.71 180.07 85.76C179.77 85.78 179.39 85.53 179.39 85.27C179.39 85.08 179.4 84.82 179.52 84.72C179.9 84.39 180.33 84.11 180.75 83.82C180.82 83.77 180.95 83.82 181.15 83.82V83.81Z" fill="black"/>
<path d="M176.68 128.35C176.63 127.88 177.1 127.34 177.59 127.3C177.92 127.27 178.41 127.68 178.45 128.02C178.49 128.46 178.02 129.01 177.53 129.07C177.21 129.11 176.71 128.69 176.68 128.35Z" fill="black"/>
<path d="M196.83 121.07C197.43 121 197.8 121.22 198.02 121.55C198.16 121.77 198.19 122.18 198.07 122.41C197.96 122.63 197.6 122.85 197.35 122.85C196.71 122.85 196.21 122.21 196.37 121.6C196.43 121.37 196.72 121.19 196.83 121.07Z" fill="black"/>
<path d="M64.01 156.18C63.43 156.14 63.04 155.68 63.16 155.16C63.26 154.73 63.65 154.42 64.04 154.46C64.57 154.52 64.95 154.99 64.9 155.53C64.87 155.92 64.46 156.21 64.01 156.18Z" fill="black"/>
<path d="M93.41 137.53C93.68 137.7 93.95 137.83 94.15 138.03C94.26 138.15 94.31 138.41 94.27 138.58C94.21 138.87 93.64 139.13 93.27 139.08C92.79 139.02 92.47 138.82 92.41 138.41C92.38 138.25 92.47 137.99 92.6 137.9C92.83 137.73 93.12 137.66 93.42 137.53H93.41Z" fill="black"/>
<path d="M188.05 138.38C187.91 138.62 187.86 138.87 187.72 138.95C187.46 139.08 187.16 139.18 186.87 139.17C186.42 139.17 186.04 138.82 185.98 138.47C185.9 138 186.37 137.59 186.98 137.61C187.18 137.61 187.43 137.63 187.56 137.74C187.77 137.91 187.9 138.18 188.05 138.38Z" fill="black"/>
<path d="M66.79 144.2C67.31 144.25 67.74 144.75 67.71 145.26C67.69 145.61 67.24 145.95 66.8 145.95C66.24 145.95 65.8 145.45 65.9 144.93C65.98 144.53 66.42 144.16 66.78 144.2H66.79Z" fill="black"/>
<path d="M83.76 141.37C84.1 141.52 84.4 141.61 84.64 141.78C84.99 142.04 85.02 142.51 84.75 142.88C84.52 143.2 84.21 143.14 83.91 143.05C83.72 142.99 83.52 142.88 83.37 142.74C83.14 142.53 82.89 142.25 83.09 141.94C83.23 141.71 83.51 141.57 83.75 141.38L83.76 141.37Z" fill="black"/>
<path d="M57.94 135.79C57.86 136.18 57.44 136.43 57 136.35C56.5 136.25 56.2 135.67 56.41 135.16C56.53 134.86 56.79 134.67 57.12 134.71C57.65 134.78 58.04 135.32 57.94 135.8V135.79Z" fill="black"/>
<path d="M214.71 138.43C214.75 138.86 214.46 139.25 214.02 139.33C213.4 139.45 212.73 138.86 212.79 138.25C212.83 137.84 213.25 137.47 213.64 137.49C214.23 137.53 214.65 137.91 214.7 138.43H214.71Z" fill="black"/>
<path d="M207.53 99.47C207.04 99.54 206.56 99.1 206.56 98.57C206.56 98.18 206.9 97.73 207.25 97.69C207.71 97.64 208.19 98.08 208.23 98.62C208.26 98.98 207.91 99.43 207.52 99.47H207.53Z" fill="black"/>
<path d="M187.27 105.61C186.93 105.58 186.53 105.14 186.49 104.78C186.44 104.29 186.99 103.85 187.5 103.96C187.92 104.05 188.13 104.4 188.07 104.87C188.02 105.27 187.62 105.63 187.26 105.6L187.27 105.61Z" fill="black"/>
<path d="M137.83 94.41C138.22 94.42 138.6 94.82 138.58 95.2C138.56 95.58 138.17 96.02 137.84 96.02C137.29 96.02 136.79 95.65 136.74 95.19C136.7 94.77 137.22 94.39 137.82 94.41H137.83Z" fill="black"/>
<path d="M218.08 108.95C218.03 109.4 217.55 109.65 217.15 109.41C216.97 109.3 216.79 109.18 216.66 109.03C216.44 108.77 216.43 108.46 216.63 108.19C216.85 107.89 217.18 107.91 217.49 108C217.94 108.14 218.14 108.51 218.09 108.96L218.08 108.95Z" fill="black"/>
<path d="M178.27 108.98C178.33 109.24 177.91 109.62 177.66 109.49C177.3 109.31 176.94 109.11 176.64 108.85C176.52 108.75 176.47 108.46 176.52 108.29C176.57 108.14 176.8 107.96 176.95 107.95C177.6 107.91 178.13 108.35 178.26 108.97L178.27 108.98Z" fill="black"/>
<path d="M97.6299 108.81C97.6099 109.16 97.1799 109.59 96.8399 109.61C96.4999 109.62 96.0399 109.21 96.0199 108.86C95.9899 108.34 96.4499 107.88 96.9499 107.94C97.2999 107.98 97.6499 108.44 97.6299 108.81Z" fill="black"/>
<path d="M63.9501 160.88C64.0501 160.89 64.1601 160.89 64.2501 160.92C64.6301 161.05 64.8201 161.45 64.7201 161.93C64.6601 162.25 64.4701 162.48 64.1301 162.55C63.6701 162.64 63.2401 162.41 63.1601 162.03C63.0601 161.54 63.4301 160.99 63.9401 160.88H63.9501Z" fill="black"/>
<path d="M188.01 85.38C188.05 85.85 187.6 86.4 187.11 86.48C186.78 86.53 186.28 86.14 186.21 85.79C186.08 85.15 186.6 84.52 187.22 84.56C187.6 84.59 187.97 84.98 188.01 85.38Z" fill="black"/>
<path d="M144.58 88.39C144.52 88.94 144.02 89.29 143.51 89.15C143.05 89.03 142.76 88.5 142.84 87.96C142.9 87.56 143.32 87.26 143.72 87.34C144.25 87.43 144.64 87.91 144.58 88.4V88.39Z" fill="black"/>
<path d="M177.48 87.56C177.75 87.59 178.01 87.92 178 88.2C177.99 88.64 177.78 88.96 177.39 89.15C177.07 89.31 176.44 89.17 176.33 88.84C176.25 88.6 176.29 88.23 176.43 88.01C176.65 87.67 177.03 87.48 177.48 87.56Z" fill="black"/>
<path d="M191.31 88.45C191.29 88.97 190.82 89.39 190.29 89.33C189.88 89.28 189.52 88.85 189.58 88.5C189.68 87.96 190.12 87.58 190.62 87.58C190.96 87.58 191.31 88.05 191.3 88.45H191.31Z" fill="black"/>
<path d="M187.31 91.41C187.66 91.44 188 91.84 188.03 92.25C188.06 92.67 187.69 93.1 187.34 93.07C187.01 93.04 186.62 92.6 186.6 92.24C186.58 91.87 186.99 91.39 187.31 91.41Z" fill="black"/>
<path d="M221.03 125.25C221.06 125.69 220.51 126.13 219.95 126.13C219.57 126.13 219.2 125.68 219.23 125.27C219.26 124.87 219.7 124.5 220.11 124.53C220.54 124.56 221.02 124.94 221.04 125.25H221.03Z" fill="black"/>
<path d="M63.58 114.28C63.96 114.28 64.36 114.75 64.32 115.12C64.28 115.5 63.79 115.85 63.41 115.75C63.09 115.66 62.86 115.45 62.84 115.1C62.82 114.68 63.2 114.27 63.59 114.28H63.58Z" fill="black"/>
<path d="M91.2 115.3C91.17 115.7 90.74 116.01 90.31 115.93C90.01 115.88 89.72 115.57 89.72 115.29C89.72 114.94 90.15 114.45 90.47 114.44C90.79 114.44 91.22 114.93 91.2 115.29V115.3Z" fill="black"/>
<path d="M54.36 118.48C54.31 119.11 53.69 119.57 53.09 119.41C52.85 119.35 52.61 118.94 52.66 118.69C52.79 118.08 53.45 117.74 54.07 118.01C54.21 118.07 54.27 118.31 54.36 118.47V118.48Z" fill="black"/>
<path d="M206.57 119.2C206.62 118.73 206.88 118.4 207.26 118.34C207.73 118.26 208.18 118.66 208.24 119.21C208.24 119.31 208.24 119.43 208.18 119.5C207.87 119.93 206.84 119.92 206.62 119.49C206.58 119.41 206.59 119.29 206.57 119.19V119.2Z" fill="black"/>
<path d="M37.11 134.68C37.46 134.68 37.93 135.12 37.93 135.45C37.93 135.78 37.44 136.22 37.11 136.21C36.78 136.2 36.28 135.73 36.28 135.44C36.28 135.15 36.8 134.69 37.12 134.68H37.11Z" fill="black"/>
<path d="M201.38 138.23C201.41 138.61 201.05 139.02 200.65 139.06C200.11 139.12 199.6 138.7 199.63 138.21C199.65 137.83 200 137.42 200.37 137.34C200.83 137.25 201.34 137.69 201.38 138.22V138.23Z" fill="black"/>
<path d="M198.2 101.88C198.16 102.27 197.77 102.57 197.34 102.52C196.98 102.48 196.61 102.02 196.67 101.68C196.73 101.32 197.15 101.01 197.55 101.02C197.92 101.03 198.24 101.46 198.2 101.87V101.88Z" fill="black"/>
<path d="M154.14 112.31C153.92 112.09 153.62 111.91 153.6 111.71C153.57 111.46 153.71 111.11 153.9 110.94C154.09 110.77 154.43 110.69 154.71 110.7C154.95 110.7 155.11 111.49 154.9 111.76C154.73 111.97 154.46 112.1 154.15 112.32L154.14 112.31Z" fill="black"/>
<path d="M207.81 131.86C207.78 132.18 207.72 132.49 207.35 132.59C207.05 132.67 206.75 132.75 206.44 132.77C206.04 132.8 205.76 132.24 205.94 131.85C206.21 131.29 206.91 131.04 207.51 131.36C207.66 131.44 207.71 131.69 207.8 131.85L207.81 131.86Z" fill="black"/>
<path d="M175.17 132.63C174.97 132.73 174.72 132.96 174.45 132.98C174.11 133.01 173.64 132.52 173.57 132.2C173.52 131.97 173.79 131.59 174.07 131.5C174.53 131.35 175.19 131.75 175.26 132.23C175.27 132.33 175.21 132.43 175.16 132.63H175.17Z" fill="black"/>
<path d="M74.0001 145.54C73.9701 145.64 73.9701 145.75 73.9101 145.84C73.7101 146.15 73.1401 146.27 72.8201 146.07C72.4801 145.87 72.2101 145.2 72.4401 145.04C72.6701 144.87 72.9901 144.77 73.2701 144.76C73.7501 144.75 74.0301 145.1 73.9901 145.54H74.0001Z" fill="black"/>
<path d="M147.03 91.21C147.26 91.44 147.52 91.59 147.63 91.82C147.75 92.07 147.43 92.36 147.09 92.39C146.59 92.42 146.13 92.05 146.33 91.75C146.47 91.54 146.75 91.42 147.03 91.22V91.21Z" fill="black"/>
<path d="M190.03 114.22C190.52 114.28 191.06 114.71 190.99 115C190.93 115.26 190.69 115.52 190.46 115.68C190.17 115.88 189.86 115.7 189.63 115.49C189.39 115.28 189.22 114.97 189.43 114.68C189.59 114.46 189.88 114.34 190.04 114.22H190.03Z" fill="black"/>
<path d="M73.76 112.2C73.42 112.14 73.2 111.85 73.26 111.55C73.36 111.09 73.67 110.87 74.15 110.94C74.48 110.99 74.71 111.28 74.64 111.58C74.53 112.06 74.22 112.28 73.75 112.2H73.76Z" fill="black"/>
<path d="M140.98 104.97C140.89 105.12 140.79 105.41 140.59 105.6C140.41 105.78 139.95 105.59 139.82 105.34C139.63 104.95 139.76 104.44 140.09 104.26C140.42 104.09 140.92 104.42 140.97 104.97H140.98Z" fill="black"/>
<path d="M207.68 112.55C207.42 112.3 207.13 112.14 207.06 111.91C206.97 111.62 207.19 111.35 207.49 111.24C207.87 111.11 208.38 111.48 208.28 111.85C208.22 112.09 207.93 112.26 207.68 112.54V112.55Z" fill="black"/>
<path d="M140.84 98.04C141.02 98.14 141.23 98.21 141.38 98.34C141.62 98.54 141.5 99 141.18 99.12C140.85 99.25 140.58 99.15 140.34 98.88C140.18 98.69 140.12 98.48 140.3 98.31C140.44 98.18 140.65 98.12 140.83 98.03L140.84 98.04Z" fill="black"/>
<path d="M168.34 77.24C168.52 77.92 168.3 78.42 167.7 78.77C167.45 78.92 167.11 78.86 166.9 78.59C166.71 78.33 166.63 78.05 166.84 77.76C167.24 77.22 167.72 76.94 168.39 77.28L168.33 77.23L168.34 77.24Z" fill="black"/>
<path d="M171.12 88.11C170.95 88.27 170.78 88.52 170.53 88.63C170.33 88.72 169.93 88.3 169.96 88.03C170 87.75 170.13 87.48 170.27 87.23C170.4 87 170.61 87 170.79 87.2C170.86 87.27 170.94 87.35 170.97 87.44C171.03 87.63 171.05 87.83 171.1 88.12L171.12 88.11Z" fill="black"/>
<path d="M190.1 129.51C189.92 129.19 189.69 128.97 189.67 128.73C189.65 128.41 189.93 128.21 190.24 128.16C190.63 128.11 191.04 128.64 190.83 128.96C190.69 129.17 190.4 129.29 190.09 129.51H190.1Z" fill="black"/>
<path d="M216.83 129.4C216.77 128.8 216.93 128.55 217.38 128.37C217.62 128.28 217.8 128.33 217.86 128.57C217.93 128.84 218 129.13 217.98 129.4C217.95 129.74 217.6 129.98 217.37 129.85C217.14 129.72 216.96 129.5 216.83 129.39V129.4Z" fill="black"/>
<path d="M54.03 157.68C54.2 157.76 54.43 157.8 54.53 157.94C54.8 158.31 54.73 158.68 54.41 159.04C54.11 159.37 53.72 159.45 53.33 159.19C53.19 159.09 53.07 158.85 53.09 158.69C53.15 158.07 53.42 157.81 54.03 157.69V157.68Z" fill="black"/>
<path d="M84.07 135.43C84 135.96 83.64 136.29 83.23 136.3C82.92 136.3 82.62 135.99 82.66 135.69C82.72 135.25 83.07 134.86 83.46 134.95C83.71 135 83.91 135.29 84.08 135.43H84.07Z" fill="black"/>
<path d="M188.58 124.78C188.68 125.13 188.34 125.56 187.9 125.67C187.48 125.77 186.99 125.52 186.91 125.17C186.83 124.8 187.16 124.35 187.58 124.28C188 124.2 188.49 124.45 188.58 124.78Z" fill="black"/>
<path d="M207.85 138.41C207.85 138.85 207.43 139.26 207.07 139.16C206.58 139.03 206.41 138.78 206.43 138.26C206.44 137.95 206.69 137.71 207.03 137.68C207.44 137.64 207.85 138 207.85 138.42V138.41Z" fill="black"/>
<path d="M40.51 119.87C39.98 119.87 39.63 119.51 39.64 119.08C39.64 118.65 40.06 118.23 40.39 118.31C40.76 118.39 41.06 118.82 40.96 119.27C40.9 119.52 40.64 119.72 40.51 119.88V119.87Z" fill="black"/>
<path d="M184.47 142.14C184.45 142.7 184.07 143 183.63 142.92C183.32 142.86 183.07 142.56 183.1 142.27C183.15 141.84 183.56 141.47 183.94 141.62C184.18 141.71 184.33 142.01 184.46 142.15L184.47 142.14Z" fill="black"/>
<path d="M180.41 131.44C180.59 131.5 180.84 131.52 180.94 131.65C181.28 132.06 181.13 132.77 180.66 132.96C180.51 133.02 180.25 132.96 180.09 132.87C179.78 132.7 179.76 132.37 179.79 132.05C179.82 131.68 180.09 131.54 180.41 131.45V131.44Z" fill="black"/>
<path d="M70.4099 135.71C70.2399 135.63 69.9999 135.6 69.9199 135.47C69.7099 135.11 69.8199 134.62 70.1499 134.43C70.2999 134.34 70.6199 134.29 70.6699 134.36C70.8199 134.59 70.9399 134.87 70.9699 135.14C70.9999 135.45 70.7499 135.66 70.4099 135.71Z" fill="black"/>
<path d="M181.02 78.47C180.86 78.6 180.68 78.84 180.43 78.94C180.15 79.06 179.78 78.76 179.82 78.44C179.85 78.17 179.99 77.84 180.19 77.69C180.46 77.5 181.01 77.97 181.02 78.48V78.47Z" fill="black"/>
<path d="M63.66 134.62C63.94 134.84 64.21 134.97 64.35 135.18C64.55 135.49 64.17 135.96 63.77 135.96C63.49 135.96 63.12 135.64 63.2 135.39C63.27 135.14 63.47 134.93 63.67 134.62H63.66Z" fill="black"/>
<path d="M47.65 145.8C47.54 146.36 47.01 146.56 46.73 146.25C46.55 146.05 46.42 145.75 46.38 145.48C46.33 145.13 46.62 144.98 46.92 144.89C47.16 144.81 47.33 144.88 47.42 145.11C47.52 145.38 47.6 145.66 47.65 145.81V145.8Z" fill="black"/>
<path d="M210.2 149.72C210.04 149.31 209.86 149.06 209.86 148.8C209.86 148.5 210.29 148.25 210.56 148.31C210.83 148.37 211.07 148.76 210.93 149.04C210.8 149.28 210.53 149.43 210.2 149.72Z" fill="black"/>
<path d="M174.15 85.71C173.97 85.62 173.76 85.55 173.61 85.42C173.37 85.22 173.4 84.82 173.62 84.59C173.83 84.37 174.21 84.38 174.45 84.65C174.58 84.79 174.67 84.99 174.73 85.18C174.82 85.49 174.48 85.79 174.15 85.72V85.71Z" fill="black"/>
<path d="M193.64 92.68C193.35 92.62 193.17 92.27 193.28 91.95C193.39 91.63 193.75 91.46 194.01 91.66C194.16 91.77 194.27 91.98 194.31 92.16C194.36 92.44 193.93 92.73 193.64 92.67V92.68Z" fill="black"/>
<path d="M60.67 145.34C60.58 145.5 60.52 145.74 60.39 145.81C60.12 145.95 59.75 145.71 59.75 145.39C59.75 145.22 59.88 144.98 60.02 144.9C60.26 144.75 60.61 145.01 60.68 145.34H60.67Z" fill="black"/>
<path d="M176.89 135.73C176.9 135.3 177.21 135.08 177.53 135.14C177.88 135.21 178.06 135.45 178.02 135.78C177.97 136.17 177.68 136.41 177.43 136.25C177.2 136.1 177.02 135.87 176.89 135.73Z" fill="black"/>
<path d="M210.78 108.74C210.7 108.56 210.57 108.34 210.52 108.1C210.52 108.06 210.84 107.89 211.01 107.89C211.16 107.89 211.36 108.03 211.44 108.17C211.57 108.4 211.22 108.76 210.79 108.74H210.78Z" fill="black"/>
<path d="M158 88.45C157.73 88.54 157.47 88.63 157.2 88.69C157.15 88.7 157 88.54 157.01 88.48C157.06 88.2 157.16 87.93 157.24 87.66C157.43 87.72 157.66 87.72 157.78 87.85C157.9 87.97 157.92 88.2 158.01 88.46L158 88.45Z" fill="black"/>
<path d="M184.13 88.25C184 88.34 183.87 88.52 183.75 88.51C183.43 88.47 183.28 88.16 183.41 87.89C183.44 87.82 183.54 87.75 183.62 87.72C183.88 87.62 184.16 87.92 184.12 88.25H184.13Z" fill="black"/>
<path d="M170.45 94.65C170.59 94.9 170.74 95.06 170.75 95.23C170.77 95.51 170.45 95.71 170.15 95.57C170.02 95.51 169.85 95.22 169.89 95.17C170.03 94.97 170.24 94.83 170.45 94.65Z" fill="black"/>
<path d="M204.48 95.03C204.48 95.37 204.17 95.66 203.87 95.53C203.72 95.47 203.56 95.28 203.54 95.12C203.49 94.79 203.85 94.49 204.14 94.61C204.29 94.67 204.37 94.88 204.48 95.02V95.03Z" fill="black"/>
<path d="M67.1999 158.73C67.0899 158.86 66.9599 159.15 66.7399 159.24C66.3799 159.4 66.0099 159.09 65.9199 158.64C65.8699 158.41 66.1299 158.01 66.3499 157.97C66.7599 157.91 67.1499 158.17 67.1999 158.72V158.73Z" fill="black"/>
<path d="M93.75 117.57C93.99 117.7 94.21 117.75 94.28 117.89C94.42 118.14 94.21 118.45 93.86 118.5C93.72 118.52 93.41 118.32 93.42 118.29C93.49 118.05 93.62 117.82 93.74 117.58L93.75 117.57Z" fill="black"/>
<path d="M43.1801 135.43C43.4601 135.34 43.6601 135.19 43.8201 135.23C44.1501 135.33 44.2201 135.62 44.1201 135.94C44.0401 136.21 43.8401 136.3 43.6401 136.11C43.4501 135.93 43.3401 135.67 43.1801 135.43Z" fill="black"/>
<path d="M74.07 118.52C73.97 118.9 73.69 119.09 73.42 118.97C73.17 118.86 72.96 118.44 73.04 118.23C73.13 118.02 73.53 117.9 73.84 118.02C74.07 118.11 74.15 118.29 74.07 118.51V118.52Z" fill="black"/>
<path d="M217.95 141.93C217.67 142.22 217.51 142.45 217.3 142.59C217.11 142.72 216.91 142.59 216.82 142.35C216.7 142.02 216.81 141.56 217.03 141.58C217.3 141.6 217.55 141.77 217.95 141.93Z" fill="black"/>
<path d="M194.03 118.56C193.91 118.8 193.88 119.04 193.75 119.11C193.37 119.32 192.88 119.11 192.84 118.78C192.81 118.53 193.11 118.15 193.37 118.2C193.61 118.25 193.82 118.44 194.03 118.57V118.56Z" fill="black"/>
<path d="M180.94 111.82C180.94 112.09 180.62 112.31 180.33 112.21C180.04 112.12 179.79 111.96 179.88 111.6C179.93 111.43 180.03 111.21 180.17 111.14C180.45 111 180.97 111.46 180.94 111.81V111.82Z" fill="black"/>
<path d="M141.31 111.56C141.39 111.8 141.31 111.97 141.08 112.07C140.74 112.22 140.4 112.11 140.39 111.83C140.39 111.65 140.48 111.41 140.61 111.29C140.82 111.1 141.18 111.26 141.31 111.56Z" fill="black"/>
<path d="M63.93 148.64C63.84 148.8 63.78 149.04 63.64 149.09C63.36 149.2 62.94 148.94 62.97 148.69C63 148.51 63.13 148.3 63.28 148.2C63.53 148.03 63.85 148.26 63.93 148.63V148.64Z" fill="black"/>
<path d="M70.85 148.56C70.74 148.69 70.64 148.89 70.5 148.93C70.2 149.01 69.88 148.61 70.06 148.37C70.16 148.24 70.4 148.12 70.55 148.15C70.67 148.17 70.75 148.42 70.85 148.57V148.56Z" fill="black"/>
<path d="M80.62 137.86C80.81 138.05 81.02 138.17 81.02 138.28C81.02 138.44 80.89 138.69 80.75 138.73C80.61 138.78 80.41 138.63 80.23 138.57C80.35 138.34 80.48 138.12 80.62 137.86Z" fill="black"/>
<path d="M167.69 125.07C167.63 125.52 167.35 125.73 167.05 125.65C166.66 125.55 166.5 125.32 166.59 125.02C166.7 124.63 166.96 124.41 167.22 124.56C167.44 124.69 167.58 124.94 167.7 125.07H167.69Z" fill="black"/>
<path d="M200.85 98.66C200.69 98.57 200.44 98.51 200.38 98.38C200.25 98.08 200.38 97.81 200.68 97.65C200.95 97.5 201.29 97.71 201.33 98.03C201.37 98.37 201.18 98.62 200.84 98.67L200.85 98.66Z" fill="black"/>
<path d="M166.94 97.64C167.23 97.93 167.46 98.09 167.58 98.31C167.63 98.41 167.5 98.71 167.38 98.77C167.09 98.91 166.73 98.8 166.64 98.53C166.58 98.33 166.79 98.04 166.94 97.64Z" fill="black"/>
<path d="M154.2 98.62C154.03 98.69 153.78 98.86 153.53 98.85C153.25 98.85 153.09 98.4 153.27 98.14C153.36 98 153.58 97.88 153.75 97.87C154.09 97.86 154.32 98.19 154.2 98.62Z" fill="black"/>
<path d="M190.99 122.09C191.03 122.54 190.64 122.9 190.42 122.75C190.28 122.66 190.14 122.46 190.13 122.3C190.13 122.13 190.27 121.96 190.35 121.78C190.59 121.89 190.82 122 191 122.08L190.99 122.09Z" fill="black"/>
<path d="M183.72 96.26C183.47 96.36 183.31 96.28 183.21 96.03C182.99 95.51 183.09 95.28 183.6 95.07C183.85 94.97 184.02 95.03 184.12 95.28C184.32 95.78 184.21 96.05 183.73 96.25L183.72 96.26Z" fill="black"/>
<path d="M197.49 128.93C197.37 129.29 197.16 129.48 196.8 129.46C196.47 129.44 196.26 129.13 196.36 128.81C196.5 128.38 196.69 128.22 197 128.3C197.39 128.4 197.57 128.66 197.49 128.93Z" fill="black"/>
<path d="M150.86 88.73C150.72 88.84 150.58 89.04 150.42 89.05C150.14 89.07 149.96 88.71 150.07 88.38C150.15 88.15 150.37 88.07 150.57 88.24C150.71 88.35 150.76 88.56 150.85 88.73H150.86Z" fill="black"/>
<path d="M63.38 141.58C63.52 141.68 63.6999 141.75 63.7799 141.88C63.9199 142.11 63.52 142.39 63.24 142.23C63.11 142.15 63.04 141.95 62.95 141.8C63.09 141.73 63.2399 141.65 63.3899 141.58H63.38Z" fill="black"/>
<path d="M52.95 145.53C53.09 145.22 53.44 145.04 53.61 145.22C53.72 145.34 53.76 145.58 53.72 145.75C53.66 145.98 53.45 146.02 53.22 145.95C52.98 145.87 52.88 145.75 52.95 145.54V145.53Z" fill="black"/>
<path d="M94.03 131.98C93.93 132.21 93.73 132.35 93.54 132.21C93.41 132.12 93.32 131.84 93.35 131.66C93.39 131.42 93.62 131.36 93.85 131.46C94.09 131.57 94.15 131.74 94.03 131.97V131.98Z" fill="black"/>
<path d="M81.7 151.85C81.57 152.1 81.53 152.31 81.41 152.37C81.25 152.44 81.02 152.44 80.85 152.37C80.68 152.31 80.56 152.13 80.41 152.01C80.57 151.9 80.72 151.71 80.88 151.7C81.13 151.68 81.4 151.79 81.71 151.85H81.7Z" fill="black"/>
<path d="M180.63 105.59C180.44 105.66 180.25 105.8 180.08 105.78C179.83 105.74 179.79 105.52 179.9 105.28C180.01 105.04 180.19 104.92 180.39 105.08C180.52 105.18 180.56 105.42 180.63 105.6V105.59Z" fill="black"/>
<path d="M143.87 101.42C144.05 101.5 144.23 101.59 144.42 101.67C144.32 101.84 144.26 102.06 144.12 102.16C143.9 102.31 143.67 102.2 143.66 101.94C143.66 101.77 143.8 101.59 143.88 101.42H143.87Z" fill="black"/>
<path d="M167.68 91.48C167.61 91.79 167.35 91.89 167.03 91.75C166.8 91.65 166.74 91.49 166.86 91.26C167.02 90.94 167.36 90.77 167.51 90.95C167.62 91.09 167.63 91.31 167.69 91.49L167.68 91.48Z" fill="black"/>
<path d="M97.26 128.53C97.1 128.61 96.95 128.77 96.79 128.77C96.48 128.77 96.34 128.41 96.55 128.15C96.63 128.05 96.92 127.98 97.01 128.05C97.14 128.14 97.18 128.37 97.26 128.53Z" fill="black"/>
<path d="M97.78 122.18C97.31 122.28 97.06 122.39 96.82 122.37C96.74 122.37 96.61 122.03 96.64 121.86C96.66 121.72 96.94 121.49 96.98 121.52C97.21 121.66 97.4 121.86 97.78 122.19V122.18Z" fill="black"/>
<path d="M57.39 129.1C57.3 129.08 57.18 129.1 57.12 129.05C56.83 128.82 56.82 128.5 57.1 128.37C57.18 128.33 57.3 128.32 57.37 128.35C57.58 128.47 57.58 128.98 57.39 129.1Z" fill="black"/>
<path d="M44.4399 128.4C44.3599 128.56 44.3099 128.78 44.1799 128.88C43.9899 129.02 43.7899 128.92 43.6899 128.7C43.5799 128.47 43.6499 128.27 43.8999 128.24C44.0699 128.22 44.2599 128.34 44.4399 128.4Z" fill="black"/>
<path d="M200.7 111.66C200.83 111.77 201.05 111.86 201.08 112C201.15 112.25 200.65 112.63 200.46 112.47C200.33 112.37 200.25 112.11 200.28 111.94C200.3 111.83 200.55 111.75 200.69 111.66H200.7Z" fill="black"/>
<path d="M67.4 172.4C67.22 172.48 67.02 172.64 66.85 172.61C66.61 172.57 66.57 172.34 66.64 172.1C66.72 171.84 66.9 171.72 67.12 171.88C67.26 171.99 67.31 172.22 67.4 172.4Z" fill="black"/>
<path d="M67.41 165.3C67.32 165.42 67.25 165.58 67.13 165.66C66.92 165.81 66.73 165.72 66.72 165.47C66.72 165.34 66.85 165.09 66.92 165.09C67.08 165.09 67.23 165.21 67.4 165.29L67.41 165.3Z" fill="black"/>
<path d="M220.15 138.09C220.22 138.09 220.33 138.09 220.36 138.12C220.41 138.2 220.44 138.31 220.42 138.4C220.4 138.48 220.3 138.55 220.23 138.62C220.18 138.54 220.1 138.46 220.08 138.36C220.07 138.28 220.12 138.18 220.14 138.09H220.15Z" fill="black"/>
<path d="M47.0399 125.27C46.8899 125.39 46.7799 125.55 46.6299 125.59C46.5699 125.61 46.3499 125.37 46.3599 125.27C46.3799 125.05 46.5799 124.98 46.8199 125.07C46.9099 125.1 46.9699 125.2 47.0499 125.27H47.0399Z" fill="black"/>
<path d="M187.09 97.92C187.16 97.93 187.27 97.92 187.3 97.96C187.34 98.02 187.36 98.13 187.33 98.2C187.3 98.28 187.21 98.33 187.14 98.4C187.09 98.32 187.02 98.24 187.01 98.16C187 98.09 187.06 98 187.08 97.93L187.09 97.92Z" fill="black"/>
<path d="M214.03 98.25C214.03 98.34 214.07 98.45 214.03 98.52C213.99 98.59 213.88 98.63 213.81 98.68C213.76 98.52 213.68 98.36 213.66 98.2C213.66 98.15 213.79 98.08 213.86 98.03C213.92 98.1 213.97 98.18 214.03 98.25Z" fill="black"/>
<path d="M53.5801 124.5C53.6701 124.65 53.8401 124.8 53.8401 124.95C53.8401 125.1 53.6601 125.24 53.5601 125.39C53.4701 125.24 53.3101 125.08 53.3101 124.93C53.3101 124.79 53.4901 124.65 53.5901 124.51L53.5801 124.5Z" fill="black"/>
<path d="M156.81 101.79C156.97 101.71 157.12 101.61 157.29 101.55C157.31 101.55 157.44 101.69 157.44 101.77C157.44 101.85 157.32 102.01 157.3 102C157.13 101.95 156.98 101.86 156.81 101.78V101.79Z" fill="black"/>
<path d="M164.45 101.82C164.45 101.92 164.47 102.02 164.43 102.1C164.39 102.18 164.3 102.24 164.23 102.31C164.15 102.14 164.06 101.98 164.01 101.8C164 101.77 164.15 101.64 164.23 101.64C164.3 101.64 164.38 101.75 164.45 101.81V101.82Z" fill="black"/>
<path d="M203.76 101.52C203.84 101.58 204 101.69 203.99 101.71C203.91 101.88 203.79 102.04 203.68 102.2C203.61 102.12 203.51 102.06 203.48 101.97C203.38 101.71 203.48 101.56 203.76 101.52Z" fill="black"/>
<path d="M180.2 98.81C180.13 98.73 180 98.61 180.02 98.56C180.12 98.33 180.32 98.26 180.55 98.37C180.64 98.41 180.69 98.52 180.76 98.6C180.57 98.67 180.39 98.74 180.2 98.81Z" fill="black"/>
<path d="M217.31 95.4C217.22 95.45 217.12 95.55 217.05 95.53C216.81 95.46 216.74 95.28 216.86 95.06C216.91 94.98 217.01 94.94 217.09 94.89C217.16 95.06 217.23 95.23 217.3 95.4H217.31Z" fill="black"/>
<path d="M156.86 108.57C156.95 108.6 157.1 108.62 157.11 108.68C157.16 108.87 157.02 108.97 156.76 108.92C156.7 108.92 156.66 108.79 156.62 108.71C156.7 108.66 156.79 108.61 156.87 108.57H156.86Z" fill="black"/>
<path d="M203.86 108.68C203.94 108.65 204.02 108.59 204.09 108.61C204.33 108.66 204.36 108.78 204.15 108.9C204.1 108.93 203.98 108.9 203.92 108.85C203.88 108.83 203.88 108.74 203.86 108.68Z" fill="black"/>
<path d="M213.98 112.27C213.89 112.13 213.71 111.98 213.73 111.86C213.77 111.61 214 111.52 214.22 111.65C214.35 111.73 214.42 111.91 214.52 112.04C214.34 112.12 214.17 112.19 213.99 112.27H213.98Z" fill="black"/>
<path d="M146.96 112.05L147.16 112.06L147.05 112.3L146.96 112.05Z" fill="black"/>
<path d="M70.78 115.06C70.68 115.3 70.49 115.39 70.25 115.29C70.16 115.25 70.1 115.15 70.02 115.07C70.2 114.99 70.37 114.89 70.56 114.84C70.61 114.83 70.7 114.98 70.77 115.06H70.78Z" fill="black"/>
<path d="M67.2101 111.79C67.1301 111.86 67.0601 111.97 66.9801 111.98C66.7201 112.03 66.4901 111.69 66.5901 111.39C66.6101 111.31 66.7301 111.22 66.8201 111.2C67.1001 111.15 67.3001 111.46 67.2201 111.79H67.2101Z" fill="black"/>
<path d="M77.01 122.08C76.99 121.99 76.95 121.9 76.96 121.82C76.96 121.79 77.08 121.77 77.15 121.75C77.17 121.84 77.21 121.93 77.21 122.02C77.21 122.04 77.08 122.06 77 122.08H77.01Z" fill="black"/>
<path d="M213.78 105.26C214.03 105.21 214.2 105.31 214.25 105.55C214.26 105.62 214.15 105.74 214.07 105.78C213.82 105.9 213.65 105.8 213.63 105.52C213.63 105.43 213.73 105.34 213.78 105.26Z" fill="black"/>
<path d="M191.08 135.14C191.04 135.23 191.02 135.38 190.97 135.39C190.77 135.45 190.66 135.31 190.72 135.04C190.73 134.98 190.86 134.94 190.93 134.89C190.98 134.97 191.03 135.05 191.08 135.13V135.14Z" fill="black"/>
<path d="M90.58 135.32C90.82 135.42 90.92 135.61 90.79 135.83C90.71 135.96 90.53 136.03 90.4 136.13C90.32 135.95 90.18 135.77 90.19 135.59C90.19 135.5 90.44 135.41 90.58 135.32Z" fill="black"/>
<path d="M168.97 76.58C168.97 77.01 168.7 77.17 168.33 77.24L168.39 77.29C168.39 76.86 168.66 76.7 169.03 76.63L168.97 76.58Z" fill="black"/>
<path d="M221.05 104.96C220.98 105.02 220.9 105.09 220.83 105.16C220.77 105.08 220.65 105.01 220.65 104.94C220.65 104.87 220.78 104.81 220.85 104.74C220.91 104.82 220.98 104.89 221.04 104.96H221.05Z" fill="black"/>
<path d="M77.08 155.39C77.01 155.35 76.95 155.31 76.88 155.28C76.95 155.18 77.02 155.08 77.1 154.98C77.16 155.05 77.23 155.12 77.29 155.19C77.22 155.25 77.15 155.32 77.08 155.38V155.39Z" fill="black"/>
<path d="M220.47 132.29C220.4 132.35 220.32 132.45 220.25 132.45C220.18 132.45 220.06 132.28 220.08 132.26C220.22 132.01 220.36 132.03 220.47 132.3V132.29Z" fill="black"/>
<path d="M80.2601 145.18L80.1801 144.97L80.3801 144.99L80.2601 145.18Z" fill="black"/>
<path d="M66.96 118.22L67.01 118.39L66.84 118.36L66.96 118.22Z" fill="black"/>
<path d="M160.65 111.93C160.58 111.98 160.51 112.08 160.45 112.07C160.39 112.07 160.34 111.95 160.29 111.89C160.36 111.84 160.43 111.74 160.49 111.75C160.55 111.75 160.6 111.87 160.65 111.93Z" fill="black"/>
<path d="M143.91 114.93L143.98 115.14L143.79 115.12L143.91 114.93Z" fill="black"/>
<path d="M207.07 125.22C207.04 125.28 207 125.34 206.97 125.39C206.88 125.33 206.79 125.26 206.7 125.2C206.76 125.14 206.83 125.04 206.89 125.04C206.95 125.04 207.01 125.15 207.06 125.21L207.07 125.22Z" fill="black"/>
<path d="M57.32 121.95L57.39 122.13L57.22 122.11L57.32 121.95Z" fill="black"/>
<path d="M63.8501 168.61C63.7801 168.67 63.7001 168.79 63.6301 168.79C63.5601 168.79 63.5001 168.66 63.4301 168.59C63.5001 168.53 63.5801 168.41 63.6501 168.41C63.7201 168.41 63.7801 168.54 63.8501 168.61Z" fill="black"/>
</g>
<defs>
<clipPath id="clip0_415_436">
<rect width="218.56" height="169.43" fill="white" transform="translate(12 6)"/>
</clipPath>
</defs>
</svg>
