<svg width="243" height="182" viewBox="0 0 243 182" fill="none" xmlns="http://www.w3.org/2000/svg">
<g clip-path="url(#clip0_415_902)">
<path fill-rule="evenodd" clip-rule="evenodd" d="M186.82 41.82C186.44 41.57 186.98 40.05 186.76 40.46L177.4 55.46L173.05 62.07C171.23 64.93 170.11 68.2 169.8 71.6C170.13 77.04 176.23 75.05 176.38 75.02C176.99 74.85 177.58 74.62 178.16 74.35C178.69 74.07 179.21 73.75 179.71 73.42C181.96 71.82 184.05 70 185.96 67.98C190.31 63.47 191.66 61.01 195.62 56.48L199.81 51.41" fill="#B989C9"/>
<path d="M113.071 93.5644L54.1666 100.985C48.9556 101.641 45.2634 106.398 45.9198 111.609L50.0419 144.33C50.6984 149.541 55.4549 153.234 60.6659 152.577L119.57 145.157C124.781 144.5 128.474 139.744 127.817 134.533L123.695 101.811C123.039 96.6001 118.282 92.9079 113.071 93.5644Z" fill="#5FBFFA"/>
<path d="M99.7501 135.51C94.8101 136.12 87.6601 126.82 84.6701 126.81C81.6801 126.8 78.5301 126.55 67.5401 137.69C66.8701 138.38 67.4701 139.18 68.8901 139.48C70.3101 139.78 72.0001 139.48 72.6701 138.79C72.7001 138.76 72.7201 138.73 72.7501 138.7C77.4301 133.15 80.9301 129.9 84.1201 130.01C86.2001 130.09 89.5801 138.07 99.7901 138.16C103.29 138.19 106.46 136.64 109.65 132.48C112.13 129.24 114.37 127.13 118.79 126.87C120.34 126.76 121.44 126.07 121.25 125.33C121.06 124.62 119.74 124.11 118.23 124.18C106.2 124.77 104.69 134.91 99.7501 135.52V135.51Z" fill="black"/>
<path d="M98.2501 120.33C93.3101 120.94 86.1601 111.64 83.1701 111.63C80.1801 111.62 77.0301 111.37 66.0401 122.51C65.3701 123.2 65.9701 124 67.3901 124.3C68.8101 124.6 70.5001 124.3 71.1701 123.61C71.2001 123.58 71.2201 123.55 71.2501 123.52C75.9301 117.97 79.4301 114.72 82.6201 114.83C84.7001 114.91 88.0801 122.89 98.2901 122.98C101.79 123.01 104.96 121.46 108.15 117.3C110.63 114.06 112.87 111.95 117.29 111.69C118.84 111.58 119.94 110.89 119.75 110.15C119.56 109.44 118.24 108.93 116.73 109C104.7 109.59 103.19 119.73 98.2501 120.34V120.33Z" fill="black"/>
<path d="M49.3499 175.25C54.8199 177.65 60.8399 176.1 66.4699 175.33C73.4499 174.36 80.5699 174.06 87.5899 173.53C105.77 172.16 124.13 170.8 142.18 168.22C150.87 166.98 159.55 165.62 168.29 164.77C174.36 164.17 179.89 162.55 184.48 158.34L184.55 158.27C185.15 157.72 185.55 156.99 185.68 156.19C188.66 138.56 163.23 146.14 146.73 146.58C143.69 133.01 133.48 90.57 124 84.6C113.03 77.71 33.1599 80 25.7799 90.4C21.1599 99.31 26.8799 114.94 29.2399 123.74C33.0399 137.92 37.8099 151.89 43.2099 165.54C44.5299 168.88 45.6099 173.61 49.3399 175.24L49.3499 175.25ZM47.1799 159.82C36.4099 130.39 27.3099 98.1 30.4499 93.69C35.2799 86.98 111.44 83.41 121.02 89.43C127.04 93.23 136.19 125.58 141.07 147.16C118.51 150.59 64.0599 151.9 47.1799 159.81V159.82ZM74.6899 169.12C67.0399 169.27 46.1199 172.68 49.4299 165.34C51.6199 162.13 67.4599 160.27 82.1499 158.8C88.8099 158.73 102.57 154.13 104.41 162.12C104.17 169.94 79.7199 167.35 74.6899 169.12ZM109.41 165.7C110.69 162.46 110.03 158.78 107.71 156.19C120.46 154.93 135.39 153.06 145.12 152.48C156.82 151.78 181.32 146.7 180.58 154.45C180.52 155.04 180.13 155.55 179.57 155.76C159.61 163.11 138.54 161.8 109.4 165.7H109.41Z" fill="black"/>
<path d="M54.68 148.22C56.24 148.06 57.38 146.66 57.23 145.1C57.21 144.86 57.15 144.63 57.07 144.4C50.66 127.55 45.46 107.32 47.86 104.13C51.29 100.7 84.16 99.08 112.63 99.54C114.2 99.53 115.46 98.24 115.44 96.67C115.43 95.16 114.23 93.92 112.72 93.86C93.64 93.54 48.68 93.6 43.37 100.67C37.84 108 48.38 137.55 51.78 146.4C52.22 147.59 53.41 148.34 54.68 148.22Z" fill="#001434"/>
<path d="M202.16 172.27C202.04 172.76 201.92 173.25 201.77 173.72C201.59 174.28 201.34 174.87 200.83 175.15C198.84 176.23 198.02 170.74 197.88 169.71C197.54 167.12 197.82 164.4 199.41 162.24C200.34 160.97 201.64 160.01 202.73 158.87C206.45 154.98 207.55 149.35 208.48 144.05C208.86 141.89 209.24 139.63 208.6 137.54C208.21 136.27 207.47 135.14 206.96 133.91C205.82 131.16 206.27 127.85 207.54 125.23C208.27 123.73 209.81 121.06 211.45 120.42C215.09 119.01 213.26 122.93 212.88 124.89C212.45 127.08 212.34 129.2 213.5 131.21C213.79 131.71 214.18 132.2 214.74 132.34C215.93 132.65 216.83 131.29 217.29 130.14C218.08 128.15 218.65 120.59 221.47 121.6C224.47 122.67 224.23 129.21 223.27 131.39C222.12 134.01 219.77 135.9 218.32 138.36C217.16 140.33 216.6 142.59 216.07 144.81C215.15 148.62 214.22 152.44 213.3 156.25C213.03 157.37 212.76 158.54 212.97 159.67C213.22 160.99 214.08 162.1 214.68 163.31C215.97 165.92 215.95 169.14 214.63 171.73C213.61 173.75 211.82 175.35 209.72 176.21C208.91 176.54 208.07 175.8 208.26 174.96L209.32 170.29C209.62 168.98 209.9 167.51 208.62 166.49C207.61 165.68 206.14 165.74 205.09 166.49C203.1 167.91 202.7 170.12 202.18 172.28L202.16 172.27Z" fill="black"/>
<path fill-rule="evenodd" clip-rule="evenodd" d="M213.85 26.36C211.27 21.11 205.5 17.65 199.63 18.11C196.98 18.32 194.47 19.15 192.07 20.24C189.42 21.44 187 23.21 185.39 25.66C185.34 25.73 185.29 25.81 185.25 25.89C184.08 27.76 183.28 29.84 182.89 32.01C182.49 34.11 182.49 36.27 182.89 38.38C182.94 38.55 183.04 38.71 183.17 38.83C183.11 39.03 183.11 39.25 183.17 39.45C184.66 44.41 188.58 48.24 193.33 50.16C198.64 52.3 205.44 52.49 210.08 48.71C213.34 46.05 214.6 41.69 215.35 37.72C215.44 37.27 215.51 36.82 215.57 36.37C216.01 33.01 215.36 29.45 213.84 26.37L213.85 26.36ZM190.57 23.9C190.57 23.9 190.62 23.86 190.64 23.84C192.85 22.01 195.6 20.97 198.41 20.51C201.22 20.05 204.26 19.94 206.62 21.55C207.52 22.16 206.77 22.38 206.07 22.43C202.06 22.76 198.38 24.36 195.1 26.63C193.8 27.53 192.59 28.55 191.49 29.68C191.25 29.93 191.13 30.46 190.68 30.3C190.36 30.19 190.14 29.61 189.98 29.34C189.44 28.45 189.07 27.46 188.74 26.47C188.45 25.6 189.93 24.42 190.57 23.9ZM206.16 25.1C206.29 25.29 206.27 25.65 206.01 26.26C204.4 30.11 202.78 34.04 200.89 37.79C200.67 38.22 200.49 38.71 200.21 39.11C199.85 39.63 199.59 39.26 199.18 38.96C198.34 38.35 197.53 37.71 196.75 37.04C195.67 36.08 194.65 35.06 193.69 33.98C193.03 33.24 193.1 32.89 193.88 32.24C195.74 30.7 197.75 29.36 199.8 28.09C200.84 27.45 201.9 26.82 202.95 26.2C203.66 25.78 205.72 24.5 206.15 25.11L206.16 25.1ZM184.94 38.35C184.88 38.32 184.83 38.29 184.8 38.26C184.63 38.08 184.69 37.71 184.68 37.46C184.64 34.58 185.03 31.64 186.49 29.11C186.59 28.93 186.87 28.97 186.92 29.17C187.26 30.39 187.73 31.57 188.32 32.7C188.51 33.06 188.48 33.5 188.24 33.83C187.66 34.62 187.11 35.44 186.61 36.28C186.34 36.72 186.12 37.18 185.89 37.63C185.77 37.85 185.7 38.2 185.5 38.37C185.38 38.47 185.12 38.45 184.94 38.37V38.35ZM195.52 46.75C195.23 47.05 194.76 47.09 194.42 46.86C193.92 46.53 193.42 46.18 192.94 45.81C192.27 45.29 190.7 44.01 189.63 43.06C189.08 42.57 188.53 42.07 187.99 41.56C187.67 41.26 187.28 41.01 187 40.67C186.55 40.13 187.12 39.53 187.46 39.07C187.78 38.63 188.17 38.24 188.5 37.81C188.81 37.41 190.08 35.98 190.4 35.59C191.29 34.5 192.15 35.68 192.8 36.4C193.64 37.32 194.26 38.15 195.22 38.95C196.25 39.84 197.34 40.64 198.49 41.35C198.87 41.59 199.02 42.07 198.82 42.47C198.54 43 197.24 44.52 196.92 45.03C196.5 45.64 196.04 46.22 195.53 46.76L195.52 46.75ZM207.57 45.74C207.92 45.79 208.66 46.02 208.29 46.5C207.93 46.96 207.36 47.38 206.87 47.68C206.13 48.13 205.32 48.46 204.49 48.67C203.53 48.91 202.4 49.15 201.26 49.24C200.05 49.34 198.82 49.28 197.76 48.89C197.39 48.75 197.32 48.26 197.62 48C198.06 47.62 198.49 47.21 198.89 46.78C199.52 46.04 201.11 44.28 201.68 43.5C201.9 43.19 202.3 43.09 202.65 43.24L207.59 45.73L207.57 45.74ZM203.33 40.74C203.39 40.6 203.47 40.47 203.55 40.34C206.33 36.07 207.89 31.16 208.68 26.16C208.92 24.66 209.48 23.74 210.63 25.38C211.2 26.2 211.64 27.09 211.98 28.03C212.66 29.91 212.92 31.93 212.93 33.92C212.94 37.44 212.22 41.02 210.38 44.02C210.3 44.14 210.22 44.28 210.09 44.34C209.88 44.44 209.64 44.34 209.43 44.24C208.08 43.61 206.74 42.98 205.39 42.35C204.84 42.09 203.92 41.86 203.47 41.47C203.22 41.26 203.23 40.99 203.34 40.73L203.33 40.74Z" fill="black"/>
<path d="M201.05 52.19C198.23 52.19 195.45 51.55 193.14 50.62C188.05 48.57 184.14 44.45 182.68 39.59C182.62 39.39 182.6 39.18 182.62 38.97C182.52 38.83 182.44 38.68 182.4 38.52C181.98 36.29 181.98 34.08 182.39 31.91C182.79 29.66 183.61 27.55 184.82 25.62L184.97 25.39C186.51 23.04 188.83 21.16 191.86 19.79C194.72 18.5 197.18 17.8 199.59 17.61C205.55 17.14 211.6 20.65 214.3 26.14C215.89 29.38 216.52 33.03 216.07 36.43C216.01 36.89 215.93 37.35 215.84 37.81C215.13 41.58 213.86 46.27 210.39 49.1C207.64 51.34 204.31 52.19 201.04 52.19H201.05ZM200.67 18.57C200.34 18.57 200 18.58 199.67 18.61C197.38 18.79 195.03 19.45 192.27 20.7C189.41 21.99 187.24 23.76 185.81 25.94L185.67 26.16C184.53 27.98 183.76 29.98 183.38 32.1C182.99 34.15 182.99 36.23 183.38 38.29C183.39 38.32 183.44 38.41 183.51 38.47L183.74 38.68L183.65 38.98C183.62 39.09 183.62 39.21 183.65 39.31C185.02 43.88 188.71 47.76 193.52 49.69C198.23 51.59 204.98 52.22 209.77 48.31C212.99 45.69 214.18 41.22 214.87 37.61C214.95 37.17 215.03 36.73 215.09 36.28C215.51 33.08 214.91 29.63 213.41 26.57C211.04 21.75 205.91 18.56 200.68 18.56L200.67 18.57ZM200.28 49.79C199.25 49.79 198.34 49.65 197.57 49.37C197.23 49.25 196.99 48.96 196.93 48.61C196.86 48.25 196.99 47.88 197.27 47.64C197.7 47.26 198.12 46.87 198.5 46.46C198.66 46.27 198.91 45.99 199.2 45.66C199.9 44.86 200.86 43.77 201.26 43.22C201.62 42.72 202.27 42.55 202.83 42.8L207.72 45.27C208.01 45.32 208.63 45.48 208.83 45.97C208.9 46.13 208.96 46.46 208.68 46.82C208.22 47.41 207.51 47.88 207.12 48.12C206.33 48.59 205.49 48.95 204.6 49.17C203.36 49.48 202.28 49.67 201.29 49.75C200.94 49.78 200.61 49.79 200.28 49.79ZM202.31 43.68C202.22 43.68 202.13 43.72 202.07 43.81C201.65 44.39 200.71 45.46 199.95 46.32C199.67 46.64 199.42 46.92 199.25 47.12C198.83 47.57 198.39 47.99 197.93 48.39C198.8 48.75 199.9 48.86 201.21 48.75C202.15 48.67 203.17 48.49 204.36 48.19C205.15 47.99 205.91 47.67 206.61 47.25C207.1 46.95 207.53 46.62 207.8 46.31C207.72 46.28 207.62 46.25 207.51 46.24L207.35 46.19L202.41 43.7C202.41 43.7 202.35 43.68 202.31 43.68ZM194.91 47.51C194.65 47.51 194.38 47.43 194.14 47.28C193.68 46.98 193.14 46.61 192.63 46.21C191.94 45.67 190.35 44.37 189.3 43.44C188.74 42.95 188.2 42.44 187.65 41.93C187.54 41.83 187.42 41.73 187.3 41.63C187.07 41.44 186.83 41.25 186.62 41C185.97 40.22 186.59 39.39 186.93 38.95L187.05 38.78C187.24 38.52 187.45 38.27 187.66 38.03C187.81 37.86 187.96 37.68 188.1 37.5C188.28 37.26 188.81 36.66 189.27 36.12C189.59 35.76 189.87 35.42 190 35.27C190.33 34.86 190.71 34.65 191.13 34.65C191.88 34.65 192.49 35.32 192.98 35.86L193.16 36.06C193.39 36.31 193.6 36.56 193.81 36.8C194.35 37.42 194.86 38.01 195.53 38.56C196.54 39.43 197.62 40.23 198.75 40.92C199.36 41.3 199.58 42.07 199.26 42.69C199.08 43.04 198.58 43.67 198.1 44.28C197.79 44.68 197.46 45.09 197.34 45.29C196.89 45.95 196.4 46.56 195.89 47.1C195.63 47.37 195.28 47.51 194.92 47.51H194.91ZM191.16 35.64C191.02 35.64 190.88 35.78 190.78 35.9C190.65 36.06 190.35 36.4 190.03 36.78C189.58 37.3 189.07 37.88 188.89 38.11C188.74 38.31 188.57 38.49 188.41 38.68C188.22 38.9 188.03 39.12 187.86 39.36L187.72 39.55C187.35 40.04 187.27 40.23 187.38 40.36C187.53 40.54 187.72 40.69 187.92 40.86C188.06 40.97 188.2 41.08 188.32 41.2C188.86 41.7 189.4 42.2 189.95 42.69C190.99 43.61 192.55 44.89 193.23 45.42C193.72 45.8 194.24 46.15 194.68 46.45C194.83 46.55 195.03 46.53 195.15 46.41C195.63 45.91 196.08 45.35 196.49 44.75C196.63 44.53 196.94 44.13 197.3 43.67C197.71 43.15 198.22 42.5 198.36 42.24C198.44 42.08 198.38 41.88 198.21 41.78C197.04 41.06 195.92 40.23 194.88 39.33C194.16 38.73 193.62 38.11 193.05 37.46C192.85 37.22 192.64 36.98 192.41 36.74L192.22 36.53C191.91 36.18 191.45 35.66 191.15 35.66L191.16 35.64ZM209.89 44.88C209.6 44.88 209.35 44.76 209.21 44.69L205.17 42.8C205 42.72 204.79 42.64 204.57 42.56C204.07 42.37 203.5 42.17 203.13 41.85C202.91 41.66 202.58 41.24 202.86 40.54C202.93 40.37 203.02 40.21 203.13 40.05C205.63 36.21 207.33 31.5 208.18 26.07C208.3 25.28 208.56 24.2 209.35 24.02C210.16 23.83 210.81 24.78 211.03 25.08C211.6 25.9 212.08 26.83 212.44 27.84C213.08 29.59 213.41 31.63 213.42 33.9C213.44 37.85 212.53 41.43 210.8 44.26C210.71 44.4 210.57 44.64 210.3 44.77C210.16 44.84 210.02 44.86 209.89 44.86V44.88ZM209.57 25.01C209.57 25.01 209.34 25.21 209.18 26.24C208.31 31.82 206.56 36.65 203.98 40.62C203.91 40.72 203.85 40.83 203.8 40.94C203.76 41.05 203.76 41.09 203.76 41.09C204.02 41.32 204.5 41.5 204.92 41.65C205.17 41.74 205.4 41.83 205.6 41.92L209.64 43.81C209.81 43.89 209.89 43.9 209.9 43.9C209.89 43.9 209.94 43.81 209.96 43.78C211.59 41.11 212.45 37.71 212.43 33.94C212.43 31.79 212.11 29.86 211.51 28.21C211.17 27.28 210.73 26.42 210.22 25.68C209.8 25.08 209.59 25.02 209.57 25.02V25.01ZM199.85 39.86C199.53 39.86 199.27 39.66 199.06 39.49C199.01 39.45 198.95 39.4 198.89 39.36C198.04 38.74 197.21 38.09 196.43 37.41C195.34 36.44 194.29 35.4 193.32 34.3C193.02 33.96 192.71 33.54 192.75 33.05C192.79 32.55 193.16 32.17 193.56 31.84C195.62 30.13 197.84 28.7 199.54 27.65C200.47 27.08 201.41 26.52 202.35 25.96L202.81 25.68C204.37 24.75 205.94 23.91 206.56 24.79C206.89 25.26 206.67 25.95 206.47 26.43L205.98 27.59C204.54 31.04 203.04 34.6 201.33 38C201.26 38.13 201.2 38.26 201.14 38.4C200.99 38.73 200.83 39.07 200.62 39.38C200.43 39.66 200.21 39.81 199.96 39.85C199.92 39.85 199.88 39.85 199.84 39.85L199.85 39.86ZM205.73 25.43C205.49 25.43 204.89 25.62 203.32 26.55L202.86 26.83C201.93 27.39 200.99 27.94 200.07 28.51C198.4 29.54 196.22 30.94 194.2 32.62C193.81 32.94 193.75 33.08 193.74 33.14C193.74 33.17 193.75 33.3 194.06 33.65C195 34.71 196.02 35.73 197.08 36.67C197.84 37.32 198.64 37.96 199.47 38.56C199.54 38.61 199.61 38.67 199.68 38.72C199.72 38.75 199.76 38.78 199.8 38.81C199.99 38.53 200.11 38.26 200.24 38C200.31 37.85 200.37 37.71 200.45 37.57C202.15 34.21 203.63 30.66 205.07 27.23L205.56 26.07C205.7 25.73 205.74 25.53 205.75 25.44L205.73 25.43ZM185.26 38.92C185.08 38.92 184.89 38.88 184.73 38.8C184.61 38.74 184.5 38.67 184.43 38.58C184.16 38.29 184.18 37.89 184.18 37.59V37.45C184.13 33.95 184.74 31.13 186.06 28.84C186.21 28.58 186.48 28.44 186.78 28.48C187.08 28.52 187.32 28.73 187.4 29.02C187.73 30.2 188.19 31.35 188.76 32.45C189.04 32.99 188.99 33.62 188.64 34.1C188.07 34.88 187.53 35.69 187.03 36.51C186.84 36.82 186.68 37.14 186.52 37.46L186.32 37.84C186.29 37.9 186.27 37.96 186.24 38.03C186.15 38.25 186.04 38.53 185.82 38.72C185.66 38.86 185.46 38.91 185.26 38.91V38.92ZM185.18 37.9C185.18 37.9 185.19 37.9 185.2 37.9C185.24 37.83 185.28 37.73 185.31 37.66C185.35 37.56 185.39 37.46 185.43 37.37L185.62 37C185.79 36.66 185.97 36.32 186.17 35.99C186.68 35.15 187.24 34.31 187.83 33.51C187.96 33.34 187.97 33.1 187.87 32.91C187.37 31.94 186.95 30.93 186.62 29.9C185.61 31.93 185.14 34.4 185.18 37.44V37.63C185.18 37.71 185.18 37.83 185.18 37.91V37.9ZM190.84 30.83C190.74 30.83 190.63 30.81 190.52 30.77C190.08 30.62 189.84 30.14 189.66 29.79C189.62 29.71 189.59 29.64 189.55 29.59C188.96 28.62 188.57 27.54 188.26 26.62C187.87 25.45 189.38 24.21 190.2 23.55L190.27 23.49C192.42 21.71 195.19 20.52 198.33 20.01C200.73 19.62 204.23 19.31 206.9 21.13C207.09 21.26 207.65 21.65 207.51 22.2C207.36 22.76 206.64 22.88 206.11 22.92C202.5 23.22 198.89 24.6 195.38 27.03C194.1 27.92 192.91 28.92 191.84 30.02C191.81 30.05 191.76 30.13 191.72 30.19C191.59 30.39 191.32 30.82 190.83 30.82L190.84 30.83ZM190.88 24.29L190.83 24.33C189.35 25.54 189.13 26.08 189.21 26.31C189.5 27.18 189.87 28.19 190.4 29.08C190.44 29.15 190.49 29.25 190.54 29.35C190.6 29.47 190.71 29.68 190.8 29.79C190.83 29.75 190.86 29.71 190.88 29.67C190.95 29.56 191.03 29.44 191.13 29.34C192.24 28.2 193.48 27.15 194.81 26.23C198.47 23.7 202.24 22.26 206.02 21.94C206.11 21.94 206.19 21.92 206.25 21.91C203.88 20.35 200.69 20.64 198.48 21C195.51 21.48 192.91 22.6 190.95 24.22L190.87 24.28L190.88 24.29Z" fill="black"/>
<path fill-rule="evenodd" clip-rule="evenodd" d="M182.86 64.33C179.94 67.3 176.69 69.94 173.19 72.19C172.7 72.5 172.19 72.77 171.66 73.02C171.17 73.26 170.66 73.46 170.13 73.6C163.73 75.31 167.9 67.27 170.13 63.72L174.81 55.64L184.19 39.35C184.47 38.89 184.32 38.28 183.85 38C183.39 37.7 184.05 35.91 183.78 36.39L172.32 54.1L167 61.9C164.77 65.27 163.41 69.14 163.02 73.16C163.42 79.59 170.88 77.23 171.07 77.2C171.82 77 172.54 76.73 173.24 76.4C173.88 76.06 174.53 75.7 175.14 75.3C177.89 73.41 180.45 71.26 182.79 68.87C188.11 63.55 189.77 60.64 194.6 55.28L198.5 51.11C199.45 49.61 197.06 49.24 196.17 50.25C192.07 54.41 187.16 59.99 182.85 64.31L182.86 64.33Z" fill="black"/>
<path d="M167.99 78.15C166.78 78.15 165.49 77.92 164.46 77.18C163.3 76.34 162.65 75 162.54 73.2C162.93 69.03 164.34 65.06 166.6 61.63L171.93 53.82L183.38 36.12C183.6 35.72 183.94 35.8 184.03 35.84C184.45 35.99 184.37 36.41 184.31 36.68C184.21 37.16 184.18 37.48 184.21 37.62C184.5 37.82 184.72 38.12 184.81 38.48C184.91 38.86 184.85 39.26 184.64 39.6L170.58 63.96C168.35 67.5 166.54 71.63 167.49 72.91C167.94 73.52 169.11 73.35 170.02 73.11C170.52 72.98 171 72.79 171.46 72.56C171.98 72.32 172.48 72.05 172.95 71.76C176.41 69.53 179.63 66.91 182.53 63.97C184.82 61.67 187.31 58.99 189.71 56.41C191.88 54.07 193.93 51.87 195.85 49.92C196.53 49.15 197.98 48.96 198.77 49.55C199.22 49.88 199.5 50.54 198.96 51.4L195 55.65C193.02 57.84 191.58 59.61 190.19 61.33C188.2 63.78 186.33 66.1 183.17 69.25C180.82 71.65 178.22 73.83 175.45 75.73C174.87 76.11 174.21 76.49 173.5 76.86C172.76 77.21 172 77.49 171.23 77.7C170.52 77.89 169.3 78.16 168.01 78.16L167.99 78.15ZM183.3 38.07L172.75 54.38L167.42 62.19C165.25 65.48 163.9 69.29 163.53 73.22C163.62 74.63 164.13 75.71 165.04 76.37C166.82 77.65 169.71 77.06 170.87 76.75L171 76.72C171.67 76.54 172.37 76.28 173.04 75.96C173.7 75.61 174.33 75.25 174.88 74.89C177.59 73.03 180.13 70.89 182.45 68.53C185.57 65.41 187.43 63.12 189.4 60.69C190.8 58.96 192.25 57.18 194.25 54.96L198.15 50.78C198.33 50.48 198.2 50.38 198.15 50.34C197.84 50.11 196.97 50.13 196.56 50.59C194.63 52.55 192.59 54.75 190.43 57.08C188.02 59.68 185.53 62.36 183.22 64.67C180.28 67.66 176.99 70.33 173.47 72.6C172.96 72.92 172.43 73.2 171.88 73.46C171.38 73.71 170.83 73.92 170.27 74.07C168.51 74.54 167.3 74.35 166.67 73.5C165.07 71.33 168.26 65.74 169.71 63.44L183.77 39.09C183.84 38.97 183.86 38.84 183.83 38.72C183.8 38.6 183.72 38.49 183.61 38.43C183.47 38.34 183.37 38.21 183.3 38.07Z" fill="black"/>
<path fill-rule="evenodd" clip-rule="evenodd" d="M151.34 75.13C147.14 71.49 145.55 65.68 147.33 60.41C148.12 57.71 150.02 55.49 152.56 54.29C156.69 52.15 161.95 51.23 166.15 48.84C169.9 46.24 170.72 41.03 167.96 37.4C165.53 34.23 161.66 32.51 157.68 32.81C157.05 32.79 156.53 33.29 156.52 33.91C156.52 34.52 157.01 35.03 157.62 35.04C160.81 34.92 163.85 36.4 165.73 38.99C167.42 41.29 166.87 44.54 164.51 46.15C161.49 47.45 158.35 48.48 155.15 49.21C152.77 49.85 150.52 50.89 148.48 52.27C146.14 54.01 144.47 56.51 143.77 59.34C141.8 66 144.06 73.19 149.49 77.52C153.87 80.83 160.67 80.26 165.57 75.95C166.61 75.12 165.29 73.62 164.25 74.08C160.18 77.48 154.72 77.95 151.36 75.13H151.34Z" fill="black"/>
<path d="M156.13 80.16C153.6 80.16 151.17 79.42 149.17 77.92C143.54 73.44 141.23 66.09 143.27 59.2C144 56.29 145.73 53.68 148.16 51.87C150.27 50.44 152.56 49.39 155 48.73C158.19 48 161.31 46.98 164.3 45.69C165.24 45.03 165.93 43.97 166.14 42.75C166.35 41.53 166.06 40.29 165.32 39.29C163.54 36.83 160.64 35.45 157.63 35.55C156.71 35.53 156.01 34.81 156.01 33.92C156.02 33.47 156.2 33.07 156.52 32.76C156.84 32.46 157.25 32.31 157.69 32.31C161.81 32 165.81 33.78 168.35 37.1C169.77 38.97 170.36 41.27 169.99 43.59C169.62 45.91 168.36 47.92 166.43 49.26C164.12 50.58 161.53 51.45 159.03 52.29C156.8 53.04 154.69 53.75 152.79 54.74C150.36 55.88 148.55 58 147.81 60.56C146.08 65.67 147.6 71.24 151.66 74.76C154.84 77.42 159.99 76.97 163.91 73.71L164.03 73.64C164.87 73.27 165.78 73.75 166.19 74.43C166.6 75.11 166.47 75.87 165.86 76.36C163 78.88 159.48 80.18 156.13 80.18V80.16ZM158 34.53C161.2 34.53 164.22 36.07 166.12 38.69C167.02 39.91 167.37 41.41 167.12 42.91C166.86 44.41 166.03 45.7 164.78 46.56C161.65 47.91 158.48 48.95 155.24 49.69C152.93 50.32 150.74 51.32 148.74 52.68C146.52 54.33 144.91 56.74 144.23 59.46C142.3 65.98 144.48 72.9 149.78 77.12C154.04 80.34 160.54 79.69 165.21 75.56C165.31 75.48 165.55 75.29 165.33 74.91C165.16 74.63 164.79 74.41 164.48 74.5C160.2 78.03 154.54 78.45 151.01 75.5C146.63 71.71 145 65.72 146.85 60.24C147.67 57.43 149.67 55.08 152.34 53.83C154.29 52.82 156.53 52.06 158.7 51.33C161.16 50.5 163.7 49.65 165.89 48.4C167.55 47.24 168.67 45.46 168.99 43.42C169.31 41.38 168.8 39.34 167.54 37.69C165.2 34.65 161.52 33 157.69 33.3C157.51 33.3 157.31 33.36 157.19 33.47C157.07 33.59 157 33.74 156.99 33.91C156.99 34.24 157.26 34.52 157.61 34.53C157.73 34.53 157.86 34.53 157.99 34.53H158Z" fill="black"/>
<path fill-rule="evenodd" clip-rule="evenodd" d="M179.56 54.07C179.25 54.53 178.98 55.02 178.73 55.48C176.62 59.4 176.56 59.95 177.29 60.5C178.02 61.05 178.73 60.74 181.6 57.44C181.97 57.04 182.32 56.62 182.64 56.19C182.96 55.74 183.25 55.27 183.5 54.78C185.92 49.88 184.66 49.79 184.57 49.73C184.48 49.67 183.8 49.09 180.53 52.79C180.17 53.19 179.84 53.62 179.55 54.08L179.56 54.07Z" fill="black"/>
<path d="M132.891 20.3774C132.541 18.9266 139.927 13.4567 138.988 12.6722C138.19 12.0059 131.853 17.4651 130.367 16.3582C129.154 15.5845 131.153 5.05287 130.279 4.96689C129.405 4.88092 127.668 14.8967 125.93 15.3158C123.669 15.9176 115.222 3.59134 114.523 4.01045C113.649 4.52629 121.134 16.7666 120.183 18.1314C118.795 20.184 108.087 17.5296 108 18.8192C108 19.5929 119.036 22.0754 119.232 23.4402C119.538 25.5895 111.464 32.7789 112.01 33.5419C112.687 34.4984 120.871 25.9549 122.805 26.9543C124.532 27.8463 120.544 41 122.281 41C123.505 41 126.368 27.6421 127.591 27.5561C129.503 27.2982 138.31 39.9898 139.25 39.5385C139.949 39.2053 131.328 26.5244 132.639 24.5578C133.339 23.4402 142.736 24.8157 142.998 23.7841C143.173 22.7524 133.164 21.6455 132.902 20.3667L132.891 20.3774Z" fill="#F39745"/>
<path d="M196.13 89.85C196.55 91.04 196.91 92.29 197.25 93.61C196.83 92.35 196.46 91.09 196.13 89.85Z" fill="#E7BB43"/>
<path d="M209.33 73.4C211.12 75.19 213.71 78.36 215.04 80.87C216.19 83.03 215.49 84.19 214.71 84.79C214.19 85.18 213.57 85.33 212.91 85.24C210.95 84.95 208.95 82.38 206.72 79.31C206.46 78.95 206.23 78.63 206.03 78.38C205.45 77.62 204.89 76.83 204.35 76.05C203.08 74.22 203.88 72.97 204.47 72.39C205.9 70.98 207.47 71.91 207.98 72.22C208.04 72.25 208.08 72.28 208.13 72.31C208.45 72.56 208.87 72.93 209.33 73.4Z" fill="#E7BB43"/>
<path d="M200.54 94.44C199.76 91 198.77 87.97 197.5 85.16C197.28 84.67 197 84.26 196.67 83.94C195.87 83.14 194.82 82.86 193.86 83.26C191.92 84.08 192.26 86.03 192.38 86.69C192.92 89.78 193.79 92.93 194.95 96.09C195.26 96.94 195.76 97.65 196.41 98.15C196.46 98.19 196.5 98.21 196.54 98.24C197.5 98.85 198.57 98.86 199.4 98.27C200.44 97.54 200.89 96 200.55 94.44H200.54ZM196.13 89.85C196.55 91.04 196.91 92.29 197.25 93.61C196.83 92.35 196.46 91.09 196.13 89.85Z" fill="#E7BB43"/>
<path d="M214.31 60.77C215.17 60.56 216.03 60.55 216.88 60.72C220.65 61.49 223.72 62.38 226.51 63.53C227.04 63.75 227.44 64.02 227.73 64.31C228.55 65.13 228.52 66.11 228.44 66.58C228.23 67.88 227.31 68.64 225.72 68.86C224.19 69.07 221.26 68.23 216.97 66.92C216 66.63 215.11 66.36 214.38 66.16C213 65.77 212.12 64.69 212.14 63.41C212.16 62.16 213.05 61.07 214.3 60.77H214.31Z" fill="#E7BB43"/>
<path d="M137.55 159.54C137.49 159.73 137.48 160.02 137.35 160.1C136.47 160.61 135.98 161.33 135.83 162.34C135.73 163 135.32 163.52 134.74 163.79C133.51 164.37 132.81 165.31 132.43 166.59C132.23 167.26 131.37 167.55 130.57 167.4C130.24 167.34 129.67 166.88 129.69 166.6C129.71 166.31 129.79 165.97 129.97 165.75C130.23 165.44 130.57 165.15 130.93 164.96C131.8 164.5 132.43 163.87 132.82 162.95C133.2 162.06 133.82 161.37 134.82 161.09C135.61 160.87 135.83 160.11 136.21 159.49C136.41 159.17 136.86 159.13 137.33 159.34C137.42 159.38 137.48 159.47 137.55 159.54Z" fill="black"/>
<path d="M125.7 166.01C125.74 166.56 125.58 166.94 125.22 167.2C124.41 167.79 123.11 167.57 122.8 166.68C122.39 165.52 121.68 164.71 120.69 164.04C120.36 163.82 120.14 163.42 119.93 163.06C119.84 162.91 119.88 162.65 119.92 162.45C119.96 162.22 120.43 162.06 120.73 162.18C121.02 162.3 121.33 162.4 121.57 162.58C121.81 162.77 122.03 163.02 122.18 163.29C122.67 164.18 123.4 164.7 124.38 164.92C124.68 164.98 124.99 165.12 125.22 165.32C125.45 165.51 125.58 165.81 125.7 165.99V166.01Z" fill="black"/>
<path d="M111.53 158.16C111.78 158.37 112.16 158.59 112.39 158.91C112.56 159.14 112.59 159.51 112.6 159.82C112.62 160.92 113.08 161.58 114.21 161.85C114.76 161.98 114.84 162.69 114.51 163.16C114.29 163.47 113.62 163.59 113.37 163.37C113.29 163.3 113.19 163.25 113.13 163.17C112.75 162.68 112.46 162.06 111.98 161.71C111.49 161.36 110.8 161.27 110.21 161.05C109.78 160.89 109.53 160.23 109.65 159.7C109.8 159.04 110.21 158.57 110.79 158.26C110.96 158.17 111.19 158.19 111.53 158.13V158.16Z" fill="black"/>
<path d="M57.9101 172.11C57.7101 171.87 57.5301 171.57 57.2601 171.44C56.4401 171.03 56.0201 170.33 55.7001 169.52C55.6301 169.34 55.4801 169.18 55.3501 169.02C55.7501 170.8 56.1501 172.58 56.5501 174.36C57.0201 174.21 57.4301 173.91 57.8301 173.58C58.1601 173.31 58.2101 172.48 57.9101 172.11Z" fill="black"/>
<path d="M76.2001 173.02C76.2901 173.16 76.3901 173.28 76.5001 173.39C77.3201 173.35 78.1501 173.31 79.0001 173.26C79.0101 173.26 79.0201 173.26 79.0401 173.26C78.9401 173.1 78.8501 172.94 78.7501 172.78C77.9201 172.41 77.0701 172.04 76.2201 171.67C75.9201 172.11 75.9001 172.57 76.2001 173.02Z" fill="black"/>
<path d="M99.4999 154.33C99.2599 154.53 99.1299 154.73 98.9499 154.77C98.2999 154.92 97.7099 154.7 97.1799 154.35C96.6799 154.02 96.4799 153.25 96.6699 152.67C96.9199 151.91 97.3899 151.4 98.1999 151.27C98.3699 151.24 98.6499 151.3 98.7299 151.42C99.3599 152.32 99.3599 153.37 99.4899 154.34L99.4999 154.33Z" fill="black"/>
<path d="M76.3999 152.91C76.4699 152.65 76.5599 152.23 76.6999 151.84C76.8199 151.5 77.5799 151.19 78.0699 151.25C78.5699 151.31 79.0499 151.8 79.0999 152.28C79.1599 152.82 79.0999 153.34 78.7699 153.78C78.5899 154.03 78.3699 154.27 78.1099 154.43C77.4399 154.87 76.5199 154.45 76.4399 153.68C76.4199 153.47 76.4199 153.26 76.3999 152.9V152.91Z" fill="black"/>
<path d="M57.6399 159.46C57.5699 159.54 57.5199 159.66 57.4399 159.68C57.2499 159.74 57.03 159.82 56.86 159.76C56.09 159.48 56.1199 158.51 55.4799 158.1C54.9499 157.76 54.4399 157.39 53.9399 157.01C53.6399 156.78 53.6299 156.2 53.8899 155.86C54.1799 155.48 55.02 155.43 55.31 155.78C55.44 155.94 55.63 156.08 55.7 156.27C56.1 157.27 56.77 158.07 57.47 158.86C57.59 159 57.59 159.25 57.65 159.46H57.6399Z" fill="black"/>
<path d="M76.2701 171.58C75.9901 171.68 75.7001 171.89 75.4201 171.87C74.9101 171.83 74.4001 171.7 73.9101 171.52C73.4001 171.34 73.0001 170.99 72.9701 170.4C72.9401 169.7 73.5201 169 74.2601 168.85C74.5701 168.79 74.9201 168.83 75.0901 169.13C75.2901 169.49 75.4001 169.89 75.5601 170.27C75.7601 170.74 75.9701 171.21 76.1901 171.67C76.2001 171.66 76.2701 171.58 76.2701 171.58Z" fill="black"/>
<path d="M58.58 146.36C58.42 146.65 58.3 147.12 58 147.33C57.5 147.68 56.89 147.88 56.32 148.12C56.08 148.22 55.89 148.11 55.82 147.88C55.51 146.88 55.83 145.88 56.61 145.39C57.16 145.04 57.9 145.15 58.28 145.68C58.4 145.84 58.45 146.05 58.58 146.36Z" fill="black"/>
<path d="M115.96 156.75C115.85 156.96 115.73 157.39 115.45 157.66C115.01 158.08 113.91 157.98 113.38 157.59C113.09 157.38 113.03 156.78 113.24 156.44C113.74 155.67 114.42 155.26 115.36 155.31C115.63 155.32 115.96 155.62 115.96 155.91C115.96 156.12 115.96 156.33 115.96 156.75Z" fill="black"/>
<path d="M111.43 144.57C112.26 144.61 112.63 145.14 112.5 145.7C112.26 146.77 111.06 147.36 110.06 146.92C109.67 146.75 109.37 145.93 109.63 145.56C109.86 145.23 110.16 144.9 110.51 144.74C110.86 144.57 111.31 144.59 111.43 144.58V144.57Z" fill="black"/>
<path d="M55.4 122.7C55.26 122.91 55.14 123.23 54.91 123.39C54.26 123.84 53.57 123.82 52.91 123.39C52.52 123.13 52.49 122.71 52.51 122.3C52.53 121.87 52.72 121.52 53.15 121.35C53.97 121.03 54.85 121.32 55.26 122.06C55.35 122.23 55.35 122.45 55.4 122.7Z" fill="black"/>
<path d="M165.99 159.83C165.93 160.37 165.35 160.85 164.86 160.81C164.31 160.77 163.86 160.55 163.56 160.05C163.25 159.51 163.39 158.9 163.98 158.38C164.37 158.04 164.99 158.08 165.41 158.49C165.8 158.88 166.02 159.34 165.99 159.84V159.83Z" fill="black"/>
<path d="M54.4 141.82C55.2 141.85 55.7 142.4 55.69 143.22C55.68 144.11 55.18 144.58 54.35 144.5C53.51 144.42 53.02 143.91 53.01 143.11C53.01 142.32 53.59 141.78 54.4 141.81V141.82Z" fill="black"/>
<path d="M121.05 111.07C120.87 110.98 120.55 110.91 120.34 110.71C119.91 110.3 119.95 109.77 120.15 109.27C120.42 108.61 121 108.25 121.61 108.34C121.8 108.37 122.02 108.49 122.13 108.64C122.8 109.53 122.24 110.91 121.04 111.07H121.05Z" fill="black"/>
<path d="M111.35 164.74C112.08 164.78 112.55 165.26 112.51 165.92C112.45 166.94 111.85 167.54 110.96 167.46C110.24 167.4 109.71 166.69 109.78 165.9C109.85 165.16 110.48 164.69 111.34 164.74H111.35Z" fill="black"/>
<path d="M138.65 146.99C138.49 147.15 138.27 147.53 137.94 147.68C137.6 147.83 137.15 147.78 136.76 147.75C136.39 147.72 136.04 147.23 136.08 146.87C136.14 146.35 136.35 145.9 136.82 145.6C137.2 145.36 137.57 145.32 137.96 145.55C138.46 145.85 138.75 146.35 138.65 146.99Z" fill="black"/>
<path d="M119.15 160.39C119.2 160.78 118.72 161.2 118.35 161.11C117.6 160.93 117.06 160.46 116.56 159.91C116.35 159.67 116.27 159.24 116.48 159.07C116.71 158.89 117.01 158.67 117.28 158.67C118.29 158.65 119 159.35 119.14 160.39H119.15Z" fill="black"/>
<path d="M100.72 147.91C100.99 148.09 101.32 148.2 101.46 148.43C101.61 148.67 101.66 149.03 101.61 149.32C101.48 150.09 101 150.46 100.05 150.58C99.8901 150.6 99.6201 150.47 99.5401 150.32C99.1401 149.62 99.2601 148.89 99.8701 148.35C100.09 148.15 100.4 148.07 100.72 147.9V147.91Z" fill="black"/>
<path d="M87.2 154.71C87.4 154.79 87.78 154.83 87.94 155.04C88.31 155.54 88.63 156.11 88.58 156.76C88.56 157.04 88.37 157.39 88.15 157.53C87.94 157.66 87.53 157.65 87.3 157.53C86.83 157.3 86.47 156.91 86.26 156.41C85.96 155.7 86.41 154.78 87.21 154.69L87.2 154.71Z" fill="black"/>
<path d="M140.25 164.38C140.09 164.28 139.86 164.21 139.77 164.07C139.43 163.49 139.45 162.87 139.79 162.31C139.93 162.07 140.23 161.89 140.5 161.79C140.88 161.65 141.32 161.89 141.56 162.24C141.9 162.74 141.8 163.22 141.53 163.69C141.25 164.17 140.83 164.43 140.25 164.4V164.38Z" fill="black"/>
<path d="M135.56 156.34C135.63 156.83 135.26 157.43 134.81 157.58C134.19 157.78 133.39 157.13 133.33 156.37C133.29 155.87 133.74 155.34 134.24 155.28C134.84 155.21 135.48 155.71 135.56 156.34Z" fill="black"/>
<path d="M75.92 143.76C75.86 144.27 75.5 144.53 75.21 144.5C74.79 144.45 74.4 144.37 74.1 144.01C73.78 143.63 73.64 143.17 73.88 142.88C74.07 142.65 74.33 142.44 74.6 142.34C74.94 142.21 75.54 142.48 75.67 142.8C75.82 143.18 75.88 143.59 75.92 143.76Z" fill="black"/>
<path d="M157.65 161.2C156.97 161.18 156.59 160.63 156.75 159.9C156.87 159.36 157.31 158.92 157.78 158.88C158.24 158.84 158.76 159.19 159 159.7C159.28 160.3 158.94 160.99 158.27 161.13C158.07 161.17 157.86 161.18 157.65 161.2Z" fill="black"/>
<path d="M121.84 136.28C121.87 136.82 121.78 137.26 121.4 137.45C120.96 137.68 120.45 137.79 119.97 137.93C119.73 138 119.34 137.71 119.31 137.47C119.15 136.31 119.95 135.45 121.09 135.58C121.47 135.62 121.83 136 121.85 136.28H121.84Z" fill="black"/>
<path d="M131.81 132.65C131.88 133.31 131.2 134.02 130.48 134.06C130.03 134.08 129.53 133.63 129.44 133.12C129.34 132.5 129.78 131.88 130.4 131.78C131.05 131.68 131.75 132.11 131.81 132.66V132.65Z" fill="black"/>
<path d="M93.89 150.69C93.4 150.76 92.84 150.11 93 149.66C93.29 148.87 94.37 148.24 95.3 148.32C95.51 148.34 95.77 148.87 95.69 149.1C95.37 149.95 94.67 150.57 93.89 150.69Z" fill="black"/>
<path d="M128.79 149.8C128.76 150.46 128.18 150.93 127.53 150.83C127.03 150.75 126.66 150.31 126.62 149.75C126.58 149.24 127.01 148.77 127.55 148.73C128.23 148.69 128.81 149.19 128.78 149.8H128.79Z" fill="black"/>
<path d="M127.33 131.14C126.91 131.14 126.45 130.85 126.43 130.47C126.41 130.08 126.43 129.65 126.56 129.29C126.74 128.78 127.38 128.54 127.82 128.72C128.28 128.91 128.59 129.47 128.52 129.96C128.4 130.68 127.95 131.14 127.33 131.13V131.14Z" fill="black"/>
<path d="M60.4701 128.55C60.8901 128.55 61.2701 128.65 61.5401 129.01C61.9501 129.55 61.9701 130.11 61.5701 130.69C61.4601 130.84 61.2701 130.97 61.0901 131.04C60.4901 131.25 59.7501 130.69 59.5701 129.91C59.4201 129.3 59.8701 128.63 60.4701 128.55Z" fill="black"/>
<path d="M72.0101 173.05C71.8601 173.19 71.6901 173.48 71.4401 173.6C70.8901 173.85 70.1701 173.45 69.9201 172.84C69.7001 172.3 70.1601 171.55 70.8201 171.45C71.0001 171.42 71.2501 171.48 71.4001 171.59C71.9301 171.97 72.0901 172.34 72.0201 173.05H72.0101Z" fill="black"/>
<path d="M80.6901 168.94C81.22 169.03 81.71 169.82 81.58 170.36C81.44 170.92 80.7901 171.35 80.1601 171.3C79.6801 171.26 79.25 170.74 79.28 170.23C79.33 169.47 80.0401 168.82 80.6901 168.94Z" fill="black"/>
<path d="M94.49 134.63C94.66 134.78 94.96 134.94 95.08 135.19C95.47 135.97 95.09 136.9 94.25 137.27C94.09 137.34 93.81 137.31 93.67 137.2C92.89 136.61 92.96 135.23 93.77 134.77C93.94 134.67 94.17 134.69 94.48 134.64L94.49 134.63Z" fill="black"/>
<path d="M50.8399 127.31C50.2699 127.31 49.8399 126.88 49.8699 126.34C49.8999 125.72 50.4599 125.14 51.0599 125.1C51.5199 125.07 51.9199 125.51 52.0099 126.15C52.0899 126.78 51.5499 127.32 50.8499 127.31H50.8399Z" fill="black"/>
<path d="M128.46 136.2C128.46 136.69 128.06 137.23 127.58 137.36C127.05 137.51 126.32 136.83 126.39 136.23C126.44 135.72 126.88 135.3 127.43 135.25C127.92 135.21 128.46 135.7 128.47 136.2H128.46Z" fill="black"/>
<path d="M85.3299 112.68C85.3299 113.18 84.8799 113.65 84.3399 113.71C83.8699 113.76 83.3499 113.33 83.2299 112.79C83.1299 112.36 83.5799 111.72 84.0499 111.61C84.6199 111.48 85.3199 112.06 85.3299 112.68Z" fill="black"/>
<path d="M91.6901 159.39C91.6901 159.77 91.3601 160.3 91.0201 160.33C90.7501 160.36 90.3801 160.31 90.1901 160.15C89.9101 159.89 89.7101 159.51 89.5701 159.15C89.4301 158.8 89.6801 158.37 90.0601 158.15C90.3601 157.97 90.6501 158.04 90.9201 158.2C91.3801 158.47 91.6501 158.89 91.6901 159.4V159.39Z" fill="black"/>
<path d="M95.0901 156.03C95.0101 156.4 95.0401 156.66 94.9201 156.79C94.7201 157 94.4501 157.19 94.1701 157.26C93.8801 157.33 93.5301 157.24 93.3901 156.92C93.2201 156.55 93.1001 156.16 93.0001 155.77C92.9001 155.36 93.1901 154.79 93.4801 154.75C93.9001 154.69 94.3401 154.73 94.6001 155.09C94.8301 155.41 94.9701 155.8 95.0901 156.03Z" fill="black"/>
<path d="M48.5999 129.66C48.6399 130.19 48.2399 130.73 47.7699 130.8C47.0399 130.9 46.2799 130.25 46.2999 129.55C46.3099 129.07 46.7799 128.64 47.3399 128.6C48.0199 128.55 48.5599 129 48.5999 129.66Z" fill="black"/>
<path d="M83.6001 118.38C84.1501 118.39 84.6201 118.74 84.7401 119.27C84.8101 119.58 84.7601 119.88 84.5001 120.12C84.1601 120.42 83.7701 120.49 83.3501 120.3C82.8701 120.08 82.5501 119.5 82.6701 119.04C82.7701 118.66 83.1801 118.37 83.6101 118.38H83.6001Z" fill="black"/>
<path d="M125.09 106.34C125.11 106.8 124.86 107.13 124.53 107.4C124.26 107.62 123.62 107.53 123.38 107.25C123.17 107 123.02 106.72 123.17 106.4C123.3 106.13 123.45 105.83 123.68 105.65C123.91 105.48 124.24 105.38 124.52 105.37C124.84 105.36 125.1 105.87 125.09 106.34Z" fill="black"/>
<path d="M113.44 150.79C113.79 150.79 113.37 150.42 113.28 150.04C113.2 149.65 113.38 149.15 113.69 148.95C114.32 148.55 115.17 148.67 115.61 149.28C115.71 149.41 115.72 149.7 115.64 149.84C115.31 150.39 114.85 150.77 113.44 150.79Z" fill="black"/>
<path d="M84.98 146.61C84.95 146.98 84.5 147.41 84.16 147.4C83.44 147.38 82.9 146.89 82.95 146.3C82.99 145.83 83.51 145.29 83.95 145.29C84.48 145.28 85.04 146 84.98 146.62V146.61Z" fill="black"/>
<path d="M120.91 141.33C121.5 141.31 121.96 141.65 122 142.13C122.07 142.82 121.66 143.36 121.03 143.42C120.46 143.47 120 142.96 119.96 142.22C119.92 141.66 120.26 141.34 120.9 141.32L120.91 141.33Z" fill="black"/>
<path d="M150.99 161.09C150.51 161.03 150.15 160.46 150.24 159.91C150.34 159.28 150.92 158.95 151.66 159.1C152.05 159.18 152.38 159.64 152.31 160.02C152.19 160.68 151.59 161.16 150.99 161.08V161.09Z" fill="black"/>
<path d="M112.28 152.61C112.2 152.8 112.17 153.03 112.04 153.18C111.67 153.59 111.16 153.78 110.63 153.66C110.37 153.6 110.08 153.35 109.95 153.11C109.8 152.83 109.93 152.49 110.2 152.29C110.74 151.89 111.32 151.7 111.93 152.13C112.08 152.24 112.16 152.45 112.28 152.62V152.61Z" fill="black"/>
<path d="M88.61 136.41C88.55 136.79 88.08 137.08 87.68 136.99C86.99 136.84 86.65 136.37 86.46 135.74C86.39 135.49 86.44 135.33 86.68 135.22C87.49 134.85 88.42 135.27 88.63 136.11C88.65 136.2 88.62 136.31 88.61 136.42V136.41Z" fill="black"/>
<path d="M154.34 157.22C154.17 157.12 153.94 157.05 153.83 156.9C153.35 156.23 153.67 155.42 154.46 155.21C155.01 155.07 155.5 155.48 155.48 156.03C155.46 156.48 155.25 156.83 154.91 157.08C154.76 157.19 154.53 157.17 154.34 157.22Z" fill="black"/>
<path d="M81.6799 122.5C81.6499 123.08 81.1799 123.52 80.6899 123.44C80.1899 123.36 79.8099 122.84 79.8599 122.3C79.9099 121.77 80.4199 121.28 80.8599 121.34C81.3199 121.4 81.7099 121.95 81.6799 122.5Z" fill="black"/>
<path d="M50.4601 138.52C50.7401 138.62 51.1601 138.72 51.5201 138.91C51.6501 138.97 51.7301 139.27 51.7001 139.44C51.6801 139.61 51.5301 139.83 51.3801 139.92C50.7801 140.24 50.1701 140.22 49.6101 139.83C49.3501 139.65 49.2201 139.34 49.3501 139.01C49.4701 138.71 49.6501 138.47 50.0301 138.49C50.1301 138.49 50.2401 138.51 50.4601 138.52Z" fill="black"/>
<path d="M98.8 126C98.83 126.44 98.57 126.83 98.17 126.95C97.6 127.12 96.96 126.62 96.86 125.95C96.77 125.37 97.14 124.83 97.64 124.8C98.3 124.77 98.74 125.22 98.8 126Z" fill="black"/>
<path d="M83.4201 158.46C83.8501 158.43 84.2901 158.51 84.5301 158.86C84.6701 159.07 84.7201 159.49 84.5901 159.69C84.3701 160.06 83.9301 160.15 83.5001 160.02C83.0901 159.9 82.7301 159.68 82.6601 159.23C82.6301 159.07 82.7601 158.83 82.8901 158.71C83.0301 158.58 83.2501 158.53 83.4301 158.45L83.4201 158.46Z" fill="black"/>
<path d="M44.9901 99.66C44.9601 100.1 44.6401 100.47 44.2301 100.53C43.7701 100.6 43.2001 100.12 43.1301 99.61C43.0601 99.12 43.5601 98.61 44.0901 98.6C44.6101 98.6 45.0301 99.09 44.9901 99.65V99.66Z" fill="black"/>
<path d="M88.0899 163.24C87.9999 163.94 87.0899 164.47 86.4599 164.2C86.0999 164.04 85.9099 163.3 86.1099 162.82C86.2899 162.39 86.8799 162.17 87.4199 162.32C87.7999 162.43 88.1299 162.89 88.0899 163.23V163.24Z" fill="black"/>
<path d="M101.16 161.81C101.52 161.79 101.94 162.15 102.01 162.55C102.11 163.11 101.79 163.57 101.24 163.67C100.71 163.76 100.17 163.33 100.19 162.84C100.21 162.34 100.68 161.84 101.16 161.82V161.81Z" fill="black"/>
<path d="M95.0801 89.74C95.0101 89.9 94.9301 90.21 94.7601 90.45C94.4401 90.91 93.7101 90.87 93.4401 90.39C93.2301 90.01 93.1601 89.61 93.3901 89.2C93.6201 88.78 94.0101 88.56 94.4101 88.66C94.8001 88.76 95.0701 89.14 95.0801 89.74Z" fill="black"/>
<path d="M101.14 115.35C101.53 115.35 101.96 115.7 102.03 116.1C102.11 116.62 101.66 117.14 101.13 117.13C100.73 117.13 100.29 116.76 100.23 116.39C100.15 115.88 100.6 115.36 101.14 115.36V115.35Z" fill="black"/>
<path d="M117.58 125.3C117.93 125.35 118.38 125.85 118.36 126.16C118.31 126.83 117.7 127.38 117.12 127.27C116.64 127.19 116.24 126.55 116.38 126.09C116.53 125.61 117.1 125.23 117.58 125.3Z" fill="black"/>
<path d="M98.6599 145.57C98.6799 146.24 98.1899 146.79 97.5399 146.84C97.3899 146.85 97.1399 146.71 97.0699 146.58C96.7499 145.95 96.9099 145.45 97.5499 145.08C97.6999 144.99 97.9699 144.96 98.0999 145.04C98.3399 145.18 98.5099 145.43 98.6599 145.58V145.57Z" fill="black"/>
<path d="M128.11 122.88C128.19 123.42 127.87 123.86 127.3 123.97C126.71 124.09 126.27 123.82 126.15 123.27C126.03 122.69 126.36 122.21 126.9 122.2C127.58 122.18 128.04 122.44 128.1 122.88H128.11Z" fill="black"/>
<path d="M82.2699 102.85C82.2799 103.22 81.8799 103.67 81.4899 103.71C80.9699 103.77 80.4299 103.33 80.4099 102.82C80.3899 102.45 80.7999 102 81.1799 101.97C81.7299 101.93 82.2699 102.36 82.2699 102.85Z" fill="black"/>
<path d="M115.35 102.46C115.37 103.05 115 103.4 114.55 103.68C114.23 103.87 113.65 103.68 113.47 103.37C113.23 102.94 113.27 102.55 113.58 102.25C114 101.84 114.51 101.85 115.02 101.99C115.16 102.03 115.24 102.3 115.35 102.46Z" fill="black"/>
<path d="M60.9999 150.32C60.6099 150.29 60.2199 149.91 60.1899 149.53C60.1499 148.82 60.6699 148.32 61.3199 148.45C61.6699 148.52 62.0099 148.98 61.9999 149.35C61.9799 149.84 61.4699 150.34 60.9999 150.31V150.32Z" fill="black"/>
<path d="M117.34 138.62C117.62 138.67 117.82 138.7 118.01 138.75C118.39 138.84 118.54 139.42 118.3 139.74C117.98 140.18 117.55 140.4 117.02 140.44C116.67 140.47 116.26 140.16 116.11 139.78C115.97 139.4 116.17 138.86 116.52 138.77C116.81 138.69 117.11 138.66 117.34 138.62Z" fill="black"/>
<path d="M124.39 145.89C125 145.84 125.32 146.04 125.55 146.42C125.74 146.74 125.63 147.03 125.44 147.27C125.33 147.4 125.09 147.54 124.94 147.51C124.65 147.46 124.35 147.33 124.12 147.16C123.88 146.97 123.66 146.67 123.86 146.36C124 146.13 124.28 145.99 124.39 145.89Z" fill="black"/>
<path d="M125.74 112.56C125.76 112.95 125.38 113.34 124.97 113.35C124.36 113.37 123.88 113.02 123.86 112.54C123.84 112.06 124.33 111.53 124.81 111.52C125.25 111.51 125.72 112.03 125.74 112.56Z" fill="black"/>
<path d="M131.72 146.62C131.72 147.2 131.34 147.63 130.79 147.63C130.44 147.63 130.07 147.16 130.1 146.74C130.13 146.33 130.5 145.9 130.87 145.87C131.26 145.84 131.72 146.24 131.72 146.61V146.62Z" fill="black"/>
<path d="M64.4899 147.13C63.9099 147.09 63.5199 146.63 63.6399 146.11C63.7399 145.68 64.1299 145.37 64.5199 145.41C65.0499 145.47 65.4299 145.94 65.3799 146.48C65.3499 146.87 64.9399 147.16 64.4899 147.13Z" fill="black"/>
<path d="M93.9001 128.48C94.1701 128.65 94.4401 128.78 94.6401 128.98C94.7501 129.1 94.8001 129.36 94.7601 129.53C94.7001 129.82 94.1301 130.08 93.7601 130.03C93.2801 129.97 92.9601 129.77 92.9001 129.36C92.8701 129.2 92.9601 128.94 93.0901 128.85C93.3201 128.68 93.6101 128.61 93.9101 128.48H93.9001Z" fill="black"/>
<path d="M67.27 135.15C67.79 135.2 68.22 135.7 68.19 136.21C68.17 136.56 67.72 136.9 67.28 136.9C66.72 136.9 66.28 136.4 66.38 135.88C66.46 135.48 66.9 135.11 67.26 135.15H67.27Z" fill="black"/>
<path d="M84.2501 132.31C84.5901 132.46 84.8901 132.55 85.1301 132.72C85.4801 132.98 85.5101 133.45 85.2401 133.82C85.0101 134.14 84.7001 134.08 84.4001 133.99C84.2101 133.93 84.0101 133.82 83.8601 133.68C83.6301 133.47 83.3801 133.19 83.5801 132.88C83.7201 132.65 84.0001 132.51 84.2401 132.32L84.2501 132.31Z" fill="black"/>
<path d="M58.4201 126.74C58.3401 127.13 57.9201 127.38 57.4801 127.3C56.9801 127.2 56.6801 126.62 56.8901 126.11C57.0101 125.81 57.2701 125.62 57.6001 125.66C58.1301 125.73 58.5201 126.27 58.4201 126.75V126.74Z" fill="black"/>
<path d="M98.1099 99.76C98.0899 100.11 97.6599 100.54 97.3199 100.56C96.9799 100.57 96.5199 100.16 96.4999 99.81C96.4699 99.29 96.9299 98.83 97.4299 98.89C97.7799 98.93 98.1299 99.39 98.1099 99.76Z" fill="black"/>
<path d="M64.4399 151.83C64.5399 151.84 64.6499 151.84 64.7399 151.87C65.1199 152 65.3099 152.4 65.2099 152.88C65.1499 153.2 64.9599 153.43 64.6199 153.5C64.1599 153.59 63.7299 153.36 63.6499 152.98C63.5499 152.49 63.9199 151.94 64.4299 151.83H64.4399Z" fill="black"/>
<path d="M158.45 152.58C158.45 153.03 157.95 153.45 157.42 153.45C157.05 153.45 156.73 153.03 156.76 152.6C156.79 152.18 157.1 151.77 157.43 151.71C157.89 151.63 158.44 152.09 158.44 152.57L158.45 152.58Z" fill="black"/>
<path d="M121.72 89.79C121.71 90.24 121.38 90.61 120.97 90.65C120.41 90.71 119.9 90.25 119.96 89.74C120.02 89.18 120.52 88.77 121.02 88.88C121.43 88.97 121.73 89.36 121.72 89.79Z" fill="black"/>
<path d="M77.3199 158.1C77.8099 158.06 78.3199 158.49 78.3399 158.97C78.3499 159.32 77.9899 159.74 77.6199 159.82C77.1299 159.93 76.6399 159.5 76.6399 158.96C76.6399 158.55 76.9699 158.11 77.3199 158.09V158.1Z" fill="black"/>
<path d="M64.0701 105.23C64.4501 105.23 64.8501 105.7 64.8101 106.07C64.7701 106.45 64.2801 106.8 63.9001 106.7C63.5801 106.61 63.3501 106.4 63.3301 106.05C63.3101 105.63 63.6901 105.22 64.0801 105.23H64.0701Z" fill="black"/>
<path d="M91.69 106.25C91.66 106.65 91.23 106.96 90.8 106.88C90.5 106.83 90.21 106.52 90.21 106.24C90.21 105.89 90.64 105.4 90.96 105.39C91.28 105.39 91.71 105.88 91.69 106.24V106.25Z" fill="black"/>
<path d="M54.85 109.43C54.8 110.06 54.18 110.52 53.58 110.36C53.34 110.3 53.1 109.89 53.15 109.64C53.28 109.03 53.94 108.69 54.56 108.96C54.7 109.02 54.76 109.26 54.85 109.42V109.43Z" fill="black"/>
<path d="M98.2099 159.89C98.0799 160.02 97.9199 160.32 97.6799 160.4C97.1799 160.57 96.6599 160.05 96.7099 159.52C96.7499 159.11 97.1399 158.8 97.5899 158.81C97.9699 158.81 98.1899 159.16 98.2099 159.89Z" fill="black"/>
<path d="M105.01 166.76C105.03 167.1 104.6 167.53 104.25 167.53C103.9 167.53 103.47 167.11 103.49 166.77C103.51 166.43 103.94 165.97 104.25 165.97C104.56 165.97 105 166.43 105.02 166.76H105.01Z" fill="black"/>
<path d="M147.91 156.7C147.53 156.74 147.12 156.36 147.13 155.98C147.15 155.38 147.5 154.92 147.95 154.91C148.31 154.9 148.71 155.27 148.76 155.66C148.82 156.16 148.43 156.64 147.91 156.7Z" fill="black"/>
<path d="M74.49 136.49C74.46 136.59 74.46 136.7 74.4 136.79C74.2 137.1 73.63 137.22 73.31 137.02C72.97 136.82 72.7 136.15 72.93 135.99C73.16 135.82 73.48 135.72 73.76 135.71C74.24 135.7 74.52 136.05 74.48 136.49H74.49Z" fill="black"/>
<path d="M138.47 152.87C138.44 153.04 138.46 153.15 138.41 153.22C138.11 153.65 137.51 153.8 137.1 153.5C136.97 153.4 136.86 153.15 136.89 152.99C136.94 152.59 137.41 152.28 137.81 152.4C138.07 152.48 138.27 152.72 138.47 152.86V152.87Z" fill="black"/>
<path d="M165.02 153.29C164.98 153.51 165 153.65 164.93 153.71C164.79 153.84 164.61 154.01 164.44 154.01C164.27 154.01 164.04 153.89 163.93 153.75C163.65 153.41 163.61 153 163.65 152.56C163.69 152.2 163.91 151.91 164.18 151.92C164.54 151.93 164.77 152.17 164.87 152.47C164.97 152.76 164.98 153.08 165.01 153.28L165.02 153.29Z" fill="black"/>
<path d="M174.76 155.42C175.24 155.37 175.69 155.67 175.66 156.02C175.62 156.46 175.34 156.79 174.92 156.88C174.5 156.97 174.03 156.64 174.04 156.26C174.04 155.79 174.32 155.47 174.76 155.42Z" fill="black"/>
<path d="M73.67 164.07C73.54 163.91 73.27 163.73 73.21 163.48C73.07 162.98 73.45 162.57 74.03 162.5C74.31 162.47 74.59 162.73 74.62 163.05C74.68 163.62 74.35 164.02 73.67 164.07Z" fill="black"/>
<path d="M74.2501 103.15C73.9101 103.09 73.6901 102.8 73.7501 102.5C73.8501 102.04 74.1601 101.82 74.6401 101.89C74.9701 101.94 75.2001 102.23 75.1301 102.53C75.0201 103.01 74.7101 103.23 74.2401 103.15H74.2501Z" fill="black"/>
<path d="M47.13 89.04C47.32 89.17 47.66 89.28 47.78 89.51C47.97 89.87 47.37 90.46 46.86 90.46C46.57 90.46 46.3 90.19 46.27 89.89C46.24 89.56 46.67 89.11 47.12 89.04H47.13Z" fill="black"/>
<path d="M117.84 93.66C117.24 93.72 116.86 93.39 116.89 92.96C116.92 92.62 117.16 92.37 117.49 92.35C117.96 92.31 118.4 92.67 118.29 93.05C118.22 93.3 117.96 93.5 117.84 93.66Z" fill="black"/>
<path d="M80.2901 162.11C80.8701 162.05 81.3201 162.37 81.3601 162.75C81.4001 163.14 81.0001 163.55 80.5701 163.55C80.1501 163.55 79.7301 163.16 79.8301 162.73C79.8901 162.47 80.1701 162.27 80.2901 162.11Z" fill="black"/>
<path d="M94.98 169.05C94.98 169.59 94.52 170.01 94.15 169.93C93.9 169.87 93.66 169.49 93.69 169.2C93.7 169.1 93.74 169 93.78 168.9C93.91 168.54 94.27 168.29 94.48 168.46C94.7 168.64 94.86 168.91 94.98 169.06V169.05Z" fill="black"/>
<path d="M65.0699 172.99C64.9499 173.11 64.7899 173.37 64.5599 173.46C64.2899 173.57 63.9599 173.24 63.9399 172.94C63.9199 172.65 64.1499 172.38 64.4599 172.33C64.7699 172.28 65.0599 172.54 65.0699 172.99Z" fill="black"/>
<path d="M67.97 169.44C67.84 169.59 67.71 169.87 67.48 169.99C67.08 170.2 66.66 169.93 66.58 169.49C66.51 169.13 66.73 168.91 67.02 168.78C67.43 168.6 67.79 168.82 67.96 169.44H67.97Z" fill="black"/>
<path d="M54.5201 148.63C54.6901 148.71 54.9201 148.75 55.0201 148.89C55.2901 149.26 55.2201 149.63 54.9001 149.99C54.6001 150.32 54.2101 150.4 53.8201 150.14C53.6801 150.04 53.5601 149.8 53.5801 149.64C53.6401 149.02 53.9101 148.76 54.5201 148.64V148.63Z" fill="black"/>
<path d="M111.31 139.55C111.18 139.69 111.03 139.94 110.82 140.06C110.48 140.25 109.91 140.03 109.8 139.74C109.68 139.44 110.04 138.91 110.39 138.86C110.87 138.8 111.16 138.98 111.31 139.55Z" fill="black"/>
<path d="M84.5601 126.38C84.4901 126.91 84.1301 127.24 83.7201 127.25C83.4101 127.25 83.1101 126.94 83.1501 126.64C83.2101 126.2 83.5601 125.81 83.9501 125.9C84.2001 125.95 84.4001 126.24 84.5701 126.38H84.5601Z" fill="black"/>
<path d="M80.5899 150.33C80.4099 150.04 80.1799 149.82 80.1599 149.58C80.1399 149.27 80.4199 149.07 80.7299 149.04C81.1199 149.01 81.5599 149.54 81.3499 149.82C81.1999 150.02 80.8999 150.13 80.5899 150.33Z" fill="black"/>
<path d="M107.6 143.22C107.32 143.14 107.12 143.11 106.95 143.03C106.67 142.89 106.67 142.45 106.96 142.28C107.13 142.19 107.32 142.11 107.51 142.09C107.84 142.05 108.18 142.35 108.08 142.61C107.98 142.85 107.75 143.04 107.6 143.22Z" fill="black"/>
<path d="M70.8899 126.66C70.7199 126.58 70.4799 126.55 70.3999 126.42C70.1899 126.06 70.2999 125.57 70.6299 125.38C70.7799 125.29 71.0999 125.24 71.1499 125.31C71.2999 125.54 71.4199 125.82 71.4499 126.09C71.4799 126.4 71.2299 126.61 70.8899 126.66Z" fill="black"/>
<path d="M64.15 125.57C64.43 125.79 64.7 125.92 64.84 126.13C65.04 126.44 64.66 126.91 64.26 126.91C63.98 126.91 63.61 126.59 63.69 126.34C63.76 126.09 63.96 125.88 64.16 125.57H64.15Z" fill="black"/>
<path d="M110.78 134.1C110.69 134.1 110.58 134.12 110.51 134.08C110.13 133.85 110.13 133.08 110.5 132.76C110.69 132.6 111.13 132.7 111.26 132.93C111.53 133.4 111.31 133.93 110.78 134.09V134.1Z" fill="black"/>
<path d="M98.5399 139.25C98.4899 139.64 98.1599 139.99 97.7699 140.08C97.5099 140.14 97.1799 139.84 97.1699 139.55C97.1499 139.04 97.7499 138.61 98.2199 138.82C98.3599 138.89 98.4399 139.1 98.5499 139.24L98.5399 139.25Z" fill="black"/>
<path d="M117.77 86.35C117.51 86.41 117.24 86.54 116.97 86.52C116.68 86.5 116.43 86.03 116.57 85.81C116.67 85.66 116.88 85.53 117.06 85.5C117.38 85.46 117.64 85.63 117.75 85.95C117.78 86.04 117.76 86.15 117.77 86.35Z" fill="black"/>
<path d="M124.22 152.59C124.51 152.65 124.76 153.04 124.66 153.27C124.49 153.68 123.96 153.98 123.7 153.77C123.55 153.65 123.41 153.44 123.4 153.26C123.38 152.87 123.87 152.51 124.22 152.59Z" fill="black"/>
<path d="M143.37 153.47C143.21 153.38 142.89 153.26 142.9 153.21C142.95 152.95 143.04 152.59 143.22 152.51C143.43 152.42 143.78 152.54 144.01 152.67C144.13 152.74 144.15 153.01 144.17 153.2C144.17 153.25 144.03 153.34 143.94 153.36C143.75 153.41 143.56 153.44 143.37 153.47Z" fill="black"/>
<path d="M112.11 99.56C111.79 99.78 111.56 100.06 111.34 100.06C111.1 100.06 110.79 99.83 110.66 99.61C110.48 99.3 111.02 98.78 111.41 98.92C111.65 99.01 111.82 99.29 112.11 99.57V99.56Z" fill="black"/>
<path d="M121.88 149.11C121.66 149.4 121.5 149.67 121.27 149.85C121.16 149.94 120.88 149.9 120.73 149.82C120.43 149.65 120.31 148.97 120.57 148.72C120.77 148.53 121.14 148.35 121.37 148.41C121.58 148.46 121.7 148.85 121.88 149.11Z" fill="black"/>
<path d="M101.46 156.65C101.34 156.8 101.22 157.12 101 157.22C100.6 157.41 100.01 156.9 100.05 156.38C100.07 156.12 100.24 155.77 100.45 155.66C100.77 155.48 101.39 156.07 101.46 156.65Z" fill="black"/>
<path d="M141.43 156.48C141.29 156.66 141.15 156.92 140.94 157.06C140.85 157.12 140.47 156.97 140.46 156.88C140.43 156.62 140.46 156.32 140.58 156.08C140.64 155.96 140.96 155.86 141.1 155.91C141.24 155.96 141.29 156.22 141.43 156.47V156.48Z" fill="black"/>
<path d="M125.15 119.47C125.01 119.62 124.85 119.92 124.61 120.03C124.26 120.18 123.75 119.61 123.93 119.28C124.06 119.04 124.34 118.84 124.59 118.71C124.78 118.61 125.16 119.07 125.15 119.47Z" fill="black"/>
<path d="M118.95 146C118.94 146.09 118.95 146.22 118.9 146.27C118.59 146.57 118.21 146.69 117.8 146.54C117.67 146.49 117.53 146.25 117.53 146.09C117.52 145.75 117.79 145.57 118.08 145.48C118.38 145.38 118.67 145.44 118.86 145.73C118.91 145.81 118.92 145.91 118.95 146Z" fill="black"/>
<path d="M61.16 136.29C61.07 136.45 61.01 136.69 60.88 136.76C60.61 136.9 60.24 136.66 60.24 136.34C60.24 136.17 60.37 135.93 60.51 135.85C60.75 135.7 61.1 135.96 61.17 136.29H61.16Z" fill="black"/>
<path d="M90.7201 145.89C91.1401 145.93 91.3501 146.19 91.3301 146.49C91.3101 146.83 91.1301 147 90.8101 147.05C90.3901 147.1 89.9801 146.67 90.1701 146.34C90.2901 146.13 90.5801 146.01 90.7201 145.9V145.89Z" fill="black"/>
<path d="M104.42 86.03C104.28 86.13 104.13 86.33 104 86.33C103.68 86.31 103.43 85.89 103.61 85.7C103.72 85.58 104 85.5 104.15 85.55C104.28 85.6 104.33 85.86 104.41 86.03H104.42Z" fill="black"/>
<path d="M134.52 149.86C134.4 149.72 134.22 149.6 134.19 149.45C134.15 149.21 134.54 149.02 134.84 149.13C135.06 149.21 135.14 149.42 134.99 149.62C134.89 149.75 134.68 149.79 134.52 149.87V149.86Z" fill="black"/>
<path d="M87.0701 149.57C87.2001 149.45 87.3301 149.25 87.4701 149.24C87.8001 149.22 87.9701 149.5 87.9101 149.89C87.9001 149.98 87.7601 150.13 87.7201 150.12C87.5301 150.06 87.3401 149.96 87.1801 149.85C87.1101 149.8 87.1101 149.66 87.0801 149.57H87.0701Z" fill="black"/>
<path d="M67.68 149.68C67.57 149.81 67.44 150.1 67.22 150.19C66.86 150.35 66.49 150.04 66.4 149.59C66.35 149.36 66.61 148.96 66.83 148.92C67.24 148.86 67.63 149.12 67.68 149.67V149.68Z" fill="black"/>
<path d="M94.2399 108.52C94.4799 108.65 94.6999 108.7 94.7699 108.84C94.9099 109.09 94.6999 109.4 94.3499 109.45C94.2099 109.47 93.8999 109.27 93.9099 109.24C93.9799 109 94.1099 108.77 94.2299 108.53L94.2399 108.52Z" fill="black"/>
<path d="M77.2701 166.23C77.4301 166.45 77.6201 166.59 77.6301 166.74C77.6601 167.16 77.2101 167.44 76.8301 167.27C76.6101 167.17 76.5301 166.95 76.6801 166.76C76.8401 166.56 77.0701 166.41 77.2701 166.23Z" fill="black"/>
<path d="M91.1501 152.59C91.3301 152.67 91.5201 152.75 91.7001 152.84C91.9301 152.96 92.0101 153.17 91.8401 153.36C91.7301 153.48 91.5101 153.57 91.3401 153.57C91.1501 153.57 90.9601 153.45 90.7801 153.36C90.5401 153.24 90.4801 153.03 90.6701 152.84C90.7901 152.72 90.9901 152.67 91.1601 152.59H91.1501Z" fill="black"/>
<path d="M74.55 109.47C74.45 109.85 74.17 110.04 73.9 109.92C73.65 109.81 73.44 109.39 73.52 109.18C73.61 108.97 74.01 108.85 74.32 108.97C74.55 109.06 74.63 109.24 74.55 109.46V109.47Z" fill="black"/>
<path d="M114.53 109.8C114.37 109.88 114.2 110.03 114.03 110.03C113.71 110.03 113.56 109.64 113.8 109.41C113.91 109.3 114.19 109.24 114.29 109.3C114.42 109.39 114.45 109.63 114.52 109.8H114.53Z" fill="black"/>
<path d="M101.3 143.24C101.17 143.64 100.64 143.99 100.43 143.78C100.24 143.6 100.09 143.24 100.13 143C100.18 142.73 100.49 142.54 100.84 142.6C101.15 142.65 101.39 142.97 101.3 143.23V143.24Z" fill="black"/>
<path d="M117.83 153.33C117.89 153.68 117.66 153.98 117.38 153.88C117.23 153.82 117.07 153.68 117 153.53C116.88 153.29 117.21 152.91 117.48 152.98C117.62 153.01 117.71 153.2 117.83 153.32V153.33Z" fill="black"/>
<path d="M97.18 167.06C96.89 166.85 96.57 166.74 96.48 166.53C96.35 166.23 96.79 165.81 97.21 165.76C97.47 165.73 97.8 166.06 97.71 166.36C97.64 166.6 97.4 166.78 97.18 167.06Z" fill="black"/>
<path d="M64.42 139.59C64.33 139.75 64.27 139.99 64.13 140.04C63.85 140.15 63.43 139.89 63.46 139.64C63.49 139.46 63.62 139.25 63.77 139.15C64.02 138.98 64.34 139.21 64.42 139.58V139.59Z" fill="black"/>
<path d="M71.34 139.51C71.23 139.64 71.13 139.84 70.99 139.88C70.69 139.96 70.37 139.56 70.55 139.32C70.65 139.19 70.89 139.07 71.04 139.1C71.16 139.12 71.24 139.37 71.34 139.52V139.51Z" fill="black"/>
<path d="M81.11 128.81C81.3 129 81.51 129.12 81.51 129.23C81.51 129.39 81.38 129.64 81.24 129.68C81.1 129.73 80.9 129.58 80.72 129.52C80.84 129.29 80.97 129.07 81.11 128.81Z" fill="black"/>
<path d="M108.39 163.07C108.36 163.5 108.07 163.71 107.77 163.62C107.37 163.5 107.22 163.3 107.3 163.01C107.4 162.65 107.67 162.42 107.92 162.57C108.14 162.69 108.28 162.94 108.4 163.07H108.39Z" fill="black"/>
<path d="M121.13 116.68C120.89 116.71 120.72 116.61 120.69 116.37C120.67 116.14 120.83 116.03 121.08 116.09C121.18 116.11 121.31 116.15 121.35 116.22C121.47 116.45 121.38 116.61 121.12 116.68H121.13Z" fill="black"/>
<path d="M44.79 92.76C44.44 92.97 44.23 93.17 43.97 93.24C43.74 93.31 43.46 92.95 43.47 92.67C43.47 92.39 43.82 92.09 44.08 92.2C44.31 92.3 44.49 92.51 44.79 92.76Z" fill="black"/>
<path d="M63.8699 132.52C64.0099 132.62 64.1899 132.69 64.2699 132.82C64.4099 133.05 64.0099 133.33 63.7299 133.17C63.5999 133.09 63.5299 132.89 63.4399 132.74C63.5799 132.67 63.7299 132.59 63.8799 132.52H63.8699Z" fill="black"/>
<path d="M134.33 135.47C134.66 135.57 134.83 135.92 134.62 136.14C134.51 136.26 134.22 136.35 134.11 136.29C133.98 136.21 133.91 135.95 133.92 135.77C133.92 135.52 134.11 135.42 134.33 135.47Z" fill="black"/>
<path d="M53.4401 136.48C53.5801 136.17 53.9301 135.99 54.1001 136.17C54.2101 136.29 54.2501 136.53 54.2101 136.7C54.1501 136.93 53.9401 136.97 53.7101 136.9C53.4701 136.82 53.3701 136.7 53.4401 136.49V136.48Z" fill="black"/>
<path d="M94.51 122.93C94.41 123.16 94.21 123.3 94.02 123.16C93.89 123.07 93.8 122.79 93.83 122.61C93.87 122.37 94.1 122.31 94.33 122.41C94.57 122.52 94.63 122.69 94.51 122.92V122.93Z" fill="black"/>
<path d="M117.49 132.91C117.25 132.9 117.12 132.78 117.16 132.57C117.16 132.52 117.35 132.43 117.38 132.45C117.51 132.55 117.62 132.68 117.74 132.8C117.66 132.84 117.57 132.88 117.49 132.91Z" fill="black"/>
<path d="M82.1799 142.8C82.0499 143.05 82.0099 143.26 81.8899 143.32C81.7299 143.39 81.4999 143.39 81.3299 143.32C81.1599 143.26 81.0399 143.08 80.8899 142.96C81.0499 142.85 81.1999 142.66 81.3599 142.65C81.6099 142.63 81.8799 142.74 82.1899 142.8H82.1799Z" fill="black"/>
<path d="M61.2499 89.55C61.1299 89.67 61.0199 89.79 60.8999 89.91C60.7999 89.76 60.6899 89.62 60.6199 89.46C60.6099 89.43 60.7399 89.3 60.8199 89.28C61.0599 89.21 61.1999 89.31 61.2399 89.55H61.2499Z" fill="black"/>
<path d="M81.01 89.31C80.92 89.47 80.88 89.7 80.74 89.78C80.5 89.91 80.0399 89.63 80.0899 89.41C80.1299 89.23 80.26 89.04 80.4 88.93C80.64 88.73 80.96 88.94 81.01 89.32V89.31Z" fill="black"/>
<path d="M97.74 119.48C97.58 119.56 97.43 119.72 97.27 119.72C96.96 119.72 96.82 119.36 97.03 119.1C97.11 119 97.4 118.93 97.49 119C97.62 119.09 97.66 119.32 97.74 119.48Z" fill="black"/>
<path d="M98.2699 113.13C97.7999 113.23 97.5499 113.34 97.3099 113.32C97.2299 113.32 97.0999 112.98 97.1299 112.81C97.1499 112.67 97.4299 112.44 97.4699 112.47C97.6999 112.61 97.8899 112.81 98.2699 113.14V113.13Z" fill="black"/>
<path d="M57.8799 120.05C57.7899 120.03 57.6699 120.05 57.6099 120C57.3199 119.77 57.3099 119.45 57.5899 119.32C57.6699 119.28 57.7899 119.27 57.8599 119.3C58.0699 119.42 58.0699 119.93 57.8799 120.05Z" fill="black"/>
<path d="M44.9301 119.34C44.8501 119.5 44.8001 119.72 44.6701 119.82C44.4801 119.96 44.2801 119.86 44.1801 119.64C44.0701 119.41 44.1401 119.21 44.3901 119.18C44.5601 119.16 44.7501 119.28 44.9301 119.34Z" fill="black"/>
<path d="M84.7801 165.71C84.7201 165.88 84.6601 166.06 84.6001 166.23C84.4301 166.16 84.2601 166.09 84.0901 166.02C84.1701 165.86 84.2001 165.65 84.3301 165.54C84.5201 165.37 84.7001 165.46 84.7801 165.71Z" fill="black"/>
<path d="M67.8801 163.35C67.7001 163.43 67.5001 163.59 67.3301 163.56C67.0901 163.52 67.0501 163.29 67.1201 163.05C67.2001 162.79 67.3801 162.67 67.6001 162.83C67.7401 162.94 67.7901 163.17 67.8801 163.35Z" fill="black"/>
<path d="M123.91 160.43C123.77 160.33 123.56 160.25 123.51 160.11C123.41 159.86 123.74 159.5 124.01 159.5C124.25 159.5 124.52 159.93 124.38 160.14C124.29 160.28 124.07 160.33 123.91 160.43Z" fill="black"/>
<path d="M81.62 156.34C81.56 156.4 81.48 156.53 81.44 156.52C81.28 156.47 81.14 156.38 80.99 156.3C81.15 156.24 81.3 156.16 81.46 156.13C81.5 156.13 81.57 156.26 81.62 156.33V156.34Z" fill="black"/>
<path d="M67.9 156.25C67.81 156.37 67.74 156.53 67.62 156.61C67.41 156.76 67.22 156.67 67.21 156.42C67.21 156.29 67.34 156.04 67.41 156.04C67.57 156.04 67.72 156.16 67.89 156.24L67.9 156.25Z" fill="black"/>
<path d="M61.0499 156.39C60.8699 156.47 60.6999 156.6 60.5399 156.59C60.4399 156.59 60.2699 156.35 60.2899 156.24C60.3199 156.01 60.5399 155.92 60.7499 156.04C60.8799 156.11 60.9499 156.27 61.0499 156.39Z" fill="black"/>
<path d="M137.81 139.68C137.76 139.76 137.72 139.87 137.65 139.91C137.43 140.04 137.26 139.97 137.22 139.71C137.21 139.63 137.32 139.46 137.34 139.47C137.51 139.53 137.66 139.61 137.82 139.68H137.81Z" fill="black"/>
<path d="M171.17 152.42C171.4 152.52 171.51 152.7 171.38 152.91C171.31 153.04 171.11 153.19 171 153.18C170.77 153.14 170.67 152.91 170.78 152.7C170.85 152.57 171.04 152.51 171.17 152.42Z" fill="black"/>
<path d="M151.19 152.42C151.31 152.5 151.43 152.58 151.55 152.66C151.45 152.8 151.35 152.94 151.25 153.08C151.18 153.01 151.06 152.94 151.06 152.88C151.07 152.72 151.14 152.57 151.19 152.42Z" fill="black"/>
<path d="M114.48 142.94C114.31 143.01 114.15 143.1 113.98 143.13C113.93 143.14 113.84 143.01 113.77 142.94C113.93 142.87 114.09 142.78 114.27 142.75C114.32 142.74 114.41 142.87 114.48 142.94Z" fill="black"/>
<path d="M147.87 149.34C147.73 149.55 147.53 149.61 147.43 149.43C147.35 149.31 147.4 149.09 147.43 148.93C147.44 148.88 147.58 148.85 147.66 148.81C147.73 148.99 147.8 149.16 147.87 149.34Z" fill="black"/>
<path d="M126.81 116.55C126.66 116.44 126.5 116.33 126.35 116.22C126.51 116.11 126.66 115.99 126.83 115.91C127.05 115.81 127.24 115.89 127.33 116.12C127.36 116.18 127.36 116.31 127.33 116.33C127.17 116.42 126.99 116.48 126.82 116.55H126.81Z" fill="black"/>
<path d="M47.5199 116.22C47.3699 116.34 47.2599 116.5 47.1099 116.54C47.0499 116.56 46.8299 116.32 46.8399 116.22C46.8599 116 47.0599 115.93 47.2999 116.02C47.3899 116.05 47.4499 116.15 47.5299 116.22H47.5199Z" fill="black"/>
<path d="M54.07 115.45C54.16 115.6 54.3301 115.75 54.3301 115.9C54.3301 116.05 54.15 116.19 54.05 116.34C53.96 116.19 53.8 116.03 53.8 115.88C53.8 115.74 53.9801 115.6 54.0801 115.46L54.07 115.45Z" fill="black"/>
<path d="M111.21 86.41L110.96 86.28L111.22 86.16L111.21 86.41Z" fill="black"/>
<path d="M64.16 86.47C64.11 86.4 64.01 86.32 64.02 86.25C64.06 85.97 64.2 85.9 64.36 86.08C64.42 86.14 64.44 86.28 64.41 86.36C64.38 86.42 64.25 86.44 64.17 86.47H64.16Z" fill="black"/>
<path d="M71.26 106.01C71.16 106.25 70.97 106.34 70.73 106.24C70.64 106.2 70.58 106.1 70.5 106.02C70.68 105.94 70.85 105.84 71.04 105.79C71.09 105.78 71.18 105.93 71.25 106.01H71.26Z" fill="black"/>
<path d="M67.69 102.73C67.61 102.8 67.54 102.91 67.46 102.92C67.2 102.97 66.97 102.63 67.07 102.33C67.09 102.25 67.21 102.16 67.3 102.14C67.58 102.09 67.78 102.4 67.7 102.73H67.69Z" fill="black"/>
<path d="M114.73 96.09C114.62 96.33 114.43 96.41 114.31 96.24C114.22 96.12 114.23 95.91 114.24 95.75C114.24 95.71 114.4 95.63 114.48 95.64C114.75 95.68 114.83 95.84 114.72 96.09H114.73Z" fill="black"/>
<path d="M77.5001 113.03C77.4801 112.94 77.4401 112.85 77.4501 112.77C77.4501 112.74 77.5701 112.72 77.6401 112.7C77.6601 112.79 77.7001 112.88 77.7001 112.97C77.7001 112.99 77.5701 113.01 77.4901 113.03H77.5001Z" fill="black"/>
<path d="M91.0599 126.27C91.2999 126.37 91.3999 126.56 91.2699 126.78C91.1899 126.91 91.0099 126.98 90.8799 127.08C90.7999 126.9 90.6599 126.72 90.6699 126.54C90.6699 126.45 90.9199 126.36 91.0599 126.27Z" fill="black"/>
<path d="M77.5701 146.34C77.5001 146.3 77.4401 146.26 77.3701 146.23C77.4401 146.13 77.5101 146.03 77.5901 145.93C77.6501 146 77.7201 146.07 77.7801 146.14C77.7101 146.2 77.6401 146.27 77.5701 146.33V146.34Z" fill="black"/>
<path d="M91.0899 139.76C91.0199 139.82 90.9499 139.94 90.8799 139.94C90.8099 139.94 90.7499 139.82 90.6799 139.75C90.7499 139.68 90.8199 139.57 90.8899 139.57C90.9599 139.57 91.0199 139.69 91.0899 139.76Z" fill="black"/>
<path d="M80.7499 136.13L80.6599 135.92L80.8599 135.93L80.7499 136.13Z" fill="black"/>
<path d="M67.4401 109.17L67.4901 109.34L67.3301 109.31L67.4401 109.17Z" fill="black"/>
<path d="M57.81 112.9L57.88 113.07L57.71 113.06L57.81 112.9Z" fill="black"/>
<path d="M64.3299 159.55C64.2599 159.61 64.1799 159.73 64.1099 159.73C64.0399 159.73 63.9799 159.6 63.9099 159.53C63.9799 159.47 64.0599 159.35 64.1299 159.35C64.1999 159.35 64.2599 159.48 64.3299 159.55Z" fill="black"/>
<path d="M185.16 63.29C185.09 63.37 185.04 63.49 184.96 63.51C184.77 63.57 184.55 63.65 184.38 63.59C183.61 63.31 183.64 62.34 183 61.93C182.47 61.59 181.96 61.22 181.46 60.84C181.16 60.61 181.15 60.03 181.41 59.69C181.7 59.31 182.54 59.26 182.83 59.61C182.96 59.77 183.15 59.91 183.22 60.1C183.62 61.1 184.29 61.9 184.99 62.69C185.11 62.83 185.11 63.08 185.17 63.29H185.16Z" fill="black"/>
<path d="M186.1 50.19C185.94 50.48 185.82 50.95 185.52 51.16C185.02 51.51 184.41 51.71 183.84 51.95C183.6 52.05 183.41 51.94 183.34 51.71C183.03 50.71 183.35 49.71 184.13 49.22C184.68 48.87 185.42 48.98 185.8 49.51C185.92 49.67 185.97 49.88 186.1 50.19Z" fill="black"/>
<path d="M178.1 61.87C178.2 61.87 178.31 61.84 178.41 61.86C179.11 62.01 179.42 62.54 179.62 63.16C179.8 63.73 179.54 64.19 179.18 64.58C178.77 65.02 177.85 64.92 177.5 64.45C176.97 63.73 176.98 62.76 177.55 62.14C177.68 62 177.92 61.96 178.1 61.88V61.87Z" fill="black"/>
<path d="M169.59 66.81C169.56 67.65 169.05 68.21 168.4 68.34C167.89 68.44 167.35 68.18 167.11 67.66C166.98 67.38 166.9 67.06 166.88 66.76C166.84 66.28 167.26 65.71 167.7 65.53C168.17 65.34 168.78 65.48 169.11 65.92C169.35 66.24 169.49 66.63 169.59 66.81Z" fill="black"/>
<path d="M168.68 74.53C167.68 74.57 166.91 74.03 166.84 73.26C166.78 72.66 167.55 71.96 168.29 71.94C169.01 71.92 169.63 72.49 169.73 73.27C169.81 73.92 169.32 74.51 168.68 74.53Z" fill="black"/>
<path d="M176.48 69.05C175.89 68.64 175.25 68.27 174.72 67.79C174.44 67.54 174.29 67.1 174.16 66.72C174.11 66.57 174.22 66.31 174.34 66.17C174.73 65.74 175.26 65.65 175.77 65.81C176.16 65.93 176.51 66.24 176.58 66.68C176.7 67.49 176.94 68.33 176.44 69.11L176.49 69.04L176.48 69.05Z" fill="black"/>
<path d="M181.92 45.65C182.72 45.68 183.22 46.23 183.21 47.05C183.2 47.94 182.7 48.41 181.87 48.33C181.03 48.25 180.54 47.74 180.53 46.94C180.53 46.15 181.11 45.61 181.92 45.64V45.65Z" fill="black"/>
<path d="M203.44 47.59C203.38 48.1 203.02 48.36 202.73 48.33C202.31 48.28 201.92 48.2 201.62 47.84C201.3 47.46 201.16 47 201.4 46.71C201.59 46.48 201.85 46.27 202.12 46.17C202.46 46.04 203.06 46.31 203.19 46.63C203.34 47.01 203.4 47.42 203.44 47.59Z" fill="black"/>
<path d="M187.99 32.38C188.41 32.38 188.79 32.48 189.06 32.84C189.47 33.38 189.49 33.94 189.09 34.52C188.98 34.67 188.79 34.8 188.61 34.87C188.01 35.08 187.27 34.52 187.09 33.74C186.94 33.13 187.39 32.46 187.99 32.38Z" fill="black"/>
<path d="M173.26 64.24C173.08 64.52 173.01 64.74 172.85 64.84C172.42 65.11 171.77 65 171.4 64.64C170.94 64.2 170.9 63.45 171.31 62.94C171.57 62.62 172.08 62.54 172.44 62.74C173.09 63.09 173.15 63.71 173.26 64.24Z" fill="black"/>
<path d="M209.2 26.33C209.17 26.91 208.7 27.35 208.21 27.27C207.71 27.19 207.33 26.67 207.38 26.13C207.43 25.6 207.94 25.11 208.38 25.17C208.84 25.23 209.23 25.78 209.2 26.33Z" fill="black"/>
<path d="M188.52 54.15C188.13 54.12 187.74 53.74 187.71 53.36C187.67 52.65 188.19 52.15 188.84 52.28C189.19 52.35 189.53 52.81 189.52 53.18C189.5 53.67 188.99 54.17 188.52 54.14V54.15Z" fill="black"/>
<path d="M192.01 50.96C191.43 50.92 191.04 50.46 191.16 49.94C191.26 49.51 191.65 49.2 192.04 49.24C192.57 49.3 192.95 49.77 192.9 50.31C192.87 50.7 192.46 50.99 192.01 50.96Z" fill="black"/>
<path d="M194.79 38.98C195.31 39.03 195.74 39.53 195.71 40.04C195.69 40.39 195.24 40.73 194.8 40.73C194.24 40.73 193.8 40.23 193.9 39.71C193.98 39.31 194.42 38.94 194.78 38.98H194.79Z" fill="black"/>
<path d="M211.77 36.14C212.11 36.29 212.41 36.38 212.65 36.55C213 36.81 213.03 37.28 212.76 37.65C212.53 37.97 212.22 37.91 211.92 37.82C211.73 37.76 211.53 37.65 211.38 37.51C211.15 37.3 210.9 37.02 211.1 36.71C211.24 36.48 211.52 36.34 211.76 36.15L211.77 36.14Z" fill="black"/>
<path d="M191.96 55.66C192.06 55.67 192.17 55.67 192.26 55.7C192.64 55.83 192.83 56.23 192.73 56.71C192.67 57.03 192.48 57.26 192.14 57.33C191.68 57.42 191.25 57.19 191.17 56.81C191.07 56.32 191.44 55.77 191.95 55.66H191.96Z" fill="black"/>
<path d="M176.44 69.13C177.51 68.52 178.27 68.7 178.64 69.68C178.7 69.84 178.64 70.08 178.56 70.25C178.46 70.5 178.01 70.55 177.78 70.33C177.34 69.91 176.93 69.46 176.5 69.04C176.49 69.05 176.44 69.13 176.44 69.13Z" fill="black"/>
<path d="M172.08 71.02C171.58 70.93 171.07 70.21 171.32 69.86C171.48 69.63 171.78 69.44 172.05 69.38C172.43 69.3 172.85 69.78 172.84 70.17C172.84 70.58 172.39 71.07 172.08 71.02Z" fill="black"/>
<path d="M202.01 40.32C201.98 40.42 201.98 40.53 201.92 40.62C201.72 40.93 201.15 41.05 200.83 40.85C200.49 40.65 200.22 39.98 200.45 39.82C200.68 39.65 201 39.55 201.28 39.54C201.76 39.53 202.04 39.88 202 40.32H202.01Z" fill="black"/>
<path d="M175.58 53.72C175.53 54.24 174.99 54.67 174.51 54.57C174.11 54.49 173.83 54.04 173.93 53.65C174.04 53.24 174.38 52.96 174.81 52.91C175.16 52.88 175.6 53.34 175.57 53.71L175.58 53.72Z" fill="black"/>
<path d="M175.79 59.93C175.79 60.29 175.35 60.75 175 60.75C174.65 60.75 174.28 60.34 174.24 59.91C174.2 59.48 174.58 59.08 174.98 59.13C175.4 59.17 175.79 59.56 175.79 59.93Z" fill="black"/>
<path d="M182.04 52.46C182.21 52.54 182.44 52.58 182.54 52.72C182.81 53.09 182.74 53.46 182.42 53.82C182.12 54.15 181.73 54.23 181.34 53.97C181.2 53.87 181.08 53.63 181.1 53.47C181.16 52.85 181.43 52.59 182.04 52.47V52.46Z" fill="black"/>
<path d="M212.08 30.21C212.01 30.74 211.65 31.07 211.24 31.08C210.93 31.08 210.63 30.77 210.67 30.47C210.73 30.03 211.08 29.64 211.47 29.73C211.72 29.78 211.92 30.07 212.09 30.21H212.08Z" fill="black"/>
<path d="M198.41 30.49C198.24 30.41 198 30.38 197.92 30.25C197.71 29.89 197.82 29.4 198.15 29.21C198.3 29.12 198.62 29.07 198.67 29.14C198.82 29.37 198.94 29.65 198.97 29.92C199 30.23 198.75 30.44 198.41 30.49Z" fill="black"/>
<path d="M191.67 29.4C191.95 29.62 192.22 29.75 192.36 29.96C192.56 30.27 192.18 30.74 191.78 30.74C191.5 30.74 191.13 30.42 191.21 30.17C191.28 29.92 191.48 29.71 191.68 29.4H191.67Z" fill="black"/>
<path d="M188.68 40.12C188.59 40.28 188.53 40.52 188.4 40.59C188.13 40.73 187.76 40.49 187.76 40.17C187.76 40 187.89 39.76 188.03 39.68C188.27 39.53 188.62 39.79 188.69 40.12H188.68Z" fill="black"/>
<path d="M195.2 53.51C195.09 53.64 194.96 53.93 194.74 54.02C194.38 54.18 194.01 53.87 193.92 53.42C193.87 53.19 194.13 52.79 194.35 52.75C194.76 52.69 195.15 52.95 195.2 53.5V53.51Z" fill="black"/>
<path d="M178.63 56.77C178.57 57.1 178.23 57.29 177.96 57.14C177.68 56.98 177.48 56.6 177.63 56.4C177.74 56.26 177.96 56.16 178.14 56.15C178.49 56.14 178.69 56.43 178.63 56.77Z" fill="black"/>
<path d="M191.94 43.42C191.85 43.58 191.79 43.82 191.65 43.87C191.37 43.98 190.95 43.72 190.98 43.47C191.01 43.29 191.14 43.08 191.29 42.98C191.54 42.81 191.86 43.04 191.94 43.41V43.42Z" fill="black"/>
<path d="M198.86 43.34C198.75 43.47 198.65 43.67 198.51 43.71C198.21 43.79 197.89 43.39 198.07 43.15C198.17 43.02 198.41 42.9 198.56 42.93C198.68 42.95 198.76 43.2 198.86 43.35V43.34Z" fill="black"/>
<path d="M208.63 32.64C208.82 32.83 209.03 32.95 209.03 33.06C209.03 33.22 208.9 33.47 208.76 33.51C208.62 33.56 208.42 33.41 208.24 33.35C208.36 33.12 208.49 32.9 208.63 32.64Z" fill="black"/>
<path d="M191.39 36.35C191.53 36.45 191.71 36.52 191.79 36.65C191.93 36.88 191.53 37.16 191.25 37C191.12 36.92 191.05 36.72 190.96 36.57C191.1 36.5 191.25 36.42 191.4 36.35H191.39Z" fill="black"/>
<path d="M209.71 46.63C209.58 46.88 209.54 47.09 209.42 47.15C209.26 47.22 209.03 47.22 208.86 47.15C208.69 47.09 208.57 46.91 208.42 46.79C208.58 46.68 208.73 46.49 208.89 46.48C209.14 46.46 209.41 46.57 209.72 46.63H209.71Z" fill="black"/>
<path d="M188.57 60.22C188.39 60.3 188.22 60.43 188.06 60.42C187.96 60.42 187.79 60.18 187.81 60.07C187.84 59.84 188.06 59.75 188.27 59.87C188.4 59.94 188.47 60.1 188.57 60.22Z" fill="black"/>
<path d="M181.25 67.01C181.33 66.77 181.51 66.65 181.63 66.78C181.74 66.89 181.75 67.12 181.76 67.29C181.76 67.35 181.59 67.48 181.53 67.46C181.28 67.4 181.19 67.23 181.25 67V67.01Z" fill="black"/>
<path d="M205.09 50.17C205.02 50.13 204.96 50.09 204.89 50.06C204.96 49.96 205.03 49.86 205.11 49.76C205.17 49.83 205.24 49.9 205.3 49.97C205.23 50.03 205.16 50.1 205.09 50.16V50.17Z" fill="black"/>
<path d="M208.27 39.96L208.19 39.75L208.38 39.76L208.27 39.96Z" fill="black"/>
</g>
<path d="M58.2819 45.2597C58.2819 58.5991 47.4015 69.4437 34.0387 69.4437C20.6758 69.4437 9.79541 58.5991 9.79541 45.2597C9.79541 37.4255 13.4591 30.2909 19.8545 25.6787C26.2314 21.0758 34.1679 19.8422 41.6153 22.2909L43.2672 22.8433C42.492 24.1874 41.7445 25.5406 41.0246 26.9031L39.9726 26.5717C33.9464 24.6661 27.5603 25.7156 22.4477 29.4532C17.3259 33.1908 14.3912 38.9537 14.3912 45.2597C14.3912 56.0675 23.2044 64.8684 34.0387 64.8684C44.8729 64.8684 53.6954 56.0675 53.6954 45.2597C53.6954 40.4174 51.8958 35.7684 48.6474 32.1597L48.186 31.6626C48.7397 30.116 49.3303 28.5234 49.9578 26.8939L51.5636 28.5694C55.8918 33.0987 58.2819 39.0181 58.2819 45.2597Z" fill="#191919"/>
<path d="M52.9573 19.6304C51.8592 22.116 50.8625 24.5464 49.9581 26.8939C49.3305 28.5234 48.7399 30.116 48.1862 31.6626C43.5535 44.7074 41.6986 54.5301 40.6927 57.4944C40.1759 59.0318 39.5945 59.2803 38.0718 58.6728L21.1744 51.8051C20.067 51.3633 16.2002 50.0284 15.5081 49.4576C14.816 48.8961 14.9267 48.132 15.8957 47.6809C17.0308 47.4784 18.3413 47.2022 19.6702 47.0181C25.0965 46.1619 30.8736 46.4565 31.2704 46.4473C32.9776 46.4933 32.064 46.88 35.0725 39.5981C36.6783 35.6856 38.6993 31.2851 41.0249 26.9031C41.7447 25.5406 42.4922 24.1874 43.2674 22.8433C46.5435 17.2093 50.2626 11.8698 54.2032 7.97573C54.72 7.45099 55.3106 6.95387 55.9197 6.51199C56.3627 6.17137 56.9071 6.05169 57.4332 6.30025C58.033 6.56722 57.95 7.13799 57.9592 7.69955H57.9684C57.9869 8.42682 58.0053 8.13223 52.9573 19.6304Z" fill="#E7BB43"/>
<path d="M95.2513 62C94.6047 62 93.9892 61.6711 93.6776 61.1063L86.1827 47.3298C85.7542 46.5363 86.1048 45.5711 86.9696 45.1708C87.8344 44.7704 88.8861 45.0993 89.3224 45.8928L96.8173 59.6694C97.2458 60.4629 96.8952 61.4281 96.0304 61.8284C95.7811 61.9428 95.5084 62 95.2513 62Z" fill="#64A03D"/>
<path d="M84.6125 59C84.0188 59 83.4538 58.6743 83.1677 58.115C82.7743 57.3291 83.0962 56.3734 83.8901 55.9769L97.6723 49.166C98.4662 48.7766 99.4318 49.0952 99.8323 49.8811C100.226 50.667 99.9038 51.6227 99.1099 52.0192L85.3277 58.8301C85.0988 58.9434 84.8485 59 84.6125 59Z" fill="#64A03D"/>
<defs>
<clipPath id="clip0_415_902">
<rect width="213.48" height="171.54" fill="white" transform="translate(15 5)"/>
</clipPath>
</defs>
</svg>
