<svg width="1920" height="889" viewBox="0 0 1920 889" fill="none" xmlns="http://www.w3.org/2000/svg">
<path d="M1915.96 807.876V755.298H1911.92V680.476H1907.87V617.787H1905.85V565.21H1901.81V528.81H1897.77V431.743H1893.46V403.432H1890.43V373.099H1887.4V350.855H1885.38V330.633H1881.34V350.855H1879.32V373.099H1876.28V403.432H1873.25V431.743H1863.41V419.61H1851.28V431.743H1843.2V399.388H1837.14V431.743H1829.05V419.61H1816.93V431.743H1812.62V403.432H1809.59V373.099H1806.56V350.855H1804.54V330.633H1800.5V350.855H1798.47V373.099H1795.44V403.432H1792.41V431.743H1788.63V476.232H1782.57V528.81H1774.48V565.21H1772.46V617.787H1766.4V680.476H1760.34V755.298H1754.27V785.632H1744.11V633.965H1715.81V421.632H1700.66V369.055H1640.02V336.699H1627.9V322.544H1616.78V314.455H1606.68V308.388H1595.56V298.277H1584.44V290.188H1572.32V280.077H1560.19V271.988H1551.1V261.877H1542V255.811H1536.95V251.766H1531.9V247.722H1527.86V243.677H1523.81V247.722H1519.77V251.766H1514.72V255.811H1509.67V261.877H1500.57V271.988H1491.48V280.077H1479.35V290.188H1467.22V298.277H1456.11V308.388H1444.99V314.455H1434.89V322.544H1423.77V336.699H1411.64V369.055H1351.01V421.632H1335.86V633.965H1307.56V724.965H1279.33V538.921H1255.07V466.121H1172.21V447.921H1107.54V375.121H1063.07V447.921H1002.44V466.121H911.495V579.365H889.263V807.876H871.074V288.166H862.181L860.969 227.499L716.989 167.804L709.39 0L701.851 166.833H700.517L553.768 227.499L552.556 288.166H543.663V642.054H515.368V419.61H495.158V401.41H446.653V419.61H424.421V500.499H327.411V753.276H314.395L286.545 498.638L285.676 490.63C285.514 489.195 285.292 487.981 285.029 487.011C288.869 481.672 291.294 475.241 291.719 468.265H292.446C296.024 468.265 298.954 465.353 298.954 461.753V459.549C298.954 455.949 296.024 453.037 292.446 453.037H291.779V386.405H292.628C293.942 386.405 295.094 385.596 295.539 384.363C295.983 383.109 295.599 381.774 294.589 380.945L257.745 350.673V339.935C257.745 338.863 256.876 337.993 255.805 337.993C254.733 337.993 253.864 338.863 253.864 339.935V350.673L217.021 380.945C216.01 381.774 215.646 383.109 216.091 384.363C216.536 385.596 217.667 386.405 218.981 386.405H219.83V453.037H219.183C215.586 453.037 212.675 455.949 212.675 459.549V461.753C212.675 465.353 215.586 468.265 219.183 468.265H219.911C220.315 474.978 222.579 481.187 226.176 486.424V486.444C225.913 487.415 225.691 488.608 225.529 490.044L224.64 498.072L218.92 550.549L218.86 550.953L210.371 628.829L210.311 629.355L200.327 720.921H94.2821L80.9432 261.493C80.923 260.603 81.4484 259.794 82.2771 259.471C82.6813 259.309 83.0855 259.167 83.3684 259.066C84.1364 258.783 84.7629 258.561 85.2278 258.318C88.7444 256.478 91.9377 241.554 91.7154 235.811C91.675 234.699 91.5335 231.321 88.987 230.229C82.5196 227.52 67.3617 225.72 53.8408 227.601C48.6265 228.147 44.2611 229.077 41.5326 230.229C38.9659 231.321 38.8244 234.699 38.784 235.811C38.5617 241.554 41.7549 256.478 45.2716 258.318C45.7364 258.561 46.363 258.783 47.131 259.066C47.515 259.208 48.0404 259.41 48.5659 259.612C49.1722 259.875 49.5764 260.482 49.5562 261.149C44.1398 448.123 37.8341 665.31 36.2173 720.921H0L0 888.5H1920V807.876H1915.96ZM193.192 786.177V785.955H193.213V786.177H193.192ZM228.379 498.477L229.248 490.448C229.248 490.448 229.248 490.368 229.268 490.327C232.259 493.583 235.816 496.293 239.798 498.274C239.555 499.306 239.373 500.661 239.333 502.339L239.091 510.165L238.1 541.995L222.882 548.769L228.379 498.477ZM232.603 720.921H204.086L205.238 710.425L233.027 706.987L232.603 720.921ZM233.149 703.064L205.662 706.441L213.807 631.842L235.554 625.088L233.149 703.064ZM214.272 627.615L222.397 553.258L237.979 546.322L235.675 620.983L214.272 627.615ZM252.328 720.921H236.342L236.766 706.907L252.328 707.008V720.921ZM252.328 703.125L236.888 703.024L239.313 624.441L252.328 624.825V703.125ZM252.328 620.962L239.434 620.578L241.758 545.19L252.328 545.594V620.962ZM252.328 504.927V541.691L241.88 541.307L242.829 510.286L243.072 502.46C243.112 501.409 243.072 500.479 243.011 499.67C246.023 500.822 249.236 501.591 252.571 501.874H252.591C252.43 502.744 252.328 503.755 252.328 504.927ZM296.286 622.257L275.53 621.65L273.206 546.363L288.061 546.909L296.286 622.257ZM274.297 703.246L257.785 703.145V625.007L271.892 625.411L274.297 703.246ZM281.917 490.772C281.917 490.772 281.917 490.954 281.937 491.035L282.826 499.063L287.636 543.006L273.085 542.48L272.074 509.862L271.832 502.036C271.791 500.6 271.65 499.387 271.468 498.416C275.409 496.535 278.946 493.927 281.917 490.772ZM271.771 621.529L257.785 621.124V545.797L269.427 546.221L271.771 621.529ZM257.563 501.995C261.241 501.813 264.778 501.085 268.093 499.872C268.052 500.539 268.052 501.308 268.072 502.157L268.315 509.983L269.305 542.339L257.785 541.894V504.927C257.785 503.815 257.704 502.824 257.543 501.995H257.563ZM270.821 753.276V720.921H257.785V707.028L274.419 707.149L275.833 753.276H270.821ZM275.651 625.533L296.731 626.159L305.179 703.449L278.056 703.287L275.651 625.533ZM279.592 753.276L278.178 707.17L305.603 707.331L310.616 753.276H279.592Z" fill="white"/>
<path d="M1915.96 807.876V755.298H1911.92V680.476H1907.87V617.787H1905.85V565.21H1901.81V528.81H1897.77V431.743H1893.46V403.432H1890.43V373.099H1887.4V350.855H1885.38V330.633H1881.34V350.855H1879.32V373.099H1876.28V403.432H1873.25V431.743H1863.41V419.61H1851.28V431.743H1843.2V399.388H1837.14V431.743H1829.05V419.61H1816.93V431.743H1812.62V403.432H1809.59V373.099H1806.56V350.855H1804.54V330.633H1800.5V350.855H1798.47V373.099H1795.44V403.432H1792.41V431.743H1788.63V476.232H1782.57V528.81H1774.48V565.21H1772.46V617.787H1766.4V680.476H1760.34V755.298H1754.27V785.632H1744.11V633.965H1715.81V421.632H1700.66V369.055H1640.02V336.699H1627.9V322.544H1616.78V314.455H1606.68V308.388H1595.56V298.277H1584.44V290.188H1572.32V280.077H1560.19V271.988H1551.1V261.877H1542V255.811H1536.95V251.766H1531.9V247.722H1527.86V243.677H1523.81V247.722H1519.77V251.766H1514.72V255.811H1509.67V261.877H1500.57V271.988H1491.48V280.077H1479.35V290.188H1467.22V298.277H1456.11V308.388H1444.99V314.455H1434.89V322.544H1423.77V336.699H1411.64V369.055H1351.01V421.632H1335.86V633.965H1307.56V724.965H1279.33V538.921H1255.07V466.121H1172.21V447.921H1107.54V375.121H1063.07V447.921H1002.44V466.121H911.495V579.365H889.263V807.876H871.074V288.166H862.181L860.969 227.499L716.989 167.804L709.39 0L701.851 166.833H700.517L553.768 227.499L552.556 288.166H543.663V642.054H515.368V419.61H495.158V401.41H446.653V419.61H424.421V500.499H327.411V753.276H314.395L286.545 498.638L285.676 490.63C285.514 489.195 285.292 487.981 285.029 487.011C288.869 481.672 291.294 475.241 291.719 468.265H292.446C296.024 468.265 298.954 465.353 298.954 461.753V459.549C298.954 455.949 296.024 453.037 292.446 453.037H291.779V386.405H292.628C293.942 386.405 295.094 385.596 295.539 384.363C295.983 383.109 295.599 381.774 294.589 380.945L257.745 350.673V339.935C257.745 338.863 256.876 337.993 255.805 337.993C254.733 337.993 253.864 338.863 253.864 339.935V350.673L217.021 380.945C216.01 381.774 215.646 383.109 216.091 384.363C216.536 385.596 217.667 386.405 218.981 386.405H219.83V453.037H219.183C215.586 453.037 212.675 455.949 212.675 459.549V461.753C212.675 465.353 215.586 468.265 219.183 468.265H219.911C220.315 474.978 222.579 481.187 226.176 486.424V486.444C225.913 487.415 225.691 488.608 225.529 490.044L224.64 498.072L218.92 550.549L218.86 550.953L210.371 628.829L210.311 629.355L200.327 720.921H94.2821L80.9432 261.493C80.923 260.603 81.4484 259.794 82.2771 259.471C82.6813 259.309 83.0855 259.167 83.3684 259.066C84.1364 258.783 84.7629 258.561 85.2278 258.318C88.7444 256.478 91.9377 241.554 91.7154 235.811C91.675 234.699 91.5335 231.321 88.987 230.229C82.5196 227.52 67.3617 225.72 53.8408 227.601C48.6265 228.147 44.2611 229.077 41.5326 230.229C38.9659 231.321 38.8244 234.699 38.784 235.811C38.5617 241.554 41.7549 256.478 45.2716 258.318C45.7364 258.561 46.363 258.783 47.131 259.066C47.515 259.208 48.0404 259.41 48.5659 259.612C49.1722 259.875 49.5764 260.482 49.5562 261.149C44.1398 448.123 37.8341 665.31 36.2173 720.921H0L0 888.5H1920V807.876H1915.96ZM193.192 786.177V785.955H193.213V786.177H193.192ZM228.379 498.477L229.248 490.448C229.248 490.448 229.248 490.368 229.268 490.327C232.259 493.583 235.816 496.293 239.798 498.274C239.555 499.306 239.373 500.661 239.333 502.339L239.091 510.165L238.1 541.995L222.882 548.769L228.379 498.477ZM232.603 720.921H204.086L205.238 710.425L233.027 706.987L232.603 720.921ZM233.149 703.064L205.662 706.441L213.807 631.842L235.554 625.088L233.149 703.064ZM214.272 627.615L222.397 553.258L237.979 546.322L235.675 620.983L214.272 627.615ZM252.328 720.921H236.342L236.766 706.907L252.328 707.008V720.921ZM252.328 703.125L236.888 703.024L239.313 624.441L252.328 624.825V703.125ZM252.328 620.962L239.434 620.578L241.758 545.19L252.328 545.594V620.962ZM252.328 504.927V541.691L241.88 541.307L242.829 510.286L243.072 502.46C243.112 501.409 243.072 500.479 243.011 499.67C246.023 500.822 249.236 501.591 252.571 501.874H252.591C252.43 502.744 252.328 503.755 252.328 504.927ZM296.286 622.257L275.53 621.65L273.206 546.363L288.061 546.909L296.286 622.257ZM274.297 703.246L257.785 703.145V625.007L271.892 625.411L274.297 703.246ZM281.917 490.772C281.917 490.772 281.917 490.954 281.937 491.035L282.826 499.063L287.636 543.006L273.085 542.48L272.074 509.862L271.832 502.036C271.791 500.6 271.65 499.387 271.468 498.416C275.409 496.535 278.946 493.927 281.917 490.772ZM271.771 621.529L257.785 621.124V545.797L269.427 546.221L271.771 621.529ZM257.563 501.995C261.241 501.813 264.778 501.085 268.093 499.872C268.052 500.539 268.052 501.308 268.072 502.157L268.315 509.983L269.305 542.339L257.785 541.894V504.927C257.785 503.815 257.704 502.824 257.543 501.995H257.563ZM270.821 753.276V720.921H257.785V707.028L274.419 707.149L275.833 753.276H270.821ZM275.651 625.533L296.731 626.159L305.179 703.449L278.056 703.287L275.651 625.533ZM279.592 753.276L278.178 707.17L305.603 707.331L310.616 753.276H279.592Z" fill="url(#paint0_linear_354_17)"/>
<defs>
<linearGradient id="paint0_linear_354_17" x1="35.1539" y1="215.411" x2="1920" y2="880.717" gradientUnits="userSpaceOnUse">
<stop offset="0.09" stop-color="#5FBFFA"/>
<stop offset="0.7" stop-color="#F27339"/>
<stop offset="0.91" stop-color="#DB433B"/>
</linearGradient>
</defs>
</svg>
