<svg width="1920" height="817" viewBox="0 0 1920 817" fill="none" xmlns="http://www.w3.org/2000/svg">
<path fill-rule="evenodd" clip-rule="evenodd" d="M1915.66 735.379H1919.29V735.383C1919.68 735.383 1920 735.702 1920 736.093V817H0V701.042H30.2358C33.5483 701.042 36.2491 698.434 36.3497 695.122C38.0449 636.42 43.3328 454.34 48.2599 284.689L49.5074 241.732C49.5236 241.047 49.121 240.438 48.4972 240.196C48.1479 240.048 47.7968 239.918 47.4942 239.806C47.3435 239.75 47.2048 239.699 47.0844 239.652C46.2996 239.366 45.6918 239.144 45.2087 238.902C41.699 237.065 38.5112 222.133 38.7527 216.398C38.7929 215.285 38.9177 211.912 41.4776 210.84C44.2025 209.688 48.5616 208.757 53.7659 208.212C67.2657 206.314 82.4158 208.112 88.8518 210.84C91.4145 211.912 91.5364 215.282 91.5767 216.396V216.398C91.8182 222.137 88.6304 237.065 85.1005 238.902C84.6567 239.134 84.0649 239.351 83.3393 239.618L83.245 239.652C82.9633 239.753 82.5809 239.894 82.1743 240.055C81.3452 240.378 80.822 241.188 80.842 242.074L93.9555 695.101C94.0562 698.414 96.7609 701.042 100.069 701.042H199.998L209.968 609.568V609.54L210.024 609.045L218.497 531.265V531.241L218.557 530.842V530.83L224.265 478.417L225.15 470.397C225.311 468.967 225.529 467.754 225.794 466.782C225.79 466.782 225.786 466.774 225.786 466.774C222.184 461.555 219.93 455.345 219.519 448.642H218.791C215.205 448.642 212.29 445.721 212.29 442.134V439.925C212.29 436.334 215.209 433.416 218.791 433.416H219.447V366.853H218.602C217.285 366.853 216.146 366.051 215.704 364.81C215.261 363.577 215.631 362.231 216.646 361.396L253.418 331.17C253.426 331.162 253.43 331.162 253.43 331.162V320.434C253.43 319.366 254.303 318.491 255.37 318.491C256.437 318.491 257.31 319.366 257.31 320.434V331.162C257.318 331.162 257.322 331.17 257.322 331.17L294.09 361.396C295.109 362.231 295.479 363.573 295.04 364.81C294.594 366.051 293.458 366.853 292.142 366.853H291.297V433.416H291.953C295.539 433.416 298.454 436.338 298.454 439.925V442.134C298.454 445.721 295.535 448.642 291.953 448.642H291.225C290.802 455.594 288.387 462.027 284.547 467.363V467.367C284.813 468.338 285.034 469.547 285.195 470.982L286.061 478.982L313.861 733.36H318.864C323.276 733.36 326.854 729.777 326.854 725.36V488.94C326.854 484.483 330.492 480.84 334.944 480.84H417.32C420.842 480.84 423.695 477.982 423.695 474.456V405.225C423.695 402.355 426.014 400.034 428.88 400.034H442.597C444.412 400.034 445.885 398.559 445.885 396.741V384.885C445.885 383.208 447.242 381.854 448.912 381.854H491.283C492.957 381.854 494.31 383.212 494.31 384.885V396.741C494.31 398.559 495.783 400.034 497.598 400.034H509.299C512.165 400.034 514.483 402.355 514.483 405.225V618.898C514.483 620.748 515.98 622.251 517.832 622.251H539.378C541.225 622.251 542.727 620.748 542.727 618.898V272.297C542.727 270.322 544.324 268.722 546.297 268.722H547.71C549.871 268.722 551.646 266.981 551.686 264.841L552.636 217.147C552.737 211.654 556.085 206.762 561.149 204.662L699.347 147.429C700.152 147.094 700.688 146.329 700.728 145.458L707.26 0.86248C707.321 -0.290138 709.015 -0.290138 709.076 0.86248L715.616 145.313C715.657 146.442 716.361 147.453 717.411 147.876L851.065 204.662C856.109 206.762 859.458 211.654 859.558 217.127L860.484 263.39C860.544 266.36 862.967 268.722 865.934 268.722C867.886 268.722 869.46 270.322 869.46 272.277V783.439C869.46 785.902 871.456 787.901 873.915 787.901H889.878C892.338 787.901 894.334 785.902 894.334 783.439V525.091C894.334 521.847 896.959 519.219 900.199 519.219H910.008C912.491 519.219 914.508 517.2 914.508 514.713V391.663C914.508 388.475 917.091 385.888 920.275 385.888H946.333C948.817 385.888 950.825 383.873 950.825 381.39V253.302C950.825 249.542 953.868 246.495 957.623 246.495H1214.38C1218.14 246.495 1221.18 249.542 1221.18 253.302V381.39C1221.18 383.873 1223.19 385.884 1225.67 385.884H1251.73C1254.91 385.884 1257.49 388.471 1257.49 391.659V514.709C1257.49 517.196 1259.51 519.215 1261.99 519.215H1271.8C1275.04 519.215 1277.67 521.843 1277.67 525.087V701.268C1277.67 703.367 1279.37 705.072 1281.47 705.072H1301.39C1303.49 705.072 1305.19 703.367 1305.19 701.268V621.107C1305.19 617.274 1308.29 614.163 1312.12 614.163H1329.77C1331.79 614.163 1333.44 612.523 1333.44 610.495V406.853C1333.44 404.197 1335.59 402.045 1338.24 402.045H1346.68C1347.72 402.045 1348.57 401.195 1348.57 400.147V354.352C1348.57 351.684 1350.73 349.524 1353.39 349.524H1406.47C1407.92 349.524 1409.1 348.347 1409.1 346.896V318.048C1409.1 317.58 1409.48 317.197 1409.95 317.197H1420.36C1420.82 317.197 1421.21 316.814 1421.21 316.347V303.902C1421.21 303.434 1421.59 303.051 1422.06 303.051H1431.46C1431.92 303.051 1432.31 302.668 1432.31 302.201V295.817C1432.31 295.354 1432.69 294.971 1433.16 294.971H1441.55C1442.02 294.971 1442.4 294.588 1442.4 294.12V289.756C1442.4 289.292 1442.78 288.909 1443.25 288.909H1452.65C1453.12 288.909 1453.5 288.526 1453.5 288.059V279.656C1453.5 279.188 1453.88 278.806 1454.35 278.806H1463.75C1464.21 278.806 1464.6 278.423 1464.6 277.955V271.571C1464.6 271.104 1464.98 270.721 1465.45 270.721H1475.86C1476.32 270.721 1476.71 270.338 1476.71 269.871V261.468C1476.71 261 1477.09 260.617 1477.55 260.617H1487.96C1488.43 260.617 1488.81 260.234 1488.81 259.767V253.383C1488.81 252.916 1489.2 252.533 1489.66 252.533H1497.05C1497.51 252.533 1497.89 252.15 1497.89 251.682V243.279C1497.89 242.816 1498.28 242.433 1498.74 242.433H1506.13C1506.6 242.433 1506.98 242.05 1506.98 241.583V237.218C1506.98 236.754 1507.36 236.372 1507.83 236.372H1511.18C1511.64 236.372 1512.03 235.989 1512.03 235.521V233.176C1512.03 232.708 1512.41 232.325 1512.88 232.325H1516.22C1516.69 232.325 1517.07 231.942 1517.07 231.475V229.133C1517.07 228.666 1517.45 228.283 1517.92 228.283H1520.26C1520.73 228.283 1521.11 227.9 1521.11 227.432V225.087C1521.11 224.619 1521.49 224.237 1521.96 224.237H1524.3C1524.77 224.237 1525.15 224.619 1525.15 225.087V227.432C1525.15 227.9 1525.53 228.283 1526 228.283H1528.34C1528.81 228.283 1529.19 228.666 1529.19 229.133V231.475C1529.19 231.942 1529.57 232.325 1530.04 232.325H1533.39C1533.85 232.325 1534.24 232.708 1534.24 233.176V235.517C1534.24 235.985 1534.62 236.367 1535.09 236.367H1538.43C1538.9 236.367 1539.28 236.746 1539.28 237.214V241.579C1539.28 242.046 1539.67 242.429 1540.13 242.429H1547.52C1547.99 242.429 1548.37 242.812 1548.37 243.279V251.682C1548.37 252.15 1548.75 252.533 1549.22 252.533H1556.6C1557.07 252.533 1557.45 252.916 1557.45 253.383V259.767C1557.45 260.234 1557.83 260.617 1558.3 260.617H1568.71C1569.17 260.617 1569.56 261 1569.56 261.468V269.871C1569.56 270.338 1569.94 270.721 1570.4 270.721H1580.81C1581.28 270.721 1581.66 271.104 1581.66 271.571V277.955C1581.66 278.423 1582.05 278.806 1582.51 278.806H1591.91C1592.38 278.806 1592.76 279.188 1592.76 279.656V288.059C1592.76 288.526 1593.15 288.909 1593.61 288.909H1603.02C1603.48 288.909 1603.86 289.288 1603.86 289.756V294.12C1603.86 294.588 1604.24 294.971 1604.71 294.971H1613.1C1613.57 294.971 1613.95 295.354 1613.95 295.821V302.205C1613.95 302.672 1614.33 303.055 1614.8 303.055H1624.2C1624.67 303.055 1625.05 303.438 1625.05 303.906V316.351C1625.05 316.818 1625.43 317.201 1625.9 317.201H1636.31C1636.78 317.201 1637.16 317.584 1637.16 318.052V346.9C1637.16 348.351 1638.33 349.528 1639.78 349.528H1692.87C1695.53 349.528 1697.69 351.688 1697.69 354.356V400.151C1697.69 401.199 1698.54 402.049 1699.58 402.049H1708.02C1710.67 402.049 1712.82 404.201 1712.82 406.857V610.499C1712.82 612.523 1714.46 614.167 1716.48 614.167H1734.13C1737.96 614.167 1741.06 617.274 1741.06 621.111V762.789C1741.06 764.385 1742.36 765.678 1743.95 765.678H1755.67C1757.26 765.678 1758.55 764.385 1758.55 762.789V736.085C1758.55 735.694 1758.87 735.375 1759.26 735.375H1762.89C1763.28 735.375 1763.6 735.057 1763.6 734.666V661.332C1763.6 660.941 1763.91 660.623 1764.31 660.623H1767.94C1768.33 660.623 1768.64 660.309 1768.64 659.918V598.707C1768.64 598.316 1768.96 598.002 1769.35 598.002H1771.97C1772.36 598.002 1772.68 597.683 1772.68 597.292V546.181C1772.68 545.79 1773 545.476 1773.39 545.476H1775C1775.39 545.476 1775.71 545.158 1775.71 544.767V509.817C1775.71 509.426 1776.02 509.107 1776.41 509.107H1781.05C1781.44 509.107 1781.76 508.793 1781.76 508.402V457.291C1781.76 456.9 1782.08 456.582 1782.47 456.582H1784.08C1784.47 456.582 1784.78 456.268 1784.78 455.877V412.846C1784.78 412.459 1785.1 412.141 1785.49 412.141H1788.6C1788.99 412.141 1789.31 411.822 1789.31 411.432V384.562C1789.31 384.171 1789.62 383.853 1790.01 383.853H1791.63C1792.02 383.853 1792.33 383.538 1792.33 383.148V354.259C1792.33 353.868 1792.65 353.554 1793.04 353.554H1794.65C1795.04 353.554 1795.36 353.235 1795.36 352.844V331.331H1795.4V331.323C1795.4 330.908 1795.73 330.573 1796.15 330.573H1796.8C1797.12 330.573 1797.38 330.316 1797.38 329.997V311.837C1797.38 311.446 1797.7 311.128 1798.09 311.128H1800.71C1801.1 311.128 1801.42 311.446 1801.42 311.837V329.997C1801.42 330.316 1801.68 330.573 1802 330.573H1802.65C1803.07 330.573 1803.4 330.908 1803.4 331.323V331.331H1803.44V352.844C1803.44 353.235 1803.75 353.554 1804.14 353.554H1805.76C1806.14 353.554 1806.46 353.868 1806.46 354.259V383.148C1806.46 383.538 1806.78 383.853 1807.17 383.853H1808.79C1809.18 383.853 1809.49 384.171 1809.49 384.562V411.432C1809.49 411.822 1809.81 412.141 1810.2 412.141H1815.08C1815.47 412.141 1815.78 411.822 1815.78 411.432V400.723C1815.78 400.332 1816.1 400.018 1816.49 400.018H1827.19C1827.58 400.018 1827.89 400.332 1827.89 400.723V411.432C1827.89 411.822 1828.21 412.141 1828.6 412.141H1835.26C1835.65 412.141 1835.97 411.822 1835.97 411.432V380.524C1835.97 380.133 1836.28 379.819 1836.67 379.819H1841.32C1841.7 379.819 1842.02 380.133 1842.02 380.524V411.432C1842.02 411.822 1842.34 412.141 1842.73 412.141H1849.39C1849.78 412.141 1850.09 411.822 1850.09 411.432V400.723C1850.09 400.332 1850.41 400.018 1850.8 400.018H1861.49C1861.88 400.018 1862.2 400.332 1862.2 400.723V411.432C1862.2 411.822 1862.51 412.141 1862.91 412.141H1869.32C1869.71 412.141 1870.03 411.822 1870.03 411.432V384.562C1870.03 384.171 1870.34 383.853 1870.73 383.853H1872.35C1872.74 383.853 1873.06 383.538 1873.06 383.148V354.259C1873.06 353.868 1873.37 353.554 1873.76 353.554H1875.38C1875.77 353.554 1876.09 353.235 1876.09 352.844V331.331H1876.17V331.323C1876.17 330.908 1876.51 330.573 1876.92 330.573H1877.58C1877.81 330.573 1878.01 330.432 1878.1 330.235V311.841C1878.1 311.45 1878.42 311.132 1878.81 311.132H1881.48C1881.87 311.132 1882.19 311.45 1882.19 311.841V330.001C1882.19 330.32 1882.45 330.578 1882.76 330.578H1883.42C1883.84 330.578 1884.17 330.912 1884.17 331.327V342.676H1884.16V352.848C1884.16 353.239 1884.48 353.558 1884.87 353.558H1886.48C1886.87 353.558 1887.19 353.872 1887.19 354.263V383.152C1887.19 383.542 1887.5 383.857 1887.89 383.857H1889.51C1889.9 383.857 1890.21 384.175 1890.21 384.566V411.436C1890.21 411.826 1890.53 412.145 1890.92 412.145H1893.06C1893.45 412.145 1893.77 412.459 1893.77 412.85V455.881C1893.77 456.272 1894.08 456.586 1894.47 456.586H1896.09C1896.48 456.586 1896.8 456.904 1896.8 457.295V508.406C1896.8 508.797 1897.11 509.112 1897.5 509.112H1902.14C1902.53 509.112 1902.85 509.43 1902.85 509.821V544.771C1902.85 545.162 1903.16 545.48 1903.55 545.48H1905.17C1905.55 545.48 1905.87 545.794 1905.87 546.185V597.297C1905.87 597.687 1906.19 598.006 1906.58 598.006H1909.21C1909.6 598.006 1909.91 598.32 1909.91 598.711V659.922C1909.91 660.313 1910.23 660.627 1910.62 660.627H1914.25C1914.64 660.627 1914.96 660.945 1914.96 661.336V734.67C1914.96 735.061 1915.27 735.379 1915.66 735.379ZM271.325 601.746L268.983 526.514L257.342 526.079V601.331L271.325 601.746ZM271.446 605.631L257.342 605.212V683.289L273.845 683.39V683.382L271.446 605.631ZM287.566 527.207L272.738 526.655L275.056 601.851L295.777 602.467L287.566 527.207ZM281.44 471.111C278.469 474.258 274.931 476.866 270.999 478.776L271.003 478.78C271.184 479.747 271.325 480.94 271.365 482.375L271.607 490.194L272.613 522.766L287.139 523.31V523.302L282.337 479.385L281.468 471.385C281.448 471.284 281.448 471.203 281.448 471.103L281.44 471.111ZM267.646 480.203C264.338 481.416 260.796 482.145 257.117 482.327H257.101V482.335C257.262 483.161 257.342 484.152 257.342 485.265V522.198L268.862 522.629L267.872 490.319L267.63 482.5C267.61 481.654 267.61 480.888 267.65 480.203H267.646ZM255.382 334.604L255.366 334.588H255.362L255.346 334.604H255.382ZM242.413 490.593V490.597L241.464 521.597L251.896 521.988V485.261C251.896 484.092 251.997 483.084 252.158 482.218H252.15C248.813 481.924 245.613 481.166 242.603 480.013H242.595C242.675 480.824 242.695 481.75 242.655 482.798L242.413 490.593ZM227.988 478.821L222.498 529.061L222.502 529.069L237.692 522.31L238.682 490.5L238.924 482.682C238.984 481.001 239.145 479.671 239.387 478.619V478.607C235.406 476.624 231.844 473.916 228.873 470.667C228.872 470.684 228.868 470.703 228.864 470.722C228.859 470.749 228.853 470.777 228.853 470.8L227.988 478.821ZM203.733 701.038H232.202L232.206 701.042L232.629 687.13L204.884 690.547V690.555L203.733 701.038ZM235.148 605.305V605.3V605.296L213.438 612.043V612.051L205.303 686.573V686.586L232.745 683.2L235.148 605.305ZM213.904 607.823V607.827L235.269 601.19L237.571 526.611V526.599L222.015 533.522L213.904 607.823ZM235.933 701.038H251.892V701.034V687.13L236.356 687.037L235.933 701.038ZM236.477 683.16L251.892 683.253V605.051L238.9 604.664L236.477 683.16ZM239.02 600.783L251.892 601.165V601.161V525.869L241.339 525.474V525.482L239.02 600.783ZM270.355 708.01V728.129H270.359C270.359 730.95 272.589 733.251 275.382 733.356L273.969 687.283V687.275L257.342 687.17V701.042H263.396C267.24 701.042 270.355 704.161 270.355 708.01ZM296.22 606.364L275.177 605.74V605.748L275.181 605.744L277.58 683.41L304.656 683.579L296.22 606.372V606.364ZM277.697 687.303L279.109 733.36H310.078L305.075 687.464L277.697 687.295V687.303Z" fill="url(#paint0_linear_360_33)"/>
<defs>
<linearGradient id="paint0_linear_360_33" x1="72.9897" y1="159.74" x2="1894.66" y2="1025.2" gradientUnits="userSpaceOnUse">
<stop offset="0.09" stop-color="#5FBFFA"/>
<stop offset="0.7" stop-color="#E17B46"/>
<stop offset="0.99" stop-color="#DB433B"/>
</linearGradient>
</defs>
</svg>
