<svg width="400" height="400" viewBox="0 0 400 400" fill="none" xmlns="http://www.w3.org/2000/svg">
<g clip-path="url(#clip0_567_2)">
<rect width="400" height="400" fill="white"/>
<path d="M-165 390H2713" stroke="#5FBFFA" stroke-width="2"/>
<path d="M-165 209H2713" stroke="#5FBFFA" stroke-width="2"/>
<path d="M-165 147H2713" stroke="#5FBFFA" stroke-width="2"/>
<path d="M-165 330H2713" stroke="#5FBFFA" stroke-width="2"/>
<path d="M-165 88H2713" stroke="#5FBFFA" stroke-width="2"/>
<path d="M-165 269H2713" stroke="#5FBFFA" stroke-width="2"/>
<path d="M-165 27H2713" stroke="#5FBFFA" stroke-width="2"/>
<path d="M253.735 684.122C364.873 654.343 430.903 540.39 401.217 429.601C371.531 318.812 257.371 253.141 146.233 282.92C35.0951 312.7 -30.9349 426.653 -1.24909 537.442C28.4367 648.23 142.597 713.902 253.735 684.122Z" fill="#FEE090"/>
<g clip-path="url(#clip1_567_2)">
<path d="M218.362 290.551C270.944 276.462 302.184 222.548 288.139 170.132C274.094 117.715 220.083 86.6451 167.501 100.734C114.919 114.823 83.6794 168.737 97.7243 221.153C111.769 273.57 165.781 304.64 218.362 290.551Z" fill="#E7BB43"/>
<path d="M218.362 290.551C270.944 276.462 302.184 222.548 288.139 170.132C274.094 117.715 220.083 86.6451 167.501 100.734C114.919 114.823 83.6794 168.737 97.7243 221.153C111.769 273.57 165.781 304.64 218.362 290.551Z" fill="#5FBFFA"/>
<path d="M162.847 131.478C139.487 127.921 133.463 166.336 157.86 167.908C181.824 172.299 185.036 132.267 162.847 131.478Z" fill="black"/>
<path d="M257.93 207.771C256.85 207.112 255.607 206.734 254.367 206.544C253.082 206.367 251.825 206.467 250.582 206.8C249.339 207.133 248.212 207.719 247.233 208.503C246.253 209.287 245.366 210.236 244.76 211.347C226.507 241.941 172.018 240.275 158.627 203.791C153.464 191.801 135.267 200.234 140.687 210.874C175.112 292.655 285.316 235.052 257.918 207.727L257.93 207.771Z" fill="black"/>
<path d="M214.344 62.148C149.816 52.312 78.3423 104.612 76.0075 169.401C64.0777 282.714 202.37 348.045 286.431 278.098C366.784 213.128 314.942 71.1393 214.332 62.1037L214.344 62.148ZM187.491 286.304C53.7437 268.648 71.4151 63.3133 211.49 81.5025C346.527 99.0022 332.183 305.39 187.491 286.304Z" fill="black"/>
<path d="M235.238 166.049C251.54 183.211 277.196 158.41 262.445 139.932C246.339 123.855 218.649 147.636 235.238 166.049Z" fill="black"/>
</g>
</g>
<defs>
<clipPath id="clip0_567_2">
<rect width="400" height="400" fill="white"/>
</clipPath>
<clipPath id="clip1_567_2">
<rect width="248" height="248" fill="white" transform="translate(48 97.1871) rotate(-15)"/>
</clipPath>
</defs>
</svg>
