<svg viewBox="0 0 222 71" fill="none" xmlns="http://www.w3.org/2000/svg">
<g clip-path="url(#clip0_409_2)">
<path d="M209.291 42.3211C208.593 42.9777 208.523 44.1511 209.11 44.9194L219.838 58.7626C220.746 59.922 220.033 61.7659 218.664 61.7659H17.665C16.2681 61.7659 15.5697 59.8103 16.5615 58.6788L26.7728 47.0147C27.4433 46.2604 27.3874 45.0171 26.661 44.3466L15.3322 33.6604C14.5639 32.934 14.5639 31.593 15.3322 30.8666L26.7448 20.1105C27.4293 19.454 27.5131 18.2806 26.9264 17.4983L16.1843 3.65506C15.2903 2.49564 16.0027 0.651733 17.3577 0.651733H218.371C219.768 0.651733 220.466 2.60739 219.475 3.73887L209.263 15.403C208.593 16.1573 208.649 17.4005 209.375 18.085L220.704 28.7573C221.472 29.4837 221.472 30.8247 220.704 31.5511L209.291 42.3072V42.3211Z" fill="#F39745"/>
<path d="M207.349 70.9435H6.33612C4.64588 70.9435 3.13723 69.9517 2.41085 68.3453C1.62858 66.6271 1.90796 64.6156 3.13723 63.2327L12.8177 52.1832L2.10353 42.0837C1.18158 41.2036 0.650757 39.9604 0.650757 38.6473C0.650757 37.3342 1.18158 36.091 2.08956 35.2249L12.9295 25.0136L2.64832 11.7431C1.54477 10.3182 1.3492 8.34863 2.1594 6.71426C2.91373 5.17767 4.39444 4.22778 6.04277 4.22778H207.056C208.746 4.22778 210.255 5.21958 210.981 6.82601C211.764 8.54419 211.484 10.5557 210.255 11.9386L200.575 23.0021L211.289 33.1016C212.211 33.9817 212.741 35.2249 212.741 36.538C212.741 37.8511 212.211 39.0943 211.289 39.9604L200.449 50.1717L210.716 63.4143C211.82 64.8391 212.015 66.8087 211.219 68.4431C210.465 69.9657 208.984 70.9156 207.335 70.9156L207.349 70.9435ZM8.68291 65.3559H205.142L195.574 53.0074C194.093 51.0936 194.288 48.3138 196.049 46.6655L206.791 36.538L196.132 26.4943C194.302 24.7482 194.191 21.8007 195.853 19.9289L204.709 9.81537H8.22193L17.8046 22.1639C19.2714 24.0916 19.0758 26.8715 17.3437 28.5058L6.60153 38.6333L17.2598 48.677C19.0898 50.4092 19.2155 53.3426 17.5392 55.2424L8.68291 65.3559Z" fill="black"/>
<path d="M188.436 66.711C189.357 66.711 190.293 66.711 191.215 66.711C191.229 66.6551 191.257 66.6132 191.271 66.5573C191.383 66.1243 191.439 65.6912 191.592 65.2722C191.858 64.5458 192.319 64.001 193.115 63.8194C193.408 63.7495 193.758 63.7356 193.953 63.554C194.247 63.2746 194.638 62.8695 194.624 62.5342C194.61 62.171 194.247 61.7101 193.911 61.4866C193.115 60.9557 192.123 61.1234 191.509 61.7799C190.908 62.4225 190.405 63.1908 189.721 63.7076C188.547 64.5737 187.458 65.4677 186.675 66.711C187.262 66.711 187.849 66.711 188.436 66.711Z" fill="black"/>
<path d="M182.303 66.7389C182.303 66.7389 182.247 66.669 182.219 66.6411C181.577 65.6493 180.655 65.3699 179.593 65.3001C178.28 65.1883 177.638 65.5934 177.358 66.7528C179.006 66.7528 180.655 66.7528 182.303 66.7389Z" fill="black"/>
<path d="M137.756 64.2245C138.916 64.6854 139.74 65.3839 140.117 66.6132C140.159 66.7249 140.215 66.8367 140.271 66.9484C141.751 66.9484 143.232 66.9344 144.699 66.9205C144.573 65.6353 144.084 64.9509 143.064 64.5877C142.659 64.448 142.226 64.3642 141.793 64.2524C141.011 64.0568 140.564 63.512 140.299 62.7857C140.103 62.2409 140.033 61.6402 139.782 61.1234C139.6 60.7602 139.265 60.4249 138.916 60.2154C138.287 59.8382 137.575 59.6147 136.834 59.9081C136.275 60.1316 135.982 61.291 136.15 62.2967C136.317 63.2466 136.89 63.8892 137.756 64.2245Z" fill="black"/>
<path d="M145.006 49.3196C144.783 49.7107 144.587 50.0739 144.363 50.4232C144.294 50.5349 144.126 50.6187 143.986 50.6467C142.226 51.0657 140.62 51.6804 139.782 53.4684C139.726 53.5941 139.558 53.65 139.446 53.7478C138.902 54.1948 137.407 54.2786 137.072 53.5662C136.709 52.7699 136.722 51.6245 137.295 51.1216C137.505 50.926 137.742 50.6606 137.994 50.6327C139.796 50.4371 140.396 49.2218 140.704 47.6573C140.773 47.2522 141.081 46.875 141.346 46.5398C141.723 46.0509 142.296 45.8134 142.883 45.8553C143.469 45.8972 144.042 46.1487 144.252 46.7773C144.531 47.6014 144.741 48.4535 145.006 49.3336V49.3196Z" fill="black"/>
<path d="M151.837 50.2695C151.418 50.1019 150.957 50.032 150.649 49.7806C149.616 48.9005 149.322 47.4757 149.937 46.1906C150.105 45.8553 150.566 45.534 150.943 45.4642C151.502 45.3524 152.102 45.5061 152.689 45.4642C153.164 45.4362 153.82 44.7937 153.89 44.3327C153.974 43.76 154.002 43.1733 154.072 42.5866C154.17 41.7065 154.756 41.3573 155.594 41.6227C156.181 41.8043 156.628 42.1396 156.991 42.6145C157.438 43.1872 157.452 44.1651 156.935 44.626C156.502 45.0032 156.041 45.3804 155.525 45.6318C154.673 46.0369 154.156 46.6236 153.89 47.5595C153.709 48.244 153.318 48.9145 152.912 49.5012C152.689 49.8225 152.228 49.9901 151.823 50.2555L151.837 50.2695Z" fill="black"/>
<path d="M134.683 48.0903C134.683 49.0123 134.501 49.8923 133.538 50.2555C132.057 50.8003 131.121 51.7642 130.562 53.2589C130.255 54.097 129.389 54.53 128.551 54.8373C128.104 55.005 127.112 54.7396 126.986 54.3205C126.874 53.9433 126.846 53.4405 127.014 53.0912C127.251 52.5744 127.629 52.0855 128.048 51.6943C128.579 51.1915 129.207 50.8003 129.794 50.3812C130.422 49.9203 130.744 49.3056 130.8 48.5234C130.814 48.23 130.828 47.9367 130.897 47.6433C131.121 46.6236 131.777 46.0928 132.727 46.1487C133.845 46.2045 134.641 47.0008 134.697 48.1043L134.683 48.0903Z" fill="black"/>
<path d="M200.756 66.7109C201.008 65.5655 201.72 64.8531 202.838 64.4759C203.257 64.3362 203.69 64.2245 204.067 64.0149C204.877 63.5679 205.198 61.7799 204.681 60.8579C204.43 60.4109 203.997 60.3132 203.564 60.369C202.335 60.5506 201.357 61.0954 200.854 62.2967C200.686 62.7018 200.491 63.093 200.365 63.512C200.086 64.4619 199.373 64.9229 198.507 65.1743C197.948 65.342 197.376 65.4398 196.817 65.5934C196.51 65.6772 196.328 66.3198 196.51 66.669C197.92 66.669 199.345 66.669 200.756 66.683V66.7109Z" fill="black"/>
<path d="M161.615 58.9163C160.665 58.7626 159.981 57.6311 160.302 56.8768C160.47 56.4857 160.623 56.0247 160.931 55.7593C162.174 54.6837 163.082 53.4265 163.627 51.8619C163.92 51.0378 165.052 50.6327 165.834 50.8841C167.007 51.2752 167.622 52.5045 167.161 53.6919C167.021 54.069 166.686 54.5719 166.365 54.6418C164.591 55.0469 163.627 56.1364 163.25 57.8686C163.194 58.12 162.942 58.3854 162.705 58.5112C162.342 58.7067 161.909 58.8045 161.629 58.9023L161.615 58.9163Z" fill="black"/>
<path d="M187.164 53.8315C187.625 54.7256 188.575 54.7954 189.371 55.1307C190.279 55.5078 190.671 56.3041 190.698 57.24C190.74 58.3156 190.573 59.4052 189.455 59.8382C187.988 60.397 186.955 61.263 186.424 62.7717C186.242 63.2606 185.39 63.4981 184.873 63.2885C184.329 63.079 183.728 62.8695 183.602 62.199C183.546 61.9475 183.602 61.4726 183.742 61.4027C184.51 60.9976 185.334 60.6763 186.145 60.3271C186.731 60.0757 187.08 59.6147 187.08 58.9861C187.08 58.106 186.941 57.226 186.969 56.346C186.997 55.4659 187.178 54.5998 187.29 53.7338L187.178 53.8315H187.164Z" fill="black"/>
<path d="M191.285 49.6129C191.565 49.7107 191.858 49.7526 192.109 49.9063C193.492 50.7025 194.68 50.3952 195.657 49.2358C196.216 48.5653 196.621 47.7551 197.473 47.3639C197.948 47.1544 198.326 47.2662 198.675 47.5874C199.066 47.9367 199.15 48.4535 198.926 48.7748C198.759 49.0123 198.661 49.3336 198.451 49.5012C197.306 50.4371 196.258 51.4149 195.602 52.7979C195.322 53.3985 194.568 53.8316 193.967 54.2227C192.724 55.0189 191.495 54.4462 191.411 53.0493C191.341 51.8759 191.369 50.6886 191.355 49.5152L191.271 49.6129H191.285Z" fill="black"/>
<path d="M19.2016 22.2338C18.9781 22.9741 18.8104 23.8542 18.4472 24.6225C18.2098 25.1114 17.7069 25.5025 17.232 25.8098C16.6313 26.2149 15.6674 25.8378 15.416 25.1812C15.0668 24.3012 15.2204 23.2395 15.7652 22.7227C15.9747 22.5271 16.1982 22.3316 16.4497 22.1779C17.7209 21.3956 18.7685 20.4597 19.1317 18.9092C19.1876 18.6437 19.8302 18.4063 20.2073 18.3783C21.0315 18.2945 21.73 18.8253 21.7719 19.5517C21.7998 19.9568 21.6601 20.3899 21.4785 20.767C21.3668 20.9905 21.0594 21.1442 20.808 21.2979C20.5566 21.4515 20.2912 21.5633 20.0397 21.703C19.7883 21.8426 19.5508 22.0103 19.2016 22.2338Z" fill="black"/>
<path d="M186.675 43.8437C186.508 44.0952 186.312 44.5003 186.019 44.7797C185.67 45.1149 184.79 44.9892 184.399 44.6539C184.175 44.4584 183.882 44.3187 183.756 44.0812C182.638 42.1954 181.228 40.589 179.453 39.2899C179.286 39.1641 179.23 38.7032 179.328 38.4936C179.412 38.2841 179.747 38.1304 179.998 38.0466C180.599 37.8231 181.13 38.0327 181.605 38.4098C181.716 38.4936 181.786 38.6473 181.842 38.773C182.317 40.114 183.295 40.8823 184.594 41.3433C185.125 41.5389 185.642 41.8322 186.103 42.1675C186.62 42.5307 186.717 43.1174 186.675 43.8577V43.8437Z" fill="black"/>
<path d="M77.5779 59.3214C76.5582 59.3214 75.6781 58.1061 76.0692 57.1143C76.181 56.8349 76.2648 56.5136 76.4604 56.332C78.0389 55.0469 79.5056 53.622 81.1679 52.4487C81.2657 52.3788 81.5311 52.3928 81.559 52.4487C81.6708 52.6861 81.7686 52.9515 81.7965 53.203C81.8105 53.3287 81.7406 53.5103 81.6429 53.5941C80.4276 54.5719 79.785 55.8571 79.5335 57.3797C79.4637 57.8127 79.2681 58.2178 79.1145 58.6229C78.9888 58.9722 78.0947 59.3773 77.5779 59.3214Z" fill="black"/>
<path d="M33.2264 67.4373C33.2264 68.1777 32.514 68.918 31.606 68.7923C30.9076 68.6945 30.2091 68.4989 29.5386 68.2754C28.8402 68.038 28.477 67.144 28.8541 66.5154C29.1475 66.0404 29.4688 65.5236 29.9158 65.2023C30.6422 64.6575 31.5362 64.5457 32.3603 64.9508C33.1007 65.3001 33.1705 66.0683 33.2264 66.7947C33.2264 66.9344 33.2264 67.0881 33.2264 67.4513V67.4373Z" fill="black"/>
<path d="M144.755 28.9389C144.741 29.0786 144.727 29.5116 144.629 29.9307C144.266 31.5371 142.589 32.054 141.262 30.9923C140.759 30.5872 140.592 30.0424 140.62 29.4697C140.69 28.0588 141.751 27.1089 143.19 27.1089C144.252 27.1089 144.852 27.6817 144.769 28.9389H144.755Z" fill="black"/>
<path d="M132.797 55.0887C133.817 55.2843 134.739 55.871 135.228 57.0444C135.423 57.5193 135.186 58.3435 134.725 58.553C134.208 58.7905 133.677 59.042 133.118 59.1956C132.224 59.4471 131.414 58.9162 131.121 58.0083C130.897 57.2819 130.911 56.5834 131.191 55.8989C131.372 55.4519 132.127 55.0189 132.797 55.0887Z" fill="black"/>
<path d="M130.87 61.5564C130.814 61.8358 130.772 62.2828 130.646 62.7018C130.171 64.2664 128.453 64.7134 127.056 63.6657C126.483 63.2327 126.358 62.2409 126.763 61.6961C127.503 60.6763 128.481 60.1036 129.724 59.95C130.311 59.8801 130.925 60.369 130.897 60.9557C130.897 61.0954 130.883 61.2491 130.87 61.5564Z" fill="black"/>
<path d="M68.1208 59.503C66.0814 59.6427 65.6344 57.7429 66.1791 56.5415C66.5703 55.6894 67.2967 55.2285 68.2046 55.0608C68.7355 54.9631 69.4339 55.3402 69.6435 55.8012C69.9508 56.4857 70.0765 57.1841 69.9368 57.9245C69.7552 58.8744 69.0987 59.4471 68.1208 59.489V59.503Z" fill="black"/>
<path d="M34.2322 63.7356C33.9668 63.512 33.5058 63.3165 33.3242 62.9673C32.5419 61.5145 33.436 59.8801 35.0424 59.6846C36.132 59.5588 37.0539 60.5786 36.8164 61.6402C36.6069 62.5622 36.0621 63.2327 35.21 63.6098C34.9586 63.7216 34.6373 63.6797 34.2462 63.7216L34.2322 63.7356Z" fill="black"/>
<path d="M181.675 56.6952C181.716 57.4076 181.549 58.1061 181.06 58.6928C180.543 59.2934 179.9 59.5309 179.118 59.3493C178.476 59.1957 178.001 58.5251 177.973 57.701C177.917 56.1085 178.643 55.2285 180.166 55.0189C180.725 54.9351 181.409 55.3402 181.507 55.8152C181.563 56.0945 181.605 56.3879 181.661 56.7092L181.675 56.6952Z" fill="black"/>
<path d="M187.276 53.7338C185.991 54.097 184.678 54.097 183.351 53.9712C182.652 53.9014 182.15 53.175 182.261 52.3788C182.471 51.0657 183.966 50.1298 185.223 50.5768C185.474 50.6606 185.781 50.8422 185.893 51.0797C186.34 51.9876 186.731 52.9236 187.15 53.8455L187.276 53.7477V53.7338Z" fill="black"/>
<path d="M115.951 57.5333C115.951 57.687 115.587 58.6369 114.624 59.1817C114.302 59.3633 113.743 59.3912 113.422 59.2236C112.542 58.7905 112.375 57.9105 112.388 57.0165C112.388 56.1923 113.059 55.424 113.939 55.1307C115.029 54.7675 116.034 55.5078 115.937 57.5473L115.951 57.5333Z" fill="black"/>
<path d="M51.3582 57.6032C51.2744 58.3575 50.4642 59.028 49.7797 58.9721C49.0114 58.9162 48.3828 58.6089 47.9637 57.9105C47.5307 57.1562 47.7263 56.3041 48.5504 55.5777C49.0952 55.1027 49.9613 55.1586 50.548 55.7313C51.0928 56.2761 51.4001 56.9187 51.3582 57.6171V57.6032Z" fill="black"/>
<path d="M189.05 12.218C187.332 12.1622 186.452 10.5418 187.304 9.11693C187.486 8.80961 187.974 8.53023 188.338 8.50229C189.637 8.40451 190.866 9.54997 190.838 10.877C190.838 11.2402 190.475 11.6872 190.154 11.9107C189.832 12.1342 189.343 12.1342 189.05 12.2041V12.218Z" fill="black"/>
<path d="M139.712 43.4806C139.6 44.5562 139.027 45.2407 138.091 45.5061C137.351 45.7156 136.639 45.6877 136.066 45.087C135.591 44.5841 135.87 43.3129 136.653 42.7821C137.407 42.2653 138.273 42.0278 139.111 42.5726C139.432 42.7821 139.572 43.2431 139.726 43.4806H139.712Z" fill="black"/>
<path d="M200.281 56.4158C200.281 57.9384 199.066 58.8464 197.599 58.4273C197.068 58.2737 196.677 57.5752 196.803 57.0444C197.04 56.1085 197.641 55.5218 198.493 55.1586C199.359 54.7814 200.295 55.438 200.281 56.4158Z" fill="black"/>
<path d="M179.831 17.8755C180.613 17.7917 181.535 18.5181 181.703 19.3422C181.926 20.4178 181.186 21.3957 180.096 21.4515C179.188 21.4934 178.364 20.8648 178.196 20.0127C178.001 18.9651 178.755 17.9733 179.831 17.8615V17.8755Z" fill="black"/>
<path d="M123.745 9.08901C125.31 9.07504 126.162 10.0948 125.924 11.4218C125.883 11.6872 125.715 11.9946 125.505 12.1342C124.486 12.8467 122.586 12.232 122.251 11.0307C122.153 10.6675 122.279 10.0808 122.53 9.82936C122.907 9.43823 123.494 9.24267 123.773 9.08901H123.745Z" fill="black"/>
<path d="M172.483 48.8865C172.371 49.8364 171.198 50.3952 170.458 49.9342C169.284 49.1799 168.949 48.0903 169.536 46.9309C169.815 46.3861 170.513 45.9251 170.932 46.1207C171.296 46.2883 171.673 46.5677 171.896 46.9029C172.315 47.5036 172.609 48.1881 172.469 48.8865H172.483Z" fill="black"/>
<path d="M144.238 39.1083C143.958 39.5274 143.707 40.0442 143.344 40.4493C142.981 40.8404 142.17 40.8265 141.723 40.5052C141.137 40.1001 140.759 39.248 140.955 38.6054C141.165 37.893 141.57 37.3063 142.352 37.0828C142.883 36.9431 143.595 37.2085 143.833 37.7254C144 38.1025 144.07 38.5356 144.238 39.0943V39.1083Z" fill="black"/>
<path d="M181.912 48.6351C181.786 48.8865 181.702 49.1799 181.521 49.3615C180.725 50.1158 179.328 49.8504 178.559 48.8307C178.043 48.1462 178.154 47.1265 178.909 46.5537C179.216 46.3163 179.705 46.1347 180.082 46.1905C181.269 46.3302 182.052 47.4338 181.926 48.6351H181.912Z" fill="black"/>
<path d="M15.6395 35.8814C15.0389 35.8116 14.3963 34.9734 14.4242 34.289C14.4522 33.6743 14.7036 33.1854 15.1087 32.7524C15.7373 32.0679 16.5196 31.8444 17.0085 32.2216C17.7628 32.8083 18.0422 33.7861 17.679 34.5264C17.2739 35.3506 16.338 35.9652 15.6395 35.8814Z" fill="black"/>
<path d="M59.6697 66.1243C59.6697 66.9345 59.3624 67.5491 58.6919 67.9542C58.0912 68.3174 57.281 68.2196 56.7362 67.6608C56.4289 67.3535 56.2194 66.9903 56.373 66.5154C56.7083 65.5236 57.6582 64.881 58.636 64.9509C59.083 64.9788 59.6418 65.6353 59.6557 66.1243H59.6697Z" fill="black"/>
<path d="M39.1353 21.214C38.9537 21.0045 38.5765 20.7531 38.4369 20.4178C38.1575 19.6914 38.3391 18.993 38.8839 18.4482C39.5404 17.7916 40.3785 17.5681 41.2726 17.8056C41.6637 17.9034 41.985 18.2247 42.0129 18.7415C42.0688 20.3899 41.063 21.3398 39.1353 21.228V21.214Z" fill="black"/>
<path d="M15.416 63.959C15.1925 63.8194 14.8712 63.7216 14.7455 63.526C14.2706 62.7158 14.2985 61.8497 14.7734 61.0675C14.969 60.7322 15.3881 60.4808 15.7652 60.3411C16.2961 60.1455 16.9107 60.4808 17.2459 60.9697C17.7209 61.6681 17.5812 62.3386 17.204 62.9952C16.8129 63.6657 16.2262 64.0289 15.416 63.987V63.959Z" fill="black"/>
<path d="M121.049 34.0655C120.868 34.9455 119.862 35.5322 118.954 35.3785C118.06 35.2249 117.529 34.3728 117.697 33.4229C117.794 32.906 118.172 32.7105 118.577 32.5428C119.345 32.2216 120.043 32.5289 120.588 33.0038C120.868 33.2553 120.923 33.7721 121.049 34.0655Z" fill="black"/>
<path d="M91.7563 51.4429C92.3151 51.4708 92.9856 51.9038 93.0275 52.4067C93.0554 52.7839 92.8878 53.203 92.776 53.5941C92.7341 53.7198 92.6224 53.8316 92.5246 53.9293C91.7284 54.7675 90.8623 55.1027 90.2616 54.6697C89.9543 54.4462 89.6051 53.9852 89.6191 53.65C89.647 52.756 90.0521 51.9877 90.9182 51.5826C91.1696 51.4708 91.4769 51.4848 91.7563 51.4429Z" fill="black"/>
<path d="M39.722 59.503C38.7721 59.475 38.2413 58.7067 38.4648 57.687C38.6324 56.9327 39.247 56.318 39.9036 56.2622C40.5461 56.2063 41.2725 56.6952 41.6078 57.4076C41.9989 58.2457 41.524 59.2096 40.588 59.4052C40.3087 59.461 40.0153 59.475 39.722 59.503Z" fill="black"/>
<path d="M88.0406 58.1899C87.9568 59.028 87.0628 59.6008 86.071 59.475C85.2748 59.3633 84.7579 58.7487 84.7859 57.9804C84.8278 57.0445 85.638 56.3041 86.5041 56.4019C87.4539 56.5136 88.1245 57.2959 88.0267 58.1899H88.0406Z" fill="black"/>
<path d="M152.13 56.1224C153.094 55.9688 154.1 57.1282 153.792 58.12C153.667 58.5111 153.387 58.9162 153.066 59.1677C152.368 59.6985 151.11 59.5867 150.677 59.042C150.105 58.3156 150.426 57.0304 151.348 56.4437C151.585 56.2901 151.879 56.2342 152.144 56.1364L152.13 56.1224Z" fill="black"/>
<path d="M106.103 29.7351C106.033 30.7548 105.097 31.593 104.105 31.5231C103.309 31.4672 102.68 30.5453 102.806 29.6233C102.932 28.7154 103.616 28.1287 104.566 28.1147C105.53 28.1147 106.172 28.7852 106.103 29.7351Z" fill="black"/>
<path d="M33.5059 34.0934C33.6036 33.0178 34.5954 32.04 35.4615 32.1797C36.3276 32.3194 37.0959 33.2134 36.9981 33.9956C36.8863 35.0014 35.8526 35.7418 34.805 35.5741C34.0646 35.4484 33.45 34.75 33.5059 34.0934Z" fill="black"/>
<path d="M152.857 19.6355C152.968 20.5016 152.312 21.2839 151.376 21.4236C150.691 21.5213 149.895 20.9766 149.742 20.334C149.546 19.4539 150.091 18.532 150.929 18.3504C151.781 18.1688 152.745 18.8114 152.843 19.6355H152.857Z" fill="black"/>
<path d="M38.4647 37.1945C39.4007 37.2085 40.0293 37.4879 40.3645 38.2422C40.6858 38.9546 40.6579 39.6251 40.169 40.2677C39.7639 40.8125 39.1772 40.7985 38.6044 40.7706C38.0317 40.7426 37.5428 40.2258 37.5288 39.6251C37.5149 39.0524 37.5009 38.4517 37.6825 37.9209C37.7942 37.5857 38.2552 37.3761 38.4647 37.1945Z" fill="black"/>
<path d="M161.88 39.0943C161.922 39.7229 161.503 40.2956 160.945 40.3934C159.897 40.575 158.682 39.5972 158.835 38.7172C158.919 38.2422 159.576 37.6276 160.051 37.5577C160.875 37.4599 161.811 38.2422 161.867 39.0943H161.88Z" fill="black"/>
<path d="M43.2561 62.3526C43.2002 61.71 43.8428 60.9557 44.5273 60.8579C45.5191 60.7322 46.3572 61.5424 46.427 62.7018C46.4689 63.4701 45.9102 64.1826 45.2397 64.1965C44.192 64.2245 43.3539 63.4282 43.2701 62.3526H43.2561Z" fill="black"/>
<path d="M110.265 63.0511C109.315 63.1069 108.603 62.4783 108.561 61.5564C108.533 60.9138 109.092 60.1595 109.818 60.0617C110.363 59.9919 110.936 60.0617 111.495 60.1176C111.788 60.1455 112.137 60.7881 112.095 61.1094C111.914 62.4085 111.355 62.9952 110.251 63.0511H110.265Z" fill="black"/>
<path d="M90.7366 17.4284C90.0382 17.3865 89.4096 16.5763 89.5493 15.8918C89.7029 15.0816 90.2338 14.5229 90.9462 14.4111C91.5608 14.3133 92.2872 14.9839 92.3989 15.7521C92.5107 16.5204 91.5608 17.4703 90.7506 17.4284H90.7366Z" fill="black"/>
<path d="M156.209 35.5183C155.553 35.5881 154.924 35.1411 154.952 34.5963C154.994 34.0096 155.05 33.4229 155.189 32.8502C155.343 32.2635 156 31.8724 156.53 31.9422C157.201 32.026 157.578 32.4451 157.774 33.0318C158.249 34.3868 157.578 35.4205 156.195 35.5322L156.209 35.5183Z" fill="black"/>
<path d="M162.3 48.4814C162.3 49.2497 161.727 49.9482 161 50.0041C159.981 50.0879 159.017 49.1659 159.017 48.1043C159.017 47.4338 159.785 46.8191 160.567 46.861C161.601 46.9169 162.286 47.5595 162.3 48.4814Z" fill="black"/>
<path d="M57.756 40.6309C57.2391 40.589 56.7083 39.9883 56.6803 39.4854C56.6384 38.7311 56.9458 38.1025 57.3369 37.5018C57.5883 37.1247 58.3846 36.9151 58.8735 37.0548C59.3764 37.1945 59.7954 37.8092 59.7675 38.354C59.7396 39.2759 59.3345 40.0023 58.5662 40.4772C58.3427 40.6169 58.0353 40.589 57.756 40.6449V40.6309Z" fill="black"/>
<path d="M106.815 57.2121C106.913 58.0083 106.228 58.9163 105.39 59.1537C104.58 59.3772 103.616 58.6369 103.588 57.7568C103.56 56.9746 104.342 56.1644 105.236 56.0387C105.907 55.9409 106.745 56.5695 106.815 57.2121Z" fill="black"/>
<path d="M106.591 47.8109C106.591 48.5513 105.991 49.2358 105.278 49.3475C104.496 49.4593 103.602 48.4954 103.672 47.6154C103.728 46.8191 104.301 46.1346 104.971 46.0648C105.725 45.981 106.605 46.9309 106.591 47.8109Z" fill="black"/>
<path d="M191.383 49.5151C190.112 49.9063 189.106 49.4034 188.226 48.5233C187.849 48.1462 188.03 47.2103 188.561 47.0566C189.12 46.9029 189.693 46.6934 190.252 46.7213C190.601 46.7353 191.146 47.1264 191.215 47.4198C191.369 48.1182 191.285 48.8586 191.299 49.585L191.383 49.4872V49.5151Z" fill="black"/>
<path d="M191.034 29.805C190.866 30.5733 189.777 31.146 188.966 30.8945C188.296 30.699 187.863 29.9726 187.947 29.1903C188.03 28.4779 188.813 27.8912 189.483 28.0309C190.433 28.2404 191.187 29.0926 191.034 29.805Z" fill="black"/>
<path d="M25.5994 26.4384C24.6775 26.3686 23.993 25.5304 24.1606 24.6644C24.2863 23.9939 24.9568 23.5049 25.767 23.5189C26.689 23.5189 27.3735 24.371 27.1779 25.265C27.0242 25.9635 26.3118 26.4943 25.5854 26.4384H25.5994Z" fill="black"/>
<path d="M45.4632 23.03C46.036 22.9462 46.5528 23.463 46.5528 24.1056C46.5528 24.7342 46.3572 25.279 45.7566 25.5304C45.0302 25.8378 44.3317 25.7958 43.6892 25.279C43.3958 25.0415 43.3539 24.399 43.6193 24.0916C44.234 23.3653 44.5972 23.1557 45.4632 23.03Z" fill="black"/>
<path d="M111.299 33.9957C111.383 34.4706 110.866 35.183 110.377 35.2249C110.237 35.2249 110.098 35.2668 109.958 35.2529C108.966 35.1691 108.379 34.5824 108.338 33.6604C108.324 33.1994 108.91 32.6127 109.441 32.5708C110.293 32.5149 111.159 33.1855 111.285 33.9817L111.299 33.9957Z" fill="black"/>
<path d="M35.5173 42.2094C35.7408 42.4189 36.1459 42.6564 36.3415 43.0056C36.6488 43.5644 36.2856 44.3606 35.5872 44.8914C35.1122 45.2546 34.4696 45.2826 33.9668 44.8775C33.7572 44.7098 33.5617 44.4165 33.5337 44.1511C33.422 43.0475 34.33 42.1256 35.5313 42.2094H35.5173Z" fill="black"/>
<path d="M172.148 20.4178C172.036 20.7112 171.938 21.1163 171.743 21.4934C171.477 21.9823 170.695 22.122 170.234 21.8147C169.452 21.2839 169.13 20.4178 169.452 19.5797C169.661 19.0349 170.024 18.6018 170.653 18.5041C171.17 18.4342 171.701 18.8253 171.91 19.4679C171.994 19.7333 172.036 20.0267 172.134 20.4318L172.148 20.4178Z" fill="black"/>
<path d="M49.8774 19.8171C49.9473 20.7111 49.3326 21.5353 48.4107 21.7867C48.1872 21.8426 47.7541 21.7588 47.6424 21.5772C47.349 21.1023 47.1255 20.5714 46.9858 20.0406C46.8322 19.4539 47.1535 18.8393 47.6424 18.6158C48.2291 18.3364 48.7878 18.4901 49.2348 18.8672C49.5282 19.1326 49.6958 19.5517 49.8635 19.8032L49.8774 19.8171Z" fill="black"/>
<path d="M94.8435 56.8209C94.9553 56.2342 95.3324 55.6615 96.0449 55.3402C96.3801 55.1865 96.9668 55.3821 97.1344 55.6894C97.5395 56.3739 97.4837 57.0444 97.1484 57.7289C96.897 58.2457 96.2265 58.5111 95.7096 58.3016C95.1369 58.0641 94.7737 57.5054 94.8435 56.8349V56.8209Z" fill="black"/>
<path d="M158.528 62.632C158.612 63.2187 157.955 63.7635 157.396 63.6238C156.502 63.3863 155.748 62.9393 155.287 62.1291C155.189 61.9615 155.287 61.4726 155.441 61.4028C156.419 60.8859 157.676 61.0675 158.276 61.8218C158.444 62.0314 158.444 62.3666 158.528 62.646V62.632Z" fill="black"/>
<path d="M120.197 61.738C120.183 62.4364 119.513 63.0511 118.786 63.065C118.088 63.065 117.417 62.4225 117.417 61.71C117.417 61.4307 117.473 61.1373 117.543 60.8719C117.669 60.4249 118.423 59.8382 118.8 59.8522C119.177 59.8661 119.932 60.4808 120.057 60.8998C120.127 61.1792 120.155 61.4586 120.197 61.738Z" fill="black"/>
<path d="M30.4047 59.3493C29.7342 59.2655 29.2313 58.4692 29.357 57.7009C29.4967 56.8209 30.3069 56.3599 31.3406 56.5695C31.8854 56.6812 32.3463 57.3238 32.2486 57.8546C32.0809 58.7766 31.2428 59.4471 30.4047 59.3353V59.3493Z" fill="black"/>
<path d="M111.522 24.7622C111.481 25.4047 110.684 26.1311 110.028 26.1032C109.19 26.0752 108.449 25.1812 108.519 24.2872C108.589 23.5888 109.329 22.8903 109.986 22.9462C110.838 23.016 111.564 23.8681 111.522 24.7622Z" fill="black"/>
<path d="M35.0843 53.9573C34.8468 53.8176 34.5256 53.7198 34.3719 53.5103C33.7014 52.5743 34.1484 51.4429 35.2519 51.1495C36.0202 50.9539 36.7047 51.5267 36.6768 52.295C36.6488 52.9236 36.3555 53.4125 35.8805 53.7617C35.671 53.9154 35.3497 53.8874 35.0843 53.9573Z" fill="black"/>
<path d="M176.995 61.8078C176.925 62.5482 176.171 63.1209 175.444 63.0092C174.704 62.8834 174.089 62.199 174.103 61.5285C174.117 60.8719 174.886 60.3271 175.71 60.369C176.534 60.4109 177.079 61.0256 176.995 61.8078Z" fill="black"/>
<path d="M65.2712 61.9196C65.2852 62.7857 64.7963 63.4702 64.1258 63.5121C63.1619 63.5679 62.3657 62.7996 62.4914 61.9336C62.5892 61.2491 63.1898 60.6624 63.9581 60.5227C64.6147 60.397 65.2572 61.0815 65.2712 61.9196Z" fill="black"/>
<path d="M55.1717 61.9475C55.046 62.199 54.9901 62.5063 54.7946 62.6879C54.3336 63.1489 53.7608 63.2047 53.1881 62.9114C52.4897 62.5761 52.1125 61.7799 52.2801 61.1094C52.4198 60.5506 53.0345 60.1036 53.5793 60.1595C54.4593 60.2573 55.1298 60.9977 55.1717 61.9475Z" fill="black"/>
<path d="M85.2049 49.3475C84.6182 49.4034 84.1153 48.9564 84.0734 48.3418C84.0175 47.5036 84.4785 46.9588 85.2887 46.9169C86.0291 46.875 86.8951 47.5595 86.7974 48.1043C86.6996 48.677 85.9313 49.2637 85.2049 49.3475Z" fill="black"/>
<path d="M157.55 25.1254C157.494 25.2511 157.494 25.4327 157.397 25.5165C156.656 26.173 155.567 26.201 154.631 25.6143C154.184 25.3349 154.212 24.4688 154.659 24.1475C155.553 23.5189 156.684 23.5748 157.355 24.3431C157.508 24.5247 157.494 24.8599 157.55 25.1254Z" fill="black"/>
<path d="M144.182 56.5695C144.294 57.2959 143.861 57.9943 143.134 58.2458C142.478 58.4693 141.626 57.7708 141.709 57.0724C141.793 56.2622 142.911 55.5777 143.679 55.9269C143.902 56.0247 144.014 56.36 144.182 56.5835V56.5695Z" fill="black"/>
<path d="M137.728 26.5223C137.016 26.6201 136.373 26.1311 136.233 25.3768C136.066 24.4968 136.401 23.8123 137.058 23.7005C137.952 23.5469 138.762 24.1196 138.902 25.0136C139.013 25.6981 138.441 26.4245 137.742 26.5223H137.728Z" fill="black"/>
<path d="M146.585 26.201C146.333 26.1172 145.984 26.1172 145.872 25.9356C145.383 25.2231 145.09 24.4269 145.509 23.5748C145.607 23.3792 145.956 23.1697 146.166 23.1976C146.906 23.2675 147.479 23.8402 147.576 24.5107C147.688 25.1533 147.185 25.9914 146.571 26.201H146.585Z" fill="black"/>
<path d="M95.2346 39.695C94.5361 39.6391 93.9355 38.9825 93.9075 38.2422C93.8796 37.5577 94.7317 36.9012 95.4302 37.0828C96.2124 37.2783 96.6315 37.9209 96.4639 38.7171C96.3521 39.3178 95.7933 39.7508 95.2346 39.7089V39.695Z" fill="black"/>
<path d="M124.164 38.0327C124.891 38.1025 125.547 38.8289 125.422 39.4156C125.268 40.114 124.667 40.5471 123.857 40.5191C123.215 40.4912 122.74 39.7229 122.921 38.9546C123.047 38.4238 123.62 38.0047 124.15 38.0466L124.164 38.0327Z" fill="black"/>
<path d="M194.4 15.3051C194.135 15.6404 193.925 16.0176 193.632 16.269C193.353 16.5065 192.696 16.269 192.528 15.9058C192.347 15.5286 192.151 15.0956 192.193 14.7045C192.235 14.3413 192.515 13.9501 192.78 13.6708C193.003 13.4333 193.66 13.6847 193.883 14.0898C194.093 14.453 194.219 14.8581 194.414 15.3051H194.4Z" fill="black"/>
<path d="M115.881 11.5475C115.769 11.785 115.657 12.218 115.392 12.5393C115.252 12.7209 114.861 12.8047 114.61 12.7768C113.73 12.665 113.199 11.4218 113.757 10.7094C113.995 10.416 114.456 10.1925 114.847 10.1366C115.364 10.0528 115.825 10.6814 115.881 11.5475Z" fill="black"/>
<path d="M44.5692 43.9555C43.8987 43.9136 43.34 43.3129 43.2562 42.5446C43.1863 41.916 44.0245 41.3153 44.7508 41.469C45.3655 41.5947 45.8125 42.0697 45.8404 42.5865C45.8823 43.3129 45.2398 43.9834 44.5553 43.9415L44.5692 43.9555Z" fill="black"/>
<path d="M138.552 16.744C137.798 16.8278 137.142 16.311 137.072 15.5986C137.002 14.8582 137.561 14.1598 138.245 14.1458C138.944 14.1318 139.558 14.6207 139.754 15.3611C139.921 16.0176 139.363 16.6602 138.552 16.744Z" fill="black"/>
<path d="M83.6403 43.5365C83.7102 44.2349 83.0676 44.9892 82.439 44.9753C81.8244 44.9753 81.1958 44.2768 81.1399 43.5504C81.098 42.9917 81.5729 42.4469 82.1317 42.4329C82.9838 42.405 83.5845 42.838 83.6403 43.5365Z" fill="black"/>
<path d="M175.835 43.6342C175.808 44.0813 175.235 44.7378 174.76 44.8495C174.061 45.0172 173.223 44.5702 173.042 43.9276C173.014 43.8019 173 43.6482 173.042 43.5365C173.237 42.9358 173.698 42.6285 174.285 42.5167C174.872 42.405 175.375 42.6564 175.696 43.2291C175.766 43.3549 175.78 43.4946 175.822 43.6342H175.835Z" fill="black"/>
<path d="M166.993 43.7041C167.021 44.1371 166.434 44.9753 165.987 44.9613C165.596 44.9473 165.121 44.7937 164.87 44.5282C164.59 44.2349 164.535 43.746 164.381 43.3409C164.255 43.0056 164.381 42.7961 164.674 42.6005C165.708 41.944 166.826 42.8101 166.993 43.7041Z" fill="black"/>
<path d="M93.0974 42.9358C93.1952 43.4666 92.7482 44.0812 92.1615 44.2209C91.5468 44.3606 90.9322 44.0952 90.6808 43.5923C90.3874 42.9777 90.9462 42.1814 91.7843 42.0138C92.3291 41.9021 92.9856 42.377 93.0834 42.9358H93.0974Z" fill="black"/>
<path d="M82.8581 14.9839C82.6625 15.3192 82.5927 15.6684 82.3971 15.7802C82.0339 15.9618 81.6149 16.1015 81.2098 16.0875C80.5812 16.0875 80.0503 15.5986 79.9665 15.1097C79.8548 14.4531 80.5113 13.8804 81.3634 13.9083C81.6428 13.9083 81.992 13.9363 82.1736 14.0899C82.467 14.3274 82.6486 14.7046 82.8581 14.9839Z" fill="black"/>
<path d="M134.571 9.77348C134.613 10.5837 134.138 11.2123 133.44 11.2682C132.755 11.324 131.973 10.6256 132.029 10.0109C132.085 9.38234 132.797 8.75374 133.482 8.71183C134.026 8.6839 134.543 9.17281 134.571 9.75951V9.77348Z" fill="black"/>
<path d="M180.459 11.4497C180.026 11.2262 179.607 11.0865 179.328 10.8071C179.188 10.6674 179.23 10.2484 179.314 9.98295C179.398 9.71754 179.565 9.38228 179.789 9.27053C180.152 9.08893 180.613 8.93528 180.976 9.00512C181.423 9.08893 181.689 10.0388 181.395 10.4998C181.172 10.849 180.823 11.1005 180.473 11.4497H180.459Z" fill="black"/>
<path d="M82.8442 34.6103C82.7883 35.197 82.2575 35.7557 81.7826 35.7278C81.1121 35.6859 80.4835 34.8757 80.6231 34.2331C80.7349 33.7163 81.3495 33.3112 81.9223 33.381C82.4671 33.4509 82.9001 34.0236 82.8442 34.6103Z" fill="black"/>
<path d="M63.6089 15.4588C63.3156 15.6264 62.9803 15.9338 62.6031 15.9896C61.9885 16.0734 61.5136 15.6823 61.1504 15.1934C60.871 14.8162 60.9269 14.3134 61.304 14.034C62.198 13.3495 63.4552 13.8105 63.6648 14.914C63.6927 15.0537 63.6368 15.2074 63.6089 15.4728V15.4588Z" fill="black"/>
<path d="M120.113 15.0677C120.169 15.6684 119.764 16.2132 119.149 16.3249C118.283 16.4925 117.347 15.6684 117.431 14.8163C117.487 14.2435 118.074 13.7267 118.619 13.7546C119.443 13.8105 120.029 14.3413 120.099 15.0677H120.113Z" fill="black"/>
<path d="M148.023 52.1134C147.967 53.0493 147.702 53.7198 147.073 54.1529C146.864 54.2926 146.515 54.4043 146.305 54.3345C146.082 54.2646 145.788 53.9294 145.802 53.7478C145.872 53.0493 146.04 52.3369 146.221 51.6664C146.319 51.3311 147.032 51.0937 147.339 51.3172C147.646 51.5407 147.856 51.9178 148.023 52.1134Z" fill="black"/>
<path d="M40.8396 47.4757C40.8396 48.1043 40.1411 48.691 39.4008 48.691C38.8839 48.691 38.4369 48.1043 38.4788 47.5036C38.5207 46.917 38.9537 46.3442 39.4147 46.2604C40.0573 46.1487 40.8256 46.7912 40.8256 47.4617L40.8396 47.4757Z" fill="black"/>
<path d="M170.96 58.7486C170.444 58.553 169.787 58.3435 169.2 58.0222C169.033 57.9244 168.907 57.5054 168.963 57.2679C169.019 57.0444 169.284 56.8209 169.522 56.7231C170.248 56.4158 170.946 56.6114 171.491 57.1003C171.743 57.3238 171.798 57.8267 171.798 58.2038C171.798 58.3435 171.379 58.4832 170.974 58.7346L170.96 58.7486Z" fill="black"/>
<path d="M123.647 55.1307C123.787 55.1446 123.941 55.1446 124.067 55.2005C124.569 55.3681 124.807 55.9269 124.709 56.6254C124.625 57.1981 124.081 57.7289 123.564 57.7429C122.795 57.7708 122.209 57.0025 122.46 56.3041C122.67 55.7174 123.033 55.3123 123.634 55.1307H123.647Z" fill="black"/>
<path d="M123.55 49.6548C122.879 49.585 122.376 48.8027 122.516 48.0624C122.67 47.322 123.41 46.8052 124.094 46.9588C124.555 47.0706 125.03 47.783 124.975 48.2859C124.891 49.0262 124.178 49.7107 123.55 49.6409V49.6548Z" fill="black"/>
<path d="M73.5269 62.2828C73.4989 63.0371 72.7167 63.7496 72.0741 63.6099C71.5433 63.4981 70.9705 62.8974 70.9426 62.4085C70.9007 61.7101 71.7109 61.0116 72.4093 61.1094C73.01 61.1932 73.5408 61.766 73.5269 62.2828Z" fill="black"/>
<path d="M101.493 14.7883C101.535 15.3192 101.032 15.8919 100.473 15.9478C99.7187 16.0316 99.0062 15.4449 99.0481 14.7604C99.0761 14.2296 99.565 13.6568 100.082 13.5451C100.724 13.4194 101.437 14.034 101.493 14.7744V14.7883Z" fill="black"/>
<path d="M22.0513 11.3241C22.0513 11.8828 21.5065 12.5813 21.1154 12.5533C20.7242 12.5254 20.2214 11.8409 20.1655 11.2961C20.1375 10.919 20.5287 10.458 20.9198 10.3881C21.4925 10.2764 22.0653 10.7513 22.0513 11.3101V11.3241Z" fill="black"/>
<path d="M73.6526 33.1575C73.4012 33.7722 73.2336 34.317 72.577 34.5125C71.8506 34.7221 71.0963 34.0934 71.25 33.3391C71.3058 33.0597 71.4455 32.7943 71.5852 32.5429C71.8506 32.0679 72.7446 31.7746 73.0659 32.0959C73.3453 32.3892 73.485 32.8223 73.6666 33.1436L73.6526 33.1575Z" fill="black"/>
<path d="M190.531 39.3038C190.489 40.114 189.832 40.7287 189.176 40.575C188.729 40.4633 188.198 39.7928 188.184 39.3178C188.156 38.6473 188.869 38.0187 189.609 38.0746C190.098 38.1165 190.559 38.7171 190.531 39.3178V39.3038Z" fill="black"/>
<path d="M102.079 33.0178C102.247 34.0515 101.255 34.7919 100.375 34.4846C100.04 34.3728 99.8164 33.842 99.9142 33.395C100.026 32.8642 100.557 32.4032 101.171 32.487C101.521 32.5289 101.842 32.8781 102.065 33.0178H102.079Z" fill="black"/>
<path d="M161.084 28.5617C161.336 28.6875 161.657 28.7433 161.811 28.9529C162.286 29.5815 162.132 30.3917 161.531 30.8666C161.056 31.2438 160.316 31.0622 160.092 30.5314C159.715 29.6373 160.274 28.5338 161.084 28.5617Z" fill="black"/>
<path d="M64.1118 34.3449C64.1398 34.8477 63.5671 35.4205 63.0362 35.3925C62.5054 35.3646 61.9327 34.7919 61.9467 34.3169C61.9467 33.8559 62.6032 33.2134 63.0502 33.2273C63.4972 33.2273 64.0839 33.8699 64.1118 34.3588V34.3449Z" fill="black"/>
<path d="M44.4575 32.9061C44.695 33.0458 44.9883 33.1435 45.1699 33.3391C45.7147 33.9537 45.7706 34.9874 45.2258 35.2249C44.8906 35.3646 44.3458 35.3506 44.0385 35.169C43.4238 34.8058 43.3121 33.842 43.7451 33.2972C43.8988 33.1016 44.22 33.0458 44.4575 32.92V32.9061Z" fill="black"/>
<path d="M24.7752 32.6965C25.5714 32.7105 25.9486 33.0737 26.2 33.6324C26.3537 33.9537 26.3257 34.1772 26.0184 34.3588C25.5016 34.6801 24.9707 34.75 24.4539 34.4007C24.0767 34.1633 23.7973 33.7442 23.9789 33.3531C24.1326 33.0318 24.5656 32.8502 24.7752 32.6826V32.6965Z" fill="black"/>
<path d="M115.685 39.5692C115.685 39.5692 115.154 39.8766 114.749 39.8207C113.925 39.7089 113.422 39.1641 113.227 38.4517C113.143 38.1304 113.422 37.6555 113.66 37.3342C113.743 37.2225 114.232 37.3342 114.47 37.4599C115.14 37.8092 115.643 38.312 115.685 39.5692Z" fill="black"/>
<path d="M91.5049 61.738C91.4769 62.2269 90.8204 62.7298 90.2337 62.7158C89.7029 62.7019 89.0882 62.1431 89.0324 61.6262C88.9765 61.1094 89.5492 60.4249 90.0661 60.4529C90.8902 60.4808 91.5328 61.0535 91.5049 61.738Z" fill="black"/>
<path d="M26.1162 53.2309C25.5854 53.2868 25.0126 52.7559 25.0266 52.2251C25.0546 51.387 25.5435 50.7444 26.1721 50.7304C26.675 50.7165 27.2337 51.2333 27.3036 51.7781C27.3874 52.4766 26.8426 53.1471 26.1162 53.2309Z" fill="black"/>
<path d="M115.615 48.4535C115.518 48.7049 115.434 48.9843 115.294 49.2218C114.987 49.7526 114.246 49.7666 113.911 49.2637C113.757 49.0402 113.604 48.7748 113.562 48.5094C113.45 47.755 114.093 47.0706 114.763 47.1683C115.238 47.2382 115.643 47.8668 115.615 48.4675V48.4535Z" fill="black"/>
<path d="M50.0171 48.4675C49.9612 48.7748 49.9891 48.9704 49.8913 49.0542C49.6958 49.2358 49.4443 49.4733 49.2069 49.4733C48.9694 49.4733 48.6481 49.3056 48.4944 49.1101C48.1033 48.6351 48.0474 48.0624 48.1033 47.4478C48.1592 46.9449 48.4665 46.5398 48.8437 46.5538C49.3465 46.5677 49.6678 46.903 49.8075 47.322C49.9472 47.7271 49.9612 48.1742 50.0031 48.4535L50.0171 48.4675Z" fill="black"/>
<path d="M63.6089 51.4429C64.2794 51.373 64.908 51.7921 64.8661 52.281C64.8102 52.8957 64.4191 53.3566 63.8324 53.4824C63.2457 53.6081 62.5892 53.1471 62.6031 52.6163C62.6031 51.9597 62.9943 51.5127 63.6089 51.4429Z" fill="black"/>
<path d="M40.3366 29.9865C40.2248 30.3078 40.127 30.7129 39.9315 31.0621C39.7359 31.4114 39.0794 31.3275 38.8698 30.9643C38.5346 30.3497 38.5625 29.8748 39.0654 29.4836C39.2749 29.33 39.6242 29.1763 39.8337 29.2462C40.0293 29.316 40.141 29.6652 40.3506 29.9865H40.3366Z" fill="black"/>
<path d="M156.894 16.5205C156.321 16.4925 155.762 15.7941 156.014 15.2633C156.181 14.914 156.572 14.5648 156.936 14.4391C157.424 14.2715 158.137 14.9699 158.109 15.4728C158.081 15.9617 157.41 16.5344 156.88 16.5205H156.894Z" fill="black"/>
<path d="M110.531 15.0397C110.531 15.6544 109.944 16.2271 109.441 16.0874C108.757 15.9058 108.519 15.5566 108.547 14.8302C108.561 14.3972 108.91 14.0619 109.385 14.02C109.958 13.9641 110.531 14.467 110.531 15.0537V15.0397Z" fill="black"/>
<path d="M128.159 25.0555C127.685 25.0834 127.196 24.5247 127.14 23.9659C127.098 23.4211 127.587 22.8624 128.118 22.9043C128.69 22.9322 129.151 23.4071 129.137 23.9519C129.123 24.5247 128.648 25.0555 128.145 25.0555H128.159Z" fill="black"/>
<path d="M77.8572 20.2362C77.8293 21.0185 77.2985 21.4375 76.6838 21.3258C76.2508 21.242 75.9016 20.8229 75.9435 20.4178C76.0133 19.8171 76.5861 19.3003 77.1169 19.5098C77.4521 19.6355 77.6617 20.0546 77.8433 20.2502L77.8572 20.2362Z" fill="black"/>
<path d="M63.4412 23.1697C63.7625 23.3932 64.1257 23.5049 64.1537 23.6865C64.2235 24.0916 64.1816 24.5247 64.0698 24.9298C63.9581 25.3209 63.3574 25.4326 62.9803 25.1812C62.5472 24.9018 62.4634 24.4409 62.645 24.0497C62.8126 23.7005 63.1758 23.4491 63.4412 23.1697Z" fill="black"/>
<path d="M194.68 43.4806C194.624 44.193 194.051 44.7378 193.534 44.7099C193.185 44.6959 192.71 44.1651 192.724 43.7879C192.738 43.2431 193.353 42.6285 193.841 42.7821C194.191 42.8939 194.442 43.2711 194.666 43.4806H194.68Z" fill="black"/>
<path d="M184.664 24.7063C184.468 25.3069 183.826 25.6282 183.379 25.293C183.197 25.1533 183.044 24.818 183.058 24.5806C183.099 24.0078 183.77 23.7145 184.329 24.0358C184.51 24.1336 184.552 24.4828 184.664 24.7063Z" fill="black"/>
<path d="M184.287 35.2249C184.007 34.7919 183.7 34.4985 183.616 34.1493C183.532 33.7721 184.049 33.381 184.454 33.395C185.097 33.4089 185.698 34.0794 185.376 34.4845C185.153 34.7779 184.734 34.9315 184.273 35.2389L184.287 35.2249Z" fill="black"/>
<path d="M65.9138 20.334C65.9976 20.0826 66.0116 19.7473 66.1792 19.6076C66.724 19.1466 67.1571 19.1606 67.7158 19.5517C67.8136 19.6216 67.9673 19.8172 67.9393 19.8591C67.7577 20.2083 67.6041 20.6553 67.2967 20.8509C66.7939 21.2001 66.1234 20.8788 65.9138 20.334Z" fill="black"/>
<path d="M50.492 29.6094C50.0729 29.9307 49.7377 30.3777 49.4583 30.3497C49.137 30.3078 48.8018 29.8888 48.5783 29.5535C48.4386 29.33 49.123 28.6595 49.4304 28.7852C49.7796 28.9249 50.059 29.2602 50.492 29.6094Z" fill="black"/>
<path d="M113.799 30.8386C113.576 30.2659 113.324 29.9167 113.324 29.5535C113.324 29.1344 113.925 28.7852 114.302 28.869C114.679 28.9528 115.015 29.4976 114.819 29.8888C114.638 30.224 114.26 30.4335 113.799 30.8386Z" fill="black"/>
<path d="M153.178 38.2981C153.038 38.5914 152.94 39.1083 152.661 39.248C152.438 39.3597 151.879 39.0943 151.655 38.8429C151.32 38.4657 151.613 38.0467 151.949 37.7812C152.158 37.6136 152.493 37.446 152.703 37.5019C152.898 37.5717 152.982 37.9349 153.178 38.2841V38.2981Z" fill="black"/>
<path d="M77.7176 37.9349C78.3043 37.9488 78.8351 38.4936 78.7373 38.9825C78.6116 39.5972 78.1925 39.8905 77.55 39.8347C77.0331 39.7927 76.8795 39.4156 76.7677 39.0105C76.614 38.4797 77.1449 37.9209 77.7176 37.9488V37.9349Z" fill="black"/>
<path d="M19.7743 48.7189C19.5508 48.5932 19.1038 48.4256 19.1178 48.3558C19.1876 47.9926 19.3133 47.4897 19.5648 47.3779C19.8581 47.2522 20.347 47.4198 20.6683 47.6014C20.8359 47.6992 20.8639 48.0764 20.8918 48.3418C20.8918 48.4116 20.6962 48.5373 20.5705 48.5653C20.3051 48.6351 20.0397 48.677 19.7743 48.7189Z" fill="black"/>
<path d="M119.904 44.0672C119.68 44.2628 119.415 44.626 119.066 44.7517C118.633 44.9194 118.046 44.193 118.116 43.6622C118.158 43.3269 118.661 42.7961 118.954 42.7821C119.457 42.7821 120.002 43.4107 119.918 44.0672H119.904Z" fill="black"/>
<path d="M17.0504 52.9236C16.8548 53.175 16.6593 53.5382 16.3659 53.7338C16.2402 53.8176 15.7094 53.6081 15.6954 53.4823C15.6535 53.1192 15.6954 52.7001 15.863 52.3648C15.9469 52.1972 16.3939 52.0575 16.5894 52.1274C16.785 52.1972 16.8548 52.5604 17.0504 52.9096V52.9236Z" fill="black"/>
<path d="M86.9092 65.8448C87.7054 65.9007 88.2502 66.4455 88.1804 66.9484C88.1385 67.2836 87.6635 67.5351 87.1467 67.4792C86.6019 67.4373 86.2387 67.144 86.3365 66.6969C86.4203 66.3617 86.7416 66.0683 86.9092 65.8309V65.8448Z" fill="black"/>
<path d="M109.734 53.9293C109.343 54.0411 108.952 53.7477 108.882 53.2588C108.798 52.714 109.162 52.5185 109.567 52.3648C109.986 52.2111 110.349 52.5045 110.419 53.0213C110.489 53.5382 110.181 53.7757 109.734 53.9293Z" fill="black"/>
<path d="M143.986 20.6413C143.805 20.809 143.721 20.9486 143.595 21.0045C143.176 21.2001 142.771 21.1302 142.408 20.8509C142.031 20.5575 141.933 20.0267 142.184 19.7333C142.464 19.3981 143.05 19.3143 143.344 19.6356C143.609 19.9289 143.791 20.32 143.986 20.6413Z" fill="black"/>
<path d="M124.625 19.9568C124.234 20.3619 124.011 20.6832 123.717 20.8788C123.452 21.0604 123.173 20.8788 123.047 20.5435C122.879 20.0826 123.033 19.44 123.34 19.4679C123.717 19.4959 124.067 19.7333 124.625 19.9568Z" fill="black"/>
<path d="M104.608 39.5134C104.524 39.1362 104.37 38.787 104.412 38.4657C104.454 38.1444 104.761 38.0746 105.069 38.2282C105.488 38.4378 105.642 38.773 105.404 39.1502C105.292 39.3318 104.957 39.3737 104.622 39.5273L104.608 39.5134Z" fill="black"/>
<path d="M199.108 39.0244C198.982 39.2479 198.926 39.5832 198.731 39.681C198.381 39.8765 197.837 39.4994 197.851 39.0803C197.851 38.8428 198.018 38.5216 198.214 38.3819C198.521 38.1584 198.996 38.5355 199.108 39.0244Z" fill="black"/>
<path d="M123.801 29.2183C124.039 29.344 124.36 29.3999 124.486 29.5954C124.681 29.8748 124.234 30.5034 123.871 30.4755C123.633 30.4475 123.354 30.2659 123.214 30.0704C122.977 29.7072 123.298 29.2741 123.801 29.2183Z" fill="black"/>
<path d="M68.554 29.5396C68.3584 29.6793 68.1628 29.9167 67.9533 29.9307C67.4364 29.9726 67.0733 29.4418 67.3806 29.1484C67.5622 28.9808 67.9114 28.8272 68.1349 28.883C68.3165 28.9389 68.4143 29.3021 68.554 29.5256V29.5396Z" fill="black"/>
<path d="M152.228 28.2684C152.731 28.3522 153.01 28.7713 152.801 29.1345C152.577 29.5256 152.228 29.777 151.809 29.6793C151.641 29.6374 151.502 29.2323 151.474 28.9808C151.404 28.464 151.739 28.1986 152.242 28.2684H152.228Z" fill="black"/>
<path d="M185.181 15.8919C185.027 16.0595 184.832 16.4506 184.552 16.5344C184.077 16.6741 183.854 16.2411 183.714 15.836C183.574 15.4309 183.826 15.1236 184.357 14.9839C184.776 14.8721 185.069 15.1375 185.181 15.8779V15.8919Z" fill="black"/>
<path d="M161.322 19.8031C161.21 20.0406 161.154 20.32 160.987 20.4876C160.721 20.7391 160.442 20.6273 160.414 20.2641C160.4 20.0406 160.54 19.8031 160.609 19.5657C160.847 19.6495 161.084 19.7333 161.336 19.8031H161.322Z" fill="black"/>
<path d="M30.8516 38.1025C30.5304 38.2981 30.2789 38.5635 30.1113 38.5216C29.6503 38.4238 29.5525 37.9628 29.6084 37.5857C29.6224 37.446 30.1253 37.1945 30.1811 37.2504C30.4465 37.4879 30.6421 37.8092 30.8656 38.1025H30.8516Z" fill="black"/>
<path d="M203.648 34.2331C203.466 34.3867 203.312 34.6522 203.117 34.6801C202.712 34.736 202.321 34.1353 202.572 33.8839C202.74 33.7162 203.075 33.5905 203.299 33.6464C203.452 33.6743 203.522 34.0375 203.634 34.2471L203.648 34.2331Z" fill="black"/>
<path d="M147.032 61.9335C147.115 61.8218 147.199 61.6122 147.297 61.5983C147.646 61.5424 148.219 62.171 148.121 62.4923C148.093 62.5901 147.884 62.6879 147.744 62.7018C147.115 62.7856 146.906 62.5482 147.018 61.9335H147.032Z" fill="black"/>
<path d="M175.43 52.5045C175.319 52.6722 175.207 52.8398 175.109 52.9934C174.928 52.8677 174.732 52.756 174.564 52.6023C174.564 52.6023 174.704 52.309 174.76 52.309C174.983 52.3229 175.193 52.4207 175.43 52.4906V52.5045Z" fill="black"/>
<path d="M194.177 33.856C193.981 34.0096 193.883 34.1353 193.772 34.1633C193.394 34.2191 193.129 33.828 193.269 33.395C193.311 33.2832 193.45 33.2134 193.548 33.1156C193.758 33.3531 193.967 33.6045 194.177 33.842V33.856Z" fill="black"/>
<path d="M54.3893 14.928C54.7246 14.8302 55.004 14.928 55.0598 15.2633C55.0878 15.4588 54.9481 15.7941 54.7944 15.8919C54.4731 16.0595 53.6909 15.6265 53.7887 15.4169C53.8865 15.2074 54.1798 15.0956 54.3893 14.928Z" fill="black"/>
<path d="M127.713 14.5787C127.81 14.5787 127.964 14.5787 128.006 14.6206C128.076 14.7324 128.118 14.8861 128.09 15.0118C128.062 15.1235 127.922 15.2213 127.824 15.3191C127.754 15.2073 127.643 15.0956 127.615 14.9559C127.601 14.8441 127.671 14.7045 127.699 14.5787H127.713Z" fill="black"/>
<path d="M58.6081 47.2522C58.9293 47.3919 59.083 47.6433 58.9014 47.9367C58.8036 48.1183 58.5243 48.3278 58.3706 48.3138C58.0493 48.258 57.9096 47.9367 58.0633 47.6433C58.1611 47.4617 58.4265 47.3779 58.6081 47.2522Z" fill="black"/>
<path d="M30.6981 47.2382C30.8657 47.35 31.0333 47.4617 31.201 47.5735C31.0613 47.769 30.9216 47.9646 30.7819 48.1602C30.6841 48.0624 30.5165 47.9646 30.5165 47.8808C30.5304 47.6573 30.6282 47.4478 30.6981 47.2382Z" fill="black"/>
<path d="M146.752 43.5504C146.654 43.5784 146.557 43.6063 146.473 43.6342C146.445 43.5225 146.347 43.3409 146.389 43.299C146.626 43.0755 146.766 43.1733 146.752 43.5504Z" fill="black"/>
<path d="M119.205 52.7978C119.094 52.8537 118.954 52.9655 118.856 52.9515C118.521 52.8677 118.451 52.6302 118.647 52.3508C118.716 52.253 118.856 52.2111 118.954 52.1413C119.038 52.3648 119.122 52.5743 119.205 52.7978Z" fill="black"/>
<path d="M26.0604 42.9498C25.8648 43.2431 25.5854 43.3269 25.4457 43.0755C25.334 42.9079 25.4038 42.6005 25.4457 42.377C25.4597 42.3072 25.6553 42.2653 25.767 42.2094C25.8648 42.4609 25.9626 42.6983 26.0604 42.9498Z" fill="black"/>
<path d="M48.76 38.5216C48.8019 38.6194 48.8717 38.7311 48.8577 38.815C48.8438 38.8988 48.732 38.9826 48.6761 39.0664C48.7041 38.8848 48.732 38.7032 48.76 38.5216Z" fill="black"/>
<path d="M161.28 10.905C161.07 11.0307 160.861 11.1704 160.637 11.2542C160.609 11.2542 160.414 11.0447 160.428 10.9608C160.456 10.6116 160.679 10.4999 161 10.6396C161.112 10.6815 161.182 10.8212 161.28 10.905Z" fill="black"/>
<path d="M137.91 34.1213C137.812 34.1912 137.7 34.3448 137.616 34.3309C137.533 34.3309 137.463 34.1493 137.379 34.0655C137.477 33.9956 137.589 33.842 137.672 33.8559C137.756 33.8559 137.826 34.0375 137.91 34.1213Z" fill="black"/>
<path d="M198.367 10.1227C198.256 10.2065 198.158 10.3043 198.046 10.3881C197.962 10.2763 197.795 10.1646 197.809 10.0668C197.809 9.96902 198.004 9.88521 198.116 9.80139C198.2 9.91314 198.284 10.0249 198.367 10.1366V10.1227Z" fill="black"/>
<path d="M44.2898 15.2493L44.3597 15.5007L44.1501 15.4588L44.2898 15.2493Z" fill="black"/>
<path d="M179.635 29.5255C179.551 29.5954 179.467 29.6792 179.37 29.763C179.3 29.6792 179.16 29.5814 179.16 29.4976C179.16 29.4138 179.314 29.3439 179.398 29.2601C179.467 29.3439 179.551 29.4417 179.621 29.5255H179.635Z" fill="black"/>
<path d="M170.485 29.2741C170.569 29.3719 170.737 29.4836 170.723 29.5814C170.709 29.6792 170.541 29.763 170.443 29.8608C170.36 29.7491 170.192 29.6513 170.206 29.5535C170.206 29.4557 170.388 29.3719 170.485 29.2741Z" fill="black"/>
<path d="M193.576 24.4688L193.478 24.2313L193.716 24.2453L193.576 24.4688Z" fill="black"/>
<path d="M156.475 52.7839C156.391 52.8677 156.307 52.9515 156.223 53.0214C156.139 52.9376 156 52.8398 156.014 52.756C156.014 52.6721 156.167 52.5883 156.251 52.5185C156.335 52.6023 156.405 52.7001 156.488 52.7839H156.475Z" fill="black"/>
</g>
<defs>
<clipPath id="clip0_409_2">
<rect width="220.64" height="70.2918" fill="white" transform="translate(0.636841 0.651733)"/>
</clipPath>
</defs>
</svg>
