<svg viewBox="0 0 176 64" fill="none" xmlns="http://www.w3.org/2000/svg">
<g clip-path="url(#clip0_409_166)">
<path d="M165.086 44.9408C164.459 45.5305 164.377 46.5894 164.922 47.2729L174.692 59.6708C175.523 60.7163 174.869 62.3649 173.629 62.3649L23.5856 62.3648C22.3048 62.3648 21.6781 60.609 22.5773 59.6038L31.8835 49.1493C32.483 48.4792 32.4422 47.3667 31.7882 46.7502L21.4737 37.1803C20.7788 36.537 20.7788 35.3307 21.4737 34.6739L31.8699 25.0505C32.4967 24.4607 32.5784 23.4019 32.0334 22.7183L22.2503 10.3204C21.4328 9.28839 22.0868 7.6264 23.3268 7.6264L173.37 7.62643C174.651 7.62643 175.278 9.38224 174.379 10.3875L165.072 20.8419C164.473 21.5121 164.514 22.6245 165.168 23.2411L175.482 32.7975C176.177 33.4409 176.177 34.6472 175.482 35.3039L165.086 44.9408Z" fill="#E7BB43"/>
<path d="M166.285 64L5.55898 64C3.9103 64 2.43875 63.0484 1.73022 61.507C0.967199 59.8584 1.25333 57.9284 2.43875 56.6015L11.8812 45.9996L1.43047 36.3091C0.531189 35.4647 0.0134217 34.2718 0.013422 33.0119C0.0134222 31.752 0.53119 30.5592 1.41684 29.7282L11.9902 19.9305L1.96187 7.21089C0.885456 5.84377 0.6947 3.95393 1.48498 2.38576C2.20713 0.911414 3.65142 6.36087e-07 5.25923 9.17205e-07L165.985 2.90194e-05C167.634 2.93077e-05 169.105 0.951653 169.814 2.49301C170.577 4.1416 170.304 6.07165 169.105 7.39856L159.663 18.0138L170.114 27.7043C171.013 28.5487 171.531 29.7416 171.531 31.0015C171.531 32.2614 171.013 33.4543 170.114 34.2853L159.54 44.083L169.555 56.7891C170.631 58.1563 170.822 60.0461 170.045 61.6143C169.31 63.0886 167.865 64 166.258 64L166.285 64ZM7.84805 58.6387L164.146 58.6388L154.812 46.7904C153.368 44.9542 153.559 42.2735 155.275 40.7054L165.74 31.0015L155.344 21.3646C153.559 19.6892 153.45 16.8612 155.071 15.0652L163.696 5.36128L7.39842 5.36126L16.7455 17.2096C18.1898 19.0593 17.9854 21.7265 16.2958 23.2947L5.81787 32.9985L16.2141 42.6354C17.999 44.2974 18.1216 47.1254 16.4866 48.9349L7.86168 58.6387L7.84805 58.6387Z" fill="black"/>
<path d="M104.902 51.8836C105.216 51.0124 105.502 50.0607 105.87 49.1627C106.183 48.3987 107.232 47.9967 108.036 48.2647C108.99 48.5864 109.521 49.7525 109.113 50.6907C109.004 50.9453 108.854 51.2402 108.636 51.3608C108.145 51.6423 107.614 51.9372 107.069 52.031C105.788 52.2589 105.052 52.9692 104.643 54.1487C104.562 54.39 104.289 54.5776 104.085 54.7786C103.758 55.1137 102.859 55.0467 102.531 54.6714C102.204 54.2961 102.218 53.4115 102.627 53.1569C103.335 52.7012 104.085 52.3259 104.889 51.8702L104.902 51.8836Z" fill="black"/>
<path d="M123.597 43.8417C123.624 45.249 123.269 46.2811 122.438 47.1389C121.893 47.7018 121.035 47.876 120.531 47.5007C119.768 46.9244 119.427 45.9996 119.754 45.3026C120.34 44.0427 121.376 43.4128 122.765 43.2922C123.133 43.2654 123.597 43.6943 123.597 43.8417Z" fill="black"/>
<path d="M71.4382 43.1179C71.0431 42.9973 70.7297 42.9839 70.5117 42.823C69.6397 42.1663 69.2718 41.2951 69.5307 40.2094C69.7623 39.2176 71.193 38.7485 71.9424 39.432C72.7735 40.1826 73.0188 41.5363 72.392 42.5282C72.2012 42.8364 71.7107 42.9571 71.4382 43.1313L71.4382 43.1179Z" fill="black"/>
<path d="M94.7923 47.7822C94.656 47.7554 94.5062 47.7554 94.3835 47.7152C93.6614 47.5008 93.2254 46.9646 92.9256 46.3347C92.5577 45.5573 93.1709 44.6459 94.0838 44.5789C94.8332 44.5119 95.5553 44.8738 95.8278 45.4501C96.1957 46.2007 95.9368 47.0451 95.1602 47.5812C95.0512 47.6616 94.9149 47.7152 94.7923 47.7822Z" fill="black"/>
<path d="M54.788 59.2821C54.6654 60.2739 53.7661 61.1317 52.7442 61.0915C52.4035 61.0915 51.9267 60.743 51.7632 60.4214C51.2045 59.2955 51.8722 58.0624 53.0848 57.8078C53.916 57.6201 54.8834 58.4645 54.7744 59.2821L54.788 59.2821Z" fill="black"/>
<path d="M94.5743 35.7194C95.4736 35.6792 96.0731 36.2555 96.1004 36.7782C96.1412 37.7701 95.0376 38.7351 94.1383 38.4134C93.6341 38.2258 93.2118 37.8237 92.7894 37.4618C92.5441 37.2474 92.7076 36.4968 93.021 36.3627C93.6478 36.0813 94.3018 35.84 94.5743 35.7328L94.5743 35.7194Z" fill="black"/>
<path d="M58.6712 46.1336C58.4531 46.3883 58.2488 46.777 57.9217 46.9378C57.5811 47.1121 57.1178 47.1255 56.7091 47.1255C56.0551 47.1255 55.5918 46.7368 55.51 46.2408C55.4147 45.6243 55.7281 45.182 56.1913 44.8737C56.8998 44.4046 57.8809 44.5923 58.3986 45.2758C58.5485 45.4769 58.5621 45.7717 58.6575 46.1202L58.6712 46.1336Z" fill="black"/>
<path d="M94.9558 55.8375C93.4025 55.8241 92.7893 54.859 93.3207 53.5991C93.6477 52.8352 94.3972 52.3527 94.9149 52.5671C95.9368 52.9826 96.4682 54.4704 95.8278 55.3282C95.6098 55.6096 95.1466 55.7168 94.9558 55.8375Z" fill="black"/>
<path d="M112.178 55.6096C111.592 55.5426 110.911 54.9261 110.789 54.2693C110.693 53.7198 110.761 53.1971 111.238 52.795C111.715 52.3795 112.628 52.4197 113.105 52.8888C113.841 53.626 113.786 54.7652 112.955 55.3684C112.751 55.5158 112.451 55.5292 112.192 55.6096L112.178 55.6096Z" fill="black"/>
<path d="M27.2236 58.947C27.2373 59.6976 26.8421 60.2337 26.338 60.7162C25.8338 61.172 24.8664 61.1451 24.4577 60.7162C23.9127 60.1265 23.9399 59.0006 24.5258 58.5047C25.1798 57.9552 26.12 57.848 26.8149 58.3037C27.0193 58.4377 27.101 58.7326 27.2373 58.947L27.2236 58.947Z" fill="black"/>
<path d="M149.567 45.8521C149.648 46.911 148.327 48.0503 147.359 47.7286C146.937 47.5812 146.678 47.2461 146.678 46.8038C146.678 45.8924 147.141 45.249 147.972 44.8737C148.545 44.6191 149.512 45.2356 149.553 45.8521L149.567 45.8521Z" fill="black"/>
<path d="M86.1946 45.2222C86.2491 45.8119 85.5406 46.4955 84.8321 46.5223C84.1099 46.5625 83.4287 46.0264 83.3333 45.3696C83.2379 44.7129 83.7829 43.9355 84.4097 43.8149C85.1455 43.6808 86.1129 44.4314 86.1946 45.2222Z" fill="black"/>
<path d="M139.62 19.582C138.925 19.582 138.421 19.1263 138.203 18.3355C138.094 17.9066 138.394 17.1024 138.803 16.9148C139.034 16.8076 139.348 16.7942 139.606 16.8478C140.26 16.955 140.424 17.5179 140.574 18.0406C140.737 18.6304 140.424 19.0995 140.015 19.5016C139.933 19.582 139.743 19.5686 139.606 19.582L139.62 19.582Z" fill="black"/>
<path d="M72.4738 50.1277C72.3103 50.3288 72.0922 50.6907 71.7925 50.9855C71.3837 51.401 70.6888 51.334 70.2528 50.9051C69.844 50.503 69.7623 49.8463 70.0621 49.3369C70.3618 48.8142 70.757 48.3987 71.3974 48.4121C72.0377 48.4121 72.6781 49.3637 72.4601 50.1277L72.4738 50.1277Z" fill="black"/>
<path d="M151.542 14.7033C151.542 13.7918 152.237 13.1217 153.164 13.1351C153.654 13.1351 153.954 13.4166 154.131 13.8186C154.376 14.3816 154.213 14.9311 153.94 15.4404C153.722 15.8559 152.85 16.1508 152.442 15.99C151.883 15.7755 151.542 15.3064 151.556 14.7033L151.542 14.7033Z" fill="black"/>
<path d="M25.3433 15.6147C24.6348 15.6281 23.9263 15.0249 23.8854 14.3816C23.8445 13.7382 24.5394 13.0547 25.2343 13.0681C25.9973 13.0815 26.6786 13.6444 26.7059 14.2878C26.7331 14.9579 26.0791 15.5879 25.3569 15.6013L25.3433 15.6147Z" fill="black"/>
<path d="M25.5341 31.618C26.1745 31.6046 26.7877 32.2346 26.8422 32.9717C26.8967 33.7759 26.3653 34.4193 25.684 34.3522C24.9346 34.2852 24.3896 33.7491 24.3214 33.0253C24.2669 32.3284 24.8665 31.6314 25.5341 31.618Z" fill="black"/>
<path d="M75.376 27.1548C75.6622 27.463 76.0573 27.7043 76.1391 28.026C76.2208 28.3744 76.0846 28.857 75.8802 29.1786C75.4305 29.9024 74.5858 30.0364 74.1225 29.5405C73.6183 28.991 73.5911 28.16 74.1634 27.7043C74.4768 27.463 74.8991 27.3558 75.376 27.1414L75.376 27.1548Z" fill="black"/>
<path d="M31.1069 11.3524C30.6982 11.2318 30.3575 11.2184 30.194 11.0576C29.9215 10.7761 29.6763 10.4142 29.5945 10.0389C29.4991 9.59664 30.1668 8.95329 30.6845 8.9935C31.0797 9.0203 31.5021 9.16774 31.8155 9.38219C32.306 9.71727 32.415 10.4008 32.0335 10.8297C31.7882 11.0978 31.3658 11.2184 31.1069 11.3524Z" fill="black"/>
<path d="M99.7928 41.3353C99.6702 42.1395 98.6892 42.7962 97.9261 42.5818C97.3402 42.421 96.9723 41.925 97.0132 41.3487C97.0541 40.5311 97.9534 39.9548 98.8799 40.129C99.4658 40.2362 99.8746 40.7858 99.8064 41.3353L99.7928 41.3353Z" fill="black"/>
<path d="M39.6092 43.7076C40.2224 43.6406 40.9309 44.3778 40.9037 45.0479C40.8764 45.7315 40.1951 46.4419 39.6092 46.4151C38.9552 46.3748 38.2467 45.6779 38.2603 45.0747C38.2603 44.4716 38.9552 43.788 39.6229 43.721L39.6092 43.7076Z" fill="black"/>
<path d="M90.473 23.4287C90.5275 24.1927 89.9689 24.8628 89.274 24.8762C88.6336 24.8762 87.9659 24.2329 87.8706 23.5225C87.8161 23.0802 88.3883 22.4234 88.9061 22.3296C89.6146 22.209 90.4321 22.7853 90.473 23.4421L90.473 23.4287Z" fill="black"/>
<path d="M37.252 38.7217C36.9795 37.5824 37.5245 36.8452 38.4783 36.3091C38.928 36.0544 39.6637 36.2555 39.9771 36.6978C40.3586 37.2473 40.1951 38.2659 39.6229 38.534C38.8326 38.9093 38.0151 39.0969 37.1703 38.6412L37.252 38.7082L37.252 38.7217Z" fill="black"/>
<path d="M138.857 38.1454C138.298 38.0917 137.808 37.5958 137.794 37.0463C137.767 36.604 137.958 36.2287 138.38 36.0277C138.625 35.907 138.898 35.7864 139.157 35.7596C139.892 35.6524 140.615 36.2019 140.669 36.8587C140.71 37.3814 140.301 37.8907 139.688 38.0515C139.416 38.1186 139.129 38.1186 138.857 38.1454Z" fill="black"/>
<path d="M127.384 50.5835C127.343 51.3072 126.649 52.0444 126.076 51.964C125.463 51.8836 124.85 51.0124 124.945 50.3824C125.027 49.8731 125.572 49.3504 126.09 49.2699C126.771 49.1761 127.425 49.8329 127.384 50.5835Z" fill="black"/>
<path d="M53.7525 48.3451C53.916 48.6132 54.2838 48.9483 54.2566 49.2431C54.1476 50.3288 53.4391 50.8917 52.2809 50.9587C51.8721 50.9855 51.3544 50.6505 51.3544 50.302C51.3544 50.0473 51.368 49.6988 51.5315 49.5648C52.0493 49.1225 52.6352 48.7472 53.2074 48.3585C53.3028 48.2915 53.4799 48.3585 53.7525 48.3585L53.7525 48.3451Z" fill="black"/>
<path d="M72.2694 23.3215C72.4057 23.9514 71.8334 24.6484 71.1249 24.6886C70.648 24.7288 70.103 24.1927 70.0757 23.6565C70.0485 23.1204 70.5117 22.5843 71.0295 22.5441C71.7108 22.5039 72.1604 22.7853 72.2831 23.3215L72.2694 23.3215Z" fill="black"/>
<path d="M40.3313 19.0458C40.4131 19.7428 39.8408 20.48 39.2004 20.547C38.7507 20.5872 38.2194 19.9975 38.1785 19.4077C38.1376 18.7912 38.5464 18.2551 39.0914 18.2149C39.7454 18.1612 40.2768 18.5231 40.3313 19.0458Z" fill="black"/>
<path d="M131.091 55.221C130.818 55.7303 130.178 55.9581 129.619 55.7437C129.047 55.5292 128.788 54.8859 129.033 54.3632C129.319 53.7868 129.919 53.559 130.45 53.827C131.05 54.1353 131.322 54.7519 131.077 55.221L131.091 55.221Z" fill="black"/>
<path d="M63.1131 50.4494C63.1676 51.0794 62.5545 51.8166 61.8868 51.9238C61.4372 51.9908 60.7559 51.4681 60.6605 50.999C60.4834 50.1412 61.1919 49.2968 62.0367 49.3504C62.5545 49.3906 63.0586 49.9133 63.1131 50.4494Z" fill="black"/>
<path d="M90.8001 40.5981C90.7592 41.3219 90.0643 41.8982 89.4103 41.7508C88.8789 41.6302 88.4838 41.1611 88.4429 40.5713C88.402 39.9548 89.0969 39.097 89.6283 39.097C90.1597 39.097 90.841 39.9682 90.8001 40.5847L90.8001 40.5981Z" fill="black"/>
<path d="M48.7519 53.3579C49.1198 53.3981 49.474 53.8404 49.4604 54.2157C49.4468 54.8055 49.1606 55.2344 48.6292 55.489C48.1932 55.7035 47.3348 55.5158 47.185 55.0735C47.0759 54.7519 47.1304 54.2559 47.3212 53.9611C47.621 53.5054 48.1387 53.2507 48.7519 53.3579Z" fill="black"/>
<path d="M67.6094 54.5508C67.5822 55.2477 66.9418 55.8107 66.2196 55.7303C65.661 55.6632 65.1705 55.0869 65.2522 54.6178C65.3885 53.894 65.988 53.3847 66.6693 53.3847C67.1326 53.3847 67.6094 54.0147 67.5958 54.5508L67.6094 54.5508Z" fill="black"/>
<path d="M85.6087 36.805C85.5134 37.435 84.8048 37.7835 84.3961 37.4082C84.0963 37.1401 83.8374 36.805 83.6194 36.4566C83.3742 36.0411 83.5104 35.5585 83.8511 35.3843C84.2326 35.1967 84.6413 35.1028 85.0228 35.3843C85.4997 35.7462 85.7586 36.2019 85.6087 36.7916L85.6087 36.805Z" fill="black"/>
<path d="M86.3717 28.0796C86.4399 28.5085 85.9085 29.1116 85.3771 29.192C84.6004 29.3127 84.0963 28.9508 83.9055 28.1466C83.7829 27.6373 84.1235 26.9537 84.5595 26.8465C85.3362 26.6588 86.2627 27.2888 86.3717 28.0796Z" fill="black"/>
<path d="M135.151 42.1395C134.265 41.9921 133.775 41.2683 134.006 40.6116C134.143 40.2229 134.374 39.861 134.865 39.8476C135.696 39.8208 136.377 40.7992 135.996 41.59C135.859 41.8715 135.369 42.0055 135.137 42.1395L135.151 42.1395Z" fill="black"/>
<path d="M125.913 57.6201C126.417 57.5531 127.057 58.1294 126.989 58.5851C126.935 59.0542 126.294 59.711 125.886 59.577C125.559 59.4563 125.191 59.1212 125.068 58.7996C124.877 58.2902 125.368 57.7005 125.899 57.6335L125.913 57.6201Z" fill="black"/>
<path d="M153.423 50.1814C153.3 50.8247 152.755 51.2 152.169 51.1598C151.665 51.1196 151.093 50.4896 151.202 50.0742C151.352 49.4844 152.346 48.9751 152.864 49.3102C153.15 49.4978 153.273 49.9401 153.423 50.168L153.423 50.1814Z" fill="black"/>
<path d="M102.94 43.9221C103.063 43.9623 103.213 43.9891 103.322 44.0561C104.003 44.4582 104.098 45.115 104.017 45.7985C103.989 45.9862 103.676 46.2274 103.458 46.281C102.641 46.4687 101.837 45.7583 101.85 44.9273C101.85 44.4448 102.463 43.8953 102.94 43.9221Z" fill="black"/>
<path d="M62.1593 58.5181C62.6362 58.5584 63.0994 59.0945 63.1403 59.644C63.1812 60.2069 62.6771 60.7833 62.2002 60.7431C61.7505 60.7029 61.2191 60.1131 61.1919 59.6306C61.1646 59.1347 61.7233 58.4913 62.1593 58.5181Z" fill="black"/>
<path d="M99.6565 59.5368C99.5066 59.7646 99.3568 60.207 99.057 60.3678C98.4984 60.6627 97.7626 60.0461 97.6536 59.2017C97.6263 58.9873 97.8307 58.612 98.0215 58.5316C98.7572 58.2233 99.5066 58.6522 99.6702 59.5368L99.6565 59.5368Z" fill="black"/>
<path d="M54.202 5.07983C54.2157 5.65616 53.4526 6.2593 52.785 6.2325C52.3081 6.20569 51.8176 5.60255 51.8312 5.09323C51.8312 4.58391 52.3217 3.96737 52.7714 3.92716C53.4118 3.87354 54.1884 4.47669 54.202 5.07983Z" fill="black"/>
<path d="M31.1342 36.8855C31.2704 37.368 30.5891 37.9175 29.976 37.7835C29.4037 37.6494 28.9677 37.3144 28.7088 36.7514C28.4772 36.2555 28.8451 35.5586 29.4037 35.4915C30.3166 35.3977 31.0797 36.0009 31.1342 36.8721L31.1342 36.8855Z" fill="black"/>
<path d="M145.057 22.9194C145.152 23.4287 144.689 24.0453 144.171 24.0721C143.544 24.0989 143.081 23.7236 143.04 23.1607C142.986 22.5307 143.394 21.9544 143.885 21.9812C144.484 22.008 144.961 22.3967 145.057 22.9194Z" fill="black"/>
<path d="M63.2084 23.2678C63.1403 23.8174 62.6362 24.2061 62.0503 24.139C61.5598 24.0854 60.9875 23.4823 61.0147 23.0534C61.0692 22.41 61.8868 21.8069 62.4863 21.9945C63.0177 22.1554 63.2902 22.6379 63.2084 23.2678Z" fill="black"/>
<path d="M80.0223 31.3902C80.7036 31.2829 81.3167 31.7789 81.344 32.2882C81.3576 32.6233 80.9625 33.0924 80.581 33.1594C80.0768 33.2666 79.3547 32.7439 79.4637 32.248C79.5318 31.8995 79.8724 31.6046 80.0223 31.3768L80.0223 31.3902Z" fill="black"/>
<path d="M140.765 45.1954C140.656 45.8522 140.138 46.3481 139.593 46.4553C139.034 46.5625 138.394 45.9594 138.598 45.4233C138.734 45.048 139.007 44.6995 139.32 44.4448C139.497 44.2974 139.933 44.2438 140.097 44.3644C140.41 44.5923 140.601 44.9676 140.778 45.1954L140.765 45.1954Z" fill="black"/>
<path d="M13.1486 44.9675C13.2576 45.7583 12.8897 46.2676 12.3174 46.3213C11.6907 46.3749 11.2138 45.946 11.2546 45.383C11.2955 44.7933 11.7452 44.3108 12.3311 44.4046C12.6581 44.4582 12.9442 44.8201 13.1486 44.9675Z" fill="black"/>
<path d="M36.2983 39.5393C36.5435 40.4507 36.2438 41.1209 35.4262 41.59C35.0856 41.791 34.6223 41.7106 34.3362 41.3487C34.0773 41.0002 33.9683 40.6249 34.2544 40.2362C34.7995 39.5125 35.4535 39.1372 36.3664 39.5929L36.2846 39.5259L36.2983 39.5393Z" fill="black"/>
<path d="M40.0997 54.1085C39.8681 54.3229 39.6364 54.658 39.2958 54.8054C39.0233 54.9261 38.4783 54.3631 38.5191 54.0013C38.5736 53.626 38.7508 53.2641 38.9415 52.929C39.1187 52.6207 39.4048 52.6207 39.6501 52.8888C39.7454 52.9826 39.8544 53.0898 39.8953 53.2105C39.9771 53.4651 40.0043 53.7332 40.0724 54.1219L40.0997 54.1085Z" fill="black"/>
<path d="M134.62 49.5112C135.369 49.471 135.873 49.9937 135.791 50.5433C135.723 50.9722 135.328 51.2804 134.892 51.2402C134.524 51.2 134.02 50.7577 134.088 50.3958C134.17 50.0473 134.456 49.7525 134.606 49.5112L134.62 49.5112Z" fill="black"/>
<path d="M103.758 18.684C103.54 18.885 103.322 19.2469 102.995 19.3943C102.409 19.6624 101.687 18.9922 101.728 18.2819C101.755 17.8932 102.177 17.5581 102.586 17.5983C103.145 17.6519 103.69 18.1076 103.744 18.684L103.758 18.684Z" fill="black"/>
<path d="M99.9835 15.4672C99.9835 16.0704 99.3023 16.4457 98.7709 16.1374C98.0215 15.7085 97.8035 15.1858 98.0623 14.4084C98.1713 14.1001 98.4166 13.9795 98.7572 14.0465C99.5884 14.2342 99.9835 14.6899 99.9835 15.4538L99.9835 15.4672Z" fill="black"/>
<path d="M149.975 36.8587C149.812 37.0731 149.635 37.4752 149.335 37.6629C148.94 37.9041 148.218 37.3814 148.136 36.8855C148.041 36.3091 148.368 35.8266 148.926 35.7328C149.376 35.6524 149.935 36.2019 149.975 36.8721L149.975 36.8587Z" fill="black"/>
<path d="M121.525 35.21C122.016 35.2905 122.397 35.8802 122.275 36.4163C122.152 36.9927 121.621 37.3814 121.117 37.2875C120.626 37.2071 120.272 36.6174 120.367 36.0544C120.463 35.4915 120.967 35.1162 121.525 35.21Z" fill="black"/>
<path d="M66.3423 37.4082C66.2061 37.1669 65.879 36.8586 65.8654 36.5236C65.8382 36.0143 66.6421 35.5183 67.0781 35.7328C67.2825 35.84 67.4868 36.1483 67.5141 36.3895C67.5686 36.9927 67.0236 37.5154 66.3423 37.4082Z" fill="black"/>
<path d="M93.457 29.0312C93.348 28.8302 93.0891 28.5353 93.021 28.2136C92.9528 27.8651 93.4979 27.4764 93.8794 27.4898C94.2609 27.5166 94.5334 27.9053 94.4789 28.361C94.4244 28.8302 94.0565 29.1384 93.457 29.0312Z" fill="black"/>
<path d="M121.43 9.31523C121.321 9.89156 120.831 10.1462 120.517 9.91837C120.313 9.77094 120.081 9.59669 119.972 9.38224C119.877 9.16779 119.863 8.87292 119.945 8.64507C120.027 8.3502 120.749 8.22957 120.967 8.48423C121.198 8.7523 121.321 9.12758 121.43 9.31523Z" fill="black"/>
<path d="M53.589 41.1879C53.3709 41.3621 53.1257 41.6838 52.7851 41.8178C52.4035 41.9786 51.8994 41.5765 51.9539 41.1476C51.9948 40.7858 52.1855 40.3435 52.458 40.1424C52.8259 39.8877 53.5753 40.5177 53.589 41.2013L53.589 41.1879Z" fill="black"/>
<path d="M144.457 41.1209C144.58 41.5632 144.021 42.2467 143.462 42.1931C143.108 42.1663 142.754 41.8714 142.481 41.6168C142.413 41.5498 142.631 41.1075 142.808 40.9198C143.081 40.5981 143.462 40.3569 143.912 40.5713C144.13 40.6786 144.28 40.9332 144.457 41.1209Z" fill="black"/>
<path d="M35.9711 14.0867C35.576 14.4084 35.3307 14.7435 34.9901 14.8641C34.6903 14.9713 34.2407 14.395 34.2543 14.0197C34.2816 13.6176 34.7448 13.0547 35.0174 13.1887C35.3444 13.3495 35.576 13.698 35.9575 14.0733L35.9711 14.0867Z" fill="black"/>
<path d="M52.4444 24.7288C52.24 24.2329 52.0084 23.8844 51.9947 23.5359C51.9811 23.107 52.5534 22.7719 52.9213 22.8792C53.3437 23.0132 53.6707 23.4957 53.4663 23.8308C53.2619 24.1525 52.8804 24.3535 52.4444 24.7288Z" fill="black"/>
<path d="M121.88 54.8859C121.73 55.2611 121.703 55.556 121.539 55.7168C121.362 55.8777 121.048 56.0251 120.83 55.9849C120.394 55.9179 120.136 55.1405 120.408 54.658C120.517 54.4704 120.871 54.2559 121.021 54.2961C121.348 54.4033 121.621 54.6848 121.88 54.8724L121.88 54.8859Z" fill="black"/>
<path d="M44.2282 50.8783C43.983 50.7577 43.6968 50.6639 43.4925 50.4896C43.1655 50.2216 43.2063 49.6855 43.5061 49.3772C43.7922 49.0823 44.31 49.0957 44.637 49.4576C44.8141 49.6453 44.9368 49.9133 45.0185 50.168C45.1411 50.5835 44.6779 50.9856 44.2282 50.8917L44.2282 50.8783Z" fill="black"/>
<path d="M70.7706 60.2337C70.3754 60.1533 70.1302 59.6842 70.2801 59.2553C70.43 58.8264 70.9205 58.5986 71.2747 58.8666C71.4791 59.0141 71.629 59.2955 71.6835 59.5368C71.7516 59.9121 71.1657 60.3008 70.7706 60.2203L70.7706 60.2337Z" fill="black"/>
<path d="M22.2231 54.5508C21.8552 54.6714 21.501 54.792 21.1331 54.8725C21.0649 54.8859 20.8606 54.6714 20.8742 54.591C20.9423 54.2157 21.0786 53.8538 21.1876 53.4919C21.4465 53.5724 21.7598 53.5724 21.9233 53.7466C22.0869 53.9074 22.1141 54.2157 22.2367 54.5642L22.2231 54.5508Z" fill="black"/>
<path d="M57.8265 54.2961C57.6493 54.4168 57.4722 54.658 57.3087 54.6446C56.8727 54.591 56.6683 54.1755 56.8454 53.8136C56.8863 53.7198 57.0226 53.626 57.1316 53.5858C57.4858 53.4517 57.8673 53.8538 57.8128 54.2961L57.8265 54.2961Z" fill="black"/>
<path d="M139.865 54.658C139.593 54.7653 139.279 54.9797 138.939 54.9931C138.544 54.9931 138.176 54.4436 138.326 54.1219C138.435 53.9075 138.612 53.6528 138.83 53.5724C139.266 53.4115 139.906 54.0281 139.865 54.658Z" fill="black"/>
<path d="M85.636 18.0407C85.7041 18.5232 85.3771 18.9253 84.982 18.8046C84.764 18.7376 84.5323 18.5366 84.437 18.3489C84.2871 18.0139 84.7367 17.5045 85.1455 17.585C85.3362 17.6252 85.4725 17.8798 85.636 18.0407Z" fill="black"/>
<path d="M89.6691 14.4084C89.4784 14.7166 89.3285 15.1053 89.056 15.3466C88.9061 15.494 88.5519 15.4538 88.293 15.427C88.184 15.427 88.0068 15.2394 88.0068 15.1455C88.0068 14.8909 88.0477 14.596 88.184 14.4084C88.4292 14.0465 88.8244 13.899 89.2604 14.0867C89.383 14.1403 89.4784 14.2609 89.6555 14.4084L89.6691 14.4084Z" fill="black"/>
<path d="M153.232 41.3353C153.164 41.4023 153.068 41.5632 152.946 41.5766C152.251 41.6838 151.57 40.9198 151.801 40.3167C151.842 40.1961 151.978 40.0486 152.087 40.0352C152.796 39.9414 153.45 40.6786 153.218 41.3353L153.232 41.3353Z" fill="black"/>
<path d="M75.8801 19.2603C75.6485 19.3541 75.4032 19.5686 75.1852 19.5284C74.8718 19.4748 74.7492 19.1263 74.9536 18.885C75.0898 18.7108 75.4032 18.6572 75.6349 18.5634C75.7166 18.7912 75.7984 19.0325 75.8665 19.2603L75.8801 19.2603Z" fill="black"/>
<path d="M144.648 58.9202C144.552 59.1615 144.525 59.5368 144.348 59.6172C143.939 59.8049 143.626 59.5502 143.435 59.1749C143.272 58.8532 143.381 58.6388 143.721 58.5316C144.212 58.3841 144.552 58.5182 144.634 58.9202L144.648 58.9202Z" fill="black"/>
<path d="M111.306 26.7393C111.633 26.9001 112.015 27.0207 112.301 27.262C112.505 27.4228 112.165 28.1198 111.851 28.2136C111.374 28.3744 110.761 27.9053 110.843 27.3692C110.87 27.1682 111.116 26.9939 111.306 26.7393Z" fill="black"/>
<path d="M12.4809 54.9261C12.2901 55.0735 12.0994 55.3416 11.8813 55.355C11.4998 55.3818 11.2546 54.8993 11.4045 54.457C11.5135 54.1487 11.8132 54.0415 12.0857 54.2693C12.2765 54.4167 12.3446 54.6982 12.4672 54.9261L12.4809 54.9261Z" fill="black"/>
<path d="M108.036 31.8459C107.995 32.2748 107.518 32.583 107.219 32.3552C107.042 32.2077 106.892 31.9531 106.851 31.7252C106.81 31.3633 107.355 31.0417 107.668 31.2427C107.845 31.3633 107.914 31.6448 108.036 31.8459Z" fill="black"/>
<path d="M80.758 49.8195C80.649 50.0473 80.5945 50.3422 80.4174 50.4762C80.1176 50.7041 79.6135 50.3422 79.6271 49.8999C79.6271 49.6586 79.7634 49.3772 79.9405 49.2029C80.1721 48.9751 80.6899 49.3772 80.758 49.8195Z" fill="black"/>
<path d="M35.4126 58.6119C35.3172 59.0274 34.9629 59.1614 34.5269 58.9738C34.2135 58.8398 34.1318 58.6253 34.2953 58.317C34.5133 57.8881 34.9765 57.6603 35.1809 57.9016C35.3308 58.0892 35.3444 58.3841 35.4262 58.6253L35.4126 58.6119Z" fill="black"/>
<path d="M143.817 14.2743C143.817 14.395 143.871 14.5558 143.817 14.6228C143.503 14.9847 143.108 15.0249 142.699 14.7837C142.59 14.7166 142.522 14.5692 142.441 14.4486C142.659 14.2877 142.877 14.0465 143.122 14.0063C143.34 13.9795 143.599 14.1805 143.83 14.2743L143.817 14.2743Z" fill="black"/>
<path d="M131.036 26.9806C131.145 27.061 131.309 27.128 131.363 27.2352C131.486 27.5569 130.913 28.0528 130.532 27.959C130.423 27.9322 130.314 27.7713 130.273 27.6373C130.137 27.1682 130.464 26.8867 131.036 26.9806Z" fill="black"/>
<path d="M107.232 5.05297C107.423 4.90554 107.587 4.66428 107.791 4.61067C108.227 4.51685 108.486 4.95915 108.295 5.38805C108.159 5.69633 107.9 5.85716 107.614 5.66952C107.423 5.54889 107.341 5.25402 107.219 5.03957L107.232 5.05297Z" fill="black"/>
<path d="M44.6098 4.94578C44.3373 5.25405 44.1056 5.50871 43.874 5.77678C43.7241 5.61594 43.4516 5.4551 43.438 5.28086C43.4244 5.06641 43.5743 4.69112 43.7241 4.65091C43.9421 4.5973 44.2147 4.79835 44.6098 4.93238L44.6098 4.94578Z" fill="black"/>
<path d="M131.322 37.0329C131.077 37.2876 130.913 37.5824 130.763 37.5824C130.559 37.5824 130.232 37.3948 130.191 37.2205C130.137 37.0061 130.314 36.738 130.382 36.4968C130.682 36.671 130.995 36.8452 131.322 37.0329Z" fill="black"/>
<path d="M157.238 36.7649C157.17 36.5102 157.033 36.2555 157.061 36.0009C157.088 35.5988 157.374 35.505 157.646 35.7864C157.824 35.9607 157.878 36.2555 157.987 36.5102C157.742 36.5906 157.483 36.6844 157.238 36.7649Z" fill="black"/>
<path d="M16.5413 23.1338C16.446 23.2678 16.3915 23.4287 16.2825 23.4689C15.9691 23.5895 15.7783 23.4287 15.7783 23.0668C15.7783 22.9596 15.9009 22.8523 15.9827 22.7451C16.1735 22.8791 16.3506 23.0132 16.5413 23.1472L16.5413 23.1338Z" fill="black"/>
<path d="M16.732 14.0331C16.9637 14.1537 17.1953 14.2743 17.4133 14.395C17.3179 14.5022 17.2362 14.6362 17.1136 14.6898C16.7865 14.8239 16.5277 14.6898 16.4732 14.3548C16.4595 14.2609 16.6367 14.1403 16.7184 14.0331L16.732 14.0331Z" fill="black"/>
<path d="M43.9557 14.462L43.9693 14.2073L44.2691 14.3414L43.9557 14.462Z" fill="black"/>
<path d="M121.784 18.8716C121.675 18.9118 121.539 19.0057 121.444 18.9789C121.062 18.8448 121.021 18.6572 121.362 18.4829C121.457 18.4427 121.648 18.4695 121.73 18.5366C121.798 18.5902 121.771 18.751 121.784 18.8716Z" fill="black"/>
<path d="M125.395 32.1944C125.504 32.1542 125.627 32.0603 125.722 32.0871C126.09 32.1676 126.131 32.3418 125.817 32.5026C125.736 32.5428 125.572 32.5026 125.463 32.4356C125.409 32.4088 125.409 32.2748 125.381 32.181L125.395 32.1944Z" fill="black"/>
<path d="M125.872 22.8792C125.831 22.973 125.79 23.1338 125.749 23.1472C125.627 23.1472 125.395 23.0936 125.395 23.04C125.354 22.7317 125.545 22.6781 125.872 22.8792Z" fill="black"/>
<path d="M76.1935 45.6109C76.3434 45.7449 76.4933 45.8924 76.6295 46.0264C76.5341 46.1068 76.4115 46.2543 76.3298 46.2409C76.0981 46.1872 75.8801 46.0666 75.6621 45.9728C75.8392 45.8522 76.0164 45.7315 76.1935 45.6109Z" fill="black"/>
<path d="M144.552 50.235C144.443 50.3154 144.321 50.4628 144.212 50.4494C143.83 50.436 143.708 50.2082 143.871 49.8731C143.926 49.7525 144.089 49.5916 144.171 49.605C144.512 49.6586 144.634 49.8999 144.552 50.2216L144.552 50.235Z" fill="black"/>
<path d="M85.4997 54.5374C85.4179 54.6312 85.3089 54.8322 85.2544 54.8188C85.0228 54.7518 84.8048 54.6178 84.5868 54.5106C84.8184 54.4167 85.0364 54.2961 85.2681 54.2425C85.3226 54.2425 85.4179 54.4301 85.4997 54.5374Z" fill="black"/>
<path d="M158.314 54.5642C158.219 54.6446 158.123 54.7787 158.042 54.7787C157.96 54.7787 157.878 54.6178 157.796 54.524C157.892 54.4436 157.987 54.3096 158.069 54.3096C158.151 54.3096 158.232 54.4704 158.314 54.5642Z" fill="black"/>
<path d="M125.272 41.8312L125.163 41.5497L125.436 41.5766L125.272 41.8312Z" fill="black"/>
<path d="M37.1702 38.6412C37.1702 39.2176 36.8024 39.432 36.2982 39.5258L36.38 39.5929C36.38 39.0165 36.7479 38.8021 37.252 38.7083L37.1702 38.6412Z" fill="black"/>
<path d="M66.3287 45.7449L66.424 46.013L66.1652 45.9728L66.3287 45.7449Z" fill="black"/>
<path d="M89.928 50.2216C89.8463 50.2886 89.71 50.4226 89.6692 50.4092C89.3558 50.2484 89.383 50.0741 89.7237 49.9937C89.7645 49.9937 89.8599 50.1546 89.928 50.235L89.928 50.2216Z" fill="black"/>
<path d="M148.504 18.9521C148.436 18.8583 148.313 18.7644 148.327 18.684C148.327 18.6036 148.49 18.55 148.572 18.483C148.64 18.5768 148.763 18.6706 148.749 18.751C148.749 18.8315 148.586 18.8851 148.504 18.9521Z" fill="black"/>
<path d="M80.1586 22.705C80.2404 22.7988 80.3902 22.9194 80.3766 22.9596C80.2131 23.2947 80.036 23.2813 79.9133 22.9328C79.8997 22.8926 80.0768 22.7854 80.1586 22.705Z" fill="black"/>
<path d="M21.3102 18.6438L21.0649 18.7242L21.1058 18.4963L21.3102 18.6438Z" fill="black"/>
<path d="M116.443 32.4624L116.348 32.2078L116.607 32.248L116.443 32.4624Z" fill="black"/>
</g>
<defs>
<clipPath id="clip0_409_166">
<rect width="176" height="64" fill="white"/>
</clipPath>
</defs>
</svg>
