<svg width="551" height="132" viewBox="0 0 551 132" fill="none" xmlns="http://www.w3.org/2000/svg">
<g clip-path="url(#clip0_462_12)">
<path d="M537.123 11.5086C536.714 11.5307 536.282 11.5196 535.851 11.5196C532.921 11.5418 530.079 11.3093 526.751 10.9441C523.455 10.5899 520.017 10.1251 516.312 9.73768C512.63 9.35029 508.66 9.06252 504.459 9.1068C502.347 9.16214 500.201 9.26175 498.034 9.51631C496.961 9.62699 495.9 9.82622 494.838 9.98117C493.777 10.1472 492.76 10.4018 491.731 10.6121C487.651 11.5639 483.969 12.9031 480.707 14.4195C477.434 15.9358 474.548 17.6071 471.894 19.3116C466.586 22.7427 462.174 26.2623 457.663 29.5052C453.251 32.6929 448.85 35.5373 444.217 37.0426C441.917 37.8063 439.595 38.249 437.162 38.3597C435.946 38.415 434.685 38.404 433.402 38.3044C432.12 38.238 430.715 38.0387 429.388 37.8284C423.97 36.9098 418.607 34.9839 413.388 32.5932C408.169 30.2247 403.049 27.3359 397.321 24.5025C394.469 23.0858 391.45 21.6912 388.188 20.4184C384.937 19.1345 381.443 17.9612 377.639 17.0647C375.759 16.5777 373.813 16.2457 371.867 15.8915C369.91 15.6148 367.941 15.3271 365.951 15.1721C361.981 14.829 357.956 14.7183 353.987 14.9397C350.017 15.1389 346.07 15.5705 342.244 16.2789C338.418 16.9983 334.702 17.9613 331.153 19.1566C327.625 20.3741 324.297 21.8793 321.278 23.5506C318.315 25.2219 315.794 26.9596 313.45 28.5755C308.772 31.8295 304.537 34.6298 300.026 35.8805C297.781 36.5556 295.393 36.8655 292.894 36.9209C290.395 36.943 287.752 36.6884 285.076 36.1461C279.713 35.0836 274.35 33.0249 269.374 30.5567C266.875 29.3171 264.464 27.9779 262.142 26.5501L254.723 21.9458C252.168 20.3852 249.515 18.8135 246.706 17.2861C243.864 15.7698 240.856 14.2977 237.572 12.9585C234.321 11.6082 230.672 10.435 226.769 9.53845C222.866 8.68621 218.631 8.07747 214.329 8.02212C210.039 7.90038 205.782 8.29883 201.801 8.98505C192.004 10.6674 181.499 14.0985 173.494 20.197C169.48 23.2629 162.259 30.7449 163.066 36.301C163.652 40.3298 165.997 38.2822 168.916 36.4339C178.547 30.3464 187.791 23.5728 198.738 20.031C204.588 18.1383 210.658 17.2197 216.397 17.7731C219.294 18.0277 222.18 18.6143 225.033 19.4997C227.886 20.3962 230.695 21.5584 233.448 22.8865C238.977 25.5539 244.207 28.8744 249.703 32.3055C251.029 33.1466 252.566 34.0874 254.07 34.9507C255.596 35.8251 257.144 36.6884 258.77 37.5075C262.01 39.1566 265.438 40.7283 269.175 42.0896C272.912 43.4621 276.937 44.6685 281.372 45.4875C285.783 46.3066 290.649 46.7382 295.614 46.4394C298.091 46.2955 300.556 45.9745 302.934 45.4765C305.3 44.9784 307.567 44.2922 309.668 43.5285C313.814 41.9458 317.187 40.0088 320.073 38.1383C322.992 36.2568 325.491 34.4195 327.979 32.8035C329.218 31.9956 330.434 31.254 331.65 30.5678C332.27 30.2357 332.889 29.9369 333.508 29.6159C334.105 29.2839 334.813 29.0404 335.454 28.7415C346.036 24.2258 360.654 23.1411 372.442 26.0963C378.402 27.5351 384.119 30.1029 389.891 33.036L398.825 37.6292C401.932 39.2009 405.217 40.7615 408.744 42.2114C415.799 45.078 424.114 47.5794 433.834 47.9668C438.721 48.1771 443.918 47.5905 448.452 46.373C453.008 45.1666 456.889 43.4289 460.173 41.5916C463.457 39.7543 466.255 37.8174 468.875 35.9358C471.474 34.0653 473.973 32.1837 476.428 30.4018C481.315 26.8378 486.202 23.5506 491.521 21.4256C494.573 20.1859 497.282 19.4554 498.111 19.0681C498.775 18.7582 499.472 18.4925 500.19 18.1937C500.92 17.9502 501.683 17.6735 502.49 17.4632C503.839 17.0869 504.414 16.7991 503.983 16.5003C503.53 16.2014 503.043 15.8694 502.557 15.5927C502.424 15.5152 502.91 15.3935 503.928 15.3049C506.924 15.0282 510.065 15.0282 513.238 15.1278C515.837 15.2274 517.23 15.1942 517.086 14.9729C516.898 14.6851 518.269 14.5744 520.857 14.663C523.433 14.7294 527.259 15.0946 531.837 15.2496C532.49 15.2717 533.142 15.2938 533.805 15.2828C534.458 15.2828 535.11 15.2828 535.763 15.2606C538.56 15.1832 540.617 14.8954 541.468 14.6408C542.331 14.4084 541.966 14.2645 540.539 14.2534C539.257 14.2092 539.776 14.0432 541.656 13.7665C543.658 13.4455 544.675 13.0692 544.885 12.8921C545.084 12.7039 544.454 12.6707 542.972 12.7814C541.944 12.8367 540.904 12.8589 539.843 12.8589C538.826 12.8367 538.538 12.7482 539.069 12.6154C539.6 12.4936 540.86 12.3387 542.364 12.0952C543.083 11.9956 543.735 11.8406 544.41 11.7189C545.029 11.5528 545.703 11.42 546.267 11.2208C547.462 10.8777 548.479 10.4239 549.352 9.9369C550.757 9.12893 551.177 8.38737 550.989 8.33203C550.724 8.25455 549.949 8.84116 548.545 9.48311C547.506 9.9701 546.234 10.3686 544.786 10.6785C543.713 10.933 542.463 11.0769 541.203 11.2319C539.898 11.3425 538.56 11.4643 537.156 11.4754" fill="black"/>
</g>
<g clip-path="url(#clip1_462_12)">
<path d="M-124.05 132.696C-124.022 132.528 -123.98 132.355 -123.921 132.193C-123.617 131.306 -116.233 131.978 -115.546 131.347C-104.783 121.465 -94.0596 121.132 -80.9933 115.501C-30.9232 93.9366 20.4402 69.1125 70.8771 48.4531C71.0884 48.3672 106.335 33.4178 108.528 33.2403C122.41 32.0754 136.187 28.6327 149.982 29.2994C153.894 29.364 154.136 31.5246 152.421 33.0748C118.574 63.7396 123.524 57.4867 110.759 63.3959C63.2162 85.3222 -85.8642 136.937 -92.7986 139.908C-100.198 143.084 -111.733 151.724 -119.187 144.314C-121.533 141.978 -122.82 138.787 -123.704 135.598C-123.965 134.65 -124.197 133.651 -124.032 132.706L-124.05 132.696Z" fill="#E7BB43"/>
<path d="M-183.389 159.035C-180.068 152.223 -184.179 157.263 61.5818 50.1532C61.7061 50.0979 110.649 29.6266 113.516 29.4C131.606 27.9276 149.774 27.6203 167.913 28.4627C173.046 28.5513 173.541 31.2736 171.43 33.2301C129.699 72.0102 130.934 69.0513 114.702 76.5266C54.2831 104.275 -130.089 183.896 -138.931 187.671C-156.913 195.337 -164.079 201.049 -174.522 192.837C-179.518 188.971 -183.105 183.563 -184.709 177.441C-186.309 171.333 -185.849 164.855 -183.389 159.035ZM-25.0069 107.629C-22.8583 108.408 -22.9631 111.869 -26.0747 113.179C-59.2261 126.879 -63.7963 129.274 -76.2207 134.514C-143.994 163.12 -137.645 157.825 -135.761 161.881C-130.052 174.172 -136.834 179.24 -129.903 176.174C-105.001 165.183 73.653 86.6251 123.635 66.5343C126.94 65.2094 122.313 64.3628 117.757 53.1755C116.428 49.9372 121.624 49.8773 21.3941 92.7803C-13.9764 107.924 -15.222 109.641 -17.0083 106.635C-17.3177 106.191 -17.4418 105.646 -17.3513 105.109C-17.2659 104.581 -16.9772 104.101 -16.5367 103.778C-10.5903 99.5789 114.76 46.9653 114.722 46.8511C111.211 36.1522 111.617 36.3289 108.693 37.6542C56.2474 61.4725 -82.5428 120.864 -143.427 146.519C-146.259 147.725 -144.248 148.181 -139.768 154.602C-138.176 156.884 -139.327 155.618 -85.8165 132.634C-25.4417 106.662 -26.4117 106.402 -25.0032 107.643L-25.0069 107.629ZM-162.234 190.174C-155.326 187.569 -148.562 184.593 -141.968 181.252C-138.604 179.684 -138.616 179.666 -138.985 175.885C-139.491 167.082 -142.755 158.674 -148.307 151.831C-150.723 148.796 -149.05 148.977 -168.417 157.102C-172.503 158.819 -162.187 159.672 -159.314 172.415C-158.462 175.32 -158.414 178.397 -159.176 181.317C-161.119 187.343 -163.685 172.086 -172.302 163.831C-174.399 161.824 -178.673 161.307 -179.328 164.221C-180.135 167.738 -180.152 171.389 -179.374 174.921C-178.6 178.44 -177.052 181.758 -174.844 184.615C-171.224 189.684 -167.679 191.765 -162.212 190.176L-162.234 190.174ZM116.598 35.8215C115.989 41.1163 125.654 57.2964 128.749 61.6354C130.311 63.8303 130.052 62.4796 147.42 47.0574C149.549 45.1692 148.345 45.4553 146.164 37.0719C145.618 34.9782 146.243 35.6161 125.675 35.8197C122.659 36.0643 119.613 36.0606 116.585 35.8251L116.598 35.8215Z" fill="#191919"/>
</g>
<defs>
<clipPath id="clip0_462_12">
<rect width="388" height="40" fill="white" transform="translate(163 7.99994)"/>
</clipPath>
<clipPath id="clip1_462_12">
<rect width="244.66" height="314.93" fill="white" transform="translate(15.8818 303.067) rotate(-150)"/>
</clipPath>
</defs>
</svg>
