<svg width="1200" height="675" viewBox="0 0 1200 675" fill="none" xmlns="http://www.w3.org/2000/svg">
<g clip-path="url(#clip0_453_2)">
<path opacity="0.5" d="M-967 66H756" stroke="#5FBFFA" stroke-width="2"/>
<path opacity="0.5" d="M-967 127H756" stroke="#5FBFFA" stroke-width="2"/>
<path opacity="0.5" d="M-967 188H756" stroke="#5FBFFA" stroke-width="2"/>
<path opacity="0.5" d="M-967 247H756" stroke="#5FBFFA" stroke-width="2"/>
<path opacity="0.5" d="M-967 309H756" stroke="#5FBFFA" stroke-width="2"/>
<path opacity="0.5" d="M-967 369H756" stroke="#5FBFFA" stroke-width="2"/>
<path opacity="0.5" d="M-967 430H756" stroke="#5FBFFA" stroke-width="2"/>
<path opacity="0.5" d="M-967 490H756" stroke="#5FBFFA" stroke-width="2"/>
<path opacity="0.5" d="M-967 550H756" stroke="#5FBFFA" stroke-width="2"/>
<path opacity="0.5" d="M-967 610H756" stroke="#5FBFFA" stroke-width="2"/>
<rect x="752" y="-40" width="8" height="762" fill="black"/>
<g clip-path="url(#clip1_453_2)">
<path d="M628.185 662.352C623.798 662.594 619.444 663.241 615.233 664.676C608.603 666.916 601.358 670.58 597.87 676.966C594.626 684.118 596.325 692.49 602.147 697.935C611.367 706.829 635.952 714.184 660.184 707.952C670.157 705.388 684.065 698.98 683.881 686.737C683.696 674.797 670.511 667.777 660.65 664.771C654.026 662.748 647.377 662.767 640.517 662.449C636.425 662.262 632.293 662.136 628.197 662.353L628.185 662.352Z" fill="#DB433B"/>
<path d="M633.817 676.102C633.817 676.102 633.929 676.144 633.979 676.159L634.08 676.163L633.817 676.102ZM657.891 627.115C657.359 626.866 657.029 626.915 656.933 627.087C656.933 627.087 656.946 627.1 656.958 627.101C656.983 627.102 657.033 627.129 657.057 627.143C657.057 627.143 657.057 627.156 657.069 627.156C661.33 629.293 663.116 634.44 661.065 638.754C658.987 643.118 653.762 644.977 649.398 642.899C648.186 642.317 647.125 641.465 646.287 640.407C649.847 637.973 656.324 632.813 656.914 627.238C656.929 627.188 656.931 627.138 656.933 627.087C656.719 627.078 656.467 627.383 656.34 627.983C655.327 631.623 652.468 634.49 649.551 636.939C648.805 637.563 648.036 638.148 647.255 638.708L645.59 639.911C645.457 640.057 645.061 640.178 645.167 640.347L645.598 640.895C645.849 641.221 646.283 641.706 646.477 641.878C648.014 643.407 650.079 644.366 652.24 644.571C656.595 645.085 661.01 642.12 662.196 637.97C663.558 633.84 661.579 629.064 657.891 627.115ZM622.129 625.692C621.612 625.405 621.27 625.441 621.173 625.626C621.186 625.626 621.198 625.639 621.211 625.64C621.223 625.641 621.223 625.641 621.235 625.654C621.247 625.667 621.272 625.68 621.284 625.694L621.297 625.694C625.473 628.029 627.003 633.278 624.728 637.508C623.673 639.481 621.894 640.969 619.77 641.673C616.242 642.772 612.395 641.586 610.098 638.675C613.372 636.431 620.11 631.332 621.143 625.751C621.145 625.713 621.146 625.675 621.173 625.638C620.973 625.592 620.696 625.87 620.52 626.456C619.259 630.009 616.391 632.776 613.463 635.186C612.706 635.784 611.949 636.37 611.156 636.929L609.556 638.059L608.971 638.463C608.804 638.532 608.977 638.627 609.036 638.718L609.265 638.98C609.577 639.347 609.851 639.724 610.19 640.054C611.689 641.581 613.714 642.601 615.847 642.868C620.145 643.544 624.641 640.733 625.951 636.652C627.447 632.616 625.685 627.798 622.129 625.692Z" fill="black"/>
<path d="M642.772 670.202C642.087 669.996 640.704 669.886 640.129 670.354C639.594 670.785 639.21 671.5 639.018 672.148C638.9 672.547 638.809 672.921 638.673 673.155C638.497 673.438 638.27 673.718 638.02 673.96C637.031 674.977 635.59 675.344 634.417 674.752L634.318 674.697L634.268 674.695C634.268 674.695 634.317 674.723 634.342 674.736L634.092 674.688L634.268 674.695C633.749 674.446 633.311 674.062 633.003 673.594C632.837 673.348 632.697 673.077 632.608 672.808C632.553 672.617 632.416 671.98 632.117 671.589C631.562 670.72 630.511 670.209 629.473 670.303C628.449 670.36 627.474 671.038 627.03 671.978C626.51 672.927 626.826 674.113 627.1 674.781C627.37 675.549 627.768 676.272 628.232 676.935C629.171 678.275 630.475 679.339 631.961 679.995C634.928 681.409 638.689 680.762 641.063 678.63C642.281 677.585 643.207 676.262 643.751 674.759C644.047 674.027 644.158 673.2 644.142 672.379C644.122 671.659 643.814 670.902 643.241 670.449C643.07 670.315 642.922 670.233 642.772 670.189L642.772 670.202ZM633.979 676.159C633.979 676.159 633.866 676.129 633.817 676.101L634.079 676.163L633.979 676.159Z" fill="black"/>
<path d="M634.329 674.749L634.079 674.7L634.255 674.708C634.255 674.708 634.304 674.735 634.329 674.749Z" fill="black"/>
<path d="M657.891 627.116C657.359 626.866 657.029 626.915 656.933 627.087C656.719 627.078 656.467 627.383 656.34 627.983C655.327 631.623 652.468 634.49 649.551 636.939C648.805 637.563 648.036 638.148 647.255 638.708L645.59 639.911C645.457 640.057 645.061 640.179 645.167 640.347L645.598 640.895C645.849 641.221 646.282 641.706 646.477 641.879C648.014 643.407 650.079 644.366 652.24 644.571C656.595 645.085 661.01 642.12 662.196 637.97C663.558 633.84 661.579 629.064 657.891 627.116ZM657.216 628.159C657.235 627.996 657.242 627.845 657.234 627.718C657.295 627.771 657.369 627.812 657.443 627.866C660.623 629.893 662.008 634.09 660.741 637.479C659.61 640.925 655.955 643.241 652.403 642.825C650.644 642.662 648.936 641.895 647.664 640.668C647.494 640.497 647.566 640.601 647.543 640.549C647.582 640.513 647.491 640.572 647.634 640.477L648.234 640.024C649.029 639.414 649.8 638.779 650.548 638.104C653.474 635.454 656.371 632.285 657.216 628.159Z" fill="black"/>
<path d="M648.9 647.153C648.9 647.153 648.887 647.165 648.886 647.178C648.872 647.215 648.796 647.237 648.695 647.245C648.761 647.173 648.825 647.138 648.875 647.14L648.9 647.141L648.9 647.153Z" fill="black"/>
<path d="M622.129 625.692C621.612 625.405 621.269 625.44 621.173 625.626C620.973 625.592 620.696 625.87 620.52 626.455C619.258 630.009 616.391 632.775 613.463 635.186C612.705 635.784 611.949 636.37 611.156 636.929L609.556 638.059L608.971 638.463C608.804 638.532 608.977 638.627 609.036 638.718L609.264 638.98C609.577 639.347 609.851 639.724 610.19 640.054C611.689 641.581 613.714 642.601 615.847 642.868C620.145 643.543 624.641 640.733 625.95 636.652C627.447 632.616 625.685 627.798 622.129 625.692ZM621.379 626.707C621.412 626.531 621.432 626.368 621.437 626.242C621.497 626.308 621.571 626.362 621.644 626.415C624.705 628.576 625.9 632.802 624.51 636.111C623.256 639.501 619.593 641.678 616.073 641.125C614.316 640.911 612.648 640.096 611.401 638.857C610.639 639.291 613.108 637.58 614.447 636.363C617.383 633.751 620.276 630.696 621.379 626.707Z" fill="black"/>
<path d="M617.939 646.161C617.939 646.161 617.91 646.248 617.846 646.283C617.861 646.208 617.901 646.172 617.939 646.161Z" fill="black"/>
<path d="M617.939 646.161C617.939 646.161 617.91 646.248 617.846 646.283C617.861 646.208 617.901 646.172 617.939 646.161Z" fill="black"/>
<path d="M702.905 677.193C702.598 676.398 702.125 675.659 701.586 674.993C700.52 673.661 699.178 672.594 697.848 671.541C695.493 669.687 692.724 668.359 689.799 667.754C686.999 667.143 684.048 667.131 681.234 667.755C679.833 668.061 678.464 668.533 677.152 669.133C677.139 669.132 677.126 669.144 677.101 669.143C672.158 664.946 666.388 662.14 660.484 660.072C657.587 659.091 654.644 658.297 651.681 657.678C651.959 655.887 652.287 654.122 652.69 652.361C652.909 651.374 653.152 650.4 653.42 649.428L653.615 648.704C653.615 648.704 653.629 648.667 653.642 648.668C653.793 648.674 654.387 648.662 654.755 648.602C659.075 648.155 663.074 645.488 665.203 641.693C667.32 637.899 667.576 633.091 665.687 629.151C663.901 625.19 660.105 622.228 655.838 621.428C651.597 620.591 646.989 621.883 643.872 624.878C640.707 627.796 639.104 632.281 639.68 636.506C640.206 640.741 642.866 644.614 646.591 646.601C647.627 647.15 648.366 647.282 648.695 647.246C648.761 647.173 648.826 647.138 648.876 647.14L648.901 647.141L648.9 647.166C648.9 647.166 648.888 647.166 648.887 647.178C648.873 647.216 648.796 647.238 648.695 647.246C648.497 647.465 648.234 648.008 647.968 648.918C647.266 651.474 646.701 654.086 646.273 656.716C644.067 656.395 641.857 656.15 639.645 655.98C635.508 655.677 631.36 655.626 627.214 655.841L624.931 650.219L623.663 647.112L623.068 645.674C623.068 645.674 623.097 645.6 623.264 645.531C625.379 644.448 627.202 642.811 628.522 640.823C631.238 636.89 631.607 631.482 629.469 627.191C627.37 622.876 622.922 619.81 618.129 619.518C613.354 619.1 608.511 621.454 605.846 625.389C603.094 629.283 602.69 634.614 604.716 638.863C606.691 643.122 611.001 646.181 615.64 646.531C616.872 646.634 617.6 646.437 617.846 646.271C617.862 646.196 617.901 646.16 617.94 646.149C617.94 646.149 617.911 646.236 617.846 646.271C617.773 646.521 617.886 647.106 618.238 648.029L620.708 654.289L621.517 656.329C620.503 656.438 619.488 656.571 618.473 656.717C611.49 657.781 604.466 659.513 597.999 662.983C594.949 664.695 591.916 666.621 589.415 669.366C588.981 669.183 588.534 669.013 588.085 668.905C586.587 668.539 585.042 668.372 583.522 668.521C580.485 668.77 577.609 669.947 575.177 671.672C574.722 671.993 574.278 672.34 573.86 672.688C571.622 674.573 569.843 676.957 568.608 679.604C567.997 680.915 567.522 682.282 567.197 683.693C566.91 685.106 566.761 686.538 566.8 687.978C566.819 689.013 566.925 690.077 567.975 690.588C569.038 691.113 570.461 690.871 571.184 689.892C571.779 689.237 571.771 688.24 571.857 687.701C571.923 687.048 572.013 686.409 572.191 685.786C572.791 683.251 573.965 680.866 575.614 678.881C577.273 676.933 579.433 675.398 581.834 674.693C583.044 674.429 584.288 674.243 585.488 674.483C585.602 674.488 585.702 674.505 585.802 674.522C584.974 676.189 584.392 678.019 584.183 679.952C584.161 680.166 584.14 680.379 584.13 680.593C580.074 681.947 576.851 685.354 574.84 689.039C572.443 693.491 571.212 698.698 572.291 703.865C572.694 705.648 574.86 706.623 576.447 705.795C577.232 705.413 577.831 704.681 578.032 703.82C578.138 703.395 578.144 702.967 578.062 702.522L577.922 701.671C577.564 699.398 577.843 697.013 578.581 694.787C579.32 692.548 580.445 690.413 581.936 688.585C582.704 687.71 583.523 686.849 584.484 686.196C584.562 686.149 584.64 686.089 584.717 686.055C585.243 687.919 586.064 689.682 587.07 691.226C589.014 694.147 591.408 696.582 594.051 698.498C594.443 696.699 595.072 694.96 595.886 693.317C593.767 691.549 591.949 689.516 590.697 687.23C589.43 684.982 589.021 682.442 589.402 680.011C589.796 677.593 591.067 675.276 592.805 673.269C596.018 669.798 600.44 667.262 605.11 665.431C609.804 663.6 614.785 662.45 619.835 661.745C626.713 660.789 633.777 660.762 640.725 661.412C645.119 661.902 649.548 662.444 653.841 663.522C659.13 664.908 664.321 666.82 668.922 669.564C671.196 670.96 673.441 672.443 675.267 674.287C676.455 675.422 677.562 676.668 678.448 678.068C679.417 679.597 680.422 681.179 680.94 682.929C681.69 685.459 680.597 687.733 679.235 689.794C680.593 691.075 681.78 692.513 682.759 694.107C684.028 691.562 684.44 688.111 684.217 685.365C684.636 685.584 685.016 685.853 685.408 686.122C687.121 687.355 688.555 688.943 689.561 690.777C690.581 692.599 691.2 694.643 691.327 696.704C691.38 697.224 691.37 697.753 691.348 698.269C691.285 698.872 691.472 699.801 691.964 700.39C692.894 701.665 694.913 701.928 696.142 700.908C696.756 700.43 697.165 699.703 697.261 698.925C697.303 698.233 697.274 697.74 697.275 697.135C697.223 695.985 697.082 694.843 696.853 693.711C696.369 691.458 695.477 689.301 694.222 687.38C692.047 683.958 688.755 681.282 685.033 679.837C684.902 679.352 684.733 678.878 684.499 678.452C683.794 676.643 682.736 675.122 681.572 673.723L681.623 673.725C682.875 673.337 684.171 673.128 685.483 673.12C688.084 673.055 690.716 673.747 692.995 675.017C694.29 675.728 695.461 676.649 696.488 677.714C697.659 678.937 698.186 679.893 698.775 681.457C699.227 682.687 699.947 683.563 701.36 683.56C702.192 683.558 703.052 683.216 703.598 682.533C704.889 680.961 703.482 678.757 702.906 677.181L702.905 677.193ZM615.847 642.869C613.714 642.601 611.689 641.582 610.19 640.055C609.851 639.725 609.577 639.347 609.265 638.981L609.036 638.719C608.977 638.628 608.804 638.532 608.971 638.464L609.556 638.06L611.156 636.93C611.949 636.371 612.706 635.785 613.463 635.186C616.391 632.776 619.259 630.01 620.52 626.456C620.696 625.871 620.973 625.592 621.173 625.626C621.27 625.441 621.612 625.405 622.129 625.692C625.685 627.799 627.447 632.617 625.951 636.652C624.641 640.734 620.145 643.544 615.847 642.869ZM646.477 641.879C646.282 641.707 645.849 641.222 645.598 640.895L645.167 640.347C645.061 640.179 645.457 640.057 645.59 639.911L647.255 638.708C648.036 638.149 648.805 637.563 649.551 636.939C652.468 634.491 655.327 631.623 656.34 627.983C656.467 627.383 656.719 627.079 656.933 627.088C657.029 626.915 657.359 626.866 657.891 627.116C661.579 629.064 663.558 633.841 662.196 637.97C661.01 642.12 656.595 645.085 652.24 644.572C650.079 644.366 648.014 643.408 646.477 641.879Z" fill="black"/>
<path d="M681.572 673.736L680.689 674.013L679.611 674.459L679.136 674.653C678.983 674.685 678.798 674.891 678.694 674.672L677.97 673.885L677.284 673.124L675.513 671.169L674.827 670.408C674.86 670.208 675.358 670.078 675.605 669.912C676.159 669.62 676.844 669.245 677.1 669.143C677.916 669.833 678.705 670.561 679.48 671.325C680.178 672.112 680.901 672.9 681.572 673.736Z" fill="black"/>
<path d="M666.508 672.929C666.609 673.526 666.052 674.158 665.395 674.168C664.953 674.187 664.471 673.662 664.467 673.158C664.464 672.653 664.913 672.167 665.393 672.15C666.024 672.139 666.429 672.421 666.52 672.93L666.508 672.929Z" fill="black"/>
<path d="M670.019 669.257C669.802 669.336 669.566 669.528 669.367 669.482C669.079 669.419 668.98 669.087 669.178 668.868C669.311 668.71 669.603 668.672 669.821 668.593C669.887 668.81 669.953 669.04 670.007 669.257L670.019 669.257Z" fill="black"/>
<path d="M615.033 670.546C614.939 670.668 614.882 670.817 614.78 670.85C614.486 670.951 614.316 670.793 614.33 670.453C614.335 670.352 614.452 670.256 614.532 670.158C614.703 670.292 614.861 670.425 615.032 670.558L615.033 670.546Z" fill="black"/>
</g>
<rect x="1164" y="319" width="7.99999" height="142" rx="3.99999" transform="rotate(180 1164 319)" fill="black"/>
<rect x="938" y="417" width="8" height="69" rx="4" transform="rotate(90 938 417)" fill="black"/>
<rect x="1052" y="61" width="8.00001" height="163" rx="4" transform="rotate(90 1052 61)" fill="black"/>
<rect x="806" y="285" width="7.99999" height="68" rx="4" transform="rotate(180 806 285)" fill="black"/>
<rect x="806" y="365" width="8" height="46" rx="4" transform="rotate(180 806 365)" fill="black"/>
<g clip-path="url(#clip2_453_2)">
<path d="M808.308 121.194C800.923 120.698 807.666 97.8238 799.759 103.826C795.439 107.213 792.94 117.178 786.773 116.776C777.598 116.032 757.31 110.743 776.899 125.006C782.505 129.033 780.257 131.169 778.642 133.18C772.105 141.842 771.268 144.434 771.367 145.724C773.002 151.331 790.222 134.055 794.799 139.337C805.268 150.657 805.775 152.079 808.134 151.582C810.496 151.071 808.549 144.404 807.375 138.333C805.965 129.323 834.625 123.35 808.293 121.19L808.308 121.194Z" fill="black"/>
<path d="M790.889 30.8939C786.411 32.4995 784.583 17.3477 781.447 22.9091C779.764 25.9985 780.805 32.4829 777.077 33.843C771.484 35.7649 758.192 37.8755 773.344 41.2085C777.66 42.1299 776.884 43.9551 776.444 45.5588C774.792 52.322 774.949 54.0554 775.335 54.7931C777.716 57.6532 783.489 43.099 787.526 45.0309C796.554 48.9825 797.217 49.6837 798.473 48.7841C799.73 47.8845 796.903 44.4719 794.669 41.2033C791.55 36.2811 806.918 25.4209 790.865 30.9178L790.889 30.8939Z" fill="#E7BB43"/>
<path d="M841.804 64.6866C837.679 62.349 847.812 50.9475 841.609 52.2479C838.197 53.0178 834.016 58.1002 830.575 56.1562C825.488 53.1778 815.215 44.4844 822.621 58.1968C824.751 62.0766 822.882 62.7 821.403 63.4179C815.27 66.6279 814.082 67.8955 813.768 68.6748C813.179 72.3845 827.843 67.1316 829.047 71.4672C831.995 80.9262 831.899 81.9015 833.404 82.2614C834.909 82.6213 835.615 78.2103 836.593 74.3587C838.235 68.74 856.414 73.2229 841.808 64.6723L841.804 64.6866Z" fill="#F39745"/>
<path d="M741.024 72.947C736.488 71.5932 743.889 58.2249 738.108 60.8726C734.94 62.3819 731.985 68.2531 728.184 67.1363C722.566 65.3702 710.644 59.1795 720.862 70.8904C723.801 74.1976 722.099 75.2209 720.815 76.2532C715.531 80.7438 714.64 82.2489 714.514 83.0732C714.756 86.8153 727.92 78.4362 730.037 82.406C734.989 90.9705 735.113 91.9384 736.648 91.9622C738.188 91.9717 737.909 87.5255 738.036 83.5566C738.409 77.717 757.15 78.0413 741.005 72.9566L741.024 72.947Z" fill="#64A03D"/>
</g>
<g clip-path="url(#clip3_453_2)">
<path d="M1093.72 18.2192C1100.12 17.0897 1111.33 17.9912 1115.13 18.1247C1137.82 18.8036 1149.05 13.669 1149.39 19.6925C1149.74 25.2354 1119.86 25.6066 1095.75 24.5544C1090.48 24.2284 1089.37 18.9646 1093.69 18.221L1093.72 18.2286L1093.72 18.2192Z" fill="#E7BB43"/>
<path d="M1115 63.1956C1114.42 58.8268 1115.09 62.8392 1144.63 52.2624C1148.8 50.8448 1155.32 44.9814 1157.56 49.5318C1160.04 54.963 1115.89 70.6847 1114.95 63.3032L1115.01 63.1888L1115 63.1956Z" fill="#E7BB43"/>
<path d="M1177.43 89.7181C1157.9 108.256 1144.27 127.187 1139.43 123.709C1138.32 122.698 1138.24 120.977 1139.26 119.861C1139.31 119.796 1139.38 119.733 1139.45 119.671C1151.76 107.465 1156 102.467 1173.92 86.3333C1176.34 84.1884 1181.16 86.2243 1177.37 89.8231L1177.43 89.7087L1177.43 89.7181Z" fill="#E7BB43"/>
<path d="M1206.91 124.384C1206.56 125.688 1201.91 138.498 1198.23 143.115C1196.04 145.904 1191.05 144.155 1193.68 139.05C1199.03 128.558 1205.83 106.329 1210.85 108.919C1214.73 110.944 1209.27 117.839 1206.91 124.384Z" fill="#E7BB43"/>
<path d="M1222.28 99.1912C1191 87.2602 1170.19 66.6921 1165.64 33.027C1162.21 7.87498 1166.52 -9.33125 1170.58 -7.53923C1176.68 -4.88999 1167.84 2.68666 1172.59 32.3758C1177.4 63.0129 1196.57 82.8414 1223.11 93.4023C1226.52 94.6978 1225.73 100.419 1222.28 99.1912Z" fill="#E7BB43"/>
</g>
<g clip-path="url(#clip4_453_2)">
<path d="M893.487 521.37C893.487 525.925 888.157 532.441 882.828 535.902C882.645 536.039 882.555 536.129 882.555 536.222C882.555 536.315 882.691 536.311 882.964 536.311C883.1 536.311 885.242 536.175 886.472 536.175C887.157 536.175 887.792 536.175 888.34 536.222C888.842 536.268 889.251 536.631 889.341 537.086C889.567 538.044 889.843 539.819 890.026 541.186C890.026 541.641 889.707 541.96 889.205 542.007C886.335 542.19 877.179 542.735 874.263 542.871C873.761 542.871 873.216 542.689 872.986 542.233C872.531 541.232 871.756 538.406 871.756 538.041C871.756 537.632 871.986 537.219 872.302 536.993C881.049 531.571 887.107 523.006 887.2 519.864C887.153 518.497 886.106 517.995 885.105 517.995C883.509 517.995 881.006 519.681 879.137 522.643C879.001 522.869 878.772 523.009 878.499 523.009C878.226 523.009 877.954 522.826 877.954 522.826C876.906 522.144 875.676 521.14 874.991 520.366C874.765 520.14 874.626 519.82 874.626 519.455C874.626 519.318 874.672 519.089 874.715 518.953C875.58 516.812 878.998 512.164 883.463 512.164C887.609 512.164 893.487 516.675 893.487 521.367V521.37Z" fill="black"/>
<path d="M895.492 538.409C894.398 536.587 894.079 533.807 894.079 531.483C894.079 525.469 897.314 512.349 905.832 512.349C907.654 512.349 912.711 514.354 914.443 517.316C915.444 519.048 915.81 521.233 915.81 523.331C915.81 530.12 912.349 542.921 903.964 542.921C902.188 542.921 897.494 541.325 895.489 538.409H895.492ZM900.549 532.484C900.549 536.085 901.779 537.132 903.009 537.132C906.381 537.132 909.207 528.338 909.207 521.961C909.207 518.819 908.206 517.952 907.112 517.952C903.83 517.952 900.552 526.197 900.552 532.484H900.549Z" fill="black"/>
<path d="M936.676 521.37C936.676 525.925 931.347 532.441 926.017 535.902C925.834 536.039 925.744 536.129 925.744 536.222C925.744 536.315 925.881 536.311 926.153 536.311C926.29 536.311 928.431 536.175 929.661 536.175C930.346 536.175 930.981 536.175 931.529 536.222C932.031 536.268 932.44 536.631 932.53 537.086C932.757 538.044 933.032 539.819 933.215 541.186C933.215 541.641 932.896 541.96 932.394 542.007C929.525 542.19 920.368 542.735 917.452 542.871C916.95 542.871 916.405 542.689 916.176 542.233C915.72 541.232 914.945 538.406 914.945 538.041C914.945 537.632 915.175 537.219 915.491 536.993C924.238 531.571 930.296 523.006 930.389 519.864C930.343 518.497 929.295 517.995 928.294 517.995C926.699 517.995 924.195 519.681 922.326 522.643C922.19 522.869 921.961 523.009 921.688 523.009C921.415 523.009 921.143 522.826 921.143 522.826C920.095 522.144 918.865 521.14 918.18 520.366C917.954 520.14 917.815 519.82 917.815 519.455C917.815 519.318 917.861 519.089 917.905 518.953C918.769 516.812 922.187 512.164 926.652 512.164C930.798 512.164 936.676 516.675 936.676 521.367V521.37Z" fill="black"/>
<path d="M955.355 529.432C955.9 529.432 956.13 529.798 956.22 530.253C956.402 531.301 956.629 533.306 956.629 534.536C956.629 534.945 956.356 535.357 955.854 535.357C955.628 535.357 953.849 535.403 953.623 535.403C953.078 535.403 952.802 535.812 952.712 536.268C952.439 538.226 952.12 540.185 951.891 542.1C951.844 542.555 951.525 542.828 951.116 542.828C950.341 542.828 947.608 542.007 946.697 541.644C946.152 541.461 945.876 540.959 945.876 540.504C945.923 539.456 946.195 536.677 946.195 536.494C946.195 536.128 945.923 535.902 945.604 535.902C944.556 535.902 938.452 536.494 938.086 536.494C937.541 536.494 937.129 536.268 936.946 535.856C936.49 534.945 935.49 532.119 935.49 531.437C935.49 531.028 935.626 530.573 935.855 530.297C939.137 525.925 946.195 515.764 948.337 512.985C948.563 512.712 948.839 512.529 949.201 512.529C949.61 512.529 950.478 513.121 950.797 513.121C950.98 513.121 951.116 513.031 951.206 512.848C951.342 512.575 951.661 512.346 952.027 512.346C952.572 512.346 955.671 513.211 956.855 513.623C957.22 513.759 957.357 514.078 957.357 514.398C957.357 514.487 957.31 514.717 957.31 514.717C956.489 517.177 955.216 522.234 954.029 528.475C954.029 528.475 953.982 528.747 953.982 528.884C953.982 529.156 954.165 529.429 954.484 529.429H955.349L955.355 529.432ZM942.784 529.888C942.784 530.024 942.92 530.16 943.149 530.16C943.239 530.16 945.337 529.934 946.431 529.841C946.886 529.795 947.159 529.569 947.252 529.113C947.754 526.287 948.665 521.868 948.665 521.549C948.665 521.413 948.665 521.323 948.619 521.323C948.529 521.323 948.392 521.506 948.392 521.506C947.847 522.234 943.382 528.887 942.926 529.569C942.836 529.705 942.79 529.795 942.79 529.888H942.784Z" fill="black"/>
<path d="M951.652 622.978C950.332 622.249 947.915 619.879 946.595 618.513C946.276 618.193 946.14 617.784 946.14 617.372C946.14 613.954 948.51 602.384 949.647 598.374C949.694 598.191 949.694 597.965 949.694 597.782C949.694 596.825 949.511 595.322 949.511 595.049C949.511 594.684 949.694 594.368 950.056 594.228C952.607 593.134 955.705 592.406 957.664 592.406C964.679 592.406 970.284 599.97 970.284 605.709C970.284 614.683 962.448 622.612 953.338 623.247C952.746 623.247 952.154 623.201 951.652 622.975V622.978ZM963.997 603.707C963.997 600.289 961.128 598.241 958.029 598.241C957.71 598.241 957.437 598.241 957.118 598.288C956.573 598.377 956.297 598.607 956.207 599.062C955.113 603.527 953.657 609.861 952.746 615.872C952.746 615.872 952.7 616.145 952.7 616.238C952.7 616.604 952.926 616.74 953.338 616.74C956.756 616.74 963.997 612.321 963.997 603.71V603.707Z" fill="black"/>
<path d="M994.293 595.415V596.555C994.293 604.345 991.696 623.297 982.084 623.297C978.304 623.297 974.52 620.747 973.2 618.878C972.199 617.465 971.744 615.141 971.744 613C971.744 605.529 974.613 596.373 976.073 593.636C976.345 593.181 976.665 592.908 977.256 592.908C978.121 592.908 980.538 593.683 981.675 594.092C982.041 594.228 982.22 594.637 982.22 595.003C982.22 595.232 982.131 595.505 982.131 595.505C980.309 600.426 978.257 608.99 978.257 613.273C978.257 615.643 978.713 617.282 980.535 617.282C983.131 617.282 984.591 613.409 985.775 608.671C987.141 603.248 987.962 596.233 988.189 593.866C988.235 593.41 988.554 593.138 988.963 593.138C989.648 593.138 992.381 593.822 993.475 594.231C994.02 594.458 994.25 594.96 994.296 595.415H994.293Z" fill="black"/>
<path d="M1009.56 612.179C1009.56 612.405 1009.69 612.588 1009.69 612.588C1011.24 615.002 1013.06 617.599 1014.57 618.922C1014.75 619.105 1014.84 619.331 1014.84 619.56C1014.84 619.743 1014.75 619.926 1014.61 620.106C1013.61 621.063 1011.7 622.476 1010.38 623.068C1010.38 623.068 1010.2 623.158 1009.92 623.158C1009.51 623.158 1009.15 622.975 1008.92 622.792C1006.41 620.651 1004.41 616.096 1003.64 613.406C1003.45 612.951 1003.27 612.632 1002.91 612.632H1002.36C1001.91 612.632 1001.72 612.858 1001.68 613.316C1001.13 616.369 1000.68 619.511 1000.36 622.473C1000.27 622.928 999.948 623.201 999.536 623.201C998.578 623.201 995.253 622.154 994.934 622.017C994.249 621.745 994.16 621.333 994.113 620.877C994.203 615.684 996.344 604.612 998.076 597.916C998.166 597.55 998.166 597.371 998.166 597.188C998.166 596.413 997.94 595.456 997.94 595.093C997.94 594.684 998.259 594.318 998.578 594.182C1000.35 593.454 1003.41 592.543 1007.19 592.543C1013.07 592.543 1017.76 598.74 1017.76 602.657C1017.76 606.574 1014.43 610.085 1010.06 611.631C1009.74 611.767 1009.56 611.903 1009.56 612.176V612.179ZM1004.68 599.059C1004.5 599.698 1002.86 606.53 1002.86 606.986C1002.86 607.305 1003.04 607.441 1003.36 607.441C1007.6 607.441 1010.97 604.299 1010.97 601.563C1010.97 599.193 1009.05 598.192 1006.82 598.192C1006.46 598.192 1006.1 598.192 1005.73 598.238C1005.14 598.285 1004.82 598.604 1004.68 599.059Z" fill="black"/>
<path d="M1037.76 592.726C1038.49 592.726 1041.58 593.59 1042.73 594.002C1043.04 594.139 1043.27 594.458 1043.27 594.823C1043.27 594.96 1043.22 595.096 1043.22 595.096C1041.77 599.242 1038.9 611.68 1037.66 622.476C1037.62 622.931 1037.3 623.161 1036.94 623.161C1036.03 623.161 1032.79 622.203 1032.29 622.02C1031.7 621.794 1031.51 621.382 1031.47 620.837C1031.47 618.832 1032.11 614.503 1032.11 614.23C1032.11 613.865 1031.83 613.592 1031.38 613.592C1029.83 613.682 1027.82 613.728 1026.09 613.775C1025.59 613.775 1025.27 614.184 1025.18 614.596C1024.72 617.239 1024.32 619.882 1024.04 622.479C1023.99 622.934 1023.63 623.164 1023.27 623.164C1022.31 623.164 1019.17 622.253 1018.62 622.023C1018.16 621.841 1017.89 621.385 1017.84 620.84C1017.93 618.562 1018.53 614.097 1018.53 613.914C1018.53 613.642 1018.44 613.505 1018.3 613.369C1018.21 613.233 1018.07 613.096 1017.98 612.824C1017.8 612.142 1017.66 610.912 1017.61 609.998C1017.61 609.406 1017.75 609.176 1018.57 608.95C1019.21 608.767 1019.48 608.448 1019.57 608.039C1020.67 601.842 1022.22 595.694 1023.17 593.37C1023.35 593.004 1023.67 592.778 1024.08 592.778C1024.9 592.778 1028.04 593.599 1029.09 594.008C1029.41 594.098 1029.64 594.51 1029.64 594.873C1029.64 595.009 1029.55 595.282 1029.55 595.282C1028.73 597.47 1027.68 601.659 1026.54 607.035C1026.54 607.035 1026.49 607.261 1026.49 607.401C1026.49 607.72 1026.77 607.993 1027.13 607.993C1027.32 607.993 1031.46 607.856 1032.37 607.856C1032.83 607.856 1033.24 607.537 1033.33 607.082C1034.47 601.25 1035.88 595.601 1036.84 593.37C1036.97 593.004 1037.34 592.732 1037.75 592.732L1037.76 592.726Z" fill="black"/>
<path d="M1042.45 615.278C1042.45 614.732 1041.67 612.817 1041.67 611.996C1041.67 611.541 1041.9 611.222 1042.4 611.132C1042.9 611.042 1043.5 610.906 1043.5 610.906C1044.14 610.769 1044.32 610.54 1044.59 609.995C1047 605.21 1050.92 596.054 1052.97 593.64C1053.25 593.321 1053.56 593.231 1053.88 593.231C1054.34 593.231 1055.16 593.55 1055.43 593.55C1055.8 593.55 1056.16 593.324 1056.21 592.958C1056.25 592.639 1056.43 592.366 1056.8 592.366C1057.44 592.366 1060.67 593.507 1061.4 593.869C1061.9 594.098 1062.22 594.554 1062.31 595.099C1062.81 597.696 1063.04 605.396 1063.04 612.229C1063.04 616.557 1062.9 620.474 1062.67 622.526C1062.63 622.891 1062.31 623.21 1061.76 623.21C1060.99 623.21 1057.75 622.708 1056.94 622.436C1056.48 622.299 1056.21 621.89 1056.21 621.252C1056.21 620.205 1056.34 616.88 1056.34 616.148C1056.34 615.739 1056.07 615.464 1055.62 615.464C1053.56 615.464 1050.29 615.646 1049.74 615.693C1049.19 615.739 1048.96 615.966 1048.69 616.514C1047.83 618.426 1047.05 620.886 1046.37 622.482C1046.18 622.848 1045.86 623.027 1045.54 623.027C1044.82 623.027 1042.13 621.751 1041.4 621.252C1041.08 621.026 1040.85 620.75 1040.85 620.341C1040.85 620.112 1040.9 619.975 1040.9 619.975L1042.36 615.829C1042.45 615.603 1042.45 615.464 1042.45 615.284L1042.45 615.278ZM1051.38 609.629C1051.38 609.902 1051.56 609.995 1052.02 609.995C1053.16 609.995 1055.02 609.948 1055.62 609.948C1056.12 609.948 1056.39 609.722 1056.48 609.084C1056.53 608.083 1056.53 607.032 1056.53 605.985C1056.53 603.478 1056.44 601.064 1056.39 599.608C1056.39 599.335 1056.3 599.199 1056.21 599.199C1056.11 599.199 1056.02 599.289 1055.93 599.471C1054.79 601.932 1053.2 605.529 1051.47 609.356C1051.47 609.356 1051.38 609.539 1051.38 609.629Z" fill="black"/>
<path d="M1070.92 623.204C1069.97 623.204 1067.14 622.34 1066.41 622.064C1065.82 621.835 1065.64 621.379 1065.59 620.88C1065.82 614.274 1069.28 597.69 1071.15 593.5C1071.33 593.091 1071.83 592.816 1072.38 592.816C1073.02 592.816 1077.76 593.773 1079.71 594.591C1080.22 594.817 1080.26 595.319 1080.26 595.775C1080.31 597.55 1080.31 604.339 1080.26 608.532C1080.26 608.715 1080.31 608.898 1080.4 608.898C1080.49 608.898 1080.62 608.578 1080.62 608.578C1082.53 603.794 1084.68 597.69 1086.86 593.318C1087.09 592.952 1087.45 592.679 1087.96 592.679C1089.37 592.679 1094.47 594.046 1095.98 594.731C1096.38 594.867 1096.57 595.233 1096.57 595.595C1096.57 595.731 1096.52 595.868 1096.52 595.868C1095.02 600.516 1092.33 612.133 1091.14 622.519C1091.1 622.928 1090.74 623.204 1090.32 623.204C1089.6 623.204 1086.59 622.476 1085.72 622.064C1085.18 621.791 1084.95 621.379 1084.9 620.88C1084.9 616.415 1087.73 604.343 1087.73 603.797C1087.73 603.707 1087.68 603.614 1087.64 603.614C1087.59 603.614 1087.5 603.704 1087.41 603.887C1085.63 607.943 1084.08 612.907 1081.99 618.42C1081.85 618.785 1081.44 619.105 1081.03 619.105C1080.35 619.105 1077.66 618.24 1076.47 617.692C1075.93 617.419 1075.7 616.87 1075.65 616.415C1075.15 612.861 1075.29 607.485 1075.15 603.704C1075.1 603.475 1075.06 603.385 1075.01 603.385C1074.97 603.385 1074.88 603.475 1074.83 603.658C1073.65 608.851 1072.51 615.867 1071.78 622.519C1071.69 622.928 1071.32 623.204 1070.91 623.204H1070.92Z" fill="black"/>
<path d="M843.763 540.553C844.891 540.553 849.52 541.929 850.335 542.369C850.772 542.62 851.085 543.057 851.085 543.559C851.085 543.683 851.023 543.934 851.023 543.934C848.894 549.942 844.702 567.279 842.762 582.928C842.7 583.554 842.198 583.928 841.634 583.928C840.633 583.928 837.504 583.052 836.565 582.677C836.001 582.426 835.564 581.927 835.502 581.05L835.378 578.983C835.378 578.67 835.254 578.357 835.065 578.357C834.941 578.357 834.814 578.419 834.628 578.67C832.626 581.611 830.246 584.114 828.245 584.114C823.863 584.114 818.918 578.419 818.918 572.786C818.918 562.52 824.176 552.006 832.062 552.006C833.503 552.006 835.443 552.756 837.445 553.822C837.445 553.822 837.758 554.011 837.947 554.011C838.322 554.011 838.573 553.76 838.697 553.196C840.01 547.752 841.262 543.683 842.328 541.427C842.579 540.925 843.143 540.55 843.769 540.55L843.763 540.553ZM835.189 570.787C835.877 567.533 837.067 561.649 837.067 561.147C837.067 560.71 836.878 560.332 836.379 560.146C835.502 559.833 834.69 559.644 834.188 559.644C830.119 559.644 827.867 568.218 827.867 572.538C827.867 574.354 828.304 575.605 828.868 575.605C830.181 575.605 832.561 573.917 834.377 572.225C834.879 571.788 835.127 571.224 835.192 570.784L835.189 570.787Z" fill="black"/>
<path d="M857.846 549.695C861.602 549.695 863.917 547.315 863.917 543.999C863.917 540.306 860.285 538.803 857.282 538.803C856.656 538.803 855.718 539.116 855.281 539.429C853.967 540.492 852.588 542.183 852.588 544.374C852.588 547.253 854.215 549.695 857.846 549.695Z" fill="black"/>
<path d="M878.378 581.177L878.189 578.549C878.189 578.236 878.065 578.047 877.938 578.047C877.811 578.047 877.687 578.171 877.563 578.36C875.372 581.865 872.869 584.118 870.929 584.118C866.485 584.118 861.54 578.673 861.54 572.789C861.54 562.337 866.547 552.009 875.186 552.009C878.254 552.009 884.513 554.451 889.019 557.392C889.456 557.643 889.769 558.142 889.769 558.705C889.769 558.895 889.645 559.393 889.645 559.393C887.141 568.28 886.264 577.982 886.14 582.99C886.078 583.554 885.638 583.991 885.077 583.991C883.451 583.991 880.008 583.052 879.506 582.801C878.691 582.364 878.443 581.8 878.378 581.174V581.177ZM877.814 570.787C878.502 567.534 879.692 561.649 879.692 561.147C879.692 560.71 879.503 560.332 879.004 560.146C878.127 559.833 877.315 559.644 876.813 559.644C872.745 559.644 870.492 568.218 870.492 572.538C870.492 574.354 870.929 575.606 871.493 575.606C872.807 575.606 875.186 573.917 877.002 572.225C877.504 571.788 877.752 571.224 877.817 570.784L877.814 570.787Z" fill="black"/>
<path d="M911.298 552.133C914.428 552.133 918.933 556.704 918.933 559.833C918.933 562.65 916.554 575.733 914.614 583.055C914.425 583.557 913.864 584.056 913.3 584.056C911.859 584.056 908.169 582.68 906.79 581.927C906.288 581.614 906.04 581.05 906.04 580.486C906.04 580.235 906.102 579.922 906.102 579.922C906.102 579.922 909.293 566.777 909.293 562.771C909.293 561.708 909.104 561.017 908.667 561.017C907.729 561.017 905.036 562.52 902.721 564.896C902.095 565.522 901.782 566.272 901.658 566.898C900.53 572.532 899.155 579.541 898.405 582.983C898.281 583.547 897.779 583.984 897.215 583.984C895.839 583.984 891.705 582.608 890.832 582.168C890.268 581.855 890.017 581.353 890.017 580.793C890.017 580.356 893.772 558.197 894.522 553.066C894.646 552.44 895.21 552.003 895.774 552.003C896.462 552.003 900.592 552.753 901.782 553.255C902.47 553.568 902.91 554.256 902.91 554.944C902.91 555.569 902.972 556.508 902.972 557.447C902.972 557.822 903.096 558.011 903.223 558.011C903.412 558.011 903.66 557.698 903.66 557.698C906.164 554.507 909.042 552.127 911.295 552.127L911.298 552.133Z" fill="black"/>
<path d="M934.145 552.009C936.961 552.009 943.847 554.702 947.853 557.268C948.29 557.581 948.541 558.145 948.541 558.709C948.541 558.96 948.479 559.211 948.479 559.211C947.165 564.593 945.473 574.983 943.974 582.556C943.224 586.435 940.218 595.511 930.956 595.511C928.703 595.511 924.697 594.26 922.757 592.819C922.193 592.444 922.007 592.004 922.007 591.505C922.007 590.755 922.884 587.749 923.197 587.061C923.386 586.624 923.761 586.373 924.198 586.373C924.322 586.373 924.573 586.435 924.7 586.497C926.578 587.312 928.205 587.625 929.395 587.625C934.526 587.625 936.091 581.93 936.091 579.299C936.091 578.986 935.967 578.797 935.84 578.797C935.713 578.797 935.651 578.859 935.465 579.11C933.587 581.738 931.396 583.681 929.58 583.681C925.137 583.681 920.38 578.484 920.38 572.414C920.38 561.897 925.701 552.009 934.151 552.009H934.145ZM936.648 570.787C937.336 567.534 938.526 561.649 938.526 561.147C938.526 560.71 938.337 560.332 937.838 560.146C936.961 559.833 936.15 559.644 935.648 559.644C931.579 559.644 929.326 568.218 929.326 572.538C929.326 574.354 929.763 575.606 930.327 575.606C931.641 575.606 934.021 573.917 935.837 572.225C936.339 571.788 936.587 571.224 936.648 570.784V570.787Z" fill="black"/>
<path d="M976.522 564.652C976.522 570.223 973.141 584.118 963.065 584.118C960.248 584.118 954.927 582.553 952.049 579.485C950.295 577.607 949.421 574.729 949.421 571.224C949.421 564.088 953.614 551.947 962.253 551.947C965.506 551.947 971.391 554.389 974.083 557.079C975.71 558.767 976.463 561.773 976.525 564.339V564.652H976.522ZM967.381 563.902C967.381 561.085 966.504 559.207 964.815 559.207C961.373 559.207 958.432 567.407 958.432 572.414C958.432 574.918 959.247 576.733 961.06 576.733C964.877 576.733 967.381 568.658 967.381 563.902Z" fill="black"/>
<path d="M993.67 565.903C993.67 565.401 994.485 562.399 994.485 561.209C994.485 560.019 994.172 559.269 993.295 559.269C990.54 559.269 987.036 565.842 987.036 570.911C987.036 573.979 988.412 575.856 990.729 575.856C992.92 575.856 995.3 574.979 997.051 573.979C997.051 573.979 997.302 573.855 997.553 573.855C997.99 573.855 998.241 574.044 998.492 574.481C998.929 575.296 1000.12 577.861 1000.12 578.738C1000.12 579.426 999.867 579.928 999.493 580.303C997.24 582.305 994.296 584.121 990.791 584.121C988.725 584.121 982.967 582.432 980.588 579.426C978.899 577.297 978.022 574.608 978.022 571.165C978.022 562.402 983.779 551.95 990.915 551.95C993.357 551.95 1002.99 555.269 1002.99 560.338C1002.99 561.841 1001.8 564.844 1001.18 565.848C1000.87 566.35 1000.36 566.725 999.675 566.787C998.674 566.849 996.044 566.849 994.606 566.849C994.042 566.787 993.667 566.412 993.667 565.91L993.67 565.903Z" fill="black"/>
<path d="M1031.04 564.652C1031.04 570.223 1027.66 584.118 1017.58 584.118C1014.76 584.118 1009.44 582.553 1006.56 579.485C1004.81 577.607 1003.94 574.729 1003.94 571.224C1003.94 564.088 1008.13 551.947 1016.77 551.947C1020.02 551.947 1025.91 554.389 1028.6 557.079C1030.22 558.767 1030.98 561.773 1031.04 564.339V564.652H1031.04ZM1021.9 563.902C1021.9 561.085 1021.02 559.207 1019.33 559.207C1015.89 559.207 1012.95 567.407 1012.95 572.414C1012.95 574.918 1013.76 576.733 1015.58 576.733C1019.4 576.733 1021.9 568.658 1021.9 563.902Z" fill="black"/>
<path d="M1053.01 552.133C1056.14 552.133 1060.64 556.704 1060.64 559.833C1060.64 562.65 1058.26 575.733 1056.33 583.055C1056.14 583.557 1055.58 584.056 1055.01 584.056C1053.57 584.056 1049.88 582.68 1048.5 581.927C1048 581.614 1047.75 581.05 1047.75 580.486C1047.75 580.235 1047.81 579.922 1047.81 579.922C1047.81 579.922 1051 566.777 1051 562.771C1051 561.708 1050.82 561.017 1050.38 561.017C1049.44 561.017 1046.75 562.52 1044.43 564.896C1043.81 565.522 1043.49 566.272 1043.37 566.898C1042.24 572.532 1040.87 579.541 1040.12 582.983C1039.99 583.547 1039.49 583.984 1038.93 583.984C1037.55 583.984 1033.42 582.608 1032.54 582.168C1031.98 581.855 1031.73 581.353 1031.73 580.793C1031.73 580.356 1035.48 558.197 1036.23 553.066C1036.36 552.44 1036.92 552.003 1037.49 552.003C1038.17 552.003 1042.3 552.753 1043.49 553.255C1044.18 553.568 1044.62 554.256 1044.62 554.944C1044.62 555.569 1044.68 556.508 1044.68 557.447C1044.68 557.822 1044.81 558.011 1044.93 558.011C1045.12 558.011 1045.37 557.698 1045.37 557.698C1047.88 554.507 1050.75 552.127 1053.01 552.127L1053.01 552.133Z" fill="black"/>
<path d="M1070.47 578.924C1070.47 581.992 1068.53 584.244 1065.34 584.244C1062.15 584.244 1060.71 581.865 1060.71 579.299C1060.71 577.108 1061.52 575.98 1062.9 574.728C1063.27 574.353 1064.03 574.041 1064.65 574.041C1067.47 574.041 1070.47 575.605 1070.47 578.924H1070.47Z" fill="black"/>
<path d="M1102.39 555.263C1102.39 555.514 1102.27 555.889 1102.27 555.889C1099.45 565.089 1097.95 577.421 1097.76 582.99C1097.76 583.554 1097.33 584.052 1096.76 584.052C1095.45 584.052 1092.51 583.237 1091.63 582.863C1091.01 582.612 1090.57 582.048 1090.38 581.174C1090.26 580.672 1090.19 579.172 1090.13 578.168C1090.13 577.731 1090 577.48 1089.82 577.48C1089.63 577.48 1089.44 577.855 1089.44 577.855C1087.19 581.611 1084.37 584.176 1082.05 584.176C1078.36 584.176 1073.48 579.169 1073.48 574.223C1073.48 566.588 1076.17 557.261 1077.74 553.382C1077.93 552.88 1078.42 552.443 1078.99 552.443C1079.87 552.443 1083.87 554.008 1085.31 554.823C1085.75 555.074 1086.06 555.511 1086.06 556.013C1086.06 556.45 1085.94 556.828 1085.94 556.828C1084.68 560.521 1082.3 570.161 1082.3 573.852C1082.3 574.791 1082.43 575.354 1082.81 575.354C1084.37 575.354 1087.31 573.226 1089.38 570.536C1089.75 570.034 1089.94 569.597 1090.07 568.847C1090.88 563.276 1092.51 556.58 1093.63 553.326C1093.82 552.762 1094.38 552.325 1095.01 552.325C1095.95 552.325 1099.58 553.326 1101.46 554.141C1101.96 554.33 1102.4 554.767 1102.4 555.269L1102.39 555.263Z" fill="black"/>
<path d="M1113.41 552.009C1116.85 552.009 1127.18 555.201 1127.18 559.833C1127.18 561.46 1125.93 563.964 1125.43 564.652C1124.92 565.34 1124.3 565.529 1123.74 565.591H1119.04C1118.42 565.591 1118.1 565.154 1118.1 564.776C1118.1 564.274 1118.73 562.647 1118.73 561.395C1118.73 559.706 1117.98 558.829 1117.04 558.829C1114.91 558.829 1113.03 562.334 1113.03 564.026C1113.03 568.345 1124.93 567.345 1124.93 574.543C1124.93 579.048 1120.48 584.183 1114.1 584.183C1110.34 584.183 1104.83 582.367 1102.83 580.551C1102.27 580.049 1102.14 579.612 1102.14 579.299C1102.14 578.484 1102.89 575.733 1103.46 574.543C1103.71 573.979 1103.96 573.793 1104.33 573.793C1104.71 573.793 1104.96 574.044 1105.08 574.044C1107.27 575.234 1110.34 576.861 1112.91 576.861C1114.35 576.861 1115.66 576.359 1115.79 575.358C1115.79 572.73 1103.7 572.417 1103.7 564.28C1103.7 559.273 1108.27 552.012 1113.41 552.012L1113.41 552.009Z" fill="black"/>
<path d="M861.038 554.699C861.038 557.202 856.845 578.673 855.969 582.742C855.922 582.946 855.872 583.16 855.82 583.374C855.81 583.374 855.801 583.374 855.792 583.377C854.8 587.582 851.609 595.508 842.951 595.508C840.698 595.508 836.692 594.256 834.752 592.818C834.188 592.444 834.002 592.004 834.002 591.505C834.002 590.752 834.879 587.749 835.192 587.058C835.378 586.621 835.753 586.37 836.193 586.37C836.317 586.37 836.568 586.432 836.692 586.497C838.57 587.309 840.199 587.622 841.386 587.622C842.703 587.622 843.98 587.213 845.012 586.389C845.48 586.017 845.885 585.574 846.236 585.09C846.954 584.099 847.134 582.866 847.348 581.691C847.596 580.331 847.844 578.967 848.086 577.604C848.488 575.339 848.876 573.074 849.263 570.809C849.678 568.373 850.087 565.938 850.499 563.502C850.868 561.314 851.237 559.13 851.618 556.945C851.832 555.718 852.027 554.482 852.275 553.258C852.402 552.632 852.963 552.192 853.654 552.192C854.528 552.192 858.348 552.818 860.037 553.258C860.601 553.444 861.038 554.07 861.038 554.696V554.699Z" fill="black"/>
</g>
<g clip-path="url(#clip5_453_2)">
<path d="M835.459 509.986C847.845 509.986 857.885 499.963 857.885 487.599C857.885 475.235 847.845 465.212 835.459 465.212C823.073 465.212 813.033 475.235 813.033 487.599C813.033 499.963 823.073 509.986 835.459 509.986Z" fill="#B989C9"/>
<path d="M822.651 477.747C817.549 479.458 820.362 487.86 825.464 485.637C830.775 484.029 827.231 475.597 822.651 477.747Z" fill="black"/>
<path d="M849.887 483.299C849.594 483.288 849.312 483.33 849.04 483.424C848.768 483.518 848.517 483.675 848.308 483.873C848.099 484.071 847.921 484.301 847.806 484.562C847.681 484.823 847.618 485.104 847.608 485.397C847.127 493.485 835.919 498.808 829.395 492.828C827.095 490.939 824.293 494.539 826.509 496.126C842.046 509.088 858.303 485.971 849.897 483.299H849.887Z" fill="black"/>
<path d="M825.798 458.366C811.715 463.083 802.734 481.107 809.059 494.456C818.521 518.627 853.358 517.458 863.029 494.56C872.48 473.05 847.106 449.724 825.798 458.366ZM843.865 506.51C814.946 516.853 797.005 473.468 827.251 462.572C856.4 452.062 875.136 495.322 843.865 506.51Z" fill="black"/>
<path d="M840.916 477.225C846.019 479.01 848.601 471.318 843.687 469.105C838.742 467.529 835.637 475.221 840.916 477.225Z" fill="black"/>
</g>
<g clip-path="url(#clip6_453_2)">
<path d="M1064.07 508.213C1065.89 506.754 1067.29 504.83 1068.1 502.646C1069.8 496.873 1061.17 496.167 1057.47 497.041C1055.97 497.385 1054.53 497.942 1053.18 498.695C1049.46 497.338 1045.7 496.093 1041.9 494.977C1042.6 494.782 1043.29 494.578 1043.98 494.364C1049.53 492.616 1054.3 488.889 1054.27 483.117C1059.73 482.345 1063.8 477.716 1063.87 472.204C1063.81 471.33 1063.64 470.484 1063.33 469.667C1063.95 469.416 1064.56 469.118 1065.13 468.793C1070.03 465.967 1075.76 458.81 1071.46 453.233C1068.12 448.91 1061.56 448.399 1056.55 448.687C1050.32 448.855 1044.36 451.299 1039.79 455.547C1037.34 458.113 1035.14 460.92 1033.26 463.922C1031.25 466.739 1029.38 469.648 1027.68 472.66C1026.51 457.174 1011.96 454.283 1005.08 463.587C1003.19 463.29 1001.31 463.095 999.392 463.002C987.298 462.407 988.292 466.943 998.285 474.128C999.42 474.937 1000.55 475.718 1001.72 476.48C993.312 493.76 997.69 512.833 1017.81 519.99C1028.47 523.513 1040.19 521.329 1048.88 514.218C1055.84 517.193 1071.71 523.272 1071.8 515.64C1071.84 512.034 1067.44 509.459 1064.08 508.204L1064.07 508.213ZM1055.79 466.45C1056.86 466.506 1057.88 466.897 1058.72 467.547C1058.94 467.715 1059.16 467.9 1059.36 468.096C1054.95 468.598 1052.32 466.339 1055.79 466.45ZM1048.81 480.467C1041.12 478.646 1048.87 476.08 1051.21 480.793C1050.4 480.746 1049.6 480.644 1048.81 480.467Z" fill="#DB433B"/>
<path d="M1006.76 466.023C1006.57 466.107 1006.34 466.134 1006.13 466.107C1003.78 465.707 1001.4 465.447 999.02 465.344C996.872 465.121 994.716 465.326 992.643 465.948C993.414 467.092 994.344 468.124 995.413 468.997C998.388 471.47 1001.5 473.756 1004.76 475.848C1005.63 472.622 1006.3 469.351 1006.76 466.041V466.023Z" fill="#E7BB43"/>
<path d="M1070.01 470.122L1070.62 469.824C1071.03 469.62 1071.44 469.443 1071.82 469.192C1072.58 468.718 1073.31 468.207 1074 467.63C1075.39 466.487 1076.63 465.195 1077.68 463.736C1078.73 462.276 1079.59 460.64 1080.02 458.847C1080.45 457.062 1080.35 455.082 1079.57 453.372C1078.79 451.671 1077.51 450.267 1076 449.226C1074.48 448.204 1072.76 447.534 1071.04 447.097C1067.55 446.224 1063.95 446.261 1060.47 446.484C1053.38 447.014 1046.47 450.221 1041.73 455.565C1040.56 456.885 1039.45 458.252 1038.4 459.655C1037.34 461.049 1036.4 462.583 1035.43 463.968C1034.42 465.4 1033.45 466.859 1032.51 468.337C1032.05 469.08 1031.58 469.824 1031.14 470.577L1030.67 471.367L1030.55 470.493C1030.52 470.056 1030.39 469.638 1030.28 469.211L1029.94 467.937C1029.44 466.255 1028.7 464.628 1027.73 463.141C1027.52 462.75 1027.22 462.416 1026.94 462.072L1026.09 461.04C1025.79 460.715 1025.43 460.445 1025.09 460.139C1024.75 459.86 1024.45 459.525 1024.06 459.293C1023.29 458.847 1022.58 458.28 1021.72 457.991C1021.3 457.824 1020.89 457.647 1020.47 457.489L1019.16 457.173C1015.65 456.355 1011.89 457.331 1008.95 459.302C1008.56 459.516 1008.22 459.813 1007.89 460.111L1006.88 460.984C1006.56 461.291 1006.29 461.644 1005.99 461.979L1005.56 462.481L1005.45 462.611C1005.45 462.611 1005.44 462.62 1005.42 462.611L1004.36 462.462L1003.08 462.304C1002.22 462.211 1001.36 462.137 1000.5 462.081C998.769 461.97 997.04 461.914 995.292 462.025C994.409 462.091 993.535 462.193 992.652 462.397C991.778 462.611 990.867 462.909 990.086 463.624C989.705 463.987 989.398 464.498 989.305 465.046C989.203 465.604 989.315 466.115 989.454 466.589C989.77 467.519 990.291 468.272 990.849 468.969C991.973 470.363 993.266 471.534 994.595 472.641C995.933 473.737 997.309 474.788 998.732 475.754L1000.86 477.214L1001.29 477.502L1000.86 478.487C999.373 481.629 998.416 484.984 997.7 488.377C997.049 491.798 996.919 495.293 997.198 498.769C997.57 502.236 998.518 505.629 999.968 508.808C1001.46 511.978 1003.61 514.785 1006.06 517.276C1007.38 518.41 1008.63 519.637 1010.11 520.557L1011.19 521.301C1011.54 521.552 1011.9 521.803 1012.29 521.988L1014.59 523.225C1015.33 523.671 1016.16 523.968 1016.96 524.303L1019.37 525.298C1020.21 525.539 1021.04 525.809 1021.89 526.023C1022.73 526.199 1023.57 526.441 1024.43 526.562C1027.87 527.166 1031.37 527.268 1034.83 526.896C1038.3 526.525 1041.69 525.595 1044.9 524.256L1046.09 523.736L1047.26 523.16C1048.05 522.788 1048.78 522.323 1049.53 521.896C1050.3 521.468 1050.99 520.938 1051.73 520.473C1052.09 520.232 1052.43 519.953 1052.77 519.693L1053.29 519.293L1053.52 519.116L1055.94 520.12C1056.86 520.483 1057.78 520.845 1058.7 521.189C1060.55 521.877 1062.43 522.509 1064.33 523.067C1067.14 523.866 1070.01 524.582 1073.04 524.6C1074.36 524.6 1075.56 524.405 1076.52 523.922C1077.49 523.457 1078.11 522.686 1078.37 522.026C1078.49 521.691 1078.57 521.394 1078.58 521.133C1078.62 520.882 1078.62 520.669 1078.59 520.501C1078.56 520.157 1078.49 519.999 1078.42 519.999C1078.52 520.018 1078.81 519.33 1078.43 517.992C1078.06 516.662 1076.77 514.924 1074.56 513.502C1073.87 513.065 1073.16 512.665 1072.43 512.303C1072.07 512.136 1071.7 511.959 1071.33 511.801L1071.12 511.708L1071.19 511.634C1071.46 511.392 1071.71 511.132 1071.97 510.871C1072.46 510.332 1072.9 509.765 1073.31 509.17C1073.91 508.306 1074.41 507.367 1074.8 506.391C1075.22 505.341 1075.36 504.198 1075.04 503.054C1074.73 501.902 1073.87 500.991 1072.95 500.405C1072.01 499.81 1071 499.457 1069.97 499.215C1067.91 498.751 1065.82 498.686 1063.73 498.955C1062.68 499.104 1061.67 499.383 1060.69 499.727C1060.2 499.903 1059.71 500.089 1059.24 500.312C1059 500.414 1058.76 500.526 1058.53 500.647L1058.07 500.888L1051.99 498.881C1050.13 498.249 1046.76 497.208 1047.86 497.477L1048.2 497.375L1048.75 497.189C1049.01 497.096 1049.29 497.012 1049.55 496.91C1050.62 496.51 1051.65 496.036 1052.66 495.497C1053.65 494.93 1054.61 494.289 1055.49 493.555C1056.37 492.802 1057.17 491.956 1057.85 491.008C1058.51 490.05 1059.04 488.991 1059.41 487.875C1059.56 487.308 1059.71 486.741 1059.78 486.165C1059.83 485.877 1059.85 485.579 1059.86 485.291V485.068V485.031C1059.86 485.031 1059.87 485.022 1059.94 485.012L1060.36 484.938C1060.65 484.882 1060.92 484.789 1061.21 484.715C1061.77 484.576 1062.31 484.334 1062.85 484.12C1063.91 483.646 1064.89 483.005 1065.78 482.261C1067.56 480.774 1068.94 478.794 1069.67 476.582C1070.05 475.476 1070.27 474.342 1070.32 473.152C1070.34 472.873 1070.36 472.557 1070.32 472.25C1070.29 471.962 1070.25 471.665 1070.2 471.376C1070.15 471.088 1070.08 470.8 1070 470.512L1069.9 470.177L1070 470.122H1070.01ZM1001.09 472.65C999.605 471.627 998.174 470.54 996.779 469.378L995.738 468.495C995.376 468.216 995.06 467.946 994.753 467.64C994.446 467.333 994.149 467.017 993.879 466.682L993.591 466.301L993.665 466.283C993.953 466.218 994.251 466.162 994.539 466.115C995.125 466.013 995.72 465.939 996.315 465.902C997.505 465.799 998.676 465.902 999.912 465.976C1001.13 466.05 1002.34 466.162 1003.54 466.32L1004.05 466.394L1002.91 473.858C1002.29 473.459 1001.69 473.059 1001.09 472.65ZM1075.82 521.124L1075.74 521.04L1075.79 521.078L1075.82 521.115V521.124ZM1075.65 520.864C1075.65 520.864 1075.66 520.873 1075.67 520.882C1075.76 520.92 1075.84 520.966 1075.89 521.003L1075.77 520.966H1075.74L1075.66 520.938C1075.66 520.938 1075.64 520.929 1075.64 520.929L1075.49 520.78C1075.49 520.78 1075.59 520.827 1075.65 520.864ZM1068.38 466.58L1068.09 466.701C1068.09 466.701 1068.11 466.738 1068.05 466.682C1067.79 466.329 1067.48 466.013 1067.17 465.697C1065.9 464.47 1064.31 463.541 1062.55 463.159C1061.67 462.974 1060.76 462.909 1059.85 463.039C1058.94 463.169 1058.02 463.503 1057.28 464.135C1056.9 464.452 1056.64 464.833 1056.35 465.204C1056.12 465.623 1055.86 466.06 1055.81 466.589C1055.61 467.63 1056.12 468.69 1056.79 469.341C1057.47 470.029 1058.29 470.447 1059.12 470.772C1059.95 471.116 1060.81 471.283 1061.67 471.423C1062.11 471.479 1062.55 471.507 1062.98 471.544C1063.41 471.544 1063.85 471.553 1064.29 471.544C1064.71 471.497 1065.15 471.488 1065.58 471.423C1065.58 471.423 1066.11 471.339 1066.12 471.358C1066.12 471.395 1066.23 471.888 1066.26 472.194C1066.31 472.575 1066.33 472.966 1066.31 473.347C1066.29 474.128 1066.16 474.899 1065.9 475.634C1065.39 477.112 1064.44 478.385 1063.16 479.333C1062.54 479.816 1061.85 480.225 1061.14 480.551C1060.77 480.709 1060.4 480.848 1060.02 480.96C1059.77 481.043 1059.37 481.146 1059.25 481.164C1059.25 481.146 1059.25 481.136 1059.24 481.108C1059.15 480.904 1059.08 480.69 1058.98 480.495C1058.75 480.114 1058.58 479.686 1058.3 479.342C1057.81 478.589 1057.16 477.957 1056.46 477.39C1055.03 476.312 1053.26 475.652 1051.43 475.689C1050.52 475.717 1049.59 475.912 1048.75 476.349L1048.15 476.73C1047.96 476.879 1047.8 477.046 1047.62 477.204C1047.28 477.53 1046.98 477.939 1046.77 478.385C1046.35 479.277 1046.31 480.328 1046.63 481.266C1046.99 482.298 1047.71 482.763 1048.6 483.293C1050.11 484.167 1051.77 484.78 1053.48 485.096C1053.9 485.18 1054.33 485.235 1054.76 485.282L1055.41 485.328L1055.94 485.347C1055.94 485.347 1055.94 485.384 1055.93 485.44C1055.87 485.821 1055.81 486.211 1055.69 486.574C1055.26 488.061 1054.31 489.372 1053.12 490.413C1050.72 492.514 1047.45 493.573 1044.33 494.438C1042.72 494.828 1041.15 495.06 1039.45 495.153C1039.15 495.181 1038.87 495.284 1038.62 495.432C1038.49 495.507 1038.38 495.6 1038.27 495.702L1038.19 495.776C1038.19 495.776 1038.17 495.804 1038.16 495.823C1038.13 495.851 1038.05 495.916 1038.02 495.971C1037.63 496.427 1037.47 497.068 1037.6 497.654C1037.66 497.942 1037.79 498.211 1037.99 498.453C1038.19 498.704 1038.47 498.89 1038.78 498.983C1038.92 499.029 1039.12 499.057 1039.22 499.057C1039.22 499.057 1039.23 499.057 1039.26 499.057L1039.41 499.104L1040.01 499.262C1043.23 500.145 1046.43 501.093 1049.61 502.115C1051.19 502.627 1052.77 503.157 1054.35 503.705L1056.7 504.579L1057.33 504.774C1057.51 504.83 1057.79 504.913 1058.07 504.923C1058.35 504.941 1058.63 504.904 1058.9 504.83C1059.03 504.783 1059.16 504.737 1059.28 504.672C1059.41 504.607 1059.54 504.523 1059.57 504.495C1060.92 503.696 1062.28 503.073 1063.78 502.813C1065.25 502.515 1066.79 502.543 1068.26 502.859C1068.99 503.026 1069.72 503.249 1070.4 503.556C1071.26 503.984 1071.36 503.882 1071.25 504.634C1071.1 505.248 1070.71 505.908 1070.27 506.512C1069.84 507.116 1069.33 507.702 1068.8 508.26C1068.26 508.817 1067.7 509.356 1067.11 509.868C1066.82 510.128 1066.53 510.379 1066.23 510.611L1066.01 510.797C1065.93 510.853 1065.78 510.974 1065.7 511.076C1065.5 511.299 1065.38 511.55 1065.31 511.81C1065.15 512.331 1065.19 512.898 1065.47 513.409C1065.61 513.669 1065.82 513.892 1066.08 514.05C1066.21 514.134 1066.35 514.181 1066.49 514.236L1066.78 514.311C1067.52 514.524 1068.26 514.775 1068.97 515.064C1070.39 515.631 1071.8 516.356 1073.03 517.22C1073.65 517.657 1074.23 518.14 1074.62 518.689C1074.83 518.968 1074.97 519.256 1075.03 519.544C1075.06 519.683 1075.07 519.832 1075.06 519.971L1075.03 520.185C1075.03 520.185 1075 520.287 1075 520.315C1074.99 520.325 1074.94 520.39 1074.9 520.445C1074.85 520.483 1074.74 520.501 1074.68 520.548C1074.48 520.613 1074.27 520.669 1074.03 520.696C1073.56 520.762 1073.06 520.762 1072.55 520.715C1070.87 520.594 1069.16 520.195 1067.48 519.758C1065.79 519.311 1064.13 518.791 1062.46 518.233C1056.65 516.235 1053.75 515.212 1053.62 515.491C1053.65 515.435 1053.5 515.24 1053.05 515.184C1052.83 515.157 1052.53 515.184 1052.21 515.352C1051.9 515.538 1051.67 515.705 1051.34 515.937C1050.09 516.83 1048.23 518.15 1045.55 519.553C1043.97 520.362 1042.33 521.05 1040.66 521.607C1038.96 522.128 1037.24 522.583 1035.49 522.834C1031.96 523.364 1028.33 523.346 1024.82 522.704C1021.3 522.1 1017.92 520.771 1014.83 518.986C1011.77 517.155 1008.99 514.822 1006.74 512.043C1005.62 510.667 1004.58 509.189 1003.73 507.637C1002.96 506.066 1002.32 504.402 1001.93 502.664C1000.3 495.702 1001.29 488.256 1003.81 481.573C1004.14 480.681 1004.48 479.742 1004.95 478.915C1005.67 477.66 1006.03 476.544 1006.25 475.132C1006.38 474.276 1006.52 473.421 1006.65 472.566C1006.91 470.893 1007.17 469.211 1007.41 467.537C1007.53 466.72 1007.73 466.087 1008.23 465.427C1008.4 465.177 1008.59 464.944 1008.77 464.721C1008.96 464.479 1009.14 464.256 1009.35 464.043C1009.54 463.829 1009.75 463.615 1009.96 463.41C1010.81 462.602 1011.76 461.914 1012.81 461.44C1013.86 460.966 1014.99 460.715 1016.13 460.752C1016.59 460.771 1017.04 460.826 1017.5 460.919C1018.25 461.087 1019.01 461.31 1019.73 461.579C1019.84 461.616 1019.94 461.663 1020.06 461.7C1020.84 462.007 1021.63 462.342 1022.3 462.853C1023.13 463.494 1023.85 464.303 1024.44 465.195C1025.63 466.989 1026.33 469.108 1026.7 471.265C1026.89 472.343 1027 473.459 1027.06 474.546C1027.07 475.652 1027.05 476.777 1026.99 477.883C1026.88 480.123 1026.65 482.345 1026.28 484.548C1025.92 486.751 1025.43 488.935 1024.82 491.082L1024.34 492.69C1024.24 492.988 1024.16 493.434 1024.26 493.824C1024.35 494.224 1024.57 494.596 1024.86 494.847C1025.43 495.349 1026.27 495.609 1027.07 495.237C1027.47 495.07 1027.77 494.707 1027.92 494.354C1028.01 494.159 1028.04 494.029 1028.09 493.899L1028.22 493.49C1028.91 491.314 1029.47 489.112 1029.91 486.871C1030.13 485.756 1030.32 484.631 1030.48 483.497L1030.68 481.806L1030.84 480.197L1031.26 479.212L1031.73 478.153C1032.05 477.446 1032.38 476.749 1032.72 476.052C1033.41 474.658 1034.13 473.291 1034.91 471.953C1036.46 469.248 1038.15 466.701 1040.06 464.182C1041.52 461.682 1043.25 459.497 1045.3 457.527C1047.32 455.575 1049.66 453.892 1052.12 452.6C1058.07 450.044 1065.1 449.44 1071.3 451.317C1072.81 451.829 1074.26 452.591 1075.25 453.753C1075.72 454.338 1076.09 454.998 1076.27 455.723C1076.29 455.77 1076.28 455.742 1076.29 455.779V455.928L1076.31 456.216C1076.3 456.411 1076.31 456.606 1076.3 456.802C1076.28 457.192 1076.22 457.582 1076.16 457.963C1075.86 459.497 1075.12 460.947 1074.05 462.081L1073.84 462.295L1073.74 462.397C1073.74 462.397 1073.59 462.546 1073.59 462.565L1073.19 463.02C1072.99 463.252 1072.78 463.476 1072.56 463.689C1071.92 464.312 1071.22 464.898 1070.48 465.39C1069.81 465.836 1069.11 466.236 1068.38 466.571V466.58ZM1063.25 467.649C1062.71 467.64 1062.17 467.593 1061.63 467.482C1061.2 467.398 1060.77 467.277 1060.4 467.119C1060.31 467.082 1060.21 467.026 1060.15 466.998L1060.11 466.97H1060.15L1060.29 466.952C1060.39 466.943 1060.49 466.943 1060.61 466.943C1061.03 466.924 1061.44 466.97 1061.85 467.073C1062.34 467.194 1062.82 467.379 1063.25 467.649ZM1054.83 481.304C1053.97 481.192 1053.11 480.997 1052.27 480.737C1051.77 480.569 1051.27 480.393 1050.85 480.16C1050.76 480.095 1050.64 480.039 1050.57 479.974L1050.44 479.881L1050.39 479.826C1050.39 479.826 1050.63 479.714 1050.79 479.696C1051 479.658 1051.24 479.649 1051.48 479.658C1051.96 479.677 1052.45 479.789 1052.91 479.956C1053.66 480.235 1054.33 480.699 1054.83 481.304Z" fill="black"/>
<path d="M1075.89 521.004L1075.77 520.966L1075.67 520.883C1075.76 520.92 1075.84 520.966 1075.89 521.004Z" fill="#010101"/>
<path d="M1019.23 470.205C1018.36 470.066 1017.86 470.772 1017.49 471.451C1017.02 472.315 1016.58 473.003 1015.61 473.422C1014.1 474.081 1013.4 472.864 1013.25 471.525C1013.12 470.41 1013.79 468.328 1012.17 468.012C1011.42 467.863 1010.7 468.346 1010.54 469.09C1009.69 475.671 1013.8 477.809 1017.45 475.652C1019.64 474.407 1021.62 470.587 1019.23 470.205Z" fill="black"/>
<path d="M1060.03 513.177C1059.84 512.963 1059.67 512.833 1059.61 512.665C1059.35 511.959 1059.46 511.318 1060.01 510.779C1060.51 510.286 1061.51 510.537 1061.69 511.197C1061.9 511.94 1061.54 512.824 1060.81 513.177C1060.59 513.288 1060.26 513.177 1060.04 513.177H1060.03Z" fill="black"/>
<path d="M1044.44 516.579C1044 517.109 1043.17 517.295 1042.59 516.895C1042.39 516.765 1042.25 516.393 1042.27 516.151C1042.37 515.287 1043.2 514.813 1044.01 515.101C1044.56 515.296 1044.8 516.142 1044.44 516.579Z" fill="black"/>
<path d="M1076.12 517.267C1076.66 517.573 1076.79 518.122 1076.6 518.438C1076.26 519.033 1075.27 519.2 1074.87 518.679C1074.64 518.391 1074.55 517.992 1074.45 517.629C1074.38 517.406 1074.75 517.034 1074.99 517.071C1075.45 517.137 1075.92 517.229 1076.12 517.267Z" fill="black"/>
<path d="M1027.41 520.65C1027.02 521.059 1026.19 521.078 1025.89 520.678C1025.61 520.316 1025.59 519.674 1025.87 519.34C1026.24 518.884 1027.03 518.875 1027.36 519.321C1027.67 519.721 1027.7 520.353 1027.41 520.65Z" fill="black"/>
<path d="M1009.89 509.45C1010.09 509.069 1010.73 508.827 1011.16 508.976C1011.64 509.143 1011.9 509.914 1011.64 510.463C1011.45 510.872 1010.83 511.113 1010.4 510.928C1009.87 510.704 1009.61 509.952 1009.88 509.45H1009.89Z" fill="black"/>
<path d="M1051.56 510.286C1051.34 510.351 1051.08 510.509 1050.83 510.481C1050.57 510.463 1050.3 510.295 1050.06 510.156C1049.69 509.923 1049.56 509.514 1049.7 509.198C1049.88 508.799 1050.22 508.659 1050.6 508.65C1051.18 508.631 1051.68 509.096 1051.73 509.691C1051.75 509.858 1051.63 510.044 1051.57 510.286H1051.56Z" fill="black"/>
<path d="M1028.67 506.326C1028.41 506.772 1027.98 506.949 1027.51 507.033C1027.06 507.116 1026.5 506.754 1026.42 506.345C1026.32 505.796 1026.76 505.155 1027.28 505.071C1027.86 504.988 1028.44 505.267 1028.67 505.787C1028.74 505.936 1028.67 506.14 1028.67 506.317V506.326Z" fill="black"/>
<path d="M1014.35 504.932C1014.19 505.044 1014.05 505.192 1013.87 505.248C1013.7 505.304 1013.48 505.285 1013.3 505.248C1012.82 505.136 1012.39 504.616 1012.4 504.226C1012.41 503.807 1013.01 503.352 1013.45 503.417C1014.07 503.51 1014.48 504.04 1014.41 504.653C1014.4 504.746 1014.37 504.839 1014.34 504.941L1014.35 504.932Z" fill="black"/>
<path d="M1018.3 504.486C1017.57 503.966 1017.46 503.296 1017.95 502.646C1018.19 502.33 1018.76 502.237 1018.96 502.534C1019.18 502.841 1019.37 503.194 1019.49 503.557C1019.62 503.947 1019.38 504.458 1019.03 504.523C1018.76 504.57 1018.48 504.495 1018.29 504.486H1018.3Z" fill="black"/>
<path d="M1058.03 517.657C1057.86 517.722 1057.6 517.852 1057.32 517.908C1056.93 518.001 1056.55 517.713 1056.47 517.304C1056.39 516.923 1056.58 516.504 1056.94 516.309C1057.31 516.114 1057.69 516.021 1058.06 516.253C1058.42 516.495 1058.44 517.276 1058.04 517.648L1058.03 517.657Z" fill="black"/>
<path d="M1012.16 499.987C1012.29 499.699 1012.82 499.485 1013.13 499.596C1013.83 499.847 1014.08 500.545 1013.68 501.177C1013.51 501.446 1012.95 501.595 1012.68 501.446C1012.2 501.195 1011.95 500.47 1012.16 499.978V499.987Z" fill="black"/>
<path d="M1037.83 489.697C1038.2 489.92 1038.32 490.515 1038.08 490.962C1037.81 491.454 1037.27 491.631 1036.9 491.352C1036.49 491.036 1036.37 490.525 1036.6 490.078C1036.83 489.651 1037.44 489.456 1037.83 489.697Z" fill="black"/>
<path d="M1068.23 505.248C1068.27 505.527 1068.42 505.824 1068.34 506.038C1068.26 506.27 1068.01 506.503 1067.76 506.624C1067.23 506.884 1066.7 506.661 1066.61 506.196C1066.52 505.694 1066.82 505.192 1067.32 505.136C1067.59 505.109 1067.87 505.202 1068.23 505.248Z" fill="black"/>
<path d="M1033.96 518.828C1033.6 518.522 1033.6 517.964 1033.96 517.601C1034.31 517.258 1034.92 517.267 1035.19 517.611C1035.43 517.908 1035.42 518.345 1035.19 518.633C1034.87 519.024 1034.3 519.117 1033.95 518.828H1033.96Z" fill="black"/>
<path d="M1041.47 501.911C1041.86 502.097 1041.99 502.785 1041.73 503.166C1041.46 503.556 1040.8 503.733 1040.47 503.491C1040.11 503.231 1039.96 502.562 1040.19 502.209C1040.41 501.855 1041.07 501.707 1041.47 501.911Z" fill="black"/>
<path d="M1041.96 498.128C1042.23 497.366 1042.81 497.124 1043.56 497.161C1043.91 497.18 1044.26 497.561 1044.27 497.942C1044.29 498.407 1043.82 498.937 1043.39 498.89C1042.79 498.816 1042.26 498.63 1041.94 498.063L1041.96 498.128Z" fill="black"/>
<path d="M1047.91 509.793C1047.91 510.007 1047.99 510.342 1047.86 510.5C1047.4 511.095 1046.78 511.16 1046.09 510.788C1045.83 510.658 1045.67 510.267 1045.79 510.063C1045.88 509.914 1046.02 509.71 1046.17 509.691C1046.63 509.617 1047.11 509.607 1047.58 509.598C1047.66 509.598 1047.74 509.691 1047.9 509.793H1047.91Z" fill="black"/>
<path d="M1008.61 496.594C1008.91 496.79 1009.01 497.301 1008.82 497.589C1008.61 497.877 1008.09 498.026 1007.82 497.868C1007.39 497.598 1007.18 497.059 1007.38 496.669C1007.55 496.316 1008.15 496.278 1008.62 496.594H1008.61Z" fill="black"/>
<path d="M1052.52 514.432C1052.32 514.822 1051.69 515.027 1051.27 514.85C1050.99 514.729 1050.79 514.172 1050.91 513.865C1051.13 513.298 1051.85 513.056 1052.31 513.4C1052.6 513.605 1052.69 514.097 1052.53 514.441L1052.52 514.432Z" fill="black"/>
<path d="M1016.91 495.219C1016.59 495.618 1016.02 495.646 1015.69 495.284C1015.39 494.958 1015.42 494.401 1015.75 494.01C1015.99 493.722 1016.48 493.704 1016.76 493.955C1017.12 494.289 1017.19 494.856 1016.91 495.219H1016.91Z" fill="black"/>
<path d="M1072.13 518.763C1071.83 519.172 1071.23 519.256 1070.91 518.931C1070.64 518.67 1070.59 518.243 1070.78 517.88C1070.99 517.508 1071.7 517.258 1072.01 517.453C1072.32 517.648 1072.38 518.401 1072.13 518.754V518.763Z" fill="black"/>
<path d="M1043.17 510.909C1043.36 511.067 1043.4 511.457 1043.26 511.671C1043.03 512.015 1042.71 512.154 1042.3 512.117C1041.97 512.08 1041.55 511.662 1041.62 511.346C1041.68 511.113 1041.89 510.844 1042.12 510.751C1042.46 510.593 1042.85 510.63 1043.17 510.918V510.909Z" fill="black"/>
<path d="M1070.55 514.636C1070.26 514.962 1069.72 514.915 1069.62 514.553C1069.55 514.283 1069.52 513.995 1069.53 513.716C1069.54 513.381 1069.8 513.149 1070.06 513.168C1070.36 513.195 1070.63 513.288 1070.74 513.595C1070.88 513.976 1070.86 514.348 1070.55 514.636Z" fill="black"/>
<path d="M1039.1 494.819C1039 495.154 1038.41 495.228 1038.1 494.921C1037.82 494.633 1037.69 494.28 1037.75 493.862C1037.79 493.481 1038.27 493.211 1038.61 493.378C1039.18 493.657 1039.39 494.289 1039.09 494.819H1039.1Z" fill="black"/>
<path d="M1012.53 518.763C1012.47 518.485 1012.31 518.196 1012.4 518.02C1012.5 517.806 1012.78 517.602 1013.02 517.564C1013.25 517.527 1013.57 517.629 1013.77 517.769C1013.96 517.899 1013.7 518.587 1013.39 518.698C1013.16 518.782 1012.87 518.745 1012.53 518.763Z" fill="black"/>
<path d="M1069.33 509.431C1069.76 509.617 1069.94 510.138 1069.76 510.435C1069.64 510.64 1069.24 510.76 1069 510.677C1068.67 510.556 1068.45 509.989 1068.69 509.738C1068.86 509.561 1069.17 509.515 1069.33 509.431Z" fill="black"/>
<path d="M1017.43 498.648C1017.5 498.946 1017.62 499.197 1017.59 499.42C1017.57 499.671 1017.17 499.745 1016.89 499.597C1016.48 499.373 1016.31 498.853 1016.61 498.714C1016.82 498.621 1017.1 498.667 1017.42 498.639L1017.43 498.648Z" fill="black"/>
<path d="M1005.83 506.457C1005.68 506.531 1005.46 506.708 1005.21 506.763C1004.98 506.819 1004.71 506.438 1004.74 506.178C1004.77 505.778 1005.14 505.434 1005.49 505.462C1005.83 505.49 1006.07 506.001 1005.83 506.457Z" fill="black"/>
<path d="M1009.17 500.935C1009.26 501.102 1009.38 501.261 1009.45 501.446C1009.54 501.725 1009.22 502.023 1008.9 501.967C1008.58 501.902 1008.41 501.697 1008.36 501.363C1008.33 501.13 1008.39 500.944 1008.61 500.898C1008.79 500.861 1008.99 500.926 1009.17 500.944V500.935Z" fill="black"/>
<path d="M1041.11 498.258C1040.92 498.881 1040.5 499.169 1039.85 499.141C1039.58 499.132 1039.34 498.918 1039.31 498.602C1039.29 498.305 1039.36 498.044 1039.67 497.923C1040.26 497.7 1040.77 497.719 1041.12 498.323L1041.1 498.258H1041.11Z" fill="black"/>
<path d="M1037.89 508.185C1037.68 508.223 1037.41 508.343 1037.16 508.306C1036.96 508.278 1036.85 507.748 1037.01 507.553C1037.18 507.358 1037.42 507.2 1037.65 507.079C1037.87 506.968 1038.03 507.079 1038.08 507.312C1038.1 507.405 1038.13 507.507 1038.11 507.59C1038.06 507.767 1037.98 507.934 1037.88 508.195L1037.89 508.185Z" fill="black"/>
<path d="M1059.21 507.972C1059.21 507.786 1059.16 507.479 1059.27 507.284C1059.44 506.977 1060.08 506.977 1060.25 507.265C1060.34 507.405 1060.34 507.656 1060.25 507.804C1060.06 508.176 1059.56 508.278 1059.2 507.972H1059.21Z" fill="black"/>
<path d="M1050.46 505.527C1050.28 505.555 1050.01 505.648 1049.77 505.601C1049.49 505.555 1049.35 505.136 1049.53 504.904C1049.69 504.709 1049.96 504.514 1050.2 504.504C1050.51 504.486 1050.71 505.136 1050.46 505.536V505.527Z" fill="black"/>
<path d="M1041.47 507.804C1041.37 507.637 1041.24 507.488 1041.19 507.312C1041.1 507.042 1041.32 506.735 1041.61 506.661C1041.89 506.596 1042.18 506.791 1042.24 507.126C1042.26 507.302 1042.24 507.497 1042.19 507.674C1042.11 507.962 1041.69 508.027 1041.47 507.804Z" fill="black"/>
<path d="M1027.42 501.93C1027.17 501.865 1026.91 501.809 1026.67 501.725C1026.62 501.707 1026.58 501.502 1026.62 501.465C1026.8 501.27 1027.01 501.102 1027.21 500.926C1027.33 501.065 1027.5 501.186 1027.54 501.344C1027.58 501.502 1027.47 501.688 1027.42 501.939V501.93Z" fill="black"/>
<path d="M1048.05 514.757C1047.9 514.766 1047.7 514.841 1047.62 514.776C1047.39 514.59 1047.42 514.264 1047.66 514.125C1047.72 514.088 1047.82 514.088 1047.91 514.097C1048.16 514.143 1048.23 514.525 1048.04 514.757H1048.05Z" fill="black"/>
<path d="M1034.12 512.982C1034.1 513.251 1034.14 513.447 1034.07 513.586C1033.94 513.818 1033.59 513.809 1033.42 513.558C1033.35 513.447 1033.37 513.14 1033.42 513.112C1033.63 513.028 1033.87 513.019 1034.12 512.982Z" fill="black"/>
<path d="M1029.87 513.586C1029.96 513.958 1030.06 514.199 1030.04 514.432C1030.04 514.534 1029.78 514.711 1029.65 514.692C1029.35 514.664 1029.13 514.395 1029.19 514.134C1029.24 513.948 1029.56 513.828 1029.87 513.586Z" fill="black"/>
<path d="M1019.38 508.037C1019.21 507.999 1018.93 508.009 1018.74 507.888C1018.52 507.748 1018.62 507.311 1018.89 507.2C1019.02 507.135 1019.26 507.153 1019.4 507.228C1019.67 507.386 1019.68 507.758 1019.38 508.037Z" fill="black"/>
<path d="M1043.74 520.846C1043.5 520.799 1043.41 520.66 1043.45 520.418C1043.54 519.907 1043.73 519.767 1044.24 519.86C1044.48 519.907 1044.58 520.037 1044.53 520.279C1044.44 520.771 1044.22 520.929 1043.74 520.846Z" fill="black"/>
<path d="M1021.66 498.602C1021.5 498.621 1021.29 498.704 1021.16 498.639C1020.93 498.518 1020.97 498.147 1021.23 497.942C1021.4 497.803 1021.61 497.849 1021.69 498.082C1021.75 498.24 1021.68 498.435 1021.67 498.611L1021.66 498.602Z" fill="black"/>
<path d="M1009.87 505.1C1009.97 505.258 1010.07 505.416 1010.17 505.564C1010.02 505.648 1009.86 505.797 1009.69 505.806C1009.45 505.815 1009.32 505.62 1009.44 505.397C1009.51 505.258 1009.73 505.193 1009.88 505.1H1009.87Z" fill="black"/>
<path d="M1033.52 509.115C1033.31 509.319 1033.05 509.273 1032.88 509.003C1032.75 508.808 1032.78 508.65 1032.99 508.529C1033.28 508.362 1033.63 508.39 1033.65 508.604C1033.67 508.771 1033.56 508.947 1033.52 509.115Z" fill="black"/>
<path d="M1019.85 511.82C1020.02 511.829 1020.19 511.838 1020.34 511.866C1020.36 511.866 1020.39 512.052 1020.34 512.117C1020.31 512.182 1020.13 512.247 1020.12 512.229C1020.02 512.099 1019.94 511.959 1019.85 511.811V511.82Z" fill="black"/>
<path d="M1025.85 515.64C1025.79 515.714 1025.75 515.807 1025.69 515.854C1025.62 515.9 1025.51 515.9 1025.43 515.919C1025.46 515.752 1025.47 515.575 1025.51 515.417C1025.51 515.389 1025.71 515.361 1025.76 515.398C1025.82 515.435 1025.82 515.556 1025.85 515.649V515.64Z" fill="black"/>
<path d="M1039.72 521.106C1039.71 521.004 1039.65 520.846 1039.7 520.818C1039.89 520.678 1040.09 520.725 1040.21 520.929C1040.26 521.004 1040.25 521.115 1040.27 521.217C1040.08 521.18 1039.9 521.143 1039.72 521.106Z" fill="black"/>
<path d="M1016.52 517.174C1016.57 517.248 1016.68 517.332 1016.66 517.388C1016.61 517.555 1016.45 517.564 1016.26 517.397C1016.23 517.36 1016.25 517.239 1016.25 517.165C1016.35 517.165 1016.43 517.165 1016.52 517.174Z" fill="black"/>
<path d="M1007.01 514.989L1007.17 515.092L1006.97 515.231L1007.01 514.989Z" fill="black"/>
<path d="M1061.86 516.365C1061.9 516.505 1061.93 516.635 1061.96 516.774C1061.88 516.774 1061.75 516.83 1061.71 516.793C1061.6 516.681 1061.52 516.533 1061.42 516.393C1061.57 516.393 1061.71 516.384 1061.86 516.375V516.365Z" fill="black"/>
<path d="M1041.94 498.054C1041.73 498.388 1041.44 498.379 1041.11 498.258L1041.13 498.323C1041.34 497.979 1041.63 497.998 1041.96 498.119L1041.94 498.044V498.054Z" fill="black"/>
<path d="M1056.12 512.852L1056.07 513.037L1055.94 512.926L1056.12 512.852Z" fill="black"/>
</g>
<path d="M1109.41 488.054C1109.07 488.035 1108.77 487.855 1108.58 487.574C1093.83 468.917 1111.53 457.023 1117.49 472.235C1135.09 468.336 1133.16 491.373 1109.41 488.054Z" fill="black"/>
</g>
<defs>
<clipPath id="clip0_453_2">
<rect width="1200" height="675" fill="white"/>
</clipPath>
<clipPath id="clip1_453_2">
<rect width="136.946" height="106.197" fill="white" transform="translate(569.769 617.456) rotate(2.4411)"/>
</clipPath>
<clipPath id="clip2_453_2">
<rect width="132.054" height="147.812" fill="white" transform="translate(729.663 4.4668) rotate(17.8867)"/>
</clipPath>
<clipPath id="clip3_453_2">
<rect width="149.549" height="140.88" fill="white" transform="translate(1103.49 -25.9893) rotate(15)"/>
</clipPath>
<clipPath id="clip4_453_2">
<rect width="308.264" height="111.131" fill="white" transform="translate(818.915 512.167)"/>
</clipPath>
<clipPath id="clip5_453_2">
<rect width="58.0678" height="55.6483" fill="white" transform="translate(807 456.519)"/>
</clipPath>
<clipPath id="clip6_453_2">
<rect width="103.232" height="144.363" fill="white" transform="translate(989.268 417)"/>
</clipPath>
</defs>
</svg>
