<svg width="1200" height="675" viewBox="0 0 1200 675" fill="none" xmlns="http://www.w3.org/2000/svg">
<g clip-path="url(#clip0_448_623)">
<path opacity="0.5" d="M-967 66H756" stroke="#5FBFFA" stroke-width="2"/>
<path opacity="0.5" d="M-967 127H756" stroke="#5FBFFA" stroke-width="2"/>
<path opacity="0.5" d="M-967 188H756" stroke="#5FBFFA" stroke-width="2"/>
<path opacity="0.5" d="M-967 247H756" stroke="#5FBFFA" stroke-width="2"/>
<path opacity="0.5" d="M-967 309H756" stroke="#5FBFFA" stroke-width="2"/>
<path opacity="0.5" d="M-967 369H756" stroke="#5FBFFA" stroke-width="2"/>
<path opacity="0.5" d="M-967 430H756" stroke="#5FBFFA" stroke-width="2"/>
<path opacity="0.5" d="M-967 490H756" stroke="#5FBFFA" stroke-width="2"/>
<path opacity="0.5" d="M-967 550H756" stroke="#5FBFFA" stroke-width="2"/>
<path opacity="0.5" d="M-967 610H756" stroke="#5FBFFA" stroke-width="2"/>
<rect x="752" y="-40" width="8" height="762" fill="black"/>
<g clip-path="url(#clip1_448_623)">
<g style="mix-blend-mode:multiply">
<path d="M795.123 612.069C794.662 611.585 794.199 611.114 793.71 610.659C793.238 610.194 792.73 609.765 792.189 609.358C791.129 608.542 790.124 607.629 788.952 606.985C784.444 604.072 779.378 602.369 774.411 601.239C769.421 600.113 764.45 599.494 759.621 598.766C754.793 598.037 750.049 597.203 745.629 595.704C744.552 595.273 743.46 594.89 742.402 594.434C741.386 593.914 740.323 593.45 739.351 592.889C737.413 591.774 735.667 590.408 734.205 588.801C731.259 585.591 729.567 581.362 728.7 576.781C728.481 575.637 728.301 574.479 728.145 573.304L728.042 572.42L727.918 571.453C727.836 570.76 727.723 570.076 727.554 569.381C727.25 568.005 726.788 566.627 726.133 565.32C725.494 564.001 724.65 562.737 723.591 561.654C721.503 559.445 718.616 557.946 715.629 557.529C712.653 557.092 709.638 557.563 706.978 558.7C704.304 559.834 701.968 561.609 700.119 563.766C699.192 564.841 698.41 566.022 697.712 567.256C697.058 568.484 696.493 569.808 696.081 571.162C695.249 573.875 695.031 576.727 695.253 579.463C695.475 582.199 696.121 584.829 696.987 587.322C697.854 589.815 698.952 592.187 700.164 594.458C701.403 596.735 702.681 598.889 704.199 601.025C707.139 605.314 710.813 609.082 714.864 612.318C718.98 615.472 723.503 618.122 728.309 620.013C733.105 621.959 738.134 623.215 743.264 623.872C748.364 624.501 753.343 624.524 758.059 625.051C759.255 625.159 760.388 625.37 761.543 625.542C762.662 625.786 763.804 625.992 764.852 626.345C765.958 626.622 766.94 627.093 767.958 627.49L769.389 628.248C769.885 628.48 770.275 628.844 770.724 629.132L771.385 629.59C771.591 629.752 771.784 629.948 771.979 630.13C772.362 630.499 772.78 630.831 773.152 631.22C773.815 632.075 774.595 632.815 775.126 633.796C776.401 635.59 777.247 637.625 777.753 639.674C778.211 641.742 778.262 643.869 777.886 645.972C777.51 648.074 776.701 650.143 775.631 652.112C773.443 656.033 770.231 659.584 766.743 662.743C759.682 669.045 751.109 673.702 742.153 677.241C737.664 679.012 733.054 680.515 728.376 681.774C723.797 683.002 719.114 684.023 714.479 684.722C714.51 684.821 714.541 684.921 714.567 685.012C714.929 685.262 715.306 685.515 715.676 685.759C715.532 686.134 715.388 686.51 715.238 686.877C715.546 687.671 715.876 688.462 716.228 689.25C716.506 689.267 716.789 689.293 717.074 689.305L716.38 689.581C716.408 689.623 716.42 689.675 716.44 689.722C721.011 688.983 725.486 687.994 729.929 686.797C734.601 685.529 739.231 684.038 743.759 682.252C752.797 678.693 761.567 674.06 769.138 667.618C770.095 666.837 770.984 665.957 771.907 665.127C772.772 664.228 773.684 663.381 774.506 662.438C776.191 660.609 777.766 658.601 779.159 656.45C780.547 654.29 781.698 651.905 782.465 649.345C783.231 646.785 783.589 644.031 783.314 641.307C783.059 638.593 782.286 635.917 781.071 633.551C780.504 632.34 779.717 631.267 779.019 630.146C778.674 629.583 778.19 629.101 777.773 628.574C777.331 628.064 776.939 627.52 776.412 627.08L774.918 625.713C774.405 625.275 773.825 624.919 773.276 624.518L772.443 623.947L771.555 623.473C770.964 623.172 770.377 622.822 769.765 622.56C767.33 621.479 764.81 620.842 762.319 620.355C757.342 619.498 752.493 619.399 747.845 619.044C746.671 618.969 745.544 618.839 744.398 618.733C743.279 618.561 742.152 618.466 741.038 618.23C738.798 617.863 736.594 617.266 734.418 616.638C730.084 615.285 725.93 613.412 722.102 611.004C718.301 608.566 714.78 605.684 711.827 602.285L710.72 601.006L709.681 599.668C708.97 598.797 708.37 597.839 707.72 596.914C706.461 595.001 705.296 593.013 704.263 591.006C702.216 586.983 700.668 582.717 700.427 578.508C700.312 576.412 700.522 574.35 701.166 572.429C701.793 570.519 702.831 568.681 704.14 567.155C705.464 565.631 707.089 564.41 708.877 563.609C710.675 562.839 712.633 562.468 714.49 562.696C716.336 562.907 718.066 563.644 719.379 564.905C720.719 566.135 721.672 567.845 722.215 569.771C722.385 570.236 722.449 570.76 722.572 571.244L722.794 572.821C722.925 574.049 723.092 575.276 723.3 576.512C723.712 578.974 724.312 581.466 725.234 583.898C726.141 586.327 727.398 588.7 729.022 590.813C730.637 592.932 732.631 594.77 734.802 596.247C739.183 599.15 743.968 600.885 748.781 602.071C758.388 604.419 768.001 604.722 776.72 607.272C781.058 608.525 785.113 610.393 788.483 613.124C791.922 615.795 794.668 619.37 796.629 623.283C798.593 627.219 799.731 631.557 800.026 636.006C800.347 640.511 800.06 645.065 799.165 649.487C797.423 658.347 793.084 666.671 786.711 672.99C783.538 676.152 779.865 678.772 775.837 680.92C771.808 683.067 767.549 684.767 763.082 686.197C754.131 689.154 745.041 691.709 735.853 693.461C734.729 693.691 733.624 693.896 732.608 694.125C731.298 694.42 729.99 694.665 728.675 694.916C727.04 695.213 725.273 695.456 723.476 695.585L722.484 695.654C722.381 695.663 722.298 695.683 722.259 695.589L722.186 695.481L721.796 694.923L720.944 693.665C720.221 692.633 719.55 691.819 719.282 691.638L718.873 691.372C718.783 691.312 718.759 691.364 718.804 691.503L719.224 692.765C719.292 692.972 719.259 693.031 719.125 692.94L718.584 692.569C718.431 692.468 718.149 692.14 717.793 691.668L716.578 690.051C718.155 693.38 720.186 696.594 722.896 699.794C723.072 700.001 723.257 700.202 723.433 700.409L723.885 700.381C725.169 700.297 726.438 700.174 727.696 700.035C730.215 699.742 732.703 699.35 735.182 698.927C740.127 698.043 745.009 696.924 749.837 695.636C754.659 694.339 759.45 692.943 764.176 691.362C768.936 689.866 773.754 687.993 778.274 685.573C782.812 683.177 787.111 680.074 790.773 676.35C794.427 672.633 797.519 668.353 799.81 663.674C802.118 659.02 803.727 654.03 804.611 648.915C805.504 643.794 805.589 638.604 805.03 633.391C804.366 628.165 802.663 623.027 799.942 618.456C798.581 616.177 796.954 614.042 795.121 612.119L795.123 612.069Z" fill="#010101"/>
</g>
<path d="M768.735 686.645L761.122 669.942C757.569 672.311 754.076 674.41 750.181 676.31L757.118 691.515C760.911 688.912 764.215 687.085 768.735 686.645Z" fill="black"/>
<path d="M779.426 682.957C779.479 682.91 779.534 682.849 779.586 682.801C782.079 680.437 785.002 678.832 787.733 676.802C788.346 676.351 788.939 675.817 789.539 675.277L773.919 659.358C773.731 659.545 773.558 659.735 773.409 659.908C772.197 661.345 770.959 662.763 769.734 664.183C768.502 665.609 767.272 667.021 766.029 668.431C766.095 668.35 765.913 668.581 765.644 668.897L779.434 682.952L779.426 682.957Z" fill="black"/>
<path d="M798.898 657.457C800.041 654.847 801.832 652.765 802.57 650.056L780.156 644.918C780.397 647.931 779.181 650.916 777.222 653.535C777.038 653.78 776.834 654.014 776.65 654.26L776.048 656.902L798.798 662.126C798.247 660.723 798.128 659.246 798.903 657.465L798.898 657.457Z" fill="black"/>
<path d="M797.448 620.301L776.393 631.404C776.937 631.905 777.443 632.42 777.813 633.039C778.588 634.326 778.766 635.872 779.064 637.312C779.504 639.442 779.932 641.519 780.233 643.622L802.178 632.05C799.94 628.674 799.168 624.161 797.448 620.301Z" fill="black"/>
<path d="M776.115 603.418C774.928 603.413 773.775 603.119 772.624 602.739L763.805 624.228C766.357 624.215 768.72 625.066 770.671 626.789C771.589 627.181 772.464 627.688 773.239 628.262C773.989 628.817 774.535 629.462 774.983 630.161L784.686 606.516C783.461 605.92 782.198 605.375 780.839 604.955C779.329 604.491 777.681 604.037 776.115 603.418Z" fill="black"/>
<path d="M752.578 621.914L758.471 600.776C754.32 600.157 750.249 599.193 746.28 597.593L739.925 620.385C743.966 621.948 748.286 621.801 752.572 621.906L752.578 621.914Z" fill="black"/>
<path d="M730.239 588.455L711.578 605.521C714.376 608.904 717.83 611.312 721.468 613.546L740.539 596.106C736.368 594.619 732.746 592.337 730.239 588.455Z" fill="black"/>
<path d="M725.23 571.8L697.083 577.512C698.276 580.254 699.068 583.136 700.126 586.019C700.55 587.18 701.021 588.323 701.507 589.467L728.867 583.914C726.613 580.174 725.125 576.013 725.239 571.794L725.23 571.8Z" fill="black"/>
<path d="M790.732 629.378C790.989 629.276 791.359 629.11 791.744 628.982C792.206 628.826 792.723 629.358 792.71 629.874C792.692 630.417 792.442 630.852 792.151 631.278C791.685 631.945 790.908 631.939 790.362 631.258C790.234 631.103 790.149 630.907 790.045 630.736C789.86 630.427 789.994 630.143 790.172 629.889C790.29 629.725 790.47 629.615 790.729 629.391L790.732 629.378Z" fill="black"/>
<path d="M788.85 673.848C787.809 674.505 786.637 673.897 786.57 672.711C786.554 672.456 786.732 672.094 786.936 671.932C787.667 671.352 788.855 671.538 789.371 672.336C789.517 672.551 789.481 672.962 789.38 673.223C789.28 673.485 788.99 673.681 788.844 673.84L788.85 673.848Z" fill="black"/>
<path d="M795.358 663.573C795.404 663.747 795.542 664.04 795.569 664.348C795.605 664.83 795.105 665.411 794.659 665.483C794.124 665.568 793.611 665.239 793.488 664.682C793.417 664.38 793.406 664.061 793.437 663.75C793.473 663.376 793.897 662.968 794.263 662.901C794.637 662.829 795.041 663.051 795.358 663.573Z" fill="black"/>
<path d="M788.41 625.913C787.925 626.338 787.165 626.285 786.72 625.789C786.256 625.282 786.239 624.437 786.689 624.084C787.271 623.642 788.294 623.637 788.687 624.217C789.04 624.738 788.956 625.435 788.419 625.908L788.41 625.913Z" fill="black"/>
<path d="M771.06 668.852C771.051 669.088 771.117 669.418 771.002 669.677C770.754 670.219 769.985 670.474 769.39 670.273C768.923 670.118 768.608 669.619 768.61 669.05C768.613 668.698 768.797 668.452 769.079 668.298C769.714 667.952 770.62 668.184 771.069 668.847L771.06 668.852Z" fill="black"/>
<path d="M798.622 640.266C799.257 639.812 800.135 639.966 800.497 640.591C800.82 641.157 800.708 641.776 800.193 642.246C799.65 642.746 798.794 642.589 798.36 641.893C798 641.327 798.112 640.635 798.631 640.26L798.622 640.266Z" fill="black"/>
<path d="M790.068 643.219C790.094 643.419 790.179 643.723 790.173 644.017C790.165 644.397 789.716 644.894 789.397 644.869C789.1 644.84 788.758 644.746 788.552 644.548C788.345 644.349 788.251 644.014 788.177 643.726C788.071 643.303 788.312 642.838 788.652 642.68C789.009 642.511 789.503 642.599 789.799 642.894C789.872 642.965 789.933 643.057 790.059 643.225L790.068 643.219Z" fill="black"/>
<path d="M764.73 674.129C764.433 674.136 764.073 674.247 763.848 674.11C763.628 673.981 763.481 673.622 763.44 673.347C763.379 672.918 763.584 672.561 763.96 672.295C764.34 672.037 764.765 672.004 765.091 672.254C765.367 672.465 765.521 673.05 765.329 673.373C765.178 673.632 764.941 673.852 764.724 674.12L764.73 674.129Z" fill="black"/>
<path d="M794.849 617.086C794.274 617.378 793.579 617.137 793.278 616.531C793.05 616.07 793.25 615.439 793.709 615.189C794.289 614.868 794.957 615.105 795.261 615.732C795.491 616.216 795.296 616.855 794.857 617.08L794.849 617.086Z" fill="black"/>
<path d="M795.523 639.647C795.795 640.103 795.575 640.795 795.111 640.965C794.585 641.151 793.973 640.926 793.765 640.475C793.517 639.966 793.707 639.355 794.168 639.127C794.58 638.933 795.245 639.183 795.523 639.647Z" fill="black"/>
<path d="M736.059 615.78C735.678 615.217 735.82 614.517 736.388 614.145C736.687 613.943 736.986 613.993 737.262 614.169C737.647 614.416 737.777 614.822 737.825 615.249C737.866 615.596 737.459 616.137 737.144 616.205C736.715 616.303 736.311 616.153 736.067 615.775L736.059 615.78Z" fill="black"/>
<path d="M782.178 623.129C782.735 622.703 783.331 622.71 783.941 622.986C784.297 623.155 784.365 623.773 784.073 624.055C783.569 624.541 783.007 624.656 782.356 624.373C782.016 624.228 781.862 623.982 781.896 623.657C781.917 623.474 782.073 623.296 782.172 623.12L782.178 623.129Z" fill="black"/>
<path d="M789.607 669.616C789.218 669.916 788.457 669.791 788.21 669.39C787.963 668.99 788.122 668.279 788.517 667.987C788.928 667.685 789.669 667.799 789.899 668.211C790.144 668.625 789.988 669.322 789.599 669.622L789.607 669.616Z" fill="black"/>
<path d="M794.853 660.811C794.611 660.383 794.823 659.732 795.301 659.457C795.779 659.182 796.368 659.339 796.649 659.825C796.938 660.305 796.753 660.889 796.236 661.142C795.736 661.384 795.089 661.231 794.858 660.819L794.853 660.811Z" fill="black"/>
<path d="M778.387 626.698C778.624 626.959 778.587 627.6 778.317 627.844C777.81 628.308 777.133 628.235 776.694 627.675C776.481 627.396 776.613 626.824 776.949 626.572C777.369 626.264 778.048 626.323 778.378 626.703L778.387 626.698Z" fill="black"/>
<path d="M793.186 625.421C793.464 625.993 793.382 626.532 792.964 626.948C792.848 627.063 792.585 627.12 792.413 627.08C791.86 626.959 791.579 626.509 791.636 625.915C791.683 625.485 791.986 625.147 792.466 625.16C792.737 625.169 793.005 625.35 793.186 625.421Z" fill="black"/>
<path d="M786.546 632.38C786.941 632.946 787.041 633.397 786.748 633.91C786.581 634.216 786.315 634.323 786.002 634.342C785.653 634.361 785.427 634.152 785.311 633.856C785.076 633.278 785.291 632.578 785.857 632.291C786.056 632.192 786.379 632.348 786.546 632.38Z" fill="black"/>
<path d="M786.107 661.805C786.492 662.233 786.471 663.093 786.06 663.503C785.997 663.57 785.895 663.615 785.809 663.649C785.474 663.743 785.193 663.595 784.98 663.353C784.617 662.923 784.638 662.401 785.006 661.946C785.224 661.679 785.517 661.613 785.837 661.674C785.934 661.693 786.015 661.759 786.107 661.805Z" fill="black"/>
<path d="M787.023 648.372C787.476 648.114 788.115 648.273 788.335 648.704C788.495 649.03 788.307 649.556 787.979 649.766C787.529 650.047 786.898 649.882 786.681 649.437C786.521 649.111 786.705 648.563 787.023 648.372Z" fill="black"/>
<path d="M786.279 658.743C785.99 659.011 785.479 659.006 785.2 658.736C784.828 658.384 784.799 657.788 785.121 657.389C785.459 656.979 786.064 656.98 786.408 657.399C786.73 657.785 786.667 658.371 786.273 658.734L786.279 658.743Z" fill="black"/>
<path d="M796.964 654.6C797.249 655.023 797.063 655.692 796.601 655.92C796.228 656.1 795.759 655.996 795.468 655.673C795.172 655.343 795.243 654.521 795.585 654.241C795.9 653.992 796.689 654.195 796.964 654.6Z" fill="black"/>
<path d="M719.367 607.59C718.97 607.823 718.313 607.567 718.074 607.089C717.886 606.721 717.992 606.13 718.269 605.967C718.652 605.731 719.358 605.881 719.632 606.251C719.907 606.621 719.765 607.357 719.362 607.581L719.367 607.59Z" fill="black"/>
<path d="M780.686 660.524C780.962 660.253 781.511 660.316 781.799 660.652C782.124 661.024 782.14 661.423 781.849 661.778C781.45 662.241 780.777 662.334 780.499 661.943C780.202 661.504 780.279 660.921 780.686 660.524Z" fill="black"/>
<path d="M783.451 676.827C783.105 676.868 782.8 676.954 782.523 676.9C782.384 676.873 782.24 676.608 782.184 676.417C782.127 676.226 782.092 675.96 782.179 675.804C782.322 675.551 782.533 675.275 782.777 675.17C783.075 675.041 783.614 675.497 783.625 675.888C783.633 676.185 783.526 676.474 783.46 676.821L783.451 676.827Z" fill="black"/>
<path d="M787.384 629.338C787.517 629.767 787.439 630.133 787.145 630.465C786.831 630.823 786.363 630.934 786.095 630.681C785.704 630.318 785.686 629.666 786.041 629.317C786.429 628.945 787.176 628.959 787.378 629.329L787.384 629.338Z" fill="black"/>
<path d="M776.71 661.501C776.144 661.824 775.479 661.574 775.22 660.94C775.056 660.556 775.288 660.061 775.662 659.989C776.083 659.897 776.461 659.955 776.812 660.225C777.208 660.524 777.163 661.243 776.71 661.501Z" fill="black"/>
<path d="M781.871 651.981C782.224 651.718 782.676 651.762 782.953 652.082C783.241 652.418 783.231 652.956 782.927 653.15C782.579 653.385 782.083 653.347 781.82 653.066C781.557 652.785 781.584 652.2 781.862 651.987L781.871 651.981Z" fill="black"/>
<path d="M732.339 589.63C732.624 589.98 732.603 590.466 732.28 590.684C731.877 590.945 731.458 590.915 731.2 590.606C730.946 590.283 730.975 589.756 731.262 589.538C731.623 589.269 732.056 589.302 732.331 589.635L732.339 589.63Z" fill="black"/>
<path d="M707.275 595.151C706.839 595.506 706.373 595.46 706.082 595.137C705.786 594.807 705.851 594.243 706.196 594.094C706.573 593.936 707.078 594.04 707.261 594.399C707.368 594.629 707.279 594.943 707.283 595.145L707.275 595.151Z" fill="black"/>
<path d="M725.985 599.028C725.656 599.202 725.084 599.071 724.888 598.781C724.664 598.449 724.721 597.892 724.982 597.654C725.321 597.352 725.952 597.517 726.266 597.98C726.468 598.278 726.3 598.851 725.977 599.034L725.985 599.028Z" fill="black"/>
<path d="M765.456 667.816C765.655 668.164 765.498 668.681 765.136 668.806C764.834 668.914 764.545 668.843 764.344 668.581C764.097 668.253 764.152 667.745 764.441 667.513C764.712 667.306 765.251 667.46 765.456 667.816Z" fill="black"/>
<path d="M784.189 671.799C784.188 671.993 784.251 672.228 784.166 672.37C784.009 672.621 783.795 672.911 783.543 673.021C783.3 673.125 782.873 673.137 782.714 672.991C782.535 672.834 782.466 672.41 782.53 672.149C782.646 671.66 783.215 671.359 783.732 671.444C783.898 671.476 784.041 671.669 784.198 671.793L784.189 671.799Z" fill="black"/>
<path d="M796.792 630.588C796.764 630.921 796.813 631.226 796.71 631.465C796.598 631.746 796.204 631.771 795.901 631.59C795.603 631.417 795.459 631.152 795.507 630.83C795.531 630.669 795.709 630.415 795.831 630.417C796.114 630.407 796.412 630.507 796.778 630.585L796.792 630.588Z" fill="black"/>
<path d="M721.536 593.224C721.154 592.819 721.189 592.3 721.534 592.079C721.824 591.882 722.115 591.939 722.367 592.167C722.69 592.467 722.661 593.03 722.282 593.202C722.053 593.309 721.731 593.225 721.536 593.224Z" fill="black"/>
<path d="M716.185 597.306C715.991 597.304 715.686 597.354 715.414 597.273C715.277 597.232 715.153 596.942 715.152 596.761C715.141 596.406 715.4 596.183 715.73 596.116C716.046 596.048 716.34 596.126 716.553 596.405C716.707 596.614 716.555 597.067 716.19 597.314L716.185 597.306Z" fill="black"/>
<path d="M765.632 619.863C765.647 620.046 765.735 620.264 765.664 620.409C765.472 620.768 764.949 620.905 764.621 620.741C764.398 620.626 764.262 620.175 764.376 619.952C764.623 619.495 765.316 619.449 765.632 619.863Z" fill="black"/>
<path d="M798.629 646.625C798.315 646.536 798.024 646.516 797.806 646.373C797.698 646.302 797.679 645.989 797.727 645.811C797.808 645.502 797.978 645.218 798.327 645.163C798.521 645.128 798.787 645.093 798.918 645.198C799.049 645.302 799.124 645.59 799.083 645.762C799.008 646.043 798.815 646.294 798.626 646.639L798.629 646.625Z" fill="black"/>
<path d="M801.953 647.575C802.001 647.325 801.996 647.015 802.116 646.764C802.179 646.625 802.45 646.49 802.614 646.5C802.783 646.518 803.028 646.666 803.093 646.815C803.316 647.305 802.823 647.843 802.265 647.75C802.182 647.734 802.109 647.663 801.953 647.575Z" fill="black"/>
<path d="M798.203 621.577C798.29 621.724 798.399 621.831 798.375 621.884C798.26 622.143 798.168 622.507 797.969 622.605C797.762 622.709 797.417 622.557 797.131 622.509C797.215 622.222 797.221 621.856 797.411 621.691C797.585 621.538 797.954 621.601 798.203 621.577Z" fill="black"/>
<path d="M778.442 652.25C778.078 652.158 777.77 652.149 777.555 651.993C777.346 651.845 777.484 651.353 777.724 651.19C777.981 651.016 778.5 651.051 778.548 651.284C778.597 651.553 778.491 651.842 778.436 652.242L778.442 652.25Z" fill="black"/>
<path d="M779.361 623.285C779.125 623.239 778.856 623.216 778.594 623.152C778.525 623.138 778.463 623.011 778.443 622.928C778.389 622.687 778.669 622.388 779.005 622.33C779.326 622.27 779.668 622.437 779.656 622.722C779.652 622.894 779.492 623.051 779.358 623.299L779.361 623.285Z" fill="black"/>
<path d="M773.589 674.64C773.885 674.898 773.903 675.478 773.561 675.722C773.329 675.879 773.008 675.903 772.723 675.999C772.685 675.711 772.538 675.388 772.634 675.154C772.732 674.906 773.052 674.738 773.292 674.575C773.35 674.536 773.492 674.621 773.587 674.654L773.589 674.64Z" fill="black"/>
<path d="M759.89 671.778C759.865 672.169 759.909 672.466 759.81 672.713C759.723 672.941 759.301 672.889 759.036 672.658C758.807 672.463 758.762 671.986 759.008 671.868C759.224 671.758 759.524 671.808 759.882 671.784L759.89 671.778Z" fill="black"/>
<path d="M774.59 670.195C774.3 670.499 774.136 670.755 773.909 670.885C773.658 671.031 773.393 670.764 773.318 670.367C773.274 670.107 773.378 669.904 773.633 669.924C773.903 669.947 774.175 670.065 774.584 670.186L774.59 670.195Z" fill="black"/>
<path d="M791.99 654.103C791.991 654.284 792.07 654.508 791.988 654.636C791.821 654.906 791.029 654.718 791.01 654.404C790.998 654.243 791.146 654.034 791.276 653.923C791.549 653.701 791.807 653.78 791.99 654.103Z" fill="black"/>
<path d="M784.956 667.367C785.098 667.754 785.011 668.018 784.712 668.112C784.314 668.237 784.041 668.155 783.953 667.865C783.848 667.549 783.907 667.28 784.228 667.111C784.532 666.954 784.857 667.059 784.962 667.375L784.956 667.367Z" fill="black"/>
<path d="M779.839 617.961C779.882 618.15 779.933 618.332 779.976 618.521C779.79 618.55 779.569 618.651 779.413 618.6C779.191 618.521 779.173 618.28 779.293 618.065C779.43 617.84 779.616 617.811 779.825 617.959L779.839 617.961Z" fill="black"/>
<path d="M790.854 610.419C791.058 610.559 791.137 610.783 790.969 610.945C790.853 611.06 790.604 611.048 790.415 611.091C790.386 610.905 790.296 610.7 790.35 610.531C790.426 610.286 790.645 610.271 790.854 610.419Z" fill="black"/>
<path d="M769.818 617.234C769.555 616.881 769.67 616.356 769.931 616.349C770.106 616.339 770.342 616.421 770.44 616.548C770.538 616.674 770.568 617.04 770.519 617.074C770.289 617.181 770.018 617.208 769.816 617.248L769.818 617.234Z" fill="black"/>
<path d="M713.851 586.581C713.681 586.526 713.453 586.511 713.353 586.398C713.165 586.175 713.358 585.888 713.731 585.78C713.966 585.717 714.164 585.813 714.149 586.077C714.137 586.254 713.955 586.414 713.856 586.589L713.851 586.581Z" fill="black"/>
<path d="M771.76 611.862C771.933 612.046 771.94 612.235 771.73 612.353C771.504 612.482 771.315 612.417 771.233 612.207C771.199 612.121 771.209 611.993 771.253 611.915C771.373 611.665 771.556 611.65 771.76 611.862Z" fill="black"/>
<path d="M710.098 580.752C710.121 580.93 710.159 581.11 710.182 581.287C710.013 581.305 709.781 581.39 709.672 581.318C709.583 581.258 709.542 580.948 709.611 580.853C709.679 580.758 709.926 580.784 710.095 580.766L710.098 580.752Z" fill="black"/>
<path d="M721.634 596.793C721.599 596.973 721.612 597.206 721.507 597.301C721.383 597.421 721.126 597.487 720.97 597.435C720.867 597.408 720.774 597.11 720.809 596.965C720.849 596.793 721.003 596.556 721.155 596.513C721.277 596.479 721.467 596.689 721.634 596.793Z" fill="black"/>
<path d="M710.282 604.925C710.375 605.188 710.279 605.386 710.01 605.363C709.833 605.35 709.657 605.18 709.509 605.05C709.478 605.023 709.541 604.848 709.593 604.764C709.73 604.538 709.932 604.498 710.133 604.652C710.208 604.71 710.228 604.829 710.282 604.925Z" fill="black"/>
<path d="M731.176 594.173C731.324 594.266 731.526 594.334 731.616 594.466C731.667 594.541 731.569 594.825 731.466 594.87C731.259 594.974 731.061 594.842 731.035 594.607C731.025 594.468 731.127 594.315 731.176 594.173Z" fill="black"/>
<path d="M708.751 585.915C708.654 585.897 708.543 585.911 708.467 585.854C708.423 585.823 708.383 585.657 708.416 585.635C708.548 585.509 708.706 585.403 708.858 585.324C708.899 585.296 709.011 585.389 709.097 585.428C708.987 585.586 708.869 585.751 708.759 585.91L708.751 585.915Z" fill="black"/>
<path d="M761.838 610.174C761.979 610.151 762.279 610.093 762.282 610.115C762.347 610.373 762.382 610.639 762.418 610.905C762.242 610.842 762.064 610.794 761.909 610.706C761.702 610.58 761.682 610.389 761.838 610.174Z" fill="black"/>
<path d="M788.727 620.083C788.813 620.122 788.924 620.143 788.963 620.201C789.002 620.259 788.959 620.373 788.957 620.459C788.87 620.421 788.757 620.413 788.72 620.341C788.681 620.283 788.724 620.169 788.727 620.083Z" fill="black"/>
<path d="M767.519 605.918L767.689 606.08L767.54 606.145L767.519 605.918Z" fill="black"/>
<path d="M775.875 613.266C775.792 613.286 775.679 613.351 775.634 613.321C775.456 613.2 775.491 613.055 775.709 612.968C775.779 612.945 775.876 613 775.973 613.019C775.935 613.105 775.905 613.186 775.875 613.266Z" fill="black"/>
<path d="M787.492 653.525C787.418 653.539 787.301 653.582 787.285 653.557C787.234 653.483 787.225 653.38 787.191 653.294C787.266 653.28 787.382 653.237 787.399 653.262C787.45 653.337 787.467 653.434 787.487 653.517L787.492 653.525Z" fill="black"/>
<path d="M790.411 639.304C790.404 639.453 790.459 639.694 790.384 639.745C790.252 639.834 790.041 639.808 789.863 639.832C789.879 639.676 789.847 639.504 789.915 639.374C790.022 639.157 790.219 639.144 790.406 639.295L790.411 639.304Z" fill="black"/>
<path d="M775.421 665.055C775.441 665.138 775.503 665.229 775.47 665.287C775.388 665.452 775.246 665.439 775.128 665.229C775.095 665.179 775.152 665.068 775.174 664.993C775.249 665.014 775.338 665.039 775.413 665.06L775.421 665.055Z" fill="black"/>
<path d="M785.322 638.547C785.363 638.785 785.264 638.924 785.089 638.862C784.955 638.807 784.862 638.652 784.778 638.528C784.761 638.503 784.846 638.361 784.91 638.33C785.131 638.229 785.273 638.314 785.314 638.552L785.322 638.547Z" fill="black"/>
<path d="M780.534 637.682C780.684 637.726 780.895 637.716 780.948 637.812C781.016 637.912 780.95 638.101 780.935 638.256C780.843 638.246 780.683 638.258 780.663 638.211C780.592 638.053 780.569 637.876 780.52 637.68L780.534 637.682Z" fill="black"/>
<path d="M784.344 642.953C784.373 643.138 784.41 643.318 784.434 643.496C784.339 643.463 784.223 643.469 784.147 643.412C784.072 643.354 784.005 643.255 783.979 643.163C783.968 643.075 784.017 642.969 784.035 642.872C784.13 642.904 784.227 642.923 784.33 642.95L784.344 642.953Z" fill="black"/>
<path d="M775.117 617.016C775.07 617.072 774.991 617.186 774.971 617.175C774.701 617.08 774.689 616.955 774.933 616.851C774.966 616.829 775.05 616.953 775.117 617.016Z" fill="black"/>
<path d="M773.652 621.969L773.611 621.694L773.842 621.876L773.652 621.969Z" fill="black"/>
<path d="M765.442 615.354L765.626 615.483L765.463 615.582L765.442 615.354Z" fill="black"/>
<path d="M706.197 575.097C706.178 575.194 706.151 575.297 706.127 575.386C706.032 575.353 705.894 575.363 705.854 575.305C705.815 575.247 705.884 575.116 705.908 575.027C706.005 575.046 706.1 575.078 706.197 575.097Z" fill="black"/>
<path d="M732.822 609.144L732.984 609.276L732.826 609.347L732.822 609.144Z" fill="black"/>
<path d="M793.532 668.867C793.499 668.961 793.481 669.058 793.448 669.153C793.353 669.12 793.209 669.121 793.178 669.058C793.139 669 793.221 668.872 793.254 668.777C793.348 668.81 793.443 668.842 793.537 668.875L793.532 668.867Z" fill="black"/>
<path d="M746.925 611.781C747.014 611.805 747.097 611.821 747.186 611.846C747.162 611.935 747.166 612.065 747.11 612.09C747.061 612.124 746.944 612.058 746.855 612.034C746.879 611.945 746.895 611.862 746.919 611.773L746.925 611.781Z" fill="black"/>
<path d="M781.608 657.569L781.713 657.438L781.777 657.587L781.608 657.569Z" fill="black"/>
</g>
<g clip-path="url(#clip2_448_623)">
<path d="M693.89 667.49C696.91 666.71 700.55 666.5 703.24 664.65C706.63 662.32 706.41 656.69 705.55 652.72C704.6 648.37 702.1 644.66 699.07 641.87C698.29 641.15 696.1 639.4 695.32 641.25C695.32 641.25 691.97 649.24 688.63 657.23" fill="#B989C9"/>
<path d="M638.12 667.54C635.06 666.75 631.38 666.54 628.65 664.67C625.22 662.31 625.44 656.61 626.31 652.59C627.27 648.18 629.8 644.43 632.87 641.61C633.66 640.88 635.88 639.11 636.66 640.99C636.66 640.99 640.05 649.08 643.44 657.17" fill="#B989C9"/>
<path d="M657.54 707.64C659.31 708.08 661.15 708.35 663.05 708.43C679.31 709.16 691.96 694.67 694.38 682.08C697.69 664.86 682.72 649.32 663.58 649.32H664.13C644.99 649.32 630.01 664.86 633.33 682.08C635.4 692.85 644.73 704.5 657.54 707.64Z" fill="#B989C9"/>
<path d="M642.64 664.31C647.37 660.7 655.03 659.58 658.04 664.36C660.66 668.51 660.67 674.06 658.93 678.54C657.2 683 652.14 684.31 647.8 682.93C643.95 681.71 641.02 678.33 639.6 674.64C638 670.48 639.05 667.03 642.63 664.3L642.64 664.31Z" fill="black"/>
<path d="M674.64 664.31C679.37 660.7 687.03 659.58 690.04 664.36C692.66 668.51 692.67 674.06 690.93 678.54C689.2 683 684.14 684.31 679.8 682.93C675.95 681.71 673.02 678.33 671.6 674.64C670 670.48 671.05 667.03 674.63 664.3L674.64 664.31Z" fill="black"/>
<path d="M638.56 666.04C636.47 665.26 634.01 664.81 632.05 663.34C629.58 661.49 629.25 657.74 629.49 655.15C629.75 652.32 631.11 650.04 632.9 648.44C633.36 648.03 634.68 647.04 635.36 648.35C635.36 648.35 638.28 653.99 641.21 659.62" fill="black"/>
<path d="M691.13 659.79C694.16 654.02 697.2 648.25 697.2 648.25C697.9 646.91 699.23 647.9 699.7 648.32C701.51 649.94 702.87 652.24 703.11 655.12C703.33 657.75 702.95 661.57 700.42 663.48C698.41 664.99 695.9 665.47 693.77 666.29" fill="black"/>
<path d="M666.33 716.18C663.79 716.18 661.25 715.82 658.73 715.08C643.74 711.08 633.65 696.43 631.44 684.01C629.7 674.25 632.41 664.23 638.86 656.53C645.65 648.43 655.66 643.78 666.34 643.78C676.03 643.54 686.34 648.49 693.26 656.75C699.88 664.65 702.58 674.59 700.66 684.02C698.94 694.61 691.72 705.31 682.25 711.29C677.12 714.53 671.72 716.17 666.32 716.17L666.33 716.18ZM667.01 648.84C666.81 648.84 666.61 648.84 666.41 648.84C657.17 648.84 648.57 652.83 642.75 659.78C637.26 666.33 634.96 674.84 636.43 683.12C638.36 693.97 647.1 706.75 660.06 710.19C660.08 710.19 660.1 710.2 660.12 710.21C668.22 712.59 675.15 709.78 679.54 707.01C687.72 701.84 694.2 692.26 695.66 683.17C695.66 683.13 695.67 683.1 695.68 683.06C697.33 675.02 695.09 666.83 689.37 660.01C683.56 653.08 675.04 648.84 667 648.84H667.01Z" fill="black"/>
<path d="M636.33 671.23C635.36 670.98 634.31 670.77 633.19 670.55C630.12 669.95 626.63 669.27 623.73 667.28C617.56 663.05 618.89 653.46 619.74 649.54C621.27 642.49 625.45 637.47 628.68 634.51C630.18 633.13 632.43 631.6 634.7 632.1C636.02 632.39 637.07 633.3 637.64 634.67C637.69 634.78 639.33 638.72 641.58 644.08L646.05 654.76L641.16 656.81L636.69 646.13C634.76 641.53 633.73 639.06 633.18 637.69C632.92 637.86 632.61 638.1 632.27 638.41C629.6 640.86 626.16 644.97 624.92 650.66C623.91 655.29 623.86 660.94 626.73 662.91C628.72 664.28 631.51 664.82 634.2 665.35C635.34 665.57 636.52 665.8 637.66 666.1L636.33 671.23ZM632.79 636.69L632.75 636.71C632.78 636.77 632.81 636.82 632.86 636.88C632.83 636.81 632.81 636.75 632.79 636.69Z" fill="black"/>
<path d="M695.74 671.23L694.41 666.1C695.54 665.81 696.72 665.58 697.86 665.35C700.55 664.82 703.34 664.28 705.33 662.91C708.2 660.94 708.15 655.29 707.14 650.66C705.9 644.97 702.46 640.86 699.79 638.41C699.46 638.1 699.15 637.87 698.9 637.69C698.59 638.45 698.12 639.57 697.42 641.24L690.91 656.8L686.02 654.75L694.43 634.66C695 633.3 696.05 632.38 697.37 632.09C699.63 631.59 701.89 633.13 703.38 634.5C706.61 637.47 710.79 642.48 712.32 649.53C713.17 653.46 714.5 663.04 708.33 667.28C705.43 669.27 701.95 669.95 698.87 670.55C697.76 670.77 696.71 670.97 695.73 671.23H695.74ZM699.3 636.7C699.3 636.7 699.27 636.79 699.25 636.84C699.28 636.8 699.31 636.76 699.33 636.71H699.3V636.7Z" fill="black"/>
<path d="M676.11 648.34C676.34 648.55 677.76 648.13 679.07 647.68L675.33 646.82L661.11 646.6L649.73 648.99C649.58 649.02 644.34 654.19 643.84 654.94C645.15 652.97 662.11 656.19 664.47 656.38C670.56 656.86 675.88 655.04 681.84 654.5C682.56 654.43 686.56 654.22 687.84 654.19C684.74 652.4 678.8 650.74 676.11 648.34Z" fill="black"/>
<path d="M663.83 636.96L655.26 644.64C654.59 644.99 654.56 645.93 655.19 646.33L660.53 649.7C661.17 650.1 662 649.66 662.03 648.91L665.26 637.86C665.29 637.11 664.49 636.61 663.83 636.96Z" fill="black"/>
<path d="M675.03 638.36L666.46 646.04C665.79 646.39 665.76 647.33 666.39 647.73L671.73 651.1C672.37 651.5 673.2 651.06 673.23 650.31L676.46 639.26C676.49 638.51 675.69 638.01 675.03 638.36Z" fill="black"/>
<path d="M672.11 634.58L661.69 643.92C660.88 644.35 660.84 645.49 661.61 645.98L668.11 650.07C668.88 650.56 669.89 650.02 669.93 649.11L673.86 635.68C673.9 634.77 672.93 634.16 672.12 634.58H672.11Z" fill="black"/>
<path d="M650.57 677.63C650.47 677.63 650.37 677.62 650.26 677.61C650 677.58 649.71 677.52 649.56 677.3C649.44 677.13 649.38 676.88 649.45 676.69C650.62 673.6 650.62 670.05 649.3 667.33C649.25 667.23 649.26 667.1 649.3 666.99C649.38 666.75 649.66 666.66 649.91 666.61C651.99 666.25 654.24 667.2 655.44 668.94C656.64 670.68 656.71 673.12 655.63 674.93C654.6 676.65 652.57 677.72 650.57 677.63Z" fill="white"/>
<path d="M682.57 677.63C682.47 677.63 682.37 677.62 682.26 677.61C682 677.58 681.71 677.52 681.56 677.3C681.44 677.13 681.38 676.88 681.45 676.69C682.62 673.6 682.62 670.05 681.3 667.33C681.25 667.23 681.26 667.1 681.3 666.99C681.38 666.75 681.66 666.66 681.91 666.61C683.99 666.25 686.24 667.2 687.44 668.94C688.64 670.68 688.71 673.12 687.63 674.93C686.6 676.65 684.57 677.72 682.57 677.63Z" fill="white"/>
</g>
<g clip-path="url(#clip3_448_623)">
<path d="M884.238 517.411C884.238 523.059 877.63 531.139 871.021 535.431C870.794 535.6 870.683 535.711 870.683 535.826C870.683 535.942 870.852 535.938 871.19 535.938C871.359 535.938 874.014 535.769 875.54 535.769C876.389 535.769 877.176 535.769 877.856 535.826C878.479 535.884 878.986 536.334 879.097 536.898C879.378 538.086 879.72 540.287 879.946 541.981C879.946 542.546 879.551 542.942 878.928 543C875.37 543.226 864.017 543.903 860.402 544.072C859.779 544.072 859.103 543.845 858.819 543.28C858.254 542.039 857.293 538.535 857.293 538.082C857.293 537.575 857.578 537.064 857.969 536.783C868.816 530.059 876.327 519.44 876.442 515.544C876.385 513.849 875.086 513.227 873.845 513.227C871.866 513.227 868.762 515.317 866.445 518.99C866.276 519.271 865.992 519.444 865.654 519.444C865.316 519.444 864.978 519.217 864.978 519.217C863.679 518.372 862.154 517.127 861.304 516.166C861.024 515.886 860.851 515.49 860.851 515.037C860.851 514.868 860.909 514.583 860.962 514.414C862.034 511.759 866.272 505.996 871.809 505.996C876.95 505.996 884.238 511.59 884.238 517.407V517.411Z" fill="black"/>
<path d="M886.724 538.539C885.368 536.28 884.972 532.833 884.972 529.952C884.972 522.494 888.983 506.227 899.545 506.227C901.804 506.227 908.075 508.712 910.222 512.385C911.463 514.533 911.917 517.242 911.917 519.843C911.917 528.261 907.625 544.133 897.228 544.133C895.027 544.133 889.206 542.154 886.72 538.539H886.724ZM892.994 531.193C892.994 535.657 894.52 536.956 896.045 536.956C900.225 536.956 903.729 526.052 903.729 518.145C903.729 514.249 902.488 513.173 901.132 513.173C897.063 513.173 892.998 523.397 892.998 531.193H892.994Z" fill="black"/>
<path d="M937.79 517.411C937.79 523.059 931.181 531.139 924.573 535.431C924.346 535.6 924.235 535.711 924.235 535.826C924.235 535.942 924.404 535.938 924.742 535.938C924.911 535.938 927.566 535.769 929.091 535.769C929.94 535.769 930.728 535.769 931.408 535.826C932.03 535.884 932.538 536.334 932.649 536.898C932.929 538.086 933.271 540.287 933.498 541.981C933.498 542.546 933.102 542.942 932.48 543C928.922 543.226 917.569 543.903 913.953 544.072C913.331 544.072 912.654 543.845 912.37 543.28C911.805 542.039 910.845 538.535 910.845 538.082C910.845 537.575 911.129 537.064 911.521 536.783C922.367 530.059 929.879 519.44 929.994 515.544C929.936 513.849 928.638 513.227 927.397 513.227C925.418 513.227 922.314 515.317 919.997 518.99C919.828 519.271 919.543 519.444 919.205 519.444C918.867 519.444 918.529 519.217 918.529 519.217C917.23 518.372 915.705 517.127 914.856 516.166C914.576 515.886 914.403 515.49 914.403 515.037C914.403 514.868 914.46 514.583 914.514 514.414C915.586 511.759 919.824 505.996 925.36 505.996C930.501 505.996 937.79 511.59 937.79 517.407V517.411Z" fill="black"/>
<path d="M960.95 527.408C961.626 527.408 961.911 527.862 962.022 528.426C962.249 529.725 962.529 532.211 962.529 533.736C962.529 534.243 962.191 534.754 961.569 534.754C961.288 534.754 959.083 534.812 958.802 534.812C958.126 534.812 957.784 535.319 957.673 535.884C957.335 538.312 956.939 540.74 956.655 543.115C956.597 543.68 956.201 544.018 955.694 544.018C954.733 544.018 951.345 543 950.215 542.55C949.539 542.323 949.197 541.701 949.197 541.136C949.255 539.837 949.593 536.391 949.593 536.164C949.593 535.711 949.255 535.431 948.859 535.431C947.56 535.431 939.991 536.164 939.538 536.164C938.862 536.164 938.351 535.884 938.124 535.373C937.559 534.243 936.318 530.739 936.318 529.894C936.318 529.387 936.487 528.822 936.772 528.48C940.84 523.059 949.593 510.461 952.248 507.014C952.528 506.676 952.87 506.449 953.32 506.449C953.827 506.449 954.903 507.183 955.298 507.183C955.525 507.183 955.694 507.072 955.805 506.845C955.974 506.507 956.37 506.223 956.824 506.223C957.5 506.223 961.342 507.295 962.81 507.806C963.263 507.975 963.432 508.37 963.432 508.766C963.432 508.878 963.374 509.162 963.374 509.162C962.356 512.213 960.777 518.483 959.306 526.221C959.306 526.221 959.248 526.559 959.248 526.728C959.248 527.066 959.475 527.404 959.87 527.404H960.942L960.95 527.408ZM945.363 527.973C945.363 528.142 945.532 528.311 945.816 528.311C945.927 528.311 948.528 528.031 949.885 527.915C950.449 527.858 950.788 527.577 950.903 527.012C951.525 523.508 952.655 518.03 952.655 517.634C952.655 517.465 952.655 517.353 952.597 517.353C952.486 517.353 952.317 517.58 952.317 517.58C951.641 518.483 946.104 526.732 945.539 527.577C945.428 527.746 945.37 527.858 945.37 527.973H945.363Z" fill="black"/>
<path d="M956.359 643.398C954.722 642.495 951.725 639.556 950.088 637.862C949.693 637.466 949.524 636.959 949.524 636.448C949.524 632.21 952.463 617.863 953.873 612.892C953.93 612.665 953.93 612.384 953.93 612.158C953.93 610.971 953.704 609.107 953.704 608.769C953.704 608.316 953.93 607.924 954.38 607.751C957.542 606.395 961.384 605.492 963.812 605.492C972.511 605.492 979.461 614.87 979.461 621.986C979.461 633.113 969.745 642.945 958.449 643.732C957.715 643.732 956.981 643.675 956.359 643.394V643.398ZM971.666 619.504C971.666 615.266 968.108 612.726 964.266 612.726C963.87 612.726 963.532 612.726 963.136 612.784C962.46 612.895 962.118 613.18 962.007 613.745C960.65 619.281 958.845 627.134 957.715 634.588C957.715 634.588 957.657 634.926 957.657 635.041C957.657 635.495 957.938 635.664 958.449 635.664C962.687 635.664 971.666 630.185 971.666 619.508V619.504Z" fill="black"/>
<path d="M1009.23 609.223V610.636C1009.23 620.296 1006.01 643.794 994.092 643.794C989.405 643.794 984.714 640.632 983.077 638.315C981.836 636.563 981.271 633.682 981.271 631.027C981.271 621.763 984.829 610.41 986.639 607.017C986.977 606.452 987.372 606.114 988.106 606.114C989.178 606.114 992.175 607.075 993.585 607.582C994.038 607.751 994.261 608.258 994.261 608.712C994.261 608.996 994.15 609.334 994.15 609.334C991.891 615.435 989.347 626.055 989.347 631.365C989.347 634.304 989.912 636.336 992.171 636.336C995.391 636.336 997.201 631.534 998.668 625.659C1000.36 618.935 1001.38 610.237 1001.66 607.301C1001.72 606.737 1002.11 606.399 1002.62 606.399C1003.47 606.399 1006.86 607.248 1008.22 607.755C1008.89 608.035 1009.18 608.658 1009.23 609.223H1009.23Z" fill="black"/>
<path d="M1028.16 630.009C1028.16 630.289 1028.33 630.516 1028.33 630.516C1030.25 633.509 1032.51 636.729 1034.37 638.369C1034.6 638.596 1034.71 638.876 1034.71 639.161C1034.71 639.387 1034.6 639.614 1034.43 639.837C1033.19 641.024 1030.81 642.776 1029.17 643.51C1029.17 643.51 1028.95 643.621 1028.61 643.621C1028.1 643.621 1027.65 643.395 1027.37 643.168C1024.26 640.513 1021.77 634.865 1020.81 631.53C1020.59 630.965 1020.36 630.57 1019.91 630.57H1019.24C1018.67 630.57 1018.44 630.85 1018.39 631.419C1017.71 635.203 1017.14 639.099 1016.75 642.772C1016.64 643.337 1016.24 643.675 1015.73 643.675C1014.54 643.675 1010.42 642.377 1010.03 642.207C1009.18 641.869 1009.07 641.358 1009.01 640.794C1009.12 634.354 1011.77 620.626 1013.92 612.323C1014.03 611.87 1014.03 611.647 1014.03 611.42C1014.03 610.46 1013.75 609.273 1013.75 608.823C1013.75 608.316 1014.15 607.863 1014.54 607.694C1016.75 606.791 1020.53 605.661 1025.22 605.661C1032.51 605.661 1038.33 613.345 1038.33 618.202C1038.33 623.058 1034.2 627.411 1028.78 629.329C1028.38 629.498 1028.16 629.667 1028.16 630.005V630.009ZM1022.11 613.741C1021.89 614.533 1019.85 623.004 1019.85 623.569C1019.85 623.965 1020.08 624.134 1020.48 624.134C1025.73 624.134 1029.91 620.238 1029.91 616.846C1029.91 613.906 1027.53 612.665 1024.77 612.665C1024.31 612.665 1023.86 612.665 1023.41 612.723C1022.68 612.781 1022.28 613.176 1022.11 613.741Z" fill="black"/>
<path d="M1063.12 605.888C1064.03 605.888 1067.87 606.96 1069.28 607.471C1069.68 607.64 1069.96 608.035 1069.96 608.489C1069.96 608.658 1069.9 608.827 1069.9 608.827C1068.1 613.968 1064.53 629.39 1063.01 642.776C1062.95 643.341 1062.56 643.625 1062.11 643.625C1060.98 643.625 1056.96 642.438 1056.34 642.211C1055.61 641.931 1055.38 641.42 1055.32 640.743C1055.32 638.258 1056.12 632.89 1056.12 632.552C1056.12 632.099 1055.78 631.761 1055.21 631.761C1053.29 631.872 1050.81 631.93 1048.66 631.987C1048.04 631.987 1047.64 632.494 1047.53 633.005C1046.96 636.283 1046.46 639.56 1046.11 642.78C1046.06 643.345 1045.61 643.629 1045.15 643.629C1043.97 643.629 1040.07 642.499 1039.39 642.215C1038.83 641.988 1038.49 641.424 1038.43 640.747C1038.54 637.923 1039.28 632.387 1039.28 632.16C1039.28 631.822 1039.17 631.653 1039 631.484C1038.88 631.315 1038.71 631.146 1038.6 630.808C1038.37 629.962 1038.2 628.437 1038.15 627.304C1038.15 626.57 1038.32 626.286 1039.33 626.005C1040.12 625.778 1040.46 625.383 1040.57 624.875C1041.93 617.191 1043.85 609.568 1045.03 606.687C1045.26 606.233 1045.66 605.953 1046.16 605.953C1047.18 605.953 1051.08 606.971 1052.38 607.478C1052.77 607.59 1053.05 608.101 1053.05 608.55C1053.05 608.719 1052.94 609.057 1052.94 609.057C1051.92 611.77 1050.63 616.965 1049.22 623.631C1049.22 623.631 1049.16 623.911 1049.16 624.084C1049.16 624.48 1049.5 624.818 1049.95 624.818C1050.18 624.818 1055.32 624.649 1056.45 624.649C1057.01 624.649 1057.52 624.253 1057.63 623.688C1059.05 616.457 1060.8 609.453 1061.98 606.687C1062.15 606.233 1062.61 605.895 1063.11 605.895L1063.12 605.888Z" fill="black"/>
<path d="M1068.94 633.851C1068.94 633.174 1067.98 630.8 1067.98 629.782C1067.98 629.217 1068.26 628.821 1068.88 628.71C1069.51 628.598 1070.24 628.429 1070.24 628.429C1071.03 628.26 1071.26 627.976 1071.6 627.3C1074.59 621.368 1079.45 610.014 1081.99 607.021C1082.33 606.625 1082.72 606.514 1083.12 606.514C1083.68 606.514 1084.7 606.91 1085.04 606.91C1085.49 606.91 1085.94 606.629 1086 606.176C1086.06 605.78 1086.28 605.442 1086.73 605.442C1087.53 605.442 1091.54 606.856 1092.44 607.305C1093.06 607.59 1093.46 608.154 1093.57 608.831C1094.19 612.05 1094.47 621.598 1094.47 630.07C1094.47 635.437 1094.3 640.294 1094.02 642.837C1093.96 643.291 1093.56 643.686 1092.89 643.686C1091.93 643.686 1087.92 643.064 1086.9 642.726C1086.34 642.557 1086 642.05 1086 641.258C1086 639.96 1086.17 635.837 1086.17 634.93C1086.17 634.423 1085.83 634.081 1085.27 634.081C1082.72 634.081 1078.66 634.308 1077.98 634.365C1077.3 634.423 1077.02 634.704 1076.68 635.384C1075.61 637.754 1074.65 640.805 1073.8 642.784C1073.57 643.237 1073.17 643.46 1072.78 643.46C1071.88 643.46 1068.54 641.877 1067.64 641.258C1067.24 640.978 1066.96 640.636 1066.96 640.129C1066.96 639.844 1067.02 639.675 1067.02 639.675L1068.83 634.534C1068.94 634.254 1068.94 634.081 1068.94 633.858L1068.94 633.851ZM1080.01 626.846C1080.01 627.184 1080.24 627.3 1080.81 627.3C1082.22 627.3 1084.53 627.242 1085.27 627.242C1085.89 627.242 1086.23 626.962 1086.34 626.17C1086.4 624.929 1086.4 623.627 1086.4 622.328C1086.4 619.22 1086.28 616.227 1086.23 614.421C1086.23 614.083 1086.12 613.914 1086 613.914C1085.88 613.914 1085.77 614.025 1085.66 614.252C1084.25 617.303 1082.27 621.763 1080.13 626.508C1080.13 626.508 1080.01 626.735 1080.01 626.846Z" fill="black"/>
<path d="M1104.25 643.679C1103.06 643.679 1099.56 642.607 1098.65 642.265C1097.92 641.981 1097.69 641.416 1097.63 640.797C1097.92 632.606 1102.21 612.043 1104.53 606.848C1104.75 606.341 1105.38 605.999 1106.05 605.999C1106.84 605.999 1112.72 607.186 1115.15 608.201C1115.77 608.481 1115.82 609.104 1115.82 609.668C1115.88 611.87 1115.88 620.288 1115.82 625.486C1115.82 625.713 1115.88 625.94 1115.99 625.94C1116.1 625.94 1116.27 625.544 1116.27 625.544C1118.64 619.612 1121.3 612.043 1124.01 606.622C1124.29 606.168 1124.74 605.83 1125.37 605.83C1127.12 605.83 1133.44 607.524 1135.31 608.374C1135.82 608.543 1136.04 608.996 1136.04 609.446C1136.04 609.615 1135.99 609.784 1135.99 609.784C1134.12 615.547 1130.79 629.951 1129.32 642.83C1129.26 643.337 1128.81 643.679 1128.3 643.679C1127.4 643.679 1123.67 642.776 1122.6 642.265C1121.92 641.927 1121.64 641.416 1121.58 640.797C1121.58 635.261 1125.08 620.292 1125.08 619.616C1125.08 619.504 1125.02 619.389 1124.97 619.389C1124.92 619.389 1124.8 619.5 1124.69 619.727C1122.48 624.756 1120.56 630.911 1117.96 637.747C1117.79 638.2 1117.29 638.596 1116.78 638.596C1115.93 638.596 1112.6 637.524 1111.13 636.844C1110.45 636.506 1110.17 635.826 1110.11 635.261C1109.49 630.854 1109.66 624.188 1109.49 619.5C1109.43 619.216 1109.38 619.105 1109.32 619.105C1109.26 619.105 1109.15 619.216 1109.09 619.443C1107.62 625.882 1106.21 634.581 1105.31 642.83C1105.2 643.337 1104.74 643.679 1104.23 643.679H1104.25Z" fill="black"/>
<path d="M822.583 541.198C823.982 541.198 829.722 542.904 830.733 543.449C831.274 543.76 831.662 544.302 831.662 544.925C831.662 545.078 831.586 545.389 831.586 545.389C828.946 552.839 823.748 574.336 821.342 593.739C821.266 594.515 820.643 594.98 819.944 594.98C818.703 594.98 814.822 593.892 813.658 593.428C812.959 593.116 812.417 592.498 812.34 591.41L812.187 588.848C812.187 588.46 812.033 588.072 811.799 588.072C811.645 588.072 811.487 588.148 811.257 588.46C808.775 592.106 805.824 595.21 803.342 595.21C797.909 595.21 791.777 588.149 791.777 581.164C791.777 568.435 798.297 555.398 808.076 555.398C809.862 555.398 812.267 556.328 814.749 557.65C814.749 557.65 815.137 557.884 815.372 557.884C815.837 557.884 816.148 557.573 816.302 556.874C817.931 550.123 819.483 545.078 820.805 542.281C821.116 541.659 821.815 541.194 822.591 541.194L822.583 541.198ZM811.952 578.685C812.805 574.651 814.281 567.355 814.281 566.732C814.281 566.191 814.046 565.722 813.428 565.491C812.34 565.103 811.334 564.869 810.711 564.869C805.667 564.869 802.873 575.5 802.873 580.856C802.873 583.108 803.415 584.66 804.114 584.66C805.743 584.66 808.694 582.566 810.946 580.468C811.568 579.926 811.875 579.227 811.956 578.681L811.952 578.685Z" fill="black"/>
<path d="M840.046 552.532C844.703 552.532 847.573 549.581 847.573 545.47C847.573 540.89 843.07 539.027 839.347 539.027C838.571 539.027 837.406 539.415 836.865 539.803C835.236 541.121 833.526 543.219 833.526 545.935C833.526 549.504 835.543 552.532 840.046 552.532Z" fill="black"/>
<path d="M865.504 591.568L865.27 588.31C865.27 587.922 865.116 587.687 864.958 587.687C864.801 587.687 864.647 587.841 864.493 588.075C861.777 592.421 858.673 595.214 856.267 595.214C850.758 595.214 844.626 588.463 844.626 581.167C844.626 568.208 850.835 555.402 861.546 555.402C865.35 555.402 873.111 558.429 878.698 562.076C879.239 562.387 879.628 563.005 879.628 563.705C879.628 563.939 879.474 564.558 879.474 564.558C876.369 575.577 875.282 587.607 875.128 593.815C875.052 594.515 874.506 595.056 873.811 595.056C871.793 595.056 867.525 593.892 866.902 593.581C865.892 593.039 865.585 592.34 865.504 591.564V591.568ZM864.805 578.685C865.658 574.651 867.133 567.355 867.133 566.732C867.133 566.191 866.899 565.722 866.28 565.491C865.193 565.103 864.186 564.869 863.564 564.869C858.519 564.869 855.726 575.5 855.726 580.856C855.726 583.107 856.267 584.66 856.967 584.66C858.596 584.66 861.546 582.566 863.798 580.468C864.42 579.926 864.728 579.227 864.808 578.681L864.805 578.685Z" fill="black"/>
<path d="M906.323 555.556C910.203 555.556 915.79 561.223 915.79 565.104C915.79 568.596 912.839 584.818 910.434 593.896C910.199 594.519 909.504 595.138 908.805 595.138C907.018 595.138 902.442 593.432 900.732 592.498C900.11 592.11 899.803 591.411 899.803 590.711C899.803 590.4 899.879 590.012 899.879 590.012C899.879 590.012 903.837 573.714 903.837 568.746C903.837 567.428 903.602 566.571 903.061 566.571C901.897 566.571 898.558 568.435 895.688 571.382C894.912 572.158 894.523 573.088 894.37 573.864C892.971 580.849 891.265 589.54 890.336 593.808C890.182 594.507 889.559 595.049 888.86 595.049C887.154 595.049 882.029 593.343 880.945 592.798C880.246 592.41 879.935 591.787 879.935 591.092C879.935 590.55 884.592 563.075 885.521 556.712C885.675 555.936 886.374 555.395 887.074 555.395C887.927 555.395 893.048 556.324 894.523 556.947C895.376 557.335 895.922 558.188 895.922 559.041C895.922 559.817 895.999 560.981 895.999 562.145C895.999 562.61 896.153 562.844 896.31 562.844C896.544 562.844 896.852 562.456 896.852 562.456C899.956 558.499 903.526 555.548 906.319 555.548L906.323 555.556Z" fill="black"/>
<path d="M934.651 555.402C938.143 555.402 946.68 558.741 951.648 561.922C952.19 562.31 952.501 563.009 952.501 563.709C952.501 564.02 952.424 564.331 952.424 564.331C950.795 571.005 948.698 583.887 946.838 593.278C945.908 598.088 942.181 609.341 930.697 609.341C927.904 609.341 922.936 607.789 920.531 606.003C919.832 605.538 919.601 604.992 919.601 604.374C919.601 603.444 920.688 599.717 921.076 598.864C921.311 598.322 921.776 598.011 922.317 598.011C922.471 598.011 922.782 598.088 922.94 598.165C925.268 599.175 927.285 599.563 928.761 599.563C935.123 599.563 937.064 592.501 937.064 589.239C937.064 588.851 936.91 588.617 936.752 588.617C936.595 588.617 936.518 588.694 936.287 589.005C933.959 592.263 931.243 594.672 928.991 594.672C923.482 594.672 917.584 588.229 917.584 580.702C917.584 567.662 924.181 555.402 934.658 555.402H934.651ZM937.755 578.685C938.608 574.651 940.083 567.355 940.083 566.732C940.083 566.191 939.849 565.722 939.231 565.491C938.143 565.103 937.137 564.869 936.514 564.869C931.469 564.869 928.676 575.5 928.676 580.856C928.676 583.107 929.218 584.66 929.917 584.66C931.546 584.66 934.497 582.566 936.748 580.468C937.371 579.926 937.678 579.227 937.755 578.681V578.685Z" fill="black"/>
<path d="M987.196 571.078C987.196 577.986 983.004 595.214 970.509 595.214C967.017 595.214 960.42 593.274 956.85 589.47C954.676 587.142 953.592 583.573 953.592 579.227C953.592 570.379 958.791 555.325 969.503 555.325C973.537 555.325 980.833 558.353 984.172 561.688C986.189 563.782 987.123 567.509 987.199 570.69V571.078H987.196ZM975.861 570.148C975.861 566.656 974.774 564.327 972.68 564.327C968.411 564.327 964.765 574.494 964.765 580.702C964.765 583.807 965.776 586.058 968.023 586.058C972.757 586.058 975.861 576.046 975.861 570.148Z" fill="black"/>
<path d="M1008.46 572.63C1008.46 572.008 1009.47 568.285 1009.47 566.809C1009.47 565.334 1009.08 564.404 1007.99 564.404C1004.58 564.404 1000.23 572.553 1000.23 578.839C1000.23 582.643 1001.94 584.971 1004.81 584.971C1007.53 584.971 1010.48 583.884 1012.65 582.643C1012.65 582.643 1012.96 582.489 1013.27 582.489C1013.81 582.489 1014.13 582.723 1014.44 583.265C1014.98 584.276 1016.45 587.457 1016.45 588.544C1016.45 589.397 1016.14 590.02 1015.68 590.485C1012.88 592.967 1009.23 595.218 1004.89 595.218C1002.33 595.218 995.187 593.124 992.236 589.397C990.143 586.758 989.055 583.423 989.055 579.154C989.055 568.289 996.194 555.329 1005.04 555.329C1008.07 555.329 1020.02 559.444 1020.02 565.73C1020.02 567.593 1018.54 571.316 1017.77 572.561C1017.38 573.183 1016.76 573.648 1015.9 573.725C1014.66 573.802 1011.4 573.802 1009.62 573.802C1008.92 573.725 1008.45 573.26 1008.45 572.638L1008.46 572.63Z" fill="black"/>
<path d="M1054.79 571.078C1054.79 577.986 1050.6 595.214 1038.1 595.214C1034.61 595.214 1028.01 593.274 1024.45 589.47C1022.27 587.142 1021.19 583.573 1021.19 579.227C1021.19 570.379 1026.39 555.325 1037.1 555.325C1041.13 555.325 1048.43 558.353 1051.77 561.688C1053.78 563.782 1054.72 567.509 1054.79 570.69V571.078H1054.79ZM1043.46 570.148C1043.46 566.656 1042.37 564.327 1040.28 564.327C1036.01 564.327 1032.36 574.494 1032.36 580.702C1032.36 583.807 1033.37 586.058 1035.62 586.058C1040.36 586.058 1043.46 576.046 1043.46 570.148Z" fill="black"/>
<path d="M1082.03 555.556C1085.92 555.556 1091.5 561.223 1091.5 565.104C1091.5 568.596 1088.55 584.818 1086.15 593.896C1085.91 594.519 1085.22 595.138 1084.52 595.138C1082.73 595.138 1078.15 593.432 1076.44 592.498C1075.82 592.11 1075.51 591.411 1075.51 590.711C1075.51 590.4 1075.59 590.012 1075.59 590.012C1075.59 590.012 1079.55 573.714 1079.55 568.746C1079.55 567.428 1079.31 566.571 1078.77 566.571C1077.61 566.571 1074.27 568.435 1071.4 571.382C1070.62 572.158 1070.24 573.088 1070.08 573.864C1068.68 580.849 1066.98 589.54 1066.05 593.808C1065.89 594.507 1065.27 595.049 1064.57 595.049C1062.87 595.049 1057.74 593.343 1056.66 592.798C1055.96 592.41 1055.65 591.787 1055.65 591.092C1055.65 590.55 1060.3 563.075 1061.23 556.712C1061.39 555.936 1062.09 555.395 1062.79 555.395C1063.64 555.395 1068.76 556.324 1070.24 556.947C1071.09 557.335 1071.63 558.188 1071.63 559.041C1071.63 559.817 1071.71 560.981 1071.71 562.145C1071.71 562.61 1071.86 562.844 1072.02 562.844C1072.26 562.844 1072.56 562.456 1072.56 562.456C1075.67 558.499 1079.24 555.548 1082.03 555.548L1082.03 555.556Z" fill="black"/>
<path d="M1103.69 588.775C1103.69 592.579 1101.28 595.372 1097.32 595.372C1093.37 595.372 1091.58 592.421 1091.58 589.24C1091.58 586.523 1092.59 585.125 1094.29 583.573C1094.76 583.108 1095.69 582.72 1096.47 582.72C1099.96 582.72 1103.69 584.66 1103.69 588.775H1103.69Z" fill="black"/>
<path d="M1143.27 559.436C1143.27 559.747 1143.11 560.212 1143.11 560.212C1139.62 571.62 1137.76 586.911 1137.53 593.816C1137.53 594.515 1136.98 595.133 1136.29 595.133C1134.66 595.133 1131.01 594.123 1129.92 593.658C1129.15 593.347 1128.61 592.648 1128.37 591.564C1128.22 590.942 1128.14 589.082 1128.06 587.837C1128.06 587.296 1127.91 586.984 1127.67 586.984C1127.44 586.984 1127.21 587.449 1127.21 587.449C1124.41 592.106 1120.92 595.287 1118.05 595.287C1113.47 595.287 1107.42 589.078 1107.42 582.946C1107.42 573.479 1110.75 561.914 1112.69 557.104C1112.93 556.482 1113.55 555.94 1114.25 555.94C1115.33 555.94 1120.3 557.88 1122.09 558.891C1122.63 559.202 1123.01 559.744 1123.01 560.366C1123.01 560.908 1122.86 561.377 1122.86 561.377C1121.31 565.956 1118.36 577.909 1118.36 582.485C1118.36 583.649 1118.51 584.349 1118.98 584.349C1120.92 584.349 1124.57 581.709 1127.13 578.374C1127.59 577.752 1127.83 577.21 1127.98 576.28C1128.99 569.372 1131.01 561.069 1132.41 557.035C1132.64 556.336 1133.33 555.794 1134.11 555.794C1135.28 555.794 1139.78 557.035 1142.11 558.045C1142.73 558.28 1143.27 558.822 1143.27 559.444L1143.27 559.436Z" fill="black"/>
<path d="M1156.93 555.402C1161.19 555.402 1174 559.359 1174 565.103C1174 567.12 1172.45 570.225 1171.83 571.078C1171.2 571.931 1170.43 572.165 1169.73 572.242H1163.91C1163.13 572.242 1162.75 571.7 1162.75 571.231C1162.75 570.609 1163.52 568.592 1163.52 567.04C1163.52 564.946 1162.59 563.858 1161.43 563.858C1158.79 563.858 1156.46 568.204 1156.46 570.302C1156.46 575.658 1171.21 574.417 1171.21 583.342C1171.21 588.928 1165.7 595.295 1157.78 595.295C1153.12 595.295 1146.29 593.043 1143.81 590.792C1143.11 590.169 1142.96 589.628 1142.96 589.239C1142.96 588.229 1143.89 584.817 1144.58 583.342C1144.9 582.643 1145.21 582.412 1145.67 582.412C1146.14 582.412 1146.45 582.723 1146.6 582.723C1149.32 584.199 1153.12 586.216 1156.3 586.216C1158.09 586.216 1159.72 585.593 1159.87 584.352C1159.87 581.094 1144.89 580.706 1144.89 570.617C1144.89 564.408 1150.56 555.406 1156.92 555.406L1156.93 555.402Z" fill="black"/>
<path d="M844.003 558.737C844.003 561.842 838.805 588.464 837.718 593.508C837.66 593.762 837.599 594.027 837.533 594.292C837.522 594.292 837.51 594.292 837.499 594.296C836.269 599.51 832.312 609.338 821.577 609.338C818.784 609.338 813.816 607.786 811.411 606.003C810.711 605.538 810.481 604.993 810.481 604.374C810.481 603.44 811.568 599.717 811.956 598.861C812.187 598.319 812.652 598.008 813.197 598.008C813.351 598.008 813.662 598.084 813.816 598.165C816.144 599.172 818.165 599.56 819.637 599.56C821.269 599.56 822.852 599.053 824.132 598.031C824.712 597.57 825.215 597.02 825.649 596.421C826.541 595.191 826.764 593.662 827.029 592.206C827.336 590.519 827.644 588.829 827.943 587.138C828.443 584.33 828.923 581.521 829.403 578.712C829.918 575.693 830.425 572.673 830.936 569.653C831.393 566.94 831.851 564.231 832.323 561.523C832.588 560.001 832.83 558.468 833.138 556.951C833.295 556.174 833.991 555.629 834.848 555.629C835.931 555.629 840.668 556.405 842.762 556.951C843.462 557.181 844.003 557.957 844.003 558.733V558.737Z" fill="black"/>
</g>
<rect x="1013.5" y="53.5" width="8.00001" height="163" rx="4" fill="black"/>
<rect x="961" y="383" width="8" height="89" rx="4" fill="black"/>
<rect x="961" y="313" width="8" height="26" rx="4" fill="black"/>
<rect x="806" y="260" width="8" height="65" rx="4" transform="rotate(-90 806 260)" fill="black"/>
<rect x="938" y="260" width="8" height="43" rx="4" transform="rotate(-90 938 260)" fill="black"/>
<rect x="1046" y="273" width="8" height="90" rx="4" transform="rotate(-90 1046 273)" fill="black"/>
<g clip-path="url(#clip4_448_623)">
<path d="M1119.61 105.047C1118.55 106.428 1116.96 107.087 1115.25 106.852C1114.32 106.715 1113.45 106.333 1112.75 105.748C1112.13 105.243 1111.64 104.604 1111.35 103.87C1110.77 102.412 1111.03 100.827 1112.06 99.5142C1115.93 94.5411 1119.81 89.567 1123.69 84.582L1125.22 82.6317L1127.22 84.701C1127.44 84.9193 1127.65 85.1387 1127.86 85.358C1128.7 86.2668 1129.52 87.3083 1130.46 88.6436L1131.4 89.9573L1130.4 91.2226C1126.8 95.8311 1123.2 100.45 1119.6 105.059L1119.61 105.047Z" fill="black"/>
<path d="M1133.13 72.9849C1134.19 71.6041 1135.78 70.9449 1137.49 71.1798C1138.41 71.3167 1139.29 71.6987 1139.99 72.2834C1140.61 72.7893 1141.1 73.4278 1141.39 74.1622C1141.97 75.6202 1141.71 77.2048 1140.68 78.5176C1136.81 83.4907 1132.93 88.4648 1129.05 93.4498L1127.52 95.4002L1125.52 93.3308C1125.3 93.1125 1125.09 92.8931 1124.88 92.6738C1124.04 91.765 1123.22 90.7235 1122.28 89.3882L1121.34 88.0745L1122.34 86.8092C1125.94 82.2007 1129.54 77.5815 1133.14 72.973L1133.13 72.9849Z" fill="black"/>
<path d="M1127.93 44.8146C1127.69 43.0395 1127.41 41.0172 1125.52 41.6955C1118.15 44.3332 1111.72 55.6647 1116.47 64.32C1120.05 70.8129 1126.92 74.5258 1132.46 77.7171C1132.68 77.848 1133.04 77.8127 1132.94 77.561C1130.55 59.5793 1129.07 53.8928 1127.92 44.8156L1127.93 44.8146Z" fill="#B989C9"/>
<path d="M1130.96 80.7437C1130.45 80.795 1129.95 80.7027 1129.55 80.535L1128.6 80.1271C1122.14 77.3656 1114.09 73.9322 1110.1 67.2403C1108.02 63.7286 1107.76 59.5017 1109.36 55.0263C1111.7 48.4496 1117.88 42.1898 1124.41 39.7984C1126.17 39.1556 1127.38 39.5487 1128.07 40.0028C1129.75 41.0797 1129.89 43.1699 1130.01 44.6955L1130.01 44.7171C1130.26 48.7269 1130.65 52.1549 1131.11 56.111C1131.71 61.2741 1132.44 67.6886 1133.17 78.0177C1133.29 78.7584 1133.04 79.5128 1132.5 80.0467C1132.06 80.4716 1131.51 80.6783 1130.97 80.7318L1130.96 80.7437ZM1125.58 44.0002C1120.38 46.042 1115.31 51.232 1113.44 56.4758C1112.64 58.7249 1112.06 62.0311 1113.83 65.0179C1116.79 70.0009 1122.87 72.9314 1128.62 75.4158C1127.96 66.8562 1127.32 61.2288 1126.79 56.6152C1126.32 52.5944 1125.92 49.1124 1125.67 45.0054C1125.64 44.7355 1125.63 44.3446 1125.57 44.0121L1125.58 44.0002Z" fill="black"/>
<path d="M1130.84 82.1406C1131.16 81.6184 1121.47 79.8632 1120.78 79.7784C1118.05 79.373 1115.1 79.436 1112.12 79.9815C1107.2 81.0033 1103.41 84.7587 1100.01 88.1809C1098.51 89.6811 1098.68 91.5943 1100.36 92.3538C1106.43 95.1008 1120.46 98.9115 1130.83 82.1417L1130.84 82.1406Z" fill="#B989C9"/>
<path d="M1169.83 79.1849C1160.68 79.9705 1154.81 79.6798 1136.66 81.1065C1136.39 81.0565 1136.43 81.4344 1136.59 81.6365C1140.76 86.6639 1145.7 92.9562 1152.75 95.2453C1162.17 98.2817 1172.12 89.1852 1173.35 80.9956C1173.66 78.8929 1171.61 79.0409 1169.83 79.1849Z" fill="#B989C9"/>
<path d="M1156.82 101.701C1154.95 101.886 1153.12 101.675 1151.36 101.053C1144 98.4562 1139.06 91.2376 1135.08 85.4385L1134.49 84.5807C1133.99 83.8461 1133.74 82.6054 1134.39 81.6042C1134.8 80.9634 1135.48 80.5689 1136.24 80.5481C1146.51 79.2367 1152.95 78.6978 1158.13 78.2722C1162.11 77.9435 1165.55 77.6576 1169.53 77.1109L1169.55 77.1088C1171.07 76.9148 1173.13 76.6556 1174.53 78.0874C1175.11 78.6839 1175.73 79.7781 1175.45 81.638C1174.38 88.5031 1169.46 95.8049 1163.48 99.3843C1161.27 100.705 1159.03 101.482 1156.83 101.7L1156.82 101.701ZM1139.7 84.4908C1143.26 89.6331 1147.32 95.0199 1152.79 96.9642C1156.07 98.1118 1159.2 96.8863 1161.24 95.6705C1166.01 92.81 1170.12 86.8212 1171.09 81.3174C1170.74 81.3516 1170.35 81.3901 1170.09 81.4157C1166.01 81.9731 1162.51 82.2644 1158.48 82.5984C1153.85 82.9803 1148.21 83.452 1139.69 84.4919L1139.7 84.4908Z" fill="black"/>
<path d="M1127.93 115.388C1128.89 116.873 1130.63 116.636 1131.74 114.858C1134.25 110.826 1137.01 106.334 1137.12 101.318C1137.12 98.3092 1136.7 95.4177 1135.89 92.8377C1135.7 92.1801 1132.55 83.1053 1132.13 83.5389C1118.77 97.1933 1124.48 110.06 1127.93 115.388Z" fill="#B989C9"/>
<path d="M1134.99 119.355C1134.85 119.369 1134.71 119.383 1134.58 119.385C1132.91 119.43 1131.27 118.785 1130.09 117.595C1126.63 114.132 1120.94 107.096 1121.77 98.8481C1122.38 92.7037 1126.42 87.1143 1133.77 82.2429L1134.58 81.705L1135.6 81.9532C1137.94 82.5719 1143.45 92.8085 1143.51 92.9122C1145.1 95.8179 1146.09 99.0457 1146.4 102.427C1146.77 108.573 1142.44 113.428 1138.97 117.337C1137.95 118.484 1136.52 119.215 1134.99 119.366L1134.99 119.355ZM1134.66 86.9087C1129.39 90.7446 1126.51 94.9112 1126.07 99.2938C1125.43 105.758 1130.23 111.617 1133.14 114.534C1133.49 114.881 1133.96 115.063 1134.45 115.048C1134.95 115.042 1135.4 114.823 1135.73 114.452C1138.83 110.972 1142.33 107.028 1142.07 102.758C1141.8 100.048 1140.99 97.3803 1139.65 94.9186C1139.21 94.0686 1136.28 89.2011 1134.66 86.8979L1134.66 86.9087Z" fill="black"/>
<path d="M1111.37 90.1633C1112 89.7731 1112.67 89.3258 1113.36 88.9518C1113.95 88.6318 1114.8 88.9187 1115.16 89.4934C1115.59 90.1815 1115.31 91.168 1114.58 91.557C1114.38 91.6637 1114.14 91.7638 1113.94 91.7399C1113.5 91.6639 1113.02 91.5911 1112.63 91.3791C1111.72 90.8697 1110.9 90.951 1110.05 91.4824C1109.87 91.5977 1109.61 91.5694 1109.38 91.5918C1109 91.6292 1108.49 91.1354 1108.48 90.7435C1108.47 90.3408 1108.93 89.7939 1109.32 89.8428C1109.99 89.9072 1110.65 90.0601 1111.37 90.1849L1111.37 90.1633Z" fill="black"/>
<path d="M1127.01 94.567C1126.3 95.4656 1125.55 95.9216 1124.61 96.048C1123.98 96.1316 1123.36 95.8007 1123.25 95.3104C1123.08 94.5751 1123.34 93.8185 1123.9 93.5449C1124.91 93.0525 1125.87 93.1862 1126.78 93.8046C1127.03 93.9657 1127.09 94.4829 1127.01 94.567Z" fill="black"/>
<path d="M1113.95 96.1662C1113.62 95.8279 1113.51 95.097 1113.77 94.6244C1113.99 94.2316 1114.31 93.9383 1114.8 93.9226C1115.31 93.9047 1115.85 94.3857 1115.9 94.9255C1115.99 95.7569 1115.37 96.4504 1114.54 96.4021C1114.34 96.389 1114.14 96.2452 1113.93 96.1672L1113.95 96.1662Z" fill="black"/>
<path d="M1141.98 108.938C1141.49 109.64 1140.09 109.692 1139.66 109.004C1139.48 108.706 1139.49 108.356 1139.71 108.083C1140.18 107.513 1140.79 107.343 1141.5 107.535C1141.98 107.662 1142.26 108.528 1141.98 108.949L1141.98 108.938Z" fill="black"/>
<path d="M1149.32 87.4625C1148.9 87.1123 1148.82 86.5746 1149.1 85.9692C1149.25 85.6487 1149.84 85.2963 1150.2 85.3808C1150.4 85.4264 1150.59 85.582 1150.72 85.743C1151.07 86.1449 1150.88 86.5777 1150.7 86.9769C1150.5 87.4226 1150.06 87.5636 1149.61 87.6085C1149.51 87.6181 1149.42 87.5079 1149.32 87.4625Z" fill="black"/>
<path d="M1159.17 90.4348C1159.65 89.8642 1160.4 89.7893 1160.96 90.2681C1161.26 90.5221 1161.3 90.845 1161.21 91.1817C1161.07 91.6533 1160.69 91.9196 1160.26 92.1038C1159.92 92.2471 1159.23 91.9992 1159.05 91.6891C1158.83 91.2754 1158.86 90.8037 1159.17 90.4348Z" fill="black"/>
<path d="M1139.33 98.7009C1139.01 98.3831 1138.96 97.8325 1139.24 97.4668C1139.46 97.1723 1139.75 97.0344 1140.12 97.1287C1140.33 97.1839 1140.56 97.2381 1140.74 97.3506C1141.25 97.6599 1141.42 98.3628 1141.1 98.8084C1140.86 99.1482 1140.35 99.2751 1139.89 99.0598C1139.69 98.97 1139.51 98.8241 1139.33 98.7009Z" fill="black"/>
<path d="M1125.88 100.709C1125.48 101.14 1124.68 101.253 1124.37 100.913C1124.04 100.553 1124.11 99.6957 1124.49 99.3528C1124.8 99.0821 1125.4 99.0222 1125.76 99.2266C1126.23 99.5078 1126.29 100.254 1125.89 100.697L1125.88 100.709Z" fill="black"/>
<path d="M1125.78 105.472C1125.35 105.656 1124.84 105.477 1124.6 105.054C1124.37 104.631 1124.53 104.091 1124.96 103.896C1125.44 103.674 1125.92 103.833 1126.11 104.273C1126.32 104.764 1126.17 105.292 1125.78 105.461L1125.78 105.472Z" fill="black"/>
<path d="M1135 99.3372C1134.53 98.7948 1134.6 98.0899 1135.07 97.8032C1135.36 97.6329 1135.68 97.5145 1136 97.7555C1136.52 98.162 1136.44 99.1184 1135.8 99.4211C1135.57 99.531 1135.21 99.3601 1135 99.3372Z" fill="black"/>
<path d="M1114.24 84.1875C1114.29 84.2804 1114.38 84.3701 1114.41 84.4651C1114.62 85.0548 1114.34 85.5187 1113.94 85.907C1113.83 86.0159 1113.52 86.0037 1113.35 85.9226C1112.75 85.6327 1112.62 84.784 1113.05 84.2727C1113.3 83.975 1113.95 83.9324 1114.23 84.1886L1114.24 84.1875Z" fill="black"/>
<path d="M1150.96 92.3051C1150.76 92.6741 1150.15 92.8214 1149.83 92.5804C1149.43 92.282 1149.34 91.8112 1149.61 91.4358C1149.9 91.014 1150.45 90.8623 1150.73 91.1282C1151.08 91.4535 1151.18 91.934 1150.97 92.3149L1150.96 92.3051Z" fill="black"/>
<path d="M1136.88 104.089C1136.48 104.445 1135.91 104.491 1135.52 104.279C1135.12 104.068 1135.04 103.367 1135.43 103.132C1135.69 102.964 1136.06 102.884 1136.37 102.886C1136.56 102.878 1136.86 103.066 1136.9 103.226C1136.97 103.524 1136.89 103.859 1136.88 104.089Z" fill="black"/>
<path d="M1130.89 103.679C1131.37 104.024 1131.41 104.62 1131.08 104.914C1130.82 105.147 1130.41 105.144 1130.17 104.895C1129.97 104.687 1129.88 104.15 1130.11 103.963C1130.33 103.789 1130.68 103.744 1130.89 103.668L1130.89 103.679Z" fill="black"/>
<path d="M1127.7 68.8016C1127.46 68.8251 1127.14 68.9328 1126.87 68.8623C1126.37 68.7366 1126.27 67.9506 1126.66 67.531C1126.87 67.3023 1127.31 67.3028 1127.54 67.5416C1127.86 67.8593 1127.97 68.4154 1127.7 68.8124L1127.7 68.8016Z" fill="black"/>
<path d="M1130.16 88.1174C1130.42 88.4189 1130.34 88.9823 1130.01 89.2551C1129.63 89.5538 1129.11 89.5296 1128.84 89.2184C1128.58 88.9169 1128.66 88.375 1129.01 88.0677C1129.35 87.7614 1129.86 87.7868 1130.16 88.1174Z" fill="black"/>
<path d="M1141.25 103.395C1141.1 103.726 1140.41 103.882 1140.08 103.565C1139.89 103.366 1139.81 103.003 1139.78 102.712C1139.77 102.636 1140.14 102.469 1140.34 102.438C1140.67 102.384 1141.04 102.424 1141.19 102.779C1141.27 102.956 1141.23 103.19 1141.25 103.395Z" fill="black"/>
<path d="M1120.28 100.619C1120.01 100.778 1119.84 100.947 1119.64 100.966C1119.45 100.986 1119.18 100.914 1119.07 100.783C1118.84 100.523 1119.08 99.8992 1119.49 99.7495C1119.65 99.6903 1119.98 99.723 1120.04 99.8364C1120.19 100.073 1120.22 100.375 1120.27 100.631L1120.28 100.619Z" fill="black"/>
<path d="M1131.47 109.553C1131.25 109.488 1130.94 109.464 1130.73 109.299C1130.48 109.106 1130.53 108.566 1130.8 108.442C1130.97 108.359 1131.22 108.292 1131.39 108.351C1131.74 108.469 1131.82 109.181 1131.46 109.554L1131.47 109.553Z" fill="black"/>
<path d="M1132.23 114.635C1132.04 114.741 1131.83 114.958 1131.69 114.918C1131.34 114.832 1131.28 114.511 1131.35 114.177C1131.42 113.897 1131.59 113.815 1131.86 113.919C1132.25 114.077 1132.38 114.326 1132.22 114.624L1132.23 114.635Z" fill="black"/>
<path d="M1128.22 77.6578C1128.33 77.93 1128.5 78.1968 1128.56 78.4851C1128.6 78.6881 1128.04 78.951 1127.8 78.8546C1127.41 78.7074 1127.29 78.1092 1127.61 77.8159C1127.74 77.7048 1127.97 77.7148 1128.22 77.6578Z" fill="black"/>
<path d="M1123.58 79.196C1123.33 79.4387 1122.88 79.3961 1122.82 79.097C1122.78 78.9156 1122.82 78.6717 1122.93 78.5195C1123.09 78.2638 1123.58 78.3453 1123.67 78.6315C1123.72 78.801 1123.62 79.0071 1123.58 79.196Z" fill="black"/>
<path d="M1154.64 86.2719C1154.58 86.3431 1154.52 86.4683 1154.46 86.4855C1154.08 86.5445 1153.82 86.3747 1153.7 86.027C1153.66 85.932 1153.69 85.7981 1153.71 85.688C1153.92 85.699 1154.18 85.6518 1154.34 85.7556C1154.5 85.8496 1154.55 86.1056 1154.64 86.2827L1154.64 86.2719Z" fill="black"/>
<path d="M1140.24 87.7734C1140.26 87.8803 1140.34 88.0034 1140.3 88.0941C1140.22 88.3531 1139.6 88.3816 1139.42 88.1159C1139.37 88.0446 1139.39 87.8902 1139.43 87.7877C1139.58 87.424 1139.93 87.4222 1140.24 87.7626L1140.24 87.7734Z" fill="black"/>
<path d="M1135.26 94.2082C1134.97 94.237 1134.73 94.348 1134.64 94.2702C1134.51 94.174 1134.41 93.8781 1134.46 93.7529C1134.54 93.5932 1134.79 93.5136 1134.96 93.3982C1135.07 93.6606 1135.16 93.9242 1135.26 94.2082Z" fill="black"/>
<path d="M1138.71 78.0253C1138.62 77.9906 1138.49 77.9927 1138.45 77.9203C1138.28 77.6427 1138.36 77.5035 1138.65 77.5729C1138.73 77.587 1138.83 77.708 1138.85 77.7933C1138.85 77.8581 1138.75 77.9444 1138.71 78.0253Z" fill="black"/>
<path d="M1134.1 88.1851C1134.19 88.2197 1134.31 88.2188 1134.36 88.2901C1134.55 88.5224 1134.48 88.6594 1134.21 88.5998C1134.13 88.5857 1134.05 88.4733 1134.02 88.3891C1134 88.3361 1134.07 88.2531 1134.1 88.1959L1134.1 88.1851Z" fill="black"/>
<path d="M1139.16 82.5926C1139.09 82.6325 1138.98 82.7198 1138.95 82.6896C1138.87 82.6323 1138.76 82.4799 1138.79 82.4443C1138.93 82.2339 1139.06 82.2859 1139.16 82.5818L1139.16 82.5926Z" fill="black"/>
<path d="M1136.63 109.151C1136.52 109.14 1136.37 109.176 1136.31 109.117C1136.09 108.911 1136.12 108.711 1136.4 108.585C1136.5 108.543 1136.68 108.514 1136.72 108.565C1136.89 108.766 1136.84 108.977 1136.63 109.151Z" fill="black"/>
<path d="M1129.08 94.1559L1129.15 93.9303L1129.3 94.0794L1129.08 94.1559Z" fill="black"/>
<path d="M1165.07 85.0211L1164.98 85.2261L1164.85 85.0749L1165.07 85.0211Z" fill="black"/>
<path d="M1155.12 91.5556C1155.12 91.4681 1155.09 91.3396 1155.14 91.3019C1155.2 91.2642 1155.31 91.2967 1155.41 91.2978C1155.4 91.3853 1155.43 91.5138 1155.38 91.5515C1155.33 91.5892 1155.21 91.5568 1155.12 91.5556Z" fill="black"/>
<path d="M1128.43 83.8291L1128.51 83.6251L1128.65 83.7861L1128.43 83.8291Z" fill="black"/>
<path d="M1114.84 96.4595C1108.03 97.133 1101.56 93.6849 1098.04 91.3301C1096.65 90.3993 1095.69 88.9247 1095.4 87.2737C1095.12 85.6228 1095.54 83.9023 1096.55 82.5592C1099.7 78.3876 1103.61 73.1922 1109.64 72.356C1113.11 71.9578 1116.45 72.3357 1119.68 73.3461C1119.71 73.3429 1130.83 76.7555 1131.9 78.9287L1132.33 79.8014L1131.97 80.7749C1128.64 88.944 1123.95 93.9983 1118.04 95.8041C1116.97 96.128 1115.89 96.3439 1114.82 96.4498L1114.84 96.4595ZM1110.26 76.6663L1110.16 76.6759C1106 77.2516 1102.82 81.4696 1100.01 85.1817C1099.72 85.5819 1099.6 86.0622 1099.68 86.5557C1099.76 87.0383 1100.03 87.4586 1100.44 87.7343C1103.87 90.022 1110.56 93.5793 1116.77 91.6778C1120.99 90.3875 1124.5 86.7365 1127.23 80.8296C1124.66 79.6892 1119.33 77.7742 1118.46 77.5229C1115.74 76.6792 1113 76.3948 1110.25 76.6674L1110.26 76.6663Z" fill="black"/>
</g>
<g clip-path="url(#clip5_448_623)">
<path d="M814.287 346.296C829.644 346.296 842.094 333.868 842.094 318.538C842.094 303.207 829.644 290.78 814.287 290.78C798.93 290.78 786.48 303.207 786.48 318.538C786.48 333.868 798.93 346.296 814.287 346.296Z" fill="#E7BB43"/>
<path d="M798.407 306.321C792.08 308.444 795.568 318.861 801.894 316.105C808.479 314.112 804.085 303.656 798.407 306.321Z" fill="black"/>
<path d="M832.177 313.206C831.814 313.193 831.464 313.245 831.127 313.361C830.79 313.478 830.479 313.672 830.219 313.918C829.96 314.164 829.74 314.448 829.597 314.772C829.441 315.095 829.364 315.445 829.351 315.807C828.754 325.836 814.857 332.436 806.768 325.021C803.916 322.679 800.442 327.143 803.19 329.11C822.454 345.183 842.613 316.519 832.19 313.206H832.177Z" fill="black"/>
<path d="M802.309 282.291C784.847 288.14 773.711 310.489 781.554 327.04C793.286 357.011 836.481 355.561 848.472 327.169C860.191 300.498 828.728 271.576 802.309 282.291ZM824.71 341.986C788.852 354.811 766.607 301.016 804.111 287.506C840.253 274.475 863.484 328.114 824.71 341.986Z" fill="black"/>
<path d="M821.054 305.675C827.38 307.887 830.582 298.35 824.489 295.607C818.358 293.653 814.507 303.19 821.054 305.675Z" fill="black"/>
</g>
<g clip-path="url(#clip6_448_623)">
<path d="M1103.98 225.84C1103.18 223.203 1099.04 224.318 1099.84 226.972C1101.17 231.342 1102.4 235.712 1103.55 240.1C1103.32 241.055 1103.55 241.338 1104.6 243.603C1105.64 245.868 1109.13 244.24 1108.51 241.94C1107.09 236.544 1105.57 231.165 1103.96 225.822L1103.98 225.84Z" fill="#64A03D"/>
<path d="M1113.69 203.264C1113.34 200.575 1109.04 200.522 1109.41 203.264C1115.26 248.504 1113.07 239.923 1113.85 241.374C1114.63 242.825 1119.17 245.089 1118.75 241.781C1117.07 228.954 1115.39 216.109 1113.71 203.264H1113.69Z" fill="#64A03D"/>
<path d="M1122.75 201.07C1123.72 214.464 1124.52 227.857 1125.19 241.25C1125.31 243.992 1129.63 244.01 1129.47 241.25C1128.81 227.857 1128 214.464 1127.03 201.07C1126.83 198.328 1122.55 198.31 1122.75 201.07Z" fill="#64A03D"/>
<path d="M1149.26 207.864C1148.79 207.015 1147.78 206.626 1146.84 206.891C1144.33 207.846 1145.23 207.086 1133.75 240.065C1132.83 242.683 1136.99 243.78 1137.89 241.197C1150.5 204.732 1149.95 208.926 1149.24 207.864H1149.26Z" fill="#64A03D"/>
<path d="M1156.64 215.737C1156.96 214.587 1156.29 213.419 1155.14 213.101C1153.99 212.783 1152.82 213.455 1152.5 214.605C1152.32 215.012 1146.47 229.113 1141.6 240.772C1140.54 243.32 1144.68 244.435 1145.74 241.905C1157.91 212.641 1156.5 216.356 1156.64 215.737Z" fill="#64A03D"/>
<path d="M1161.13 226.176C1158.34 231.607 1155.54 237.021 1152.73 242.435C1151.47 244.895 1155.17 247.071 1156.43 244.611C1159.24 239.197 1162.02 233.766 1164.83 228.352C1166.12 225.875 1162.41 223.699 1161.13 226.176Z" fill="#64A03D"/>
<path d="M1170.79 235.624C1170.14 238.649 1168.49 241.391 1166.14 243.408C1164.07 245.231 1167.09 248.256 1169.18 246.452C1172.08 243.921 1174.1 240.525 1174.95 236.774C1175.53 234.084 1171.39 232.917 1170.79 235.624Z" fill="#64A03D"/>
<path d="M1087 227.007C1086.4 225.981 1085.09 225.645 1084.06 226.246C1083.04 226.848 1082.7 228.157 1083.3 229.183C1086.04 233.943 1088.48 238.861 1090.61 243.921C1091.65 246.451 1095.81 245.337 1094.75 242.789C1092.5 237.357 1089.92 232.085 1087 227.007Z" fill="#64A03D"/>
</g>
<path d="M1065.51 122.267C1060.22 121.911 1065.05 105.514 1059.38 109.817C1056.29 112.244 1054.49 119.388 1050.07 119.1C1043.5 118.567 1028.95 114.775 1042.99 125C1047.01 127.886 1045.4 129.418 1044.24 130.859C1039.56 137.069 1038.96 138.927 1039.03 139.851C1040.2 143.871 1052.54 131.486 1055.83 135.273C1063.33 143.388 1063.69 144.407 1065.39 144.051C1067.08 143.685 1065.68 138.905 1064.84 134.553C1063.83 128.094 1084.38 123.813 1065.5 122.264L1065.51 122.267Z" fill="black"/>
<path d="M1097.29 160.735C1093.5 160.48 1096.96 148.747 1092.91 151.826C1090.69 153.563 1089.41 158.675 1086.24 158.468C1081.54 158.087 1071.13 155.374 1081.18 162.69C1084.06 164.755 1082.9 165.851 1082.07 166.883C1078.72 171.326 1078.29 172.656 1078.34 173.317C1079.18 176.193 1088.01 167.332 1090.36 170.041C1095.73 175.848 1095.99 176.577 1097.2 176.322C1098.41 176.06 1097.41 172.64 1096.81 169.526C1096.09 164.904 1110.79 161.841 1097.28 160.732L1097.29 160.735Z" fill="#E7BB43"/>
<g clip-path="url(#clip7_448_623)">
<path d="M888.377 436.665C958.862 436.198 949.282 370.95 903.058 392.949C883.899 352.232 835.358 388.676 888.377 436.665Z" fill="#3D9CFB"/>
<path d="M882.994 437.931C883.733 438.71 884.795 439.099 885.866 438.992C961.364 437.259 954.5 364.75 902.075 385.795C875.147 341.583 826.869 387.508 883.003 437.921L882.994 437.931ZM870.055 374.688C881.971 367.573 895.163 382.758 898.142 389.611C898.833 391.129 900.517 391.996 901.588 391.149C945.777 370.201 956.788 428.839 887.793 434.456C886.8 434.592 885.807 434.222 885.145 433.473C876.471 425.734 846.515 388.793 870.065 374.698L870.055 374.688Z" fill="#001434"/>
<path d="M914.39 471.718C914.205 471.922 913.943 472.02 913.67 472C894.559 471.952 895.932 455.131 908.481 458.937C914.828 446.117 928.361 458.655 914.4 471.718H914.39Z" fill="#F39745"/>
<path d="M926.638 366.151C926.394 366.278 926.112 366.288 925.859 366.181C907.868 359.746 914.78 344.357 925.333 352.134C935.604 342.176 944.161 358.51 926.638 366.161V366.151Z" fill="#DB433B"/>
<path d="M887.482 413.975C887.365 414.16 887.267 414.511 887.053 414.618C886.839 414.725 886.459 414.666 886.226 414.54C885.739 414.267 885.583 413.79 885.7 413.245C885.778 412.846 886.255 412.574 886.615 412.72C887.131 412.934 887.384 413.343 887.482 413.975Z" fill="black"/>
<path d="M928.098 403.297C928.633 403.248 928.955 403.443 929.149 403.861C929.295 404.173 929.178 404.445 928.945 404.66C928.604 404.981 928.224 405 927.874 404.747C927.465 404.455 927.27 404.017 927.494 403.754C927.669 403.55 927.942 403.414 928.098 403.307V403.297Z" fill="black"/>
<path d="M915.763 405C915.296 405.078 914.809 404.659 914.77 404.153C914.741 403.783 915.101 403.374 915.471 403.355C915.987 403.326 916.483 403.735 916.483 404.182C916.483 404.523 916.104 404.961 915.753 405H915.763Z" fill="black"/>
<path d="M923.201 404.26C923.094 404.416 922.958 404.689 922.753 404.893C922.49 405.156 921.857 404.991 921.75 404.63C921.672 404.358 921.653 404.046 921.711 403.764C921.799 403.336 922.247 403.102 922.617 403.229C923.016 403.365 923.279 403.764 923.201 404.26Z" fill="black"/>
<path d="M923.337 417.489C923.23 417.654 923.162 417.888 923.016 417.976C922.636 418.18 922.227 418.141 921.838 417.947C921.458 417.752 921.225 417.207 921.4 416.944C921.692 416.516 922.023 416.35 922.422 416.438C922.996 416.564 923.366 416.993 923.337 417.489Z" fill="black"/>
<path d="M893.128 426.659C893.868 426.707 894.413 427.554 894.034 428.138C893.907 428.343 893.547 428.518 893.303 428.498C892.573 428.44 892.203 427.554 892.632 426.931C892.729 426.795 892.963 426.746 893.128 426.668V426.659Z" fill="black"/>
<path d="M918.684 421.587C918.343 421.607 917.915 421.159 917.915 420.799C917.915 420.185 918.323 419.601 918.947 419.494C919.18 419.455 919.589 419.631 919.686 419.825C920.076 420.594 919.501 421.548 918.684 421.587Z" fill="black"/>
<path d="M916.542 417.158C916.61 417.567 916.396 417.908 915.948 418.025C915.656 418.112 915.364 418.073 915.15 417.82C914.848 417.45 915.091 416.915 915.646 416.691C916.045 416.535 916.474 416.749 916.542 417.158Z" fill="black"/>
<path d="M919.978 388.268C919.901 388.764 919.336 389.134 918.82 389.037C918.46 388.968 918.119 388.482 918.177 388.122C918.255 387.615 918.81 387.245 919.326 387.353C919.686 387.43 920.027 387.917 919.978 388.268Z" fill="black"/>
<path d="M912.297 415.007C911.83 415.065 911.314 414.618 911.314 414.141C911.314 413.664 911.771 413.167 912.229 413.177C912.687 413.177 913.242 413.654 913.261 414.063C913.28 414.452 912.774 414.958 912.297 415.017V415.007Z" fill="black"/>
<path d="M890.558 417.304C890.587 417.781 890.334 418.131 889.954 418.141C889.497 418.151 889.176 417.878 889.176 417.469C889.176 417.022 889.458 416.642 889.808 416.613C890.227 416.574 890.539 416.866 890.568 417.304H890.558Z" fill="black"/>
<path d="M910.282 418.073C910.107 418.141 909.834 418.346 909.62 418.307C909.114 418.2 908.676 417.655 908.754 417.226C908.802 416.983 909.065 416.74 909.289 416.574C909.406 416.496 909.688 416.545 909.824 416.642C910.272 416.954 910.457 417.402 910.282 418.073Z" fill="black"/>
<path d="M908.88 411.94C908.744 411.804 908.461 411.648 908.384 411.424C908.228 410.928 908.559 410.354 908.977 410.266C909.357 410.179 909.717 410.48 909.756 410.918C909.815 411.473 909.484 411.911 908.88 411.95V411.94Z" fill="black"/>
<path d="M902.649 429.374C903.311 429.472 903.642 430.134 903.282 430.649C903.107 430.903 902.669 430.961 902.523 430.727C902.377 430.484 902.25 430.221 902.163 429.949C902.065 429.657 902.367 429.335 902.649 429.374Z" fill="black"/>
<path d="M906.359 413.099C906.651 413.284 906.962 413.381 907.089 413.596C907.245 413.858 906.758 414.306 906.329 414.345C906.037 414.374 905.677 414.034 905.794 413.771C905.891 413.537 906.144 413.352 906.368 413.099H906.359Z" fill="black"/>
<path d="M915.929 410.948C915.646 410.928 915.422 410.675 915.413 410.364C915.393 409.867 915.929 409.303 916.298 409.488C916.493 409.585 916.659 409.945 916.668 410.188C916.688 410.607 916.279 410.977 915.929 410.938V410.948Z" fill="black"/>
<path d="M902.523 424.352C902.416 424.215 902.143 424.03 902.114 423.806C902.046 423.339 902.63 422.94 903.146 423.067C903.302 423.106 903.506 423.291 903.545 423.437C903.652 423.884 903.156 424.381 902.533 424.352H902.523Z" fill="black"/>
<path d="M931.992 406.752C932.352 406.733 932.732 407.122 932.751 407.541C932.771 407.949 932.411 408.31 932.002 408.3C931.583 408.28 931.194 407.92 931.213 407.55C931.233 407.18 931.632 406.781 931.992 406.752Z" fill="black"/>
<path d="M918.469 407.882C918.353 407.726 918.1 407.521 918.041 407.278C917.963 406.918 918.401 406.47 918.732 406.47C919.063 406.47 919.453 406.918 919.433 407.288C919.414 407.648 918.956 407.979 918.46 407.882H918.469Z" fill="black"/>
<path d="M919.647 394.37C919.628 394.74 919.024 395.227 918.8 395.023C918.596 394.838 918.401 394.507 918.421 394.254C918.431 394.03 918.693 393.738 918.927 393.611C919.229 393.446 919.677 393.942 919.657 394.37H919.647Z" fill="black"/>
<path d="M893.693 420.662C893.703 421.237 893.547 421.587 893.109 421.723C892.963 421.772 892.719 421.704 892.602 421.597C892.252 421.285 892.33 420.867 892.466 420.477C892.544 420.244 893.021 419.991 893.206 420.117C893.43 420.273 893.576 420.526 893.693 420.653V420.662Z" fill="black"/>
<path d="M902.542 411.454C902.377 411.356 902.133 411.298 902.056 411.152C901.987 411.026 902.075 410.782 902.163 410.626C902.328 410.334 902.63 410.237 902.932 410.295C903.107 410.334 903.292 410.471 903.389 410.617C903.555 410.86 903.389 411.249 903.117 411.347C902.932 411.405 902.727 411.415 902.533 411.444L902.542 411.454Z" fill="black"/>
<path d="M925.012 412.982C925.294 412.905 925.791 413.265 925.878 413.625C925.985 414.043 925.791 414.472 925.44 414.559C925.07 414.657 924.661 414.365 924.593 413.966C924.525 413.557 924.749 413.041 925.002 412.982H925.012Z" fill="black"/>
<path d="M912.395 419.903C912.511 420.04 912.765 420.224 912.862 420.458C912.969 420.711 912.599 421.062 912.317 421.042C912.005 421.023 911.742 420.779 911.694 420.468C911.655 420.166 911.937 419.874 912.385 419.894L912.395 419.903Z" fill="black"/>
<path d="M900.323 394.692C900.245 394.838 900.196 395.071 900.079 395.11C899.797 395.208 899.544 395.081 899.398 394.818C899.271 394.585 899.476 394.225 899.748 394.205C900.089 394.176 900.245 394.41 900.332 394.702L900.323 394.692Z" fill="black"/>
<path d="M915.724 431.088C915.636 430.844 915.51 430.621 915.49 430.387C915.49 430.319 915.773 430.134 915.899 430.153C916.211 430.202 916.445 430.591 916.308 430.776C916.211 430.913 915.987 430.951 915.724 431.088Z" fill="black"/>
<path d="M906.602 401.116C906.339 401.175 906.076 401.292 905.843 401.272C905.599 401.243 905.531 401 905.648 400.776C905.804 400.454 906.115 400.308 906.349 400.493C906.475 400.591 906.495 400.834 906.612 401.126L906.602 401.116Z" fill="black"/>
<path d="M900.254 407.19C899.992 407.414 899.816 407.638 899.592 407.726C899.398 407.813 899.047 407.404 899.086 407.181C899.145 406.889 899.31 406.567 899.602 406.606C899.807 406.635 899.982 406.937 900.254 407.19Z" fill="black"/>
<path d="M925.323 407.22C925.44 407.346 925.635 407.473 925.654 407.609C925.693 407.921 925.333 408.144 925.031 408.028C924.944 407.998 924.856 407.891 924.827 407.804C924.729 407.492 924.992 407.181 925.323 407.21V407.22Z" fill="black"/>
<path d="M929.208 410.529C929.178 410.967 928.799 411.269 928.594 411.104C928.38 410.928 928.254 410.646 928.078 410.412C928.254 410.325 928.448 410.13 928.604 410.169C928.838 410.218 929.042 410.422 929.208 410.529Z" fill="black"/>
<path d="M913.047 407.541C912.959 407.872 912.609 408.057 912.434 407.852C912.326 407.716 912.258 407.492 912.287 407.327C912.326 407.093 912.541 407.044 912.774 407.122C913.008 407.2 913.096 407.336 913.037 407.551L913.047 407.541Z" fill="black"/>
<path d="M899.563 413.411C899.855 413.673 900.089 413.819 900.245 414.024C900.371 414.199 900.264 414.384 900.031 414.481C899.709 414.608 899.31 414.511 899.31 414.277C899.31 414.034 899.446 413.781 899.563 413.411Z" fill="black"/>
<path d="M931.973 414.277C931.895 414.218 931.768 414.17 931.749 414.092C931.68 413.848 932.08 413.469 932.323 413.537C932.401 413.556 932.479 413.683 932.488 413.77C932.557 414.15 932.362 414.345 931.963 414.277H931.973Z" fill="black"/>
<path d="M913.018 400.367C913.261 400.367 913.397 400.503 913.29 400.678C913.212 400.805 912.998 400.853 912.833 400.902C912.794 400.912 912.657 400.727 912.667 400.717C912.774 400.591 912.891 400.484 913.018 400.367Z" fill="black"/>
<path d="M896.107 430.182L896.282 430.27L896.088 430.318L896.107 430.182Z" fill="black"/>
<path d="M905.687 426.863C905.765 426.863 905.872 426.834 905.901 426.863C906.067 427.058 906.028 427.214 905.784 427.282C905.736 427.291 905.619 427.184 905.599 427.106C905.58 427.029 905.658 426.941 905.687 426.863Z" fill="black"/>
<path d="M922.675 397.972C922.588 398.031 922.49 398.157 922.432 398.138C922.188 398.06 922.12 397.865 922.247 397.641C922.296 397.554 922.393 397.505 922.471 397.437C922.539 397.612 922.607 397.797 922.685 397.972H922.675Z" fill="black"/>
<path d="M915.666 397.262C915.734 397.32 915.88 397.408 915.87 397.427C915.792 397.573 915.695 397.709 915.607 397.846C915.549 397.69 915.481 397.534 915.442 397.379C915.442 397.359 915.598 397.301 915.675 397.262H915.666Z" fill="black"/>
<path d="M925.576 387.839C925.625 387.917 925.742 388.014 925.722 388.072C925.683 388.218 925.586 388.442 925.498 388.452C925.352 388.462 925.187 388.345 925.031 388.257C925.012 388.257 925.041 388.082 925.09 388.063C925.245 387.975 925.411 387.917 925.576 387.849V387.839Z" fill="black"/>
<path d="M902.64 391.499C902.591 391.411 902.494 391.304 902.503 391.236C902.572 390.983 902.756 390.915 902.98 391.051C903.058 391.1 903.097 391.207 903.156 391.285C902.98 391.353 902.805 391.421 902.64 391.489V391.499Z" fill="black"/>
<path d="M886.537 433.181C886.596 433.249 886.654 433.317 886.713 433.385C886.644 433.443 886.566 433.551 886.508 433.541C886.44 433.541 886.391 433.414 886.333 433.346C886.401 433.288 886.469 433.229 886.547 433.181H886.537Z" fill="black"/>
<path d="M899.7 420.292C899.631 420.38 899.563 420.468 899.505 420.555C899.446 420.497 899.339 420.429 899.339 420.37C899.339 420.312 899.437 420.234 899.515 420.195C899.554 420.175 899.631 420.253 899.7 420.292Z" fill="black"/>
<path d="M919.024 427.136C918.956 427.194 918.878 427.301 918.81 427.301C918.742 427.301 918.684 427.175 918.625 427.106C918.693 427.048 918.771 426.941 918.839 426.941C918.908 426.941 918.966 427.067 919.024 427.136Z" fill="black"/>
<path d="M919.278 414.073L919.453 414.024L919.424 414.189L919.278 414.073Z" fill="black"/>
</g>
</g>
<defs>
<clipPath id="clip0_448_623">
<rect width="1200" height="675" fill="white"/>
</clipPath>
<clipPath id="clip1_448_623">
<rect width="109.74" height="145.64" fill="white" transform="translate(652 595.523) rotate(-34.099)"/>
</clipPath>
<clipPath id="clip2_448_623">
<rect width="94.07" height="84.18" fill="white" transform="translate(619 632)"/>
</clipPath>
<clipPath id="clip3_448_623">
<rect width="382.226" height="137.794" fill="white" transform="translate(791.773 506)"/>
</clipPath>
<clipPath id="clip4_448_623">
<rect width="80.396" height="80.396" fill="white" transform="translate(1091 42.9214) rotate(-5.65445)"/>
</clipPath>
<clipPath id="clip5_448_623">
<rect width="72" height="69" fill="white" transform="translate(779 280)"/>
</clipPath>
<clipPath id="clip6_448_623">
<rect width="92" height="48" fill="white" transform="translate(1083 199)"/>
</clipPath>
<clipPath id="clip7_448_623">
<rect width="85" height="123" fill="white" transform="translate(857 349)"/>
</clipPath>
</defs>
</svg>
