<svg width="1200" height="630" viewBox="0 0 1200 630" fill="none" xmlns="http://www.w3.org/2000/svg">
<g clip-path="url(#clip0_448_1387)">
<g clip-path="url(#clip1_448_1387)">
<path d="M813.293 474.354C812.854 472.549 822.14 465.747 820.959 464.771C819.956 463.943 811.988 470.732 810.12 469.355C808.595 468.393 811.109 455.296 810.01 455.189C808.911 455.082 806.727 467.538 804.543 468.059C801.699 468.807 791.08 453.479 790.215 454.013C789.116 454.655 798.526 469.877 797.331 471.574C795.586 474.126 782.124 470.825 782.014 472.429C782.014 473.391 795.888 476.479 796.136 478.176C796.52 480.849 786.368 489.789 787.055 490.738C787.907 491.928 798.196 481.303 800.628 482.546C802.798 483.655 797.784 500.013 799.968 500.013C801.507 500.013 805.106 483.401 806.644 483.294C809.048 482.974 820.121 498.757 821.302 498.196C822.181 497.781 811.343 482.011 812.991 479.566C813.87 478.176 825.684 479.887 826.014 478.604C826.234 477.321 813.65 475.944 813.321 474.354H813.293Z" fill="#64A03D"/>
</g>
<g clip-path="url(#clip2_448_1387)">
<path d="M863.048 458.079C861.896 457.92 860.069 450.948 859.229 451.412C858.516 451.806 860.638 458.006 859.407 458.778C858.496 459.445 851.447 454.97 851.132 455.585C850.817 456.201 857.569 460.336 857.37 461.728C857.152 463.556 845.784 466.216 845.896 466.843C846.017 467.631 857.045 465.65 857.759 466.736C858.845 468.339 853.827 475.42 854.736 475.853C855.296 476.074 860.284 468.704 861.329 468.95C862.974 469.34 865.847 477.308 866.558 477.126C867.446 476.904 863.624 468.469 864.907 467.339C866.052 466.33 874.426 473.01 874.928 471.738C875.281 470.842 866.435 464.927 866.726 464.007C867.092 462.533 878.829 459.713 878.774 458.896C878.735 458.289 867.059 460.976 866.014 459.453C865.406 458.622 869.118 452.135 868.447 451.648C867.75 451.225 864.056 458.237 863.054 458.063L863.048 458.079Z" fill="black"/>
</g>
<g clip-path="url(#clip3_448_1387)">
<path d="M907.209 509.665C907.209 513.953 902.191 520.088 897.173 523.347C897.001 523.475 896.916 523.56 896.916 523.647C896.916 523.735 897.045 523.732 897.302 523.732C897.43 523.732 899.446 523.604 900.604 523.604C901.249 523.604 901.847 523.604 902.363 523.647C902.836 523.691 903.221 524.032 903.305 524.461C903.518 525.363 903.778 527.034 903.95 528.321C903.95 528.75 903.65 529.05 903.177 529.094C900.476 529.266 891.855 529.78 889.11 529.908C888.637 529.908 888.124 529.736 887.908 529.307C887.479 528.365 886.75 525.704 886.75 525.36C886.75 524.975 886.965 524.587 887.263 524.374C895.499 519.268 901.202 511.205 901.29 508.247C901.246 506.96 900.26 506.488 899.317 506.488C897.815 506.488 895.458 508.075 893.699 510.864C893.57 511.077 893.354 511.208 893.098 511.208C892.841 511.208 892.584 511.036 892.584 511.036C891.598 510.394 890.44 509.449 889.795 508.719C889.582 508.506 889.451 508.206 889.451 507.862C889.451 507.733 889.495 507.517 889.536 507.389C890.35 505.373 893.567 500.997 897.771 500.997C901.675 500.997 907.209 505.245 907.209 509.662V509.665Z" fill="black"/>
<path d="M909.096 525.707C908.067 523.992 907.766 521.375 907.766 519.187C907.766 513.524 910.812 501.172 918.832 501.172C920.547 501.172 925.308 503.06 926.939 505.849C927.881 507.48 928.225 509.536 928.225 511.511C928.225 517.903 924.967 529.955 917.072 529.955C915.401 529.955 910.981 528.452 909.094 525.707H909.096ZM913.858 520.129C913.858 523.519 915.016 524.505 916.174 524.505C919.348 524.505 922.009 516.226 922.009 510.222C922.009 507.264 921.066 506.447 920.036 506.447C916.947 506.447 913.86 514.21 913.86 520.129H913.858Z" fill="black"/>
<path d="M947.871 509.665C947.871 513.953 942.853 520.088 937.835 523.347C937.663 523.475 937.578 523.56 937.578 523.647C937.578 523.735 937.707 523.732 937.964 523.732C938.092 523.732 940.108 523.604 941.266 523.604C941.911 523.604 942.509 523.604 943.025 523.647C943.498 523.691 943.883 524.032 943.967 524.461C944.18 525.363 944.44 527.034 944.612 528.321C944.612 528.75 944.312 529.05 943.839 529.094C941.138 529.266 932.517 529.78 929.772 529.908C929.299 529.908 928.786 529.736 928.57 529.307C928.141 528.365 927.411 525.704 927.411 525.36C927.411 524.975 927.627 524.587 927.925 524.374C936.161 519.268 941.864 511.205 941.952 508.247C941.908 506.96 940.922 506.488 939.979 506.488C938.477 506.488 936.12 508.075 934.361 510.864C934.232 511.077 934.016 511.208 933.76 511.208C933.503 511.208 933.246 511.036 933.246 511.036C932.26 510.394 931.102 509.449 930.457 508.719C930.244 508.506 930.113 508.206 930.113 507.862C930.113 507.733 930.157 507.517 930.198 507.389C931.012 505.373 934.229 500.997 938.433 500.997C942.337 500.997 947.871 505.245 947.871 509.662V509.665Z" fill="black"/>
<path d="M965.457 517.256C965.97 517.256 966.186 517.6 966.271 518.029C966.443 519.015 966.656 520.902 966.656 522.061C966.656 522.446 966.399 522.834 965.926 522.834C965.713 522.834 964.039 522.877 963.826 522.877C963.312 522.877 963.053 523.263 962.968 523.691C962.711 525.535 962.411 527.379 962.195 529.182C962.151 529.611 961.851 529.867 961.466 529.867C960.736 529.867 958.163 529.094 957.306 528.753C956.792 528.581 956.532 528.108 956.532 527.679C956.576 526.693 956.833 524.076 956.833 523.904C956.833 523.56 956.576 523.347 956.276 523.347C955.29 523.347 949.543 523.904 949.198 523.904C948.685 523.904 948.297 523.691 948.125 523.303C947.696 522.446 946.754 519.785 946.754 519.143C946.754 518.758 946.882 518.329 947.098 518.07C950.187 513.953 956.833 504.387 958.849 501.77C959.062 501.514 959.321 501.342 959.663 501.342C960.048 501.342 960.865 501.899 961.165 501.899C961.337 501.899 961.466 501.814 961.55 501.642C961.679 501.385 961.979 501.169 962.323 501.169C962.837 501.169 965.754 501.983 966.869 502.371C967.213 502.5 967.341 502.8 967.341 503.101C967.341 503.185 967.298 503.401 967.298 503.401C966.524 505.718 965.325 510.479 964.208 516.354C964.208 516.354 964.164 516.611 964.164 516.739C964.164 516.996 964.336 517.253 964.637 517.253H965.451L965.457 517.256ZM953.621 517.685C953.621 517.813 953.749 517.941 953.965 517.941C954.05 517.941 956.025 517.728 957.055 517.641C957.484 517.597 957.74 517.384 957.828 516.955C958.3 514.295 959.158 510.134 959.158 509.834C959.158 509.706 959.158 509.621 959.114 509.621C959.03 509.621 958.901 509.793 958.901 509.793C958.388 510.479 954.184 516.742 953.755 517.384C953.671 517.512 953.627 517.597 953.627 517.685H953.621Z" fill="black"/>
<path d="M961.97 605.327C960.728 604.642 958.452 602.41 957.209 601.124C956.909 600.823 956.781 600.438 956.781 600.05C956.781 596.832 959.012 585.939 960.083 582.164C960.127 581.992 960.127 581.779 960.127 581.607C960.127 580.705 959.955 579.29 959.955 579.033C959.955 578.689 960.127 578.392 960.468 578.26C962.869 577.23 965.786 576.545 967.63 576.545C974.235 576.545 979.512 583.666 979.512 589.069C979.512 597.518 972.135 604.983 963.558 605.581C963 605.581 962.443 605.538 961.97 605.325V605.327ZM973.593 587.184C973.593 583.967 970.892 582.038 967.974 582.038C967.674 582.038 967.417 582.038 967.117 582.082C966.603 582.167 966.344 582.383 966.259 582.811C965.229 587.015 963.858 592.978 963 598.638C963 598.638 962.957 598.895 962.957 598.982C962.957 599.326 963.17 599.455 963.558 599.455C966.775 599.455 973.593 595.295 973.593 587.187V587.184Z" fill="black"/>
<path d="M1002.12 579.378V580.451C1002.12 587.786 999.671 605.628 990.622 605.628C987.063 605.628 983.5 603.227 982.258 601.468C981.315 600.138 980.886 597.95 980.886 595.934C980.886 588.9 983.588 580.279 984.962 577.703C985.219 577.274 985.519 577.018 986.076 577.018C986.89 577.018 989.166 577.747 990.237 578.132C990.581 578.26 990.75 578.645 990.75 578.99C990.75 579.206 990.665 579.462 990.665 579.462C988.95 584.095 987.019 592.159 987.019 596.19C987.019 598.422 987.448 599.965 989.163 599.965C991.608 599.965 992.982 596.319 994.096 591.858C995.383 586.753 996.156 580.148 996.369 577.919C996.413 577.49 996.713 577.233 997.098 577.233C997.743 577.233 1000.32 577.878 1001.35 578.263C1001.86 578.476 1002.08 578.949 1002.12 579.378H1002.12Z" fill="black"/>
<path d="M1016.49 595.16C1016.49 595.373 1016.62 595.545 1016.62 595.545C1018.07 597.818 1019.79 600.263 1021.2 601.508C1021.38 601.68 1021.46 601.893 1021.46 602.109C1021.46 602.281 1021.38 602.453 1021.25 602.623C1020.31 603.524 1018.5 604.854 1017.26 605.412C1017.26 605.412 1017.09 605.496 1016.83 605.496C1016.45 605.496 1016.1 605.324 1015.89 605.152C1013.53 603.136 1011.64 598.848 1010.91 596.315C1010.74 595.887 1010.57 595.586 1010.23 595.586H1009.71C1009.28 595.586 1009.11 595.799 1009.07 596.231C1008.55 599.104 1008.13 602.063 1007.83 604.852C1007.74 605.28 1007.44 605.537 1007.05 605.537C1006.15 605.537 1003.02 604.551 1002.72 604.423C1002.08 604.166 1001.99 603.778 1001.95 603.349C1002.03 598.46 1004.05 588.036 1005.68 581.732C1005.76 581.387 1005.76 581.218 1005.76 581.046C1005.76 580.317 1005.55 579.415 1005.55 579.074C1005.55 578.689 1005.85 578.344 1006.15 578.216C1007.82 577.531 1010.7 576.673 1014.26 576.673C1019.79 576.673 1024.21 582.508 1024.21 586.195C1024.21 589.883 1021.08 593.188 1016.96 594.644C1016.66 594.772 1016.49 594.9 1016.49 595.157V595.16ZM1011.9 582.808C1011.73 583.409 1010.18 589.842 1010.18 590.271C1010.18 590.571 1010.35 590.699 1010.66 590.699C1014.64 590.699 1017.82 587.741 1017.82 585.165C1017.82 582.933 1016.01 581.991 1013.91 581.991C1013.57 581.991 1013.23 581.991 1012.88 582.035C1012.33 582.079 1012.03 582.379 1011.9 582.808Z" fill="black"/>
<path d="M1043.04 576.845C1043.72 576.845 1046.64 577.659 1047.71 578.047C1048.01 578.176 1048.23 578.476 1048.23 578.82C1048.23 578.949 1048.18 579.077 1048.18 579.077C1046.81 582.98 1044.11 594.691 1042.95 604.855C1042.91 605.284 1042.61 605.499 1042.26 605.499C1041.41 605.499 1038.36 604.598 1037.89 604.426C1037.33 604.213 1037.16 603.825 1037.12 603.311C1037.12 601.424 1037.72 597.348 1037.72 597.092C1037.72 596.747 1037.46 596.491 1037.03 596.491C1035.57 596.575 1033.68 596.619 1032.05 596.663C1031.58 596.663 1031.28 597.048 1031.2 597.436C1030.77 599.924 1030.38 602.413 1030.12 604.858C1030.08 605.286 1029.74 605.502 1029.39 605.502C1028.49 605.502 1025.53 604.645 1025.02 604.429C1024.59 604.257 1024.33 603.828 1024.29 603.314C1024.37 601.17 1024.93 596.966 1024.93 596.794C1024.93 596.537 1024.85 596.409 1024.72 596.281C1024.63 596.152 1024.5 596.024 1024.42 595.767C1024.24 595.125 1024.12 593.967 1024.07 593.107C1024.07 592.549 1024.2 592.333 1024.97 592.12C1025.57 591.948 1025.83 591.648 1025.92 591.263C1026.95 585.428 1028.4 579.64 1029.3 577.452C1029.47 577.108 1029.78 576.895 1030.16 576.895C1030.93 576.895 1033.89 577.668 1034.88 578.053C1035.18 578.138 1035.39 578.526 1035.39 578.867C1035.39 578.995 1035.31 579.252 1035.31 579.252C1034.53 581.312 1033.55 585.256 1032.48 590.318C1032.48 590.318 1032.43 590.53 1032.43 590.662C1032.43 590.962 1032.69 591.219 1033.03 591.219C1033.21 591.219 1037.11 591.091 1037.97 591.091C1038.4 591.091 1038.78 590.79 1038.87 590.361C1039.94 584.871 1041.27 579.553 1042.17 577.452C1042.3 577.108 1042.64 576.851 1043.03 576.851L1043.04 576.845Z" fill="black"/>
<path d="M1047.45 598.078C1047.45 597.564 1046.73 595.761 1046.73 594.988C1046.73 594.559 1046.94 594.259 1047.41 594.174C1047.88 594.09 1048.44 593.961 1048.44 593.961C1049.04 593.833 1049.21 593.617 1049.47 593.104C1051.74 588.599 1055.43 579.978 1057.36 577.706C1057.62 577.405 1057.92 577.321 1058.22 577.321C1058.65 577.321 1059.42 577.621 1059.68 577.621C1060.02 577.621 1060.36 577.408 1060.41 577.064C1060.45 576.764 1060.62 576.507 1060.96 576.507C1061.57 576.507 1064.61 577.58 1065.3 577.922C1065.77 578.138 1066.07 578.566 1066.15 579.08C1066.63 581.525 1066.84 588.774 1066.84 595.207C1066.84 599.283 1066.71 602.97 1066.5 604.901C1066.45 605.246 1066.15 605.546 1065.64 605.546C1064.91 605.546 1061.86 605.074 1061.09 604.817C1060.66 604.688 1060.41 604.303 1060.41 603.702C1060.41 602.716 1060.54 599.586 1060.54 598.897C1060.54 598.512 1060.28 598.253 1059.85 598.253C1057.92 598.253 1054.83 598.425 1054.32 598.469C1053.8 598.512 1053.59 598.725 1053.33 599.242C1052.52 601.042 1051.79 603.358 1051.14 604.861C1050.97 605.205 1050.67 605.374 1050.37 605.374C1049.68 605.374 1047.15 604.172 1046.47 603.702C1046.17 603.489 1045.95 603.23 1045.95 602.845C1045.95 602.629 1046 602.5 1046 602.5L1047.37 598.597C1047.45 598.384 1047.45 598.253 1047.45 598.084L1047.45 598.078ZM1055.86 592.759C1055.86 593.016 1056.03 593.104 1056.46 593.104C1057.54 593.104 1059.29 593.06 1059.85 593.06C1060.32 593.06 1060.58 592.847 1060.66 592.246C1060.71 591.304 1060.71 590.315 1060.71 589.329C1060.71 586.968 1060.62 584.696 1060.58 583.325C1060.58 583.068 1060.5 582.94 1060.41 582.94C1060.32 582.94 1060.24 583.024 1060.15 583.196C1059.08 585.513 1057.58 588.9 1055.95 592.503C1055.95 592.503 1055.86 592.675 1055.86 592.759Z" fill="black"/>
<path d="M1074.26 605.54C1073.36 605.54 1070.7 604.726 1070.01 604.466C1069.46 604.251 1069.29 603.822 1069.24 603.352C1069.46 597.132 1072.72 581.519 1074.48 577.574C1074.65 577.189 1075.12 576.93 1075.63 576.93C1076.23 576.93 1080.69 577.831 1082.54 578.601C1083.01 578.814 1083.05 579.287 1083.05 579.716C1083.1 581.387 1083.1 587.779 1083.05 591.726C1083.05 591.899 1083.1 592.071 1083.18 592.071C1083.27 592.071 1083.39 591.77 1083.39 591.77C1085.19 587.266 1087.21 581.519 1089.27 577.402C1089.48 577.058 1089.83 576.801 1090.3 576.801C1091.63 576.801 1096.43 578.088 1097.85 578.733C1098.23 578.861 1098.41 579.205 1098.41 579.546C1098.41 579.675 1098.36 579.803 1098.36 579.803C1096.95 584.179 1094.42 595.116 1093.3 604.895C1093.26 605.28 1092.92 605.54 1092.53 605.54C1091.84 605.54 1089.01 604.854 1088.2 604.466C1087.68 604.21 1087.47 603.822 1087.42 603.352C1087.42 599.148 1090.08 587.782 1090.08 587.269C1090.08 587.184 1090.04 587.097 1090 587.097C1089.96 587.097 1089.87 587.181 1089.78 587.353C1088.11 591.172 1086.65 595.846 1084.68 601.036C1084.55 601.38 1084.16 601.68 1083.78 601.68C1083.13 601.68 1080.6 600.866 1079.49 600.35C1078.97 600.093 1078.76 599.577 1078.71 599.148C1078.24 595.802 1078.37 590.74 1078.24 587.181C1078.2 586.965 1078.16 586.881 1078.11 586.881C1078.07 586.881 1077.98 586.965 1077.94 587.137C1076.83 592.027 1075.75 598.632 1075.07 604.895C1074.98 605.28 1074.64 605.54 1074.25 605.54H1074.26Z" fill="black"/>
<path d="M860.394 527.726C861.456 527.726 865.815 529.021 866.582 529.436C866.993 529.672 867.288 530.083 867.288 530.556C867.288 530.673 867.23 530.909 867.23 530.909C865.225 536.566 861.278 552.888 859.452 567.621C859.394 568.21 858.921 568.563 858.39 568.563C857.448 568.563 854.501 567.737 853.617 567.384C853.086 567.148 852.675 566.678 852.617 565.853L852.5 563.907C852.5 563.612 852.383 563.318 852.205 563.318C852.089 563.318 851.969 563.376 851.794 563.612C849.909 566.381 847.669 568.738 845.784 568.738C841.659 568.738 837.003 563.376 837.003 558.072C837.003 548.407 841.954 538.509 849.378 538.509C850.735 538.509 852.561 539.215 854.446 540.218C854.446 540.218 854.74 540.396 854.918 540.396C855.271 540.396 855.508 540.16 855.624 539.629C856.861 534.503 858.04 530.673 859.043 528.549C859.28 528.076 859.811 527.723 860.4 527.723L860.394 527.726ZM852.322 556.191C852.97 553.127 854.09 547.587 854.09 547.115C854.09 546.703 853.912 546.347 853.442 546.172C852.617 545.878 851.852 545.7 851.38 545.7C847.549 545.7 845.428 553.772 845.428 557.839C845.428 559.548 845.84 560.727 846.371 560.727C847.607 560.727 849.848 559.137 851.558 557.544C852.03 557.133 852.264 556.602 852.325 556.188L852.322 556.191Z" fill="black"/>
<path d="M873.654 536.332C877.189 536.332 879.369 534.092 879.369 530.97C879.369 527.493 875.95 526.078 873.123 526.078C872.533 526.078 871.649 526.372 871.238 526.667C870.001 527.668 868.703 529.26 868.703 531.323C868.703 534.033 870.234 536.332 873.654 536.332Z" fill="black"/>
<path d="M892.984 565.972L892.806 563.498C892.806 563.204 892.689 563.026 892.57 563.026C892.45 563.026 892.333 563.142 892.217 563.32C890.154 566.62 887.797 568.741 885.971 568.741C881.787 568.741 877.131 563.615 877.131 558.075C877.131 548.235 881.846 538.511 889.979 538.511C892.867 538.511 898.76 540.81 903.002 543.579C903.413 543.815 903.708 544.285 903.708 544.816C903.708 544.994 903.591 545.463 903.591 545.463C901.234 553.83 900.409 562.964 900.292 567.679C900.234 568.21 899.819 568.621 899.291 568.621C897.76 568.621 894.518 567.737 894.046 567.501C893.279 567.09 893.045 566.559 892.984 565.969V565.972ZM892.453 556.19C893.101 553.127 894.221 547.587 894.221 547.114C894.221 546.703 894.043 546.347 893.573 546.172C892.748 545.878 891.983 545.7 891.511 545.7C887.68 545.7 885.559 553.772 885.559 557.839C885.559 559.548 885.971 560.727 886.502 560.727C887.739 560.727 889.979 559.137 891.689 557.544C892.161 557.133 892.395 556.602 892.456 556.187L892.453 556.19Z" fill="black"/>
<path d="M923.978 538.628C926.924 538.628 931.166 542.931 931.166 545.878C931.166 548.529 928.926 560.846 927.099 567.74C926.921 568.213 926.393 568.682 925.862 568.682C924.506 568.682 921.031 567.387 919.733 566.678C919.261 566.384 919.027 565.853 919.027 565.322C919.027 565.085 919.085 564.791 919.085 564.791C919.085 564.791 922.09 552.415 922.09 548.643C922.09 547.643 921.912 546.992 921.501 546.992C920.617 546.992 918.082 548.407 915.903 550.644C915.313 551.234 915.019 551.94 914.902 552.529C913.84 557.833 912.545 564.432 911.839 567.673C911.722 568.204 911.249 568.615 910.719 568.615C909.423 568.615 905.531 567.32 904.709 566.906C904.178 566.611 903.942 566.138 903.942 565.61C903.942 565.199 907.477 544.337 908.183 539.506C908.3 538.917 908.831 538.505 909.362 538.505C910.01 538.505 913.898 539.211 915.019 539.684C915.666 539.979 916.081 540.626 916.081 541.274C916.081 541.863 916.139 542.747 916.139 543.631C916.139 543.984 916.256 544.162 916.375 544.162C916.553 544.162 916.787 543.867 916.787 543.867C919.144 540.863 921.854 538.622 923.975 538.622L923.978 538.628Z" fill="black"/>
<path d="M945.487 538.511C948.139 538.511 954.622 541.046 958.394 543.462C958.805 543.757 959.041 544.288 959.041 544.819C959.041 545.055 958.983 545.291 958.983 545.291C957.746 550.359 956.153 560.14 954.741 567.27C954.035 570.923 951.205 579.468 942.485 579.468C940.365 579.468 936.592 578.289 934.766 576.933C934.235 576.58 934.06 576.165 934.06 575.696C934.06 574.99 934.886 572.16 935.18 571.512C935.358 571.101 935.711 570.865 936.123 570.865C936.239 570.865 936.476 570.923 936.595 570.981C938.363 571.749 939.895 572.043 941.015 572.043C945.846 572.043 947.32 566.681 947.32 564.204C947.32 563.91 947.203 563.732 947.083 563.732C946.964 563.732 946.905 563.79 946.73 564.026C944.962 566.5 942.9 568.329 941.19 568.329C937.007 568.329 932.529 563.437 932.529 557.722C932.529 547.82 937.538 538.511 945.493 538.511H945.487ZM947.845 556.19C948.492 553.127 949.613 547.587 949.613 547.114C949.613 546.703 949.435 546.347 948.965 546.172C948.139 545.878 947.375 545.7 946.902 545.7C943.072 545.7 940.951 553.772 940.951 557.839C940.951 559.548 941.362 560.727 941.893 560.727C943.13 560.727 945.371 559.137 947.08 557.544C947.553 557.133 947.786 556.602 947.845 556.187V556.19Z" fill="black"/>
<path d="M985.385 550.414C985.385 555.66 982.202 568.741 972.715 568.741C970.063 568.741 965.054 567.268 962.344 564.38C960.693 562.612 959.87 559.901 959.87 556.602C959.87 549.883 963.817 538.453 971.951 538.453C975.014 538.453 980.554 540.752 983.089 543.284C984.621 544.874 985.33 547.704 985.388 550.12V550.414H985.385ZM976.779 549.708C976.779 547.056 975.953 545.288 974.363 545.288C971.122 545.288 968.354 553.008 968.354 557.722C968.354 560.079 969.121 561.789 970.828 561.789C974.422 561.789 976.779 554.186 976.779 549.708Z" fill="black"/>
<path d="M1001.53 551.593C1001.53 551.12 1002.3 548.293 1002.3 547.173C1002.3 546.053 1002 545.347 1001.18 545.347C998.583 545.347 995.284 551.535 995.284 556.307C995.284 559.195 996.579 560.963 998.761 560.963C1000.82 560.963 1003.06 560.138 1004.71 559.195C1004.71 559.195 1004.95 559.079 1005.19 559.079C1005.6 559.079 1005.83 559.257 1006.07 559.668C1006.48 560.435 1007.6 562.851 1007.6 563.677C1007.6 564.324 1007.36 564.797 1007.01 565.15C1004.89 567.034 1002.12 568.744 998.82 568.744C996.874 568.744 991.453 567.154 989.213 564.324C987.623 562.32 986.797 559.788 986.797 556.547C986.797 548.296 992.218 538.456 998.936 538.456C1001.24 538.456 1010.31 541.581 1010.31 546.353C1010.31 547.768 1009.19 550.595 1008.6 551.54C1008.3 552.013 1007.83 552.366 1007.18 552.424C1006.24 552.483 1003.76 552.483 1002.41 552.483C1001.88 552.424 1001.53 552.071 1001.53 551.599L1001.53 551.593Z" fill="black"/>
<path d="M1036.71 550.414C1036.71 555.66 1033.53 568.741 1024.04 568.741C1021.39 568.741 1016.38 567.268 1013.67 564.38C1012.02 562.612 1011.19 559.901 1011.19 556.602C1011.19 549.883 1015.14 538.453 1023.28 538.453C1026.34 538.453 1031.88 540.752 1034.41 543.284C1035.95 544.874 1036.65 547.704 1036.71 550.12V550.414H1036.71ZM1028.11 549.708C1028.11 547.056 1027.28 545.288 1025.69 545.288C1022.45 545.288 1019.68 553.008 1019.68 557.722C1019.68 560.079 1020.45 561.789 1022.16 561.789C1025.75 561.789 1028.11 554.186 1028.11 549.708Z" fill="black"/>
<path d="M1057.4 538.628C1060.34 538.628 1064.59 542.931 1064.59 545.878C1064.59 548.529 1062.34 560.846 1060.52 567.74C1060.34 568.213 1059.81 568.682 1059.28 568.682C1057.92 568.682 1054.45 567.387 1053.15 566.678C1052.68 566.384 1052.45 565.853 1052.45 565.322C1052.45 565.085 1052.5 564.791 1052.5 564.791C1052.5 564.791 1055.51 552.415 1055.51 548.643C1055.51 547.643 1055.33 546.992 1054.92 546.992C1054.04 546.992 1051.5 548.407 1049.32 550.644C1048.73 551.234 1048.44 551.94 1048.32 552.529C1047.26 557.833 1045.96 564.432 1045.26 567.673C1045.14 568.204 1044.67 568.615 1044.14 568.615C1042.84 568.615 1038.95 567.32 1038.13 566.906C1037.6 566.611 1037.36 566.138 1037.36 565.61C1037.36 565.199 1040.9 544.337 1041.6 539.506C1041.72 538.917 1042.25 538.505 1042.78 538.505C1043.43 538.505 1047.32 539.211 1048.44 539.684C1049.09 539.979 1049.5 540.626 1049.5 541.274C1049.5 541.863 1049.56 542.747 1049.56 543.631C1049.56 543.984 1049.67 544.162 1049.79 544.162C1049.97 544.162 1050.21 543.867 1050.21 543.867C1052.56 540.863 1055.27 538.622 1057.39 538.622L1057.4 538.628Z" fill="black"/>
<path d="M1073.84 563.851C1073.84 566.739 1072.01 568.86 1069 568.86C1066 568.86 1064.64 566.62 1064.64 564.204C1064.64 562.142 1065.41 561.08 1066.71 559.901C1067.06 559.548 1067.77 559.253 1068.36 559.253C1071.01 559.253 1073.84 560.727 1073.84 563.851H1073.84Z" fill="black"/>
<path d="M1103.89 541.574C1103.89 541.811 1103.77 542.164 1103.77 542.164C1101.12 550.825 1099.71 562.436 1099.53 567.679C1099.53 568.21 1099.12 568.679 1098.59 568.679C1097.35 568.679 1094.58 567.912 1093.76 567.559C1093.17 567.323 1092.76 566.792 1092.58 565.969C1092.46 565.496 1092.4 564.084 1092.34 563.139C1092.34 562.728 1092.23 562.492 1092.05 562.492C1091.87 562.492 1091.7 562.845 1091.7 562.845C1089.58 566.38 1086.92 568.796 1084.74 568.796C1081.26 568.796 1076.67 564.082 1076.67 559.425C1076.67 552.237 1079.2 543.456 1080.68 539.803C1080.86 539.331 1081.33 538.919 1081.86 538.919C1082.68 538.919 1086.45 540.393 1087.81 541.16C1088.22 541.396 1088.51 541.808 1088.51 542.28C1088.51 542.692 1088.4 543.047 1088.4 543.047C1087.22 546.525 1084.98 555.601 1084.98 559.075C1084.98 559.959 1085.09 560.49 1085.45 560.49C1086.92 560.49 1089.69 558.486 1091.64 555.954C1091.99 555.481 1092.17 555.07 1092.29 554.364C1093.05 549.118 1094.58 542.814 1095.64 539.751C1095.82 539.22 1096.35 538.809 1096.94 538.809C1097.82 538.809 1101.24 539.751 1103.01 540.518C1103.48 540.696 1103.89 541.107 1103.89 541.58L1103.89 541.574Z" fill="black"/>
<path d="M1114.26 538.511C1117.5 538.511 1127.23 541.516 1127.23 545.878C1127.23 547.409 1126.05 549.766 1125.58 550.414C1125.1 551.062 1124.51 551.24 1123.99 551.298H1119.57C1118.98 551.298 1118.68 550.887 1118.68 550.531C1118.68 550.058 1119.27 548.526 1119.27 547.348C1119.27 545.758 1118.56 544.932 1117.68 544.932C1115.68 544.932 1113.91 548.232 1113.91 549.825C1113.91 553.891 1125.11 552.949 1125.11 559.726C1125.11 563.968 1120.92 568.802 1114.91 568.802C1111.37 568.802 1106.19 567.092 1104.3 565.383C1103.77 564.91 1103.65 564.499 1103.65 564.204C1103.65 563.437 1104.36 560.846 1104.89 559.726C1105.13 559.195 1105.36 559.02 1105.72 559.02C1106.07 559.02 1106.31 559.256 1106.42 559.256C1108.49 560.377 1111.37 561.908 1113.79 561.908C1115.15 561.908 1116.38 561.436 1116.5 560.493C1116.5 558.02 1105.12 557.725 1105.12 550.064C1105.12 545.349 1109.43 538.514 1114.26 538.514L1114.26 538.511Z" fill="black"/>
<path d="M876.658 541.044C876.658 543.401 872.711 563.615 871.886 567.446C871.842 567.638 871.795 567.84 871.746 568.041C871.737 568.041 871.728 568.041 871.719 568.044C870.786 572.003 867.781 579.465 859.63 579.465C857.509 579.465 853.737 578.287 851.911 576.933C851.38 576.58 851.205 576.166 851.205 575.696C851.205 574.987 852.03 572.16 852.325 571.51C852.5 571.098 852.853 570.862 853.267 570.862C853.384 570.862 853.62 570.92 853.737 570.982C855.505 571.746 857.039 572.041 858.157 572.041C859.397 572.041 860.598 571.655 861.57 570.879C862.01 570.529 862.393 570.112 862.722 569.657C863.399 568.724 863.568 567.562 863.77 566.457C864.003 565.176 864.236 563.892 864.464 562.609C864.843 560.476 865.208 558.344 865.573 556.211C865.963 553.918 866.349 551.625 866.737 549.332C867.084 547.272 867.431 545.216 867.79 543.159C867.991 542.004 868.175 540.84 868.408 539.687C868.528 539.098 869.056 538.684 869.706 538.684C870.529 538.684 874.126 539.273 875.716 539.687C876.247 539.862 876.658 540.452 876.658 541.041V541.044Z" fill="black"/>
</g>
<path opacity="0.5" d="M-967 66H756" stroke="#5FBFFA" stroke-width="2"/>
<path opacity="0.5" d="M-967 127H756" stroke="#5FBFFA" stroke-width="2"/>
<path opacity="0.5" d="M-967 188H756" stroke="#5FBFFA" stroke-width="2"/>
<path opacity="0.5" d="M-967 247H756" stroke="#5FBFFA" stroke-width="2"/>
<path opacity="0.5" d="M-967 309H756" stroke="#5FBFFA" stroke-width="2"/>
<path opacity="0.5" d="M-967 369H756" stroke="#5FBFFA" stroke-width="2"/>
<path opacity="0.5" d="M-967 430H756" stroke="#5FBFFA" stroke-width="2"/>
<path opacity="0.5" d="M-967 490H756" stroke="#5FBFFA" stroke-width="2"/>
<path opacity="0.5" d="M-967 550H756" stroke="#5FBFFA" stroke-width="2"/>
<path opacity="0.5" d="M-967 610H756" stroke="#5FBFFA" stroke-width="2"/>
<rect x="752" y="-40" width="8" height="762" fill="black"/>
<g clip-path="url(#clip4_448_1387)">
<path d="M699.454 709.785C673.538 691.523 647.333 673.681 620.965 656.067C628.037 655.043 634.571 652.115 639.809 645.749C640.188 645.304 640.719 645.008 641.31 644.932C641.892 644.85 642.483 644.989 642.975 645.315C676.842 664.683 697.061 625.765 666.058 620.615C654.092 618.433 653.685 611.842 655.879 609.961C658.073 608.079 657.941 603.806 655.232 603.786C643.908 604.093 637.287 594.967 650.913 590.008C646.234 586.08 642.802 580.868 641.016 575.018C639.229 569.168 639.184 562.936 640.862 557.054C641.068 556.471 641.477 555.999 642.014 555.695C642.546 555.399 643.175 555.3 643.777 555.424C644.38 555.547 644.919 555.892 645.283 556.373C645.656 556.86 645.83 557.467 645.787 558.075C644.732 571.074 653.764 582.373 663.117 588.281C663.559 588.538 664.061 588.667 664.571 588.657C665.081 588.647 665.58 588.51 666.009 588.243C672.839 582.967 682.69 588.378 690.068 591.599C685.308 588.265 681.456 583.794 678.829 578.599C676.21 573.408 674.931 567.643 675.092 561.824C675.11 561.2 675.363 560.6 675.8 560.158C676.229 559.71 676.821 559.431 677.44 559.385C678.058 559.339 678.683 559.537 679.172 559.921C679.656 560.313 679.984 560.867 680.094 561.48C684.673 581.583 709.018 592.962 711.866 593.733C726.815 597.748 739.25 600.96 736.096 608.671C735.134 610.505 733.76 612.09 732.08 613.304C730.4 614.518 728.466 615.336 726.428 615.677C725.852 615.823 725.345 616.171 725.003 616.652C724.66 617.133 724.49 617.716 724.522 618.301C724.563 618.892 724.8 619.457 725.217 619.877C725.615 620.309 726.168 620.579 726.767 620.652C727.214 620.576 727.68 620.597 728.115 620.718C728.551 620.838 728.957 621.059 729.288 621.374C729.63 621.673 729.889 622.06 730.059 622.473C730.232 622.9 730.303 623.354 730.265 623.809C725.851 642.693 750.081 681.694 744.824 705.273C742.487 715.3 738.334 724.737 732.631 733.146C721.575 725.353 710.545 717.541 699.489 709.749L699.454 709.785Z" fill="#3D9CFB"/>
<path d="M649.76 626.275C648.643 626.386 647.971 625.282 647.288 624.05C645.824 621.424 646.842 617.336 650.441 618.113C652.745 618.62 653.666 620.814 653.337 622.995C653.067 624.76 651.407 626.107 649.766 626.267L649.76 626.275Z" fill="black"/>
<path d="M666.921 633.434C665.043 634.277 663.004 634.294 661.862 632.578C659.043 628.359 666.623 624.36 669.999 626.597C672.692 628.381 670.029 632.039 666.921 633.434Z" fill="black"/>
<path d="M675.861 617.333C671.364 613.874 677.587 608.101 681.148 607.089C684.879 606.022 688.917 606.934 692.457 608.524C693.379 608.943 694.31 609.44 694.934 610.237C696.637 612.445 694.111 615.353 692.598 616.894C687.841 621.756 681.048 621.309 675.867 617.325L675.861 617.333Z" fill="black"/>
<path d="M724.58 605.432C723.935 603.889 720.965 603.301 717.86 604.602C714.755 605.904 713.134 603.714 714.821 602.037C718.308 598.458 728.655 598.883 729.436 605.29C730.02 609.876 722.599 613.056 720.295 610.414C717.991 607.772 725.69 607.559 724.566 605.435L724.58 605.432Z" fill="black"/>
<path d="M736.199 735.725C735.593 735.3 734.979 734.869 734.379 734.435C737.046 731.152 739.432 727.623 741.471 723.876C747.287 713.178 750.142 701.119 749.758 688.953C748.591 664.968 725.366 642.575 729.197 620.75C725.795 621.267 722.337 620.476 719.503 618.526C714.767 615.1 717.691 612.587 719.234 613.861C729.856 623.142 750.693 604.799 733.156 597.918C723.669 594.512 713.17 597.032 703.4 596.389C693.053 595.712 684.969 587.056 674.912 587.027C671.478 586.995 668.137 588.2 665.53 590.432C662.924 592.664 661.216 595.767 660.71 599.174C665.198 607.174 665.975 610.22 658.337 609.093C655.672 612.174 652.184 614.433 648.285 615.593C632.477 623.845 639.179 642.824 655.113 645.824C670.957 651.007 683.408 643.602 687.313 628.003C688.201 625.197 693.444 628.419 687.274 639.469C705.638 638.765 706 624.73 708.004 620.456C708.572 619.164 712.047 620.256 711.309 626.004C709.734 639.788 688.701 655.782 692.039 670.696C695.879 683.893 697.595 696.186 696.675 707.859C695.185 706.812 693.69 705.774 692.2 704.727C692.057 681.84 677.873 666.133 697.098 642.656C692.681 644.144 687.999 644.748 683.338 644.431C673.074 656.104 654.138 653.814 642.377 645.566C637.125 652.931 630.356 656.232 622.785 657.321C620.531 655.816 618.278 654.311 616.016 652.8C624.686 652.714 632.819 650.342 639.712 642.853C629.279 632.582 634.049 615.062 647.759 610.41C650.753 609.659 653.329 607.743 654.922 605.104C643.799 607.535 636.127 593.767 646.273 587.342C630.879 573.208 635.013 549.46 650.787 538.307C654.991 535.347 660.154 535.576 658.441 543.666C654.281 562.166 664.146 571.773 677.042 582.273C677.993 582.267 678.926 582.417 679.822 582.711C662.039 559.437 687.335 520.261 689.343 542.596C693.541 584.819 725.431 564.55 727.259 591.756C745.763 592.524 751.312 612.466 733.48 619.953C730.691 642.72 753.509 663.992 754.495 688.684C754.975 698.659 753.348 708.629 749.741 717.947C747.013 724.98 743.187 731.515 738.423 737.33C737.689 736.808 736.95 736.295 736.208 735.767L736.199 735.725ZM648.673 599.308L648.632 599.281C649.66 599.902 650.787 600.301 651.98 600.455C653.167 600.618 654.371 600.54 655.527 600.226C655.85 596.062 657.411 592.094 660.004 588.834C653.809 588.172 641.017 593.12 648.673 599.308ZM654.293 541.398L654.196 541.454C640.058 551.387 637.553 573.779 650.908 585.434C655.308 583.971 660.045 583.883 664.486 585.182C666.341 584.012 668.397 583.19 670.556 582.774C654.696 570.682 650.301 556.422 654.285 541.392L654.293 541.398ZM721.816 587.658L721.775 587.631C720.63 578.259 702.469 579.002 695.094 570.506C688.584 562.462 684.853 552.54 684.457 542.202C674.479 555.18 676.784 574.46 688.077 585.733C697.075 591.959 707.168 591.952 717.717 591.636C720.909 591.544 722.158 590.619 721.816 587.658Z" fill="black"/>
<path d="M712.252 623.93C711.843 624.439 711.942 625.104 712.489 625.527C713.029 625.944 713.763 625.867 714.092 625.353C714.445 624.82 714.352 624.146 713.879 623.701C713.487 623.333 712.644 623.446 712.257 623.922L712.252 623.93Z" fill="black"/>
<path d="M661.494 606.772C661.942 607.056 662.574 606.935 662.869 606.507C663.088 606.196 662.983 605.647 662.655 605.381C662.233 605.042 661.551 605.057 661.235 605.424C660.901 605.803 661.03 606.476 661.5 606.763L661.494 606.772Z" fill="black"/>
<path d="M708.148 625.145C708.118 625.317 708.046 625.606 708.028 625.906C708.009 626.169 708.404 626.479 708.639 626.431C709.324 626.285 709.821 625.534 709.683 624.783C709.655 624.645 709.405 624.443 709.252 624.438C708.867 624.422 708.468 624.698 708.148 625.145Z" fill="black"/>
<path d="M654.757 598.672C655.209 598.948 655.664 598.77 655.807 598.337C655.983 597.781 655.69 597.191 655.218 597.143C654.71 597.094 654.345 597.32 654.291 597.728C654.234 598.194 654.462 598.501 654.757 598.672Z" fill="black"/>
<path d="M659.382 619.827C659.006 620.214 659.041 620.74 659.363 620.978C659.591 621.141 659.985 621.09 660.187 620.876C660.488 620.548 660.476 619.987 660.115 619.844C659.879 619.748 659.571 619.832 659.391 619.832L659.382 619.827Z" fill="black"/>
<path d="M682.395 591.829C682.146 592.168 682.169 592.64 682.459 592.927C682.729 593.19 683.374 593.102 683.507 592.794C683.647 592.491 683.504 591.965 683.193 591.71C682.968 591.525 682.574 591.576 682.395 591.829Z" fill="black"/>
<path d="M712.617 618.87C712.412 618.926 712.082 618.936 711.869 619.094C711.598 619.286 711.714 620.035 712.049 620.126C712.302 620.197 712.679 620.135 712.892 619.976C713.188 619.765 713.045 619.13 712.631 618.867L712.617 618.87Z" fill="black"/>
<path d="M664.966 604.393C664.917 604.684 664.812 604.915 664.871 605.062C665.102 605.563 665.713 605.656 666.161 605.305C666.236 605.246 666.33 605.105 666.31 605.08C666.151 604.831 666.009 604.52 665.776 604.402C665.559 604.294 665.232 604.389 664.968 604.407L664.966 604.393Z" fill="black"/>
<path d="M708.807 605.646C708.875 605.834 708.889 606.084 709.028 606.2C709.245 606.379 709.757 606.167 709.807 605.876C709.837 605.704 709.725 605.438 709.589 605.336C709.325 605.137 708.937 605.324 708.81 605.66L708.807 605.646Z" fill="black"/>
<path d="M709.813 610.211C710.07 610.584 710.192 610.87 710.395 611.016C710.612 611.16 711.022 610.867 711.037 610.554C711.048 610.393 710.895 610.099 710.784 610.086C710.517 610.053 710.249 610.151 709.808 610.219L709.813 610.211Z" fill="black"/>
<path d="M690.583 609.67C690.678 609.817 690.773 610.107 690.976 610.254C691.162 610.389 691.574 610.075 691.64 609.794C691.7 609.522 691.461 609.268 691.089 609.213C690.837 609.178 690.685 609.281 690.589 609.661L690.583 609.67Z" fill="black"/>
<path d="M657.26 587.58C657.316 587.749 657.327 587.948 657.425 588.073C657.639 588.311 657.933 588.157 658.026 587.799C658.083 587.55 658.003 587.364 657.745 587.373C657.578 587.371 657.412 587.513 657.254 587.588L657.26 587.58Z" fill="black"/>
<path d="M713.69 628.494C713.652 628.769 713.528 629.082 713.928 629.203C714.22 629.288 714.511 629.302 714.66 628.968C714.822 628.596 714.58 628.256 714.119 628.19C713.881 628.152 713.734 628.247 713.69 628.494Z" fill="black"/>
<path d="M706.387 610.784C706.187 610.76 705.968 610.674 705.799 610.73C705.572 610.82 705.579 611.388 705.823 611.526C705.97 611.612 706.231 611.616 706.389 611.541C706.685 611.402 706.67 611.008 706.379 610.778L706.387 610.784Z" fill="black"/>
<path d="M696.019 607.693C695.836 607.716 695.517 607.672 695.32 607.806C694.972 608.043 695.02 608.531 695.348 608.832C695.526 608.998 696.012 609.008 696.175 608.852C696.463 608.563 696.442 608.105 696.025 607.685L696.019 607.693Z" fill="black"/>
<path d="M690.194 628.653C690.175 628.952 690.104 629.169 690.159 629.338C690.255 629.629 690.673 629.63 690.914 629.322C691.016 629.186 690.982 628.947 691.009 628.761C690.735 628.723 690.474 628.682 690.199 628.644L690.194 628.653Z" fill="black"/>
<path d="M657.979 615.97C657.869 616.389 657.859 616.658 658.173 616.854C658.481 617.058 659.016 616.813 659.118 616.46C659.175 616.247 658.916 615.787 658.677 615.785C658.425 615.786 658.17 615.917 657.987 615.975L657.979 615.97Z" fill="black"/>
<path d="M660.629 625.93C660.781 625.863 661 625.841 661.086 625.729C661.265 625.476 661.078 625.125 660.765 625.145C660.615 625.154 660.386 625.338 660.375 625.462C660.361 625.609 660.539 625.775 660.629 625.93Z" fill="black"/>
<path d="M675.281 603.706C675.573 603.863 675.977 603.688 675.985 603.369C675.979 603.197 675.867 602.967 675.722 602.859C675.47 602.679 674.988 602.9 675.008 603.177C675.022 603.355 675.186 603.523 675.287 603.698L675.281 603.706Z" fill="black"/>
<path d="M659.506 596.049C659.372 595.961 659.117 595.948 658.956 596.009C658.643 596.138 658.639 596.543 658.967 596.736C659.131 596.832 659.372 596.884 659.561 596.853C659.777 596.817 659.772 596.226 659.511 596.041L659.506 596.049Z" fill="black"/>
<path d="M648.441 589.702C648.752 589.812 649.134 589.669 649.13 589.403C649.133 589.237 649.016 589.015 648.879 588.913C648.674 588.753 648.278 588.934 648.223 589.234C648.201 589.375 648.351 589.547 648.432 589.696L648.441 589.702Z" fill="black"/>
<path d="M694.961 627.505C694.711 627.519 694.437 627.481 694.204 627.579C694.123 627.61 694.119 627.943 694.136 628.134C694.165 628.381 694.353 628.494 694.589 628.41C694.772 628.351 694.999 628.262 695.085 628.115C695.148 628.001 695.023 627.774 694.952 627.499L694.961 627.505Z" fill="black"/>
<path d="M715.362 609.748C715.328 609.582 715.322 609.302 715.252 609.28C715.091 609.233 714.878 609.284 714.723 609.373C714.521 609.479 714.507 609.698 714.649 609.9C714.8 610.108 714.991 610.127 715.177 609.973C715.251 609.915 715.298 609.826 715.362 609.748Z" fill="black"/>
<path d="M704.827 630.683C704.91 630.738 705.01 630.84 705.044 630.826C705.199 630.737 705.395 630.639 705.489 630.498C705.66 630.203 705.532 629.89 705.229 629.822C705.077 629.781 704.888 629.848 704.736 629.915C704.67 629.943 704.62 630.09 704.637 630.173C704.673 630.353 704.76 630.53 704.813 630.686L704.827 630.683Z" fill="black"/>
<path d="M646.892 628.07L646.609 628.026L646.793 628.256L646.892 628.07Z" fill="black"/>
<path d="M699.58 602.807C699.58 602.879 699.567 602.954 699.567 603.026C699.681 603.018 699.803 603.015 699.916 603.006C699.891 602.917 699.866 602.829 699.841 602.74C699.752 602.765 699.663 602.79 699.575 602.816L699.58 602.807Z" fill="black"/>
</g>
<path d="M1075.43 49.7142C1075.43 47.9048 1076.9 46.438 1078.7 46.438V46.438C1080.51 46.438 1081.98 47.9048 1081.98 49.7142V176.667C1081.98 178.476 1080.51 179.943 1078.7 179.943V179.943C1076.9 179.943 1075.43 178.476 1075.43 176.667V49.7142Z" fill="black"/>
<path d="M878 39.5C878 37.567 879.567 36 881.5 36V36C883.433 36 885 37.567 885 39.5V115.5C885 117.433 883.433 119 881.5 119V119C879.567 119 878 117.433 878 115.5V39.5Z" fill="black"/>
<rect x="905" y="216" width="7" height="69" rx="3.5" transform="rotate(-90 905 216)" fill="black"/>
<rect x="1013.59" y="215.571" width="6.55238" height="35.219" rx="3.27619" transform="rotate(-90 1013.59 215.571)" fill="black"/>
<rect x="867.075" y="436.752" width="7.16364" height="79.6955" rx="3.58182" transform="rotate(-90 867.075 436.752)" fill="black"/>
<rect x="804.393" y="436.752" width="7.16364" height="23.2818" rx="3.58182" transform="rotate(-90 804.393 436.752)" fill="black"/>
<rect x="798.114" y="240.164" width="7.16363" height="80.5909" rx="3.58182" transform="rotate(-90 798.114 240.164)" fill="black"/>
<rect x="1014" y="274" width="6.99999" height="122" rx="3.5" transform="rotate(-90 1014 274)" fill="black"/>
<rect x="1014" y="469" width="7" height="35" rx="3.5" transform="rotate(-90 1014 469)" fill="black"/>
<rect x="1136" y="469" width="7" height="23" rx="3.5" transform="rotate(-90 1136 469)" fill="black"/>
<g clip-path="url(#clip5_448_1387)">
<path d="M1163.99 161.198L1129.64 168.777L1129.88 169.508L1153.01 221.766C1154.02 224.895 1156.84 226.775 1159.58 226.145L1162.6 224.691C1164.91 224.159 1166.43 221.649 1166.09 218.879L1164.14 161.175L1163.99 161.198Z" fill="#F39745"/>
<path d="M1163.9 149.04C1159.25 138.451 1150.49 140.092 1149.38 135.905C1148.27 131.718 1152.76 130.799 1147.76 126.735C1143.47 123.238 1133.56 121.691 1131.18 116.238C1130.72 115.177 1129.32 114.956 1128.64 115.895C1125.69 119.96 1124.25 124.585 1122.89 129.348C1121.62 133.824 1118.46 138.167 1118.23 142.902C1118.1 145.658 1121.73 152.45 1119.86 154.663C1119.86 154.663 1113.3 162.393 1117.94 169.936C1118.38 170.605 1119.01 171.122 1119.76 171.418L1119.48 170.612L1163.95 161.205C1165.88 157.373 1165.87 152.848 1163.9 149.031L1163.9 149.04Z" fill="#B989C9"/>
<path d="M1162.33 165.108L1162.42 169.792L1163.31 215.129L1163.43 220.792L1163.48 223.628L1163.49 224.335L1163.5 224.689L1163.51 224.87L1163.53 225.171C1163.56 225.5 1163.54 225.817 1163.5 226.137C1163.32 227.422 1162.47 228.59 1161.32 229.179C1161.03 229.326 1160.72 229.436 1160.41 229.516L1160.24 229.564C1160.24 229.564 1160.1 229.606 1160.08 229.609L1159.92 229.666L1159.58 229.78L1158.91 230.009L1156.22 230.904L1154.87 231.352L1154.2 231.581L1154.12 231.594L1154.12 231.604C1154.12 231.604 1154.1 231.607 1154.08 231.61L1153.83 231.651C1153.14 231.761 1152.43 231.732 1151.76 231.556C1150.41 231.215 1149.2 230.314 1148.48 229.122L1143.81 219.012L1124.79 177.845L1122.41 172.696L1122.09 171.988L1122.35 171.946L1133.44 169.589L1155.62 164.894L1160.31 163.902C1165.67 162.773 1164.89 159.09 1159.53 160.219L1154.84 161.211L1132.66 165.905L1121.57 168.253L1119.06 168.785L1117.78 169.131L1117.14 169.304C1116.98 169.3 1117.06 169.428 1117.1 169.544L1117.21 169.87C1117.53 170.75 1117.77 171.552 1118.14 172.415L1119.01 174.282L1121.39 179.431L1140.41 220.598L1142.79 225.747L1143.98 228.321L1144.57 229.595C1144.57 229.595 1144.58 229.633 1144.55 229.557L1144.59 229.662L1144.67 229.872C1144.73 230.004 1144.78 230.149 1144.85 230.279C1144.98 230.541 1145.12 230.813 1145.27 231.063C1146.49 233.116 1148.54 234.641 1150.85 235.224C1152 235.517 1153.23 235.574 1154.4 235.397L1154.85 235.326C1154.94 235.302 1155.04 235.296 1155.15 235.257L1155.41 235.175L1156.08 234.946L1157.43 234.498L1160.12 233.603L1161.32 233.21C1161.92 233.063 1162.5 232.848 1163.06 232.567C1165.29 231.442 1166.89 229.212 1167.24 226.745C1167.33 226.134 1167.36 225.501 1167.3 224.893L1167.28 223.6L1167.22 220.764L1167.1 215.101L1166.22 169.764L1166.13 165.08C1166.09 162.929 1165.48 161.629 1164.76 161.197L1164.04 160.633C1163.87 161.066 1163.96 161.476 1164.3 161.787L1163.58 161.223C1162.88 161.679 1162.32 163.004 1162.36 165.154L1162.33 165.108Z" fill="#010101"/>
<path d="M1162.66 200.286L1155.6 197.018L1156.86 193.009C1158.16 193.672 1159.45 194.359 1160.73 195.066C1161.7 195.609 1162.74 194.187 1161.75 193.636C1160.31 192.834 1158.86 192.063 1157.38 191.316L1159.12 185.804C1159.45 184.738 1157.82 184.087 1157.48 185.165L1155.79 190.518C1154.72 189.999 1153.66 189.49 1152.58 189.004L1153.39 186.82C1153.57 186.366 1153.33 185.856 1152.88 185.686C1152.43 185.505 1151.92 185.738 1151.75 186.191L1150.98 188.288C1148.97 187.403 1146.93 186.564 1144.89 185.787C1144.43 185.606 1143.92 185.839 1143.75 186.292C1143.57 186.746 1143.8 187.256 1144.26 187.427C1146.32 188.212 1148.36 189.05 1150.38 189.933L1148.91 193.925L1143.66 191.491C1142.63 191.018 1142 192.657 1143.02 193.133L1148.29 195.582L1145.41 203.424C1145.23 203.879 1145.47 204.388 1145.92 204.559C1146.37 204.74 1146.88 204.506 1147.05 204.054L1149.89 196.31L1153.44 197.951L1152.04 202.418C1151.7 203.484 1153.33 204.135 1153.68 203.057L1155.05 198.697L1162.01 201.919C1163.05 202.401 1163.68 200.752 1162.66 200.276L1162.66 200.286Z" fill="black"/>
<path d="M1162.31 201.355L1159.59 200.109L1154.67 197.836L1153.55 201.376L1153.1 202.805C1153.03 202.998 1153.03 202.957 1153.01 202.982C1152.99 202.995 1152.89 203 1152.8 202.954C1152.71 202.907 1152.65 202.836 1152.63 202.778C1152.63 202.749 1152.62 202.719 1152.62 202.68C1152.62 202.658 1152.63 202.637 1152.63 202.617L1152.68 202.437L1153.13 201.008L1154.19 197.628L1149.52 195.467L1147.62 200.651L1146.79 202.921L1146.58 203.491L1146.47 203.772C1146.45 203.836 1146.43 203.859 1146.43 203.859C1146.43 203.859 1146.42 203.882 1146.41 203.893C1146.34 203.985 1146.21 204.026 1146.1 203.973C1145.99 203.93 1145.93 203.798 1145.96 203.681L1146.35 202.617L1147.18 200.347L1149.05 195.259L1145.28 193.511L1143.65 192.759L1143.24 192.57C1143.24 192.57 1143.15 192.514 1143.14 192.486C1143.09 192.433 1143.07 192.324 1143.12 192.206C1143.16 192.088 1143.23 192.036 1143.24 192.044C1143.25 192.043 1143.28 192.048 1143.34 192.069C1143.42 192.106 1143.6 192.19 1143.72 192.241L1145.35 192.994L1149.22 194.786L1151.12 189.591L1146.87 187.85L1145.01 187.093L1144.55 186.904L1144.43 186.852C1144.43 186.852 1144.41 186.846 1144.4 186.837C1144.37 186.831 1144.36 186.812 1144.34 186.796C1144.27 186.726 1144.24 186.619 1144.28 186.532C1144.31 186.445 1144.39 186.372 1144.49 186.366C1144.51 186.363 1144.54 186.358 1144.56 186.365C1144.58 186.362 1144.61 186.378 1144.7 186.414L1145.16 186.604L1147 187.363L1151.29 189.129L1152.15 186.805L1152.29 186.418C1152.29 186.418 1152.34 186.349 1152.36 186.325C1152.44 186.273 1152.54 186.257 1152.61 186.305C1152.69 186.343 1152.75 186.424 1152.76 186.505C1152.77 186.564 1152.77 186.564 1152.72 186.663L1152.57 187.092L1151.73 189.352L1156.11 191.417L1157.39 187.365L1157.92 185.681C1157.96 185.563 1158.03 185.339 1158.04 185.338C1158.06 185.284 1158.07 185.292 1158.08 185.271C1158.09 185.269 1158.2 185.242 1158.31 185.295C1158.43 185.347 1158.46 185.443 1158.48 185.5C1158.49 185.54 1158.49 185.56 1158.46 185.666L1158.32 186.093L1157.79 187.778L1156.58 191.647L1159.7 193.306C1160.47 193.739 1161.87 194.398 1161.45 194.343C1161.42 194.418 1161.34 194.513 1161.25 194.547C1161.17 194.581 1161.09 194.582 1161.02 194.553C1161.01 194.555 1160.87 194.487 1160.77 194.422L1160.43 194.242L1159.77 193.882L1156.44 192.105L1154.78 197.361L1157.1 198.439L1159.93 199.751C1163.15 201.241 1163.68 200.104 1160.45 198.613L1157.63 197.302L1156.31 196.693L1157.17 193.932L1159.17 194.991L1159.83 195.341L1160.16 195.521C1160.27 195.574 1160.36 195.631 1160.58 195.727C1160.97 195.888 1161.44 195.863 1161.81 195.673C1162.17 195.493 1162.46 195.204 1162.62 194.814C1162.79 194.442 1162.77 193.849 1162.45 193.475C1162.31 193.295 1162.09 193.157 1161.97 193.085L1161.64 192.905L1160.3 192.197L1158.1 191.03L1159 188.162L1159.53 186.477L1159.66 186.051C1159.72 185.869 1159.77 185.588 1159.73 185.341C1159.65 184.818 1159.31 184.386 1158.89 184.19C1158.48 183.981 1157.92 183.908 1157.42 184.211C1157.18 184.36 1157 184.593 1156.91 184.809C1156.79 185.071 1156.79 185.142 1156.74 185.303L1156.21 186.987L1155.36 189.674L1153.32 188.714L1153.75 187.541L1153.91 187.111C1153.98 186.938 1154.04 186.624 1154.01 186.376C1153.96 185.857 1153.62 185.375 1153.13 185.159C1152.66 184.941 1152.06 184.996 1151.64 185.305C1151.44 185.46 1151.26 185.661 1151.14 185.902C1151.05 186.12 1151.03 186.214 1150.96 186.376L1150.55 187.485L1147.47 186.215L1145.61 185.458L1145.15 185.269C1145.09 185.247 1144.95 185.189 1144.81 185.162C1144.67 185.133 1144.53 185.125 1144.38 185.139C1143.81 185.179 1143.28 185.577 1143.09 186.125C1142.88 186.664 1143.02 187.31 1143.43 187.71C1143.53 187.806 1143.64 187.899 1143.78 187.969C1143.83 188.001 1143.91 188.029 1143.96 188.061L1144.08 188.103L1144.54 188.293L1146.38 189.042L1149.51 190.325L1148.49 193.111L1145.85 191.891L1144.22 191.138C1144.08 191.07 1143.98 191.015 1143.79 190.945C1143.56 190.859 1143.29 190.79 1143.01 190.846C1142.43 190.939 1142.03 191.396 1141.89 191.834C1141.74 192.284 1141.77 192.826 1142.09 193.261C1142.25 193.479 1142.45 193.629 1142.67 193.735L1143.09 193.922L1144.71 194.675L1147.44 195.941L1145.97 199.943L1145.14 202.212L1144.93 202.783L1144.82 203.063C1144.78 203.16 1144.74 203.237 1144.69 203.428C1144.52 204.104 1144.88 204.866 1145.53 205.148C1146.15 205.453 1146.98 205.24 1147.37 204.661C1147.42 204.592 1147.47 204.514 1147.51 204.437C1147.56 204.348 1147.58 204.284 1147.59 204.241L1147.7 203.961L1147.91 203.39L1148.74 201.121L1150.17 197.206L1152.61 198.326L1151.88 200.661L1151.43 202.089L1151.38 202.27C1151.35 202.365 1151.33 202.47 1151.31 202.574C1151.29 202.791 1151.31 203.009 1151.38 203.222C1151.52 203.644 1151.84 203.948 1152.19 204.125C1152.54 204.292 1152.99 204.372 1153.43 204.18C1153.88 204.007 1154.16 203.506 1154.23 203.222L1154.68 201.793L1155.37 199.618L1158.99 201.298L1161.8 202.591C1162.12 202.732 1162.57 202.722 1162.89 202.538C1163.21 202.366 1163.4 202.103 1163.5 201.873C1163.71 201.395 1163.63 200.932 1163.44 200.648C1163.26 200.352 1163.01 200.25 1162.86 200.235C1162.69 200.22 1162.62 200.272 1162.58 200.34C1162.5 200.484 1162.67 200.72 1162.63 200.97C1162.62 201.083 1162.57 201.232 1162.47 201.35C1162.42 201.409 1162.37 201.436 1162.34 201.441C1162.31 201.446 1162.3 201.447 1162.23 201.409L1162.31 201.355Z" fill="#010101"/>
<path d="M1117.23 171.315C1117.23 171.315 1117.18 171.323 1117.12 171.352C1117.11 171.354 1117.1 171.355 1117.1 171.367C1117.03 171.174 1117.02 171.258 1117.15 171.298C1117.19 171.312 1117.22 171.317 1117.23 171.315Z" fill="black"/>
<path d="M1168.04 160.229L1167.5 160.314C1167.73 160.095 1167.83 159.887 1167.8 159.709C1167.84 159.856 1167.95 159.999 1168.01 160.151C1168.03 160.179 1168.03 160.199 1168.04 160.229Z" fill="black"/>
<path d="M1163.01 159.421L1157.72 160.539L1132.85 165.784L1120.41 168.417L1117.29 169.078L1116.9 169.161L1116.79 169.178C1116.79 169.178 1116.56 169.224 1116.42 169.278C1115.81 169.456 1115.25 170.011 1115.07 170.607C1114.88 171.204 1114.93 171.794 1115.21 172.357C1115.47 172.923 1116.21 173.442 1116.9 173.444C1117.07 173.456 1117.21 173.424 1117.36 173.411C1117.53 173.384 1117.52 173.385 1117.61 173.361L1118 173.279L1118.77 173.115L1120.33 172.795L1123.44 172.137L1148.29 166.884L1160.72 164.262L1166.19 163.106L1166.71 166.394L1142.67 171.608L1130.08 174.338L1123.77 175.709L1120.6 176.397L1119.82 176.573L1119.61 176.606L1119.48 176.638C1119.16 176.708 1118.85 176.839 1118.59 177.043C1118.04 177.474 1117.77 178.135 1117.76 178.724C1117.77 179.311 1117.96 179.928 1118.51 180.417C1118.79 180.656 1119.16 180.82 1119.51 180.865C1119.69 180.887 1119.86 180.89 1120.01 180.866L1120.24 180.83L1120.36 180.811L1121.14 180.646L1122.71 180.303L1125.87 179.618L1132.16 178.249L1144.76 175.519L1157.35 172.789L1163.66 171.419L1166.82 170.732L1168.4 170.388L1169.2 170.22L1169.39 170.189L1169.53 170.147C1169.86 170.084 1170.15 169.957 1170.41 169.754C1170.83 169.443 1171.13 168.969 1171.23 168.447C1171.28 168.206 1171.27 167.864 1171.24 167.696L1170.56 163.44C1170.44 162.68 1170.3 162.014 1170.14 161.453C1169.8 160.281 1169.43 159.337 1168.12 159.131C1166.43 158.864 1164.67 159.064 1163.01 159.421ZM1117.12 171.352C1117.12 171.352 1117.1 171.356 1117.1 171.367C1117.03 171.174 1117.02 171.258 1117.15 171.298C1117.19 171.312 1117.22 171.317 1117.23 171.315C1117.22 171.317 1117.18 171.323 1117.12 171.352Z" fill="black"/>
<path d="M1117.23 171.315C1117.23 171.315 1117.18 171.323 1117.12 171.352C1117.11 171.354 1117.1 171.355 1117.1 171.367C1117.03 171.174 1117.02 171.258 1117.15 171.298C1117.19 171.312 1117.22 171.317 1117.23 171.315Z" fill="#010101"/>
<path d="M1137.05 125.641C1136.87 125.628 1136.71 125.633 1136.55 125.649L1136.37 125.597L1136.35 125.59C1136.36 125.588 1136.33 125.613 1136.33 125.573L1136.35 125.57C1136.54 125.56 1136.79 125.58 1137.05 125.641Z" fill="black"/>
<path d="M1137.7 124.169C1137.34 123.579 1136.74 123.25 1135.81 123.51C1135.02 123.707 1134.39 124.385 1134.23 125.179C1133.63 127.695 1132.43 130.054 1130.76 132.021C1129.93 133.015 1128.98 133.906 1127.95 134.658C1127.42 135.046 1126.88 135.396 1126.32 135.717L1125.89 135.948L1125.78 136.016L1125.53 136.167C1125.38 136.273 1125.21 136.441 1125.09 136.603C1124.52 137.331 1124.54 138.26 1124.89 138.923C1125.07 139.27 1125.34 139.59 1125.74 139.82C1126.13 140.051 1126.68 140.136 1127.1 140.038C1127.34 140 1127.5 139.914 1127.69 139.833L1127.93 139.704L1128.41 139.434C1129.05 139.059 1129.68 138.665 1130.28 138.225C1131.47 137.367 1132.57 136.37 1133.56 135.271C1135.72 132.87 1137.84 129.899 1138.14 126.59C1138.22 125.798 1138.1 124.834 1137.7 124.169ZM1136.55 125.649L1136.37 125.597L1136.35 125.59C1136.36 125.588 1136.33 125.613 1136.33 125.573L1136.35 125.57C1136.54 125.56 1136.79 125.58 1137.05 125.641C1136.87 125.628 1136.71 125.633 1136.55 125.649Z" fill="black"/>
<path d="M1148.34 140.983C1148.34 140.983 1148.28 140.961 1148.25 140.946C1148.24 140.877 1148.22 140.91 1148.34 140.983Z" fill="black"/>
<path d="M1148.39 141.106C1148.39 141.106 1148.26 141.198 1148.25 141.229L1148.24 141.23C1148.19 141.158 1148.12 141.088 1148.04 141.03L1148.03 141.032C1147.89 140.902 1147.72 140.817 1147.54 140.765C1147.78 140.829 1148.09 140.881 1148.25 140.946C1148.26 140.974 1148.27 141.013 1148.27 141.084L1148.34 141.104C1148.36 141.101 1148.38 141.108 1148.39 141.106Z" fill="black"/>
<path d="M1147.31 139.384C1147.45 139.251 1147.61 139.135 1147.77 139.047C1148.76 138.556 1149.96 139.427 1150.35 140.328C1150.45 140.595 1150.5 140.891 1150.49 141.165C1150.5 141.317 1150.47 141.443 1150.44 141.569L1150.39 141.76L1150.36 141.855L1150.11 142.542C1149.94 142.995 1149.76 143.439 1149.58 143.883C1149.19 144.765 1148.76 145.624 1148.29 146.459C1147.33 148.131 1146.19 149.69 1144.9 151.111C1143.63 152.508 1142.27 153.83 1140.81 155.035C1140.17 155.562 1139.33 156.314 1138.46 156.798C1137.58 157.323 1136.63 157.727 1135.65 158.015C1135.4 158.086 1135.17 158.153 1134.9 158.206C1134.75 158.231 1134.71 158.267 1134.34 158.295C1134.06 158.3 1133.78 158.254 1133.52 158.153C1132.46 157.786 1131.85 156.485 1132.27 155.426C1132.46 154.899 1132.86 154.461 1133.37 154.228C1134.04 153.979 1134.01 154.055 1134.23 153.979C1134.62 153.867 1135 153.734 1135.37 153.574C1136.1 153.265 1136.79 152.851 1137.41 152.347L1139.43 150.587C1140.72 149.399 1141.96 148.097 1143 146.727C1143.8 145.667 1144.5 144.532 1145.11 143.351C1145.68 142.227 1146.11 141.004 1146.84 139.966C1146.9 139.886 1146.95 139.806 1147.02 139.724C1147.12 139.608 1147.22 139.491 1147.32 139.383L1147.31 139.384Z" fill="black"/>
<path d="M1148.39 141.106C1148.39 141.106 1148.36 141.101 1148.34 141.104Z" fill="black"/>
<path d="M1148.34 140.983C1148.34 140.983 1148.28 140.961 1148.25 140.946C1148.24 140.877 1148.22 140.91 1148.34 140.983Z" fill="#010101"/>
<path d="M1148.39 141.107C1148.39 141.107 1148.26 141.198 1148.25 141.229L1148.24 141.231C1148.19 141.158 1148.12 141.088 1148.04 141.03L1148.16 141.062C1148.16 141.062 1148.2 141.076 1148.22 141.082C1148.23 141.081 1148.25 141.098 1148.27 141.094C1148.31 141.109 1148.34 141.105 1148.34 141.105C1148.36 141.101 1148.38 141.108 1148.39 141.107Z" fill="#010101"/>
<path d="M1131.82 104.389C1131.48 105.172 1130.99 105.918 1130.08 105.871C1129.6 105.887 1129.19 105.528 1129.15 105.048C1129.13 104.566 1129.48 104.144 1129.97 104.106L1129.98 104.105L1130.03 104.057C1129.93 104.185 1130.1 103.925 1130.11 103.882C1130.15 103.805 1130.18 103.73 1130.21 103.654L1130.32 103.384C1128.94 102.772 1127.35 102.936 1126.12 103.8C1124.04 105.317 1123.6 108.233 1125.12 110.309C1125.76 111.18 1126.68 111.802 1127.72 112.071C1130.19 112.578 1132.61 110.987 1133.12 108.516C1133.43 107.009 1132.94 105.445 1131.82 104.389Z" fill="#DB433B"/>
<path d="M1129.91 106.841C1130.09 106.852 1130.28 106.822 1130.47 106.751C1131.21 106.48 1131.49 105.635 1131.76 104.955L1132.48 103.15L1133.17 101.358L1133.51 100.462C1133.58 100.33 1133.69 99.9984 1133.69 99.7354C1133.68 99.4541 1133.61 99.1922 1133.47 98.9611C1133.2 98.4874 1132.6 98.1874 1132.06 98.2544C1131.51 98.3016 1131 98.6565 1130.79 99.1861L1130.08 100.99L1129.38 102.793C1129.17 103.313 1128.98 103.849 1128.74 104.354C1128.6 104.639 1128.51 104.928 1128.51 105.252C1128.51 106.082 1129.12 106.805 1129.91 106.841Z" fill="black"/>
<path d="M1166.91 161.187L1163.95 161.66L1164.9 167.585L1167.86 167.112L1166.91 161.187Z" fill="black"/>
<path d="M1159.08 213.829C1159.21 213.151 1159.3 212.417 1159.46 211.713C1159.6 211.114 1160.32 210.696 1160.93 210.801C1161.66 210.927 1162.18 211.725 1161.99 212.464C1161.95 212.664 1161.87 212.898 1161.73 213.012C1161.41 213.277 1161.06 213.555 1160.67 213.687C1159.77 214.003 1159.32 214.612 1159.16 215.528C1159.13 215.715 1158.96 215.885 1158.83 216.057C1158.63 216.342 1157.97 216.396 1157.69 216.158C1157.41 215.919 1157.32 215.266 1157.58 215.031C1158.04 214.613 1158.54 214.25 1159.07 213.821L1159.08 213.829Z" fill="black"/>
<path d="M1149.14 222.394C1148.75 222.497 1148.24 222.255 1148.1 221.892C1147.74 221.007 1148.06 220.177 1148.89 219.78C1149.31 219.582 1150.08 219.915 1150.21 220.36C1150.45 221.152 1149.91 222.191 1149.15 222.393L1149.14 222.394Z" fill="black"/>
<path d="M1151.28 211.976C1151.18 211.972 1151.07 211.989 1150.98 211.974C1150.43 211.899 1150.05 211.555 1149.76 211.125C1149.4 210.595 1149.74 209.853 1150.39 209.698C1150.93 209.562 1151.49 209.745 1151.76 210.138C1152.12 210.648 1152.03 211.3 1151.53 211.785C1151.46 211.857 1151.36 211.912 1151.28 211.976Z" fill="black"/>
<path d="M1149.7 203.115C1150.34 202.982 1150.85 203.337 1150.93 203.719C1151.07 204.445 1150.39 205.284 1149.7 205.151C1149.31 205.071 1148.96 204.823 1148.61 204.605C1148.41 204.476 1148.44 203.904 1148.65 203.769C1149.07 203.489 1149.51 203.236 1149.7 203.125L1149.7 203.115Z" fill="black"/>
<path d="M1152.34 217.894C1151.21 218.063 1150.65 217.423 1150.89 216.434C1151.04 215.833 1151.53 215.391 1151.93 215.489C1152.72 215.677 1153.28 216.711 1152.91 217.417C1152.79 217.65 1152.46 217.783 1152.34 217.894Z" fill="black"/>
<path d="M1164.8 215.721C1164.37 215.74 1163.8 215.364 1163.64 214.895C1163.5 214.501 1163.49 214.108 1163.79 213.757C1164.09 213.395 1164.75 213.319 1165.15 213.61C1165.77 214.068 1165.87 214.913 1165.34 215.454C1165.21 215.586 1164.99 215.631 1164.81 215.72L1164.8 215.721Z" fill="black"/>
<path d="M1144.75 211.084C1144.86 211.512 1144.43 212.098 1143.92 212.2C1143.4 212.313 1142.84 211.997 1142.7 211.524C1142.55 211.051 1142.85 210.415 1143.29 210.254C1143.81 210.07 1144.6 210.511 1144.75 211.084Z" fill="black"/>
<path d="M1134.78 199.026C1135.02 199.22 1135.33 199.352 1135.43 199.58C1135.53 199.827 1135.49 200.198 1135.38 200.459C1135.14 201.044 1134.54 201.241 1134.15 200.929C1133.72 200.582 1133.6 199.973 1133.96 199.571C1134.16 199.357 1134.45 199.229 1134.77 199.016L1134.78 199.026Z" fill="black"/>
<path d="M1154.15 206.647C1154.16 207.254 1153.52 207.851 1152.94 207.782C1152.5 207.731 1152.18 207.408 1152.14 206.979C1152.07 206.372 1152.65 205.843 1153.35 205.864C1153.78 205.876 1154.14 206.233 1154.16 206.646L1154.15 206.647Z" fill="black"/>
<path d="M1145.28 194.534C1145.41 195.091 1145.08 195.649 1144.58 195.739C1144.12 195.814 1143.56 195.417 1143.4 194.904C1143.31 194.585 1143.65 194.035 1144.01 193.906C1144.51 193.735 1145.17 194.065 1145.28 194.544L1145.28 194.534Z" fill="black"/>
<path d="M1132.07 196.561C1132.25 197.009 1131.91 197.589 1131.41 197.701C1131.06 197.785 1130.61 197.453 1130.52 197.062C1130.44 196.67 1130.71 196.221 1131.08 196.132C1131.57 196.023 1131.93 196.179 1132.08 196.559L1132.07 196.561Z" fill="black"/>
<path d="M1150.14 228.443C1149.66 228.589 1149.12 228.23 1149.04 227.707C1148.97 227.322 1149.24 226.824 1149.58 226.729C1150.02 226.607 1150.57 226.966 1150.69 227.493C1150.78 227.844 1150.5 228.343 1150.13 228.444L1150.14 228.443Z" fill="black"/>
<path d="M1147.55 207.145C1147.6 207.683 1147.17 208.188 1146.67 208.155C1146.27 208.127 1145.93 207.827 1145.83 207.398C1145.73 206.948 1146.13 206.236 1146.52 206.174C1146.91 206.113 1147.5 206.676 1147.54 207.135L1147.55 207.145Z" fill="black"/>
<path d="M1143.33 204.952C1143.33 205.427 1142.86 205.766 1142.52 205.537C1142.27 205.374 1142.04 205.157 1141.84 204.925C1141.62 204.648 1141.66 204.276 1141.89 204.109C1142.14 203.926 1142.43 203.81 1142.74 203.973C1143.12 204.185 1143.37 204.49 1143.33 204.942L1143.33 204.952Z" fill="black"/>
<path d="M1142.85 198.435C1142.95 198.744 1142.64 199.249 1142.26 199.37C1141.72 199.549 1141.31 199.34 1141.07 198.77C1140.93 198.409 1141.09 197.866 1141.4 197.737C1141.94 197.508 1142.68 197.865 1142.85 198.435Z" fill="black"/>
<path d="M1156.73 208.191C1156.82 208.206 1156.93 208.209 1157.02 208.246C1157.56 208.463 1157.71 208.936 1157.73 209.449C1157.73 209.59 1157.53 209.804 1157.38 209.869C1156.81 210.102 1156.14 209.672 1156.05 209.058C1156 208.702 1156.38 208.226 1156.73 208.191Z" fill="black"/>
<path d="M1156.19 220.074C1156.11 220.259 1156.05 220.602 1155.85 220.755C1155.48 221.037 1154.88 220.668 1154.7 220.058C1154.66 219.904 1154.76 219.603 1154.89 219.522C1155.39 219.21 1155.98 219.439 1156.2 220.072L1156.19 220.074Z" fill="black"/>
<path d="M1138.65 201.608C1139.13 201.45 1139.64 201.744 1139.72 202.116C1139.76 202.362 1139.53 202.753 1139.26 202.846C1138.91 202.984 1138.33 202.682 1138.35 202.304C1138.36 202.04 1138.57 201.783 1138.65 201.598L1138.65 201.608Z" fill="black"/>
<path d="M1148.1 198.317C1148 198.181 1147.78 197.994 1147.69 197.765C1147.6 197.516 1147.95 197.166 1148.23 197.132C1148.51 197.108 1148.75 197.363 1148.76 197.705C1148.78 198.057 1148.55 198.326 1148.1 198.317Z" fill="black"/>
<path d="M1146.41 224.541C1146.47 224.876 1146.21 225.212 1145.89 225.13C1145.73 225.095 1145.54 224.932 1145.5 224.778C1145.4 224.46 1145.71 224.107 1146.01 224.179C1146.17 224.215 1146.28 224.41 1146.41 224.531L1146.41 224.541Z" fill="black"/>
<path d="M1141.15 191.122C1141.26 191.47 1141.07 191.804 1140.77 191.761C1140.6 191.737 1140.41 191.615 1140.32 191.488C1140.17 191.259 1140.44 190.831 1140.74 190.843C1140.88 190.851 1141.01 191.023 1141.15 191.122Z" fill="black"/>
<path d="M1134.22 193.15C1134.07 193.246 1133.91 193.432 1133.75 193.427C1133.52 193.424 1133.39 193.182 1133.51 192.98C1133.59 192.836 1133.81 192.76 1133.96 192.664C1134.05 192.823 1134.14 192.991 1134.21 193.151L1134.22 193.15Z" fill="black"/>
<path d="M1141.34 215.102C1141.29 215.282 1141.29 215.506 1141.17 215.625C1140.98 215.828 1140.57 215.619 1140.53 215.292C1140.5 215.114 1140.57 214.891 1140.68 214.742C1140.82 214.548 1141.24 214.784 1141.34 215.102Z" fill="black"/>
<path d="M1156.36 226.203C1156.37 226.292 1156.43 226.395 1156.4 226.47C1156.37 226.545 1156.27 226.602 1156.21 226.663C1156.14 226.513 1156.03 226.367 1155.99 226.212C1155.98 226.163 1156.1 226.073 1156.16 226.013C1156.23 226.073 1156.29 226.144 1156.36 226.203Z" fill="black"/>
<path d="M1159.14 222.874C1159.06 222.937 1158.98 223.052 1158.9 223.043C1158.66 223.012 1158.56 222.845 1158.64 222.609C1158.68 222.522 1158.77 222.467 1158.84 222.405C1158.94 222.562 1159.03 222.719 1159.13 222.875L1159.14 222.874Z" fill="black"/>
<path d="M1137.55 212.527C1137.67 212.609 1137.8 212.7 1137.91 212.783C1137.85 212.853 1137.78 212.976 1137.72 212.976C1137.55 212.963 1137.38 212.899 1137.21 212.855C1137.32 212.746 1137.44 212.637 1137.55 212.527Z" fill="black"/>
<path d="M1145.33 218.03C1145.29 218.108 1145.23 218.269 1145.19 218.265C1145.01 218.243 1144.84 218.169 1144.67 218.115C1144.83 218.02 1144.97 217.905 1145.13 217.839C1145.17 217.833 1145.26 217.96 1145.33 218.03Z" fill="black"/>
<path d="M1148.05 214.336C1147.99 214.395 1147.91 214.509 1147.88 214.504C1147.63 214.422 1147.63 214.29 1147.87 214.192C1147.9 214.187 1147.99 214.294 1148.05 214.346L1148.05 214.336Z" fill="black"/>
<path d="M1137.73 195.193C1137.8 195.252 1137.92 195.324 1137.92 195.355C1137.84 195.621 1137.71 195.632 1137.58 195.389C1137.56 195.361 1137.68 195.261 1137.73 195.193Z" fill="black"/>
</g>
<g clip-path="url(#clip6_448_1387)">
<path d="M1165.01 58.2529C1166.89 58.3046 1168.46 56.8219 1168.52 54.9336C1168.56 53.6987 1167.92 52.5473 1166.85 51.9112C1168.47 50.8623 1168.93 48.704 1167.88 47.0869C1167.38 46.3091 1166.6 45.7702 1165.7 45.5728C1163.44 44.8152 1159.43 46.0877 1156.31 47.158C1153.63 42.9969 1148.46 41.2221 1143.8 42.8627C1142.51 43.3623 1141.33 44.1034 1140.32 45.045C1138.79 42.2213 1136.28 40.0544 1133.25 38.9568C1130.04 38.4152 1127.72 42.259 1130.42 45.4889C1128.41 45.8988 1126.83 46.0215 1126.01 47.256C1125.23 48.6688 1125.72 50.4498 1127.11 51.2586C1125.81 54.5245 1129.47 58.1591 1135.58 55.5505C1137.52 54.7326 1137.04 54.4453 1137.29 55.3075C1137.95 57.1774 1139.27 58.7255 1141.01 59.6504C1145.03 61.5712 1149.78 61.0228 1153.26 58.2438C1155.67 60.9099 1158.76 62.882 1162.19 63.9652C1164.09 64.0768 1165.72 62.63 1165.84 60.7279C1165.89 59.8172 1165.58 58.9328 1164.99 58.2512L1165.01 58.2529ZM1129.81 52.0944C1130.58 52.0759 1131.18 51.43 1131.16 50.6618C1131.14 50.0547 1130.73 49.5306 1130.15 49.3704C1126.74 48.7691 1129.18 48.5934 1133.72 47.6476C1134.46 47.4388 1134.9 46.6646 1134.68 45.9172C1134.59 45.583 1134.37 45.3021 1134.08 45.1139C1133.16 44.4261 1131.94 43.5535 1132.02 42.4026C1132.18 40.1368 1136.73 43.6225 1138.46 47.408C1137.71 48.6698 1137.2 50.0581 1137 51.5093C1133.36 54.3435 1128.78 54.0889 1129.8 52.0892L1129.81 52.0944ZM1161.23 60.8387C1159.05 59.599 1157.05 58.0847 1155.25 56.3487C1156.77 54.5163 1157.48 52.1432 1157.2 49.777C1159.13 49.0877 1165.6 46.9553 1165.71 49.0131C1165.77 50.1569 1163.54 50.0252 1162.88 50.0246C1161.17 49.9949 1160.37 52.6254 1164.28 53.9015C1164.69 54.0311 1165.73 54.2129 1165.83 54.6192C1165.92 55.0254 1165.27 55.4296 1164.85 55.5143C1163.77 55.487 1162.73 55.1218 1161.87 54.4647C1161.19 54.0954 1160.33 54.3404 1159.96 55.0167C1159.75 55.4218 1159.73 55.9141 1159.94 56.3202C1160.71 58.1402 1162.12 58.726 1162.76 59.8774C1163.57 61.2617 1162.64 61.5995 1161.23 60.8301L1161.23 60.8387Z" fill="#E7BB43"/>
</g>
<g clip-path="url(#clip7_448_1387)">
<path d="M818.3 77.2762C832.068 73.458 840.134 59.2016 836.316 45.4336C832.497 31.6657 818.241 23.5998 804.473 27.418C790.705 31.2363 782.639 45.4927 786.457 59.2606C790.276 73.0286 804.532 81.0945 818.3 77.2762Z" fill="#DB433B"/>
<path d="M830.805 78.4367C835.544 84.4489 856.258 73.3391 847.57 66.5956C840.015 60.7937 827.017 73.6448 830.805 78.4367Z" fill="black"/>
<path d="M819.605 69.6711C823.281 76.1544 825.237 83.4678 825.301 90.9217C800.662 71.9772 796.291 104.073 824.898 97.9242C820.534 111.639 822.544 110.729 823.54 111.325C826.909 113.109 836.68 87.6832 823.378 67.1097C836.332 58.5152 830.242 30.8672 812.386 31.0663C798.019 31.2006 785.228 49.7017 794.572 62.438C801.657 72.7185 811.211 74.0537 819.605 69.6711ZM798.9 60.646C801.992 49.9405 810.656 57.3857 817.186 65.8487C812.031 68.5545 804.576 68.4636 798.919 60.6407L798.9 60.646ZM824.057 43.5515C827.702 50.0332 826.398 58.1674 820.922 63.1936C813.115 56.9323 813.305 41.7907 824.057 43.5515ZM820.578 38.8293C814.394 40.2538 810.207 45.9603 810.774 53.1709C805.234 50.1827 800.699 49.0953 796.366 54.9875C793.462 42.1983 810.822 29.5075 820.584 38.8486L820.578 38.8293Z" fill="black"/>
<path d="M812.402 31.0514C798.019 31.2006 785.228 49.7017 794.572 62.438C800.755 71.412 808.811 73.5571 816.336 71.0551C816.336 71.0551 823.235 68.1663 825.185 65.654C835.675 55.7711 829.342 30.8781 812.393 31.054L812.402 31.0514ZM820.569 38.832C814.397 40.2634 810.219 45.9673 810.774 53.1709C805.244 50.1801 800.699 49.0953 796.366 54.9875C793.475 42.2053 810.803 29.5128 820.569 38.832ZM798.919 60.6407L798.9 60.6461C801.992 49.9405 810.657 57.3857 817.186 65.8487C812.024 68.5669 804.576 68.4636 798.919 60.6407ZM820.922 63.1936C813.112 56.9227 813.296 41.7934 824.057 43.5515C827.702 50.0332 826.398 58.1674 820.922 63.1936Z" fill="black"/>
<path d="M812.931 41.1888C812.627 41.1796 812.403 41.2314 812.217 41.1585C811.469 40.8574 811.035 40.3032 811.002 39.4718C810.968 38.7133 811.886 38.0955 812.552 38.4399C813.29 38.8165 813.733 39.7417 813.488 40.5777C813.414 40.8368 813.091 41.0197 812.933 41.1984L812.931 41.1888Z" fill="black"/>
<path d="M804.378 56.0755C804.489 56.8126 804.024 57.6057 803.293 57.7772C803.053 57.844 802.646 57.687 802.466 57.4878C801.846 56.7879 802.073 55.7704 802.88 55.3495C803.43 55.0516 804.283 55.4689 804.369 56.0781L804.378 56.0755Z" fill="black"/>
<path d="M804.503 45.8609C804.399 46.0867 804.332 46.4063 804.133 46.586C803.927 46.7781 803.602 46.8786 803.313 46.9588C802.85 47.0871 802.445 46.8985 802.289 46.558C802.098 46.1334 802.232 45.7539 802.498 45.4414C802.905 44.9652 803.637 44.9077 804.139 45.2976C804.285 45.4127 804.354 45.6221 804.49 45.8539L804.503 45.8609Z" fill="black"/>
<path d="M815.061 46.0251C814.985 46.2018 814.903 46.5047 814.75 46.7755C814.544 47.1544 814.039 47.2425 813.645 47.0196C813.276 46.8107 813.087 46.3546 813.197 45.9296C813.305 45.495 813.502 45.1188 813.957 45.0028C814.41 44.8772 815.053 45.4358 815.051 46.0278L815.061 46.0251Z" fill="black"/>
<path d="M801.475 48.413C801.644 48.5737 801.971 48.7424 802.01 48.9598C802.15 49.7617 801.761 50.3054 800.955 50.5807C800.671 50.6802 800.238 50.5408 800.169 50.2903C800.118 50.1072 800.058 49.854 800.147 49.7255C800.425 49.306 800.765 48.9212 801.092 48.5295C801.146 48.4627 801.285 48.4761 801.477 48.4227L801.475 48.413Z" fill="black"/>
<path d="M808.505 48.0926C808.669 48.5348 808.382 49.1851 807.931 49.3931C807.627 49.5295 807.041 49.2873 806.88 48.9687C806.583 48.3868 806.916 47.6407 807.524 47.5136C807.899 47.4409 808.359 47.7179 808.505 48.0926Z" fill="black"/>
<path d="M798.938 52.9976C799.206 52.9544 799.545 53.2029 799.61 53.4754C799.718 53.9021 799.601 54.2666 799.276 54.5539C799.01 54.7936 798.366 54.827 798.171 54.5384C798.03 54.3285 797.97 53.9613 798.046 53.7119C798.167 53.3255 798.483 53.0408 798.938 52.9976Z" fill="black"/>
<path d="M812.502 50.1594C812.622 50.6659 812.281 51.1962 811.755 51.28C811.346 51.3414 810.887 51.0329 810.849 50.6699C810.801 50.1229 811.123 49.6391 811.605 49.5055C811.933 49.4146 812.396 49.774 812.493 50.1621L812.502 50.1594Z" fill="black"/>
<path d="M809.449 54.0777C809.794 54.0131 810.229 54.3077 810.367 54.6948C810.508 55.0915 810.267 55.6047 809.921 55.6694C809.595 55.7286 809.102 55.4089 808.986 55.0673C808.868 54.7161 809.135 54.144 809.449 54.0777Z" fill="black"/>
<path d="M808.188 38.0833C808.044 37.9365 807.751 37.779 807.675 37.5408C807.554 37.18 808.023 36.6658 808.375 36.7344C808.54 36.7714 808.746 36.953 808.814 37.1211C808.973 37.544 808.691 38.0267 808.188 38.0833Z" fill="black"/>
<path d="M799.92 43.2925C799.8 43.4605 799.691 43.7399 799.477 43.903C799.239 44.0935 798.802 43.9033 798.755 43.5842C798.712 43.316 798.759 42.9606 798.911 42.7626C799.121 42.5074 799.776 42.8133 799.922 43.3021L799.92 43.2925Z" fill="black"/>
<path d="M795.234 52.1051C795.037 52.0665 794.816 52.0551 794.637 51.9699C794.352 51.8414 794.274 51.4479 794.424 51.1675C794.568 50.8993 794.937 50.8074 795.24 51.0035C795.403 51.1036 795.543 51.2723 795.652 51.4394C795.821 51.714 795.574 52.094 795.237 52.1147L795.234 52.1051Z" fill="black"/>
<path d="M815.881 53.6225C815.585 53.6422 815.318 53.353 815.339 53.0153C815.359 52.6775 815.661 52.4175 815.965 52.5407C816.139 52.6066 816.301 52.7796 816.388 52.9424C816.511 53.1988 816.174 53.5932 815.878 53.6129L815.881 53.6225Z" fill="black"/>
<path d="M805.533 51.895C805.432 52.0164 805.354 52.2246 805.236 52.2471C804.917 52.294 804.69 52.0354 804.743 51.7405C804.753 51.665 804.831 51.5708 804.9 51.5205C805.114 51.3574 805.474 51.5689 805.523 51.8976L805.533 51.895Z" fill="black"/>
<path d="M807.276 59.7138C807.061 59.877 806.886 59.8427 806.723 59.6285C806.372 59.1862 806.407 58.9378 806.842 58.5992C807.056 58.436 807.236 58.4484 807.399 58.6626C807.726 59.0909 807.692 59.3805 807.283 59.7015L807.276 59.7138Z" fill="black"/>
<path d="M810.976 60.4102C811.046 60.4011 811.15 60.3621 811.189 60.3926C811.244 60.4397 811.293 60.5404 811.282 60.6159C811.275 60.701 811.202 60.7732 811.162 60.8567C811.093 60.793 811.004 60.7346 810.973 60.6602C810.945 60.5954 810.978 60.4926 810.979 60.4198L810.976 60.4102Z" fill="black"/>
<path d="M804.578 63.1183C804.489 63.06 804.331 62.9791 804.337 62.9255C804.372 62.6772 804.546 62.5563 804.797 62.6008C804.895 62.6153 804.972 62.7079 805.061 62.7663C804.897 62.8845 804.742 63.0001 804.578 63.1183Z" fill="black"/>
<path d="M816.788 42.0388C816.921 42.1058 817.056 42.1824 817.179 42.2521C817.128 42.3286 817.071 42.4586 817.01 42.465C816.836 42.4719 816.657 42.4279 816.485 42.4032C816.586 42.2818 816.687 42.1603 816.788 42.0388Z" fill="black"/>
<path d="M809.841 44.0793L809.962 44.2533L809.771 44.2751L809.841 44.0793Z" fill="black"/>
</g>
<g clip-path="url(#clip8_448_1387)">
<path d="M847.27 178.25C851.58 185.53 838.42 191.36 835.74 182.62C832.97 190.53 820.94 181.68 826.94 176.68C819.73 176.7 821.79 164.45 828.56 166.75C822.36 157.66 839.68 150.29 839.68 162.16C843.51 152.84 857.43 162.35 848.87 168.45C849.98 168.56 851.02 169.08 851.76 169.92C854.04 172.65 852.09 180.63 847.27 178.25Z" fill="#5FBFFA"/>
<path d="M822.2 180.17C815.31 185.91 829.13 196.08 832.31 186.98C835.39 197.03 850.51 190.33 845.56 181.96C851.1 184.68 853.34 175.51 850.73 172.39C849.88 171.42 848.69 170.82 847.41 170.7C857.24 163.68 841.25 152.76 836.85 163.47C836.85 149.84 816.94 158.3 824.06 168.75C816.29 166.11 813.91 180.18 822.2 180.17ZM821.01 173.42C821.92 170.2 825.75 173.7 827.73 171.7C830.1 169.31 822.65 162.7 829.27 160.45C835.89 158.2 830.95 167.74 835.15 169.05C839.86 170.5 840.09 159.34 845.35 163.52C850.27 167.43 840.18 168.52 841.78 172.38C843.38 176.24 849.77 171.81 847.94 177.5C846.83 180.84 841.78 174.61 840.08 177.84C838.38 181.07 845.22 184.61 841.62 187.29C838.36 189.74 836.42 187.29 835.11 184.38C830.71 174.38 828.96 194.8 823.92 183.87C823.07 182.09 828.54 181.31 827.75 178.55C826.69 174.58 819.43 178.95 821.01 173.41V173.42Z" fill="black"/>
</g>
<g clip-path="url(#clip9_448_1387)">
<path d="M790.45 150.93C792.96 155.17 785.31 158.55 783.75 153.47C782.14 158.07 775.16 152.93 778.63 150.02C774.44 150.02 775.65 142.9 779.58 144.24C775.96 138.97 786.04 134.68 786.04 141.58C788.27 136.16 796.36 141.69 791.38 145.24C792.03 145.3 792.63 145.61 793.06 146.1C794.38 147.68 793.25 152.32 790.45 150.94V150.93Z" fill="black"/>
</g>
</g>
<defs>
<clipPath id="clip0_448_1387">
<rect width="1200" height="630" fill="white"/>
</clipPath>
<clipPath id="clip1_448_1387">
<rect width="44" height="46" fill="white" transform="translate(782 454)"/>
</clipPath>
<clipPath id="clip2_448_1387">
<rect width="27.5488" height="28.801" fill="white" transform="translate(844 471.625) rotate(-68.4586)"/>
</clipPath>
<clipPath id="clip3_448_1387">
<rect width="290.227" height="104.628" fill="white" transform="translate(837 501)"/>
</clipPath>
<clipPath id="clip4_448_1387">
<rect width="185.59" height="139.13" fill="white" transform="matrix(-0.833634 -0.552317 -0.552317 0.833634 815.558 621.504)"/>
</clipPath>
<clipPath id="clip5_448_1387">
<rect width="56.18" height="138.92" fill="white" transform="translate(1103.98 102.736) rotate(-9.06899)"/>
</clipPath>
<clipPath id="clip6_448_1387">
<rect width="41.73" height="27.85" fill="white" transform="translate(1137.1 28.2676) rotate(30.8661)"/>
</clipPath>
<clipPath id="clip7_448_1387">
<rect width="58.11" height="86.16" fill="white" transform="translate(779.544 34.3315) rotate(-15.5001)"/>
</clipPath>
<clipPath id="clip8_448_1387">
<rect width="35.71" height="36.03" fill="white" transform="translate(817 156)"/>
</clipPath>
<clipPath id="clip9_448_1387">
<rect width="17.61" height="18.03" fill="white" transform="translate(776 138)"/>
</clipPath>
</defs>
</svg>
