<svg width="1200" height="675" viewBox="0 0 1200 675" fill="none" xmlns="http://www.w3.org/2000/svg">
<g clip-path="url(#clip0_448_393)">
<g clip-path="url(#clip1_448_393)">
<path d="M813.293 474.354C812.854 472.549 822.14 465.747 820.958 464.771C819.956 463.943 811.988 470.732 810.12 469.355C808.595 468.393 811.109 455.296 810.01 455.189C808.911 455.082 806.727 467.538 804.543 468.059C801.699 468.807 791.08 453.479 790.215 454.013C789.116 454.655 798.526 469.877 797.331 471.574C795.586 474.126 782.124 470.825 782.014 472.429C782.014 473.391 795.888 476.479 796.135 478.176C796.52 480.849 786.368 489.789 787.055 490.738C787.907 491.928 798.196 481.303 800.628 482.546C802.798 483.655 797.784 500.013 799.968 500.013C801.507 500.013 805.106 483.401 806.644 483.294C809.048 482.974 820.121 498.757 821.302 498.196C822.181 497.781 811.342 482.011 812.991 479.566C813.87 478.176 825.684 479.887 826.014 478.604C826.234 477.321 813.65 475.944 813.321 474.354H813.293Z" fill="#64A03D"/>
</g>
<g clip-path="url(#clip2_448_393)">
<path d="M863.048 458.079C861.896 457.92 860.069 450.948 859.229 451.412C858.516 451.806 860.638 458.006 859.407 458.778C858.496 459.445 851.447 454.97 851.132 455.585C850.817 456.201 857.569 460.336 857.37 461.728C857.152 463.556 845.784 466.216 845.896 466.843C846.017 467.631 857.045 465.65 857.759 466.736C858.845 468.339 853.827 475.42 854.736 475.853C855.296 476.074 860.284 468.704 861.329 468.95C862.974 469.34 865.847 477.308 866.558 477.126C867.446 476.904 863.624 468.469 864.907 467.339C866.052 466.33 874.426 473.01 874.928 471.738C875.282 470.842 866.435 464.927 866.726 464.007C867.092 462.533 878.829 459.713 878.774 458.896C878.735 458.289 867.059 460.976 866.014 459.453C865.406 458.622 869.118 452.135 868.447 451.648C867.75 451.225 864.056 458.237 863.054 458.063L863.048 458.079Z" fill="black"/>
</g>
<g clip-path="url(#clip3_448_393)">
<path d="M884.238 517.411C884.238 523.059 877.63 531.139 871.021 535.431C870.794 535.6 870.683 535.711 870.683 535.826C870.683 535.942 870.852 535.938 871.19 535.938C871.359 535.938 874.014 535.769 875.54 535.769C876.389 535.769 877.176 535.769 877.856 535.826C878.479 535.884 878.986 536.334 879.097 536.898C879.378 538.086 879.72 540.287 879.946 541.981C879.946 542.546 879.551 542.942 878.928 543C875.37 543.226 864.017 543.903 860.402 544.072C859.779 544.072 859.103 543.845 858.819 543.28C858.254 542.039 857.293 538.535 857.293 538.082C857.293 537.575 857.578 537.064 857.969 536.783C868.816 530.059 876.327 519.44 876.442 515.544C876.385 513.849 875.086 513.227 873.845 513.227C871.866 513.227 868.762 515.317 866.445 518.99C866.276 519.271 865.992 519.444 865.654 519.444C865.316 519.444 864.978 519.217 864.978 519.217C863.679 518.372 862.154 517.127 861.304 516.166C861.024 515.886 860.851 515.49 860.851 515.037C860.851 514.868 860.909 514.583 860.962 514.414C862.034 511.759 866.272 505.996 871.809 505.996C876.95 505.996 884.238 511.59 884.238 517.407V517.411Z" fill="black"/>
<path d="M886.724 538.539C885.368 536.28 884.972 532.833 884.972 529.952C884.972 522.494 888.983 506.227 899.545 506.227C901.804 506.227 908.075 508.712 910.222 512.385C911.463 514.533 911.917 517.242 911.917 519.843C911.917 528.261 907.625 544.133 897.228 544.133C895.027 544.133 889.206 542.154 886.72 538.539H886.724ZM892.994 531.193C892.994 535.657 894.52 536.956 896.045 536.956C900.225 536.956 903.729 526.052 903.729 518.145C903.729 514.249 902.488 513.173 901.132 513.173C897.063 513.173 892.998 523.397 892.998 531.193H892.994Z" fill="black"/>
<path d="M937.79 517.411C937.79 523.059 931.181 531.139 924.573 535.431C924.346 535.6 924.235 535.711 924.235 535.826C924.235 535.942 924.404 535.938 924.742 535.938C924.911 535.938 927.566 535.769 929.091 535.769C929.94 535.769 930.728 535.769 931.408 535.826C932.03 535.884 932.538 536.334 932.649 536.898C932.929 538.086 933.271 540.287 933.498 541.981C933.498 542.546 933.102 542.942 932.48 543C928.922 543.226 917.569 543.903 913.953 544.072C913.331 544.072 912.654 543.845 912.37 543.28C911.805 542.039 910.845 538.535 910.845 538.082C910.845 537.575 911.129 537.064 911.521 536.783C922.367 530.059 929.879 519.44 929.994 515.544C929.936 513.849 928.638 513.227 927.397 513.227C925.418 513.227 922.314 515.317 919.997 518.99C919.828 519.271 919.543 519.444 919.205 519.444C918.867 519.444 918.529 519.217 918.529 519.217C917.23 518.372 915.705 517.127 914.856 516.166C914.576 515.886 914.403 515.49 914.403 515.037C914.403 514.868 914.46 514.583 914.514 514.414C915.586 511.759 919.824 505.996 925.36 505.996C930.501 505.996 937.79 511.59 937.79 517.407V517.411Z" fill="black"/>
<path d="M960.95 527.408C961.626 527.408 961.911 527.862 962.022 528.426C962.249 529.725 962.529 532.211 962.529 533.736C962.529 534.243 962.191 534.754 961.569 534.754C961.288 534.754 959.083 534.812 958.802 534.812C958.126 534.812 957.784 535.319 957.673 535.884C957.335 538.312 956.939 540.74 956.655 543.115C956.597 543.68 956.201 544.018 955.694 544.018C954.733 544.018 951.345 543 950.215 542.55C949.539 542.323 949.197 541.701 949.197 541.136C949.255 539.837 949.593 536.391 949.593 536.164C949.593 535.711 949.255 535.431 948.859 535.431C947.56 535.431 939.991 536.164 939.538 536.164C938.862 536.164 938.351 535.884 938.124 535.373C937.559 534.243 936.318 530.739 936.318 529.894C936.318 529.387 936.487 528.822 936.772 528.48C940.84 523.059 949.593 510.461 952.248 507.014C952.528 506.676 952.87 506.449 953.32 506.449C953.827 506.449 954.903 507.183 955.298 507.183C955.525 507.183 955.694 507.072 955.805 506.845C955.974 506.507 956.37 506.223 956.824 506.223C957.5 506.223 961.342 507.295 962.81 507.806C963.263 507.975 963.432 508.37 963.432 508.766C963.432 508.878 963.374 509.162 963.374 509.162C962.356 512.213 960.777 518.483 959.306 526.221C959.306 526.221 959.248 526.559 959.248 526.728C959.248 527.066 959.475 527.404 959.87 527.404H960.942L960.95 527.408ZM945.363 527.973C945.363 528.142 945.532 528.311 945.816 528.311C945.927 528.311 948.528 528.031 949.885 527.915C950.449 527.858 950.788 527.577 950.903 527.012C951.525 523.508 952.655 518.03 952.655 517.634C952.655 517.465 952.655 517.353 952.597 517.353C952.486 517.353 952.317 517.58 952.317 517.58C951.641 518.483 946.104 526.732 945.539 527.577C945.428 527.746 945.37 527.858 945.37 527.973H945.363Z" fill="black"/>
<path d="M956.359 643.398C954.722 642.495 951.725 639.556 950.088 637.862C949.693 637.466 949.524 636.959 949.524 636.448C949.524 632.21 952.463 617.863 953.873 612.892C953.93 612.665 953.93 612.384 953.93 612.158C953.93 610.971 953.704 609.107 953.704 608.769C953.704 608.316 953.93 607.924 954.38 607.751C957.542 606.395 961.384 605.492 963.812 605.492C972.511 605.492 979.461 614.87 979.461 621.986C979.461 633.113 969.745 642.945 958.449 643.732C957.715 643.732 956.981 643.675 956.359 643.394V643.398ZM971.666 619.504C971.666 615.266 968.108 612.726 964.266 612.726C963.87 612.726 963.532 612.726 963.136 612.784C962.46 612.895 962.118 613.18 962.007 613.745C960.65 619.281 958.845 627.134 957.715 634.588C957.715 634.588 957.657 634.926 957.657 635.041C957.657 635.495 957.938 635.664 958.449 635.664C962.687 635.664 971.666 630.185 971.666 619.508V619.504Z" fill="black"/>
<path d="M1009.23 609.223V610.636C1009.23 620.296 1006.01 643.794 994.092 643.794C989.405 643.794 984.714 640.632 983.077 638.315C981.836 636.563 981.271 633.682 981.271 631.027C981.271 621.763 984.829 610.41 986.639 607.017C986.977 606.452 987.372 606.114 988.106 606.114C989.178 606.114 992.175 607.075 993.585 607.582C994.038 607.751 994.261 608.258 994.261 608.712C994.261 608.996 994.15 609.334 994.15 609.334C991.891 615.435 989.347 626.055 989.347 631.365C989.347 634.304 989.912 636.336 992.171 636.336C995.391 636.336 997.201 631.534 998.668 625.659C1000.36 618.935 1001.38 610.237 1001.66 607.301C1001.72 606.737 1002.11 606.399 1002.62 606.399C1003.47 606.399 1006.86 607.248 1008.22 607.755C1008.89 608.035 1009.18 608.658 1009.23 609.223H1009.23Z" fill="black"/>
<path d="M1028.16 630.009C1028.16 630.289 1028.33 630.516 1028.33 630.516C1030.25 633.509 1032.51 636.729 1034.37 638.369C1034.6 638.596 1034.71 638.876 1034.71 639.161C1034.71 639.387 1034.6 639.614 1034.43 639.837C1033.19 641.024 1030.81 642.776 1029.17 643.51C1029.17 643.51 1028.95 643.621 1028.61 643.621C1028.1 643.621 1027.65 643.395 1027.37 643.168C1024.26 640.513 1021.77 634.865 1020.81 631.53C1020.59 630.965 1020.36 630.57 1019.91 630.57H1019.24C1018.67 630.57 1018.44 630.85 1018.39 631.419C1017.71 635.203 1017.14 639.099 1016.75 642.772C1016.64 643.337 1016.24 643.675 1015.73 643.675C1014.54 643.675 1010.42 642.377 1010.03 642.207C1009.18 641.869 1009.07 641.358 1009.01 640.794C1009.12 634.354 1011.77 620.626 1013.92 612.323C1014.03 611.87 1014.03 611.647 1014.03 611.42C1014.03 610.46 1013.75 609.273 1013.75 608.823C1013.75 608.316 1014.15 607.863 1014.54 607.694C1016.75 606.791 1020.53 605.661 1025.22 605.661C1032.51 605.661 1038.33 613.345 1038.33 618.202C1038.33 623.058 1034.2 627.411 1028.78 629.329C1028.38 629.498 1028.16 629.667 1028.16 630.005V630.009ZM1022.11 613.741C1021.89 614.533 1019.85 623.004 1019.85 623.569C1019.85 623.965 1020.08 624.134 1020.48 624.134C1025.73 624.134 1029.91 620.238 1029.91 616.846C1029.91 613.906 1027.53 612.665 1024.77 612.665C1024.31 612.665 1023.86 612.665 1023.41 612.723C1022.68 612.781 1022.28 613.176 1022.11 613.741Z" fill="black"/>
<path d="M1063.12 605.888C1064.03 605.888 1067.87 606.96 1069.28 607.471C1069.68 607.64 1069.96 608.035 1069.96 608.489C1069.96 608.658 1069.9 608.827 1069.9 608.827C1068.1 613.968 1064.53 629.39 1063.01 642.776C1062.95 643.341 1062.56 643.625 1062.11 643.625C1060.98 643.625 1056.96 642.438 1056.34 642.211C1055.61 641.931 1055.38 641.42 1055.32 640.743C1055.32 638.258 1056.12 632.89 1056.12 632.552C1056.12 632.099 1055.78 631.761 1055.21 631.761C1053.29 631.872 1050.81 631.93 1048.66 631.987C1048.04 631.987 1047.64 632.494 1047.53 633.005C1046.96 636.283 1046.46 639.56 1046.11 642.78C1046.06 643.345 1045.61 643.629 1045.15 643.629C1043.97 643.629 1040.07 642.499 1039.39 642.215C1038.83 641.988 1038.49 641.424 1038.43 640.747C1038.54 637.923 1039.28 632.387 1039.28 632.16C1039.28 631.822 1039.17 631.653 1039 631.484C1038.88 631.315 1038.71 631.146 1038.6 630.808C1038.37 629.962 1038.2 628.437 1038.15 627.304C1038.15 626.57 1038.32 626.286 1039.33 626.005C1040.12 625.778 1040.46 625.383 1040.57 624.875C1041.93 617.191 1043.85 609.568 1045.03 606.687C1045.26 606.233 1045.66 605.953 1046.16 605.953C1047.18 605.953 1051.08 606.971 1052.38 607.478C1052.77 607.59 1053.05 608.101 1053.05 608.55C1053.05 608.719 1052.94 609.057 1052.94 609.057C1051.92 611.77 1050.63 616.965 1049.22 623.631C1049.22 623.631 1049.16 623.911 1049.16 624.084C1049.16 624.48 1049.5 624.818 1049.95 624.818C1050.18 624.818 1055.32 624.649 1056.45 624.649C1057.01 624.649 1057.52 624.253 1057.63 623.688C1059.05 616.457 1060.8 609.453 1061.98 606.687C1062.15 606.233 1062.61 605.895 1063.11 605.895L1063.12 605.888Z" fill="black"/>
<path d="M1068.94 633.851C1068.94 633.174 1067.98 630.8 1067.98 629.782C1067.98 629.217 1068.26 628.821 1068.88 628.71C1069.51 628.598 1070.24 628.429 1070.24 628.429C1071.03 628.26 1071.26 627.976 1071.6 627.3C1074.59 621.368 1079.45 610.014 1081.99 607.021C1082.33 606.625 1082.72 606.514 1083.12 606.514C1083.68 606.514 1084.7 606.91 1085.04 606.91C1085.49 606.91 1085.94 606.629 1086 606.176C1086.06 605.78 1086.28 605.442 1086.73 605.442C1087.53 605.442 1091.54 606.856 1092.44 607.305C1093.06 607.59 1093.46 608.154 1093.57 608.831C1094.19 612.05 1094.47 621.598 1094.47 630.07C1094.47 635.437 1094.3 640.294 1094.02 642.837C1093.96 643.291 1093.56 643.686 1092.89 643.686C1091.93 643.686 1087.92 643.064 1086.9 642.726C1086.34 642.557 1086 642.05 1086 641.258C1086 639.96 1086.17 635.837 1086.17 634.93C1086.17 634.423 1085.83 634.081 1085.27 634.081C1082.72 634.081 1078.66 634.308 1077.98 634.365C1077.3 634.423 1077.02 634.704 1076.68 635.384C1075.61 637.754 1074.65 640.805 1073.8 642.784C1073.57 643.237 1073.17 643.46 1072.78 643.46C1071.88 643.46 1068.54 641.877 1067.64 641.258C1067.24 640.978 1066.96 640.636 1066.96 640.129C1066.96 639.844 1067.02 639.675 1067.02 639.675L1068.83 634.534C1068.94 634.254 1068.94 634.081 1068.94 633.858L1068.94 633.851ZM1080.01 626.846C1080.01 627.184 1080.24 627.3 1080.81 627.3C1082.22 627.3 1084.53 627.242 1085.27 627.242C1085.89 627.242 1086.23 626.962 1086.34 626.17C1086.4 624.929 1086.4 623.627 1086.4 622.328C1086.4 619.22 1086.28 616.227 1086.23 614.421C1086.23 614.083 1086.12 613.914 1086 613.914C1085.88 613.914 1085.77 614.025 1085.66 614.252C1084.25 617.303 1082.27 621.763 1080.13 626.508C1080.13 626.508 1080.01 626.735 1080.01 626.846Z" fill="black"/>
<path d="M1104.25 643.679C1103.06 643.679 1099.56 642.607 1098.65 642.265C1097.92 641.981 1097.69 641.416 1097.63 640.797C1097.92 632.606 1102.21 612.043 1104.53 606.848C1104.75 606.341 1105.38 605.999 1106.05 605.999C1106.84 605.999 1112.72 607.186 1115.15 608.201C1115.77 608.481 1115.82 609.104 1115.82 609.668C1115.88 611.87 1115.88 620.288 1115.82 625.486C1115.82 625.713 1115.88 625.94 1115.99 625.94C1116.1 625.94 1116.27 625.544 1116.27 625.544C1118.64 619.612 1121.3 612.043 1124.01 606.622C1124.29 606.168 1124.74 605.83 1125.37 605.83C1127.12 605.83 1133.44 607.524 1135.31 608.374C1135.82 608.543 1136.04 608.996 1136.04 609.446C1136.04 609.615 1135.99 609.784 1135.99 609.784C1134.12 615.547 1130.79 629.951 1129.32 642.83C1129.26 643.337 1128.81 643.679 1128.3 643.679C1127.4 643.679 1123.67 642.776 1122.6 642.265C1121.92 641.927 1121.64 641.416 1121.58 640.797C1121.58 635.261 1125.08 620.292 1125.08 619.616C1125.08 619.504 1125.02 619.389 1124.97 619.389C1124.92 619.389 1124.8 619.5 1124.69 619.727C1122.48 624.756 1120.56 630.911 1117.96 637.747C1117.79 638.2 1117.29 638.596 1116.78 638.596C1115.93 638.596 1112.6 637.524 1111.13 636.844C1110.45 636.506 1110.17 635.826 1110.11 635.261C1109.49 630.854 1109.66 624.188 1109.49 619.5C1109.43 619.216 1109.38 619.105 1109.32 619.105C1109.26 619.105 1109.15 619.216 1109.09 619.443C1107.62 625.882 1106.21 634.581 1105.31 642.83C1105.2 643.337 1104.74 643.679 1104.23 643.679H1104.25Z" fill="black"/>
<path d="M822.583 541.198C823.982 541.198 829.722 542.904 830.733 543.449C831.274 543.76 831.662 544.302 831.662 544.925C831.662 545.078 831.586 545.389 831.586 545.389C828.946 552.839 823.748 574.336 821.342 593.739C821.266 594.515 820.643 594.98 819.944 594.98C818.703 594.98 814.822 593.892 813.658 593.428C812.959 593.116 812.417 592.498 812.34 591.41L812.187 588.848C812.187 588.46 812.033 588.072 811.799 588.072C811.645 588.072 811.487 588.148 811.257 588.46C808.775 592.106 805.824 595.21 803.342 595.21C797.909 595.21 791.777 588.149 791.777 581.164C791.777 568.435 798.297 555.398 808.076 555.398C809.862 555.398 812.267 556.328 814.749 557.65C814.749 557.65 815.137 557.884 815.372 557.884C815.837 557.884 816.148 557.573 816.302 556.874C817.931 550.123 819.483 545.078 820.805 542.281C821.116 541.659 821.815 541.194 822.591 541.194L822.583 541.198ZM811.952 578.685C812.805 574.651 814.281 567.355 814.281 566.732C814.281 566.191 814.046 565.722 813.428 565.491C812.34 565.103 811.334 564.869 810.711 564.869C805.667 564.869 802.873 575.5 802.873 580.856C802.873 583.108 803.415 584.66 804.114 584.66C805.743 584.66 808.694 582.566 810.946 580.468C811.568 579.926 811.875 579.227 811.956 578.681L811.952 578.685Z" fill="black"/>
<path d="M840.046 552.532C844.703 552.532 847.573 549.581 847.573 545.47C847.573 540.89 843.07 539.027 839.347 539.027C838.571 539.027 837.406 539.415 836.865 539.803C835.236 541.121 833.526 543.219 833.526 545.935C833.526 549.504 835.543 552.532 840.046 552.532Z" fill="black"/>
<path d="M865.504 591.568L865.27 588.31C865.27 587.922 865.116 587.687 864.958 587.687C864.801 587.687 864.647 587.841 864.493 588.075C861.777 592.421 858.673 595.214 856.267 595.214C850.758 595.214 844.626 588.463 844.626 581.167C844.626 568.208 850.835 555.402 861.546 555.402C865.35 555.402 873.111 558.429 878.698 562.076C879.239 562.387 879.628 563.005 879.628 563.705C879.628 563.939 879.474 564.558 879.474 564.558C876.369 575.577 875.282 587.607 875.128 593.815C875.052 594.515 874.506 595.056 873.811 595.056C871.793 595.056 867.525 593.892 866.902 593.581C865.892 593.039 865.585 592.34 865.504 591.564V591.568ZM864.805 578.685C865.658 574.651 867.133 567.355 867.133 566.732C867.133 566.191 866.899 565.722 866.28 565.491C865.193 565.103 864.186 564.869 863.564 564.869C858.519 564.869 855.726 575.5 855.726 580.856C855.726 583.107 856.267 584.66 856.967 584.66C858.596 584.66 861.546 582.566 863.798 580.468C864.42 579.926 864.728 579.227 864.808 578.681L864.805 578.685Z" fill="black"/>
<path d="M906.323 555.556C910.203 555.556 915.79 561.223 915.79 565.104C915.79 568.596 912.839 584.818 910.434 593.896C910.199 594.519 909.504 595.138 908.805 595.138C907.018 595.138 902.442 593.432 900.732 592.498C900.11 592.11 899.803 591.411 899.803 590.711C899.803 590.4 899.879 590.012 899.879 590.012C899.879 590.012 903.837 573.714 903.837 568.746C903.837 567.428 903.602 566.571 903.061 566.571C901.897 566.571 898.558 568.435 895.688 571.382C894.912 572.158 894.523 573.088 894.37 573.864C892.971 580.849 891.265 589.54 890.336 593.808C890.182 594.507 889.559 595.049 888.86 595.049C887.154 595.049 882.029 593.343 880.945 592.798C880.246 592.41 879.935 591.787 879.935 591.092C879.935 590.55 884.592 563.075 885.521 556.712C885.675 555.936 886.374 555.395 887.074 555.395C887.927 555.395 893.048 556.324 894.523 556.947C895.376 557.335 895.922 558.188 895.922 559.041C895.922 559.817 895.999 560.981 895.999 562.145C895.999 562.61 896.153 562.844 896.31 562.844C896.544 562.844 896.852 562.456 896.852 562.456C899.956 558.499 903.526 555.548 906.319 555.548L906.323 555.556Z" fill="black"/>
<path d="M934.651 555.402C938.143 555.402 946.68 558.741 951.648 561.922C952.19 562.31 952.501 563.009 952.501 563.709C952.501 564.02 952.424 564.331 952.424 564.331C950.795 571.005 948.698 583.887 946.838 593.278C945.908 598.088 942.181 609.341 930.697 609.341C927.904 609.341 922.936 607.789 920.531 606.003C919.832 605.538 919.601 604.992 919.601 604.374C919.601 603.444 920.688 599.717 921.076 598.864C921.311 598.322 921.776 598.011 922.317 598.011C922.471 598.011 922.782 598.088 922.94 598.165C925.268 599.175 927.285 599.563 928.761 599.563C935.123 599.563 937.064 592.501 937.064 589.239C937.064 588.851 936.91 588.617 936.752 588.617C936.595 588.617 936.518 588.694 936.287 589.005C933.959 592.263 931.243 594.672 928.991 594.672C923.482 594.672 917.584 588.229 917.584 580.702C917.584 567.662 924.181 555.402 934.658 555.402H934.651ZM937.755 578.685C938.608 574.651 940.083 567.355 940.083 566.732C940.083 566.191 939.849 565.722 939.231 565.491C938.143 565.103 937.137 564.869 936.514 564.869C931.469 564.869 928.676 575.5 928.676 580.856C928.676 583.107 929.218 584.66 929.917 584.66C931.546 584.66 934.497 582.566 936.748 580.468C937.371 579.926 937.678 579.227 937.755 578.681V578.685Z" fill="black"/>
<path d="M987.196 571.078C987.196 577.986 983.004 595.214 970.509 595.214C967.017 595.214 960.42 593.274 956.85 589.47C954.676 587.142 953.592 583.573 953.592 579.227C953.592 570.379 958.791 555.325 969.503 555.325C973.537 555.325 980.833 558.353 984.172 561.688C986.189 563.782 987.123 567.509 987.199 570.69V571.078H987.196ZM975.861 570.148C975.861 566.656 974.774 564.327 972.68 564.327C968.411 564.327 964.765 574.494 964.765 580.702C964.765 583.807 965.776 586.058 968.023 586.058C972.757 586.058 975.861 576.046 975.861 570.148Z" fill="black"/>
<path d="M1008.46 572.63C1008.46 572.008 1009.47 568.285 1009.47 566.809C1009.47 565.334 1009.08 564.404 1007.99 564.404C1004.58 564.404 1000.23 572.553 1000.23 578.839C1000.23 582.643 1001.94 584.971 1004.81 584.971C1007.53 584.971 1010.48 583.884 1012.65 582.643C1012.65 582.643 1012.96 582.489 1013.27 582.489C1013.81 582.489 1014.13 582.723 1014.44 583.265C1014.98 584.276 1016.45 587.457 1016.45 588.544C1016.45 589.397 1016.14 590.02 1015.68 590.485C1012.88 592.967 1009.23 595.218 1004.89 595.218C1002.33 595.218 995.187 593.124 992.236 589.397C990.143 586.758 989.055 583.423 989.055 579.154C989.055 568.289 996.194 555.329 1005.04 555.329C1008.07 555.329 1020.02 559.444 1020.02 565.73C1020.02 567.593 1018.54 571.316 1017.77 572.561C1017.38 573.183 1016.76 573.648 1015.9 573.725C1014.66 573.802 1011.4 573.802 1009.62 573.802C1008.92 573.725 1008.45 573.26 1008.45 572.638L1008.46 572.63Z" fill="black"/>
<path d="M1054.79 571.078C1054.79 577.986 1050.6 595.214 1038.1 595.214C1034.61 595.214 1028.01 593.274 1024.45 589.47C1022.27 587.142 1021.19 583.573 1021.19 579.227C1021.19 570.379 1026.39 555.325 1037.1 555.325C1041.13 555.325 1048.43 558.353 1051.77 561.688C1053.78 563.782 1054.72 567.509 1054.79 570.69V571.078H1054.79ZM1043.46 570.148C1043.46 566.656 1042.37 564.327 1040.28 564.327C1036.01 564.327 1032.36 574.494 1032.36 580.702C1032.36 583.807 1033.37 586.058 1035.62 586.058C1040.36 586.058 1043.46 576.046 1043.46 570.148Z" fill="black"/>
<path d="M1082.03 555.556C1085.92 555.556 1091.5 561.223 1091.5 565.104C1091.5 568.596 1088.55 584.818 1086.15 593.896C1085.91 594.519 1085.22 595.138 1084.52 595.138C1082.73 595.138 1078.15 593.432 1076.44 592.498C1075.82 592.11 1075.51 591.411 1075.51 590.711C1075.51 590.4 1075.59 590.012 1075.59 590.012C1075.59 590.012 1079.55 573.714 1079.55 568.746C1079.55 567.428 1079.31 566.571 1078.77 566.571C1077.61 566.571 1074.27 568.435 1071.4 571.382C1070.62 572.158 1070.24 573.088 1070.08 573.864C1068.68 580.849 1066.98 589.54 1066.05 593.808C1065.89 594.507 1065.27 595.049 1064.57 595.049C1062.87 595.049 1057.74 593.343 1056.66 592.798C1055.96 592.41 1055.65 591.787 1055.65 591.092C1055.65 590.55 1060.3 563.075 1061.23 556.712C1061.39 555.936 1062.09 555.395 1062.79 555.395C1063.64 555.395 1068.76 556.324 1070.24 556.947C1071.09 557.335 1071.63 558.188 1071.63 559.041C1071.63 559.817 1071.71 560.981 1071.71 562.145C1071.71 562.61 1071.86 562.844 1072.02 562.844C1072.26 562.844 1072.56 562.456 1072.56 562.456C1075.67 558.499 1079.24 555.548 1082.03 555.548L1082.03 555.556Z" fill="black"/>
<path d="M1103.69 588.775C1103.69 592.579 1101.28 595.372 1097.32 595.372C1093.37 595.372 1091.58 592.421 1091.58 589.24C1091.58 586.523 1092.59 585.125 1094.29 583.573C1094.76 583.108 1095.69 582.72 1096.47 582.72C1099.96 582.72 1103.69 584.66 1103.69 588.775H1103.69Z" fill="black"/>
<path d="M1143.27 559.436C1143.27 559.747 1143.11 560.212 1143.11 560.212C1139.62 571.62 1137.76 586.911 1137.53 593.816C1137.53 594.515 1136.98 595.133 1136.29 595.133C1134.66 595.133 1131.01 594.123 1129.92 593.658C1129.15 593.347 1128.61 592.648 1128.37 591.564C1128.22 590.942 1128.14 589.082 1128.06 587.837C1128.06 587.296 1127.91 586.984 1127.67 586.984C1127.44 586.984 1127.21 587.449 1127.21 587.449C1124.41 592.106 1120.92 595.287 1118.05 595.287C1113.47 595.287 1107.42 589.078 1107.42 582.946C1107.42 573.479 1110.75 561.914 1112.69 557.104C1112.93 556.482 1113.55 555.94 1114.25 555.94C1115.33 555.94 1120.3 557.88 1122.09 558.891C1122.63 559.202 1123.01 559.744 1123.01 560.366C1123.01 560.908 1122.86 561.377 1122.86 561.377C1121.31 565.956 1118.36 577.909 1118.36 582.485C1118.36 583.649 1118.51 584.349 1118.98 584.349C1120.92 584.349 1124.57 581.709 1127.13 578.374C1127.59 577.752 1127.83 577.21 1127.98 576.28C1128.99 569.372 1131.01 561.069 1132.41 557.035C1132.64 556.336 1133.33 555.794 1134.11 555.794C1135.28 555.794 1139.78 557.035 1142.11 558.045C1142.73 558.28 1143.27 558.822 1143.27 559.444L1143.27 559.436Z" fill="black"/>
<path d="M1156.93 555.402C1161.19 555.402 1174 559.359 1174 565.103C1174 567.12 1172.45 570.225 1171.83 571.078C1171.2 571.931 1170.43 572.165 1169.73 572.242H1163.91C1163.13 572.242 1162.75 571.7 1162.75 571.231C1162.75 570.609 1163.52 568.592 1163.52 567.04C1163.52 564.946 1162.59 563.858 1161.43 563.858C1158.79 563.858 1156.46 568.204 1156.46 570.302C1156.46 575.658 1171.21 574.417 1171.21 583.342C1171.21 588.928 1165.7 595.295 1157.78 595.295C1153.12 595.295 1146.29 593.043 1143.81 590.792C1143.11 590.169 1142.96 589.628 1142.96 589.239C1142.96 588.229 1143.89 584.817 1144.58 583.342C1144.9 582.643 1145.21 582.412 1145.67 582.412C1146.14 582.412 1146.45 582.723 1146.6 582.723C1149.32 584.199 1153.12 586.216 1156.3 586.216C1158.09 586.216 1159.72 585.593 1159.87 584.352C1159.87 581.094 1144.89 580.706 1144.89 570.617C1144.89 564.408 1150.56 555.406 1156.92 555.406L1156.93 555.402Z" fill="black"/>
<path d="M844.003 558.737C844.003 561.842 838.805 588.464 837.718 593.508C837.66 593.762 837.599 594.027 837.533 594.292C837.522 594.292 837.51 594.292 837.499 594.296C836.269 599.51 832.312 609.338 821.577 609.338C818.784 609.338 813.816 607.786 811.411 606.003C810.711 605.538 810.481 604.993 810.481 604.374C810.481 603.44 811.568 599.717 811.956 598.861C812.187 598.319 812.652 598.008 813.197 598.008C813.351 598.008 813.662 598.084 813.816 598.165C816.144 599.172 818.165 599.56 819.637 599.56C821.269 599.56 822.852 599.053 824.132 598.031C824.712 597.57 825.215 597.02 825.649 596.421C826.541 595.191 826.764 593.662 827.029 592.206C827.336 590.519 827.644 588.829 827.943 587.138C828.443 584.33 828.923 581.521 829.403 578.712C829.918 575.693 830.425 572.673 830.936 569.653C831.393 566.94 831.851 564.231 832.323 561.523C832.588 560.001 832.83 558.468 833.138 556.951C833.295 556.174 833.991 555.629 834.848 555.629C835.931 555.629 840.668 556.405 842.762 556.951C843.462 557.181 844.003 557.957 844.003 558.733V558.737Z" fill="black"/>
</g>
<path opacity="0.5" d="M-967 66H756" stroke="#5FBFFA" stroke-width="2"/>
<path opacity="0.5" d="M-967 127H756" stroke="#5FBFFA" stroke-width="2"/>
<path opacity="0.5" d="M-967 188H756" stroke="#5FBFFA" stroke-width="2"/>
<path opacity="0.5" d="M-967 247H756" stroke="#5FBFFA" stroke-width="2"/>
<path opacity="0.5" d="M-967 309H756" stroke="#5FBFFA" stroke-width="2"/>
<path opacity="0.5" d="M-967 369H756" stroke="#5FBFFA" stroke-width="2"/>
<path opacity="0.5" d="M-967 430H756" stroke="#5FBFFA" stroke-width="2"/>
<path opacity="0.5" d="M-967 490H756" stroke="#5FBFFA" stroke-width="2"/>
<path opacity="0.5" d="M-967 550H756" stroke="#5FBFFA" stroke-width="2"/>
<path opacity="0.5" d="M-967 610H756" stroke="#5FBFFA" stroke-width="2"/>
<rect x="752" y="-40" width="8" height="762" fill="black"/>
<g clip-path="url(#clip4_448_393)">
<path d="M699.453 756.785C673.538 738.523 647.333 720.681 620.965 703.067C628.037 702.043 634.571 699.115 639.809 692.749C640.188 692.304 640.719 692.008 641.31 691.932C641.892 691.85 642.483 691.989 642.975 692.315C676.842 711.683 697.061 672.765 666.058 667.615C654.092 665.433 653.685 658.842 655.879 656.961C658.073 655.079 657.941 650.806 655.232 650.786C643.908 651.093 637.287 641.967 650.913 637.008C646.234 633.08 642.802 627.868 641.015 622.018C639.229 616.168 639.184 609.936 640.861 604.054C641.068 603.471 641.477 602.999 642.014 602.695C642.546 602.399 643.175 602.3 643.777 602.424C644.38 602.547 644.919 602.892 645.283 603.373C645.656 603.86 645.83 604.467 645.787 605.075C644.732 618.074 653.764 629.373 663.117 635.281C663.558 635.538 664.061 635.667 664.571 635.657C665.081 635.647 665.58 635.51 666.009 635.243C672.839 629.967 682.69 635.378 690.068 638.599C685.308 635.265 681.456 630.794 678.829 625.599C676.21 620.408 674.931 614.643 675.092 608.824C675.11 608.2 675.363 607.6 675.8 607.158C676.229 606.71 676.821 606.431 677.44 606.385C678.058 606.339 678.683 606.537 679.172 606.921C679.656 607.313 679.984 607.867 680.094 608.48C684.673 628.583 709.018 639.962 711.866 640.733C726.815 644.748 739.25 647.96 736.096 655.671C735.134 657.505 733.76 659.09 732.08 660.304C730.4 661.518 728.466 662.336 726.428 662.677C725.852 662.823 725.345 663.171 725.003 663.652C724.66 664.133 724.49 664.716 724.522 665.301C724.563 665.892 724.8 666.457 725.217 666.877C725.615 667.309 726.168 667.579 726.767 667.652C727.213 667.576 727.679 667.597 728.115 667.718C728.551 667.838 728.957 668.059 729.288 668.374C729.63 668.673 729.889 669.06 730.059 669.473C730.232 669.9 730.303 670.354 730.265 670.809C725.851 689.693 750.081 728.694 744.824 752.273C742.486 762.3 738.334 771.737 732.631 780.146C721.575 772.353 710.545 764.541 699.489 756.749L699.453 756.785Z" fill="#3D9CFB"/>
<path d="M649.76 673.275C648.643 673.386 647.971 672.282 647.288 671.05C645.824 668.424 646.842 664.336 650.441 665.113C652.745 665.62 653.666 667.814 653.337 669.995C653.067 671.76 651.407 673.107 649.766 673.267L649.76 673.275Z" fill="black"/>
<path d="M666.921 680.434C665.043 681.277 663.004 681.294 661.862 679.578C659.043 675.359 666.623 671.36 669.999 673.597C672.692 675.381 670.029 679.039 666.921 680.434Z" fill="black"/>
<path d="M675.861 664.333C671.363 660.874 677.587 655.101 681.148 654.089C684.879 653.022 688.917 653.934 692.457 655.524C693.379 655.943 694.31 656.44 694.933 657.237C696.637 659.445 694.111 662.353 692.598 663.894C687.841 668.756 681.048 668.309 675.866 664.325L675.861 664.333Z" fill="black"/>
<path d="M724.58 652.432C723.935 650.889 720.965 650.301 717.86 651.602C714.754 652.904 713.134 650.714 714.821 649.037C718.308 645.458 728.655 645.883 729.436 652.29C730.02 656.876 722.599 660.056 720.295 657.414C717.991 654.772 725.69 654.559 724.566 652.435L724.58 652.432Z" fill="black"/>
<path d="M736.199 782.725C735.593 782.3 734.979 781.869 734.379 781.435C737.046 778.152 739.432 774.623 741.471 770.876C747.287 760.178 750.142 748.119 749.758 735.953C748.591 711.968 725.365 689.575 729.197 667.75C725.795 668.267 722.337 667.476 719.503 665.526C714.767 662.1 717.691 659.587 719.234 660.861C729.856 670.142 750.693 651.799 733.156 644.918C723.669 641.512 713.17 644.032 703.4 643.389C693.053 642.712 684.969 634.056 674.912 634.027C671.478 633.995 668.137 635.2 665.53 637.432C662.924 639.664 661.216 642.767 660.71 646.174C665.198 654.174 665.975 657.22 658.336 656.093C655.672 659.174 652.183 661.433 648.284 662.593C632.477 670.845 639.179 689.824 655.113 692.824C670.957 698.007 683.408 690.602 687.313 675.003C688.201 672.197 693.443 675.419 687.273 686.469C705.638 685.765 706 671.73 708.004 667.456C708.571 666.164 712.047 667.256 711.309 673.004C709.734 686.788 688.701 702.782 692.039 717.696C695.879 730.893 697.595 743.186 696.674 754.859C695.185 753.812 693.69 752.774 692.2 751.727C692.057 728.84 677.873 713.133 697.098 689.656C692.681 691.144 687.999 691.748 683.338 691.431C673.074 703.104 654.138 700.814 642.377 692.566C637.125 699.931 630.356 703.232 622.785 704.321C620.531 702.816 618.278 701.311 616.016 699.8C624.685 699.714 632.819 697.342 639.712 689.853C629.279 679.582 634.049 662.062 647.759 657.41C650.753 656.659 653.329 654.743 654.922 652.104C643.799 654.535 636.127 640.767 646.273 634.342C630.879 620.208 635.013 596.46 650.787 585.307C654.991 582.347 660.154 582.576 658.441 590.666C654.28 609.166 664.146 618.773 677.042 629.273C677.993 629.267 678.926 629.417 679.822 629.711C662.038 606.437 687.335 567.261 689.343 589.596C693.541 631.819 725.431 611.55 727.259 638.756C745.763 639.524 751.312 659.466 733.48 666.953C730.691 689.72 753.509 710.992 754.494 735.684C754.975 745.659 753.348 755.629 749.741 764.947C747.013 771.98 743.187 778.515 738.423 784.33C737.689 783.808 736.95 783.295 736.208 782.767L736.199 782.725ZM648.673 646.308L648.632 646.281C649.66 646.902 650.787 647.301 651.98 647.455C653.167 647.618 654.371 647.54 655.527 647.226C655.85 643.062 657.411 639.094 660.004 635.834C653.809 635.172 641.017 640.12 648.673 646.308ZM654.293 588.398L654.196 588.454C640.058 598.387 637.553 620.779 650.908 632.434C655.308 630.971 660.045 630.883 664.486 632.182C666.341 631.012 668.397 630.19 670.556 629.774C654.696 617.682 650.301 603.422 654.285 588.392L654.293 588.398ZM721.816 634.658L721.775 634.631C720.63 625.259 702.469 626.002 695.094 617.506C688.584 609.462 684.853 599.54 684.457 589.202C674.479 602.18 676.784 621.46 688.077 632.733C697.075 638.959 707.168 638.952 717.717 638.636C720.909 638.544 722.158 637.619 721.816 634.658Z" fill="black"/>
<path d="M712.252 670.93C711.843 671.439 711.942 672.104 712.489 672.527C713.028 672.944 713.763 672.867 714.092 672.353C714.445 671.82 714.352 671.146 713.879 670.701C713.487 670.333 712.644 670.446 712.257 670.922L712.252 670.93Z" fill="black"/>
<path d="M661.494 653.772C661.942 654.056 662.574 653.935 662.869 653.507C663.088 653.196 662.983 652.647 662.655 652.381C662.233 652.042 661.551 652.057 661.235 652.424C660.901 652.803 661.03 653.476 661.5 653.763L661.494 653.772Z" fill="black"/>
<path d="M708.148 672.145C708.118 672.317 708.046 672.606 708.028 672.906C708.009 673.169 708.404 673.479 708.639 673.431C709.324 673.285 709.821 672.534 709.683 671.783C709.655 671.645 709.405 671.443 709.252 671.438C708.867 671.422 708.468 671.698 708.148 672.145Z" fill="black"/>
<path d="M654.757 645.672C655.209 645.948 655.664 645.77 655.807 645.337C655.983 644.781 655.69 644.191 655.218 644.143C654.71 644.094 654.345 644.32 654.291 644.728C654.234 645.194 654.462 645.501 654.757 645.672Z" fill="black"/>
<path d="M659.382 666.827C659.006 667.214 659.041 667.74 659.363 667.978C659.591 668.141 659.985 668.09 660.187 667.876C660.488 667.548 660.476 666.987 660.115 666.844C659.879 666.748 659.571 666.832 659.391 666.832L659.382 666.827Z" fill="black"/>
<path d="M682.394 638.829C682.146 639.168 682.169 639.64 682.459 639.927C682.728 640.19 683.374 640.102 683.507 639.794C683.647 639.491 683.504 638.965 683.193 638.71C682.968 638.525 682.574 638.576 682.394 638.829Z" fill="black"/>
<path d="M712.617 665.87C712.412 665.926 712.082 665.936 711.869 666.094C711.598 666.286 711.714 667.035 712.049 667.126C712.302 667.197 712.679 667.135 712.892 666.976C713.188 666.765 713.045 666.13 712.631 665.867L712.617 665.87Z" fill="black"/>
<path d="M664.966 651.393C664.917 651.684 664.812 651.915 664.87 652.062C665.102 652.563 665.713 652.656 666.161 652.305C666.236 652.246 666.329 652.105 666.31 652.08C666.151 651.831 666.009 651.52 665.776 651.402C665.559 651.294 665.232 651.389 664.968 651.407L664.966 651.393Z" fill="black"/>
<path d="M708.807 652.646C708.874 652.834 708.889 653.084 709.028 653.2C709.245 653.379 709.757 653.167 709.806 652.876C709.836 652.704 709.725 652.438 709.589 652.336C709.325 652.137 708.937 652.324 708.81 652.66L708.807 652.646Z" fill="black"/>
<path d="M709.813 657.211C710.07 657.584 710.192 657.87 710.395 658.016C710.612 658.16 711.022 657.867 711.037 657.554C711.048 657.393 710.895 657.099 710.784 657.086C710.517 657.053 710.249 657.151 709.808 657.219L709.813 657.211Z" fill="black"/>
<path d="M690.583 656.67C690.678 656.817 690.773 657.107 690.976 657.254C691.162 657.389 691.574 657.075 691.64 656.794C691.7 656.522 691.461 656.268 691.089 656.213C690.837 656.178 690.685 656.281 690.589 656.661L690.583 656.67Z" fill="black"/>
<path d="M657.26 634.58C657.316 634.749 657.327 634.948 657.425 635.073C657.639 635.311 657.933 635.157 658.026 634.799C658.083 634.55 658.003 634.364 657.745 634.373C657.578 634.371 657.412 634.513 657.254 634.588L657.26 634.58Z" fill="black"/>
<path d="M713.69 675.494C713.652 675.769 713.528 676.082 713.928 676.203C714.22 676.288 714.511 676.302 714.66 675.968C714.822 675.596 714.58 675.256 714.119 675.19C713.881 675.152 713.734 675.247 713.69 675.494Z" fill="black"/>
<path d="M706.387 657.784C706.187 657.76 705.968 657.674 705.799 657.73C705.572 657.82 705.579 658.388 705.823 658.526C705.97 658.612 706.231 658.616 706.389 658.541C706.685 658.402 706.67 658.008 706.379 657.778L706.387 657.784Z" fill="black"/>
<path d="M696.019 654.693C695.836 654.716 695.517 654.672 695.32 654.806C694.972 655.043 695.02 655.531 695.348 655.832C695.526 655.998 696.012 656.008 696.175 655.852C696.462 655.563 696.442 655.105 696.024 654.685L696.019 654.693Z" fill="black"/>
<path d="M657.979 662.97C657.869 663.389 657.859 663.658 658.173 663.854C658.481 664.058 659.016 663.813 659.118 663.46C659.175 663.247 658.916 662.787 658.677 662.785C658.425 662.786 658.17 662.917 657.987 662.975L657.979 662.97Z" fill="black"/>
<path d="M660.628 672.93C660.781 672.863 661 672.841 661.085 672.729C661.265 672.476 661.078 672.125 660.765 672.145C660.615 672.154 660.385 672.338 660.375 672.462C660.361 672.609 660.539 672.775 660.628 672.93Z" fill="black"/>
<path d="M675.281 650.706C675.573 650.863 675.977 650.688 675.985 650.369C675.979 650.197 675.867 649.967 675.722 649.859C675.47 649.679 674.988 649.9 675.008 650.177C675.022 650.355 675.186 650.523 675.287 650.698L675.281 650.706Z" fill="black"/>
<path d="M659.506 643.049C659.372 642.961 659.117 642.948 658.956 643.009C658.643 643.138 658.639 643.543 658.967 643.736C659.131 643.832 659.372 643.884 659.561 643.853C659.777 643.817 659.772 643.226 659.511 643.041L659.506 643.049Z" fill="black"/>
<path d="M648.441 636.702C648.752 636.812 649.134 636.669 649.13 636.403C649.133 636.237 649.016 636.015 648.879 635.913C648.674 635.753 648.278 635.934 648.223 636.234C648.201 636.375 648.351 636.547 648.432 636.696L648.441 636.702Z" fill="black"/>
<path d="M694.961 674.505C694.711 674.519 694.436 674.481 694.204 674.579C694.123 674.61 694.119 674.943 694.136 675.134C694.164 675.381 694.353 675.494 694.589 675.41C694.772 675.351 694.999 675.262 695.084 675.115C695.148 675.001 695.022 674.774 694.952 674.499L694.961 674.505Z" fill="black"/>
<path d="M715.362 656.748C715.328 656.582 715.322 656.302 715.252 656.28C715.091 656.233 714.878 656.284 714.723 656.373C714.521 656.479 714.507 656.698 714.649 656.9C714.8 657.108 714.991 657.127 715.177 656.973C715.251 656.915 715.298 656.826 715.362 656.748Z" fill="black"/>
<path d="M646.892 675.07L646.609 675.026L646.792 675.256L646.892 675.07Z" fill="black"/>
<path d="M699.58 649.807C699.58 649.879 699.567 649.954 699.567 650.026C699.681 650.018 699.803 650.015 699.916 650.006C699.891 649.917 699.866 649.829 699.841 649.74C699.752 649.765 699.663 649.79 699.575 649.816L699.58 649.807Z" fill="black"/>
</g>
<path d="M1075.43 49.7142C1075.43 47.9048 1076.9 46.438 1078.7 46.438V46.438C1080.51 46.438 1081.98 47.9048 1081.98 49.7142V176.667C1081.98 178.476 1080.51 179.943 1078.7 179.943V179.943C1076.9 179.943 1075.43 178.476 1075.43 176.667V49.7142Z" fill="black"/>
<path d="M878 39.5C878 37.567 879.567 36 881.5 36V36C883.433 36 885 37.567 885 39.5V115.5C885 117.433 883.433 119 881.5 119V119C879.567 119 878 117.433 878 115.5V39.5Z" fill="black"/>
<rect x="905" y="216" width="7" height="69" rx="3.5" transform="rotate(-90 905 216)" fill="black"/>
<rect x="1013.59" y="215.571" width="6.55238" height="35.219" rx="3.27619" transform="rotate(-90 1013.59 215.571)" fill="black"/>
<rect x="867.075" y="436.752" width="7.16364" height="79.6955" rx="3.58182" transform="rotate(-90 867.075 436.752)" fill="black"/>
<rect x="804.393" y="436.752" width="7.16364" height="23.2818" rx="3.58182" transform="rotate(-90 804.393 436.752)" fill="black"/>
<rect x="798.114" y="240.164" width="7.16363" height="80.5909" rx="3.58182" transform="rotate(-90 798.114 240.164)" fill="black"/>
<rect x="1014" y="274" width="6.99999" height="122" rx="3.5" transform="rotate(-90 1014 274)" fill="black"/>
<rect x="1014" y="469" width="7" height="35" rx="3.5" transform="rotate(-90 1014 469)" fill="black"/>
<rect x="1136" y="469" width="7" height="23" rx="3.5" transform="rotate(-90 1136 469)" fill="black"/>
<g clip-path="url(#clip5_448_393)">
<path d="M1163.99 161.198L1129.64 168.777L1129.88 169.508L1153.01 221.766C1154.02 224.895 1156.84 226.775 1159.58 226.145L1162.6 224.691C1164.91 224.159 1166.43 221.649 1166.09 218.879L1164.14 161.175L1163.99 161.198Z" fill="#F39745"/>
<path d="M1163.9 149.04C1159.25 138.451 1150.49 140.092 1149.38 135.905C1148.27 131.718 1152.76 130.799 1147.76 126.735C1143.47 123.238 1133.56 121.691 1131.18 116.238C1130.72 115.177 1129.32 114.956 1128.64 115.895C1125.69 119.96 1124.25 124.585 1122.89 129.348C1121.62 133.824 1118.46 138.167 1118.23 142.902C1118.1 145.658 1121.73 152.45 1119.86 154.663C1119.86 154.663 1113.3 162.393 1117.94 169.936C1118.38 170.605 1119.01 171.122 1119.76 171.418L1119.48 170.612L1163.95 161.205C1165.88 157.373 1165.87 152.848 1163.9 149.031L1163.9 149.04Z" fill="#B989C9"/>
<path d="M1162.33 165.108L1162.42 169.792L1163.31 215.129L1163.43 220.792L1163.48 223.628L1163.49 224.335L1163.5 224.689L1163.51 224.87L1163.53 225.171C1163.56 225.5 1163.54 225.817 1163.5 226.137C1163.32 227.422 1162.47 228.59 1161.32 229.179C1161.03 229.326 1160.72 229.436 1160.41 229.516L1160.24 229.564C1160.24 229.564 1160.1 229.606 1160.08 229.609L1159.92 229.666L1159.58 229.78L1158.91 230.009L1156.22 230.904L1154.87 231.352L1154.2 231.581L1154.12 231.594L1154.12 231.604C1154.12 231.604 1154.1 231.607 1154.08 231.61L1153.83 231.651C1153.14 231.761 1152.43 231.732 1151.76 231.556C1150.41 231.215 1149.2 230.314 1148.48 229.122L1143.81 219.012L1124.79 177.845L1122.41 172.696L1122.09 171.988L1122.35 171.946L1133.44 169.589L1155.62 164.894L1160.31 163.902C1165.67 162.773 1164.89 159.09 1159.53 160.219L1154.84 161.211L1132.66 165.905L1121.57 168.253L1119.06 168.785L1117.78 169.131L1117.14 169.304C1116.98 169.3 1117.06 169.428 1117.1 169.544L1117.21 169.87C1117.53 170.75 1117.77 171.552 1118.14 172.415L1119.01 174.282L1121.39 179.431L1140.41 220.598L1142.79 225.747L1143.98 228.321L1144.57 229.595C1144.57 229.595 1144.58 229.633 1144.55 229.557L1144.59 229.662L1144.67 229.872C1144.73 230.004 1144.78 230.149 1144.85 230.279C1144.98 230.541 1145.12 230.813 1145.27 231.063C1146.49 233.116 1148.54 234.641 1150.85 235.224C1152 235.517 1153.23 235.574 1154.4 235.397L1154.85 235.326C1154.94 235.302 1155.04 235.296 1155.15 235.257L1155.41 235.175L1156.08 234.946L1157.43 234.498L1160.12 233.603L1161.32 233.21C1161.92 233.063 1162.5 232.848 1163.06 232.567C1165.29 231.442 1166.89 229.212 1167.24 226.745C1167.33 226.134 1167.36 225.501 1167.3 224.893L1167.28 223.6L1167.22 220.764L1167.1 215.101L1166.22 169.764L1166.13 165.08C1166.09 162.929 1165.48 161.629 1164.76 161.197L1164.04 160.633C1163.87 161.066 1163.96 161.476 1164.3 161.787L1163.58 161.223C1162.88 161.679 1162.32 163.004 1162.36 165.154L1162.33 165.108Z" fill="#010101"/>
<path d="M1162.66 200.286L1155.6 197.018L1156.86 193.009C1158.16 193.672 1159.45 194.359 1160.73 195.066C1161.7 195.609 1162.74 194.187 1161.75 193.636C1160.31 192.834 1158.86 192.063 1157.38 191.316L1159.12 185.804C1159.45 184.738 1157.82 184.087 1157.48 185.165L1155.79 190.518C1154.72 189.999 1153.66 189.49 1152.58 189.004L1153.39 186.82C1153.57 186.366 1153.33 185.856 1152.88 185.686C1152.43 185.505 1151.92 185.738 1151.75 186.191L1150.98 188.288C1148.97 187.403 1146.93 186.564 1144.89 185.787C1144.43 185.606 1143.92 185.839 1143.75 186.292C1143.57 186.746 1143.8 187.256 1144.26 187.427C1146.32 188.212 1148.36 189.05 1150.38 189.933L1148.91 193.925L1143.66 191.491C1142.63 191.018 1142 192.657 1143.02 193.133L1148.29 195.582L1145.41 203.424C1145.23 203.879 1145.47 204.388 1145.92 204.559C1146.37 204.74 1146.88 204.506 1147.05 204.054L1149.89 196.31L1153.44 197.951L1152.04 202.418C1151.7 203.484 1153.33 204.135 1153.68 203.057L1155.05 198.697L1162.01 201.919C1163.05 202.401 1163.68 200.752 1162.66 200.276L1162.66 200.286Z" fill="black"/>
<path d="M1162.31 201.355L1159.59 200.109L1154.67 197.836L1153.55 201.376L1153.1 202.805C1153.03 202.998 1153.03 202.957 1153.01 202.982C1152.99 202.995 1152.89 203 1152.8 202.954C1152.71 202.907 1152.65 202.836 1152.63 202.778C1152.63 202.749 1152.62 202.719 1152.62 202.68C1152.62 202.658 1152.63 202.637 1152.63 202.617L1152.68 202.437L1153.13 201.008L1154.19 197.628L1149.52 195.467L1147.62 200.651L1146.79 202.921L1146.58 203.491L1146.47 203.772C1146.45 203.836 1146.43 203.859 1146.43 203.859C1146.43 203.859 1146.42 203.882 1146.41 203.893C1146.34 203.985 1146.21 204.026 1146.1 203.973C1145.99 203.93 1145.93 203.798 1145.96 203.681L1146.35 202.617L1147.18 200.347L1149.05 195.259L1145.28 193.511L1143.65 192.759L1143.24 192.57C1143.24 192.57 1143.15 192.514 1143.14 192.486C1143.09 192.433 1143.07 192.324 1143.12 192.206C1143.16 192.088 1143.23 192.036 1143.24 192.044C1143.25 192.043 1143.28 192.048 1143.34 192.069C1143.42 192.106 1143.6 192.19 1143.72 192.241L1145.35 192.994L1149.22 194.786L1151.12 189.591L1146.87 187.85L1145.01 187.093L1144.55 186.904L1144.43 186.852C1144.43 186.852 1144.41 186.846 1144.4 186.837C1144.37 186.831 1144.36 186.812 1144.34 186.796C1144.27 186.726 1144.24 186.619 1144.28 186.532C1144.31 186.445 1144.39 186.372 1144.49 186.366C1144.51 186.363 1144.54 186.358 1144.56 186.365C1144.58 186.362 1144.61 186.378 1144.7 186.414L1145.16 186.604L1147 187.363L1151.29 189.129L1152.15 186.805L1152.29 186.418C1152.29 186.418 1152.34 186.349 1152.36 186.325C1152.44 186.273 1152.54 186.257 1152.61 186.305C1152.69 186.343 1152.75 186.424 1152.76 186.505C1152.77 186.564 1152.77 186.564 1152.72 186.663L1152.57 187.092L1151.73 189.352L1156.11 191.417L1157.39 187.365L1157.92 185.681C1157.96 185.563 1158.03 185.339 1158.04 185.338C1158.06 185.284 1158.07 185.292 1158.08 185.271C1158.09 185.269 1158.2 185.242 1158.31 185.295C1158.43 185.347 1158.46 185.443 1158.48 185.5C1158.49 185.54 1158.49 185.56 1158.46 185.666L1158.32 186.093L1157.79 187.778L1156.58 191.647L1159.7 193.306C1160.47 193.739 1161.87 194.398 1161.45 194.343C1161.42 194.418 1161.34 194.513 1161.25 194.547C1161.17 194.581 1161.09 194.582 1161.02 194.553C1161.01 194.555 1160.87 194.487 1160.77 194.422L1160.43 194.242L1159.77 193.882L1156.44 192.105L1154.78 197.361L1157.1 198.439L1159.93 199.751C1163.15 201.241 1163.68 200.104 1160.45 198.613L1157.63 197.302L1156.31 196.693L1157.17 193.932L1159.17 194.991L1159.83 195.341L1160.16 195.521C1160.27 195.574 1160.36 195.631 1160.58 195.727C1160.97 195.888 1161.44 195.863 1161.81 195.673C1162.17 195.493 1162.46 195.204 1162.62 194.814C1162.79 194.442 1162.77 193.849 1162.45 193.475C1162.31 193.295 1162.09 193.157 1161.97 193.085L1161.64 192.905L1160.3 192.197L1158.1 191.03L1159 188.162L1159.53 186.477L1159.66 186.051C1159.72 185.869 1159.77 185.588 1159.73 185.341C1159.65 184.818 1159.31 184.386 1158.89 184.19C1158.48 183.981 1157.92 183.908 1157.42 184.211C1157.18 184.36 1157 184.593 1156.91 184.809C1156.79 185.071 1156.79 185.142 1156.74 185.303L1156.21 186.987L1155.36 189.674L1153.32 188.714L1153.75 187.541L1153.91 187.111C1153.98 186.938 1154.04 186.624 1154.01 186.376C1153.96 185.857 1153.62 185.375 1153.13 185.159C1152.66 184.941 1152.06 184.996 1151.64 185.305C1151.44 185.46 1151.26 185.661 1151.14 185.902C1151.05 186.12 1151.03 186.214 1150.96 186.376L1150.55 187.485L1147.47 186.215L1145.61 185.458L1145.15 185.269C1145.09 185.247 1144.95 185.189 1144.81 185.162C1144.67 185.133 1144.53 185.125 1144.38 185.139C1143.81 185.179 1143.28 185.577 1143.09 186.125C1142.88 186.664 1143.02 187.31 1143.43 187.71C1143.53 187.806 1143.64 187.899 1143.78 187.969C1143.83 188.001 1143.91 188.029 1143.96 188.061L1144.08 188.103L1144.54 188.293L1146.38 189.042L1149.51 190.325L1148.49 193.111L1145.85 191.891L1144.22 191.138C1144.08 191.07 1143.98 191.015 1143.79 190.945C1143.56 190.859 1143.29 190.79 1143.01 190.846C1142.43 190.939 1142.03 191.396 1141.89 191.834C1141.74 192.284 1141.77 192.826 1142.09 193.261C1142.25 193.479 1142.45 193.629 1142.67 193.735L1143.09 193.922L1144.71 194.675L1147.44 195.941L1145.97 199.943L1145.14 202.212L1144.93 202.783L1144.82 203.063C1144.78 203.16 1144.74 203.237 1144.69 203.428C1144.52 204.104 1144.88 204.866 1145.53 205.148C1146.15 205.453 1146.98 205.24 1147.37 204.661C1147.42 204.592 1147.47 204.514 1147.51 204.437C1147.56 204.348 1147.58 204.284 1147.59 204.241L1147.7 203.961L1147.91 203.39L1148.74 201.121L1150.17 197.206L1152.61 198.326L1151.88 200.661L1151.43 202.089L1151.38 202.27C1151.35 202.365 1151.33 202.47 1151.31 202.574C1151.29 202.791 1151.31 203.009 1151.38 203.222C1151.52 203.644 1151.84 203.948 1152.19 204.125C1152.54 204.292 1152.99 204.372 1153.43 204.18C1153.88 204.007 1154.16 203.506 1154.23 203.222L1154.68 201.793L1155.37 199.618L1158.99 201.298L1161.8 202.591C1162.12 202.732 1162.57 202.722 1162.89 202.538C1163.21 202.366 1163.4 202.103 1163.5 201.873C1163.71 201.395 1163.63 200.932 1163.44 200.648C1163.26 200.352 1163.01 200.25 1162.86 200.235C1162.69 200.22 1162.62 200.272 1162.58 200.34C1162.5 200.484 1162.67 200.72 1162.63 200.97C1162.62 201.083 1162.57 201.232 1162.47 201.35C1162.42 201.409 1162.37 201.436 1162.34 201.441C1162.31 201.446 1162.3 201.447 1162.23 201.409L1162.31 201.355Z" fill="#010101"/>
<path d="M1117.23 171.315C1117.23 171.315 1117.18 171.323 1117.12 171.352C1117.11 171.354 1117.1 171.355 1117.1 171.367C1117.03 171.174 1117.02 171.258 1117.15 171.298C1117.19 171.312 1117.22 171.317 1117.23 171.315Z" fill="black"/>
<path d="M1168.04 160.229L1167.5 160.314C1167.73 160.095 1167.83 159.887 1167.8 159.709C1167.84 159.856 1167.95 159.999 1168.01 160.151C1168.03 160.179 1168.03 160.199 1168.04 160.229Z" fill="black"/>
<path d="M1163.01 159.421L1157.72 160.539L1132.85 165.784L1120.41 168.417L1117.29 169.078L1116.9 169.161L1116.79 169.178C1116.79 169.178 1116.56 169.224 1116.42 169.278C1115.81 169.456 1115.25 170.011 1115.07 170.607C1114.88 171.204 1114.93 171.794 1115.21 172.357C1115.47 172.923 1116.21 173.442 1116.9 173.444C1117.07 173.456 1117.21 173.424 1117.36 173.411C1117.53 173.384 1117.52 173.385 1117.61 173.361L1118 173.279L1118.77 173.115L1120.33 172.795L1123.44 172.137L1148.29 166.884L1160.72 164.262L1166.19 163.106L1166.71 166.394L1142.67 171.608L1130.08 174.338L1123.77 175.709L1120.6 176.397L1119.82 176.573L1119.61 176.606L1119.48 176.638C1119.16 176.708 1118.85 176.839 1118.59 177.043C1118.04 177.474 1117.77 178.135 1117.76 178.724C1117.77 179.311 1117.96 179.928 1118.51 180.417C1118.79 180.656 1119.16 180.82 1119.51 180.865C1119.69 180.887 1119.86 180.89 1120.01 180.866L1120.24 180.83L1120.36 180.811L1121.14 180.646L1122.71 180.303L1125.87 179.618L1132.16 178.249L1144.76 175.519L1157.35 172.789L1163.66 171.419L1166.82 170.732L1168.4 170.388L1169.2 170.22L1169.39 170.189L1169.53 170.147C1169.86 170.084 1170.15 169.957 1170.41 169.754C1170.83 169.443 1171.13 168.969 1171.23 168.447C1171.28 168.206 1171.27 167.864 1171.24 167.696L1170.56 163.44C1170.44 162.68 1170.3 162.014 1170.14 161.453C1169.8 160.281 1169.43 159.337 1168.12 159.131C1166.43 158.864 1164.67 159.064 1163.01 159.421ZM1117.12 171.352C1117.12 171.352 1117.1 171.356 1117.1 171.367C1117.03 171.174 1117.02 171.258 1117.15 171.298C1117.19 171.312 1117.22 171.317 1117.23 171.315C1117.22 171.317 1117.18 171.323 1117.12 171.352Z" fill="black"/>
<path d="M1117.23 171.315C1117.23 171.315 1117.18 171.323 1117.12 171.352C1117.11 171.354 1117.1 171.355 1117.1 171.367C1117.03 171.174 1117.02 171.258 1117.15 171.298C1117.19 171.312 1117.22 171.317 1117.23 171.315Z" fill="#010101"/>
<path d="M1137.05 125.641C1136.87 125.628 1136.71 125.633 1136.55 125.649L1136.37 125.597L1136.35 125.59C1136.36 125.588 1136.33 125.613 1136.33 125.573L1136.35 125.57C1136.54 125.56 1136.79 125.58 1137.05 125.641Z" fill="black"/>
<path d="M1137.7 124.169C1137.34 123.579 1136.74 123.25 1135.81 123.51C1135.02 123.707 1134.39 124.385 1134.23 125.179C1133.63 127.695 1132.43 130.054 1130.76 132.021C1129.93 133.015 1128.98 133.906 1127.95 134.658C1127.42 135.046 1126.88 135.396 1126.32 135.717L1125.89 135.948L1125.78 136.016L1125.53 136.167C1125.38 136.273 1125.21 136.441 1125.09 136.603C1124.52 137.331 1124.54 138.26 1124.89 138.923C1125.07 139.27 1125.34 139.59 1125.74 139.82C1126.13 140.051 1126.68 140.136 1127.1 140.038C1127.34 140 1127.5 139.914 1127.69 139.833L1127.93 139.704L1128.41 139.434C1129.05 139.059 1129.68 138.665 1130.28 138.225C1131.47 137.367 1132.57 136.37 1133.56 135.271C1135.72 132.87 1137.84 129.899 1138.14 126.59C1138.22 125.798 1138.1 124.834 1137.7 124.169ZM1136.55 125.649L1136.37 125.597L1136.35 125.59C1136.36 125.588 1136.33 125.613 1136.33 125.573L1136.35 125.57C1136.54 125.56 1136.79 125.58 1137.05 125.641C1136.87 125.628 1136.71 125.633 1136.55 125.649Z" fill="black"/>
<path d="M1148.34 140.983C1148.34 140.983 1148.28 140.961 1148.25 140.946C1148.24 140.877 1148.22 140.91 1148.34 140.983Z" fill="black"/>
<path d="M1148.39 141.106C1148.39 141.106 1148.26 141.198 1148.25 141.229L1148.24 141.23C1148.19 141.158 1148.12 141.088 1148.04 141.03L1148.03 141.032C1147.89 140.902 1147.72 140.817 1147.54 140.765C1147.78 140.829 1148.09 140.881 1148.25 140.946C1148.26 140.974 1148.27 141.013 1148.27 141.084L1148.34 141.104C1148.36 141.101 1148.38 141.108 1148.39 141.106Z" fill="black"/>
<path d="M1147.31 139.384C1147.45 139.251 1147.61 139.135 1147.77 139.047C1148.76 138.556 1149.96 139.427 1150.35 140.328C1150.45 140.595 1150.5 140.891 1150.49 141.165C1150.5 141.317 1150.47 141.443 1150.44 141.569L1150.39 141.76L1150.36 141.855L1150.11 142.542C1149.94 142.995 1149.76 143.439 1149.58 143.883C1149.19 144.765 1148.76 145.624 1148.29 146.459C1147.33 148.131 1146.19 149.69 1144.9 151.111C1143.63 152.508 1142.27 153.83 1140.81 155.035C1140.17 155.562 1139.33 156.314 1138.46 156.798C1137.58 157.323 1136.63 157.727 1135.65 158.015C1135.4 158.086 1135.17 158.153 1134.9 158.206C1134.75 158.231 1134.71 158.267 1134.34 158.295C1134.06 158.3 1133.78 158.254 1133.52 158.153C1132.46 157.786 1131.85 156.485 1132.27 155.426C1132.46 154.899 1132.86 154.461 1133.37 154.228C1134.04 153.979 1134.01 154.055 1134.23 153.979C1134.62 153.867 1135 153.734 1135.37 153.574C1136.1 153.265 1136.79 152.851 1137.41 152.347L1139.43 150.587C1140.72 149.399 1141.96 148.097 1143 146.727C1143.8 145.667 1144.5 144.532 1145.11 143.351C1145.68 142.227 1146.11 141.004 1146.84 139.966C1146.9 139.886 1146.95 139.806 1147.02 139.724C1147.12 139.608 1147.22 139.491 1147.32 139.383L1147.31 139.384Z" fill="black"/>
<path d="M1148.39 141.106C1148.39 141.106 1148.36 141.101 1148.34 141.104Z" fill="black"/>
<path d="M1148.34 140.983C1148.34 140.983 1148.28 140.961 1148.25 140.946C1148.24 140.877 1148.22 140.91 1148.34 140.983Z" fill="#010101"/>
<path d="M1148.39 141.107C1148.39 141.107 1148.26 141.198 1148.25 141.229L1148.24 141.231C1148.19 141.158 1148.12 141.088 1148.04 141.03L1148.16 141.062C1148.16 141.062 1148.2 141.076 1148.22 141.082C1148.23 141.081 1148.25 141.098 1148.27 141.094C1148.31 141.109 1148.34 141.105 1148.34 141.105C1148.36 141.101 1148.38 141.108 1148.39 141.107Z" fill="#010101"/>
<path d="M1131.82 104.389C1131.48 105.172 1130.99 105.918 1130.08 105.871C1129.6 105.887 1129.19 105.528 1129.15 105.048C1129.13 104.566 1129.48 104.144 1129.97 104.106L1129.98 104.105L1130.03 104.057C1129.93 104.185 1130.1 103.925 1130.11 103.882C1130.15 103.805 1130.18 103.73 1130.21 103.654L1130.32 103.384C1128.94 102.772 1127.35 102.936 1126.12 103.8C1124.04 105.317 1123.6 108.233 1125.12 110.309C1125.76 111.18 1126.68 111.802 1127.72 112.071C1130.19 112.578 1132.61 110.987 1133.12 108.516C1133.43 107.009 1132.94 105.445 1131.82 104.389Z" fill="#DB433B"/>
<path d="M1129.91 106.841C1130.09 106.852 1130.28 106.822 1130.47 106.751C1131.21 106.48 1131.49 105.635 1131.76 104.955L1132.48 103.15L1133.17 101.358L1133.51 100.462C1133.58 100.33 1133.69 99.9984 1133.69 99.7354C1133.68 99.4541 1133.61 99.1922 1133.47 98.9611C1133.2 98.4874 1132.6 98.1874 1132.06 98.2544C1131.51 98.3016 1131 98.6565 1130.79 99.1861L1130.08 100.99L1129.38 102.793C1129.17 103.313 1128.98 103.849 1128.74 104.354C1128.6 104.639 1128.51 104.928 1128.51 105.252C1128.51 106.082 1129.12 106.805 1129.91 106.841Z" fill="black"/>
<path d="M1166.91 161.187L1163.95 161.66L1164.9 167.585L1167.86 167.112L1166.91 161.187Z" fill="black"/>
<path d="M1159.08 213.829C1159.21 213.151 1159.3 212.417 1159.46 211.713C1159.6 211.114 1160.32 210.696 1160.93 210.801C1161.66 210.927 1162.18 211.725 1161.99 212.464C1161.95 212.664 1161.87 212.898 1161.73 213.012C1161.41 213.277 1161.06 213.555 1160.67 213.687C1159.77 214.003 1159.32 214.612 1159.16 215.528C1159.13 215.715 1158.96 215.885 1158.83 216.057C1158.63 216.342 1157.97 216.396 1157.69 216.158C1157.41 215.919 1157.32 215.266 1157.58 215.031C1158.04 214.613 1158.54 214.25 1159.07 213.821L1159.08 213.829Z" fill="black"/>
<path d="M1149.14 222.394C1148.75 222.497 1148.24 222.255 1148.1 221.892C1147.74 221.007 1148.06 220.177 1148.89 219.78C1149.31 219.582 1150.08 219.915 1150.21 220.36C1150.45 221.152 1149.91 222.191 1149.15 222.393L1149.14 222.394Z" fill="black"/>
<path d="M1151.28 211.976C1151.18 211.972 1151.07 211.989 1150.98 211.974C1150.43 211.899 1150.05 211.555 1149.76 211.125C1149.4 210.595 1149.74 209.853 1150.39 209.698C1150.93 209.562 1151.49 209.745 1151.76 210.138C1152.12 210.648 1152.03 211.3 1151.53 211.785C1151.46 211.857 1151.36 211.912 1151.28 211.976Z" fill="black"/>
<path d="M1149.7 203.115C1150.34 202.982 1150.85 203.337 1150.93 203.719C1151.07 204.445 1150.39 205.284 1149.7 205.151C1149.31 205.071 1148.96 204.823 1148.61 204.605C1148.41 204.476 1148.44 203.904 1148.65 203.769C1149.07 203.489 1149.51 203.236 1149.7 203.125L1149.7 203.115Z" fill="black"/>
<path d="M1152.34 217.894C1151.21 218.063 1150.65 217.423 1150.89 216.434C1151.04 215.833 1151.53 215.391 1151.93 215.489C1152.72 215.677 1153.28 216.711 1152.91 217.417C1152.79 217.65 1152.46 217.783 1152.34 217.894Z" fill="black"/>
<path d="M1164.8 215.721C1164.37 215.74 1163.8 215.364 1163.64 214.895C1163.5 214.501 1163.49 214.108 1163.79 213.757C1164.09 213.395 1164.75 213.319 1165.15 213.61C1165.77 214.068 1165.87 214.913 1165.34 215.454C1165.21 215.586 1164.99 215.631 1164.81 215.72L1164.8 215.721Z" fill="black"/>
<path d="M1144.75 211.084C1144.86 211.512 1144.43 212.098 1143.92 212.2C1143.4 212.313 1142.84 211.997 1142.7 211.524C1142.55 211.051 1142.85 210.415 1143.29 210.254C1143.81 210.07 1144.6 210.511 1144.75 211.084Z" fill="black"/>
<path d="M1134.78 199.026C1135.02 199.22 1135.33 199.352 1135.43 199.58C1135.53 199.827 1135.49 200.198 1135.38 200.459C1135.14 201.044 1134.54 201.241 1134.15 200.929C1133.72 200.582 1133.6 199.973 1133.96 199.571C1134.16 199.357 1134.45 199.229 1134.77 199.016L1134.78 199.026Z" fill="black"/>
<path d="M1154.15 206.647C1154.16 207.254 1153.52 207.851 1152.94 207.782C1152.5 207.731 1152.18 207.408 1152.14 206.979C1152.07 206.372 1152.65 205.843 1153.35 205.864C1153.78 205.876 1154.14 206.233 1154.16 206.646L1154.15 206.647Z" fill="black"/>
<path d="M1145.28 194.534C1145.41 195.091 1145.08 195.649 1144.58 195.739C1144.12 195.814 1143.56 195.417 1143.4 194.904C1143.31 194.585 1143.65 194.035 1144.01 193.906C1144.51 193.735 1145.17 194.065 1145.28 194.544L1145.28 194.534Z" fill="black"/>
<path d="M1132.07 196.561C1132.25 197.009 1131.91 197.589 1131.41 197.701C1131.06 197.785 1130.61 197.453 1130.52 197.062C1130.44 196.67 1130.71 196.221 1131.08 196.132C1131.57 196.023 1131.93 196.179 1132.08 196.559L1132.07 196.561Z" fill="black"/>
<path d="M1150.14 228.443C1149.66 228.589 1149.12 228.23 1149.04 227.707C1148.97 227.322 1149.24 226.824 1149.58 226.729C1150.02 226.607 1150.57 226.966 1150.69 227.493C1150.78 227.844 1150.5 228.343 1150.13 228.444L1150.14 228.443Z" fill="black"/>
<path d="M1147.55 207.145C1147.6 207.683 1147.17 208.188 1146.67 208.155C1146.27 208.127 1145.93 207.827 1145.83 207.398C1145.73 206.948 1146.13 206.236 1146.52 206.174C1146.91 206.113 1147.5 206.676 1147.54 207.135L1147.55 207.145Z" fill="black"/>
<path d="M1143.33 204.952C1143.33 205.427 1142.86 205.766 1142.52 205.537C1142.27 205.374 1142.04 205.157 1141.84 204.925C1141.62 204.648 1141.66 204.276 1141.89 204.109C1142.14 203.926 1142.43 203.81 1142.74 203.973C1143.12 204.185 1143.37 204.49 1143.33 204.942L1143.33 204.952Z" fill="black"/>
<path d="M1142.85 198.435C1142.95 198.744 1142.64 199.249 1142.26 199.37C1141.72 199.549 1141.31 199.34 1141.07 198.77C1140.93 198.409 1141.09 197.866 1141.4 197.737C1141.94 197.508 1142.68 197.865 1142.85 198.435Z" fill="black"/>
<path d="M1156.73 208.191C1156.82 208.206 1156.93 208.209 1157.02 208.246C1157.56 208.463 1157.71 208.936 1157.73 209.449C1157.73 209.59 1157.53 209.804 1157.38 209.869C1156.81 210.102 1156.14 209.672 1156.05 209.058C1156 208.702 1156.38 208.226 1156.73 208.191Z" fill="black"/>
<path d="M1156.19 220.074C1156.11 220.259 1156.05 220.602 1155.85 220.755C1155.48 221.037 1154.88 220.668 1154.7 220.058C1154.66 219.904 1154.76 219.603 1154.89 219.522C1155.39 219.21 1155.98 219.439 1156.2 220.072L1156.19 220.074Z" fill="black"/>
<path d="M1138.65 201.608C1139.13 201.45 1139.64 201.744 1139.72 202.116C1139.76 202.362 1139.53 202.753 1139.26 202.846C1138.91 202.984 1138.33 202.682 1138.35 202.304C1138.36 202.04 1138.57 201.783 1138.65 201.598L1138.65 201.608Z" fill="black"/>
<path d="M1148.1 198.317C1148 198.181 1147.78 197.994 1147.69 197.765C1147.6 197.516 1147.95 197.166 1148.23 197.132C1148.51 197.108 1148.75 197.363 1148.76 197.705C1148.78 198.057 1148.55 198.326 1148.1 198.317Z" fill="black"/>
<path d="M1146.41 224.541C1146.47 224.876 1146.21 225.212 1145.89 225.13C1145.73 225.095 1145.54 224.932 1145.5 224.778C1145.4 224.46 1145.71 224.107 1146.01 224.179C1146.17 224.215 1146.28 224.41 1146.41 224.531L1146.41 224.541Z" fill="black"/>
<path d="M1141.15 191.122C1141.26 191.47 1141.07 191.804 1140.77 191.761C1140.6 191.737 1140.41 191.615 1140.32 191.488C1140.17 191.259 1140.44 190.831 1140.74 190.843C1140.88 190.851 1141.01 191.023 1141.15 191.122Z" fill="black"/>
<path d="M1134.22 193.15C1134.07 193.246 1133.91 193.432 1133.75 193.427C1133.52 193.424 1133.39 193.182 1133.51 192.98C1133.59 192.836 1133.81 192.76 1133.96 192.664C1134.05 192.823 1134.14 192.991 1134.21 193.151L1134.22 193.15Z" fill="black"/>
<path d="M1141.34 215.102C1141.29 215.282 1141.29 215.506 1141.17 215.625C1140.98 215.828 1140.57 215.619 1140.53 215.292C1140.5 215.114 1140.57 214.891 1140.68 214.742C1140.82 214.548 1141.24 214.784 1141.34 215.102Z" fill="black"/>
<path d="M1156.36 226.203C1156.37 226.292 1156.43 226.395 1156.4 226.47C1156.37 226.545 1156.27 226.602 1156.21 226.663C1156.14 226.513 1156.03 226.367 1155.99 226.212C1155.98 226.163 1156.1 226.073 1156.16 226.013C1156.23 226.073 1156.29 226.144 1156.36 226.203Z" fill="black"/>
<path d="M1159.14 222.874C1159.06 222.937 1158.98 223.052 1158.9 223.043C1158.66 223.012 1158.56 222.845 1158.64 222.609C1158.68 222.522 1158.77 222.467 1158.84 222.405C1158.94 222.562 1159.03 222.719 1159.13 222.875L1159.14 222.874Z" fill="black"/>
<path d="M1137.55 212.527C1137.67 212.609 1137.8 212.7 1137.91 212.783C1137.85 212.853 1137.78 212.976 1137.72 212.976C1137.55 212.963 1137.38 212.899 1137.21 212.855C1137.32 212.746 1137.44 212.637 1137.55 212.527Z" fill="black"/>
<path d="M1145.33 218.03C1145.29 218.108 1145.23 218.269 1145.19 218.265C1145.01 218.243 1144.84 218.169 1144.67 218.115C1144.83 218.02 1144.97 217.905 1145.13 217.839C1145.17 217.833 1145.26 217.96 1145.33 218.03Z" fill="black"/>
<path d="M1148.05 214.336C1147.99 214.395 1147.91 214.509 1147.88 214.504C1147.63 214.422 1147.63 214.29 1147.87 214.192C1147.9 214.187 1147.99 214.294 1148.05 214.346L1148.05 214.336Z" fill="black"/>
<path d="M1137.73 195.193C1137.8 195.252 1137.92 195.324 1137.92 195.355C1137.84 195.621 1137.71 195.632 1137.58 195.389C1137.56 195.361 1137.68 195.261 1137.73 195.193Z" fill="black"/>
</g>
<g clip-path="url(#clip6_448_393)">
<path d="M1165.01 58.2529C1166.89 58.3046 1168.46 56.8219 1168.52 54.9336C1168.56 53.6987 1167.92 52.5473 1166.85 51.9112C1168.47 50.8623 1168.93 48.704 1167.88 47.0869C1167.38 46.3091 1166.6 45.7702 1165.7 45.5728C1163.44 44.8152 1159.43 46.0877 1156.31 47.158C1153.63 42.9969 1148.46 41.2221 1143.8 42.8627C1142.51 43.3623 1141.33 44.1034 1140.32 45.045C1138.79 42.2213 1136.28 40.0544 1133.25 38.9568C1130.04 38.4152 1127.72 42.259 1130.42 45.4889C1128.41 45.8988 1126.83 46.0215 1126.01 47.256C1125.23 48.6688 1125.72 50.4498 1127.11 51.2586C1125.81 54.5245 1129.47 58.1591 1135.58 55.5505C1137.52 54.7326 1137.04 54.4453 1137.29 55.3075C1137.95 57.1774 1139.27 58.7255 1141.01 59.6504C1145.03 61.5712 1149.78 61.0228 1153.26 58.2438C1155.67 60.9099 1158.76 62.882 1162.19 63.9652C1164.09 64.0768 1165.72 62.63 1165.84 60.7279C1165.89 59.8172 1165.58 58.9328 1164.99 58.2512L1165.01 58.2529ZM1129.81 52.0944C1130.58 52.0759 1131.18 51.43 1131.16 50.6618C1131.14 50.0547 1130.73 49.5306 1130.15 49.3704C1126.74 48.7691 1129.18 48.5934 1133.72 47.6476C1134.46 47.4388 1134.9 46.6646 1134.68 45.9172C1134.59 45.583 1134.37 45.3021 1134.08 45.1139C1133.16 44.4261 1131.94 43.5535 1132.02 42.4026C1132.18 40.1368 1136.73 43.6225 1138.46 47.408C1137.71 48.6698 1137.2 50.0581 1137 51.5093C1133.36 54.3435 1128.78 54.0889 1129.8 52.0892L1129.81 52.0944ZM1161.23 60.8387C1159.05 59.599 1157.05 58.0847 1155.25 56.3487C1156.77 54.5163 1157.48 52.1432 1157.2 49.777C1159.13 49.0877 1165.6 46.9553 1165.71 49.0131C1165.77 50.1569 1163.54 50.0252 1162.88 50.0246C1161.17 49.9949 1160.37 52.6254 1164.28 53.9015C1164.69 54.0311 1165.73 54.2129 1165.83 54.6192C1165.92 55.0254 1165.27 55.4296 1164.85 55.5143C1163.77 55.487 1162.73 55.1218 1161.87 54.4647C1161.19 54.0954 1160.33 54.3404 1159.96 55.0167C1159.75 55.4218 1159.73 55.9141 1159.94 56.3202C1160.71 58.1402 1162.12 58.726 1162.76 59.8774C1163.57 61.2617 1162.64 61.5995 1161.23 60.8301L1161.23 60.8387Z" fill="#E7BB43"/>
</g>
<g clip-path="url(#clip7_448_393)">
<path d="M818.3 77.2762C832.068 73.458 840.134 59.2016 836.316 45.4336C832.498 31.6657 818.241 23.5998 804.473 27.418C790.705 31.2363 782.639 45.4927 786.458 59.2606C790.276 73.0286 804.532 81.0945 818.3 77.2762Z" fill="#DB433B"/>
<path d="M830.805 78.4367C835.544 84.4489 856.259 73.3391 847.57 66.5956C840.015 60.7937 827.017 73.6448 830.805 78.4367Z" fill="black"/>
<path d="M819.605 69.6711C823.281 76.1544 825.237 83.4678 825.301 90.9217C800.662 71.9772 796.291 104.073 824.898 97.9242C820.534 111.639 822.544 110.729 823.54 111.325C826.909 113.109 836.68 87.6832 823.378 67.1097C836.332 58.5152 830.242 30.8672 812.386 31.0663C798.019 31.2006 785.228 49.7017 794.572 62.438C801.657 72.7185 811.211 74.0537 819.605 69.6711ZM798.9 60.646C801.992 49.9405 810.657 57.3857 817.186 65.8487C812.031 68.5545 804.576 68.4636 798.92 60.6407L798.9 60.646ZM824.057 43.5515C827.702 50.0332 826.398 58.1674 820.922 63.1936C813.115 56.9323 813.305 41.7907 824.057 43.5515ZM820.578 38.8293C814.394 40.2538 810.207 45.9603 810.774 53.1709C805.234 50.1827 800.699 49.0953 796.366 54.9875C793.462 42.1983 810.822 29.5075 820.584 38.8486L820.578 38.8293Z" fill="black"/>
<path d="M812.402 31.0514C798.019 31.2006 785.228 49.7017 794.572 62.438C800.755 71.412 808.811 73.5571 816.336 71.0551C816.336 71.0551 823.235 68.1663 825.185 65.654C835.675 55.7711 829.342 30.8781 812.393 31.054L812.402 31.0514ZM820.569 38.832C814.397 40.2634 810.219 45.9673 810.774 53.1709C805.244 50.1801 800.699 49.0953 796.366 54.9875C793.475 42.2053 810.803 29.5128 820.569 38.832ZM798.92 60.6407L798.9 60.6461C801.992 49.9405 810.657 57.3857 817.186 65.8487C812.024 68.5669 804.576 68.4636 798.92 60.6407ZM820.922 63.1936C813.112 56.9227 813.296 41.7934 824.057 43.5515C827.702 50.0332 826.398 58.1674 820.922 63.1936Z" fill="black"/>
<path d="M812.931 41.1888C812.627 41.1796 812.403 41.2314 812.217 41.1585C811.469 40.8574 811.035 40.3032 811.002 39.4718C810.968 38.7133 811.886 38.0955 812.552 38.4399C813.29 38.8165 813.733 39.7417 813.488 40.5777C813.414 40.8368 813.091 41.0197 812.933 41.1984L812.931 41.1888Z" fill="black"/>
<path d="M804.378 56.0755C804.489 56.8126 804.024 57.6057 803.293 57.7772C803.053 57.844 802.646 57.687 802.466 57.4878C801.846 56.7879 802.073 55.7704 802.88 55.3495C803.43 55.0516 804.283 55.4689 804.369 56.0781L804.378 56.0755Z" fill="black"/>
<path d="M804.503 45.8609C804.399 46.0867 804.332 46.4063 804.133 46.586C803.927 46.7781 803.602 46.8786 803.313 46.9588C802.85 47.0871 802.445 46.8985 802.289 46.558C802.098 46.1334 802.232 45.7539 802.498 45.4414C802.905 44.9652 803.637 44.9077 804.139 45.2976C804.285 45.4127 804.354 45.6221 804.491 45.8539L804.503 45.8609Z" fill="black"/>
<path d="M815.061 46.0251C814.985 46.2018 814.903 46.5047 814.75 46.7755C814.544 47.1544 814.039 47.2425 813.645 47.0196C813.276 46.8107 813.087 46.3546 813.198 45.9296C813.305 45.495 813.502 45.1188 813.957 45.0028C814.41 44.8772 815.053 45.4358 815.051 46.0278L815.061 46.0251Z" fill="black"/>
<path d="M801.475 48.413C801.644 48.5737 801.971 48.7424 802.01 48.9598C802.15 49.7617 801.761 50.3054 800.955 50.5807C800.671 50.6802 800.238 50.5408 800.169 50.2903C800.118 50.1072 800.058 49.854 800.147 49.7255C800.425 49.306 800.765 48.9212 801.092 48.5295C801.146 48.4627 801.285 48.4761 801.477 48.4227L801.475 48.413Z" fill="black"/>
<path d="M808.505 48.0926C808.669 48.5348 808.382 49.1851 807.932 49.3931C807.627 49.5295 807.041 49.2873 806.88 48.9687C806.584 48.3868 806.916 47.6407 807.524 47.5136C807.899 47.4409 808.359 47.7179 808.505 48.0926Z" fill="black"/>
<path d="M798.938 52.9976C799.206 52.9544 799.545 53.2029 799.61 53.4754C799.718 53.9021 799.601 54.2666 799.276 54.5539C799.01 54.7936 798.366 54.827 798.172 54.5384C798.03 54.3285 797.97 53.9613 798.046 53.7119C798.167 53.3255 798.483 53.0408 798.938 52.9976Z" fill="black"/>
<path d="M812.503 50.1594C812.622 50.6659 812.282 51.1962 811.755 51.28C811.346 51.3414 810.887 51.0329 810.849 50.6699C810.801 50.1229 811.123 49.6391 811.605 49.5055C811.933 49.4146 812.396 49.774 812.493 50.1621L812.503 50.1594Z" fill="black"/>
<path d="M809.449 54.0777C809.794 54.0131 810.229 54.3077 810.367 54.6948C810.508 55.0915 810.267 55.6047 809.921 55.6694C809.595 55.7286 809.102 55.4089 808.986 55.0673C808.868 54.7161 809.135 54.144 809.449 54.0777Z" fill="black"/>
<path d="M808.188 38.0833C808.044 37.9365 807.751 37.779 807.675 37.5408C807.554 37.18 808.024 36.6658 808.375 36.7344C808.541 36.7714 808.747 36.953 808.814 37.1211C808.973 37.544 808.692 38.0267 808.188 38.0833Z" fill="black"/>
<path d="M799.92 43.2925C799.8 43.4605 799.691 43.7399 799.477 43.903C799.239 44.0935 798.802 43.9033 798.755 43.5842C798.712 43.316 798.759 42.9606 798.911 42.7626C799.121 42.5074 799.776 42.8133 799.922 43.3021L799.92 43.2925Z" fill="black"/>
<path d="M795.234 52.1051C795.037 52.0665 794.816 52.0551 794.637 51.9699C794.352 51.8414 794.274 51.4479 794.424 51.1675C794.568 50.8993 794.937 50.8074 795.24 51.0035C795.403 51.1036 795.543 51.2723 795.652 51.4394C795.821 51.714 795.574 52.094 795.237 52.1147L795.234 52.1051Z" fill="black"/>
<path d="M815.881 53.6225C815.585 53.6422 815.318 53.353 815.339 53.0153C815.359 52.6775 815.661 52.4175 815.965 52.5407C816.139 52.6066 816.301 52.7796 816.388 52.9424C816.511 53.1988 816.174 53.5932 815.878 53.6129L815.881 53.6225Z" fill="black"/>
<path d="M805.533 51.895C805.432 52.0164 805.355 52.2246 805.236 52.2471C804.917 52.294 804.69 52.0354 804.743 51.7405C804.753 51.665 804.831 51.5708 804.9 51.5205C805.114 51.3574 805.474 51.5689 805.523 51.8976L805.533 51.895Z" fill="black"/>
<path d="M807.276 59.7138C807.062 59.877 806.886 59.8427 806.723 59.6285C806.372 59.1862 806.407 58.9378 806.842 58.5992C807.056 58.436 807.236 58.4484 807.399 58.6626C807.726 59.0909 807.692 59.3805 807.283 59.7015L807.276 59.7138Z" fill="black"/>
<path d="M810.976 60.4102C811.047 60.4011 811.15 60.3621 811.189 60.3926C811.244 60.4397 811.293 60.5404 811.283 60.6159C811.275 60.701 811.202 60.7732 811.163 60.8567C811.093 60.793 811.004 60.7346 810.973 60.6602C810.945 60.5954 810.979 60.4926 810.979 60.4198L810.976 60.4102Z" fill="black"/>
<path d="M804.578 63.1183C804.489 63.06 804.331 62.9791 804.337 62.9255C804.372 62.6772 804.546 62.5563 804.797 62.6008C804.895 62.6153 804.972 62.7079 805.061 62.7663C804.897 62.8845 804.742 63.0001 804.578 63.1183Z" fill="black"/>
<path d="M816.788 42.0388C816.921 42.1058 817.056 42.1824 817.179 42.2521C817.128 42.3286 817.071 42.4586 817.01 42.465C816.836 42.4719 816.657 42.4279 816.485 42.4032C816.586 42.2818 816.687 42.1603 816.788 42.0388Z" fill="black"/>
<path d="M809.841 44.0793L809.962 44.2533L809.771 44.2751L809.841 44.0793Z" fill="black"/>
</g>
<g clip-path="url(#clip8_448_393)">
<path d="M847.27 178.25C851.58 185.53 838.42 191.36 835.74 182.62C832.97 190.53 820.94 181.68 826.94 176.68C819.73 176.7 821.79 164.45 828.56 166.75C822.36 157.66 839.68 150.29 839.68 162.16C843.51 152.84 857.43 162.35 848.87 168.45C849.98 168.56 851.02 169.08 851.76 169.92C854.04 172.65 852.09 180.63 847.27 178.25Z" fill="#5FBFFA"/>
<path d="M822.2 180.17C815.31 185.91 829.13 196.08 832.31 186.98C835.39 197.03 850.51 190.33 845.56 181.96C851.1 184.68 853.34 175.51 850.73 172.39C849.88 171.42 848.69 170.82 847.41 170.7C857.24 163.68 841.25 152.76 836.85 163.47C836.85 149.84 816.94 158.3 824.06 168.75C816.29 166.11 813.91 180.18 822.2 180.17ZM821.01 173.42C821.92 170.2 825.75 173.7 827.73 171.7C830.1 169.31 822.65 162.7 829.27 160.45C835.89 158.2 830.95 167.74 835.15 169.05C839.86 170.5 840.09 159.34 845.35 163.52C850.27 167.43 840.18 168.52 841.78 172.38C843.38 176.24 849.77 171.81 847.94 177.5C846.83 180.84 841.78 174.61 840.08 177.84C838.38 181.07 845.22 184.61 841.62 187.29C838.36 189.74 836.42 187.29 835.11 184.38C830.71 174.38 828.96 194.8 823.92 183.87C823.07 182.09 828.54 181.31 827.75 178.55C826.69 174.58 819.43 178.95 821.01 173.41V173.42Z" fill="black"/>
</g>
<g clip-path="url(#clip9_448_393)">
<path d="M790.45 150.93C792.96 155.17 785.31 158.55 783.75 153.47C782.14 158.07 775.16 152.93 778.63 150.02C774.44 150.02 775.65 142.9 779.58 144.24C775.96 138.97 786.04 134.68 786.04 141.58C788.27 136.16 796.36 141.69 791.38 145.24C792.03 145.3 792.63 145.61 793.06 146.1C794.38 147.68 793.25 152.32 790.45 150.94V150.93Z" fill="black"/>
</g>
</g>
<defs>
<clipPath id="clip0_448_393">
<rect width="1200" height="675" fill="white"/>
</clipPath>
<clipPath id="clip1_448_393">
<rect width="44" height="46" fill="white" transform="translate(782 454)"/>
</clipPath>
<clipPath id="clip2_448_393">
<rect width="27.5488" height="28.801" fill="white" transform="translate(844 471.625) rotate(-68.4586)"/>
</clipPath>
<clipPath id="clip3_448_393">
<rect width="382.226" height="137.794" fill="white" transform="translate(791.773 506)"/>
</clipPath>
<clipPath id="clip4_448_393">
<rect width="185.59" height="139.13" fill="white" transform="matrix(-0.833634 -0.552317 -0.552317 0.833634 815.558 668.504)"/>
</clipPath>
<clipPath id="clip5_448_393">
<rect width="56.18" height="138.92" fill="white" transform="translate(1103.98 102.736) rotate(-9.06899)"/>
</clipPath>
<clipPath id="clip6_448_393">
<rect width="41.73" height="27.85" fill="white" transform="translate(1137.1 28.2676) rotate(30.8661)"/>
</clipPath>
<clipPath id="clip7_448_393">
<rect width="58.11" height="86.16" fill="white" transform="translate(779.544 34.3315) rotate(-15.5001)"/>
</clipPath>
<clipPath id="clip8_448_393">
<rect width="35.71" height="36.03" fill="white" transform="translate(817 156)"/>
</clipPath>
<clipPath id="clip9_448_393">
<rect width="17.61" height="18.03" fill="white" transform="translate(776 138)"/>
</clipPath>
</defs>
</svg>
