<svg width="1200" height="630" viewBox="0 0 1200 630" fill="none" xmlns="http://www.w3.org/2000/svg">
<g clip-path="url(#clip0_448_923)">
<path opacity="0.5" d="M-967 66H756" stroke="#5FBFFA" stroke-width="2"/>
<path opacity="0.5" d="M-967 127H756" stroke="#5FBFFA" stroke-width="2"/>
<path opacity="0.5" d="M-967 188H756" stroke="#5FBFFA" stroke-width="2"/>
<path opacity="0.5" d="M-967 247H756" stroke="#5FBFFA" stroke-width="2"/>
<path opacity="0.5" d="M-967 309H756" stroke="#5FBFFA" stroke-width="2"/>
<path opacity="0.5" d="M-967 369H756" stroke="#5FBFFA" stroke-width="2"/>
<path opacity="0.5" d="M-967 430H756" stroke="#5FBFFA" stroke-width="2"/>
<path opacity="0.5" d="M-967 490H756" stroke="#5FBFFA" stroke-width="2"/>
<path opacity="0.5" d="M-967 550H756" stroke="#5FBFFA" stroke-width="2"/>
<path opacity="0.5" d="M-967 610H756" stroke="#5FBFFA" stroke-width="2"/>
<rect x="752" y="-40" width="8" height="762" fill="black"/>
<g clip-path="url(#clip1_448_923)">
<path d="M633.817 651.646C633.817 651.646 633.929 651.689 633.979 651.703L634.079 651.708L633.817 651.646ZM657.891 602.66C657.359 602.41 657.029 602.459 656.933 602.632C656.933 602.632 656.945 602.645 656.958 602.645C656.983 602.646 657.032 602.674 657.057 602.687C657.057 602.687 657.057 602.7 657.069 602.7C661.33 604.837 663.116 609.984 661.065 614.299C658.987 618.663 653.762 620.521 649.398 618.443C648.186 617.862 647.125 617.009 646.287 615.952C649.847 613.518 656.323 608.357 656.914 602.782C656.929 602.732 656.931 602.682 656.933 602.632C656.719 602.622 656.467 602.927 656.34 603.527C655.327 607.167 652.468 610.035 649.551 612.483C648.805 613.107 648.036 613.693 647.255 614.252L645.59 615.455C645.457 615.601 645.061 615.723 645.167 615.891L645.598 616.439C645.849 616.765 646.282 617.251 646.477 617.423C648.014 618.952 650.079 619.91 652.24 620.116C656.595 620.629 661.01 617.664 662.196 613.514C663.558 609.385 661.579 604.608 657.891 602.66ZM622.129 601.236C621.612 600.949 621.27 600.985 621.173 601.17C621.186 601.171 621.198 601.184 621.211 601.184C621.223 601.185 621.223 601.185 621.235 601.198C621.247 601.211 621.272 601.225 621.284 601.238L621.297 601.239C625.473 603.573 627.002 608.823 624.728 613.052C623.673 615.025 621.894 616.514 619.77 617.218C616.242 618.316 612.395 617.13 610.097 614.22C613.372 611.975 620.11 606.877 621.143 601.295C621.144 601.257 621.146 601.219 621.173 601.183C620.973 601.136 620.696 601.415 620.52 602C619.258 605.554 616.391 608.32 613.463 610.73C612.705 611.329 611.949 611.915 611.156 612.474L609.556 613.604L608.971 614.008C608.804 614.076 608.977 614.172 609.036 614.263L609.265 614.525C609.577 614.891 609.851 615.269 610.19 615.598C611.689 617.126 613.714 618.145 615.847 618.413C620.145 619.088 624.641 616.278 625.951 612.196C627.447 608.161 625.685 603.343 622.129 601.236Z" fill="black"/>
<path d="M657.891 602.66C657.359 602.41 657.029 602.459 656.933 602.632C656.719 602.623 656.467 602.927 656.34 603.527C655.327 607.167 652.468 610.035 649.551 612.484C648.805 613.108 648.036 613.693 647.255 614.252L645.59 615.455C645.457 615.601 645.061 615.723 645.167 615.892L645.598 616.44C645.849 616.766 646.282 617.251 646.477 617.423C648.014 618.952 650.079 619.91 652.24 620.116C656.595 620.629 661.01 617.664 662.196 613.515C663.558 609.385 661.579 604.608 657.891 602.66ZM657.216 603.703C657.235 603.54 657.242 603.389 657.234 603.263C657.295 603.316 657.369 603.357 657.443 603.41C660.623 605.438 662.008 609.634 660.741 613.024C659.61 616.469 655.955 618.786 652.403 618.369C650.644 618.206 648.936 617.44 647.664 616.212C647.494 616.041 647.566 616.145 647.543 616.094C647.582 616.058 647.491 616.117 647.634 616.022L648.234 615.568C649.029 614.959 649.8 614.323 650.548 613.649C653.474 610.998 656.371 607.83 657.216 603.703Z" fill="black"/>
<path d="M648.9 622.698C648.9 622.698 648.887 622.71 648.886 622.722C648.872 622.759 648.796 622.781 648.695 622.789C648.761 622.717 648.825 622.682 648.875 622.684L648.9 622.685L648.9 622.698Z" fill="black"/>
<path d="M622.129 601.236C621.612 600.949 621.27 600.985 621.173 601.17C620.973 601.136 620.696 601.415 620.52 602C619.258 605.554 616.391 608.32 613.463 610.73C612.706 611.329 611.949 611.914 611.156 612.474L609.556 613.604L608.971 614.008C608.804 614.076 608.977 614.172 609.036 614.263L609.265 614.525C609.577 614.891 609.851 615.269 610.19 615.598C611.689 617.125 613.714 618.145 615.847 618.413C620.145 619.088 624.641 616.277 625.951 612.196C627.447 608.16 625.685 603.343 622.129 601.236ZM621.38 602.251C621.412 602.076 621.432 601.913 621.437 601.787C621.497 601.852 621.571 601.906 621.644 601.96C624.706 604.121 625.9 608.347 624.51 611.655C623.256 615.045 619.593 617.223 616.073 616.669C614.316 616.455 612.648 615.64 611.401 614.401C610.639 614.835 613.108 613.124 614.447 611.907C617.384 609.296 620.276 606.24 621.38 602.251Z" fill="black"/>
<path d="M617.939 621.706C617.939 621.706 617.91 621.792 617.846 621.827C617.861 621.753 617.901 621.717 617.939 621.706Z" fill="black"/>
<path d="M617.939 621.706C617.939 621.706 617.91 621.792 617.846 621.827C617.861 621.753 617.901 621.717 617.939 621.706Z" fill="black"/>
<path d="M702.905 652.738C702.598 651.942 702.125 651.203 701.586 650.537C700.52 649.205 699.178 648.139 697.848 647.086C695.493 645.232 692.724 643.903 689.799 643.299C686.999 642.688 684.048 642.675 681.234 643.3C679.833 643.606 678.464 644.077 677.152 644.677C677.139 644.676 677.126 644.689 677.101 644.687C672.158 640.491 666.388 637.684 660.484 635.616C657.587 634.635 654.644 633.841 651.681 633.223C651.959 631.431 652.287 629.666 652.69 627.905C652.909 626.918 653.152 625.945 653.42 624.972L653.615 624.249C653.615 624.249 653.629 624.212 653.642 624.212C653.793 624.219 654.387 624.206 654.755 624.146C659.075 623.7 663.074 621.032 665.203 617.238C667.32 613.443 667.576 608.636 665.687 604.695C663.901 600.734 660.105 597.772 655.838 596.972C651.597 596.136 646.989 597.428 643.872 600.423C640.707 603.34 639.104 607.826 639.68 612.05C640.206 616.286 642.866 620.158 646.591 622.146C647.627 622.694 648.366 622.827 648.695 622.79C648.761 622.718 648.826 622.682 648.876 622.685L648.901 622.686L648.9 622.711C648.9 622.711 648.888 622.71 648.887 622.723C648.873 622.76 648.796 622.782 648.695 622.79C648.497 623.009 648.234 623.553 647.968 624.462C647.266 627.018 646.701 629.63 646.273 632.261C644.067 631.94 641.857 631.694 639.645 631.524C635.508 631.222 631.36 631.171 627.214 631.385L624.931 625.763L623.663 622.657L623.068 621.219C623.068 621.219 623.097 621.144 623.264 621.076C625.379 619.993 627.202 618.355 628.522 616.368C631.238 612.435 631.607 607.027 629.469 602.735C627.37 598.42 622.922 595.355 618.129 595.062C613.354 594.644 608.511 596.998 605.846 600.933C603.094 604.827 602.69 610.158 604.716 614.407C606.691 618.666 611.001 621.726 615.64 622.075C616.872 622.178 617.6 621.982 617.846 621.816C617.862 621.741 617.901 621.705 617.94 621.694C617.94 621.694 617.911 621.781 617.846 621.816C617.773 622.065 617.886 622.65 618.238 623.573L620.708 629.834L621.517 631.874C620.503 631.982 619.488 632.115 618.473 632.261C611.49 633.326 604.466 635.057 597.999 638.528C594.949 640.239 591.916 642.166 589.415 644.91C588.981 644.727 588.534 644.557 588.085 644.45C586.587 644.083 585.042 643.916 583.522 644.066C580.485 644.315 577.609 645.491 575.177 647.217C574.722 647.538 574.278 647.885 573.86 648.233C571.622 650.118 569.843 652.501 568.608 655.148C567.997 656.459 567.522 657.826 567.197 659.238C566.91 660.651 566.761 662.082 566.8 663.522C566.819 664.557 566.925 665.621 567.975 666.133C569.038 666.657 570.461 666.415 571.184 665.437C571.779 664.781 571.771 663.784 571.857 663.246C571.923 662.593 572.013 661.953 572.191 661.33C572.791 658.795 573.965 656.411 575.614 654.425C577.273 652.478 579.433 650.942 581.834 650.238C583.044 649.974 584.288 649.787 585.488 650.028C585.602 650.032 585.702 650.049 585.802 650.066C584.974 651.734 584.392 653.563 584.183 655.497C584.161 655.71 584.14 655.924 584.13 656.138C580.074 657.491 576.851 660.898 574.84 664.584C572.443 669.035 571.212 674.242 572.291 679.409C572.694 681.192 574.86 682.168 576.447 681.34C577.232 680.957 577.831 680.226 578.032 679.364C578.138 678.94 578.144 678.511 578.062 678.066L577.922 677.215C577.564 674.942 577.843 672.557 578.581 670.331C579.32 668.092 580.445 665.958 581.936 664.129C582.704 663.254 583.523 662.393 584.484 661.741C584.562 661.693 584.64 661.634 584.717 661.599C585.243 663.463 586.064 665.226 587.07 666.77C589.014 669.691 591.408 672.127 594.051 674.043C594.443 672.243 595.072 670.504 595.886 668.861C593.767 667.093 591.949 665.061 590.697 662.775C589.43 660.526 589.021 657.986 589.402 655.555C589.796 653.138 591.067 650.82 592.805 648.813C596.018 645.343 600.44 642.807 605.11 640.975C609.804 639.144 614.785 637.995 619.835 637.289C626.713 636.334 633.777 636.307 640.725 636.956C645.119 637.446 649.548 637.988 653.841 639.067C659.13 640.453 664.321 642.364 668.922 645.108C671.196 646.504 673.441 647.988 675.267 649.831C676.455 650.967 677.562 652.212 678.448 653.612C679.417 655.142 680.422 656.724 680.94 658.474C681.69 661.003 680.597 663.277 679.235 665.338C680.593 666.62 681.78 668.058 682.759 669.651C684.028 667.107 684.44 663.656 684.217 660.909C684.636 661.129 685.016 661.397 685.408 661.666C687.121 662.9 688.555 664.487 689.561 666.321C690.581 668.143 691.2 670.188 691.327 672.249C691.38 672.768 691.37 673.298 691.348 673.814C691.285 674.417 691.472 675.345 691.964 675.934C692.894 677.21 694.913 677.472 696.142 676.453C696.756 675.974 697.165 675.248 697.261 674.47C697.303 673.778 697.274 673.284 697.275 672.679C697.223 671.529 697.082 670.388 696.853 669.255C696.369 667.002 695.477 664.845 694.222 662.925C692.047 659.502 688.755 656.827 685.033 655.381C684.902 654.896 684.733 654.422 684.499 653.996C683.794 652.188 682.736 650.667 681.572 649.268L681.623 649.27C682.875 648.882 684.171 648.672 685.483 648.665C688.084 648.599 690.716 649.292 692.995 650.562C694.29 651.273 695.461 652.193 696.488 653.259C697.659 654.482 698.186 655.437 698.775 657.001C699.227 658.232 699.947 659.107 701.36 659.105C702.192 659.102 703.052 658.76 703.598 658.077C704.889 656.505 703.482 654.301 702.906 652.725L702.905 652.738ZM615.847 618.413C613.714 618.146 611.689 617.126 610.19 615.599C609.851 615.269 609.577 614.892 609.265 614.525L609.036 614.263C608.977 614.172 608.804 614.077 608.971 614.008L609.556 613.604L611.156 612.474C611.949 611.915 612.706 611.329 613.463 610.731C616.391 608.32 619.259 605.554 620.52 602.001C620.696 601.415 620.973 601.137 621.173 601.171C621.27 600.986 621.612 600.95 622.129 601.237C625.685 603.343 627.447 608.161 625.951 612.197C624.641 616.278 620.145 619.088 615.847 618.413ZM646.477 617.423C646.282 617.251 645.849 616.766 645.598 616.44L645.167 615.892C645.061 615.723 645.457 615.601 645.59 615.456L647.255 614.253C648.036 613.693 648.805 613.108 649.551 612.484C652.468 610.035 655.327 607.168 656.34 603.528C656.467 602.928 656.719 602.623 656.933 602.632C657.029 602.46 657.359 602.411 657.891 602.66C661.579 604.609 663.558 609.385 662.196 613.515C661.01 617.665 656.595 620.63 652.24 620.116C650.079 619.91 648.014 618.952 646.477 617.423Z" fill="black"/>
</g>
<rect x="1164" y="309" width="7.99999" height="142" rx="3.99999" transform="rotate(180 1164 309)" fill="black"/>
<rect x="938" y="407" width="8" height="69" rx="4" transform="rotate(90 938 407)" fill="black"/>
<rect x="1052" y="51" width="8.00001" height="163" rx="4" transform="rotate(90 1052 51)" fill="black"/>
<rect x="806" y="275" width="7.99999" height="68" rx="4" transform="rotate(180 806 275)" fill="black"/>
<rect x="806" y="355" width="8" height="46" rx="4" transform="rotate(180 806 355)" fill="black"/>
<g clip-path="url(#clip2_448_923)">
<path d="M808.308 111.194C800.923 110.698 807.666 87.8238 799.759 93.8264C795.439 97.2128 792.94 107.178 786.773 106.776C777.598 106.032 757.31 100.743 776.899 115.006C782.505 119.033 780.257 121.169 778.642 123.18C772.105 131.842 771.268 134.434 771.367 135.724C773.002 141.331 790.222 124.055 794.799 129.337C805.268 140.657 805.775 142.079 808.134 141.582C810.496 141.071 808.549 134.404 807.375 128.333C805.965 119.323 834.625 113.35 808.293 111.19L808.308 111.194Z" fill="black"/>
<path d="M790.889 20.8939C786.411 22.4995 784.583 7.34775 781.447 12.9091C779.764 15.9985 780.805 22.4829 777.077 23.843C771.484 25.7649 758.192 27.8755 773.344 31.2085C777.66 32.1299 776.884 33.9551 776.444 35.5588C774.792 42.322 774.949 44.0554 775.335 44.7931C777.716 47.6532 783.489 33.099 787.526 35.0309C796.554 38.9825 797.217 39.6837 798.473 38.7841C799.73 37.8845 796.903 34.4719 794.669 31.2033C791.55 26.2811 806.918 15.4209 790.865 20.9178L790.889 20.8939Z" fill="#E7BB43"/>
<path d="M841.804 54.6866C837.679 52.349 847.812 40.9475 841.609 42.2479C838.197 43.0178 834.016 48.1002 830.575 46.1562C825.488 43.1778 815.215 34.4844 822.621 48.1968C824.751 52.0766 822.882 52.7 821.403 53.4179C815.27 56.6279 814.082 57.8955 813.768 58.6748C813.179 62.3845 827.843 57.1316 829.047 61.4672C831.995 70.9262 831.899 71.9015 833.404 72.2614C834.909 72.6213 835.615 68.2103 836.593 64.3587C838.235 58.74 856.414 63.2229 841.808 54.6723L841.804 54.6866Z" fill="#F39745"/>
<path d="M741.024 62.947C736.488 61.5932 743.889 48.2249 738.108 50.8726C734.94 52.3819 731.985 58.2531 728.184 57.1363C722.566 55.3702 710.644 49.1795 720.862 60.8904C723.801 64.1976 722.099 65.2209 720.815 66.2532C715.531 70.7438 714.64 72.2489 714.514 73.0732C714.756 76.8153 727.92 68.4362 730.037 72.406C734.989 80.9705 735.113 81.9384 736.648 81.9622C738.188 81.9717 737.909 77.5255 738.036 73.5566C738.409 67.717 757.15 68.0413 741.005 62.9566L741.024 62.947Z" fill="#64A03D"/>
</g>
<g clip-path="url(#clip3_448_923)">
<path d="M899.487 507.37C899.487 511.925 894.157 518.441 888.828 521.902C888.645 522.039 888.555 522.129 888.555 522.222C888.555 522.315 888.691 522.311 888.964 522.311C889.1 522.311 891.242 522.175 892.472 522.175C893.157 522.175 893.792 522.175 894.34 522.222C894.842 522.268 895.251 522.631 895.341 523.086C895.567 524.044 895.843 525.819 896.026 527.186C896.026 527.641 895.707 527.96 895.205 528.007C892.335 528.19 883.179 528.735 880.263 528.871C879.761 528.871 879.216 528.689 878.986 528.233C878.531 527.232 877.756 524.406 877.756 524.041C877.756 523.632 877.986 523.219 878.302 522.993C887.049 517.571 893.107 509.006 893.2 505.864C893.153 504.497 892.106 503.995 891.105 503.995C889.509 503.995 887.006 505.681 885.137 508.643C885.001 508.869 884.772 509.009 884.499 509.009C884.226 509.009 883.954 508.826 883.954 508.826C882.906 508.144 881.676 507.14 880.991 506.366C880.765 506.14 880.626 505.82 880.626 505.455C880.626 505.318 880.672 505.089 880.715 504.953C881.58 502.812 884.998 498.164 889.463 498.164C893.609 498.164 899.487 502.675 899.487 507.367V507.37Z" fill="black"/>
<path d="M901.492 524.409C900.398 522.587 900.079 519.807 900.079 517.483C900.079 511.469 903.314 498.349 911.832 498.349C913.654 498.349 918.711 500.354 920.443 503.316C921.444 505.048 921.81 507.233 921.81 509.331C921.81 516.12 918.349 528.921 909.964 528.921C908.188 528.921 903.494 527.325 901.489 524.409H901.492ZM906.549 518.484C906.549 522.085 907.779 523.132 909.009 523.132C912.381 523.132 915.207 514.338 915.207 507.961C915.207 504.819 914.206 503.952 913.112 503.952C909.83 503.952 906.552 512.197 906.552 518.484H906.549Z" fill="black"/>
<path d="M942.676 507.37C942.676 511.925 937.347 518.441 932.017 521.902C931.834 522.039 931.744 522.129 931.744 522.222C931.744 522.315 931.881 522.311 932.153 522.311C932.29 522.311 934.431 522.175 935.661 522.175C936.346 522.175 936.981 522.175 937.529 522.222C938.031 522.268 938.44 522.631 938.53 523.086C938.757 524.044 939.032 525.819 939.215 527.186C939.215 527.641 938.896 527.96 938.394 528.007C935.525 528.19 926.368 528.735 923.452 528.871C922.95 528.871 922.405 528.689 922.176 528.233C921.72 527.232 920.945 524.406 920.945 524.041C920.945 523.632 921.175 523.219 921.491 522.993C930.238 517.571 936.296 509.006 936.389 505.864C936.343 504.497 935.295 503.995 934.294 503.995C932.699 503.995 930.195 505.681 928.326 508.643C928.19 508.869 927.961 509.009 927.688 509.009C927.415 509.009 927.143 508.826 927.143 508.826C926.095 508.144 924.865 507.14 924.18 506.366C923.954 506.14 923.815 505.82 923.815 505.455C923.815 505.318 923.861 505.089 923.905 504.953C924.769 502.812 928.187 498.164 932.652 498.164C936.798 498.164 942.676 502.675 942.676 507.367V507.37Z" fill="black"/>
<path d="M961.355 515.432C961.9 515.432 962.13 515.798 962.22 516.253C962.402 517.301 962.629 519.306 962.629 520.536C962.629 520.945 962.356 521.357 961.854 521.357C961.628 521.357 959.849 521.403 959.623 521.403C959.078 521.403 958.802 521.812 958.712 522.268C958.439 524.226 958.12 526.185 957.891 528.1C957.844 528.555 957.525 528.828 957.116 528.828C956.341 528.828 953.608 528.007 952.697 527.644C952.152 527.461 951.876 526.959 951.876 526.504C951.923 525.456 952.195 522.677 952.195 522.494C952.195 522.128 951.923 521.902 951.604 521.902C950.556 521.902 944.452 522.494 944.086 522.494C943.541 522.494 943.129 522.268 942.946 521.856C942.49 520.945 941.49 518.119 941.49 517.437C941.49 517.028 941.626 516.573 941.855 516.297C945.137 511.925 952.195 501.764 954.337 498.985C954.563 498.712 954.839 498.529 955.201 498.529C955.61 498.529 956.478 499.121 956.797 499.121C956.98 499.121 957.116 499.031 957.206 498.848C957.342 498.575 957.661 498.346 958.027 498.346C958.572 498.346 961.671 499.211 962.855 499.623C963.22 499.759 963.357 500.078 963.357 500.398C963.357 500.487 963.31 500.717 963.31 500.717C962.489 503.177 961.216 508.234 960.029 514.475C960.029 514.475 959.982 514.747 959.982 514.884C959.982 515.156 960.165 515.429 960.484 515.429H961.349L961.355 515.432ZM948.784 515.888C948.784 516.024 948.92 516.16 949.149 516.16C949.239 516.16 951.337 515.934 952.431 515.841C952.886 515.795 953.159 515.569 953.252 515.113C953.754 512.287 954.665 507.868 954.665 507.549C954.665 507.413 954.665 507.323 954.619 507.323C954.529 507.323 954.392 507.506 954.392 507.506C953.847 508.234 949.382 514.887 948.926 515.569C948.836 515.705 948.79 515.795 948.79 515.888H948.784Z" fill="black"/>
<path d="M957.652 608.978C956.332 608.249 953.915 605.879 952.595 604.513C952.276 604.193 952.14 603.784 952.14 603.372C952.14 599.954 954.51 588.384 955.647 584.374C955.694 584.191 955.694 583.965 955.694 583.782C955.694 582.825 955.511 581.322 955.511 581.049C955.511 580.684 955.694 580.368 956.056 580.228C958.607 579.134 961.705 578.406 963.664 578.406C970.679 578.406 976.284 585.97 976.284 591.709C976.284 600.683 968.448 608.612 959.338 609.247C958.746 609.247 958.154 609.201 957.652 608.975V608.978ZM969.997 589.707C969.997 586.289 967.128 584.241 964.029 584.241C963.71 584.241 963.437 584.241 963.118 584.288C962.573 584.377 962.297 584.607 962.207 585.062C961.113 589.527 959.657 595.861 958.746 601.872C958.746 601.872 958.7 602.145 958.7 602.238C958.7 602.604 958.926 602.74 959.338 602.74C962.756 602.74 969.997 598.321 969.997 589.71V589.707Z" fill="black"/>
<path d="M1000.29 581.415V582.555C1000.29 590.345 997.696 609.297 988.084 609.297C984.304 609.297 980.52 606.747 979.2 604.878C978.199 603.465 977.744 601.141 977.744 599C977.744 591.529 980.613 582.373 982.073 579.636C982.345 579.181 982.665 578.908 983.256 578.908C984.121 578.908 986.538 579.683 987.675 580.092C988.041 580.228 988.22 580.637 988.22 581.003C988.22 581.232 988.131 581.505 988.131 581.505C986.309 586.426 984.257 594.99 984.257 599.273C984.257 601.643 984.713 603.282 986.535 603.282C989.131 603.282 990.591 599.409 991.775 594.671C993.141 589.248 993.962 582.233 994.189 579.866C994.235 579.41 994.554 579.138 994.963 579.138C995.648 579.138 998.381 579.822 999.475 580.231C1000.02 580.458 1000.25 580.96 1000.3 581.415H1000.29Z" fill="black"/>
<path d="M1015.56 598.179C1015.56 598.405 1015.69 598.588 1015.69 598.588C1017.24 601.002 1019.06 603.599 1020.57 604.922C1020.75 605.105 1020.84 605.331 1020.84 605.56C1020.84 605.743 1020.75 605.926 1020.61 606.106C1019.61 607.063 1017.7 608.476 1016.38 609.068C1016.38 609.068 1016.2 609.158 1015.92 609.158C1015.51 609.158 1015.15 608.975 1014.92 608.792C1012.41 606.651 1010.41 602.096 1009.64 599.406C1009.45 598.951 1009.27 598.632 1008.91 598.632H1008.36C1007.91 598.632 1007.72 598.858 1007.68 599.316C1007.13 602.369 1006.68 605.511 1006.36 608.473C1006.27 608.928 1005.95 609.201 1005.54 609.201C1004.58 609.201 1001.25 608.154 1000.93 608.017C1000.25 607.745 1000.16 607.333 1000.11 606.877C1000.2 601.684 1002.34 590.612 1004.08 583.916C1004.17 583.55 1004.17 583.371 1004.17 583.188C1004.17 582.413 1003.94 581.456 1003.94 581.093C1003.94 580.684 1004.26 580.318 1004.58 580.182C1006.35 579.454 1009.41 578.543 1013.19 578.543C1019.07 578.543 1023.76 584.74 1023.76 588.657C1023.76 592.574 1020.43 596.085 1016.06 597.631C1015.74 597.767 1015.56 597.903 1015.56 598.176V598.179ZM1010.68 585.059C1010.5 585.698 1008.86 592.53 1008.86 592.986C1008.86 593.305 1009.04 593.441 1009.36 593.441C1013.6 593.441 1016.97 590.299 1016.97 587.563C1016.97 585.193 1015.05 584.192 1012.82 584.192C1012.46 584.192 1012.1 584.192 1011.73 584.238C1011.14 584.285 1010.82 584.604 1010.68 585.059Z" fill="black"/>
<path d="M1043.76 578.726C1044.49 578.726 1047.58 579.59 1048.73 580.002C1049.04 580.139 1049.27 580.458 1049.27 580.823C1049.27 580.96 1049.22 581.096 1049.22 581.096C1047.77 585.242 1044.9 597.68 1043.66 608.476C1043.62 608.931 1043.3 609.161 1042.94 609.161C1042.03 609.161 1038.79 608.203 1038.29 608.02C1037.7 607.794 1037.51 607.382 1037.47 606.837C1037.47 604.832 1038.11 600.503 1038.11 600.23C1038.11 599.865 1037.83 599.592 1037.38 599.592C1035.83 599.682 1033.82 599.728 1032.09 599.775C1031.59 599.775 1031.27 600.184 1031.18 600.596C1030.72 603.239 1030.32 605.882 1030.04 608.479C1029.99 608.934 1029.63 609.164 1029.27 609.164C1028.31 609.164 1025.17 608.253 1024.62 608.023C1024.16 607.841 1023.89 607.385 1023.84 606.84C1023.93 604.562 1024.53 600.097 1024.53 599.914C1024.53 599.642 1024.44 599.505 1024.3 599.369C1024.21 599.233 1024.07 599.096 1023.98 598.824C1023.8 598.142 1023.66 596.912 1023.61 595.998C1023.61 595.406 1023.75 595.176 1024.57 594.95C1025.21 594.767 1025.48 594.448 1025.57 594.039C1026.67 587.842 1028.22 581.694 1029.17 579.37C1029.35 579.004 1029.67 578.778 1030.08 578.778C1030.9 578.778 1034.04 579.599 1035.09 580.008C1035.41 580.098 1035.64 580.51 1035.64 580.873C1035.64 581.009 1035.55 581.282 1035.55 581.282C1034.73 583.47 1033.68 587.659 1032.54 593.035C1032.54 593.035 1032.49 593.261 1032.49 593.401C1032.49 593.72 1032.77 593.993 1033.13 593.993C1033.32 593.993 1037.46 593.856 1038.37 593.856C1038.83 593.856 1039.24 593.537 1039.33 593.082C1040.47 587.25 1041.88 581.601 1042.84 579.37C1042.97 579.004 1043.34 578.732 1043.75 578.732L1043.76 578.726Z" fill="black"/>
<path d="M1048.45 601.278C1048.45 600.732 1047.67 598.817 1047.67 597.996C1047.67 597.541 1047.9 597.222 1048.4 597.132C1048.9 597.042 1049.5 596.906 1049.5 596.906C1050.14 596.769 1050.32 596.54 1050.59 595.995C1053 591.21 1056.92 582.054 1058.97 579.64C1059.25 579.321 1059.56 579.231 1059.88 579.231C1060.34 579.231 1061.16 579.55 1061.43 579.55C1061.8 579.55 1062.16 579.324 1062.21 578.958C1062.25 578.639 1062.43 578.366 1062.8 578.366C1063.44 578.366 1066.67 579.507 1067.4 579.869C1067.9 580.098 1068.22 580.554 1068.31 581.099C1068.81 583.696 1069.04 591.396 1069.04 598.229C1069.04 602.557 1068.9 606.474 1068.67 608.526C1068.63 608.891 1068.31 609.21 1067.76 609.21C1066.99 609.21 1063.75 608.708 1062.94 608.436C1062.48 608.299 1062.21 607.89 1062.21 607.252C1062.21 606.205 1062.34 602.88 1062.34 602.148C1062.34 601.739 1062.07 601.464 1061.62 601.464C1059.56 601.464 1056.29 601.646 1055.74 601.693C1055.19 601.739 1054.96 601.966 1054.69 602.514C1053.83 604.426 1053.05 606.886 1052.37 608.482C1052.18 608.848 1051.86 609.027 1051.54 609.027C1050.82 609.027 1048.13 607.751 1047.4 607.252C1047.08 607.026 1046.85 606.75 1046.85 606.341C1046.85 606.112 1046.9 605.975 1046.9 605.975L1048.36 601.829C1048.45 601.603 1048.45 601.464 1048.45 601.284L1048.45 601.278ZM1057.38 595.629C1057.38 595.902 1057.56 595.995 1058.02 595.995C1059.16 595.995 1061.02 595.948 1061.62 595.948C1062.12 595.948 1062.39 595.722 1062.48 595.084C1062.53 594.083 1062.53 593.032 1062.53 591.985C1062.53 589.478 1062.44 587.064 1062.39 585.608C1062.39 585.335 1062.3 585.199 1062.21 585.199C1062.11 585.199 1062.02 585.289 1061.93 585.471C1060.79 587.932 1059.2 591.529 1057.47 595.356C1057.47 595.356 1057.38 595.539 1057.38 595.629Z" fill="black"/>
<path d="M1076.92 609.204C1075.97 609.204 1073.14 608.34 1072.41 608.064C1071.82 607.835 1071.64 607.379 1071.59 606.88C1071.82 600.274 1075.28 583.69 1077.15 579.5C1077.33 579.091 1077.83 578.816 1078.38 578.816C1079.02 578.816 1083.76 579.773 1085.71 580.591C1086.22 580.817 1086.26 581.319 1086.26 581.775C1086.31 583.55 1086.31 590.339 1086.26 594.532C1086.26 594.715 1086.31 594.898 1086.4 594.898C1086.49 594.898 1086.62 594.578 1086.62 594.578C1088.53 589.794 1090.68 583.69 1092.86 579.318C1093.09 578.952 1093.45 578.679 1093.96 578.679C1095.37 578.679 1100.47 580.046 1101.98 580.731C1102.38 580.867 1102.57 581.233 1102.57 581.595C1102.57 581.731 1102.52 581.868 1102.52 581.868C1101.02 586.516 1098.33 598.133 1097.14 608.519C1097.1 608.928 1096.74 609.204 1096.32 609.204C1095.6 609.204 1092.59 608.476 1091.72 608.064C1091.18 607.791 1090.95 607.379 1090.9 606.88C1090.9 602.415 1093.73 590.343 1093.73 589.797C1093.73 589.707 1093.68 589.614 1093.64 589.614C1093.59 589.614 1093.5 589.704 1093.41 589.887C1091.63 593.943 1090.08 598.907 1087.99 604.42C1087.85 604.785 1087.44 605.105 1087.03 605.105C1086.35 605.105 1083.66 604.24 1082.47 603.692C1081.93 603.419 1081.7 602.87 1081.65 602.415C1081.15 598.861 1081.29 593.485 1081.15 589.704C1081.1 589.475 1081.06 589.385 1081.01 589.385C1080.97 589.385 1080.88 589.475 1080.83 589.658C1079.65 594.851 1078.51 601.867 1077.78 608.519C1077.69 608.928 1077.32 609.204 1076.91 609.204H1076.92Z" fill="black"/>
<path d="M849.763 526.553C850.891 526.553 855.52 527.929 856.335 528.369C856.772 528.62 857.085 529.057 857.085 529.559C857.085 529.683 857.023 529.934 857.023 529.934C854.894 535.942 850.702 553.279 848.762 568.928C848.7 569.554 848.198 569.928 847.634 569.928C846.633 569.928 843.504 569.052 842.565 568.677C842.001 568.426 841.564 567.927 841.502 567.05L841.378 564.983C841.378 564.67 841.254 564.357 841.065 564.357C840.941 564.357 840.814 564.419 840.628 564.67C838.626 567.611 836.246 570.114 834.245 570.114C829.863 570.114 824.918 564.419 824.918 558.786C824.918 548.52 830.176 538.006 838.062 538.006C839.503 538.006 841.443 538.756 843.445 539.822C843.445 539.822 843.758 540.011 843.947 540.011C844.322 540.011 844.573 539.76 844.697 539.196C846.01 533.752 847.262 529.683 848.328 527.427C848.579 526.925 849.143 526.55 849.769 526.55L849.763 526.553ZM841.189 556.787C841.877 553.533 843.067 547.649 843.067 547.147C843.067 546.71 842.878 546.332 842.379 546.146C841.502 545.833 840.69 545.644 840.188 545.644C836.119 545.644 833.867 554.218 833.867 558.538C833.867 560.354 834.304 561.605 834.868 561.605C836.181 561.605 838.561 559.917 840.377 558.225C840.879 557.788 841.127 557.224 841.192 556.784L841.189 556.787Z" fill="black"/>
<path d="M863.846 535.695C867.602 535.695 869.917 533.315 869.917 529.999C869.917 526.306 866.285 524.803 863.282 524.803C862.656 524.803 861.718 525.116 861.281 525.429C859.967 526.492 858.588 528.183 858.588 530.374C858.588 533.253 860.215 535.695 863.846 535.695Z" fill="black"/>
<path d="M884.378 567.177L884.189 564.549C884.189 564.236 884.065 564.047 883.938 564.047C883.811 564.047 883.687 564.171 883.563 564.36C881.372 567.865 878.869 570.118 876.929 570.118C872.485 570.118 867.54 564.673 867.54 558.789C867.54 548.337 872.547 538.009 881.186 538.009C884.254 538.009 890.513 540.451 895.019 543.392C895.456 543.643 895.769 544.142 895.769 544.705C895.769 544.895 895.645 545.393 895.645 545.393C893.141 554.28 892.264 563.982 892.14 568.99C892.078 569.554 891.638 569.991 891.077 569.991C889.451 569.991 886.008 569.052 885.506 568.801C884.691 568.364 884.443 567.8 884.378 567.174V567.177ZM883.814 556.787C884.502 553.534 885.692 547.649 885.692 547.147C885.692 546.71 885.503 546.332 885.004 546.146C884.127 545.833 883.315 545.644 882.813 545.644C878.745 545.644 876.492 554.218 876.492 558.538C876.492 560.354 876.929 561.606 877.493 561.606C878.807 561.606 881.186 559.917 883.002 558.225C883.504 557.788 883.752 557.224 883.817 556.784L883.814 556.787Z" fill="black"/>
<path d="M917.298 538.133C920.428 538.133 924.933 542.704 924.933 545.833C924.933 548.65 922.554 561.733 920.614 569.055C920.425 569.557 919.864 570.056 919.3 570.056C917.859 570.056 914.169 568.68 912.79 567.927C912.288 567.614 912.04 567.05 912.04 566.486C912.04 566.235 912.102 565.922 912.102 565.922C912.102 565.922 915.293 552.777 915.293 548.771C915.293 547.708 915.104 547.017 914.667 547.017C913.729 547.017 911.036 548.52 908.721 550.896C908.095 551.522 907.782 552.272 907.658 552.898C906.53 558.532 905.155 565.541 904.405 568.983C904.281 569.547 903.779 569.984 903.215 569.984C901.839 569.984 897.705 568.608 896.832 568.168C896.268 567.855 896.017 567.353 896.017 566.793C896.017 566.356 899.772 544.197 900.522 539.066C900.646 538.44 901.21 538.003 901.774 538.003C902.462 538.003 906.592 538.753 907.782 539.255C908.47 539.568 908.91 540.256 908.91 540.944C908.91 541.569 908.972 542.508 908.972 543.447C908.972 543.822 909.096 544.011 909.223 544.011C909.412 544.011 909.66 543.698 909.66 543.698C912.164 540.507 915.042 538.127 917.295 538.127L917.298 538.133Z" fill="black"/>
<path d="M940.145 538.009C942.961 538.009 949.847 540.702 953.853 543.268C954.29 543.581 954.541 544.145 954.541 544.709C954.541 544.96 954.479 545.211 954.479 545.211C953.165 550.593 951.473 560.983 949.974 568.556C949.224 572.435 946.218 581.511 936.956 581.511C934.703 581.511 930.697 580.26 928.757 578.819C928.193 578.444 928.007 578.004 928.007 577.505C928.007 576.755 928.884 573.749 929.197 573.061C929.386 572.624 929.761 572.373 930.198 572.373C930.322 572.373 930.573 572.435 930.7 572.497C932.578 573.312 934.205 573.625 935.395 573.625C940.526 573.625 942.091 567.93 942.091 565.299C942.091 564.986 941.967 564.797 941.84 564.797C941.713 564.797 941.651 564.859 941.465 565.11C939.587 567.738 937.396 569.681 935.58 569.681C931.137 569.681 926.38 564.484 926.38 558.414C926.38 547.897 931.701 538.009 940.151 538.009H940.145ZM942.648 556.787C943.336 553.534 944.526 547.649 944.526 547.147C944.526 546.71 944.337 546.332 943.838 546.146C942.961 545.833 942.15 545.644 941.648 545.644C937.579 545.644 935.326 554.218 935.326 558.538C935.326 560.354 935.763 561.606 936.327 561.606C937.641 561.606 940.021 559.917 941.837 558.225C942.339 557.788 942.587 557.224 942.648 556.784V556.787Z" fill="black"/>
<path d="M982.522 550.652C982.522 556.223 979.141 570.118 969.065 570.118C966.248 570.118 960.927 568.553 958.049 565.485C956.295 563.607 955.421 560.729 955.421 557.224C955.421 550.088 959.614 537.947 968.253 537.947C971.506 537.947 977.391 540.389 980.083 543.079C981.71 544.767 982.463 547.773 982.525 550.339V550.652H982.522ZM973.381 549.902C973.381 547.085 972.504 545.207 970.815 545.207C967.373 545.207 964.432 553.407 964.432 558.414C964.432 560.918 965.247 562.733 967.06 562.733C970.877 562.733 973.381 554.658 973.381 549.902Z" fill="black"/>
<path d="M999.67 551.903C999.67 551.401 1000.49 548.399 1000.49 547.209C1000.49 546.019 1000.17 545.269 999.295 545.269C996.54 545.269 993.036 551.842 993.036 556.911C993.036 559.979 994.412 561.856 996.729 561.856C998.92 561.856 1001.3 560.979 1003.05 559.979C1003.05 559.979 1003.3 559.855 1003.55 559.855C1003.99 559.855 1004.24 560.044 1004.49 560.481C1004.93 561.296 1006.12 563.861 1006.12 564.738C1006.12 565.426 1005.87 565.928 1005.49 566.303C1003.24 568.305 1000.3 570.121 996.791 570.121C994.725 570.121 988.967 568.432 986.588 565.426C984.899 563.297 984.022 560.608 984.022 557.165C984.022 548.402 989.779 537.95 996.915 537.95C999.357 537.95 1008.99 541.269 1008.99 546.338C1008.99 547.841 1007.8 550.844 1007.18 551.848C1006.87 552.35 1006.36 552.725 1005.68 552.787C1004.67 552.849 1002.04 552.849 1000.61 552.849C1000.04 552.787 999.667 552.412 999.667 551.91L999.67 551.903Z" fill="black"/>
<path d="M1037.04 550.652C1037.04 556.223 1033.66 570.118 1023.58 570.118C1020.76 570.118 1015.44 568.553 1012.56 565.485C1010.81 563.607 1009.94 560.729 1009.94 557.224C1009.94 550.088 1014.13 537.947 1022.77 537.947C1026.02 537.947 1031.91 540.389 1034.6 543.079C1036.22 544.767 1036.98 547.773 1037.04 550.339V550.652H1037.04ZM1027.9 549.902C1027.9 547.085 1027.02 545.207 1025.33 545.207C1021.89 545.207 1018.95 553.407 1018.95 558.414C1018.95 560.918 1019.76 562.733 1021.58 562.733C1025.4 562.733 1027.9 554.658 1027.9 549.902Z" fill="black"/>
<path d="M1059.01 538.133C1062.14 538.133 1066.64 542.704 1066.64 545.833C1066.64 548.65 1064.26 561.733 1062.33 569.055C1062.14 569.557 1061.58 570.056 1061.01 570.056C1059.57 570.056 1055.88 568.68 1054.5 567.927C1054 567.614 1053.75 567.05 1053.75 566.486C1053.75 566.235 1053.81 565.922 1053.81 565.922C1053.81 565.922 1057 552.777 1057 548.771C1057 547.708 1056.82 547.017 1056.38 547.017C1055.44 547.017 1052.75 548.52 1050.43 550.896C1049.81 551.522 1049.49 552.272 1049.37 552.898C1048.24 558.532 1046.87 565.541 1046.12 568.983C1045.99 569.547 1045.49 569.984 1044.93 569.984C1043.55 569.984 1039.42 568.608 1038.54 568.168C1037.98 567.855 1037.73 567.353 1037.73 566.793C1037.73 566.356 1041.48 544.197 1042.23 539.066C1042.36 538.44 1042.92 538.003 1043.49 538.003C1044.17 538.003 1048.3 538.753 1049.49 539.255C1050.18 539.568 1050.62 540.256 1050.62 540.944C1050.62 541.569 1050.68 542.508 1050.68 543.447C1050.68 543.822 1050.81 544.011 1050.93 544.011C1051.12 544.011 1051.37 543.698 1051.37 543.698C1053.88 540.507 1056.75 538.127 1059.01 538.127L1059.01 538.133Z" fill="black"/>
<path d="M1076.47 564.924C1076.47 567.992 1074.53 570.244 1071.34 570.244C1068.15 570.244 1066.71 567.865 1066.71 565.299C1066.71 563.108 1067.52 561.98 1068.9 560.728C1069.27 560.353 1070.03 560.041 1070.65 560.041C1073.47 560.041 1076.47 561.605 1076.47 564.924H1076.47Z" fill="black"/>
<path d="M1108.39 541.263C1108.39 541.514 1108.27 541.889 1108.27 541.889C1105.45 551.089 1103.95 563.421 1103.76 568.99C1103.76 569.554 1103.33 570.052 1102.76 570.052C1101.45 570.052 1098.51 569.237 1097.63 568.863C1097.01 568.612 1096.57 568.048 1096.38 567.174C1096.26 566.672 1096.19 565.172 1096.13 564.168C1096.13 563.731 1096 563.48 1095.82 563.48C1095.63 563.48 1095.44 563.855 1095.44 563.855C1093.19 567.611 1090.37 570.176 1088.05 570.176C1084.36 570.176 1079.48 565.169 1079.48 560.223C1079.48 552.588 1082.17 543.261 1083.74 539.382C1083.93 538.88 1084.42 538.443 1084.99 538.443C1085.87 538.443 1089.87 540.008 1091.31 540.823C1091.75 541.074 1092.06 541.511 1092.06 542.013C1092.06 542.45 1091.94 542.828 1091.94 542.828C1090.68 546.521 1088.3 556.161 1088.3 559.852C1088.3 560.791 1088.43 561.354 1088.81 561.354C1090.37 561.354 1093.31 559.226 1095.38 556.536C1095.75 556.034 1095.94 555.597 1096.07 554.847C1096.88 549.276 1098.51 542.58 1099.63 539.326C1099.82 538.762 1100.38 538.325 1101.01 538.325C1101.95 538.325 1105.58 539.326 1107.46 540.141C1107.96 540.33 1108.4 540.767 1108.4 541.269L1108.39 541.263Z" fill="black"/>
<path d="M1119.41 538.009C1122.85 538.009 1133.18 541.201 1133.18 545.833C1133.18 547.46 1131.93 549.964 1131.43 550.652C1130.92 551.34 1130.3 551.529 1129.74 551.591H1125.04C1124.42 551.591 1124.1 551.154 1124.1 550.776C1124.1 550.274 1124.73 548.647 1124.73 547.395C1124.73 545.706 1123.98 544.829 1123.04 544.829C1120.91 544.829 1119.03 548.334 1119.03 550.026C1119.03 554.345 1130.93 553.345 1130.93 560.543C1130.93 565.048 1126.48 570.183 1120.1 570.183C1116.34 570.183 1110.83 568.367 1108.83 566.551C1108.27 566.049 1108.14 565.612 1108.14 565.299C1108.14 564.484 1108.89 561.733 1109.46 560.543C1109.71 559.979 1109.96 559.793 1110.33 559.793C1110.71 559.793 1110.96 560.044 1111.08 560.044C1113.27 561.234 1116.34 562.861 1118.91 562.861C1120.35 562.861 1121.66 562.359 1121.79 561.358C1121.79 558.73 1109.7 558.417 1109.7 550.28C1109.7 545.273 1114.27 538.012 1119.41 538.012L1119.41 538.009Z" fill="black"/>
<path d="M867.038 540.699C867.038 543.202 862.845 564.673 861.969 568.742C861.922 568.946 861.872 569.16 861.82 569.374C861.81 569.374 861.801 569.374 861.792 569.377C860.8 573.582 857.609 581.508 848.951 581.508C846.698 581.508 842.692 580.256 840.752 578.818C840.188 578.444 840.002 578.004 840.002 577.505C840.002 576.752 840.879 573.749 841.192 573.058C841.378 572.621 841.753 572.37 842.193 572.37C842.317 572.37 842.568 572.432 842.692 572.497C844.57 573.309 846.199 573.622 847.386 573.622C848.703 573.622 849.98 573.213 851.012 572.389C851.48 572.017 851.885 571.574 852.236 571.09C852.954 570.099 853.134 568.866 853.348 567.691C853.596 566.331 853.844 564.967 854.086 563.604C854.488 561.339 854.876 559.074 855.263 556.809C855.678 554.373 856.087 551.938 856.499 549.502C856.868 547.314 857.237 545.13 857.618 542.945C857.832 541.718 858.027 540.482 858.275 539.258C858.402 538.632 858.963 538.192 859.654 538.192C860.528 538.192 864.348 538.818 866.037 539.258C866.601 539.444 867.038 540.07 867.038 540.696V540.699Z" fill="black"/>
</g>
<g clip-path="url(#clip4_448_923)">
<path d="M841.459 495.986C853.845 495.986 863.885 485.963 863.885 473.599C863.885 461.235 853.845 451.212 841.459 451.212C829.073 451.212 819.033 461.235 819.033 473.599C819.033 485.963 829.073 495.986 841.459 495.986Z" fill="#B989C9"/>
<path d="M828.651 463.747C823.549 465.458 826.362 473.86 831.464 471.637C836.775 470.029 833.231 461.597 828.651 463.747Z" fill="black"/>
<path d="M855.887 469.299C855.594 469.288 855.312 469.33 855.04 469.424C854.768 469.518 854.517 469.675 854.308 469.873C854.099 470.071 853.921 470.301 853.806 470.562C853.681 470.823 853.618 471.104 853.608 471.397C853.127 479.485 841.919 484.808 835.395 478.828C833.095 476.939 830.293 480.539 832.509 482.126C848.046 495.088 864.303 471.971 855.897 469.299H855.887Z" fill="black"/>
<path d="M831.798 444.366C817.715 449.083 808.734 467.107 815.059 480.456C824.521 504.627 859.358 503.458 869.029 480.56C878.48 459.05 853.106 435.724 831.798 444.366ZM849.865 492.51C820.946 502.853 803.005 459.468 833.251 448.572C862.4 438.062 881.136 481.322 849.865 492.51Z" fill="black"/>
<path d="M846.916 463.225C852.019 465.01 854.601 457.318 849.687 455.105C844.742 453.529 841.637 461.221 846.916 463.225Z" fill="black"/>
</g>
<g clip-path="url(#clip5_448_923)">
<path d="M1070.07 494.213C1071.89 492.754 1073.29 490.83 1074.1 488.646C1075.8 482.873 1067.17 482.167 1063.47 483.041C1061.97 483.385 1060.53 483.942 1059.18 484.695C1055.46 483.338 1051.7 482.093 1047.9 480.977C1048.6 480.782 1049.29 480.578 1049.98 480.364C1055.53 478.616 1060.3 474.889 1060.27 469.117C1065.73 468.345 1069.8 463.716 1069.87 458.204C1069.81 457.33 1069.64 456.484 1069.33 455.667C1069.95 455.416 1070.56 455.118 1071.13 454.793C1076.03 451.967 1081.76 444.81 1077.46 439.233C1074.12 434.91 1067.56 434.399 1062.55 434.687C1056.32 434.855 1050.36 437.299 1045.79 441.547C1043.34 444.113 1041.14 446.92 1039.26 449.922C1037.25 452.739 1035.38 455.648 1033.68 458.66C1032.51 443.174 1017.96 440.283 1011.08 449.587C1009.19 449.29 1007.31 449.095 1005.39 449.002C993.298 448.407 994.292 452.943 1004.29 460.128C1005.42 460.937 1006.55 461.718 1007.72 462.48C999.312 479.76 1003.69 498.833 1023.81 505.99C1034.47 509.513 1046.19 507.329 1054.88 500.218C1061.84 503.193 1077.71 509.272 1077.8 501.64C1077.84 498.034 1073.44 495.459 1070.08 494.204L1070.07 494.213ZM1061.79 452.45C1062.86 452.506 1063.88 452.897 1064.72 453.547C1064.94 453.715 1065.16 453.9 1065.36 454.096C1060.95 454.598 1058.32 452.339 1061.79 452.45ZM1054.81 466.467C1047.12 464.646 1054.87 462.08 1057.21 466.793C1056.4 466.746 1055.6 466.644 1054.81 466.467Z" fill="#DB433B"/>
<path d="M1012.76 452.023C1012.57 452.107 1012.34 452.134 1012.13 452.107C1009.78 451.707 1007.4 451.447 1005.02 451.344C1002.87 451.121 1000.72 451.326 998.643 451.948C999.414 453.092 1000.34 454.124 1001.41 454.997C1004.39 457.47 1007.5 459.756 1010.76 461.848C1011.63 458.622 1012.3 455.351 1012.76 452.041V452.023Z" fill="#E7BB43"/>
<path d="M1076.01 456.122L1076.62 455.824C1077.03 455.62 1077.44 455.443 1077.82 455.192C1078.58 454.718 1079.31 454.207 1080 453.63C1081.39 452.487 1082.63 451.195 1083.68 449.736C1084.73 448.276 1085.59 446.64 1086.02 444.847C1086.45 443.062 1086.35 441.082 1085.57 439.372C1084.79 437.671 1083.51 436.267 1082 435.226C1080.48 434.204 1078.76 433.534 1077.04 433.097C1073.55 432.224 1069.95 432.261 1066.47 432.484C1059.38 433.014 1052.47 436.221 1047.73 441.565C1046.56 442.885 1045.45 444.252 1044.4 445.655C1043.34 447.049 1042.4 448.583 1041.43 449.968C1040.42 451.4 1039.45 452.859 1038.51 454.337C1038.05 455.08 1037.58 455.824 1037.14 456.577L1036.67 457.367L1036.55 456.493C1036.52 456.056 1036.39 455.638 1036.28 455.211L1035.94 453.937C1035.44 452.255 1034.7 450.628 1033.73 449.141C1033.52 448.75 1033.22 448.416 1032.94 448.072L1032.09 447.04C1031.79 446.715 1031.43 446.445 1031.09 446.139C1030.75 445.86 1030.45 445.525 1030.06 445.293C1029.29 444.847 1028.58 444.28 1027.72 443.991C1027.3 443.824 1026.89 443.647 1026.47 443.489L1025.16 443.173C1021.65 442.355 1017.89 443.331 1014.95 445.302C1014.56 445.516 1014.22 445.813 1013.89 446.111L1012.88 446.984C1012.56 447.291 1012.29 447.644 1011.99 447.979L1011.56 448.481L1011.45 448.611C1011.45 448.611 1011.44 448.62 1011.42 448.611L1010.36 448.462L1009.08 448.304C1008.22 448.211 1007.36 448.137 1006.5 448.081C1004.77 447.97 1003.04 447.914 1001.29 448.025C1000.41 448.091 999.535 448.193 998.652 448.397C997.778 448.611 996.867 448.909 996.086 449.624C995.705 449.987 995.398 450.498 995.305 451.046C995.203 451.604 995.315 452.115 995.454 452.589C995.77 453.519 996.291 454.272 996.849 454.969C997.973 456.363 999.266 457.534 1000.59 458.641C1001.93 459.737 1003.31 460.788 1004.73 461.754L1006.86 463.214L1007.29 463.502L1006.86 464.487C1005.37 467.629 1004.42 470.984 1003.7 474.377C1003.05 477.798 1002.92 481.293 1003.2 484.769C1003.57 488.236 1004.52 491.629 1005.97 494.808C1007.46 497.978 1009.61 500.785 1012.06 503.276C1013.38 504.41 1014.63 505.637 1016.11 506.557L1017.19 507.301C1017.54 507.552 1017.9 507.803 1018.29 507.988L1020.59 509.225C1021.33 509.671 1022.16 509.968 1022.96 510.303L1025.37 511.298C1026.21 511.539 1027.04 511.809 1027.89 512.023C1028.73 512.199 1029.57 512.441 1030.43 512.562C1033.87 513.166 1037.37 513.268 1040.83 512.896C1044.3 512.525 1047.69 511.595 1050.9 510.256L1052.09 509.736L1053.26 509.16C1054.05 508.788 1054.78 508.323 1055.53 507.896C1056.3 507.468 1056.99 506.938 1057.73 506.473C1058.09 506.232 1058.43 505.953 1058.77 505.693L1059.29 505.293L1059.52 505.116L1061.94 506.12C1062.86 506.483 1063.78 506.845 1064.7 507.189C1066.55 507.877 1068.43 508.509 1070.33 509.067C1073.14 509.866 1076.01 510.582 1079.04 510.6C1080.36 510.6 1081.56 510.405 1082.52 509.922C1083.49 509.457 1084.11 508.686 1084.37 508.026C1084.49 507.691 1084.57 507.394 1084.58 507.133C1084.62 506.882 1084.62 506.669 1084.59 506.501C1084.56 506.157 1084.49 505.999 1084.42 505.999C1084.52 506.018 1084.81 505.33 1084.43 503.992C1084.06 502.662 1082.77 500.924 1080.56 499.502C1079.87 499.065 1079.16 498.665 1078.43 498.303C1078.07 498.136 1077.7 497.959 1077.33 497.801L1077.12 497.708L1077.19 497.634C1077.46 497.392 1077.71 497.132 1077.97 496.871C1078.46 496.332 1078.9 495.765 1079.31 495.17C1079.91 494.306 1080.41 493.367 1080.8 492.391C1081.22 491.341 1081.36 490.198 1081.04 489.054C1080.73 487.902 1079.87 486.991 1078.95 486.405C1078.01 485.81 1077 485.457 1075.97 485.215C1073.91 484.751 1071.82 484.686 1069.73 484.955C1068.68 485.104 1067.67 485.383 1066.69 485.727C1066.2 485.903 1065.71 486.089 1065.24 486.312C1065 486.414 1064.76 486.526 1064.53 486.647L1064.07 486.888L1057.99 484.881C1056.13 484.249 1052.76 483.208 1053.86 483.477L1054.2 483.375L1054.75 483.189C1055.01 483.096 1055.29 483.012 1055.55 482.91C1056.62 482.51 1057.65 482.036 1058.66 481.497C1059.65 480.93 1060.61 480.289 1061.49 479.555C1062.37 478.802 1063.17 477.956 1063.85 477.008C1064.51 476.05 1065.04 474.991 1065.41 473.875C1065.56 473.308 1065.71 472.741 1065.78 472.165C1065.83 471.877 1065.85 471.579 1065.86 471.291V471.068V471.031C1065.86 471.031 1065.87 471.022 1065.94 471.012L1066.36 470.938C1066.65 470.882 1066.92 470.789 1067.21 470.715C1067.77 470.576 1068.31 470.334 1068.85 470.12C1069.91 469.646 1070.89 469.005 1071.78 468.261C1073.56 466.774 1074.94 464.794 1075.67 462.582C1076.05 461.476 1076.27 460.342 1076.32 459.152C1076.34 458.873 1076.36 458.557 1076.32 458.25C1076.29 457.962 1076.25 457.665 1076.2 457.376C1076.15 457.088 1076.08 456.8 1076 456.512L1075.9 456.177L1076 456.122H1076.01ZM1007.09 458.65C1005.61 457.627 1004.17 456.54 1002.78 455.378L1001.74 454.495C1001.38 454.216 1001.06 453.946 1000.75 453.64C1000.45 453.333 1000.15 453.017 999.879 452.682L999.591 452.301L999.665 452.283C999.953 452.218 1000.25 452.162 1000.54 452.115C1001.12 452.013 1001.72 451.939 1002.31 451.902C1003.5 451.799 1004.68 451.902 1005.91 451.976C1007.13 452.05 1008.34 452.162 1009.54 452.32L1010.05 452.394L1008.91 459.858C1008.29 459.459 1007.69 459.059 1007.09 458.65ZM1081.82 507.124L1081.74 507.04L1081.79 507.078L1081.82 507.115V507.124ZM1081.65 506.864C1081.65 506.864 1081.66 506.873 1081.67 506.882C1081.76 506.92 1081.84 506.966 1081.89 507.003L1081.77 506.966H1081.74L1081.66 506.938C1081.66 506.938 1081.64 506.929 1081.64 506.929L1081.49 506.78C1081.49 506.78 1081.59 506.827 1081.65 506.864ZM1074.38 452.58L1074.09 452.701C1074.09 452.701 1074.11 452.738 1074.05 452.682C1073.79 452.329 1073.48 452.013 1073.17 451.697C1071.9 450.47 1070.31 449.541 1068.55 449.159C1067.67 448.974 1066.76 448.909 1065.85 449.039C1064.94 449.169 1064.02 449.503 1063.28 450.135C1062.9 450.452 1062.64 450.833 1062.35 451.204C1062.12 451.623 1061.86 452.06 1061.81 452.589C1061.61 453.63 1062.12 454.69 1062.79 455.341C1063.47 456.029 1064.29 456.447 1065.12 456.772C1065.95 457.116 1066.81 457.283 1067.67 457.423C1068.11 457.479 1068.55 457.507 1068.98 457.544C1069.41 457.544 1069.85 457.553 1070.29 457.544C1070.71 457.497 1071.15 457.488 1071.58 457.423C1071.58 457.423 1072.11 457.339 1072.12 457.358C1072.12 457.395 1072.23 457.888 1072.26 458.194C1072.31 458.575 1072.33 458.966 1072.31 459.347C1072.29 460.128 1072.16 460.899 1071.9 461.634C1071.39 463.112 1070.44 464.385 1069.16 465.333C1068.54 465.816 1067.85 466.225 1067.14 466.551C1066.77 466.709 1066.4 466.848 1066.02 466.96C1065.77 467.043 1065.37 467.146 1065.25 467.164C1065.25 467.146 1065.25 467.136 1065.24 467.108C1065.15 466.904 1065.08 466.69 1064.98 466.495C1064.75 466.114 1064.58 465.686 1064.3 465.342C1063.81 464.589 1063.16 463.957 1062.46 463.39C1061.03 462.312 1059.26 461.652 1057.43 461.689C1056.52 461.717 1055.59 461.912 1054.75 462.349L1054.15 462.73C1053.96 462.879 1053.8 463.046 1053.62 463.204C1053.28 463.53 1052.98 463.939 1052.77 464.385C1052.35 465.277 1052.31 466.328 1052.63 467.266C1052.99 468.298 1053.71 468.763 1054.6 469.293C1056.11 470.167 1057.77 470.78 1059.48 471.096C1059.9 471.18 1060.33 471.235 1060.76 471.282L1061.41 471.328L1061.94 471.347C1061.94 471.347 1061.94 471.384 1061.93 471.44C1061.87 471.821 1061.81 472.211 1061.69 472.574C1061.26 474.061 1060.31 475.372 1059.12 476.413C1056.72 478.514 1053.45 479.573 1050.33 480.438C1048.72 480.828 1047.15 481.06 1045.45 481.153C1045.15 481.181 1044.87 481.284 1044.62 481.432C1044.49 481.507 1044.38 481.6 1044.27 481.702L1044.19 481.776C1044.19 481.776 1044.17 481.804 1044.16 481.823C1044.13 481.851 1044.05 481.916 1044.02 481.971C1043.63 482.427 1043.47 483.068 1043.6 483.654C1043.66 483.942 1043.79 484.211 1043.99 484.453C1044.19 484.704 1044.47 484.89 1044.78 484.983C1044.92 485.029 1045.12 485.057 1045.22 485.057C1045.22 485.057 1045.23 485.057 1045.26 485.057L1045.41 485.104L1046.01 485.262C1049.23 486.145 1052.43 487.093 1055.61 488.115C1057.19 488.627 1058.77 489.157 1060.35 489.705L1062.7 490.579L1063.33 490.774C1063.51 490.83 1063.79 490.913 1064.07 490.923C1064.35 490.941 1064.63 490.904 1064.9 490.83C1065.03 490.783 1065.16 490.737 1065.28 490.672C1065.41 490.607 1065.54 490.523 1065.57 490.495C1066.92 489.696 1068.28 489.073 1069.78 488.813C1071.25 488.515 1072.79 488.543 1074.26 488.859C1074.99 489.026 1075.72 489.249 1076.4 489.556C1077.26 489.984 1077.36 489.882 1077.25 490.634C1077.1 491.248 1076.71 491.908 1076.27 492.512C1075.84 493.116 1075.33 493.702 1074.8 494.26C1074.26 494.817 1073.7 495.356 1073.11 495.868C1072.82 496.128 1072.53 496.379 1072.23 496.611L1072.01 496.797C1071.93 496.853 1071.78 496.974 1071.7 497.076C1071.5 497.299 1071.38 497.55 1071.31 497.81C1071.15 498.331 1071.19 498.898 1071.47 499.409C1071.61 499.669 1071.82 499.892 1072.08 500.05C1072.21 500.134 1072.35 500.181 1072.49 500.236L1072.78 500.311C1073.52 500.524 1074.26 500.775 1074.97 501.064C1076.39 501.631 1077.8 502.356 1079.03 503.22C1079.65 503.657 1080.23 504.14 1080.62 504.689C1080.83 504.968 1080.97 505.256 1081.03 505.544C1081.06 505.683 1081.07 505.832 1081.06 505.971L1081.03 506.185C1081.03 506.185 1081 506.287 1081 506.315C1080.99 506.325 1080.94 506.39 1080.9 506.445C1080.85 506.483 1080.74 506.501 1080.68 506.548C1080.48 506.613 1080.27 506.669 1080.03 506.696C1079.56 506.762 1079.06 506.762 1078.55 506.715C1076.87 506.594 1075.16 506.195 1073.48 505.758C1071.79 505.311 1070.13 504.791 1068.46 504.233C1062.65 502.235 1059.75 501.212 1059.62 501.491C1059.65 501.435 1059.5 501.24 1059.05 501.184C1058.83 501.157 1058.53 501.184 1058.21 501.352C1057.9 501.538 1057.67 501.705 1057.34 501.937C1056.09 502.83 1054.23 504.15 1051.55 505.553C1049.97 506.362 1048.33 507.05 1046.66 507.607C1044.96 508.128 1043.24 508.583 1041.49 508.834C1037.96 509.364 1034.33 509.346 1030.82 508.704C1027.3 508.1 1023.92 506.771 1020.83 504.986C1017.77 503.155 1014.99 500.822 1012.74 498.043C1011.62 496.667 1010.58 495.189 1009.73 493.637C1008.96 492.066 1008.32 490.402 1007.93 488.664C1006.3 481.702 1007.29 474.256 1009.81 467.573C1010.14 466.681 1010.48 465.742 1010.95 464.915C1011.67 463.66 1012.03 462.544 1012.25 461.132C1012.38 460.276 1012.52 459.421 1012.65 458.566C1012.91 456.893 1013.17 455.211 1013.41 453.537C1013.53 452.72 1013.73 452.087 1014.23 451.427C1014.4 451.177 1014.59 450.944 1014.77 450.721C1014.96 450.479 1015.14 450.256 1015.35 450.043C1015.54 449.829 1015.75 449.615 1015.96 449.41C1016.81 448.602 1017.76 447.914 1018.81 447.44C1019.86 446.966 1020.99 446.715 1022.13 446.752C1022.59 446.771 1023.04 446.826 1023.5 446.919C1024.25 447.087 1025.01 447.31 1025.73 447.579C1025.84 447.616 1025.94 447.663 1026.06 447.7C1026.84 448.007 1027.63 448.342 1028.3 448.853C1029.13 449.494 1029.85 450.303 1030.44 451.195C1031.63 452.989 1032.33 455.108 1032.7 457.265C1032.89 458.343 1033 459.459 1033.06 460.546C1033.07 461.652 1033.05 462.777 1032.99 463.883C1032.88 466.123 1032.65 468.345 1032.28 470.548C1031.92 472.751 1031.43 474.935 1030.82 477.082L1030.34 478.69C1030.24 478.988 1030.16 479.434 1030.26 479.824C1030.35 480.224 1030.57 480.596 1030.86 480.847C1031.43 481.349 1032.27 481.609 1033.07 481.237C1033.47 481.07 1033.77 480.707 1033.92 480.354C1034.01 480.159 1034.04 480.029 1034.09 479.899L1034.22 479.49C1034.91 477.314 1035.47 475.112 1035.91 472.871C1036.13 471.756 1036.32 470.631 1036.48 469.497L1036.68 467.806L1036.84 466.197L1037.26 465.212L1037.73 464.153C1038.05 463.446 1038.38 462.749 1038.72 462.052C1039.41 460.658 1040.13 459.291 1040.91 457.953C1042.46 455.248 1044.15 452.701 1046.06 450.182C1047.52 447.682 1049.25 445.497 1051.3 443.527C1053.32 441.575 1055.66 439.892 1058.12 438.6C1064.07 436.044 1071.1 435.44 1077.3 437.317C1078.81 437.829 1080.26 438.591 1081.25 439.753C1081.72 440.338 1082.09 440.998 1082.27 441.723C1082.29 441.77 1082.28 441.742 1082.29 441.779V441.928L1082.31 442.216C1082.3 442.411 1082.31 442.606 1082.3 442.802C1082.28 443.192 1082.22 443.582 1082.16 443.963C1081.86 445.497 1081.12 446.947 1080.05 448.081L1079.84 448.295L1079.74 448.397C1079.74 448.397 1079.59 448.546 1079.59 448.565L1079.19 449.02C1078.99 449.252 1078.78 449.476 1078.56 449.689C1077.92 450.312 1077.22 450.898 1076.48 451.39C1075.81 451.836 1075.11 452.236 1074.38 452.571V452.58ZM1069.25 453.649C1068.71 453.64 1068.17 453.593 1067.63 453.482C1067.2 453.398 1066.77 453.277 1066.4 453.119C1066.31 453.082 1066.21 453.026 1066.15 452.998L1066.11 452.97H1066.15L1066.29 452.952C1066.39 452.943 1066.49 452.943 1066.61 452.943C1067.03 452.924 1067.44 452.97 1067.85 453.073C1068.34 453.194 1068.82 453.379 1069.25 453.649ZM1060.83 467.304C1059.97 467.192 1059.11 466.997 1058.27 466.737C1057.77 466.569 1057.27 466.393 1056.85 466.16C1056.76 466.095 1056.64 466.039 1056.57 465.974L1056.44 465.881L1056.39 465.826C1056.39 465.826 1056.63 465.714 1056.79 465.696C1057 465.658 1057.24 465.649 1057.48 465.658C1057.96 465.677 1058.45 465.789 1058.91 465.956C1059.66 466.235 1060.33 466.699 1060.83 467.304Z" fill="black"/>
<path d="M1081.89 507.004L1081.77 506.966L1081.67 506.883C1081.76 506.92 1081.84 506.966 1081.89 507.004Z" fill="#010101"/>
<path d="M1025.23 456.205C1024.36 456.066 1023.86 456.772 1023.49 457.451C1023.02 458.315 1022.58 459.003 1021.61 459.422C1020.1 460.081 1019.4 458.864 1019.25 457.525C1019.12 456.41 1019.79 454.328 1018.17 454.012C1017.42 453.863 1016.7 454.346 1016.54 455.09C1015.69 461.671 1019.8 463.809 1023.45 461.652C1025.64 460.407 1027.62 456.587 1025.23 456.205Z" fill="black"/>
<path d="M1066.03 499.177C1065.84 498.963 1065.67 498.833 1065.61 498.665C1065.35 497.959 1065.46 497.318 1066.01 496.779C1066.51 496.286 1067.51 496.537 1067.69 497.197C1067.9 497.94 1067.54 498.824 1066.81 499.177C1066.59 499.288 1066.26 499.177 1066.04 499.177H1066.03Z" fill="black"/>
<path d="M1050.44 502.579C1050 503.109 1049.17 503.295 1048.59 502.895C1048.39 502.765 1048.25 502.393 1048.27 502.151C1048.37 501.287 1049.2 500.813 1050.01 501.101C1050.56 501.296 1050.8 502.142 1050.44 502.579Z" fill="black"/>
<path d="M1082.12 503.267C1082.66 503.573 1082.79 504.122 1082.6 504.438C1082.26 505.033 1081.27 505.2 1080.87 504.679C1080.64 504.391 1080.55 503.992 1080.45 503.629C1080.38 503.406 1080.75 503.034 1080.99 503.071C1081.45 503.137 1081.92 503.229 1082.12 503.267Z" fill="black"/>
<path d="M1033.41 506.65C1033.02 507.059 1032.19 507.078 1031.89 506.678C1031.61 506.316 1031.59 505.674 1031.87 505.34C1032.24 504.884 1033.03 504.875 1033.36 505.321C1033.67 505.721 1033.7 506.353 1033.41 506.65Z" fill="black"/>
<path d="M1015.89 495.45C1016.09 495.069 1016.73 494.827 1017.16 494.976C1017.64 495.143 1017.9 495.914 1017.64 496.463C1017.45 496.872 1016.83 497.113 1016.4 496.928C1015.87 496.704 1015.61 495.952 1015.88 495.45H1015.89Z" fill="black"/>
<path d="M1057.56 496.286C1057.34 496.351 1057.08 496.509 1056.83 496.481C1056.57 496.463 1056.3 496.295 1056.06 496.156C1055.69 495.923 1055.56 495.514 1055.7 495.198C1055.88 494.799 1056.22 494.659 1056.6 494.65C1057.18 494.631 1057.68 495.096 1057.73 495.691C1057.75 495.858 1057.63 496.044 1057.57 496.286H1057.56Z" fill="black"/>
<path d="M1034.67 492.326C1034.41 492.772 1033.98 492.949 1033.51 493.033C1033.06 493.116 1032.5 492.754 1032.42 492.345C1032.32 491.796 1032.76 491.155 1033.28 491.071C1033.86 490.988 1034.44 491.267 1034.67 491.787C1034.74 491.936 1034.67 492.14 1034.67 492.317V492.326Z" fill="black"/>
<path d="M1020.35 490.932C1020.19 491.044 1020.05 491.192 1019.87 491.248C1019.7 491.304 1019.48 491.285 1019.3 491.248C1018.82 491.136 1018.39 490.616 1018.4 490.226C1018.41 489.807 1019.01 489.352 1019.45 489.417C1020.07 489.51 1020.48 490.04 1020.41 490.653C1020.4 490.746 1020.37 490.839 1020.34 490.941L1020.35 490.932Z" fill="black"/>
<path d="M1024.3 490.486C1023.57 489.966 1023.46 489.296 1023.95 488.646C1024.19 488.33 1024.76 488.237 1024.96 488.534C1025.18 488.841 1025.37 489.194 1025.49 489.557C1025.62 489.947 1025.38 490.458 1025.03 490.523C1024.76 490.57 1024.48 490.495 1024.29 490.486H1024.3Z" fill="black"/>
<path d="M1064.03 503.657C1063.86 503.722 1063.6 503.852 1063.32 503.908C1062.93 504.001 1062.55 503.713 1062.47 503.304C1062.39 502.923 1062.58 502.504 1062.94 502.309C1063.31 502.114 1063.69 502.021 1064.06 502.253C1064.42 502.495 1064.44 503.276 1064.04 503.648L1064.03 503.657Z" fill="black"/>
<path d="M1018.16 485.987C1018.29 485.699 1018.82 485.485 1019.13 485.596C1019.83 485.847 1020.08 486.545 1019.68 487.177C1019.51 487.446 1018.95 487.595 1018.68 487.446C1018.2 487.195 1017.95 486.47 1018.16 485.978V485.987Z" fill="black"/>
<path d="M1043.83 475.697C1044.2 475.92 1044.32 476.515 1044.08 476.962C1043.81 477.454 1043.27 477.631 1042.9 477.352C1042.49 477.036 1042.37 476.525 1042.6 476.078C1042.83 475.651 1043.44 475.456 1043.83 475.697Z" fill="black"/>
<path d="M1074.23 491.248C1074.27 491.527 1074.42 491.824 1074.34 492.038C1074.26 492.27 1074.01 492.503 1073.76 492.624C1073.23 492.884 1072.7 492.661 1072.61 492.196C1072.52 491.694 1072.82 491.192 1073.32 491.136C1073.59 491.109 1073.87 491.202 1074.23 491.248Z" fill="black"/>
<path d="M1039.96 504.828C1039.6 504.522 1039.6 503.964 1039.96 503.601C1040.31 503.258 1040.92 503.267 1041.19 503.611C1041.43 503.908 1041.42 504.345 1041.19 504.633C1040.87 505.024 1040.3 505.117 1039.95 504.828H1039.96Z" fill="black"/>
<path d="M1047.47 487.911C1047.86 488.097 1047.99 488.785 1047.73 489.166C1047.46 489.556 1046.8 489.733 1046.47 489.491C1046.11 489.231 1045.96 488.562 1046.19 488.209C1046.41 487.855 1047.07 487.707 1047.47 487.911Z" fill="black"/>
<path d="M1047.96 484.128C1048.23 483.366 1048.81 483.124 1049.56 483.161C1049.91 483.18 1050.26 483.561 1050.27 483.942C1050.29 484.407 1049.82 484.937 1049.39 484.89C1048.79 484.816 1048.26 484.63 1047.94 484.063L1047.96 484.128Z" fill="black"/>
<path d="M1053.91 495.793C1053.91 496.007 1053.99 496.342 1053.86 496.5C1053.4 497.095 1052.78 497.16 1052.09 496.788C1051.83 496.658 1051.67 496.267 1051.79 496.063C1051.88 495.914 1052.02 495.71 1052.17 495.691C1052.63 495.617 1053.11 495.607 1053.58 495.598C1053.66 495.598 1053.74 495.691 1053.9 495.793H1053.91Z" fill="black"/>
<path d="M1014.61 482.594C1014.91 482.79 1015.01 483.301 1014.82 483.589C1014.61 483.877 1014.09 484.026 1013.82 483.868C1013.39 483.598 1013.18 483.059 1013.38 482.669C1013.55 482.316 1014.15 482.278 1014.62 482.594H1014.61Z" fill="black"/>
<path d="M1058.52 500.432C1058.32 500.822 1057.69 501.027 1057.27 500.85C1056.99 500.729 1056.79 500.172 1056.91 499.865C1057.13 499.298 1057.85 499.056 1058.31 499.4C1058.6 499.605 1058.69 500.097 1058.53 500.441L1058.52 500.432Z" fill="black"/>
<path d="M1022.91 481.219C1022.59 481.618 1022.02 481.646 1021.69 481.284C1021.39 480.958 1021.42 480.401 1021.75 480.01C1021.99 479.722 1022.48 479.704 1022.76 479.955C1023.12 480.289 1023.19 480.856 1022.91 481.219H1022.91Z" fill="black"/>
<path d="M1078.13 504.763C1077.83 505.172 1077.23 505.256 1076.91 504.931C1076.64 504.67 1076.59 504.243 1076.78 503.88C1076.99 503.508 1077.7 503.258 1078.01 503.453C1078.32 503.648 1078.38 504.401 1078.13 504.754V504.763Z" fill="black"/>
<path d="M1049.17 496.909C1049.36 497.067 1049.4 497.457 1049.26 497.671C1049.03 498.015 1048.71 498.154 1048.3 498.117C1047.97 498.08 1047.55 497.662 1047.62 497.346C1047.68 497.113 1047.89 496.844 1048.12 496.751C1048.46 496.593 1048.85 496.63 1049.17 496.918V496.909Z" fill="black"/>
<path d="M1076.55 500.636C1076.26 500.962 1075.72 500.915 1075.62 500.553C1075.55 500.283 1075.52 499.995 1075.53 499.716C1075.54 499.381 1075.8 499.149 1076.06 499.168C1076.36 499.195 1076.63 499.288 1076.74 499.595C1076.88 499.976 1076.86 500.348 1076.55 500.636Z" fill="black"/>
<path d="M1045.1 480.819C1045 481.154 1044.41 481.228 1044.1 480.921C1043.82 480.633 1043.69 480.28 1043.75 479.862C1043.79 479.481 1044.27 479.211 1044.61 479.378C1045.18 479.657 1045.39 480.289 1045.09 480.819H1045.1Z" fill="black"/>
<path d="M1018.53 504.763C1018.47 504.485 1018.31 504.196 1018.4 504.02C1018.5 503.806 1018.78 503.602 1019.02 503.564C1019.25 503.527 1019.57 503.629 1019.77 503.769C1019.96 503.899 1019.7 504.587 1019.39 504.698C1019.16 504.782 1018.87 504.745 1018.53 504.763Z" fill="black"/>
<path d="M1075.33 495.431C1075.76 495.617 1075.94 496.138 1075.76 496.435C1075.64 496.64 1075.24 496.76 1075 496.677C1074.67 496.556 1074.45 495.989 1074.69 495.738C1074.86 495.561 1075.17 495.515 1075.33 495.431Z" fill="black"/>
<path d="M1023.43 484.648C1023.5 484.946 1023.62 485.197 1023.59 485.42C1023.57 485.671 1023.17 485.745 1022.89 485.597C1022.48 485.373 1022.31 484.853 1022.61 484.714C1022.82 484.621 1023.1 484.667 1023.42 484.639L1023.43 484.648Z" fill="black"/>
<path d="M1011.83 492.457C1011.68 492.531 1011.46 492.708 1011.21 492.763C1010.98 492.819 1010.71 492.438 1010.74 492.178C1010.77 491.778 1011.14 491.434 1011.49 491.462C1011.83 491.49 1012.07 492.001 1011.83 492.457Z" fill="black"/>
<path d="M1015.17 486.935C1015.26 487.102 1015.38 487.261 1015.45 487.446C1015.54 487.725 1015.22 488.023 1014.9 487.967C1014.58 487.902 1014.41 487.697 1014.36 487.363C1014.33 487.13 1014.39 486.944 1014.61 486.898C1014.79 486.861 1014.99 486.926 1015.17 486.944V486.935Z" fill="black"/>
<path d="M1047.11 484.258C1046.92 484.881 1046.5 485.169 1045.85 485.141C1045.58 485.132 1045.34 484.918 1045.31 484.602C1045.29 484.305 1045.36 484.044 1045.67 483.923C1046.26 483.7 1046.77 483.719 1047.12 484.323L1047.1 484.258H1047.11Z" fill="black"/>
<path d="M1043.89 494.185C1043.68 494.223 1043.41 494.343 1043.16 494.306C1042.96 494.278 1042.85 493.748 1043.01 493.553C1043.18 493.358 1043.42 493.2 1043.65 493.079C1043.87 492.968 1044.03 493.079 1044.08 493.312C1044.1 493.405 1044.13 493.507 1044.11 493.59C1044.06 493.767 1043.98 493.934 1043.88 494.195L1043.89 494.185Z" fill="black"/>
<path d="M1065.21 493.972C1065.21 493.786 1065.16 493.479 1065.27 493.284C1065.44 492.977 1066.08 492.977 1066.25 493.265C1066.34 493.405 1066.34 493.656 1066.25 493.804C1066.06 494.176 1065.56 494.278 1065.2 493.972H1065.21Z" fill="black"/>
<path d="M1056.46 491.527C1056.28 491.555 1056.01 491.648 1055.77 491.601C1055.49 491.555 1055.35 491.136 1055.53 490.904C1055.69 490.709 1055.96 490.514 1056.2 490.504C1056.51 490.486 1056.71 491.136 1056.46 491.536V491.527Z" fill="black"/>
<path d="M1047.47 493.804C1047.37 493.637 1047.24 493.488 1047.19 493.312C1047.1 493.042 1047.32 492.735 1047.61 492.661C1047.89 492.596 1048.18 492.791 1048.24 493.126C1048.26 493.302 1048.24 493.497 1048.19 493.674C1048.11 493.962 1047.69 494.027 1047.47 493.804Z" fill="black"/>
<path d="M1033.42 487.93C1033.17 487.865 1032.91 487.809 1032.67 487.725C1032.62 487.707 1032.58 487.502 1032.62 487.465C1032.8 487.27 1033.01 487.102 1033.21 486.926C1033.33 487.065 1033.5 487.186 1033.54 487.344C1033.58 487.502 1033.47 487.688 1033.42 487.939V487.93Z" fill="black"/>
<path d="M1054.05 500.757C1053.9 500.766 1053.7 500.841 1053.62 500.776C1053.39 500.59 1053.42 500.264 1053.66 500.125C1053.72 500.088 1053.82 500.088 1053.91 500.097C1054.16 500.143 1054.23 500.525 1054.04 500.757H1054.05Z" fill="black"/>
<path d="M1040.12 498.982C1040.1 499.251 1040.14 499.447 1040.07 499.586C1039.94 499.818 1039.59 499.809 1039.42 499.558C1039.35 499.447 1039.37 499.14 1039.42 499.112C1039.63 499.028 1039.87 499.019 1040.12 498.982Z" fill="black"/>
<path d="M1035.87 499.586C1035.96 499.958 1036.06 500.199 1036.04 500.432C1036.04 500.534 1035.78 500.711 1035.65 500.692C1035.35 500.664 1035.13 500.395 1035.19 500.134C1035.24 499.948 1035.56 499.828 1035.87 499.586Z" fill="black"/>
<path d="M1025.38 494.037C1025.21 493.999 1024.93 494.009 1024.74 493.888C1024.52 493.748 1024.62 493.311 1024.89 493.2C1025.02 493.135 1025.26 493.153 1025.4 493.228C1025.67 493.386 1025.68 493.758 1025.38 494.037Z" fill="black"/>
<path d="M1049.74 506.846C1049.5 506.799 1049.41 506.66 1049.45 506.418C1049.54 505.907 1049.73 505.767 1050.24 505.86C1050.48 505.907 1050.58 506.037 1050.53 506.279C1050.44 506.771 1050.22 506.929 1049.74 506.846Z" fill="black"/>
<path d="M1027.66 484.602C1027.5 484.621 1027.29 484.704 1027.16 484.639C1026.93 484.518 1026.97 484.147 1027.23 483.942C1027.4 483.803 1027.61 483.849 1027.69 484.082C1027.75 484.24 1027.68 484.435 1027.67 484.611L1027.66 484.602Z" fill="black"/>
<path d="M1015.87 491.1C1015.97 491.258 1016.07 491.416 1016.17 491.564C1016.02 491.648 1015.86 491.797 1015.69 491.806C1015.45 491.815 1015.32 491.62 1015.44 491.397C1015.51 491.258 1015.73 491.193 1015.88 491.1H1015.87Z" fill="black"/>
<path d="M1039.52 495.115C1039.31 495.319 1039.05 495.273 1038.88 495.003C1038.75 494.808 1038.78 494.65 1038.99 494.529C1039.28 494.362 1039.63 494.39 1039.65 494.604C1039.67 494.771 1039.56 494.947 1039.52 495.115Z" fill="black"/>
<path d="M1025.85 497.82C1026.02 497.829 1026.19 497.838 1026.34 497.866C1026.36 497.866 1026.39 498.052 1026.34 498.117C1026.31 498.182 1026.13 498.247 1026.12 498.229C1026.02 498.099 1025.94 497.959 1025.85 497.811V497.82Z" fill="black"/>
<path d="M1031.85 501.64C1031.79 501.714 1031.75 501.807 1031.69 501.854C1031.62 501.9 1031.51 501.9 1031.43 501.919C1031.46 501.752 1031.47 501.575 1031.51 501.417C1031.51 501.389 1031.71 501.361 1031.76 501.398C1031.82 501.435 1031.82 501.556 1031.85 501.649V501.64Z" fill="black"/>
<path d="M1045.72 507.106C1045.71 507.004 1045.65 506.846 1045.7 506.818C1045.89 506.678 1046.09 506.725 1046.21 506.929C1046.26 507.004 1046.25 507.115 1046.27 507.217C1046.08 507.18 1045.9 507.143 1045.72 507.106Z" fill="black"/>
<path d="M1022.52 503.174C1022.57 503.248 1022.68 503.332 1022.66 503.388C1022.61 503.555 1022.45 503.564 1022.26 503.397C1022.23 503.36 1022.25 503.239 1022.25 503.165C1022.35 503.165 1022.43 503.165 1022.52 503.174Z" fill="black"/>
<path d="M1013.01 500.989L1013.17 501.092L1012.97 501.231L1013.01 500.989Z" fill="black"/>
<path d="M1067.86 502.365C1067.9 502.505 1067.93 502.635 1067.96 502.774C1067.88 502.774 1067.75 502.83 1067.71 502.793C1067.6 502.681 1067.52 502.533 1067.42 502.393C1067.57 502.393 1067.71 502.384 1067.86 502.375V502.365Z" fill="black"/>
<path d="M1047.94 484.054C1047.73 484.388 1047.44 484.379 1047.11 484.258L1047.13 484.323C1047.34 483.979 1047.63 483.998 1047.96 484.119L1047.94 484.044V484.054Z" fill="black"/>
<path d="M1062.12 498.852L1062.07 499.037L1061.94 498.926L1062.12 498.852Z" fill="black"/>
</g>
<path d="M1115.41 474.054C1115.07 474.035 1114.77 473.855 1114.58 473.574C1099.83 454.917 1117.53 443.023 1123.49 458.235C1141.09 454.336 1139.16 477.373 1115.41 474.054Z" fill="black"/>
<g clip-path="url(#clip6_448_923)">
<path d="M1093.72 8.21921C1100.12 7.08973 1111.33 7.99117 1115.13 8.12469C1137.82 8.80361 1149.05 3.66901 1149.39 9.69248C1149.74 15.2354 1119.86 15.6066 1095.75 14.5544C1090.48 14.2284 1089.37 8.96458 1093.69 8.22105L1093.72 8.2286L1093.72 8.21921Z" fill="#E7BB43"/>
<path d="M1115 53.1956C1114.42 48.8268 1115.09 52.8392 1144.63 42.2624C1148.8 40.8448 1155.32 34.9814 1157.56 39.5318C1160.04 44.963 1115.89 60.6847 1114.95 53.3032L1115.01 53.1888L1115 53.1956Z" fill="#E7BB43"/>
<path d="M1177.43 79.7181C1157.9 98.256 1144.27 117.187 1139.43 113.709C1138.32 112.698 1138.24 110.977 1139.26 109.861C1139.31 109.796 1139.38 109.733 1139.45 109.671C1151.76 97.465 1156 92.4673 1173.92 76.3333C1176.34 74.1884 1181.16 76.2243 1177.37 79.8231L1177.43 79.7087L1177.43 79.7181Z" fill="#E7BB43"/>
<path d="M1206.91 114.384C1206.56 115.688 1201.91 128.498 1198.23 133.115C1196.04 135.904 1191.05 134.155 1193.68 129.05C1199.03 118.558 1205.83 96.3286 1210.85 98.9193C1214.73 100.944 1209.27 107.839 1206.91 114.384Z" fill="#E7BB43"/>
<path d="M1222.28 89.1912C1191 77.2602 1170.19 56.6921 1165.64 23.027C1162.21 -2.12502 1166.52 -19.3312 1170.58 -17.5392C1176.68 -14.89 1167.84 -7.31334 1172.59 22.3758C1177.4 53.0129 1196.57 72.8414 1223.11 83.4023C1226.52 84.6978 1225.73 90.4191 1222.28 89.1912Z" fill="#E7BB43"/>
</g>
</g>
<defs>
<clipPath id="clip0_448_923">
<rect width="1200" height="630" fill="white"/>
</clipPath>
<clipPath id="clip1_448_923">
<rect width="136.946" height="106.197" fill="white" transform="translate(569.769 593) rotate(2.4411)"/>
</clipPath>
<clipPath id="clip2_448_923">
<rect width="132.054" height="147.812" fill="white" transform="translate(729.663 -5.5332) rotate(17.8867)"/>
</clipPath>
<clipPath id="clip3_448_923">
<rect width="308.264" height="111.131" fill="white" transform="translate(824.915 498.167)"/>
</clipPath>
<clipPath id="clip4_448_923">
<rect width="58.0678" height="55.6483" fill="white" transform="translate(813 442.519)"/>
</clipPath>
<clipPath id="clip5_448_923">
<rect width="103.232" height="144.363" fill="white" transform="translate(995.268 403)"/>
</clipPath>
<clipPath id="clip6_448_923">
<rect width="149.549" height="140.88" fill="white" transform="translate(1103.49 -35.9893) rotate(15)"/>
</clipPath>
</defs>
</svg>
