<svg width="1200" height="630" viewBox="0 0 1200 630" fill="none" xmlns="http://www.w3.org/2000/svg">
<g clip-path="url(#clip0_448_1105)">
<path opacity="0.5" d="M-967 66H756" stroke="#5FBFFA" stroke-width="2"/>
<path opacity="0.5" d="M-967 127H756" stroke="#5FBFFA" stroke-width="2"/>
<path opacity="0.5" d="M-967 188H756" stroke="#5FBFFA" stroke-width="2"/>
<path opacity="0.5" d="M-967 247H756" stroke="#5FBFFA" stroke-width="2"/>
<path opacity="0.5" d="M-967 309H756" stroke="#5FBFFA" stroke-width="2"/>
<path opacity="0.5" d="M-967 369H756" stroke="#5FBFFA" stroke-width="2"/>
<path opacity="0.5" d="M-967 430H756" stroke="#5FBFFA" stroke-width="2"/>
<path opacity="0.5" d="M-967 490H756" stroke="#5FBFFA" stroke-width="2"/>
<path opacity="0.5" d="M-967 550H756" stroke="#5FBFFA" stroke-width="2"/>
<path opacity="0.5" d="M-967 610H756" stroke="#5FBFFA" stroke-width="2"/>
<rect x="752" y="-40" width="8" height="762" fill="black"/>
<g clip-path="url(#clip1_448_1105)">
<g style="mix-blend-mode:multiply">
<path d="M795.123 562.069C794.662 561.585 794.199 561.114 793.71 560.659C793.238 560.194 792.73 559.765 792.189 559.358C791.129 558.542 790.124 557.629 788.952 556.985C784.444 554.072 779.378 552.369 774.411 551.239C769.421 550.113 764.449 549.494 759.621 548.766C754.793 548.037 750.049 547.203 745.629 545.704C744.552 545.273 743.46 544.89 742.402 544.434C741.386 543.914 740.323 543.45 739.351 542.889C737.413 541.774 735.667 540.408 734.205 538.801C731.259 535.591 729.567 531.362 728.7 526.781C728.481 525.637 728.3 524.479 728.145 523.304L728.042 522.42L727.918 521.453C727.836 520.76 727.723 520.076 727.554 519.381C727.25 518.005 726.788 516.627 726.133 515.32C725.494 514.001 724.65 512.737 723.591 511.654C721.503 509.445 718.616 507.946 715.629 507.529C712.653 507.092 709.638 507.563 706.978 508.7C704.304 509.834 701.968 511.609 700.119 513.766C699.192 514.841 698.41 516.022 697.712 517.256C697.058 518.484 696.493 519.808 696.081 521.162C695.249 523.875 695.031 526.727 695.253 529.463C695.475 532.199 696.12 534.829 696.987 537.322C697.854 539.815 698.952 542.187 700.164 544.458C701.403 546.735 702.68 548.889 704.199 551.025C707.139 555.314 710.813 559.082 714.864 562.318C718.98 565.472 723.503 568.122 728.309 570.013C733.105 571.959 738.134 573.215 743.264 573.872C748.364 574.501 753.342 574.524 758.059 575.051C759.255 575.159 760.388 575.37 761.543 575.542C762.662 575.786 763.804 575.992 764.852 576.345C765.958 576.622 766.94 577.093 767.958 577.49L769.389 578.248C769.885 578.48 770.275 578.844 770.724 579.132L771.385 579.59C771.591 579.752 771.784 579.948 771.979 580.13C772.362 580.499 772.78 580.831 773.152 581.22C773.815 582.075 774.595 582.815 775.126 583.796C776.4 585.59 777.247 587.625 777.753 589.674C778.211 591.742 778.262 593.869 777.886 595.972C777.51 598.074 776.701 600.143 775.631 602.112C773.443 606.033 770.231 609.584 766.743 612.743C759.682 619.045 751.108 623.702 742.153 627.241C737.664 629.012 733.054 630.515 728.376 631.774C723.797 633.002 719.114 634.023 714.479 634.722C714.51 634.821 714.541 634.921 714.567 635.012C714.929 635.262 715.306 635.515 715.676 635.759C715.532 636.134 715.388 636.51 715.238 636.877C715.546 637.671 715.876 638.462 716.228 639.25C716.506 639.267 716.789 639.293 717.074 639.305L716.38 639.581C716.408 639.623 716.42 639.675 716.439 639.722C721.011 638.983 725.486 637.994 729.929 636.797C734.601 635.529 739.231 634.038 743.759 632.252C752.797 628.693 761.567 624.06 769.138 617.618C770.095 616.837 770.984 615.957 771.907 615.127C772.772 614.228 773.684 613.381 774.506 612.438C776.191 610.609 777.766 608.601 779.159 606.45C780.547 604.29 781.698 601.905 782.465 599.345C783.231 596.785 783.589 594.031 783.314 591.307C783.059 588.593 782.286 585.917 781.07 583.551C780.504 582.34 779.717 581.267 779.019 580.146C778.674 579.583 778.19 579.101 777.773 578.574C777.331 578.064 776.939 577.52 776.412 577.08L774.918 575.713C774.405 575.275 773.825 574.919 773.276 574.518L772.443 573.947L771.555 573.473C770.964 573.172 770.377 572.822 769.765 572.56C767.33 571.479 764.81 570.842 762.319 570.355C757.342 569.498 752.493 569.399 747.845 569.044C746.671 568.969 745.544 568.839 744.398 568.733C743.279 568.561 742.152 568.466 741.038 568.23C738.797 567.863 736.594 567.266 734.418 566.638C730.084 565.285 725.93 563.412 722.102 561.004C718.301 558.566 714.78 555.684 711.827 552.285L710.72 551.006L709.681 549.668C708.97 548.797 708.37 547.839 707.72 546.914C706.461 545.001 705.296 543.013 704.263 541.006C702.216 536.983 700.668 532.717 700.427 528.508C700.312 526.412 700.522 524.35 701.166 522.429C701.793 520.519 702.831 518.681 704.14 517.155C705.464 515.631 707.088 514.41 708.877 513.609C710.675 512.839 712.633 512.468 714.49 512.696C716.336 512.907 718.066 513.644 719.379 514.905C720.719 516.135 721.671 517.845 722.215 519.771C722.385 520.236 722.449 520.76 722.572 521.244L722.794 522.821C722.925 524.049 723.092 525.276 723.3 526.512C723.712 528.974 724.312 531.466 725.234 533.898C726.141 536.327 727.398 538.7 729.022 540.813C730.637 542.932 732.631 544.77 734.802 546.247C739.183 549.15 743.968 550.885 748.781 552.071C758.388 554.419 768.001 554.722 776.72 557.272C781.058 558.525 785.113 560.393 788.483 563.124C791.922 565.795 794.668 569.37 796.629 573.283C798.593 577.219 799.731 581.557 800.026 586.006C800.347 590.511 800.06 595.065 799.165 599.487C797.423 608.347 793.083 616.671 786.711 622.99C783.538 626.152 779.865 628.772 775.836 630.92C771.808 633.067 767.549 634.767 763.082 636.197C754.131 639.154 745.041 641.709 735.853 643.461C734.729 643.691 733.624 643.896 732.608 644.125C731.298 644.42 729.99 644.665 728.675 644.916C727.04 645.213 725.273 645.456 723.476 645.585L722.484 645.654C722.381 645.663 722.298 645.683 722.259 645.589L722.186 645.481L721.796 644.923L720.944 643.665C720.221 642.633 719.55 641.819 719.282 641.638L718.873 641.372C718.783 641.312 718.759 641.364 718.804 641.503L719.224 642.765C719.292 642.972 719.259 643.031 719.125 642.94L718.584 642.569C718.431 642.468 718.149 642.14 717.793 641.668L716.578 640.051C718.155 643.38 720.186 646.594 722.896 649.794C723.072 650.001 723.257 650.202 723.433 650.409L723.885 650.381C725.168 650.297 726.438 650.174 727.696 650.035C730.215 649.742 732.703 649.35 735.182 648.927C740.127 648.043 745.009 646.924 749.837 645.636C754.659 644.339 759.45 642.943 764.176 641.362C768.936 639.866 773.754 637.993 778.274 635.573C782.811 633.177 787.111 630.074 790.773 626.35C794.427 622.633 797.519 618.353 799.81 613.674C802.118 609.02 803.727 604.03 804.611 598.915C805.504 593.794 805.589 588.604 805.03 583.391C804.366 578.165 802.663 573.027 799.942 568.456C798.581 566.177 796.954 564.042 795.121 562.119L795.123 562.069Z" fill="#010101"/>
</g>
<path d="M748.505 642.866L742.267 629.193C740.207 630.092 737.846 630.35 735.673 631.012C734.923 631.242 734.187 631.475 733.448 631.722C733.365 631.778 733.274 631.839 733.2 631.89C732.148 632.566 731.291 633.351 730.419 633.543L736.46 646.783C739.989 644.611 744.266 643.116 748.525 642.877L748.505 642.866Z" fill="black"/>
<path d="M768.735 636.645L761.122 619.942C757.569 622.311 754.076 624.41 750.181 626.31L757.118 641.515C760.911 638.912 764.215 637.085 768.735 636.645Z" fill="black"/>
<path d="M779.426 632.957C779.479 632.91 779.534 632.849 779.586 632.801C782.079 630.437 785.002 628.832 787.733 626.802C788.346 626.351 788.938 625.817 789.539 625.277L773.919 609.358C773.731 609.545 773.558 609.735 773.409 609.908C772.197 611.345 770.959 612.763 769.734 614.183C768.502 615.609 767.272 617.021 766.029 618.431C766.095 618.35 765.913 618.581 765.644 618.897L779.434 632.952L779.426 632.957Z" fill="black"/>
<path d="M798.898 607.457C800.041 604.847 801.832 602.765 802.57 600.056L780.156 594.918C780.397 597.931 779.181 600.916 777.222 603.535C777.038 603.78 776.834 604.014 776.65 604.26L776.048 606.902L798.798 612.126C798.247 610.723 798.128 609.246 798.903 607.465L798.898 607.457Z" fill="black"/>
<path d="M797.448 570.301L776.393 581.404C776.937 581.905 777.443 582.42 777.813 583.039C778.588 584.326 778.766 585.872 779.064 587.312C779.504 589.442 779.932 591.519 780.233 593.622L802.178 582.05C799.94 578.674 799.168 574.161 797.448 570.301Z" fill="black"/>
<path d="M776.115 553.418C774.928 553.413 773.775 553.119 772.624 552.739L763.805 574.228C766.357 574.215 768.72 575.066 770.671 576.789C771.589 577.181 772.464 577.688 773.239 578.262C773.989 578.817 774.534 579.462 774.983 580.161L784.686 556.516C783.461 555.92 782.198 555.375 780.839 554.955C779.329 554.491 777.681 554.037 776.115 553.418Z" fill="black"/>
<path d="M752.578 571.914L758.47 550.776C754.32 550.157 750.249 549.193 746.28 547.593L739.925 570.385C743.966 571.948 748.286 571.801 752.572 571.906L752.578 571.914Z" fill="black"/>
<path d="M730.239 538.455L711.578 555.521C714.376 558.904 717.83 561.312 721.468 563.546L740.539 546.106C736.368 544.619 732.746 542.337 730.239 538.455Z" fill="black"/>
<path d="M725.23 521.8L697.083 527.512C698.276 530.254 699.068 533.136 700.126 536.019C700.55 537.18 701.021 538.323 701.507 539.467L728.867 533.914C726.613 530.174 725.125 526.013 725.239 521.794L725.23 521.8Z" fill="black"/>
<path d="M790.732 579.378C790.989 579.276 791.359 579.11 791.744 578.982C792.206 578.826 792.723 579.358 792.71 579.874C792.692 580.417 792.442 580.852 792.151 581.278C791.685 581.945 790.908 581.939 790.362 581.258C790.234 581.103 790.149 580.907 790.045 580.736C789.86 580.427 789.994 580.143 790.172 579.889C790.29 579.725 790.47 579.615 790.729 579.391L790.732 579.378Z" fill="black"/>
<path d="M788.85 623.848C787.809 624.505 786.637 623.897 786.57 622.711C786.554 622.456 786.732 622.094 786.936 621.932C787.667 621.352 788.855 621.538 789.371 622.336C789.517 622.551 789.481 622.962 789.38 623.223C789.28 623.485 788.99 623.681 788.844 623.84L788.85 623.848Z" fill="black"/>
<path d="M795.358 613.573C795.404 613.747 795.542 614.04 795.569 614.348C795.605 614.83 795.105 615.411 794.659 615.483C794.124 615.568 793.611 615.239 793.488 614.682C793.417 614.38 793.406 614.061 793.437 613.75C793.473 613.376 793.897 612.968 794.263 612.901C794.637 612.829 795.041 613.051 795.358 613.573Z" fill="black"/>
<path d="M788.41 575.913C787.925 576.338 787.165 576.285 786.72 575.789C786.256 575.282 786.239 574.437 786.689 574.084C787.271 573.642 788.294 573.637 788.687 574.217C789.04 574.738 788.956 575.435 788.419 575.908L788.41 575.913Z" fill="black"/>
<path d="M771.06 618.852C771.051 619.088 771.117 619.418 771.002 619.677C770.754 620.219 769.985 620.474 769.39 620.273C768.922 620.118 768.608 619.619 768.61 619.05C768.613 618.698 768.797 618.452 769.079 618.298C769.714 617.952 770.62 618.184 771.068 618.847L771.06 618.852Z" fill="black"/>
<path d="M798.622 590.266C799.257 589.812 800.135 589.966 800.497 590.591C800.82 591.157 800.708 591.776 800.193 592.246C799.65 592.746 798.794 592.589 798.359 591.893C798 591.327 798.112 590.635 798.631 590.26L798.622 590.266Z" fill="black"/>
<path d="M762.403 626.525C762.92 626.199 763.68 626.288 764.077 626.732C764.438 627.14 764.253 627.99 763.725 628.335C763.195 628.694 762.473 628.482 762.175 627.899C761.913 627.388 762.014 626.788 762.409 626.533L762.403 626.525Z" fill="black"/>
<path d="M790.068 593.219C790.094 593.419 790.179 593.723 790.173 594.017C790.165 594.397 789.716 594.894 789.397 594.869C789.1 594.84 788.758 594.746 788.552 594.548C788.345 594.349 788.251 594.014 788.177 593.726C788.071 593.303 788.312 592.838 788.652 592.68C789.009 592.511 789.503 592.599 789.799 592.894C789.872 592.965 789.933 593.057 790.059 593.225L790.068 593.219Z" fill="black"/>
<path d="M749.337 629.272C749.663 629.825 749.387 630.506 748.903 630.629C747.865 630.897 747.109 630.262 747.095 629.1C747.092 628.703 747.525 628.326 747.916 628.351C748.621 628.393 749.012 628.864 749.337 629.272Z" fill="black"/>
<path d="M764.73 624.129C764.433 624.136 764.073 624.247 763.848 624.11C763.628 623.981 763.481 623.622 763.44 623.347C763.379 622.918 763.584 622.561 763.959 622.295C764.34 622.037 764.765 622.004 765.091 622.254C765.367 622.465 765.521 623.05 765.329 623.373C765.178 623.632 764.941 623.852 764.724 624.12L764.73 624.129Z" fill="black"/>
<path d="M794.849 567.086C794.274 567.378 793.579 567.137 793.278 566.531C793.05 566.07 793.25 565.439 793.709 565.189C794.289 564.868 794.956 565.105 795.261 565.732C795.491 566.216 795.296 566.855 794.857 567.08L794.849 567.086Z" fill="black"/>
<path d="M795.523 589.647C795.795 590.103 795.575 590.795 795.111 590.965C794.585 591.151 793.973 590.926 793.765 590.475C793.517 589.966 793.707 589.355 794.168 589.127C794.58 588.933 795.245 589.183 795.523 589.647Z" fill="black"/>
<path d="M736.059 565.78C735.678 565.217 735.82 564.517 736.388 564.145C736.687 563.943 736.986 563.993 737.262 564.169C737.647 564.416 737.777 564.822 737.825 565.249C737.866 565.596 737.459 566.137 737.144 566.205C736.714 566.303 736.311 566.153 736.067 565.775L736.059 565.78Z" fill="black"/>
<path d="M782.178 573.129C782.735 572.703 783.331 572.71 783.941 572.986C784.297 573.155 784.365 573.773 784.073 574.055C783.569 574.541 783.007 574.656 782.356 574.373C782.016 574.228 781.862 573.982 781.896 573.657C781.917 573.474 782.073 573.296 782.172 573.12L782.178 573.129Z" fill="black"/>
<path d="M789.607 619.616C789.218 619.916 788.457 619.791 788.21 619.39C787.963 618.99 788.122 618.279 788.516 617.987C788.928 617.685 789.669 617.799 789.899 618.211C790.144 618.625 789.988 619.322 789.599 619.622L789.607 619.616Z" fill="black"/>
<path d="M794.853 610.811C794.611 610.383 794.823 609.732 795.301 609.457C795.779 609.182 796.368 609.339 796.649 609.825C796.938 610.305 796.753 610.889 796.236 611.142C795.736 611.384 795.089 611.231 794.858 610.819L794.853 610.811Z" fill="black"/>
<path d="M778.387 576.698C778.624 576.959 778.587 577.6 778.317 577.844C777.81 578.308 777.133 578.235 776.693 577.675C776.481 577.396 776.613 576.824 776.949 576.572C777.368 576.264 778.048 576.323 778.378 576.703L778.387 576.698Z" fill="black"/>
<path d="M793.186 575.421C793.464 575.993 793.382 576.532 792.964 576.948C792.848 577.063 792.585 577.12 792.413 577.08C791.86 576.959 791.579 576.509 791.636 575.915C791.683 575.485 791.986 575.147 792.465 575.16C792.737 575.169 793.005 575.35 793.186 575.421Z" fill="black"/>
<path d="M786.545 582.38C786.941 582.946 787.041 583.397 786.748 583.91C786.581 584.216 786.315 584.323 786.002 584.342C785.653 584.361 785.426 584.152 785.311 583.856C785.076 583.278 785.29 582.578 785.857 582.291C786.056 582.192 786.379 582.348 786.545 582.38Z" fill="black"/>
<path d="M786.107 611.805C786.492 612.233 786.471 613.093 786.06 613.503C785.997 613.57 785.895 613.615 785.809 613.649C785.474 613.743 785.193 613.595 784.98 613.353C784.617 612.923 784.638 612.401 785.006 611.946C785.224 611.679 785.517 611.613 785.837 611.674C785.934 611.693 786.015 611.759 786.107 611.805Z" fill="black"/>
<path d="M787.023 598.372C787.476 598.114 788.115 598.273 788.334 598.704C788.495 599.03 788.307 599.556 787.979 599.766C787.529 600.047 786.898 599.882 786.681 599.437C786.521 599.111 786.705 598.563 787.023 598.372Z" fill="black"/>
<path d="M758.287 626.064C758.627 625.906 758.9 625.757 759.194 625.655C759.548 625.536 759.768 625.773 759.931 626.049C760.125 626.353 760.013 626.67 759.779 626.877C759.556 627.064 759.263 627.202 758.967 627.282C758.479 627.419 757.931 627.162 757.981 626.826C758.027 626.554 758.191 626.297 758.292 626.072L758.287 626.064Z" fill="black"/>
<path d="M786.279 608.743C785.99 609.011 785.479 609.006 785.2 608.736C784.828 608.384 784.799 607.788 785.121 607.389C785.459 606.979 786.064 606.98 786.408 607.399C786.73 607.785 786.667 608.371 786.273 608.734L786.279 608.743Z" fill="black"/>
<path d="M796.963 604.6C797.249 605.023 797.063 605.692 796.601 605.92C796.228 606.1 795.759 605.996 795.468 605.673C795.172 605.343 795.243 604.521 795.585 604.241C795.9 603.992 796.689 604.195 796.963 604.6Z" fill="black"/>
<path d="M719.367 557.59C718.97 557.823 718.313 557.567 718.074 557.089C717.886 556.721 717.992 556.13 718.269 555.967C718.652 555.731 719.358 555.881 719.632 556.251C719.907 556.621 719.765 557.357 719.362 557.581L719.367 557.59Z" fill="black"/>
<path d="M780.686 610.524C780.962 610.253 781.511 610.316 781.799 610.652C782.124 611.024 782.14 611.423 781.849 611.778C781.45 612.241 780.777 612.334 780.499 611.943C780.202 611.504 780.278 610.921 780.686 610.524Z" fill="black"/>
<path d="M783.451 626.827C783.105 626.868 782.8 626.954 782.523 626.9C782.384 626.873 782.24 626.608 782.184 626.417C782.127 626.226 782.092 625.96 782.179 625.804C782.322 625.551 782.533 625.275 782.777 625.17C783.075 625.041 783.614 625.497 783.625 625.888C783.633 626.185 783.526 626.474 783.46 626.821L783.451 626.827Z" fill="black"/>
<path d="M787.384 579.338C787.517 579.767 787.439 580.133 787.145 580.465C786.831 580.823 786.363 580.934 786.095 580.681C785.704 580.318 785.686 579.666 786.041 579.317C786.429 578.945 787.176 578.959 787.378 579.329L787.384 579.338Z" fill="black"/>
<path d="M776.71 611.501C776.144 611.824 775.479 611.574 775.22 610.94C775.056 610.556 775.288 610.061 775.662 609.989C776.083 609.897 776.461 609.955 776.812 610.225C777.208 610.524 777.163 611.243 776.71 611.501Z" fill="black"/>
<path d="M781.87 601.981C782.224 601.718 782.676 601.762 782.953 602.082C783.241 602.418 783.231 602.956 782.927 603.15C782.579 603.385 782.083 603.347 781.82 603.066C781.557 602.785 781.584 602.2 781.862 601.987L781.87 601.981Z" fill="black"/>
<path d="M732.339 539.63C732.624 539.98 732.603 540.466 732.28 540.684C731.877 540.945 731.458 540.915 731.2 540.606C730.946 540.283 730.975 539.756 731.262 539.538C731.623 539.269 732.056 539.302 732.331 539.635L732.339 539.63Z" fill="black"/>
<path d="M707.275 545.151C706.839 545.506 706.373 545.46 706.082 545.137C705.785 544.807 705.851 544.243 706.196 544.094C706.572 543.936 707.078 544.04 707.261 544.399C707.368 544.629 707.279 544.943 707.283 545.145L707.275 545.151Z" fill="black"/>
<path d="M725.985 549.028C725.656 549.202 725.084 549.071 724.888 548.781C724.663 548.449 724.721 547.892 724.982 547.654C725.321 547.352 725.952 547.517 726.266 547.98C726.468 548.278 726.3 548.851 725.977 549.034L725.985 549.028Z" fill="black"/>
<path d="M765.456 617.816C765.655 618.164 765.498 618.681 765.136 618.806C764.834 618.914 764.545 618.843 764.343 618.581C764.097 618.253 764.152 617.745 764.441 617.513C764.712 617.306 765.251 617.46 765.456 617.816Z" fill="black"/>
<path d="M784.189 621.799C784.188 621.993 784.25 622.228 784.165 622.37C784.009 622.621 783.795 622.911 783.543 623.021C783.3 623.125 782.873 623.137 782.714 622.991C782.535 622.834 782.466 622.41 782.53 622.149C782.646 621.66 783.215 621.359 783.732 621.444C783.898 621.476 784.041 621.669 784.197 621.793L784.189 621.799Z" fill="black"/>
<path d="M796.792 580.588C796.764 580.921 796.813 581.226 796.71 581.465C796.598 581.746 796.204 581.771 795.901 581.59C795.603 581.417 795.459 581.152 795.507 580.83C795.531 580.669 795.709 580.415 795.831 580.417C796.114 580.407 796.412 580.507 796.778 580.585L796.792 580.588Z" fill="black"/>
<path d="M721.536 543.224C721.154 542.819 721.189 542.3 721.534 542.079C721.824 541.882 722.115 541.939 722.367 542.167C722.69 542.467 722.661 543.03 722.282 543.202C722.053 543.309 721.731 543.225 721.536 543.224Z" fill="black"/>
<path d="M716.185 547.306C715.991 547.304 715.686 547.354 715.414 547.273C715.277 547.232 715.153 546.942 715.152 546.761C715.141 546.406 715.4 546.183 715.73 546.116C716.045 546.048 716.34 546.126 716.553 546.405C716.707 546.614 716.555 547.067 716.19 547.314L716.185 547.306Z" fill="black"/>
<path d="M765.632 569.863C765.647 570.046 765.735 570.264 765.664 570.409C765.472 570.768 764.949 570.905 764.621 570.741C764.398 570.626 764.262 570.175 764.376 569.952C764.623 569.495 765.316 569.449 765.632 569.863Z" fill="black"/>
<path d="M798.629 596.625C798.315 596.536 798.024 596.516 797.806 596.373C797.698 596.302 797.679 595.989 797.727 595.811C797.808 595.502 797.978 595.218 798.327 595.163C798.521 595.128 798.787 595.093 798.918 595.198C799.049 595.302 799.124 595.59 799.083 595.762C799.008 596.043 798.815 596.294 798.626 596.639L798.629 596.625Z" fill="black"/>
<path d="M753.142 631.201C752.637 631.579 752.31 631.559 751.972 631.22C751.749 630.997 751.746 630.636 751.961 630.419C752.341 630.016 753.034 630.042 753.229 630.526C753.317 630.745 753.172 631.048 753.148 631.209L753.142 631.201Z" fill="black"/>
<path d="M801.953 597.575C802.001 597.325 801.996 597.015 802.116 596.764C802.179 596.625 802.45 596.49 802.614 596.5C802.783 596.518 803.028 596.666 803.093 596.815C803.316 597.305 802.823 597.843 802.265 597.75C802.181 597.734 802.109 597.663 801.953 597.575Z" fill="black"/>
<path d="M798.203 571.577C798.29 571.724 798.399 571.831 798.375 571.884C798.26 572.143 798.168 572.507 797.969 572.605C797.762 572.709 797.417 572.557 797.131 572.509C797.215 572.222 797.221 571.856 797.411 571.691C797.585 571.538 797.954 571.601 798.203 571.577Z" fill="black"/>
<path d="M778.441 602.25C778.077 602.158 777.77 602.149 777.555 601.993C777.346 601.845 777.484 601.353 777.724 601.19C777.981 601.016 778.499 601.051 778.548 601.284C778.597 601.553 778.491 601.842 778.436 602.242L778.441 602.25Z" fill="black"/>
<path d="M779.361 573.285C779.125 573.239 778.855 573.216 778.594 573.152C778.525 573.138 778.463 573.011 778.443 572.928C778.389 572.687 778.669 572.388 779.004 572.33C779.326 572.27 779.668 572.437 779.656 572.722C779.652 572.894 779.492 573.051 779.358 573.299L779.361 573.285Z" fill="black"/>
<path d="M773.589 624.64C773.885 624.898 773.903 625.478 773.561 625.722C773.329 625.879 773.008 625.903 772.723 625.999C772.685 625.711 772.538 625.388 772.633 625.154C772.731 624.906 773.052 624.738 773.292 624.575C773.35 624.536 773.492 624.621 773.587 624.654L773.589 624.64Z" fill="black"/>
<path d="M759.89 621.778C759.865 622.169 759.909 622.466 759.81 622.713C759.723 622.941 759.301 622.889 759.036 622.658C758.807 622.463 758.762 621.986 759.008 621.868C759.224 621.758 759.524 621.808 759.881 621.784L759.89 621.778Z" fill="black"/>
<path d="M774.59 620.195C774.3 620.499 774.136 620.755 773.909 620.885C773.658 621.031 773.393 620.764 773.318 620.367C773.274 620.107 773.378 619.904 773.633 619.924C773.903 619.947 774.175 620.065 774.584 620.186L774.59 620.195Z" fill="black"/>
<path d="M791.99 604.103C791.991 604.284 792.07 604.508 791.988 604.636C791.821 604.906 791.029 604.718 791.01 604.404C790.998 604.243 791.146 604.034 791.276 603.923C791.549 603.701 791.807 603.78 791.99 604.103Z" fill="black"/>
<path d="M784.956 617.367C785.098 617.754 785.011 618.018 784.712 618.112C784.314 618.237 784.041 618.155 783.953 617.865C783.848 617.549 783.907 617.28 784.228 617.111C784.532 616.954 784.857 617.059 784.962 617.375L784.956 617.367Z" fill="black"/>
<path d="M779.839 567.961C779.882 568.15 779.933 568.332 779.976 568.521C779.79 568.55 779.569 568.651 779.413 568.6C779.191 568.521 779.173 568.28 779.293 568.065C779.43 567.84 779.616 567.811 779.825 567.959L779.839 567.961Z" fill="black"/>
<path d="M790.854 560.419C791.058 560.559 791.137 560.783 790.969 560.945C790.853 561.06 790.604 561.048 790.415 561.091C790.386 560.905 790.296 560.7 790.35 560.531C790.426 560.286 790.645 560.271 790.854 560.419Z" fill="black"/>
<path d="M769.818 567.234C769.555 566.881 769.67 566.356 769.931 566.349C770.106 566.339 770.342 566.421 770.44 566.548C770.538 566.674 770.568 567.04 770.519 567.074C770.289 567.181 770.018 567.208 769.815 567.248L769.818 567.234Z" fill="black"/>
<path d="M713.851 536.581C713.681 536.526 713.454 536.511 713.353 536.398C713.165 536.175 713.358 535.888 713.731 535.78C713.966 535.717 714.164 535.813 714.149 536.077C714.137 536.254 713.955 536.414 713.856 536.589L713.851 536.581Z" fill="black"/>
<path d="M771.76 561.862C771.933 562.046 771.94 562.235 771.73 562.353C771.504 562.482 771.315 562.417 771.233 562.207C771.199 562.121 771.209 561.993 771.253 561.915C771.373 561.665 771.556 561.65 771.76 561.862Z" fill="black"/>
<path d="M710.098 530.752C710.121 530.93 710.159 531.11 710.182 531.287C710.013 531.305 709.781 531.39 709.672 531.318C709.583 531.258 709.542 530.948 709.61 530.853C709.679 530.758 709.926 530.784 710.095 530.766L710.098 530.752Z" fill="black"/>
<path d="M721.634 546.793C721.599 546.973 721.612 547.206 721.507 547.301C721.383 547.421 721.126 547.487 720.97 547.435C720.867 547.408 720.774 547.11 720.809 546.965C720.849 546.793 721.003 546.556 721.155 546.513C721.277 546.479 721.467 546.689 721.634 546.793Z" fill="black"/>
<path d="M710.282 554.925C710.375 555.188 710.279 555.386 710.01 555.363C709.833 555.35 709.657 555.18 709.509 555.05C709.478 555.023 709.54 554.848 709.593 554.764C709.73 554.538 709.932 554.498 710.133 554.652C710.208 554.71 710.228 554.829 710.282 554.925Z" fill="black"/>
<path d="M731.176 544.173C731.323 544.266 731.526 544.334 731.616 544.466C731.667 544.541 731.569 544.825 731.466 544.87C731.259 544.974 731.061 544.842 731.035 544.607C731.025 544.468 731.127 544.315 731.176 544.173Z" fill="black"/>
<path d="M708.751 535.915C708.654 535.897 708.543 535.911 708.467 535.854C708.423 535.823 708.383 535.657 708.416 535.635C708.548 535.509 708.706 535.403 708.858 535.324C708.899 535.296 709.011 535.389 709.097 535.428C708.987 535.586 708.869 535.751 708.759 535.91L708.751 535.915Z" fill="black"/>
<path d="M761.838 560.174C761.979 560.151 762.279 560.093 762.281 560.115C762.347 560.373 762.382 560.639 762.417 560.905C762.242 560.842 762.064 560.794 761.908 560.706C761.702 560.58 761.682 560.389 761.838 560.174Z" fill="black"/>
<path d="M788.727 570.083C788.813 570.122 788.924 570.143 788.963 570.201C789.002 570.259 788.959 570.373 788.957 570.459C788.87 570.421 788.757 570.413 788.72 570.341C788.681 570.283 788.724 570.169 788.727 570.083Z" fill="black"/>
<path d="M767.519 555.918L767.689 556.08L767.54 556.145L767.519 555.918Z" fill="black"/>
<path d="M775.875 563.266C775.792 563.286 775.679 563.351 775.634 563.321C775.456 563.2 775.491 563.055 775.709 562.968C775.778 562.945 775.876 563 775.973 563.019C775.935 563.105 775.905 563.186 775.875 563.266Z" fill="black"/>
<path d="M787.492 603.525C787.418 603.539 787.301 603.582 787.285 603.557C787.234 603.483 787.225 603.38 787.191 603.294C787.266 603.28 787.382 603.237 787.399 603.262C787.45 603.337 787.467 603.434 787.487 603.517L787.492 603.525Z" fill="black"/>
<path d="M790.411 589.304C790.404 589.453 790.459 589.694 790.384 589.745C790.251 589.834 790.041 589.808 789.863 589.832C789.879 589.676 789.847 589.504 789.915 589.374C790.022 589.157 790.219 589.144 790.406 589.295L790.411 589.304Z" fill="black"/>
<path d="M743.528 628.327C743.692 628.409 743.856 628.491 744.001 628.598C744.027 628.617 743.975 628.809 743.909 628.854C743.843 628.899 743.643 628.889 743.634 628.859C743.581 628.69 743.56 628.499 743.528 628.327Z" fill="black"/>
<path d="M775.421 615.055C775.441 615.138 775.503 615.229 775.47 615.287C775.388 615.452 775.246 615.439 775.128 615.229C775.094 615.179 775.152 615.068 775.174 614.993C775.249 615.014 775.338 615.039 775.413 615.06L775.421 615.055Z" fill="black"/>
<path d="M785.322 588.547C785.363 588.785 785.264 588.924 785.089 588.862C784.955 588.807 784.862 588.652 784.778 588.528C784.761 588.503 784.846 588.361 784.91 588.33C785.131 588.229 785.273 588.314 785.314 588.552L785.322 588.547Z" fill="black"/>
<path d="M780.534 587.682C780.684 587.726 780.895 587.716 780.948 587.812C781.016 587.912 780.95 588.101 780.935 588.256C780.843 588.246 780.683 588.258 780.663 588.211C780.592 588.053 780.569 587.876 780.52 587.68L780.534 587.682Z" fill="black"/>
<path d="M784.344 592.953C784.373 593.138 784.41 593.318 784.434 593.496C784.339 593.463 784.223 593.469 784.147 593.412C784.072 593.354 784.005 593.255 783.979 593.163C783.968 593.075 784.017 592.969 784.035 592.872C784.13 592.904 784.227 592.923 784.33 592.95L784.344 592.953Z" fill="black"/>
<path d="M775.117 567.016C775.07 567.072 774.99 567.186 774.971 567.175C774.701 567.08 774.689 566.955 774.933 566.851C774.966 566.829 775.05 566.953 775.117 567.016Z" fill="black"/>
<path d="M773.652 571.969L773.611 571.694L773.842 571.876L773.652 571.969Z" fill="black"/>
<path d="M765.442 565.354L765.626 565.483L765.463 565.582L765.442 565.354Z" fill="black"/>
<path d="M706.197 525.097C706.178 525.194 706.151 525.297 706.127 525.386C706.032 525.353 705.894 525.363 705.854 525.305C705.815 525.247 705.883 525.116 705.908 525.027C706.005 525.046 706.1 525.078 706.197 525.097Z" fill="black"/>
<path d="M732.822 559.144L732.984 559.276L732.826 559.347L732.822 559.144Z" fill="black"/>
<path d="M793.532 618.867C793.499 618.961 793.48 619.058 793.448 619.153C793.353 619.12 793.209 619.121 793.178 619.058C793.139 619 793.221 618.872 793.254 618.777C793.348 618.81 793.443 618.842 793.537 618.875L793.532 618.867Z" fill="black"/>
<path d="M746.925 561.781C747.014 561.805 747.097 561.821 747.186 561.846C747.162 561.935 747.166 562.065 747.11 562.09C747.061 562.124 746.944 562.058 746.855 562.034C746.879 561.945 746.895 561.862 746.919 561.773L746.925 561.781Z" fill="black"/>
<path d="M781.608 607.569L781.712 607.438L781.777 607.587L781.608 607.569Z" fill="black"/>
</g>
<g clip-path="url(#clip2_448_1105)">
<path d="M693.89 617.49C696.91 616.71 700.55 616.5 703.24 614.65C706.63 612.32 706.41 606.69 705.55 602.72C704.6 598.37 702.1 594.66 699.07 591.87C698.29 591.15 696.1 589.4 695.32 591.25C695.32 591.25 691.97 599.24 688.63 607.23" fill="#B989C9"/>
<path d="M638.12 617.54C635.06 616.75 631.38 616.54 628.65 614.67C625.22 612.31 625.44 606.61 626.31 602.59C627.27 598.18 629.8 594.43 632.87 591.61C633.66 590.88 635.88 589.11 636.66 590.99C636.66 590.99 640.05 599.08 643.44 607.17" fill="#B989C9"/>
<path d="M657.54 657.64C659.31 658.08 661.15 658.35 663.05 658.43C679.31 659.16 691.96 644.67 694.38 632.08C697.69 614.86 682.72 599.32 663.58 599.32H664.13C644.99 599.32 630.01 614.86 633.33 632.08C635.4 642.85 644.73 654.5 657.54 657.64Z" fill="#B989C9"/>
<path d="M642.64 614.31C647.37 610.7 655.03 609.58 658.04 614.36C660.66 618.51 660.67 624.06 658.93 628.54C657.2 633 652.14 634.31 647.8 632.93C643.95 631.71 641.02 628.33 639.6 624.64C638 620.48 639.05 617.03 642.63 614.3L642.64 614.31Z" fill="black"/>
<path d="M674.64 614.31C679.37 610.7 687.03 609.58 690.04 614.36C692.66 618.51 692.67 624.06 690.93 628.54C689.2 633 684.14 634.31 679.8 632.93C675.95 631.71 673.02 628.33 671.6 624.64C670 620.48 671.05 617.03 674.63 614.3L674.64 614.31Z" fill="black"/>
<path d="M638.56 616.04C636.47 615.26 634.01 614.81 632.05 613.34C629.58 611.49 629.25 607.74 629.49 605.15C629.75 602.32 631.11 600.04 632.9 598.44C633.36 598.03 634.68 597.04 635.36 598.35C635.36 598.35 638.28 603.99 641.21 609.62" fill="black"/>
<path d="M691.13 609.79C694.16 604.02 697.2 598.25 697.2 598.25C697.9 596.91 699.23 597.9 699.7 598.32C701.51 599.94 702.87 602.24 703.11 605.12C703.33 607.75 702.95 611.57 700.42 613.48C698.41 614.99 695.9 615.47 693.77 616.29" fill="black"/>
<path d="M666.33 666.18C663.79 666.18 661.25 665.82 658.73 665.08C643.74 661.08 633.65 646.43 631.44 634.01C629.7 624.25 632.41 614.23 638.86 606.53C645.65 598.43 655.66 593.78 666.34 593.78C676.03 593.54 686.34 598.49 693.26 606.75C699.88 614.65 702.58 624.59 700.66 634.02C698.94 644.61 691.72 655.31 682.25 661.29C677.12 664.53 671.72 666.17 666.32 666.17L666.33 666.18ZM667.01 598.84C666.81 598.84 666.61 598.84 666.41 598.84C657.17 598.84 648.57 602.83 642.75 609.78C637.26 616.33 634.96 624.84 636.43 633.12C638.36 643.97 647.1 656.75 660.06 660.19C660.08 660.19 660.1 660.2 660.12 660.21C668.22 662.59 675.15 659.78 679.54 657.01C687.72 651.84 694.2 642.26 695.66 633.17C695.66 633.13 695.67 633.1 695.68 633.06C697.33 625.02 695.09 616.83 689.37 610.01C683.56 603.08 675.04 598.84 667 598.84H667.01Z" fill="black"/>
<path d="M636.33 621.23C635.36 620.98 634.31 620.77 633.19 620.55C630.12 619.95 626.63 619.27 623.73 617.28C617.56 613.05 618.89 603.46 619.74 599.54C621.27 592.49 625.45 587.47 628.68 584.51C630.18 583.13 632.43 581.6 634.7 582.1C636.02 582.39 637.07 583.3 637.64 584.67C637.69 584.78 639.33 588.72 641.58 594.08L646.05 604.76L641.16 606.81L636.69 596.13C634.76 591.53 633.73 589.06 633.18 587.69C632.92 587.86 632.61 588.1 632.27 588.41C629.6 590.86 626.16 594.97 624.92 600.66C623.91 605.29 623.86 610.94 626.73 612.91C628.72 614.28 631.51 614.82 634.2 615.35C635.34 615.57 636.52 615.8 637.66 616.1L636.33 621.23ZM632.79 586.69L632.75 586.71C632.78 586.77 632.81 586.82 632.86 586.88C632.83 586.81 632.81 586.75 632.79 586.69Z" fill="black"/>
<path d="M695.74 621.23L694.41 616.1C695.54 615.81 696.72 615.58 697.86 615.35C700.55 614.82 703.34 614.28 705.33 612.91C708.2 610.94 708.15 605.29 707.14 600.66C705.9 594.97 702.46 590.86 699.79 588.41C699.46 588.1 699.15 587.87 698.9 587.69C698.59 588.45 698.12 589.57 697.42 591.24L690.91 606.8L686.02 604.75L694.43 584.66C695 583.3 696.05 582.38 697.37 582.09C699.63 581.59 701.89 583.13 703.38 584.5C706.61 587.47 710.79 592.48 712.32 599.53C713.17 603.46 714.5 613.04 708.33 617.28C705.43 619.27 701.95 619.95 698.87 620.55C697.76 620.77 696.71 620.97 695.73 621.23H695.74ZM699.3 586.7C699.3 586.7 699.27 586.79 699.25 586.84C699.28 586.8 699.31 586.76 699.33 586.71H699.3V586.7Z" fill="black"/>
<path d="M676.11 598.34C676.34 598.55 677.76 598.13 679.07 597.68L675.33 596.82L661.11 596.6L649.73 598.99C649.58 599.02 644.34 604.19 643.84 604.94C645.15 602.97 662.11 606.19 664.47 606.38C670.56 606.86 675.88 605.04 681.84 604.5C682.56 604.43 686.56 604.22 687.84 604.19C684.74 602.4 678.8 600.74 676.11 598.34Z" fill="black"/>
<path d="M663.83 586.96L655.26 594.64C654.59 594.99 654.56 595.93 655.19 596.33L660.53 599.7C661.17 600.1 662 599.66 662.03 598.91L665.26 587.86C665.29 587.11 664.49 586.61 663.83 586.96Z" fill="black"/>
<path d="M675.03 588.36L666.46 596.04C665.79 596.39 665.76 597.33 666.39 597.73L671.73 601.1C672.37 601.5 673.2 601.06 673.23 600.31L676.46 589.26C676.49 588.51 675.69 588.01 675.03 588.36Z" fill="black"/>
<path d="M672.11 584.58L661.69 593.92C660.88 594.35 660.84 595.49 661.61 595.98L668.11 600.07C668.88 600.56 669.89 600.02 669.93 599.11L673.86 585.68C673.9 584.77 672.93 584.16 672.12 584.58H672.11Z" fill="black"/>
<path d="M650.57 627.63C650.47 627.63 650.37 627.62 650.26 627.61C650 627.58 649.71 627.52 649.56 627.3C649.44 627.13 649.38 626.88 649.45 626.69C650.62 623.6 650.62 620.05 649.3 617.33C649.25 617.23 649.26 617.1 649.3 616.99C649.38 616.75 649.66 616.66 649.91 616.61C651.99 616.25 654.24 617.2 655.44 618.94C656.64 620.68 656.71 623.12 655.63 624.93C654.6 626.65 652.57 627.72 650.57 627.63Z" fill="white"/>
<path d="M682.57 627.63C682.47 627.63 682.37 627.62 682.26 627.61C682 627.58 681.71 627.52 681.56 627.3C681.44 627.13 681.38 626.88 681.45 626.69C682.62 623.6 682.62 620.05 681.3 617.33C681.25 617.23 681.26 617.1 681.3 616.99C681.38 616.75 681.66 616.66 681.91 616.61C683.99 616.25 686.24 617.2 687.44 618.94C688.64 620.68 688.71 623.12 687.63 624.93C686.6 626.65 684.57 627.72 682.57 627.63Z" fill="white"/>
</g>
<g clip-path="url(#clip3_448_1105)">
<path d="M912.154 515.658C912.154 519.943 907.14 526.073 902.126 529.329C901.954 529.458 901.87 529.542 901.87 529.63C901.87 529.717 901.998 529.714 902.255 529.714C902.383 529.714 904.397 529.586 905.554 529.586C906.199 529.586 906.796 529.586 907.312 529.63C907.784 529.673 908.169 530.014 908.254 530.443C908.467 531.344 908.726 533.014 908.898 534.3C908.898 534.728 908.598 535.028 908.125 535.072C905.426 535.244 896.812 535.757 894.069 535.885C893.597 535.885 893.084 535.713 892.868 535.285C892.439 534.343 891.711 531.685 891.711 531.341C891.711 530.956 891.926 530.568 892.224 530.356C900.453 525.254 906.152 517.197 906.239 514.241C906.196 512.955 905.21 512.483 904.269 512.483C902.768 512.483 900.412 514.069 898.654 516.856C898.526 517.069 898.31 517.2 898.054 517.2C897.797 517.2 897.541 517.028 897.541 517.028C896.556 516.387 895.398 515.442 894.754 514.713C894.541 514.5 894.41 514.2 894.41 513.856C894.41 513.728 894.454 513.512 894.495 513.384C895.308 511.37 898.523 506.997 902.724 506.997C906.624 506.997 912.154 511.241 912.154 515.655V515.658Z" fill="black"/>
<path d="M914.04 531.688C913.011 529.974 912.711 527.359 912.711 525.172C912.711 519.514 915.754 507.172 923.768 507.172C925.482 507.172 930.239 509.058 931.869 511.845C932.81 513.474 933.154 515.529 933.154 517.503C933.154 523.89 929.898 535.932 922.01 535.932C920.34 535.932 915.923 534.431 914.037 531.688H914.04ZM918.797 526.114C918.797 529.501 919.955 530.487 921.112 530.487C924.284 530.487 926.942 522.214 926.942 516.214C926.942 513.259 926.001 512.442 924.972 512.442C921.885 512.442 918.8 520.199 918.8 526.114H918.797Z" fill="black"/>
<path d="M952.784 515.658C952.784 519.943 947.77 526.073 942.756 529.329C942.585 529.458 942.5 529.542 942.5 529.63C942.5 529.717 942.628 529.714 942.885 529.714C943.013 529.714 945.027 529.586 946.185 529.586C946.829 529.586 947.426 529.586 947.942 529.63C948.415 529.673 948.799 530.014 948.884 530.443C949.097 531.344 949.356 533.014 949.528 534.3C949.528 534.728 949.228 535.028 948.756 535.072C946.056 535.244 937.442 535.757 934.699 535.885C934.227 535.885 933.714 535.713 933.498 535.285C933.07 534.343 932.341 531.685 932.341 531.341C932.341 530.956 932.557 530.568 932.854 530.356C941.083 525.254 946.782 517.197 946.87 514.241C946.826 512.955 945.841 512.483 944.899 512.483C943.398 512.483 941.042 514.069 939.285 516.856C939.156 517.069 938.941 517.2 938.684 517.2C938.428 517.2 938.171 517.028 938.171 517.028C937.186 516.387 936.029 515.442 935.384 514.713C935.171 514.5 935.04 514.2 935.04 513.856C935.04 513.728 935.084 513.512 935.125 513.384C935.938 511.37 939.153 506.997 943.354 506.997C947.254 506.997 952.784 511.241 952.784 515.655V515.658Z" fill="black"/>
<path d="M970.356 523.243C970.869 523.243 971.085 523.587 971.17 524.015C971.342 525 971.554 526.886 971.554 528.044C971.554 528.429 971.298 528.816 970.826 528.816C970.613 528.816 968.94 528.86 968.727 528.86C968.214 528.86 967.954 529.245 967.87 529.673C967.613 531.516 967.313 533.358 967.097 535.159C967.054 535.588 966.753 535.844 966.369 535.844C965.64 535.844 963.069 535.072 962.212 534.731C961.699 534.559 961.439 534.087 961.439 533.658C961.483 532.673 961.739 530.058 961.739 529.886C961.739 529.542 961.483 529.329 961.183 529.329C960.197 529.329 954.455 529.886 954.111 529.886C953.598 529.886 953.21 529.673 953.038 529.286C952.609 528.429 951.668 525.77 951.668 525.129C951.668 524.744 951.796 524.315 952.012 524.056C955.099 519.943 961.739 510.384 963.754 507.769C963.967 507.513 964.226 507.341 964.567 507.341C964.952 507.341 965.768 507.898 966.068 507.898C966.24 507.898 966.369 507.813 966.453 507.641C966.581 507.385 966.882 507.169 967.226 507.169C967.739 507.169 970.654 507.982 971.767 508.37C972.111 508.498 972.239 508.798 972.239 509.099C972.239 509.183 972.196 509.399 972.196 509.399C971.423 511.714 970.225 516.471 969.109 522.342C969.109 522.342 969.065 522.598 969.065 522.727C969.065 522.983 969.237 523.24 969.537 523.24H970.351L970.356 523.243ZM958.53 523.671C958.53 523.799 958.658 523.928 958.874 523.928C958.958 523.928 960.932 523.715 961.961 523.627C962.389 523.584 962.646 523.371 962.733 522.942C963.206 520.284 964.063 516.127 964.063 515.827C964.063 515.698 964.063 515.614 964.019 515.614C963.934 515.614 963.806 515.786 963.806 515.786C963.293 516.471 959.093 522.73 958.664 523.371C958.579 523.499 958.536 523.584 958.536 523.671H958.53Z" fill="black"/>
<path d="M966.873 611.246C965.631 610.561 963.357 608.331 962.115 607.045C961.815 606.745 961.687 606.36 961.687 605.973C961.687 602.757 963.917 591.872 964.987 588.1C965.03 587.928 965.03 587.715 965.03 587.543C965.03 586.643 964.858 585.229 964.858 584.972C964.858 584.628 965.03 584.331 965.372 584.2C967.771 583.171 970.686 582.486 972.528 582.486C979.128 582.486 984.401 589.602 984.401 595C984.401 603.442 977.029 610.902 968.459 611.5C967.902 611.5 967.345 611.456 966.873 611.243V611.246ZM978.486 593.117C978.486 589.902 975.787 587.975 972.872 587.975C972.572 587.975 972.315 587.975 972.015 588.019C971.502 588.103 971.242 588.319 971.158 588.747C970.129 592.948 968.759 598.906 967.902 604.562C967.902 604.562 967.858 604.818 967.858 604.906C967.858 605.25 968.071 605.378 968.459 605.378C971.674 605.378 978.486 601.221 978.486 593.12V593.117Z" fill="black"/>
<path d="M1006.99 585.316V586.389C1006.99 593.718 1004.54 611.546 995.502 611.546C991.945 611.546 988.386 609.147 987.144 607.389C986.203 606.06 985.774 603.874 985.774 601.859C985.774 594.831 988.474 586.217 989.847 583.643C990.103 583.215 990.403 582.958 990.96 582.958C991.773 582.958 994.047 583.687 995.117 584.072C995.461 584.2 995.63 584.585 995.63 584.929C995.63 585.144 995.545 585.401 995.545 585.401C993.831 590.03 991.902 598.087 991.902 602.116C991.902 604.346 992.33 605.888 994.044 605.888C996.487 605.888 997.86 602.244 998.974 597.787C1000.26 592.686 1001.03 586.086 1001.24 583.859C1001.29 583.43 1001.59 583.174 1001.97 583.174C1002.62 583.174 1005.19 583.818 1006.22 584.203C1006.73 584.416 1006.95 584.888 1006.99 585.316H1006.99Z" fill="black"/>
<path d="M1021.35 601.087C1021.35 601.299 1021.48 601.471 1021.48 601.471C1022.93 603.742 1024.65 606.185 1026.06 607.43C1026.23 607.602 1026.32 607.815 1026.32 608.03C1026.32 608.202 1026.23 608.374 1026.1 608.543C1025.16 609.444 1023.36 610.773 1022.12 611.33C1022.12 611.33 1021.95 611.415 1021.69 611.415C1021.31 611.415 1020.96 611.243 1020.75 611.071C1018.39 609.056 1016.5 604.771 1015.78 602.241C1015.6 601.812 1015.43 601.512 1015.09 601.512H1014.58C1014.15 601.512 1013.98 601.725 1013.93 602.156C1013.42 605.028 1012.99 607.984 1012.69 610.77C1012.61 611.199 1012.31 611.455 1011.92 611.455C1011.02 611.455 1007.89 610.47 1007.59 610.342C1006.95 610.085 1006.86 609.698 1006.82 609.269C1006.9 604.384 1008.92 593.968 1010.55 587.668C1010.63 587.325 1010.63 587.155 1010.63 586.983C1010.63 586.255 1010.42 585.354 1010.42 585.013C1010.42 584.628 1010.72 584.284 1011.02 584.156C1012.69 583.471 1015.56 582.614 1019.12 582.614C1024.65 582.614 1029.06 588.444 1029.06 592.129C1029.06 595.813 1025.94 599.116 1021.82 600.571C1021.52 600.699 1021.35 600.827 1021.35 601.084V601.087ZM1016.76 588.744C1016.59 589.345 1015.05 595.772 1015.05 596.201C1015.05 596.501 1015.22 596.629 1015.52 596.629C1019.5 596.629 1022.68 593.674 1022.68 591.1C1022.68 588.87 1020.87 587.928 1018.78 587.928C1018.43 587.928 1018.09 587.928 1017.75 587.972C1017.19 588.015 1016.89 588.316 1016.76 588.744Z" fill="black"/>
<path d="M1047.88 582.786C1048.56 582.786 1051.48 583.599 1052.55 583.987C1052.85 584.115 1053.06 584.416 1053.06 584.76C1053.06 584.888 1053.02 585.016 1053.02 585.016C1051.65 588.917 1048.95 600.618 1047.79 610.774C1047.75 611.202 1047.45 611.418 1047.1 611.418C1046.25 611.418 1043.2 610.517 1042.73 610.345C1042.17 610.132 1042 609.745 1041.96 609.232C1041.96 607.346 1042.56 603.273 1042.56 603.017C1042.56 602.673 1042.3 602.416 1041.87 602.416C1040.42 602.501 1038.53 602.544 1036.9 602.588C1036.43 602.588 1036.13 602.973 1036.04 603.361C1035.62 605.847 1035.23 608.334 1034.97 610.777C1034.93 611.205 1034.59 611.421 1034.24 611.421C1033.34 611.421 1030.39 610.564 1029.87 610.348C1029.44 610.176 1029.19 609.748 1029.14 609.235C1029.23 607.092 1029.79 602.891 1029.79 602.719C1029.79 602.463 1029.7 602.335 1029.57 602.206C1029.49 602.078 1029.36 601.95 1029.27 601.693C1029.1 601.052 1028.97 599.895 1028.93 599.035C1028.93 598.478 1029.05 598.262 1029.83 598.049C1030.43 597.877 1030.68 597.577 1030.77 597.192C1031.8 591.362 1033.25 585.579 1034.15 583.392C1034.32 583.048 1034.62 582.836 1035.01 582.836C1035.78 582.836 1038.74 583.608 1039.72 583.993C1040.02 584.078 1040.24 584.465 1040.24 584.806C1040.24 584.935 1040.15 585.191 1040.15 585.191C1039.38 587.249 1038.39 591.19 1037.32 596.248C1037.32 596.248 1037.28 596.461 1037.28 596.592C1037.28 596.892 1037.54 597.149 1037.88 597.149C1038.05 597.149 1041.95 597.02 1042.81 597.02C1043.24 597.02 1043.62 596.72 1043.71 596.292C1044.78 590.805 1046.11 585.491 1047.01 583.392C1047.14 583.048 1047.48 582.792 1047.87 582.792L1047.88 582.786Z" fill="black"/>
<path d="M1052.29 604.002C1052.29 603.489 1051.56 601.687 1051.56 600.915C1051.56 600.486 1051.77 600.186 1052.25 600.101C1052.72 600.017 1053.28 599.889 1053.28 599.889C1053.88 599.76 1054.05 599.545 1054.3 599.032C1056.58 594.531 1060.26 585.917 1062.19 583.646C1062.45 583.346 1062.75 583.261 1063.05 583.261C1063.48 583.261 1064.25 583.561 1064.5 583.561C1064.85 583.561 1065.19 583.349 1065.23 583.005C1065.28 582.704 1065.45 582.448 1065.79 582.448C1066.39 582.448 1069.43 583.521 1070.12 583.862C1070.59 584.077 1070.89 584.506 1070.98 585.019C1071.45 587.462 1071.66 594.706 1071.66 601.133C1071.66 605.206 1071.53 608.89 1071.32 610.82C1071.27 611.164 1070.97 611.464 1070.46 611.464C1069.73 611.464 1066.69 610.992 1065.92 610.736C1065.49 610.607 1065.23 610.223 1065.23 609.622C1065.23 608.637 1065.36 605.509 1065.36 604.821C1065.36 604.436 1065.1 604.177 1064.68 604.177C1062.75 604.177 1059.66 604.349 1059.15 604.392C1058.63 604.436 1058.42 604.649 1058.16 605.165C1057.35 606.963 1056.62 609.278 1055.97 610.779C1055.8 611.123 1055.5 611.292 1055.2 611.292C1054.52 611.292 1051.99 610.091 1051.3 609.622C1051 609.409 1050.79 609.15 1050.79 608.765C1050.79 608.549 1050.83 608.421 1050.83 608.421L1052.2 604.521C1052.29 604.308 1052.29 604.177 1052.29 604.008L1052.29 604.002ZM1060.69 598.688C1060.69 598.944 1060.86 599.032 1061.29 599.032C1062.36 599.032 1064.12 598.988 1064.68 598.988C1065.15 598.988 1065.41 598.775 1065.49 598.175C1065.53 597.233 1065.53 596.245 1065.53 595.259C1065.53 592.901 1065.45 590.63 1065.41 589.26C1065.41 589.004 1065.32 588.875 1065.23 588.875C1065.15 588.875 1065.06 588.96 1064.98 589.132C1063.9 591.447 1062.41 594.831 1060.78 598.431C1060.78 598.431 1060.69 598.603 1060.69 598.688Z" fill="black"/>
<path d="M1079.08 611.459C1078.18 611.459 1075.52 610.645 1074.83 610.386C1074.28 610.17 1074.1 609.742 1074.06 609.272C1074.28 603.057 1077.53 587.456 1079.29 583.515C1079.46 583.13 1079.93 582.87 1080.45 582.87C1081.05 582.87 1085.5 583.771 1087.35 584.541C1087.82 584.754 1087.86 585.226 1087.86 585.654C1087.9 587.325 1087.9 593.712 1087.86 597.656C1087.86 597.828 1087.9 598 1087.99 598C1088.07 598 1088.2 597.699 1088.2 597.699C1090 593.199 1092.02 587.456 1094.07 583.343C1094.29 582.999 1094.63 582.742 1095.1 582.742C1096.43 582.742 1101.23 584.028 1102.65 584.672C1103.03 584.8 1103.2 585.144 1103.2 585.485C1103.2 585.614 1103.16 585.742 1103.16 585.742C1101.74 590.114 1099.21 601.043 1098.1 610.814C1098.06 611.199 1097.72 611.459 1097.33 611.459C1096.64 611.459 1093.81 610.774 1093 610.386C1092.49 610.129 1092.27 609.742 1092.23 609.272C1092.23 605.072 1094.89 593.715 1094.89 593.201C1094.89 593.117 1094.84 593.029 1094.8 593.029C1094.76 593.029 1094.67 593.114 1094.58 593.286C1092.91 597.102 1091.46 601.772 1089.48 606.958C1089.36 607.302 1088.97 607.602 1088.58 607.602C1087.94 607.602 1085.41 606.789 1084.3 606.273C1083.78 606.016 1083.57 605.5 1083.53 605.072C1083.05 601.728 1083.18 596.67 1083.05 593.114C1083.01 592.898 1082.97 592.814 1082.92 592.814C1082.88 592.814 1082.8 592.898 1082.75 593.07C1081.64 597.956 1080.57 604.556 1079.88 610.814C1079.8 611.199 1079.45 611.459 1079.07 611.459H1079.08Z" fill="black"/>
<path d="M865.376 533.705C866.437 533.705 870.792 534.999 871.559 535.413C871.97 535.649 872.264 536.06 872.264 536.533C872.264 536.649 872.206 536.885 872.206 536.885C870.203 542.538 866.259 558.848 864.434 573.569C864.376 574.157 863.904 574.51 863.373 574.51C862.432 574.51 859.488 573.685 858.604 573.333C858.074 573.096 857.663 572.627 857.604 571.802L857.488 569.858C857.488 569.563 857.371 569.269 857.193 569.269C857.077 569.269 856.957 569.327 856.782 569.563C854.899 572.33 852.66 574.685 850.777 574.685C846.655 574.685 842.003 569.327 842.003 564.028C842.003 554.37 846.95 544.479 854.369 544.479C855.724 544.479 857.549 545.185 859.432 546.187C859.432 546.187 859.727 546.365 859.904 546.365C860.257 546.365 860.493 546.129 860.61 545.599C861.846 540.477 863.023 536.649 864.026 534.527C864.262 534.055 864.793 533.702 865.382 533.702L865.376 533.705ZM857.31 562.147C857.957 559.087 859.076 553.551 859.076 553.079C859.076 552.668 858.899 552.312 858.429 552.137C857.604 551.843 856.841 551.665 856.368 551.665C852.541 551.665 850.422 559.731 850.422 563.794C850.422 565.503 850.833 566.68 851.363 566.68C852.599 566.68 854.838 565.092 856.546 563.5C857.018 563.089 857.252 562.558 857.313 562.144L857.31 562.147Z" fill="black"/>
<path d="M878.625 542.305C882.158 542.305 884.336 540.066 884.336 536.947C884.336 533.472 880.919 532.058 878.094 532.058C877.506 532.058 876.622 532.353 876.211 532.647C874.975 533.647 873.678 535.238 873.678 537.299C873.678 540.008 875.209 542.305 878.625 542.305Z" fill="black"/>
<path d="M897.94 571.921L897.762 569.45C897.762 569.155 897.646 568.977 897.526 568.977C897.407 568.977 897.29 569.094 897.174 569.272C895.113 572.569 892.757 574.688 890.932 574.688C886.752 574.688 882.1 569.566 882.1 564.03C882.1 554.198 886.81 544.482 894.938 544.482C897.824 544.482 903.712 546.779 907.951 549.545C908.362 549.782 908.656 550.251 908.656 550.781C908.656 550.959 908.539 551.429 908.539 551.429C906.184 559.789 905.359 568.916 905.242 573.627C905.184 574.157 904.77 574.568 904.243 574.568C902.712 574.568 899.474 573.685 899.001 573.449C898.235 573.038 898.001 572.507 897.94 571.919V571.921ZM897.41 562.147C898.057 559.086 899.176 553.551 899.176 553.078C899.176 552.667 898.998 552.312 898.529 552.137C897.704 551.842 896.94 551.665 896.468 551.665C892.641 551.665 890.521 559.731 890.521 563.794C890.521 565.503 890.932 566.68 891.463 566.68C892.699 566.68 894.938 565.091 896.646 563.5C897.118 563.089 897.351 562.558 897.413 562.144L897.41 562.147Z" fill="black"/>
<path d="M928.91 544.599C931.854 544.599 936.093 548.898 936.093 551.842C936.093 554.492 933.854 566.8 932.029 573.688C931.851 574.16 931.324 574.63 930.793 574.63C929.437 574.63 925.966 573.335 924.668 572.627C924.196 572.332 923.963 571.802 923.963 571.271C923.963 571.035 924.021 570.741 924.021 570.741C924.021 570.741 927.024 558.375 927.024 554.606C927.024 553.606 926.846 552.956 926.435 552.956C925.552 552.956 923.018 554.37 920.841 556.606C920.252 557.195 919.958 557.9 919.841 558.489C918.78 563.788 917.486 570.382 916.78 573.621C916.664 574.151 916.191 574.563 915.661 574.563C914.367 574.563 910.478 573.268 909.656 572.854C909.125 572.56 908.889 572.088 908.889 571.56C908.889 571.149 912.422 550.303 913.128 545.476C913.244 544.887 913.775 544.476 914.305 544.476C914.953 544.476 918.838 545.182 919.958 545.654C920.605 545.948 921.019 546.595 921.019 547.242C921.019 547.831 921.077 548.715 921.077 549.598C921.077 549.951 921.194 550.128 921.313 550.128C921.491 550.128 921.724 549.834 921.724 549.834C924.08 546.831 926.788 544.593 928.907 544.593L928.91 544.599Z" fill="black"/>
<path d="M950.403 544.482C953.053 544.482 959.53 547.015 963.299 549.429C963.71 549.723 963.946 550.254 963.946 550.784C963.946 551.02 963.888 551.257 963.888 551.257C962.652 556.32 961.06 566.094 959.649 573.219C958.944 576.868 956.116 585.407 947.403 585.407C945.284 585.407 941.515 584.229 939.69 582.873C939.159 582.521 938.984 582.107 938.984 581.637C938.984 580.932 939.809 578.104 940.104 577.457C940.282 577.046 940.634 576.81 941.045 576.81C941.162 576.81 941.398 576.868 941.518 576.927C943.284 577.693 944.815 577.988 945.934 577.988C950.761 577.988 952.233 572.63 952.233 570.155C952.233 569.861 952.117 569.683 951.997 569.683C951.878 569.683 951.819 569.741 951.645 569.977C949.878 572.449 947.817 574.277 946.109 574.277C941.929 574.277 937.454 569.388 937.454 563.678C937.454 553.784 942.459 544.482 950.409 544.482H950.403ZM952.758 562.147C953.405 559.086 954.525 553.551 954.525 553.078C954.525 552.667 954.347 552.312 953.877 552.137C953.053 551.842 952.289 551.665 951.817 551.665C947.989 551.665 945.87 559.731 945.87 563.794C945.87 565.503 946.281 566.68 946.811 566.68C948.047 566.68 950.286 565.091 951.994 563.5C952.467 563.089 952.7 562.558 952.758 562.144V562.147Z" fill="black"/>
<path d="M990.269 556.376C990.269 561.617 987.089 574.688 977.609 574.688C974.959 574.688 969.954 573.216 967.246 570.33C965.596 568.564 964.774 565.855 964.774 562.558C964.774 555.845 968.718 544.424 976.845 544.424C979.906 544.424 985.442 546.721 987.975 549.251C989.506 550.84 990.214 553.668 990.272 556.081V556.376H990.269ZM981.67 555.67C981.67 553.02 980.845 551.254 979.256 551.254C976.017 551.254 973.251 558.967 973.251 563.678C973.251 566.033 974.018 567.741 975.723 567.741C979.314 567.741 981.67 560.145 981.67 555.67Z" fill="black"/>
<path d="M1006.4 557.553C1006.4 557.081 1007.17 554.256 1007.17 553.137C1007.17 552.018 1006.87 551.312 1006.05 551.312C1003.46 551.312 1000.16 557.495 1000.16 562.264C1000.16 565.15 1001.45 566.917 1003.63 566.917C1005.7 566.917 1007.93 566.092 1009.58 565.15C1009.58 565.15 1009.82 565.033 1010.05 565.033C1010.46 565.033 1010.7 565.211 1010.94 565.622C1011.35 566.389 1012.47 568.803 1012.47 569.628C1012.47 570.275 1012.23 570.747 1011.88 571.1C1009.76 572.983 1006.99 574.691 1003.69 574.691C1001.75 574.691 996.333 573.102 994.094 570.275C992.505 568.272 991.68 565.742 991.68 562.503C991.68 554.259 997.096 544.427 1003.81 544.427C1006.11 544.427 1015.17 547.549 1015.17 552.318C1015.17 553.732 1014.05 556.556 1013.46 557.501C1013.17 557.973 1012.7 558.326 1012.05 558.384C1011.11 558.442 1008.63 558.442 1007.28 558.442C1006.75 558.384 1006.4 558.031 1006.4 557.559L1006.4 557.553Z" fill="black"/>
<path d="M1041.55 556.376C1041.55 561.617 1038.37 574.688 1028.89 574.688C1026.24 574.688 1021.24 573.216 1018.53 570.33C1016.88 568.564 1016.06 565.855 1016.06 562.558C1016.06 555.845 1020 544.424 1028.13 544.424C1031.19 544.424 1036.73 546.721 1039.26 549.251C1040.79 550.84 1041.5 553.668 1041.56 556.081V556.376H1041.55ZM1032.96 555.67C1032.96 553.02 1032.13 551.254 1030.54 551.254C1027.31 551.254 1024.54 558.967 1024.54 563.678C1024.54 566.033 1025.31 567.741 1027.01 567.741C1030.6 567.741 1032.96 560.145 1032.96 555.67Z" fill="black"/>
<path d="M1062.22 544.599C1065.17 544.599 1069.41 548.898 1069.41 551.842C1069.41 554.492 1067.17 566.8 1065.34 573.688C1065.17 574.16 1064.64 574.63 1064.11 574.63C1062.75 574.63 1059.28 573.335 1057.98 572.627C1057.51 572.332 1057.28 571.802 1057.28 571.271C1057.28 571.035 1057.34 570.741 1057.34 570.741C1057.34 570.741 1060.34 558.375 1060.34 554.606C1060.34 553.606 1060.16 552.956 1059.75 552.956C1058.87 552.956 1056.33 554.37 1054.16 556.606C1053.57 557.195 1053.27 557.9 1053.16 558.489C1052.09 563.788 1050.8 570.382 1050.1 573.621C1049.98 574.151 1049.51 574.563 1048.98 574.563C1047.68 574.563 1043.79 573.268 1042.97 572.854C1042.44 572.56 1042.2 572.088 1042.2 571.56C1042.2 571.149 1045.74 550.303 1046.44 545.476C1046.56 544.887 1047.09 544.476 1047.62 544.476C1048.27 544.476 1052.15 545.182 1053.27 545.654C1053.92 545.948 1054.33 546.595 1054.33 547.242C1054.33 547.831 1054.39 548.715 1054.39 549.598C1054.39 549.951 1054.51 550.128 1054.63 550.128C1054.81 550.128 1055.04 549.834 1055.04 549.834C1057.39 546.831 1060.1 544.593 1062.22 544.593L1062.22 544.599Z" fill="black"/>
<path d="M1078.65 569.802C1078.65 572.688 1076.83 574.807 1073.82 574.807C1070.82 574.807 1069.47 572.569 1069.47 570.155C1069.47 568.094 1070.23 567.033 1071.53 565.855C1071.88 565.502 1072.59 565.208 1073.18 565.208C1075.83 565.208 1078.65 566.68 1078.65 569.802H1078.65Z" fill="black"/>
<path d="M1108.68 547.543C1108.68 547.779 1108.57 548.132 1108.57 548.132C1105.92 556.786 1104.5 568.388 1104.33 573.627C1104.33 574.157 1103.92 574.627 1103.39 574.627C1102.15 574.627 1099.38 573.86 1098.56 573.507C1097.97 573.271 1097.56 572.741 1097.38 571.919C1097.26 571.446 1097.2 570.035 1097.14 569.091C1097.14 568.68 1097.03 568.444 1096.85 568.444C1096.67 568.444 1096.5 568.797 1096.5 568.797C1094.38 572.33 1091.73 574.743 1089.55 574.743C1086.07 574.743 1081.48 570.033 1081.48 565.38C1081.48 558.197 1084.02 549.423 1085.49 545.773C1085.66 545.301 1086.13 544.89 1086.66 544.89C1087.49 544.89 1091.26 546.362 1092.61 547.129C1093.02 547.365 1093.32 547.776 1093.32 548.248C1093.32 548.659 1093.2 549.015 1093.2 549.015C1092.02 552.49 1089.78 561.558 1089.78 565.03C1089.78 565.914 1089.9 566.444 1090.26 566.444C1091.73 566.444 1094.49 564.441 1096.44 561.911C1096.79 561.439 1096.97 561.028 1097.09 560.322C1097.85 555.081 1099.38 548.782 1100.44 545.721C1100.62 545.19 1101.15 544.779 1101.74 544.779C1102.62 544.779 1106.04 545.721 1107.8 546.488C1108.27 546.665 1108.69 547.076 1108.69 547.549L1108.68 547.543Z" fill="black"/>
<path d="M1119.05 544.482C1122.28 544.482 1132 547.484 1132 551.842C1132 553.373 1130.82 555.728 1130.35 556.375C1129.88 557.023 1129.29 557.2 1128.76 557.259H1124.34C1123.76 557.259 1123.46 556.848 1123.46 556.492C1123.46 556.02 1124.05 554.489 1124.05 553.312C1124.05 551.723 1123.35 550.898 1122.46 550.898C1120.46 550.898 1118.69 554.195 1118.69 555.787C1118.69 559.85 1129.88 558.909 1129.88 565.68C1129.88 569.919 1125.7 574.749 1119.69 574.749C1116.16 574.749 1110.98 573.041 1109.09 571.333C1108.56 570.86 1108.45 570.449 1108.45 570.155C1108.45 569.388 1109.15 566.8 1109.68 565.68C1109.92 565.15 1110.15 564.975 1110.51 564.975C1110.86 564.975 1111.1 565.211 1111.21 565.211C1113.27 566.33 1116.16 567.861 1118.57 567.861C1119.93 567.861 1121.16 567.389 1121.28 566.447C1121.28 563.975 1109.92 563.681 1109.92 556.026C1109.92 551.315 1114.22 544.485 1119.04 544.485L1119.05 544.482Z" fill="black"/>
<path d="M881.627 547.012C881.627 549.367 877.683 569.566 876.858 573.393C876.815 573.586 876.768 573.787 876.718 573.988C876.71 573.988 876.701 573.988 876.692 573.991C875.759 577.947 872.757 585.404 864.612 585.404C862.493 585.404 858.724 584.226 856.899 582.873C856.368 582.521 856.193 582.107 856.193 581.637C856.193 580.929 857.018 578.104 857.313 577.454C857.488 577.043 857.84 576.807 858.254 576.807C858.371 576.807 858.607 576.865 858.724 576.927C860.49 577.69 862.024 577.985 863.14 577.985C864.379 577.985 865.58 577.6 866.551 576.825C866.991 576.475 867.373 576.058 867.702 575.603C868.378 574.67 868.548 573.51 868.749 572.405C868.982 571.126 869.215 569.843 869.442 568.56C869.821 566.429 870.186 564.298 870.55 562.168C870.941 559.876 871.326 557.585 871.713 555.294C872.06 553.236 872.407 551.181 872.766 549.126C872.967 547.971 873.15 546.808 873.384 545.657C873.503 545.068 874.031 544.654 874.681 544.654C875.503 544.654 879.097 545.243 880.686 545.657C881.216 545.831 881.627 546.42 881.627 547.009V547.012Z" fill="black"/>
</g>
<rect x="1013.5" y="53.5" width="8.00001" height="163" rx="4" fill="black"/>
<rect x="961" y="383" width="8" height="89" rx="4" fill="black"/>
<rect x="961" y="313" width="8" height="26" rx="4" fill="black"/>
<rect x="806" y="260" width="8" height="65" rx="4" transform="rotate(-90 806 260)" fill="black"/>
<rect x="938" y="260" width="8" height="43" rx="4" transform="rotate(-90 938 260)" fill="black"/>
<rect x="1046" y="273" width="8" height="90" rx="4" transform="rotate(-90 1046 273)" fill="black"/>
<g clip-path="url(#clip4_448_1105)">
<path d="M1119.61 105.047C1118.55 106.428 1116.96 107.087 1115.25 106.852C1114.32 106.715 1113.45 106.333 1112.75 105.748C1112.13 105.243 1111.64 104.604 1111.35 103.87C1110.77 102.412 1111.03 100.827 1112.06 99.5142C1115.93 94.5411 1119.81 89.567 1123.69 84.582L1125.22 82.6317L1127.22 84.701C1127.44 84.9193 1127.65 85.1387 1127.86 85.358C1128.7 86.2668 1129.52 87.3083 1130.46 88.6436L1131.4 89.9573L1130.4 91.2226C1126.8 95.8311 1123.2 100.45 1119.6 105.059L1119.61 105.047Z" fill="black"/>
<path d="M1133.13 72.9849C1134.19 71.6041 1135.78 70.9449 1137.49 71.1798C1138.41 71.3167 1139.29 71.6987 1139.99 72.2834C1140.61 72.7893 1141.1 73.4278 1141.39 74.1622C1141.97 75.6202 1141.71 77.2048 1140.68 78.5176C1136.81 83.4907 1132.93 88.4648 1129.05 93.4498L1127.52 95.4002L1125.52 93.3308C1125.3 93.1125 1125.09 92.8931 1124.88 92.6738C1124.04 91.765 1123.22 90.7235 1122.28 89.3882L1121.34 88.0745L1122.34 86.8092C1125.94 82.2007 1129.54 77.5815 1133.14 72.973L1133.13 72.9849Z" fill="black"/>
<path d="M1127.93 44.8146C1127.69 43.0395 1127.41 41.0172 1125.52 41.6955C1118.15 44.3332 1111.72 55.6647 1116.47 64.32C1120.05 70.8129 1126.92 74.5258 1132.46 77.7171C1132.68 77.848 1133.04 77.8127 1132.94 77.561C1130.55 59.5793 1129.07 53.8928 1127.92 44.8156L1127.93 44.8146Z" fill="#B989C9"/>
<path d="M1130.96 80.7437C1130.45 80.795 1129.95 80.7027 1129.55 80.535L1128.6 80.1271C1122.14 77.3656 1114.09 73.9322 1110.1 67.2403C1108.02 63.7286 1107.76 59.5017 1109.36 55.0263C1111.7 48.4496 1117.88 42.1898 1124.41 39.7984C1126.17 39.1556 1127.38 39.5487 1128.07 40.0028C1129.75 41.0797 1129.89 43.1699 1130.01 44.6955L1130.01 44.7171C1130.26 48.7269 1130.65 52.1549 1131.11 56.111C1131.71 61.2741 1132.44 67.6886 1133.17 78.0177C1133.29 78.7584 1133.04 79.5128 1132.5 80.0467C1132.06 80.4716 1131.51 80.6783 1130.97 80.7318L1130.96 80.7437ZM1125.58 44.0002C1120.38 46.042 1115.31 51.232 1113.44 56.4758C1112.64 58.7249 1112.06 62.0311 1113.83 65.0179C1116.79 70.0009 1122.87 72.9314 1128.62 75.4158C1127.96 66.8562 1127.32 61.2288 1126.79 56.6152C1126.32 52.5944 1125.92 49.1124 1125.67 45.0054C1125.64 44.7355 1125.63 44.3446 1125.57 44.0121L1125.58 44.0002Z" fill="black"/>
<path d="M1130.84 82.1406C1131.16 81.6184 1121.47 79.8632 1120.78 79.7784C1118.05 79.373 1115.1 79.436 1112.12 79.9815C1107.2 81.0033 1103.41 84.7587 1100.01 88.1809C1098.51 89.6811 1098.68 91.5943 1100.36 92.3538C1106.43 95.1008 1120.46 98.9115 1130.83 82.1417L1130.84 82.1406Z" fill="#B989C9"/>
<path d="M1169.83 79.1849C1160.68 79.9705 1154.81 79.6798 1136.66 81.1065C1136.39 81.0565 1136.43 81.4344 1136.59 81.6365C1140.76 86.6639 1145.7 92.9562 1152.75 95.2453C1162.17 98.2817 1172.12 89.1852 1173.35 80.9956C1173.66 78.8929 1171.61 79.0409 1169.83 79.1849Z" fill="#B989C9"/>
<path d="M1156.82 101.701C1154.95 101.886 1153.12 101.675 1151.36 101.053C1144 98.4562 1139.06 91.2376 1135.08 85.4385L1134.49 84.5807C1133.99 83.8461 1133.74 82.6054 1134.39 81.6042C1134.8 80.9634 1135.48 80.5689 1136.24 80.5481C1146.51 79.2367 1152.95 78.6978 1158.13 78.2722C1162.11 77.9435 1165.55 77.6576 1169.53 77.1109L1169.55 77.1088C1171.07 76.9148 1173.13 76.6556 1174.53 78.0874C1175.11 78.6839 1175.73 79.7781 1175.45 81.638C1174.38 88.5031 1169.46 95.8049 1163.48 99.3843C1161.27 100.705 1159.03 101.482 1156.83 101.7L1156.82 101.701ZM1139.7 84.4908C1143.26 89.6331 1147.32 95.0199 1152.79 96.9642C1156.07 98.1118 1159.2 96.8863 1161.24 95.6705C1166.01 92.81 1170.12 86.8212 1171.09 81.3174C1170.74 81.3516 1170.35 81.3901 1170.09 81.4157C1166.01 81.9731 1162.51 82.2644 1158.48 82.5984C1153.85 82.9803 1148.21 83.452 1139.69 84.4919L1139.7 84.4908Z" fill="black"/>
<path d="M1127.93 115.388C1128.89 116.873 1130.63 116.636 1131.74 114.858C1134.25 110.826 1137.01 106.334 1137.12 101.318C1137.12 98.3092 1136.7 95.4177 1135.89 92.8377C1135.7 92.1801 1132.55 83.1053 1132.13 83.5389C1118.77 97.1933 1124.48 110.06 1127.93 115.388Z" fill="#B989C9"/>
<path d="M1134.99 119.355C1134.85 119.369 1134.71 119.383 1134.58 119.385C1132.91 119.43 1131.27 118.785 1130.09 117.595C1126.63 114.132 1120.94 107.096 1121.77 98.8481C1122.38 92.7037 1126.42 87.1143 1133.77 82.2429L1134.58 81.705L1135.6 81.9532C1137.94 82.5719 1143.45 92.8085 1143.51 92.9122C1145.1 95.8179 1146.09 99.0457 1146.4 102.427C1146.77 108.573 1142.44 113.428 1138.97 117.337C1137.95 118.484 1136.52 119.215 1134.99 119.366L1134.99 119.355ZM1134.66 86.9087C1129.39 90.7446 1126.51 94.9112 1126.07 99.2938C1125.43 105.758 1130.23 111.617 1133.14 114.534C1133.49 114.881 1133.96 115.063 1134.45 115.048C1134.95 115.042 1135.4 114.823 1135.73 114.452C1138.83 110.972 1142.33 107.028 1142.07 102.758C1141.8 100.048 1140.99 97.3803 1139.65 94.9186C1139.21 94.0686 1136.28 89.2011 1134.66 86.8979L1134.66 86.9087Z" fill="black"/>
<path d="M1111.37 90.1633C1112 89.7731 1112.67 89.3258 1113.36 88.9518C1113.95 88.6318 1114.8 88.9187 1115.16 89.4934C1115.59 90.1815 1115.31 91.168 1114.58 91.557C1114.38 91.6637 1114.14 91.7638 1113.94 91.7399C1113.5 91.6639 1113.02 91.5911 1112.63 91.3791C1111.72 90.8697 1110.9 90.951 1110.05 91.4824C1109.87 91.5977 1109.61 91.5694 1109.38 91.5918C1109 91.6292 1108.49 91.1354 1108.48 90.7435C1108.47 90.3408 1108.93 89.7939 1109.32 89.8428C1109.99 89.9072 1110.65 90.0601 1111.37 90.1849L1111.37 90.1633Z" fill="black"/>
<path d="M1127.01 94.567C1126.3 95.4656 1125.55 95.9216 1124.61 96.048C1123.98 96.1316 1123.36 95.8007 1123.25 95.3104C1123.08 94.5751 1123.34 93.8185 1123.9 93.5449C1124.91 93.0525 1125.87 93.1862 1126.78 93.8046C1127.03 93.9657 1127.09 94.4829 1127.01 94.567Z" fill="black"/>
<path d="M1113.95 96.1662C1113.62 95.8279 1113.51 95.097 1113.77 94.6244C1113.99 94.2316 1114.31 93.9383 1114.8 93.9226C1115.31 93.9047 1115.85 94.3857 1115.9 94.9255C1115.99 95.7569 1115.37 96.4504 1114.54 96.4021C1114.34 96.389 1114.14 96.2452 1113.93 96.1672L1113.95 96.1662Z" fill="black"/>
<path d="M1141.98 108.938C1141.49 109.64 1140.09 109.692 1139.66 109.004C1139.48 108.706 1139.49 108.356 1139.71 108.083C1140.18 107.513 1140.79 107.343 1141.5 107.535C1141.98 107.662 1142.26 108.528 1141.98 108.949L1141.98 108.938Z" fill="black"/>
<path d="M1149.32 87.4625C1148.9 87.1123 1148.82 86.5746 1149.1 85.9692C1149.25 85.6487 1149.84 85.2963 1150.2 85.3808C1150.4 85.4264 1150.59 85.582 1150.72 85.743C1151.07 86.1449 1150.88 86.5777 1150.7 86.9769C1150.5 87.4226 1150.06 87.5636 1149.61 87.6085C1149.51 87.6181 1149.42 87.5079 1149.32 87.4625Z" fill="black"/>
<path d="M1159.17 90.4348C1159.65 89.8642 1160.4 89.7893 1160.96 90.2681C1161.26 90.5221 1161.3 90.845 1161.21 91.1817C1161.07 91.6533 1160.69 91.9196 1160.26 92.1038C1159.92 92.2471 1159.23 91.9992 1159.05 91.6891C1158.83 91.2754 1158.86 90.8037 1159.17 90.4348Z" fill="black"/>
<path d="M1139.33 98.7009C1139.01 98.3831 1138.96 97.8325 1139.24 97.4668C1139.46 97.1723 1139.75 97.0344 1140.12 97.1287C1140.33 97.1839 1140.56 97.2381 1140.74 97.3506C1141.25 97.6599 1141.42 98.3628 1141.1 98.8084C1140.86 99.1482 1140.35 99.2751 1139.89 99.0598C1139.69 98.97 1139.51 98.8241 1139.33 98.7009Z" fill="black"/>
<path d="M1125.88 100.709C1125.48 101.14 1124.68 101.253 1124.37 100.913C1124.04 100.553 1124.11 99.6957 1124.49 99.3528C1124.8 99.0821 1125.4 99.0222 1125.76 99.2266C1126.23 99.5078 1126.29 100.254 1125.89 100.697L1125.88 100.709Z" fill="black"/>
<path d="M1125.78 105.472C1125.35 105.656 1124.84 105.477 1124.6 105.054C1124.37 104.631 1124.53 104.091 1124.96 103.896C1125.44 103.674 1125.92 103.833 1126.11 104.273C1126.32 104.764 1126.17 105.292 1125.78 105.461L1125.78 105.472Z" fill="black"/>
<path d="M1135 99.3372C1134.53 98.7948 1134.6 98.0899 1135.07 97.8032C1135.36 97.6329 1135.68 97.5145 1136 97.7555C1136.51 98.162 1136.44 99.1184 1135.8 99.4211C1135.57 99.531 1135.21 99.3601 1135 99.3372Z" fill="black"/>
<path d="M1114.24 84.1875C1114.29 84.2804 1114.38 84.3701 1114.41 84.4651C1114.62 85.0548 1114.34 85.5187 1113.94 85.907C1113.83 86.0159 1113.52 86.0037 1113.35 85.9226C1112.75 85.6327 1112.62 84.784 1113.05 84.2727C1113.3 83.975 1113.95 83.9324 1114.23 84.1886L1114.24 84.1875Z" fill="black"/>
<path d="M1150.96 92.3051C1150.76 92.6741 1150.15 92.8214 1149.83 92.5804C1149.43 92.282 1149.34 91.8112 1149.61 91.4358C1149.9 91.014 1150.45 90.8623 1150.73 91.1282C1151.08 91.4535 1151.18 91.934 1150.97 92.3149L1150.96 92.3051Z" fill="black"/>
<path d="M1136.88 104.089C1136.48 104.445 1135.91 104.491 1135.52 104.279C1135.12 104.068 1135.04 103.367 1135.43 103.132C1135.69 102.964 1136.06 102.884 1136.37 102.886C1136.56 102.878 1136.86 103.066 1136.9 103.226C1136.97 103.524 1136.89 103.859 1136.88 104.089Z" fill="black"/>
<path d="M1130.89 103.679C1131.37 104.024 1131.41 104.62 1131.08 104.914C1130.82 105.147 1130.41 105.144 1130.17 104.895C1129.97 104.687 1129.88 104.15 1130.11 103.963C1130.33 103.789 1130.68 103.744 1130.89 103.668L1130.89 103.679Z" fill="black"/>
<path d="M1127.7 68.8016C1127.46 68.8251 1127.14 68.9328 1126.87 68.8623C1126.37 68.7366 1126.27 67.9506 1126.66 67.531C1126.87 67.3023 1127.31 67.3028 1127.54 67.5416C1127.86 67.8593 1127.97 68.4154 1127.7 68.8124L1127.7 68.8016Z" fill="black"/>
<path d="M1130.16 88.1174C1130.42 88.4189 1130.34 88.9823 1130.01 89.2551C1129.63 89.5538 1129.11 89.5296 1128.84 89.2184C1128.58 88.9169 1128.66 88.375 1129.01 88.0677C1129.35 87.7614 1129.86 87.7868 1130.16 88.1174Z" fill="black"/>
<path d="M1141.25 103.395C1141.1 103.726 1140.41 103.882 1140.08 103.565C1139.89 103.366 1139.81 103.003 1139.78 102.712C1139.77 102.636 1140.14 102.469 1140.34 102.438C1140.67 102.384 1141.04 102.424 1141.19 102.779C1141.27 102.956 1141.23 103.19 1141.25 103.395Z" fill="black"/>
<path d="M1120.28 100.619C1120.01 100.778 1119.84 100.947 1119.64 100.966C1119.45 100.986 1119.18 100.914 1119.07 100.783C1118.84 100.523 1119.08 99.8992 1119.49 99.7495C1119.65 99.6903 1119.98 99.723 1120.04 99.8364C1120.19 100.073 1120.22 100.375 1120.27 100.631L1120.28 100.619Z" fill="black"/>
<path d="M1131.47 109.553C1131.25 109.488 1130.94 109.464 1130.73 109.299C1130.48 109.106 1130.53 108.566 1130.79 108.442C1130.97 108.359 1131.22 108.292 1131.39 108.351C1131.74 108.469 1131.82 109.181 1131.46 109.554L1131.47 109.553Z" fill="black"/>
<path d="M1132.23 114.635C1132.04 114.741 1131.83 114.958 1131.69 114.918C1131.34 114.832 1131.28 114.511 1131.35 114.177C1131.42 113.897 1131.59 113.815 1131.86 113.919C1132.25 114.077 1132.38 114.326 1132.22 114.624L1132.23 114.635Z" fill="black"/>
<path d="M1128.22 77.6578C1128.33 77.93 1128.5 78.1968 1128.56 78.4851C1128.6 78.6881 1128.04 78.951 1127.8 78.8546C1127.41 78.7074 1127.29 78.1092 1127.61 77.8159C1127.74 77.7048 1127.97 77.7148 1128.22 77.6578Z" fill="black"/>
<path d="M1123.58 79.196C1123.33 79.4387 1122.88 79.3961 1122.82 79.097C1122.78 78.9156 1122.82 78.6717 1122.93 78.5195C1123.09 78.2638 1123.58 78.3453 1123.67 78.6315C1123.72 78.801 1123.62 79.0071 1123.58 79.196Z" fill="black"/>
<path d="M1154.64 86.2719C1154.58 86.3431 1154.52 86.4683 1154.46 86.4855C1154.08 86.5445 1153.82 86.3747 1153.7 86.027C1153.66 85.932 1153.69 85.7981 1153.71 85.688C1153.92 85.699 1154.18 85.6518 1154.34 85.7556C1154.5 85.8496 1154.55 86.1056 1154.64 86.2827L1154.64 86.2719Z" fill="black"/>
<path d="M1140.24 87.7734C1140.26 87.8803 1140.34 88.0034 1140.3 88.0941C1140.22 88.3531 1139.6 88.3816 1139.42 88.1159C1139.37 88.0446 1139.39 87.8902 1139.43 87.7877C1139.58 87.424 1139.93 87.4222 1140.24 87.7626L1140.24 87.7734Z" fill="black"/>
<path d="M1135.26 94.2082C1134.97 94.237 1134.73 94.348 1134.64 94.2702C1134.51 94.174 1134.41 93.8781 1134.46 93.7529C1134.54 93.5932 1134.79 93.5136 1134.96 93.3982C1135.07 93.6606 1135.16 93.9242 1135.26 94.2082Z" fill="black"/>
<path d="M1138.71 78.0253C1138.62 77.9906 1138.49 77.9927 1138.45 77.9203C1138.28 77.6427 1138.36 77.5035 1138.65 77.5729C1138.73 77.587 1138.83 77.708 1138.85 77.7933C1138.85 77.8581 1138.75 77.9444 1138.71 78.0253Z" fill="black"/>
<path d="M1134.1 88.1851C1134.19 88.2197 1134.31 88.2188 1134.36 88.2901C1134.55 88.5224 1134.48 88.6594 1134.21 88.5998C1134.13 88.5857 1134.05 88.4733 1134.02 88.3891C1134 88.3361 1134.07 88.2531 1134.1 88.1959L1134.1 88.1851Z" fill="black"/>
<path d="M1139.16 82.5926C1139.09 82.6325 1138.98 82.7198 1138.95 82.6896C1138.87 82.6323 1138.76 82.4799 1138.79 82.4443C1138.93 82.2339 1139.06 82.2859 1139.16 82.5818L1139.16 82.5926Z" fill="black"/>
<path d="M1136.63 109.151C1136.52 109.14 1136.37 109.176 1136.31 109.117C1136.09 108.911 1136.12 108.711 1136.4 108.585C1136.5 108.543 1136.68 108.514 1136.72 108.565C1136.89 108.766 1136.84 108.977 1136.63 109.151Z" fill="black"/>
<path d="M1129.08 94.1559L1129.15 93.9303L1129.3 94.0794L1129.08 94.1559Z" fill="black"/>
<path d="M1165.07 85.0211L1164.98 85.2261L1164.85 85.0749L1165.07 85.0211Z" fill="black"/>
<path d="M1155.12 91.5556C1155.12 91.4681 1155.09 91.3396 1155.14 91.3019C1155.2 91.2642 1155.31 91.2967 1155.41 91.2978C1155.4 91.3853 1155.43 91.5138 1155.38 91.5515C1155.33 91.5892 1155.21 91.5568 1155.12 91.5556Z" fill="black"/>
<path d="M1128.43 83.8291L1128.51 83.6251L1128.65 83.7861L1128.43 83.8291Z" fill="black"/>
<path d="M1114.84 96.4595C1108.03 97.133 1101.56 93.6849 1098.04 91.3301C1096.65 90.3993 1095.69 88.9247 1095.4 87.2737C1095.12 85.6228 1095.54 83.9023 1096.55 82.5592C1099.7 78.3876 1103.61 73.1922 1109.64 72.356C1113.11 71.9578 1116.45 72.3357 1119.68 73.3461C1119.71 73.3429 1130.83 76.7555 1131.9 78.9287L1132.33 79.8014L1131.97 80.7749C1128.64 88.944 1123.95 93.9983 1118.04 95.8041C1116.97 96.128 1115.89 96.3439 1114.82 96.4498L1114.84 96.4595ZM1110.26 76.6663L1110.16 76.6759C1106 77.2516 1102.82 81.4696 1100.01 85.1817C1099.72 85.5819 1099.6 86.0622 1099.68 86.5557C1099.76 87.0383 1100.03 87.4586 1100.44 87.7343C1103.87 90.022 1110.56 93.5793 1116.77 91.6778C1120.99 90.3875 1124.5 86.7365 1127.23 80.8296C1124.66 79.6892 1119.33 77.7742 1118.46 77.5229C1115.74 76.6792 1113 76.3948 1110.25 76.6674L1110.26 76.6663Z" fill="black"/>
</g>
<g clip-path="url(#clip5_448_1105)">
<path d="M814.287 346.296C829.644 346.296 842.094 333.868 842.094 318.538C842.094 303.207 829.644 290.78 814.287 290.78C798.93 290.78 786.48 303.207 786.48 318.538C786.48 333.868 798.93 346.296 814.287 346.296Z" fill="#E7BB43"/>
<path d="M798.407 306.321C792.08 308.444 795.568 318.861 801.894 316.105C808.479 314.112 804.085 303.656 798.407 306.321Z" fill="black"/>
<path d="M832.177 313.206C831.814 313.193 831.464 313.245 831.127 313.361C830.79 313.478 830.479 313.672 830.219 313.918C829.96 314.164 829.74 314.448 829.597 314.772C829.441 315.095 829.364 315.445 829.351 315.807C828.754 325.836 814.857 332.436 806.768 325.021C803.916 322.679 800.442 327.143 803.19 329.11C822.454 345.183 842.613 316.519 832.19 313.206H832.177Z" fill="black"/>
<path d="M802.309 282.291C784.847 288.14 773.711 310.489 781.554 327.04C793.286 357.011 836.481 355.561 848.472 327.169C860.191 300.498 828.728 271.576 802.309 282.291ZM824.71 341.986C788.852 354.811 766.607 301.016 804.111 287.506C840.253 274.475 863.484 328.114 824.71 341.986Z" fill="black"/>
<path d="M821.054 305.675C827.38 307.887 830.582 298.35 824.489 295.607C818.358 293.653 814.507 303.19 821.054 305.675Z" fill="black"/>
</g>
<g clip-path="url(#clip6_448_1105)">
<path d="M1103.98 225.84C1103.18 223.203 1099.04 224.318 1099.84 226.972C1101.17 231.342 1102.4 235.712 1103.55 240.1C1103.32 241.055 1103.55 241.338 1104.6 243.603C1105.64 245.868 1109.13 244.24 1108.51 241.94C1107.09 236.544 1105.57 231.165 1103.96 225.822L1103.98 225.84Z" fill="#64A03D"/>
<path d="M1113.69 203.264C1113.34 200.575 1109.04 200.522 1109.41 203.264C1115.26 248.504 1113.07 239.923 1113.85 241.374C1114.63 242.825 1119.17 245.089 1118.75 241.781C1117.07 228.954 1115.39 216.109 1113.71 203.264H1113.69Z" fill="#64A03D"/>
<path d="M1122.75 201.07C1123.72 214.464 1124.52 227.857 1125.19 241.25C1125.31 243.992 1129.63 244.01 1129.47 241.25C1128.81 227.857 1128 214.464 1127.03 201.07C1126.83 198.328 1122.55 198.31 1122.75 201.07Z" fill="#64A03D"/>
<path d="M1149.26 207.864C1148.79 207.015 1147.78 206.626 1146.84 206.891C1144.33 207.846 1145.23 207.086 1133.75 240.065C1132.83 242.683 1136.99 243.78 1137.89 241.197C1150.5 204.732 1149.95 208.926 1149.24 207.864H1149.26Z" fill="#64A03D"/>
<path d="M1156.64 215.737C1156.96 214.587 1156.29 213.419 1155.14 213.101C1153.99 212.783 1152.82 213.455 1152.5 214.605C1152.32 215.012 1146.47 229.113 1141.6 240.772C1140.54 243.32 1144.68 244.435 1145.74 241.905C1157.91 212.641 1156.5 216.356 1156.64 215.737Z" fill="#64A03D"/>
<path d="M1161.13 226.176C1158.34 231.607 1155.54 237.021 1152.73 242.435C1151.47 244.895 1155.17 247.071 1156.43 244.611C1159.24 239.197 1162.02 233.766 1164.83 228.352C1166.12 225.875 1162.41 223.699 1161.13 226.176Z" fill="#64A03D"/>
<path d="M1170.79 235.624C1170.14 238.649 1168.49 241.391 1166.14 243.408C1164.07 245.231 1167.09 248.256 1169.18 246.452C1172.08 243.921 1174.1 240.525 1174.95 236.774C1175.53 234.084 1171.39 232.917 1170.79 235.624Z" fill="#64A03D"/>
<path d="M1087 227.007C1086.4 225.981 1085.09 225.645 1084.06 226.246C1083.04 226.848 1082.7 228.157 1083.3 229.183C1086.04 233.943 1088.48 238.861 1090.61 243.921C1091.65 246.451 1095.81 245.337 1094.75 242.789C1092.5 237.357 1089.92 232.085 1087 227.007Z" fill="#64A03D"/>
</g>
<path d="M1065.51 122.267C1060.22 121.911 1065.05 105.514 1059.38 109.817C1056.29 112.244 1054.49 119.388 1050.07 119.1C1043.5 118.567 1028.95 114.775 1042.99 125C1047.01 127.886 1045.4 129.418 1044.24 130.859C1039.56 137.069 1038.96 138.927 1039.03 139.851C1040.2 143.871 1052.54 131.486 1055.83 135.273C1063.33 143.388 1063.69 144.407 1065.39 144.051C1067.08 143.685 1065.68 138.905 1064.84 134.553C1063.83 128.094 1084.38 123.813 1065.5 122.264L1065.51 122.267Z" fill="black"/>
<path d="M1097.29 160.735C1093.5 160.48 1096.96 148.747 1092.91 151.826C1090.69 153.563 1089.41 158.675 1086.24 158.468C1081.54 158.087 1071.13 155.374 1081.18 162.69C1084.06 164.755 1082.9 165.851 1082.07 166.883C1078.72 171.326 1078.29 172.656 1078.34 173.317C1079.18 176.193 1088.01 167.332 1090.36 170.041C1095.73 175.848 1095.99 176.577 1097.2 176.322C1098.41 176.06 1097.41 172.64 1096.81 169.526C1096.09 164.904 1110.79 161.841 1097.28 160.732L1097.29 160.735Z" fill="#E7BB43"/>
<g clip-path="url(#clip7_448_1105)">
<path d="M888.377 436.665C958.862 436.198 949.282 370.95 903.058 392.949C883.899 352.232 835.358 388.676 888.377 436.665Z" fill="#3D9CFB"/>
<path d="M882.994 437.931C883.733 438.71 884.795 439.099 885.865 438.992C961.364 437.259 954.5 364.75 902.075 385.795C875.147 341.583 826.869 387.508 883.003 437.921L882.994 437.931ZM870.055 374.688C881.971 367.573 895.163 382.758 898.142 389.611C898.833 391.129 900.517 391.996 901.588 391.149C945.777 370.201 956.788 428.839 887.793 434.456C886.8 434.592 885.807 434.222 885.145 433.473C876.471 425.734 846.515 388.793 870.065 374.698L870.055 374.688Z" fill="#001434"/>
<path d="M914.39 471.718C914.205 471.922 913.942 472.02 913.67 472C894.559 471.952 895.932 455.131 908.481 458.937C914.828 446.117 928.361 458.655 914.4 471.718H914.39Z" fill="#F39745"/>
<path d="M926.637 366.151C926.394 366.278 926.112 366.288 925.859 366.181C907.868 359.746 914.78 344.357 925.333 352.134C935.604 342.176 944.161 358.51 926.637 366.161V366.151Z" fill="#DB433B"/>
<path d="M887.482 413.975C887.365 414.16 887.267 414.511 887.053 414.618C886.839 414.725 886.459 414.666 886.226 414.54C885.739 414.267 885.583 413.79 885.7 413.245C885.778 412.846 886.255 412.574 886.615 412.72C887.131 412.934 887.384 413.343 887.482 413.975Z" fill="black"/>
<path d="M928.098 403.297C928.633 403.248 928.955 403.443 929.149 403.861C929.295 404.173 929.178 404.445 928.945 404.66C928.604 404.981 928.224 405 927.874 404.747C927.465 404.455 927.27 404.017 927.494 403.754C927.669 403.55 927.942 403.414 928.098 403.307V403.297Z" fill="black"/>
<path d="M915.763 405C915.296 405.078 914.809 404.659 914.77 404.153C914.741 403.783 915.101 403.374 915.471 403.355C915.987 403.326 916.483 403.735 916.483 404.182C916.483 404.523 916.104 404.961 915.753 405H915.763Z" fill="black"/>
<path d="M923.201 404.26C923.094 404.416 922.957 404.689 922.753 404.893C922.49 405.156 921.857 404.991 921.75 404.63C921.672 404.358 921.653 404.046 921.711 403.764C921.799 403.336 922.247 403.102 922.617 403.229C923.016 403.365 923.279 403.764 923.201 404.26Z" fill="black"/>
<path d="M923.337 417.489C923.23 417.654 923.162 417.888 923.016 417.976C922.636 418.18 922.227 418.141 921.838 417.947C921.458 417.752 921.225 417.207 921.4 416.944C921.692 416.516 922.023 416.35 922.422 416.438C922.996 416.564 923.366 416.993 923.337 417.489Z" fill="black"/>
<path d="M893.128 426.659C893.868 426.707 894.413 427.554 894.034 428.138C893.907 428.343 893.547 428.518 893.303 428.498C892.573 428.44 892.203 427.554 892.632 426.931C892.729 426.795 892.963 426.746 893.128 426.668V426.659Z" fill="black"/>
<path d="M918.684 421.587C918.343 421.607 917.915 421.159 917.915 420.799C917.915 420.185 918.323 419.601 918.947 419.494C919.18 419.455 919.589 419.631 919.686 419.825C920.076 420.594 919.501 421.548 918.684 421.587Z" fill="black"/>
<path d="M916.542 417.158C916.61 417.567 916.396 417.908 915.948 418.025C915.656 418.112 915.364 418.073 915.15 417.82C914.848 417.45 915.091 416.915 915.646 416.691C916.045 416.535 916.474 416.749 916.542 417.158Z" fill="black"/>
<path d="M919.979 388.268C919.901 388.764 919.336 389.134 918.82 389.037C918.46 388.968 918.119 388.482 918.177 388.122C918.255 387.615 918.81 387.245 919.326 387.353C919.686 387.43 920.027 387.917 919.979 388.268Z" fill="black"/>
<path d="M912.297 415.007C911.83 415.065 911.314 414.618 911.314 414.141C911.314 413.664 911.772 413.167 912.229 413.177C912.687 413.177 913.242 413.654 913.261 414.063C913.281 414.452 912.774 414.958 912.297 415.017V415.007Z" fill="black"/>
<path d="M890.558 417.304C890.587 417.781 890.334 418.131 889.954 418.141C889.497 418.151 889.176 417.878 889.176 417.469C889.176 417.022 889.458 416.642 889.808 416.613C890.227 416.574 890.538 416.866 890.568 417.304H890.558Z" fill="black"/>
<path d="M910.282 418.073C910.107 418.141 909.834 418.346 909.62 418.307C909.114 418.2 908.676 417.655 908.754 417.226C908.802 416.983 909.065 416.74 909.289 416.574C909.406 416.496 909.688 416.545 909.824 416.642C910.272 416.954 910.457 417.402 910.282 418.073Z" fill="black"/>
<path d="M908.88 411.94C908.744 411.804 908.461 411.648 908.384 411.424C908.228 410.928 908.559 410.354 908.977 410.266C909.357 410.179 909.717 410.48 909.756 410.918C909.815 411.473 909.484 411.911 908.88 411.95V411.94Z" fill="black"/>
<path d="M902.649 429.374C903.311 429.472 903.642 430.134 903.282 430.649C903.107 430.903 902.669 430.961 902.523 430.727C902.377 430.484 902.25 430.221 902.163 429.949C902.065 429.657 902.367 429.335 902.649 429.374Z" fill="black"/>
<path d="M906.359 413.099C906.651 413.284 906.962 413.381 907.089 413.596C907.245 413.858 906.758 414.306 906.329 414.345C906.037 414.374 905.677 414.034 905.794 413.771C905.891 413.537 906.144 413.352 906.368 413.099H906.359Z" fill="black"/>
<path d="M915.928 410.948C915.646 410.928 915.422 410.675 915.413 410.364C915.393 409.867 915.928 409.303 916.298 409.488C916.493 409.585 916.659 409.945 916.668 410.188C916.688 410.607 916.279 410.977 915.928 410.938V410.948Z" fill="black"/>
<path d="M902.523 424.352C902.416 424.215 902.143 424.03 902.114 423.806C902.046 423.339 902.63 422.94 903.146 423.067C903.302 423.106 903.506 423.291 903.545 423.437C903.652 423.884 903.156 424.381 902.533 424.352H902.523Z" fill="black"/>
<path d="M931.992 406.752C932.352 406.733 932.732 407.122 932.751 407.541C932.771 407.949 932.411 408.31 932.002 408.3C931.583 408.28 931.194 407.92 931.213 407.55C931.233 407.18 931.632 406.781 931.992 406.752Z" fill="black"/>
<path d="M918.469 407.882C918.353 407.726 918.1 407.521 918.041 407.278C917.963 406.918 918.401 406.47 918.732 406.47C919.063 406.47 919.453 406.918 919.433 407.288C919.414 407.648 918.956 407.979 918.46 407.882H918.469Z" fill="black"/>
<path d="M919.647 394.37C919.628 394.74 919.024 395.227 918.8 395.023C918.596 394.838 918.401 394.507 918.421 394.254C918.431 394.03 918.693 393.738 918.927 393.611C919.229 393.446 919.677 393.942 919.657 394.37H919.647Z" fill="black"/>
<path d="M893.693 420.662C893.703 421.237 893.547 421.587 893.109 421.723C892.963 421.772 892.719 421.704 892.602 421.597C892.252 421.285 892.33 420.867 892.466 420.477C892.544 420.244 893.021 419.991 893.206 420.117C893.43 420.273 893.576 420.526 893.693 420.653V420.662Z" fill="black"/>
<path d="M902.542 411.454C902.377 411.356 902.133 411.298 902.056 411.152C901.987 411.026 902.075 410.782 902.163 410.626C902.328 410.334 902.63 410.237 902.932 410.295C903.107 410.334 903.292 410.471 903.389 410.617C903.555 410.86 903.389 411.249 903.117 411.347C902.932 411.405 902.727 411.415 902.533 411.444L902.542 411.454Z" fill="black"/>
<path d="M925.012 412.982C925.294 412.905 925.791 413.265 925.878 413.625C925.985 414.043 925.791 414.472 925.44 414.559C925.07 414.657 924.661 414.365 924.593 413.966C924.525 413.557 924.749 413.041 925.002 412.982H925.012Z" fill="black"/>
<path d="M912.395 419.903C912.511 420.04 912.765 420.224 912.862 420.458C912.969 420.711 912.599 421.062 912.317 421.042C912.005 421.023 911.742 420.779 911.694 420.468C911.655 420.166 911.937 419.874 912.385 419.894L912.395 419.903Z" fill="black"/>
<path d="M900.323 394.692C900.245 394.838 900.196 395.071 900.079 395.11C899.797 395.208 899.544 395.081 899.398 394.818C899.271 394.585 899.476 394.225 899.748 394.205C900.089 394.176 900.245 394.41 900.332 394.702L900.323 394.692Z" fill="black"/>
<path d="M915.724 431.088C915.637 430.844 915.51 430.621 915.49 430.387C915.49 430.319 915.773 430.134 915.899 430.153C916.211 430.202 916.445 430.591 916.308 430.776C916.211 430.913 915.987 430.951 915.724 431.088Z" fill="black"/>
<path d="M906.602 401.116C906.339 401.175 906.076 401.292 905.843 401.272C905.599 401.243 905.531 401 905.648 400.776C905.804 400.454 906.115 400.308 906.349 400.493C906.475 400.591 906.495 400.834 906.612 401.126L906.602 401.116Z" fill="black"/>
<path d="M900.254 407.19C899.992 407.414 899.816 407.638 899.592 407.726C899.398 407.813 899.047 407.404 899.086 407.181C899.145 406.889 899.31 406.567 899.602 406.606C899.807 406.635 899.982 406.937 900.254 407.19Z" fill="black"/>
<path d="M925.323 407.22C925.44 407.346 925.635 407.473 925.654 407.609C925.693 407.921 925.333 408.144 925.031 408.028C924.943 407.998 924.856 407.891 924.827 407.804C924.729 407.492 924.992 407.181 925.323 407.21V407.22Z" fill="black"/>
<path d="M929.208 410.529C929.178 410.967 928.799 411.269 928.594 411.104C928.38 410.928 928.254 410.646 928.078 410.412C928.254 410.325 928.448 410.13 928.604 410.169C928.838 410.218 929.042 410.422 929.208 410.529Z" fill="black"/>
<path d="M913.047 407.541C912.959 407.872 912.609 408.057 912.433 407.852C912.326 407.716 912.258 407.492 912.287 407.327C912.326 407.093 912.541 407.044 912.774 407.122C913.008 407.2 913.095 407.336 913.037 407.551L913.047 407.541Z" fill="black"/>
<path d="M899.563 413.411C899.855 413.673 900.089 413.819 900.245 414.024C900.371 414.199 900.264 414.384 900.031 414.481C899.709 414.608 899.31 414.511 899.31 414.277C899.31 414.034 899.446 413.781 899.563 413.411Z" fill="black"/>
<path d="M931.972 414.277C931.895 414.218 931.768 414.17 931.749 414.092C931.68 413.848 932.08 413.469 932.323 413.537C932.401 413.556 932.479 413.683 932.488 413.77C932.557 414.15 932.362 414.345 931.963 414.277H931.972Z" fill="black"/>
<path d="M913.018 400.367C913.261 400.367 913.397 400.503 913.29 400.678C913.212 400.805 912.998 400.853 912.833 400.902C912.794 400.912 912.657 400.727 912.667 400.717C912.774 400.591 912.891 400.484 913.018 400.367Z" fill="black"/>
<path d="M896.107 430.182L896.282 430.27L896.088 430.318L896.107 430.182Z" fill="black"/>
<path d="M905.687 426.863C905.765 426.863 905.872 426.834 905.901 426.863C906.067 427.058 906.028 427.214 905.784 427.282C905.736 427.291 905.619 427.184 905.599 427.106C905.58 427.029 905.658 426.941 905.687 426.863Z" fill="black"/>
<path d="M922.675 397.972C922.588 398.031 922.49 398.157 922.432 398.138C922.188 398.06 922.12 397.865 922.247 397.641C922.296 397.554 922.393 397.505 922.471 397.437C922.539 397.612 922.607 397.797 922.685 397.972H922.675Z" fill="black"/>
<path d="M915.666 397.262C915.734 397.32 915.88 397.408 915.87 397.427C915.792 397.573 915.695 397.709 915.607 397.846C915.549 397.69 915.481 397.534 915.442 397.379C915.442 397.359 915.598 397.301 915.675 397.262H915.666Z" fill="black"/>
<path d="M925.576 387.839C925.625 387.917 925.742 388.014 925.722 388.072C925.683 388.218 925.586 388.442 925.498 388.452C925.352 388.462 925.187 388.345 925.031 388.257C925.012 388.257 925.041 388.082 925.09 388.063C925.245 387.975 925.411 387.917 925.576 387.849V387.839Z" fill="black"/>
<path d="M902.64 391.499C902.591 391.411 902.494 391.304 902.503 391.236C902.572 390.983 902.756 390.915 902.98 391.051C903.058 391.1 903.097 391.207 903.156 391.285C902.98 391.353 902.805 391.421 902.64 391.489V391.499Z" fill="black"/>
<path d="M886.537 433.181C886.596 433.249 886.654 433.317 886.713 433.385C886.644 433.443 886.567 433.551 886.508 433.541C886.44 433.541 886.391 433.414 886.333 433.346C886.401 433.288 886.469 433.229 886.547 433.181H886.537Z" fill="black"/>
<path d="M899.7 420.292C899.631 420.38 899.563 420.468 899.505 420.555C899.446 420.497 899.339 420.429 899.339 420.37C899.339 420.312 899.437 420.234 899.515 420.195C899.554 420.175 899.631 420.253 899.7 420.292Z" fill="black"/>
<path d="M919.024 427.136C918.956 427.194 918.878 427.301 918.81 427.301C918.742 427.301 918.684 427.175 918.625 427.106C918.693 427.048 918.771 426.941 918.839 426.941C918.908 426.941 918.966 427.067 919.024 427.136Z" fill="black"/>
<path d="M919.277 414.073L919.453 414.024L919.423 414.189L919.277 414.073Z" fill="black"/>
</g>
</g>
<defs>
<clipPath id="clip0_448_1105">
<rect width="1200" height="630" fill="white"/>
</clipPath>
<clipPath id="clip1_448_1105">
<rect width="109.74" height="145.64" fill="white" transform="translate(652 545.523) rotate(-34.099)"/>
</clipPath>
<clipPath id="clip2_448_1105">
<rect width="94.07" height="84.18" fill="white" transform="translate(619 582)"/>
</clipPath>
<clipPath id="clip3_448_1105">
<rect width="290" height="104.546" fill="white" transform="translate(842 507)"/>
</clipPath>
<clipPath id="clip4_448_1105">
<rect width="80.396" height="80.396" fill="white" transform="translate(1091 42.9214) rotate(-5.65445)"/>
</clipPath>
<clipPath id="clip5_448_1105">
<rect width="72" height="69" fill="white" transform="translate(779 280)"/>
</clipPath>
<clipPath id="clip6_448_1105">
<rect width="92" height="48" fill="white" transform="translate(1083 199)"/>
</clipPath>
<clipPath id="clip7_448_1105">
<rect width="85" height="123" fill="white" transform="translate(857 349)"/>
</clipPath>
</defs>
</svg>
