<svg width="1200" height="675" viewBox="0 0 1200 675" fill="none" xmlns="http://www.w3.org/2000/svg">
<g clip-path="url(#clip0_455_771)">
<path opacity="0.5" d="M-967 66H756" stroke="#5FBFFA" stroke-width="2"/>
<path opacity="0.5" d="M-967 127H756" stroke="#5FBFFA" stroke-width="2"/>
<path opacity="0.5" d="M-967 188H756" stroke="#5FBFFA" stroke-width="2"/>
<path opacity="0.5" d="M-967 247H756" stroke="#5FBFFA" stroke-width="2"/>
<path opacity="0.5" d="M-967 309H756" stroke="#5FBFFA" stroke-width="2"/>
<path opacity="0.5" d="M-967 369H756" stroke="#5FBFFA" stroke-width="2"/>
<path opacity="0.5" d="M-967 430H756" stroke="#5FBFFA" stroke-width="2"/>
<path opacity="0.5" d="M-967 490H756" stroke="#5FBFFA" stroke-width="2"/>
<path opacity="0.5" d="M-967 550H756" stroke="#5FBFFA" stroke-width="2"/>
<path opacity="0.5" d="M-967 610H756" stroke="#5FBFFA" stroke-width="2"/>
<rect x="752" y="-40" width="8" height="629" fill="black"/>
<g clip-path="url(#clip1_455_771)">
<g style="mix-blend-mode:multiply">
<path d="M777.283 593.884C776.734 593.307 776.182 592.747 775.601 592.207C775.039 591.653 774.435 591.142 773.792 590.659C772.531 589.688 771.335 588.6 769.94 587.835C764.576 584.369 758.549 582.343 752.64 580.999C746.704 579.659 740.788 578.922 735.043 578.056C729.299 577.189 723.656 576.197 718.396 574.413C717.115 573.9 715.815 573.444 714.557 572.902C713.348 572.284 712.084 571.732 710.927 571.064C708.621 569.737 706.544 568.112 704.804 566.201C701.299 562.381 699.287 557.35 698.254 551.899C697.994 550.538 697.78 549.161 697.595 547.763L697.472 546.711L697.325 545.56C697.227 544.736 697.092 543.922 696.891 543.095C696.53 541.458 695.98 539.818 695.2 538.263C694.44 536.694 693.436 535.19 692.176 533.902C689.693 531.273 686.258 529.49 682.704 528.994C679.162 528.474 675.576 529.035 672.411 530.387C669.23 531.736 666.45 533.848 664.251 536.415C663.148 537.693 662.217 539.099 661.386 540.567C660.608 542.028 659.936 543.603 659.446 545.214C658.456 548.441 658.197 551.835 658.461 555.091C658.725 558.346 659.493 561.475 660.524 564.441C661.555 567.407 662.862 570.229 664.304 572.931C665.778 575.64 667.298 578.203 669.105 580.744C672.603 585.847 676.974 590.33 681.793 594.18C686.69 597.933 692.072 601.085 697.79 603.335C703.496 605.65 709.479 607.145 715.583 607.927C721.65 608.675 727.573 608.702 733.184 609.329C734.608 609.457 735.956 609.708 737.33 609.913C738.662 610.204 740.02 610.448 741.267 610.868C742.583 611.199 743.752 611.758 744.963 612.231L746.665 613.133C747.255 613.409 747.72 613.842 748.253 614.184L749.039 614.73C749.285 614.923 749.514 615.155 749.747 615.371C750.202 615.81 750.7 616.206 751.142 616.668C751.931 617.686 752.858 618.567 753.49 619.734C755.007 621.868 756.014 624.289 756.616 626.727C757.161 629.188 757.222 631.719 756.775 634.22C756.327 636.721 755.365 639.183 754.091 641.525C751.488 646.19 747.667 650.415 743.516 654.173C735.116 661.671 724.916 667.212 714.261 671.423C708.92 673.53 703.435 675.318 697.869 676.816C692.421 678.277 686.85 679.492 681.335 680.323C681.372 680.442 681.409 680.56 681.44 680.669C681.871 680.966 682.319 681.266 682.76 681.557C682.588 682.004 682.416 682.45 682.238 682.887C682.604 683.832 682.997 684.773 683.416 685.71C683.746 685.731 684.083 685.761 684.423 685.776L683.597 686.105C683.631 686.154 683.644 686.217 683.668 686.273C689.106 685.392 694.43 684.216 699.717 682.792C705.276 681.284 710.784 679.509 716.171 677.385C726.925 673.15 737.359 667.638 746.366 659.974C747.504 659.045 748.563 657.998 749.661 657.01C750.69 655.94 751.775 654.933 752.753 653.81C754.757 651.634 756.631 649.245 758.289 646.686C759.941 644.117 761.31 641.279 762.222 638.233C763.134 635.187 763.559 631.911 763.233 628.669C762.929 625.441 762.009 622.257 760.563 619.442C759.89 618.002 758.953 616.725 758.122 615.391C757.711 614.721 757.136 614.147 756.64 613.521C756.115 612.914 755.648 612.267 755.021 611.744L753.244 610.116C752.633 609.596 751.943 609.172 751.29 608.695L750.298 608.015L749.242 607.452C748.539 607.094 747.84 606.677 747.112 606.365C744.215 605.079 741.217 604.322 738.253 603.742C732.332 602.722 726.563 602.605 721.033 602.182C719.636 602.093 718.295 601.938 716.932 601.812C715.6 601.607 714.26 601.495 712.935 601.214C710.268 600.777 707.647 600.067 705.057 599.32C699.901 597.71 694.959 595.481 690.404 592.617C685.882 589.715 681.694 586.287 678.18 582.243L676.862 580.721L675.627 579.13C674.781 578.093 674.067 576.953 673.293 575.853C671.796 573.577 670.409 571.211 669.181 568.824C666.745 564.037 664.903 558.962 664.617 553.954C664.48 551.461 664.73 549.007 665.496 546.721C666.242 544.449 667.477 542.262 669.035 540.446C670.609 538.633 672.542 537.181 674.67 536.228C676.809 535.312 679.139 534.87 681.348 535.141C683.545 535.393 685.603 536.269 687.165 537.769C688.759 539.233 689.893 541.267 690.539 543.56C690.741 544.112 690.818 544.736 690.964 545.312L691.228 547.188C691.384 548.649 691.582 550.109 691.831 551.579C692.32 554.509 693.034 557.474 694.131 560.367C695.211 563.256 696.706 566.08 698.638 568.594C700.56 571.115 702.931 573.302 705.515 575.059C710.727 578.513 716.42 580.578 722.146 581.989C733.577 584.781 745.014 585.142 755.387 588.176C760.549 589.667 765.372 591.89 769.382 595.138C773.473 598.317 776.741 602.57 779.074 607.226C781.411 611.908 782.764 617.07 783.116 622.363C783.497 627.723 783.156 633.141 782.092 638.402C780.019 648.943 774.856 658.846 767.273 666.365C763.499 670.127 759.129 673.244 754.336 675.799C749.543 678.355 744.476 680.377 739.162 682.078C728.512 685.596 717.697 688.637 706.766 690.721C705.428 690.995 704.113 691.238 702.904 691.511C701.346 691.862 699.79 692.153 698.225 692.452C696.28 692.805 694.177 693.094 692.04 693.248L690.859 693.329C690.737 693.34 690.638 693.364 690.591 693.252L690.505 693.124L690.041 692.461L689.027 690.963C688.167 689.735 687.368 688.767 687.05 688.552L686.563 688.235C686.456 688.163 686.427 688.226 686.481 688.391L686.98 689.892C687.061 690.139 687.022 690.209 686.863 690.101L686.22 689.66C686.037 689.539 685.701 689.149 685.278 688.588L683.832 686.664C685.708 690.624 688.125 694.448 691.35 698.256C691.559 698.502 691.779 698.741 691.988 698.987L692.526 698.954C694.053 698.854 695.563 698.707 697.06 698.542C700.058 698.194 703.018 697.727 705.967 697.224C711.85 696.172 717.658 694.841 723.402 693.308C729.14 691.766 734.84 690.105 740.463 688.223C746.126 686.444 751.858 684.215 757.236 681.336C762.635 678.486 767.749 674.793 772.107 670.363C776.454 665.94 780.133 660.848 782.859 655.282C785.605 649.745 787.519 643.808 788.571 637.722C789.633 631.629 789.734 625.454 789.07 619.252C788.279 613.034 786.253 606.921 783.016 601.482C781.396 598.772 779.461 596.231 777.28 593.943L777.283 593.884Z" fill="#010101"/>
</g>
<path d="M721.818 690.013L714.396 673.745C711.945 674.815 709.136 675.122 706.551 675.909C705.659 676.183 704.783 676.46 703.904 676.753C703.805 676.82 703.697 676.893 703.608 676.953C702.357 677.757 701.337 678.692 700.299 678.921L707.487 694.672C711.686 692.088 716.774 690.31 721.841 690.026L721.818 690.013Z" fill="black"/>
<path d="M745.887 682.611L736.829 662.738C732.602 665.557 728.446 668.055 723.812 670.315L732.066 688.406C736.578 685.308 740.509 683.135 745.887 682.611Z" fill="black"/>
<path d="M758.607 678.224C758.669 678.167 758.735 678.094 758.797 678.038C761.763 675.225 765.241 673.316 768.49 670.9C769.219 670.364 769.924 669.728 770.639 669.086L752.054 650.146C751.831 650.368 751.625 650.594 751.448 650.8C750.005 652.51 748.532 654.197 747.076 655.887C745.61 657.583 744.147 659.264 742.667 660.941C742.746 660.844 742.53 661.12 742.209 661.495L758.617 678.217L758.607 678.224Z" fill="black"/>
<path d="M781.773 647.884C783.134 644.779 785.264 642.302 786.142 639.079L759.475 632.966C759.761 636.551 758.315 640.102 755.984 643.217C755.765 643.509 755.523 643.788 755.304 644.08L754.587 647.224L781.654 653.439C780.999 651.77 780.858 650.013 781.78 647.894L781.773 647.884Z" fill="black"/>
<path d="M780.049 603.678L754.998 616.889C755.646 617.484 756.247 618.097 756.688 618.833C757.61 620.364 757.821 622.204 758.176 623.918C758.699 626.452 759.209 628.923 759.566 631.425L785.676 617.656C783.014 613.639 782.094 608.27 780.049 603.678Z" fill="black"/>
<path d="M754.668 583.591C753.255 583.585 751.883 583.235 750.514 582.783L740.021 608.349C743.057 608.334 745.869 609.347 748.19 611.396C749.283 611.864 750.323 612.467 751.245 613.15C752.138 613.81 752.787 614.578 753.321 615.409L764.864 587.277C763.407 586.568 761.904 585.919 760.287 585.419C758.491 584.868 756.531 584.327 754.668 583.591Z" fill="black"/>
<path d="M726.663 605.597L733.674 580.448C728.736 579.711 723.893 578.564 719.171 576.661L711.61 603.777C716.418 605.637 721.558 605.462 726.657 605.587L726.663 605.597Z" fill="black"/>
<path d="M700.086 565.789L677.884 586.093C681.213 590.118 685.322 592.983 689.65 595.642L712.341 574.892C707.378 573.122 703.069 570.407 700.086 565.789Z" fill="black"/>
<path d="M694.127 545.973L660.639 552.769C662.058 556.032 663 559.46 664.258 562.89C664.763 564.272 665.324 565.631 665.901 566.993L698.454 560.386C695.772 555.937 694.001 550.986 694.137 545.966L694.127 545.973Z" fill="black"/>
<path d="M772.057 614.476C772.364 614.355 772.804 614.158 773.262 614.006C773.812 613.82 774.427 614.453 774.411 615.067C774.389 615.714 774.093 616.231 773.747 616.738C773.191 617.531 772.267 617.524 771.618 616.714C771.465 616.53 771.364 616.296 771.241 616.093C771.02 615.725 771.18 615.387 771.392 615.085C771.532 614.889 771.746 614.759 772.054 614.493L772.057 614.476Z" fill="black"/>
<path d="M769.818 667.386C768.58 668.167 767.185 667.445 767.106 666.033C767.087 665.729 767.299 665.299 767.542 665.106C768.411 664.417 769.825 664.637 770.439 665.587C770.612 665.843 770.57 666.332 770.45 666.643C770.33 666.954 769.985 667.187 769.812 667.376L769.818 667.386Z" fill="black"/>
<path d="M777.562 655.161C777.616 655.369 777.78 655.717 777.812 656.083C777.856 656.657 777.261 657.348 776.73 657.434C776.094 657.534 775.484 657.143 775.337 656.48C775.252 656.121 775.239 655.742 775.276 655.372C775.319 654.926 775.824 654.441 776.259 654.362C776.704 654.276 777.184 654.54 777.562 655.161Z" fill="black"/>
<path d="M769.296 610.355C768.719 610.86 767.814 610.798 767.285 610.207C766.733 609.604 766.713 608.598 767.247 608.178C767.94 607.652 769.158 607.646 769.625 608.336C770.045 608.957 769.945 609.786 769.306 610.348L769.296 610.355Z" fill="black"/>
<path d="M748.653 661.442C748.642 661.723 748.721 662.115 748.584 662.423C748.289 663.069 747.373 663.372 746.666 663.133C746.11 662.949 745.736 662.354 745.738 661.678C745.741 661.259 745.96 660.967 746.296 660.783C747.052 660.372 748.129 660.648 748.663 661.436L748.653 661.442Z" fill="black"/>
<path d="M781.446 627.431C782.201 626.891 783.245 627.075 783.676 627.817C784.06 628.491 783.927 629.228 783.314 629.787C782.668 630.382 781.65 630.194 781.133 629.367C780.706 628.693 780.838 627.871 781.456 627.424L781.446 627.431Z" fill="black"/>
<path d="M738.353 670.571C738.968 670.183 739.873 670.289 740.345 670.817C740.774 671.302 740.554 672.314 739.926 672.724C739.296 673.151 738.436 672.9 738.081 672.206C737.77 671.598 737.89 670.884 738.36 670.58L738.353 670.571Z" fill="black"/>
<path d="M771.268 630.945C771.299 631.182 771.401 631.545 771.393 631.895C771.383 632.347 770.85 632.938 770.47 632.908C770.116 632.874 769.71 632.761 769.464 632.525C769.218 632.29 769.106 631.891 769.018 631.548C768.892 631.044 769.179 630.491 769.583 630.304C770.008 630.103 770.596 630.207 770.948 630.558C771.034 630.643 771.108 630.751 771.258 630.952L771.268 630.945Z" fill="black"/>
<path d="M722.808 673.84C723.195 674.497 722.868 675.308 722.292 675.454C721.056 675.773 720.157 675.017 720.14 673.634C720.137 673.163 720.652 672.713 721.117 672.743C721.956 672.793 722.422 673.354 722.808 673.84Z" fill="black"/>
<path d="M741.122 667.72C740.768 667.729 740.34 667.86 740.072 667.697C739.81 667.544 739.636 667.116 739.587 666.79C739.514 666.279 739.759 665.855 740.205 665.538C740.658 665.231 741.163 665.192 741.551 665.489C741.88 665.741 742.063 666.436 741.834 666.82C741.655 667.128 741.373 667.391 741.115 667.71L741.122 667.72Z" fill="black"/>
<path d="M776.956 599.853C776.272 600.201 775.445 599.913 775.087 599.193C774.815 598.644 775.054 597.893 775.6 597.595C776.29 597.214 777.084 597.496 777.446 598.242C777.721 598.818 777.488 599.578 776.966 599.846L776.956 599.853Z" fill="black"/>
<path d="M777.758 626.695C778.082 627.237 777.82 628.06 777.267 628.262C776.642 628.485 775.914 628.216 775.666 627.68C775.371 627.075 775.597 626.347 776.146 626.076C776.636 625.845 777.427 626.143 777.758 626.695Z" fill="black"/>
<path d="M707.01 598.299C706.557 597.629 706.725 596.797 707.402 596.353C707.757 596.113 708.114 596.173 708.442 596.382C708.899 596.675 709.055 597.159 709.111 597.667C709.16 598.079 708.676 598.723 708.301 598.805C707.79 598.921 707.31 598.743 707.02 598.293L707.01 598.299Z" fill="black"/>
<path d="M761.88 607.042C762.543 606.535 763.253 606.543 763.978 606.872C764.402 607.073 764.483 607.808 764.135 608.144C763.536 608.723 762.867 608.859 762.092 608.522C761.688 608.35 761.505 608.057 761.545 607.671C761.57 607.453 761.756 607.24 761.874 607.032L761.88 607.042Z" fill="black"/>
<path d="M770.719 662.351C770.257 662.707 769.352 662.558 769.058 662.082C768.764 661.606 768.953 660.76 769.422 660.413C769.911 660.053 770.793 660.189 771.067 660.678C771.358 661.171 771.172 662.001 770.71 662.357L770.719 662.351Z" fill="black"/>
<path d="M776.961 651.875C776.673 651.366 776.925 650.592 777.494 650.264C778.062 649.937 778.763 650.123 779.097 650.702C779.441 651.273 779.222 651.968 778.607 652.269C778.012 652.557 777.241 652.375 776.967 651.885L776.961 651.875Z" fill="black"/>
<path d="M757.37 611.288C757.653 611.599 757.609 612.362 757.287 612.651C756.684 613.204 755.878 613.117 755.356 612.451C755.102 612.119 755.259 611.438 755.66 611.138C756.159 610.772 756.968 610.842 757.36 611.295L757.37 611.288Z" fill="black"/>
<path d="M774.977 609.77C775.309 610.451 775.211 611.092 774.713 611.587C774.575 611.723 774.262 611.791 774.057 611.743C773.4 611.599 773.066 611.064 773.134 610.357C773.189 609.845 773.549 609.444 774.12 609.459C774.444 609.47 774.762 609.686 774.977 609.77Z" fill="black"/>
<path d="M767.077 618.049C767.547 618.722 767.666 619.26 767.318 619.869C767.119 620.234 766.803 620.361 766.43 620.384C766.015 620.406 765.746 620.158 765.608 619.806C765.329 619.118 765.584 618.284 766.258 617.943C766.495 617.826 766.879 618.011 767.077 618.049Z" fill="black"/>
<path d="M766.555 653.058C767.014 653.567 766.988 654.59 766.5 655.078C766.425 655.158 766.303 655.212 766.201 655.252C765.802 655.364 765.468 655.188 765.215 654.899C764.782 654.388 764.808 653.767 765.246 653.226C765.504 652.908 765.854 652.829 766.234 652.902C766.349 652.925 766.445 653.003 766.555 653.058Z" fill="black"/>
<path d="M767.645 637.076C768.184 636.768 768.944 636.958 769.206 637.471C769.396 637.859 769.173 638.484 768.782 638.734C768.247 639.068 767.496 638.872 767.238 638.343C767.048 637.955 767.267 637.303 767.645 637.076Z" fill="black"/>
<path d="M733.456 670.022C733.86 669.834 734.186 669.657 734.535 669.535C734.956 669.394 735.219 669.676 735.412 670.004C735.643 670.366 735.51 670.743 735.231 670.989C734.966 671.212 734.617 671.376 734.265 671.471C733.685 671.634 733.033 671.328 733.093 670.928C733.146 670.605 733.342 670.3 733.462 670.031L733.456 670.022Z" fill="black"/>
<path d="M766.76 649.414C766.416 649.733 765.808 649.727 765.476 649.406C765.034 648.987 764.999 648.278 765.382 647.803C765.785 647.315 766.504 647.317 766.913 647.815C767.296 648.275 767.222 648.971 766.753 649.404L766.76 649.414Z" fill="black"/>
<path d="M779.472 644.485C779.812 644.988 779.59 645.785 779.041 646.056C778.597 646.27 778.039 646.146 777.693 645.762C777.34 645.368 777.425 644.391 777.832 644.058C778.206 643.762 779.145 644.003 779.472 644.485Z" fill="black"/>
<path d="M687.151 588.555C686.678 588.832 685.897 588.527 685.612 587.958C685.388 587.521 685.515 586.817 685.844 586.624C686.3 586.343 687.14 586.522 687.466 586.962C687.793 587.402 687.624 588.277 687.144 588.545L687.151 588.555Z" fill="black"/>
<path d="M760.106 651.534C760.433 651.211 761.087 651.286 761.43 651.686C761.816 652.129 761.836 652.604 761.489 653.025C761.015 653.576 760.213 653.688 759.883 653.221C759.53 652.699 759.621 652.006 760.106 651.534Z" fill="black"/>
<path d="M763.396 670.93C762.983 670.979 762.621 671.081 762.291 671.017C762.125 670.985 761.955 670.669 761.887 670.442C761.82 670.215 761.778 669.899 761.882 669.713C762.052 669.412 762.303 669.083 762.593 668.959C762.948 668.805 763.589 669.348 763.602 669.813C763.611 670.166 763.485 670.51 763.405 670.923L763.396 670.93Z" fill="black"/>
<path d="M768.074 614.429C768.233 614.939 768.14 615.375 767.79 615.771C767.417 616.196 766.86 616.328 766.541 616.027C766.076 615.595 766.054 614.819 766.477 614.404C766.939 613.962 767.827 613.979 768.067 614.419L768.074 614.429Z" fill="black"/>
<path d="M755.375 652.696C754.702 653.08 753.911 652.782 753.602 652.029C753.407 651.571 753.684 650.982 754.128 650.896C754.629 650.787 755.078 650.857 755.497 651.177C755.968 651.533 755.914 652.388 755.375 652.696Z" fill="black"/>
<path d="M761.515 641.37C761.935 641.057 762.473 641.109 762.803 641.49C763.145 641.89 763.134 642.53 762.772 642.76C762.358 643.04 761.767 642.995 761.455 642.661C761.142 642.326 761.174 641.63 761.505 641.377L761.515 641.37Z" fill="black"/>
<path d="M702.584 567.187C702.924 567.603 702.898 568.181 702.514 568.441C702.034 568.751 701.536 568.715 701.229 568.348C700.926 567.964 700.962 567.337 701.303 567.077C701.733 566.757 702.248 566.796 702.574 567.193L702.584 567.187Z" fill="black"/>
<path d="M672.764 573.755C672.245 574.178 671.69 574.122 671.345 573.739C670.992 573.345 671.07 572.675 671.481 572.497C671.928 572.309 672.53 572.433 672.747 572.861C672.875 573.134 672.768 573.507 672.773 573.748L672.764 573.755Z" fill="black"/>
<path d="M695.025 578.368C694.633 578.575 693.952 578.418 693.719 578.074C693.452 577.679 693.52 577.016 693.831 576.733C694.235 576.374 694.985 576.57 695.359 577.121C695.599 577.476 695.399 578.157 695.015 578.374L695.025 578.368Z" fill="black"/>
<path d="M741.985 660.21C742.223 660.624 742.036 661.239 741.604 661.387C741.246 661.515 740.902 661.432 740.662 661.12C740.369 660.729 740.434 660.125 740.778 659.849C741.1 659.602 741.741 659.786 741.985 660.21Z" fill="black"/>
<path d="M764.274 664.948C764.272 665.179 764.347 665.459 764.245 665.628C764.06 665.926 763.805 666.271 763.505 666.402C763.216 666.526 762.708 666.54 762.518 666.366C762.306 666.18 762.223 665.675 762.3 665.365C762.438 664.783 763.115 664.425 763.729 664.526C763.928 664.564 764.098 664.794 764.283 664.941L764.274 664.948Z" fill="black"/>
<path d="M779.268 615.917C779.235 616.313 779.293 616.675 779.17 616.96C779.037 617.294 778.569 617.324 778.207 617.109C777.853 616.903 777.682 616.588 777.739 616.205C777.767 616.013 777.98 615.711 778.125 615.714C778.461 615.701 778.815 615.821 779.252 615.913L779.268 615.917Z" fill="black"/>
<path d="M689.732 571.463C689.276 570.981 689.318 570.363 689.729 570.1C690.073 569.866 690.42 569.933 690.719 570.205C691.105 570.562 691.07 571.232 690.619 571.436C690.346 571.564 689.963 571.464 689.732 571.463Z" fill="black"/>
<path d="M683.365 576.319C683.134 576.318 682.771 576.377 682.447 576.28C682.285 576.232 682.137 575.886 682.136 575.672C682.123 575.249 682.431 574.983 682.823 574.904C683.199 574.823 683.549 574.916 683.802 575.247C683.986 575.497 683.805 576.036 683.371 576.329L683.365 576.319Z" fill="black"/>
<path d="M742.195 603.156C742.213 603.374 742.317 603.634 742.233 603.806C742.005 604.233 741.382 604.396 740.992 604.201C740.727 604.064 740.564 603.528 740.701 603.263C740.994 602.719 741.819 602.664 742.195 603.156Z" fill="black"/>
<path d="M781.453 634.997C781.08 634.891 780.733 634.867 780.475 634.697C780.345 634.613 780.323 634.24 780.381 634.028C780.477 633.661 780.679 633.323 781.095 633.258C781.325 633.216 781.642 633.174 781.798 633.299C781.954 633.423 782.042 633.766 781.994 633.97C781.904 634.304 781.675 634.603 781.45 635.014L781.453 634.997Z" fill="black"/>
<path d="M727.335 676.134C726.735 676.584 726.345 676.56 725.943 676.157C725.677 675.892 725.674 675.463 725.929 675.204C726.381 674.725 727.207 674.756 727.438 675.331C727.543 675.591 727.37 675.952 727.342 676.144L727.335 676.134Z" fill="black"/>
<path d="M785.408 636.128C785.466 635.83 785.46 635.461 785.603 635.163C785.677 634.997 786 634.836 786.194 634.848C786.396 634.87 786.688 635.046 786.765 635.224C787.03 635.806 786.443 636.447 785.779 636.336C785.68 636.317 785.594 636.232 785.408 636.128Z" fill="black"/>
<path d="M780.947 605.196C781.051 605.37 781.18 605.498 781.151 605.561C781.015 605.869 780.906 606.302 780.669 606.419C780.422 606.543 780.012 606.361 779.671 606.304C779.771 605.964 779.778 605.528 780.004 605.332C780.211 605.149 780.65 605.225 780.947 605.196Z" fill="black"/>
<path d="M757.435 641.689C757.002 641.58 756.636 641.57 756.38 641.383C756.132 641.207 756.296 640.622 756.581 640.428C756.887 640.221 757.504 640.263 757.562 640.54C757.621 640.86 757.494 641.204 757.429 641.679L757.435 641.689Z" fill="black"/>
<path d="M758.529 607.227C758.248 607.173 757.928 607.146 757.617 607.069C757.534 607.053 757.461 606.902 757.437 606.803C757.372 606.516 757.706 606.161 758.105 606.092C758.487 606.02 758.895 606.218 758.881 606.558C758.875 606.763 758.685 606.949 758.526 607.244L758.529 607.227Z" fill="black"/>
<path d="M751.662 668.328C752.014 668.635 752.036 669.325 751.629 669.615C751.353 669.802 750.97 669.831 750.631 669.945C750.586 669.602 750.411 669.218 750.525 668.94C750.642 668.645 751.023 668.444 751.309 668.251C751.378 668.204 751.547 668.305 751.659 668.344L751.662 668.328Z" fill="black"/>
<path d="M735.363 664.923C735.333 665.389 735.385 665.741 735.269 666.036C735.165 666.307 734.663 666.245 734.348 665.97C734.075 665.737 734.022 665.17 734.314 665.03C734.571 664.899 734.928 664.959 735.353 664.93L735.363 664.923Z" fill="black"/>
<path d="M752.852 663.039C752.508 663.402 752.313 663.707 752.043 663.86C751.744 664.034 751.428 663.716 751.339 663.245C751.287 662.935 751.411 662.693 751.715 662.718C752.035 662.745 752.359 662.885 752.846 663.03L752.852 663.039Z" fill="black"/>
<path d="M773.554 643.894C773.556 644.109 773.65 644.375 773.552 644.528C773.353 644.849 772.411 644.625 772.389 644.252C772.374 644.061 772.551 643.812 772.705 643.679C773.03 643.416 773.337 643.51 773.554 643.894Z" fill="black"/>
<path d="M765.186 659.674C765.355 660.135 765.251 660.449 764.896 660.561C764.422 660.709 764.098 660.613 763.993 660.267C763.868 659.892 763.938 659.571 764.32 659.37C764.681 659.183 765.068 659.309 765.193 659.684L765.186 659.674Z" fill="black"/>
<path d="M759.098 600.894C759.149 601.118 759.21 601.335 759.261 601.559C759.04 601.594 758.777 601.715 758.591 601.653C758.327 601.559 758.305 601.272 758.448 601.017C758.611 600.749 758.832 600.714 759.081 600.891L759.098 600.894Z" fill="black"/>
<path d="M772.203 591.921C772.445 592.087 772.54 592.354 772.34 592.547C772.202 592.683 771.905 592.668 771.681 592.72C771.646 592.499 771.539 592.255 771.604 592.054C771.694 591.763 771.955 591.744 772.203 591.921Z" fill="black"/>
<path d="M747.176 600.029C746.862 599.609 747 598.984 747.31 598.975C747.518 598.964 747.799 599.061 747.915 599.212C748.032 599.363 748.068 599.798 748.009 599.838C747.736 599.965 747.413 599.997 747.172 600.045L747.176 600.029Z" fill="black"/>
<path d="M680.588 563.558C680.386 563.494 680.115 563.476 679.995 563.342C679.772 563.076 680.001 562.734 680.445 562.606C680.725 562.531 680.96 562.645 680.943 562.959C680.928 563.17 680.711 563.36 680.594 563.568L680.588 563.558Z" fill="black"/>
<path d="M749.486 593.637C749.692 593.856 749.7 594.081 749.451 594.221C749.181 594.375 748.956 594.297 748.859 594.047C748.818 593.945 748.83 593.793 748.883 593.701C749.026 593.402 749.243 593.384 749.486 593.637Z" fill="black"/>
<path d="M676.123 556.624C676.151 556.835 676.195 557.049 676.223 557.26C676.022 557.282 675.745 557.383 675.616 557.298C675.51 557.226 675.461 556.857 675.543 556.744C675.625 556.631 675.918 556.662 676.12 556.641L676.123 556.624Z" fill="black"/>
<path d="M689.848 575.708C689.806 575.923 689.822 576.2 689.697 576.313C689.55 576.456 689.243 576.534 689.058 576.473C688.936 576.441 688.824 576.085 688.866 575.913C688.914 575.709 689.097 575.427 689.278 575.376C689.423 575.335 689.649 575.585 689.848 575.708Z" fill="black"/>
<path d="M676.341 585.385C676.452 585.697 676.338 585.932 676.018 585.905C675.807 585.89 675.598 585.687 675.422 585.533C675.385 585.5 675.459 585.292 675.521 585.192C675.684 584.924 675.925 584.876 676.164 585.059C676.254 585.128 676.278 585.27 676.341 585.385Z" fill="black"/>
<path d="M701.2 572.592C701.376 572.703 701.618 572.784 701.724 572.941C701.784 573.03 701.668 573.367 701.546 573.421C701.3 573.545 701.064 573.388 701.032 573.108C701.021 572.943 701.142 572.761 701.2 572.592Z" fill="black"/>
<path d="M674.52 562.767C674.404 562.745 674.272 562.762 674.183 562.694C674.13 562.658 674.082 562.46 674.122 562.433C674.279 562.284 674.466 562.157 674.647 562.063C674.696 562.03 674.829 562.141 674.932 562.187C674.801 562.376 674.66 562.571 674.53 562.76L674.52 562.767Z" fill="black"/>
<path d="M737.681 591.629C737.849 591.602 738.205 591.533 738.209 591.559C738.287 591.866 738.329 592.182 738.37 592.499C738.162 592.424 737.95 592.366 737.765 592.262C737.52 592.112 737.495 591.885 737.681 591.629Z" fill="black"/>
<path d="M769.672 603.419C769.775 603.464 769.907 603.49 769.953 603.559C770 603.628 769.948 603.763 769.946 603.866C769.843 603.82 769.708 603.811 769.664 603.726C769.618 603.657 769.669 603.521 769.672 603.419Z" fill="black"/>
<path d="M744.44 586.565L744.642 586.759L744.465 586.836L744.44 586.565Z" fill="black"/>
<path d="M754.382 595.308C754.283 595.332 754.148 595.409 754.095 595.373C753.883 595.229 753.925 595.057 754.185 594.953C754.267 594.926 754.383 594.991 754.498 595.014C754.453 595.116 754.417 595.212 754.382 595.308Z" fill="black"/>
<path d="M768.204 643.206C768.115 643.224 767.976 643.274 767.956 643.245C767.896 643.156 767.886 643.034 767.845 642.932C767.934 642.915 768.073 642.864 768.093 642.894C768.153 642.982 768.173 643.098 768.197 643.197L768.204 643.206Z" fill="black"/>
<path d="M771.676 626.286C771.668 626.465 771.733 626.751 771.644 626.811C771.486 626.918 771.235 626.887 771.024 626.915C771.043 626.73 771.005 626.525 771.086 626.37C771.213 626.111 771.447 626.097 771.67 626.276L771.676 626.286Z" fill="black"/>
<path d="M715.897 672.714C716.092 672.812 716.287 672.909 716.46 673.037C716.49 673.06 716.429 673.288 716.35 673.341C716.271 673.395 716.033 673.383 716.023 673.347C715.959 673.146 715.934 672.918 715.897 672.714Z" fill="black"/>
<path d="M753.841 656.924C753.865 657.023 753.939 657.131 753.9 657.201C753.802 657.396 753.634 657.381 753.493 657.131C753.453 657.072 753.521 656.94 753.547 656.85C753.637 656.876 753.742 656.905 753.832 656.931L753.841 656.924Z" fill="black"/>
<path d="M765.621 625.386C765.67 625.669 765.552 625.835 765.344 625.76C765.185 625.696 765.074 625.512 764.974 625.364C764.954 625.334 765.055 625.165 765.131 625.128C765.394 625.008 765.563 625.109 765.611 625.392L765.621 625.386Z" fill="black"/>
<path d="M759.925 624.357C760.104 624.408 760.354 624.397 760.418 624.512C760.498 624.63 760.42 624.855 760.402 625.04C760.293 625.027 760.101 625.042 760.078 624.986C759.994 624.799 759.966 624.588 759.908 624.354L759.925 624.357Z" fill="black"/>
<path d="M764.458 630.627C764.492 630.848 764.537 631.062 764.565 631.273C764.452 631.235 764.313 631.242 764.224 631.173C764.134 631.105 764.054 630.987 764.024 630.878C764.01 630.772 764.068 630.647 764.091 630.531C764.203 630.57 764.319 630.592 764.441 630.624L764.458 630.627Z" fill="black"/>
<path d="M753.48 599.769C753.424 599.836 753.329 599.972 753.306 599.959C752.985 599.845 752.971 599.697 753.26 599.573C753.3 599.546 753.4 599.694 753.48 599.769Z" fill="black"/>
<path d="M751.737 605.662L751.688 605.336L751.963 605.552L751.737 605.662Z" fill="black"/>
<path d="M741.969 597.792L742.188 597.946L741.994 598.063L741.969 597.792Z" fill="black"/>
<path d="M671.481 549.896C671.459 550.012 671.427 550.134 671.398 550.24C671.285 550.201 671.121 550.212 671.074 550.143C671.027 550.074 671.109 549.919 671.137 549.813C671.253 549.835 671.366 549.874 671.481 549.896Z" fill="black"/>
<path d="M703.158 590.404L703.35 590.56L703.163 590.644L703.158 590.404Z" fill="black"/>
<path d="M775.389 661.459C775.35 661.572 775.328 661.688 775.289 661.8C775.177 661.761 775.005 661.762 774.968 661.687C774.922 661.618 775.02 661.465 775.058 661.353C775.171 661.392 775.283 661.43 775.396 661.469L775.389 661.459Z" fill="black"/>
<path d="M719.938 593.541C720.044 593.57 720.143 593.589 720.249 593.618C720.22 593.724 720.224 593.879 720.159 593.909C720.099 593.949 719.96 593.871 719.854 593.842C719.883 593.736 719.902 593.637 719.931 593.531L719.938 593.541Z" fill="black"/>
<path d="M761.203 648.018L761.326 647.862L761.403 648.039L761.203 648.018Z" fill="black"/>
</g>
<g clip-path="url(#clip2_455_771)">
<path d="M669.101 638.25C672.694 637.322 677.025 637.073 680.225 634.872C684.259 632.099 683.997 625.401 682.974 620.678C681.844 615.502 678.869 611.088 675.264 607.769C674.336 606.912 671.731 604.83 670.803 607.031C670.803 607.031 666.817 616.537 662.843 626.044" fill="#B989C9"/>
<path d="M602.748 638.31C599.108 637.37 594.729 637.12 591.481 634.895C587.4 632.088 587.662 625.306 588.697 620.523C589.839 615.276 592.849 610.815 596.502 607.46C597.442 606.591 600.083 604.485 601.011 606.722C601.011 606.722 605.044 616.347 609.078 625.972" fill="#B989C9"/>
<path d="M625.853 686.019C627.959 686.543 630.148 686.864 632.409 686.959C651.754 687.828 666.805 670.588 669.684 655.609C673.622 635.121 655.812 616.632 633.04 616.632H633.694C610.922 616.632 593.099 635.121 597.049 655.609C599.512 668.423 610.613 682.283 625.853 686.019Z" fill="#B989C9"/>
<path d="M608.126 634.467C613.753 630.172 622.867 628.839 626.448 634.526C629.565 639.464 629.577 646.067 627.507 651.397C625.449 656.704 619.429 658.262 614.265 656.62C609.685 655.169 606.199 651.147 604.509 646.757C602.605 641.808 603.855 637.703 608.114 634.455L608.126 634.467Z" fill="black"/>
<path d="M646.198 634.467C651.826 630.172 660.939 628.839 664.521 634.526C667.638 639.464 667.65 646.067 665.58 651.397C663.521 656.704 657.501 658.262 652.337 656.62C647.757 655.169 644.271 651.147 642.581 646.757C640.678 641.808 641.927 637.703 646.186 634.455L646.198 634.467Z" fill="black"/>
<path d="M603.272 636.525C600.785 635.597 597.858 635.062 595.526 633.313C592.588 631.112 592.195 626.65 592.481 623.569C592.79 620.202 594.408 617.489 596.538 615.586C597.085 615.098 598.655 613.92 599.465 615.478C599.465 615.478 602.939 622.189 606.425 628.887" fill="black"/>
<path d="M665.818 629.09C669.422 622.225 673.039 615.36 673.039 615.36C673.872 613.765 675.455 614.943 676.014 615.443C678.167 617.37 679.785 620.107 680.071 623.533C680.333 626.662 679.88 631.207 676.87 633.48C674.479 635.276 671.493 635.847 668.958 636.823" fill="black"/>
<path d="M629.696 658L623.081 667.744C619.583 672.896 623.272 679.856 629.506 679.856H642.724C648.947 679.856 652.635 672.896 649.149 667.744L642.534 658C639.452 653.467 632.778 653.467 629.696 658Z" fill="black"/>
<path d="M636.311 696.18C633.289 696.18 630.267 695.752 627.269 694.871C609.435 690.112 597.43 672.682 594.801 657.905C592.73 646.293 595.955 634.372 603.629 625.211C611.707 615.574 623.617 610.041 636.323 610.041C647.852 609.756 660.118 615.645 668.352 625.472C676.228 634.871 679.44 646.698 677.156 657.917C675.109 670.517 666.519 683.247 655.252 690.362C649.149 694.217 642.724 696.168 636.299 696.168L636.311 696.18ZM637.12 616.061C636.882 616.061 636.644 616.061 636.407 616.061C625.413 616.061 615.181 620.809 608.257 629.077C601.725 636.87 598.989 646.995 600.737 656.846C603.034 669.755 613.432 684.96 628.852 689.053C628.875 689.053 628.899 689.065 628.923 689.077C638.56 691.909 646.805 688.565 652.028 685.27C661.76 679.119 669.47 667.721 671.207 656.906C671.207 656.858 671.219 656.823 671.231 656.775C673.194 647.209 670.529 637.465 663.723 629.351C656.811 621.106 646.674 616.061 637.108 616.061H637.12Z" fill="black"/>
<path d="M600.619 642.7C599.464 642.403 598.215 642.153 596.883 641.891C593.23 641.178 589.078 640.368 585.628 638.001C578.287 632.968 579.869 621.558 580.88 616.895C582.701 608.507 587.674 602.534 591.517 599.012C593.302 597.371 595.978 595.55 598.679 596.145C600.25 596.49 601.499 597.573 602.177 599.203C602.237 599.334 604.188 604.021 606.865 610.398L612.183 623.105L606.365 625.544L601.047 612.837C598.751 607.365 597.525 604.426 596.871 602.796C596.561 602.998 596.193 603.284 595.788 603.652C592.611 606.567 588.519 611.457 587.043 618.227C585.842 623.736 585.782 630.458 589.197 632.802C591.564 634.432 594.884 635.074 598.084 635.705C599.441 635.966 600.845 636.24 602.201 636.597L600.619 642.7ZM596.407 601.606L596.359 601.63C596.395 601.701 596.431 601.761 596.49 601.832C596.454 601.749 596.431 601.677 596.407 601.606Z" fill="black"/>
<path d="M671.302 642.7L669.72 636.597C671.064 636.252 672.468 635.978 673.825 635.704C677.025 635.074 680.344 634.431 682.712 632.801C686.127 630.457 686.067 623.735 684.866 618.227C683.39 611.457 679.297 606.567 676.121 603.652C675.728 603.283 675.359 603.01 675.062 602.795C674.693 603.7 674.134 605.032 673.301 607.019L665.556 625.532L659.738 623.093L669.744 599.191C670.422 597.572 671.671 596.478 673.242 596.133C675.93 595.538 678.619 597.37 680.392 599C684.235 602.534 689.208 608.494 691.029 616.882C692.04 621.558 693.622 632.956 686.281 638C682.831 640.368 678.691 641.177 675.026 641.891C673.706 642.153 672.456 642.391 671.29 642.7H671.302ZM675.538 601.618C675.538 601.618 675.502 601.725 675.478 601.784C675.514 601.737 675.55 601.689 675.574 601.63H675.538V601.618Z" fill="black"/>
<path d="M647.947 615.467C648.221 615.717 649.91 615.217 651.469 614.681L647.019 613.658L630.101 613.396L616.561 616.24C616.383 616.276 610.149 622.427 609.554 623.319C611.112 620.975 631.291 624.806 634.098 625.032C641.344 625.603 647.674 623.438 654.765 622.796C655.621 622.712 660.38 622.462 661.903 622.427C658.215 620.297 651.148 618.322 647.947 615.467Z" fill="black"/>
<path d="M633.337 601.927L623.141 611.064C622.344 611.481 622.308 612.599 623.057 613.075L629.411 617.085C630.172 617.561 631.16 617.037 631.195 616.145L635.038 602.998C635.074 602.106 634.122 601.511 633.337 601.927Z" fill="black"/>
<path d="M646.662 603.593L636.466 612.73C635.669 613.146 635.633 614.265 636.383 614.741L642.736 618.75C643.498 619.226 644.485 618.703 644.521 617.81L648.364 604.663C648.399 603.771 647.448 603.176 646.662 603.593Z" fill="black"/>
<path d="M643.188 599.096L630.791 610.208C629.827 610.72 629.78 612.076 630.696 612.659L638.429 617.525C639.345 618.108 640.547 617.466 640.595 616.383L645.27 600.404C645.318 599.322 644.164 598.596 643.2 599.096H643.188Z" fill="black"/>
<path d="M617.561 650.315C617.442 650.315 617.323 650.303 617.192 650.291C616.883 650.255 616.538 650.184 616.359 649.922C616.216 649.72 616.145 649.423 616.228 649.197C617.62 645.52 617.62 641.297 616.05 638.06C615.99 637.941 616.002 637.787 616.05 637.656C616.145 637.37 616.478 637.263 616.776 637.204C619.25 636.775 621.927 637.906 623.355 639.976C624.783 642.046 624.866 644.949 623.581 647.103C622.356 649.149 619.94 650.422 617.561 650.315Z" fill="white"/>
<path d="M655.633 650.315C655.514 650.315 655.395 650.303 655.264 650.291C654.955 650.255 654.61 650.184 654.431 649.922C654.289 649.72 654.217 649.423 654.301 649.197C655.693 645.52 655.693 641.297 654.122 638.06C654.063 637.941 654.074 637.787 654.122 637.656C654.217 637.37 654.55 637.263 654.848 637.204C657.323 636.775 659.999 637.906 661.427 639.976C662.855 642.046 662.938 644.949 661.653 647.103C660.428 649.149 658.013 650.422 655.633 650.315Z" fill="white"/>
<path d="M640.119 664.437C638.31 662.188 632.433 662.617 631.683 665.532C630.922 668.446 644.188 669.446 640.119 664.437Z" fill="white"/>
</g>
<g clip-path="url(#clip3_455_771)">
<path d="M905.832 518.878C905.832 522.777 901.27 528.355 896.708 531.318C896.552 531.434 896.475 531.511 896.475 531.591C896.475 531.67 896.591 531.668 896.825 531.668C896.942 531.668 898.774 531.551 899.827 531.551C900.414 531.551 900.957 531.551 901.427 531.591C901.856 531.63 902.207 531.941 902.284 532.331C902.477 533.15 902.713 534.67 902.87 535.84C902.87 536.23 902.596 536.503 902.167 536.543C899.711 536.699 891.873 537.166 889.377 537.283C888.947 537.283 888.48 537.126 888.284 536.736C887.894 535.88 887.231 533.461 887.231 533.148C887.231 532.798 887.427 532.445 887.698 532.251C895.186 527.609 900.371 520.278 900.451 517.589C900.411 516.419 899.514 515.989 898.658 515.989C897.292 515.989 895.149 517.432 893.549 519.968C893.432 520.162 893.236 520.281 893.003 520.281C892.769 520.281 892.536 520.124 892.536 520.124C891.639 519.541 890.586 518.682 890 518.018C889.807 517.825 889.687 517.552 889.687 517.239C889.687 517.122 889.727 516.926 889.764 516.809C890.504 514.976 893.43 510.998 897.252 510.998C900.801 510.998 905.832 514.859 905.832 518.875V518.878Z" fill="black"/>
<path d="M907.548 533.463C906.612 531.903 906.339 529.524 906.339 527.535C906.339 522.386 909.108 511.156 916.399 511.156C917.959 511.156 922.288 512.872 923.77 515.408C924.627 516.891 924.94 518.761 924.94 520.556C924.94 526.368 921.977 537.325 914.8 537.325C913.28 537.325 909.262 535.959 907.546 533.463H907.548ZM911.877 528.391C911.877 531.474 912.93 532.37 913.983 532.37C916.869 532.37 919.288 524.843 919.288 519.384C919.288 516.694 918.431 515.952 917.495 515.952C914.686 515.952 911.88 523.01 911.88 528.391H911.877Z" fill="black"/>
<path d="M942.801 518.878C942.801 522.777 938.239 528.355 933.677 531.318C933.521 531.434 933.444 531.511 933.444 531.591C933.444 531.67 933.56 531.668 933.794 531.668C933.911 531.668 935.743 531.551 936.796 531.551C937.383 531.551 937.926 531.551 938.396 531.591C938.825 531.63 939.176 531.941 939.252 532.331C939.446 533.15 939.682 534.67 939.839 535.84C939.839 536.23 939.565 536.503 939.136 536.543C936.68 536.699 928.842 537.166 926.346 537.283C925.916 537.283 925.449 537.126 925.253 536.736C924.863 535.88 924.2 533.461 924.2 533.148C924.2 532.798 924.396 532.445 924.667 532.251C932.155 527.609 937.34 520.278 937.42 517.589C937.38 516.419 936.483 515.989 935.627 515.989C934.261 515.989 932.118 517.432 930.518 519.968C930.401 520.162 930.205 520.281 929.972 520.281C929.738 520.281 929.505 520.124 929.505 520.124C928.608 519.541 927.555 518.682 926.969 518.018C926.776 517.825 926.656 517.552 926.656 517.239C926.656 517.122 926.696 516.926 926.733 516.809C927.473 514.976 930.399 510.998 934.221 510.998C937.77 510.998 942.801 514.859 942.801 518.875V518.878Z" fill="black"/>
<path d="M958.79 525.779C959.257 525.779 959.453 526.092 959.53 526.482C959.686 527.378 959.88 529.095 959.88 530.148C959.88 530.498 959.647 530.85 959.217 530.85C959.023 530.85 957.501 530.89 957.307 530.89C956.84 530.89 956.604 531.24 956.527 531.63C956.294 533.307 956.021 534.983 955.824 536.622C955.785 537.012 955.512 537.245 955.161 537.245C954.498 537.245 952.159 536.542 951.379 536.232C950.912 536.076 950.676 535.646 950.676 535.256C950.716 534.36 950.949 531.98 950.949 531.824C950.949 531.511 950.716 531.317 950.443 531.317C949.546 531.317 944.321 531.824 944.008 531.824C943.541 531.824 943.189 531.63 943.032 531.277C942.642 530.498 941.785 528.079 941.785 527.495C941.785 527.145 941.902 526.755 942.098 526.519C944.907 522.777 950.949 514.079 952.782 511.7C952.976 511.467 953.212 511.31 953.522 511.31C953.872 511.31 954.615 511.817 954.888 511.817C955.045 511.817 955.161 511.74 955.238 511.583C955.355 511.35 955.628 511.154 955.941 511.154C956.408 511.154 959.06 511.894 960.074 512.247C960.387 512.363 960.503 512.636 960.503 512.91C960.503 512.987 960.464 513.183 960.464 513.183C959.761 515.289 958.671 519.618 957.655 524.959C957.655 524.959 957.615 525.193 957.615 525.31C957.615 525.543 957.771 525.776 958.045 525.776H958.785L958.79 525.779ZM948.029 526.169C948.029 526.286 948.146 526.402 948.342 526.402C948.419 526.402 950.215 526.209 951.151 526.129C951.541 526.089 951.774 525.896 951.854 525.506C952.284 523.087 953.063 519.305 953.063 519.031C953.063 518.915 953.063 518.838 953.024 518.838C952.947 518.838 952.83 518.994 952.83 518.994C952.363 519.618 948.541 525.312 948.151 525.896C948.074 526.012 948.034 526.089 948.034 526.169H948.029Z" fill="black"/>
<path d="M955.62 605.852C954.491 605.229 952.422 603.2 951.292 602.03C951.019 601.757 950.902 601.407 950.902 601.054C950.902 598.128 952.931 588.224 953.904 584.792C953.944 584.636 953.944 584.442 953.944 584.285C953.944 583.466 953.788 582.179 953.788 581.946C953.788 581.633 953.944 581.363 954.254 581.243C956.437 580.307 959.09 579.684 960.766 579.684C966.771 579.684 971.569 586.158 971.569 591.07C971.569 598.752 964.861 605.539 957.063 606.083C956.557 606.083 956.05 606.043 955.62 605.849V605.852ZM966.188 589.357C966.188 586.431 963.731 584.678 961.079 584.678C960.806 584.678 960.572 584.678 960.299 584.718C959.832 584.795 959.596 584.991 959.519 585.381C958.583 589.203 957.337 594.624 956.557 599.77C956.557 599.77 956.517 600.004 956.517 600.083C956.517 600.396 956.711 600.513 957.063 600.513C959.989 600.513 966.188 596.73 966.188 589.359V589.357Z" fill="black"/>
<path d="M992.12 582.259V583.235C992.12 589.903 989.897 606.125 981.669 606.125C978.433 606.125 975.195 603.942 974.065 602.343C973.208 601.133 972.818 599.144 972.818 597.311C972.818 590.916 975.274 583.079 976.524 580.737C976.757 580.347 977.03 580.113 977.537 580.113C978.277 580.113 980.346 580.776 981.319 581.126C981.632 581.243 981.786 581.593 981.786 581.906C981.786 582.103 981.709 582.336 981.709 582.336C980.15 586.548 978.394 593.879 978.394 597.545C978.394 599.574 978.784 600.977 980.343 600.977C982.566 600.977 983.815 597.661 984.828 593.606C985.998 588.964 986.701 582.959 986.895 580.933C986.934 580.543 987.208 580.31 987.558 580.31C988.144 580.31 990.483 580.896 991.42 581.246C991.886 581.439 992.083 581.869 992.122 582.259H992.12Z" fill="black"/>
<path d="M1005.19 596.608C1005.19 596.802 1005.3 596.959 1005.3 596.959C1006.63 599.025 1008.19 601.247 1009.47 602.38C1009.63 602.537 1009.71 602.73 1009.71 602.926C1009.71 603.083 1009.63 603.239 1009.51 603.393C1008.66 604.213 1007.02 605.422 1005.89 605.929C1005.89 605.929 1005.73 606.006 1005.5 606.006C1005.15 606.006 1004.84 605.849 1004.64 605.693C1002.5 603.86 1000.78 599.961 1000.12 597.659C999.96 597.269 999.804 596.996 999.494 596.996H999.027C998.637 596.996 998.48 597.189 998.441 597.582C997.974 600.194 997.584 602.884 997.311 605.42C997.234 605.81 996.961 606.043 996.608 606.043C995.788 606.043 992.942 605.147 992.669 605.03C992.083 604.796 992.006 604.444 991.966 604.054C992.043 599.608 993.876 590.131 995.358 584.4C995.435 584.087 995.435 583.933 995.435 583.776C995.435 583.113 995.242 582.294 995.242 581.983C995.242 581.633 995.515 581.32 995.788 581.203C997.308 580.58 999.921 579.8 1003.16 579.8C1008.19 579.8 1012.21 585.105 1012.21 588.458C1012.21 591.81 1009.36 594.815 1005.62 596.139C1005.34 596.256 1005.19 596.372 1005.19 596.606V596.608ZM1001.01 585.378C1000.86 585.925 999.454 591.773 999.454 592.163C999.454 592.436 999.61 592.553 999.883 592.553C1003.51 592.553 1006.4 589.863 1006.4 587.521C1006.4 585.492 1004.76 584.636 1002.85 584.636C1002.53 584.636 1002.22 584.636 1001.91 584.675C1001.4 584.715 1001.13 584.988 1001.01 585.378Z" fill="black"/>
<path d="M1029.32 579.957C1029.95 579.957 1032.6 580.697 1033.58 581.049C1033.85 581.166 1034.04 581.439 1034.04 581.752C1034.04 581.869 1034 581.986 1034 581.986C1032.76 585.535 1030.3 596.181 1029.25 605.422C1029.21 605.812 1028.93 606.008 1028.62 606.008C1027.84 606.008 1025.07 605.189 1024.64 605.032C1024.14 604.839 1023.98 604.486 1023.94 604.019C1023.94 602.303 1024.49 598.598 1024.49 598.364C1024.49 598.051 1024.25 597.818 1023.86 597.818C1022.54 597.895 1020.82 597.934 1019.34 597.974C1018.91 597.974 1018.64 598.324 1018.56 598.677C1018.17 600.94 1017.82 603.202 1017.58 605.425C1017.54 605.815 1017.23 606.011 1016.92 606.011C1016.1 606.011 1013.41 605.231 1012.94 605.035C1012.55 604.878 1012.32 604.488 1012.28 604.022C1012.35 602.072 1012.86 598.25 1012.86 598.094C1012.86 597.86 1012.79 597.743 1012.67 597.627C1012.59 597.51 1012.47 597.393 1012.39 597.16C1012.24 596.576 1012.12 595.523 1012.08 594.741C1012.08 594.234 1012.2 594.038 1012.9 593.844C1013.45 593.688 1013.68 593.415 1013.76 593.065C1014.69 587.76 1016.02 582.498 1016.84 580.508C1016.99 580.195 1017.27 580.002 1017.62 580.002C1018.32 580.002 1021.01 580.705 1021.91 581.055C1022.18 581.132 1022.37 581.484 1022.37 581.795C1022.37 581.911 1022.3 582.145 1022.3 582.145C1021.59 584.017 1020.7 587.603 1019.72 592.205C1019.72 592.205 1019.68 592.399 1019.68 592.518C1019.68 592.791 1019.92 593.025 1020.23 593.025C1020.39 593.025 1023.94 592.908 1024.72 592.908C1025.11 592.908 1025.46 592.635 1025.53 592.245C1026.51 587.253 1027.72 582.418 1028.54 580.508C1028.65 580.195 1028.97 579.962 1029.32 579.962L1029.32 579.957Z" fill="black"/>
<path d="M1033.34 599.261C1033.34 598.794 1032.68 597.155 1032.68 596.452C1032.68 596.062 1032.87 595.789 1033.3 595.712C1033.73 595.635 1034.24 595.518 1034.24 595.518C1034.78 595.401 1034.94 595.205 1035.17 594.738C1037.24 590.643 1040.59 582.805 1042.35 580.739C1042.58 580.466 1042.85 580.389 1043.13 580.389C1043.52 580.389 1044.22 580.662 1044.45 580.662C1044.77 580.662 1045.08 580.469 1045.12 580.156C1045.16 579.882 1045.31 579.649 1045.62 579.649C1046.17 579.649 1048.94 580.625 1049.56 580.935C1049.99 581.132 1050.27 581.522 1050.34 581.988C1050.77 584.211 1050.97 590.802 1050.97 596.651C1050.97 600.356 1050.85 603.709 1050.65 605.465C1050.61 605.778 1050.34 606.051 1049.87 606.051C1049.21 606.051 1046.44 605.621 1045.74 605.388C1045.35 605.271 1045.12 604.921 1045.12 604.374C1045.12 603.478 1045.23 600.632 1045.23 600.006C1045.23 599.656 1045 599.42 1044.61 599.42C1042.85 599.42 1040.05 599.576 1039.58 599.616C1039.11 599.656 1038.92 599.85 1038.68 600.319C1037.94 601.956 1037.28 604.062 1036.69 605.427C1036.54 605.74 1036.26 605.894 1035.99 605.894C1035.37 605.894 1033.06 604.802 1032.44 604.374C1032.17 604.181 1031.97 603.945 1031.97 603.595C1031.97 603.398 1032.01 603.282 1032.01 603.282L1033.26 599.733C1033.34 599.539 1033.34 599.42 1033.34 599.266L1033.34 599.261ZM1040.98 594.425C1040.98 594.659 1041.14 594.738 1041.53 594.738C1042.51 594.738 1044.1 594.699 1044.61 594.699C1045.04 594.699 1045.27 594.505 1045.35 593.959C1045.39 593.102 1045.39 592.203 1045.39 591.306C1045.39 589.16 1045.31 587.094 1045.27 585.848C1045.27 585.614 1045.2 585.497 1045.12 585.497C1045.04 585.497 1044.96 585.574 1044.88 585.731C1043.91 587.837 1042.54 590.916 1041.06 594.192C1041.06 594.192 1040.98 594.348 1040.98 594.425Z" fill="black"/>
<path d="M1057.71 606.046C1056.89 606.046 1054.48 605.306 1053.85 605.07C1053.34 604.873 1053.19 604.483 1053.15 604.056C1053.34 598.401 1056.31 584.206 1057.91 580.62C1058.06 580.27 1058.49 580.034 1058.96 580.034C1059.51 580.034 1063.56 580.853 1065.24 581.554C1065.67 581.747 1065.71 582.177 1065.71 582.567C1065.74 584.087 1065.74 589.898 1065.71 593.487C1065.71 593.643 1065.74 593.8 1065.82 593.8C1065.9 593.8 1066.02 593.526 1066.02 593.526C1067.65 589.431 1069.49 584.206 1071.36 580.463C1071.55 580.15 1071.86 579.917 1072.29 579.917C1073.5 579.917 1077.87 581.087 1079.16 581.673C1079.51 581.79 1079.66 582.103 1079.66 582.413C1079.66 582.53 1079.62 582.646 1079.62 582.646C1078.34 586.625 1076.04 596.569 1075.02 605.459C1074.98 605.81 1074.67 606.046 1074.32 606.046C1073.7 606.046 1071.12 605.422 1070.38 605.07C1069.91 604.836 1069.72 604.483 1069.68 604.056C1069.68 600.234 1072.1 589.901 1072.1 589.434C1072.1 589.357 1072.06 589.277 1072.02 589.277C1071.98 589.277 1071.9 589.354 1071.82 589.511C1070.3 592.983 1068.98 597.232 1067.18 601.95C1067.07 602.263 1066.72 602.537 1066.36 602.537C1065.78 602.537 1063.48 601.797 1062.46 601.327C1062 601.094 1061.8 600.624 1061.76 600.234C1061.33 597.192 1061.45 592.59 1061.33 589.354C1061.29 589.158 1061.25 589.081 1061.21 589.081C1061.17 589.081 1061.1 589.158 1061.06 589.314C1060.04 593.76 1059.07 599.765 1058.45 605.459C1058.37 605.81 1058.06 606.046 1057.71 606.046H1057.71Z" fill="black"/>
<path d="M863.27 535.299C864.235 535.299 868.198 536.476 868.895 536.853C869.269 537.068 869.537 537.442 869.537 537.871C869.537 537.977 869.484 538.192 869.484 538.192C867.662 543.335 864.073 558.175 862.413 571.57C862.36 572.106 861.93 572.427 861.447 572.427C860.591 572.427 857.912 571.676 857.108 571.355C856.625 571.14 856.251 570.713 856.198 569.963L856.092 568.193C856.092 567.926 855.986 567.658 855.824 567.658C855.718 567.658 855.609 567.711 855.45 567.926C853.737 570.443 851.7 572.586 849.986 572.586C846.236 572.586 842.003 567.711 842.003 562.889C842.003 554.101 846.504 545.102 853.254 545.102C854.487 545.102 856.148 545.744 857.861 546.656C857.861 546.656 858.129 546.818 858.291 546.818C858.612 546.818 858.827 546.603 858.933 546.12C860.057 541.46 861.129 537.977 862.041 536.047C862.256 535.617 862.739 535.296 863.275 535.296L863.27 535.299ZM855.93 561.178C856.519 558.393 857.538 553.356 857.538 552.926C857.538 552.552 857.376 552.229 856.949 552.07C856.198 551.802 855.503 551.64 855.074 551.64C851.591 551.64 849.663 558.979 849.663 562.676C849.663 564.231 850.037 565.302 850.52 565.302C851.644 565.302 853.681 563.857 855.235 562.409C855.665 562.035 855.877 561.552 855.933 561.175L855.93 561.178Z" fill="black"/>
<path d="M875.325 543.123C878.539 543.123 880.521 541.086 880.521 538.248C880.521 535.086 877.412 533.8 874.842 533.8C874.306 533.8 873.502 534.068 873.128 534.336C872.004 535.245 870.823 536.694 870.823 538.569C870.823 541.033 872.216 543.123 875.325 543.123Z" fill="black"/>
<path d="M892.899 570.071L892.737 567.822C892.737 567.554 892.631 567.393 892.523 567.393C892.414 567.393 892.308 567.499 892.202 567.66C890.326 570.66 888.183 572.589 886.523 572.589C882.719 572.589 878.486 567.928 878.486 562.891C878.486 553.945 882.772 545.104 890.167 545.104C892.793 545.104 898.151 547.195 902.008 549.712C902.382 549.927 902.649 550.354 902.649 550.836C902.649 550.998 902.543 551.425 902.543 551.425C900.4 559.032 899.65 567.337 899.544 571.623C899.49 572.106 899.114 572.48 898.634 572.48C897.241 572.48 894.294 571.676 893.865 571.461C893.167 571.087 892.955 570.605 892.899 570.069V570.071ZM892.417 561.178C893.005 558.393 894.024 553.356 894.024 552.926C894.024 552.552 893.862 552.229 893.435 552.07C892.684 551.802 891.99 551.64 891.56 551.64C888.077 551.64 886.149 558.979 886.149 562.677C886.149 564.231 886.523 565.302 887.006 565.302C888.13 565.302 890.167 563.857 891.722 562.409C892.151 562.035 892.363 561.552 892.419 561.175L892.417 561.178Z" fill="black"/>
<path d="M921.078 545.211C923.757 545.211 927.614 549.123 927.614 551.802C927.614 554.213 925.577 565.411 923.916 571.679C923.754 572.108 923.274 572.535 922.792 572.535C921.558 572.535 918.399 571.358 917.219 570.713C916.789 570.445 916.577 569.963 916.577 569.48C916.577 569.265 916.63 568.997 916.63 568.997C916.63 568.997 919.362 557.746 919.362 554.316C919.362 553.406 919.2 552.815 918.826 552.815C918.023 552.815 915.718 554.101 913.736 556.136C913.201 556.671 912.933 557.313 912.827 557.849C911.861 562.671 910.683 568.671 910.042 571.618C909.935 572.1 909.506 572.474 909.023 572.474C907.845 572.474 904.307 571.297 903.559 570.92C903.076 570.652 902.862 570.223 902.862 569.742C902.862 569.368 906.076 550.401 906.718 546.009C906.824 545.473 907.307 545.099 907.79 545.099C908.379 545.099 911.914 545.741 912.933 546.171C913.522 546.439 913.898 547.027 913.898 547.616C913.898 548.152 913.951 548.956 913.951 549.759C913.951 550.08 914.057 550.242 914.166 550.242C914.328 550.242 914.54 549.974 914.54 549.974C916.683 547.242 919.147 545.205 921.076 545.205L921.078 545.211Z" fill="black"/>
<path d="M940.634 545.104C943.045 545.104 948.939 547.409 952.369 549.606C952.743 549.873 952.957 550.356 952.957 550.839C952.957 551.054 952.904 551.269 952.904 551.269C951.78 555.876 950.332 564.769 949.048 571.252C948.406 574.573 945.833 582.341 937.905 582.341C935.977 582.341 932.547 581.27 930.887 580.036C930.404 579.715 930.245 579.339 930.245 578.912C930.245 578.27 930.996 575.697 931.264 575.108C931.425 574.734 931.746 574.519 932.12 574.519C932.226 574.519 932.441 574.573 932.55 574.626C934.157 575.323 935.55 575.591 936.568 575.591C940.961 575.591 942.3 570.716 942.3 568.464C942.3 568.196 942.194 568.034 942.085 568.034C941.977 568.034 941.924 568.087 941.764 568.302C940.157 570.551 938.282 572.215 936.727 572.215C932.924 572.215 928.853 567.766 928.853 562.57C928.853 553.568 933.407 545.104 940.64 545.104H940.634ZM942.778 561.178C943.366 558.393 944.385 553.356 944.385 552.926C944.385 552.552 944.223 552.229 943.796 552.07C943.045 551.802 942.351 551.64 941.921 551.64C938.438 551.64 936.51 558.979 936.51 562.677C936.51 564.231 936.884 565.302 937.367 565.302C938.491 565.302 940.528 563.857 942.083 562.409C942.512 562.035 942.725 561.552 942.778 561.175V561.178Z" fill="black"/>
<path d="M976.908 555.926C976.908 560.695 974.015 572.588 965.389 572.588C962.978 572.588 958.424 571.249 955.96 568.623C954.459 567.016 953.711 564.552 953.711 561.552C953.711 555.443 957.299 545.051 964.694 545.051C967.479 545.051 972.516 547.141 974.821 549.444C976.214 550.889 976.858 553.462 976.911 555.658V555.926H976.908ZM969.084 555.284C969.084 552.873 968.333 551.266 966.888 551.266C963.941 551.266 961.424 558.284 961.424 562.57C961.424 564.713 962.121 566.268 963.673 566.268C966.941 566.268 969.084 559.356 969.084 555.284Z" fill="black"/>
<path d="M991.587 556.998C991.587 556.568 992.284 553.998 992.284 552.98C992.284 551.961 992.016 551.319 991.266 551.319C988.908 551.319 985.908 556.945 985.908 561.284C985.908 563.91 987.086 565.517 989.07 565.517C990.945 565.517 992.982 564.767 994.48 563.91C994.48 563.91 994.695 563.804 994.91 563.804C995.284 563.804 995.499 563.966 995.714 564.34C996.088 565.037 997.106 567.233 997.106 567.984C997.106 568.573 996.891 569.003 996.571 569.324C994.642 571.037 992.122 572.591 989.123 572.591C987.353 572.591 982.425 571.146 980.388 568.573C978.943 566.751 978.192 564.448 978.192 561.502C978.192 554.001 983.12 545.054 989.229 545.054C991.319 545.054 999.568 547.895 999.568 552.234C999.568 553.521 998.549 556.091 998.013 556.95C997.746 557.38 997.316 557.701 996.727 557.754C995.87 557.807 993.618 557.807 992.388 557.807C991.905 557.754 991.584 557.433 991.584 557.003L991.587 556.998Z" fill="black"/>
<path d="M1023.57 555.926C1023.57 560.695 1020.68 572.588 1012.05 572.588C1009.64 572.588 1005.09 571.249 1002.62 568.623C1001.12 567.016 1000.37 564.552 1000.37 561.552C1000.37 555.443 1003.96 545.051 1011.36 545.051C1014.14 545.051 1019.18 547.141 1021.48 549.444C1022.88 550.889 1023.52 553.462 1023.57 555.658V555.926H1023.57ZM1015.75 555.284C1015.75 552.873 1015 551.266 1013.55 551.266C1010.61 551.266 1008.09 558.284 1008.09 562.57C1008.09 564.713 1008.79 566.268 1010.34 566.268C1013.61 566.268 1015.75 559.356 1015.75 555.284Z" fill="black"/>
<path d="M1042.38 545.211C1045.06 545.211 1048.92 549.123 1048.92 551.802C1048.92 554.213 1046.88 565.411 1045.22 571.679C1045.06 572.108 1044.58 572.535 1044.09 572.535C1042.86 572.535 1039.7 571.358 1038.52 570.713C1038.09 570.445 1037.88 569.963 1037.88 569.48C1037.88 569.265 1037.93 568.997 1037.93 568.997C1037.93 568.997 1040.66 557.746 1040.66 554.316C1040.66 553.406 1040.5 552.815 1040.13 552.815C1039.32 552.815 1037.02 554.101 1035.04 556.136C1034.5 556.671 1034.23 557.313 1034.13 557.849C1033.16 562.671 1031.99 568.671 1031.34 571.618C1031.24 572.1 1030.81 572.474 1030.32 572.474C1029.15 572.474 1025.61 571.297 1024.86 570.92C1024.38 570.652 1024.16 570.223 1024.16 569.742C1024.16 569.368 1027.38 550.401 1028.02 546.009C1028.13 545.473 1028.61 545.099 1029.09 545.099C1029.68 545.099 1033.22 545.741 1034.23 546.171C1034.82 546.439 1035.2 547.027 1035.2 547.616C1035.2 548.152 1035.25 548.956 1035.25 549.759C1035.25 550.08 1035.36 550.242 1035.47 550.242C1035.63 550.242 1035.84 549.974 1035.84 549.974C1037.98 547.242 1040.45 545.205 1042.38 545.205L1042.38 545.211Z" fill="black"/>
<path d="M1057.33 568.143C1057.33 570.769 1055.67 572.697 1052.93 572.697C1050.2 572.697 1048.97 570.66 1048.97 568.464C1048.97 566.589 1049.67 565.623 1050.84 564.552C1051.16 564.231 1051.81 563.963 1052.34 563.963C1054.76 563.963 1057.33 565.302 1057.33 568.143H1057.33Z" fill="black"/>
<path d="M1084.65 547.889C1084.65 548.104 1084.54 548.425 1084.54 548.425C1082.13 556.3 1080.85 566.857 1080.69 571.623C1080.69 572.106 1080.31 572.533 1079.83 572.533C1078.71 572.533 1076.19 571.835 1075.44 571.514C1074.9 571.299 1074.53 570.817 1074.37 570.069C1074.26 569.639 1074.21 568.355 1074.15 567.496C1074.15 567.122 1074.05 566.907 1073.88 566.907C1073.72 566.907 1073.56 567.228 1073.56 567.228C1071.64 570.443 1069.22 572.639 1067.24 572.639C1064.08 572.639 1059.9 568.353 1059.9 564.119C1059.9 557.584 1062.21 549.6 1063.55 546.279C1063.71 545.85 1064.13 545.476 1064.62 545.476C1065.37 545.476 1068.8 546.815 1070.03 547.513C1070.4 547.728 1070.67 548.102 1070.67 548.531C1070.67 548.905 1070.56 549.229 1070.56 549.229C1069.49 552.391 1067.46 560.642 1067.46 563.801C1067.46 564.605 1067.56 565.088 1067.89 565.088C1069.22 565.088 1071.74 563.265 1073.51 560.963C1073.83 560.533 1073.99 560.159 1074.1 559.518C1074.8 554.749 1076.19 549.017 1077.15 546.232C1077.31 545.749 1077.79 545.375 1078.33 545.375C1079.13 545.375 1082.24 546.232 1083.85 546.929C1084.28 547.091 1084.65 547.465 1084.65 547.895L1084.65 547.889Z" fill="black"/>
<path d="M1094.08 545.104C1097.03 545.104 1105.87 547.836 1105.87 551.802C1105.87 553.194 1104.8 555.337 1104.37 555.926C1103.94 556.515 1103.4 556.677 1102.92 556.73H1098.9C1098.37 556.73 1098.1 556.356 1098.1 556.032C1098.1 555.603 1098.63 554.21 1098.63 553.139C1098.63 551.693 1097.99 550.942 1097.19 550.942C1095.37 550.942 1093.76 553.942 1093.76 555.39C1093.76 559.088 1103.94 558.231 1103.94 564.393C1103.94 568.249 1100.14 572.644 1094.67 572.644C1091.45 572.644 1086.74 571.09 1085.03 569.536C1084.54 569.106 1084.44 568.732 1084.44 568.464C1084.44 567.766 1085.08 565.411 1085.56 564.393C1085.78 563.91 1085.99 563.751 1086.31 563.751C1086.63 563.751 1086.85 563.966 1086.95 563.966C1088.83 564.984 1091.45 566.377 1093.65 566.377C1094.88 566.377 1096.01 565.947 1096.11 565.09C1096.11 562.841 1085.77 562.573 1085.77 555.608C1085.77 551.322 1089.69 545.107 1094.08 545.107L1094.08 545.104Z" fill="black"/>
<path d="M878.057 547.407C878.057 549.55 874.468 567.928 873.717 571.411C873.677 571.586 873.635 571.769 873.59 571.952C873.582 571.952 873.574 571.952 873.566 571.954C872.717 575.554 869.985 582.338 862.575 582.338C860.646 582.338 857.217 581.267 855.556 580.036C855.074 579.715 854.914 579.339 854.914 578.912C854.914 578.267 855.665 575.697 855.933 575.105C856.092 574.731 856.413 574.517 856.79 574.517C856.896 574.517 857.111 574.57 857.217 574.625C858.824 575.32 860.219 575.588 861.235 575.588C862.362 575.588 863.455 575.238 864.338 574.532C864.739 574.214 865.086 573.835 865.386 573.421C866.001 572.572 866.155 571.517 866.338 570.511C866.55 569.347 866.763 568.18 866.97 567.013C867.314 565.074 867.646 563.135 867.977 561.196C868.333 559.112 868.683 557.027 869.036 554.942C869.351 553.069 869.667 551.199 869.993 549.33C870.176 548.279 870.343 547.221 870.556 546.173C870.664 545.637 871.144 545.261 871.736 545.261C872.484 545.261 875.754 545.797 877.2 546.173C877.683 546.332 878.057 546.868 878.057 547.404V547.407Z" fill="black"/>
</g>
<rect x="1013.5" y="53.5" width="8.00001" height="163" rx="4" fill="black"/>
<rect x="961" y="383" width="8" height="89" rx="4" fill="black"/>
<rect x="961" y="313" width="8" height="26" rx="4" fill="black"/>
<rect x="806" y="260" width="8" height="65" rx="4" transform="rotate(-90 806 260)" fill="black"/>
<rect x="938" y="260" width="8" height="43" rx="4" transform="rotate(-90 938 260)" fill="black"/>
<rect x="1046" y="273" width="8" height="90" rx="4" transform="rotate(-90 1046 273)" fill="black"/>
<g clip-path="url(#clip4_455_771)">
<path d="M1119.61 105.047C1118.55 106.428 1116.96 107.087 1115.25 106.852C1114.32 106.715 1113.45 106.333 1112.75 105.748C1112.13 105.243 1111.64 104.604 1111.35 103.87C1110.77 102.412 1111.03 100.827 1112.06 99.5142C1115.93 94.5411 1119.81 89.567 1123.69 84.582L1125.22 82.6317L1127.22 84.701C1127.44 84.9193 1127.65 85.1387 1127.86 85.358C1128.7 86.2668 1129.52 87.3083 1130.46 88.6436L1131.4 89.9573L1130.4 91.2226C1126.8 95.8311 1123.2 100.45 1119.6 105.059L1119.61 105.047Z" fill="black"/>
<path d="M1133.13 72.9849C1134.19 71.6041 1135.78 70.9449 1137.49 71.1798C1138.41 71.3167 1139.29 71.6987 1139.99 72.2834C1140.61 72.7893 1141.1 73.4278 1141.39 74.1622C1141.97 75.6202 1141.71 77.2048 1140.68 78.5176C1136.81 83.4907 1132.93 88.4648 1129.05 93.4498L1127.52 95.4002L1125.52 93.3308C1125.3 93.1125 1125.09 92.8931 1124.88 92.6738C1124.04 91.765 1123.22 90.7235 1122.28 89.3882L1121.34 88.0745L1122.34 86.8092C1125.94 82.2007 1129.54 77.5815 1133.14 72.973L1133.13 72.9849Z" fill="black"/>
<path d="M1127.93 44.8146C1127.69 43.0395 1127.41 41.0172 1125.52 41.6955C1118.15 44.3332 1111.72 55.6647 1116.47 64.32C1120.05 70.8129 1126.92 74.5258 1132.46 77.7171C1132.68 77.848 1133.04 77.8127 1132.94 77.561C1130.55 59.5793 1129.07 53.8928 1127.92 44.8156L1127.93 44.8146Z" fill="#B989C9"/>
<path d="M1130.96 80.7437C1130.45 80.795 1129.95 80.7027 1129.55 80.535L1128.6 80.1271C1122.14 77.3656 1114.09 73.9322 1110.1 67.2403C1108.02 63.7286 1107.76 59.5017 1109.36 55.0263C1111.7 48.4496 1117.88 42.1898 1124.41 39.7984C1126.17 39.1556 1127.38 39.5487 1128.07 40.0028C1129.75 41.0797 1129.89 43.1699 1130.01 44.6955L1130.01 44.7171C1130.26 48.7269 1130.65 52.1549 1131.11 56.111C1131.71 61.2741 1132.44 67.6886 1133.17 78.0177C1133.29 78.7584 1133.04 79.5128 1132.5 80.0467C1132.06 80.4716 1131.51 80.6783 1130.97 80.7318L1130.96 80.7437ZM1125.58 44.0002C1120.38 46.042 1115.31 51.232 1113.44 56.4758C1112.64 58.7249 1112.06 62.0311 1113.83 65.0179C1116.79 70.0009 1122.87 72.9314 1128.62 75.4158C1127.96 66.8562 1127.32 61.2288 1126.79 56.6152C1126.32 52.5944 1125.92 49.1124 1125.67 45.0054C1125.64 44.7355 1125.63 44.3446 1125.57 44.0121L1125.58 44.0002Z" fill="black"/>
<path d="M1130.84 82.1406C1131.16 81.6184 1121.47 79.8632 1120.78 79.7784C1118.05 79.373 1115.1 79.436 1112.12 79.9815C1107.2 81.0033 1103.41 84.7587 1100.01 88.1809C1098.51 89.6811 1098.68 91.5943 1100.36 92.3538C1106.43 95.1008 1120.46 98.9115 1130.83 82.1417L1130.84 82.1406Z" fill="#B989C9"/>
<path d="M1169.83 79.1849C1160.68 79.9705 1154.81 79.6798 1136.66 81.1065C1136.39 81.0565 1136.43 81.4344 1136.59 81.6365C1140.76 86.6639 1145.7 92.9562 1152.75 95.2453C1162.17 98.2817 1172.12 89.1852 1173.35 80.9956C1173.66 78.8929 1171.61 79.0409 1169.83 79.1849Z" fill="#B989C9"/>
<path d="M1156.82 101.701C1154.95 101.886 1153.12 101.675 1151.36 101.053C1144 98.4562 1139.06 91.2376 1135.08 85.4385L1134.49 84.5807C1133.99 83.8461 1133.74 82.6054 1134.39 81.6042C1134.8 80.9634 1135.48 80.5689 1136.24 80.5481C1146.51 79.2367 1152.95 78.6978 1158.13 78.2722C1162.11 77.9435 1165.55 77.6576 1169.53 77.1109L1169.55 77.1088C1171.07 76.9148 1173.13 76.6556 1174.53 78.0874C1175.11 78.6839 1175.73 79.7781 1175.45 81.638C1174.38 88.5031 1169.46 95.8049 1163.48 99.3843C1161.27 100.705 1159.03 101.482 1156.83 101.7L1156.82 101.701ZM1139.7 84.4908C1143.26 89.6331 1147.32 95.0199 1152.79 96.9642C1156.07 98.1118 1159.2 96.8863 1161.24 95.6705C1166.01 92.81 1170.12 86.8212 1171.09 81.3174C1170.74 81.3516 1170.35 81.3901 1170.09 81.4157C1166.01 81.9731 1162.51 82.2644 1158.48 82.5984C1153.85 82.9803 1148.21 83.452 1139.69 84.4919L1139.7 84.4908Z" fill="black"/>
<path d="M1127.93 115.388C1128.89 116.873 1130.63 116.636 1131.74 114.858C1134.25 110.826 1137.01 106.334 1137.12 101.318C1137.12 98.3092 1136.7 95.4177 1135.89 92.8377C1135.7 92.1801 1132.55 83.1053 1132.13 83.5389C1118.77 97.1933 1124.48 110.06 1127.93 115.388Z" fill="#B989C9"/>
<path d="M1134.99 119.355C1134.85 119.369 1134.71 119.383 1134.58 119.385C1132.91 119.43 1131.27 118.785 1130.09 117.595C1126.63 114.132 1120.94 107.096 1121.77 98.8481C1122.38 92.7037 1126.42 87.1143 1133.77 82.2429L1134.58 81.705L1135.6 81.9532C1137.94 82.5719 1143.45 92.8085 1143.51 92.9122C1145.1 95.8179 1146.09 99.0457 1146.4 102.427C1146.77 108.573 1142.44 113.428 1138.97 117.337C1137.95 118.484 1136.52 119.215 1134.99 119.366L1134.99 119.355ZM1134.66 86.9087C1129.39 90.7446 1126.51 94.9112 1126.07 99.2938C1125.43 105.758 1130.23 111.617 1133.14 114.534C1133.49 114.881 1133.96 115.063 1134.45 115.048C1134.95 115.042 1135.4 114.823 1135.73 114.452C1138.83 110.972 1142.33 107.028 1142.07 102.758C1141.8 100.048 1140.99 97.3803 1139.65 94.9186C1139.21 94.0686 1136.28 89.2011 1134.66 86.8979L1134.66 86.9087Z" fill="black"/>
<path d="M1111.37 90.1633C1112 89.7731 1112.67 89.3258 1113.36 88.9518C1113.95 88.6318 1114.8 88.9187 1115.16 89.4934C1115.59 90.1815 1115.31 91.168 1114.58 91.557C1114.38 91.6637 1114.14 91.7638 1113.94 91.7399C1113.5 91.6639 1113.02 91.5911 1112.63 91.3791C1111.72 90.8697 1110.9 90.951 1110.05 91.4824C1109.87 91.5977 1109.61 91.5694 1109.38 91.5918C1109 91.6292 1108.49 91.1354 1108.48 90.7435C1108.47 90.3408 1108.93 89.7939 1109.32 89.8428C1109.99 89.9072 1110.65 90.0601 1111.37 90.1849L1111.37 90.1633Z" fill="black"/>
<path d="M1127.01 94.567C1126.3 95.4656 1125.55 95.9216 1124.61 96.048C1123.98 96.1316 1123.36 95.8007 1123.25 95.3104C1123.08 94.5751 1123.34 93.8185 1123.9 93.5449C1124.91 93.0525 1125.87 93.1862 1126.78 93.8046C1127.03 93.9657 1127.09 94.4829 1127.01 94.567Z" fill="black"/>
<path d="M1113.95 96.1662C1113.62 95.8279 1113.51 95.097 1113.77 94.6244C1113.99 94.2316 1114.31 93.9383 1114.8 93.9226C1115.31 93.9047 1115.85 94.3857 1115.9 94.9255C1115.99 95.7569 1115.37 96.4504 1114.54 96.4021C1114.34 96.389 1114.14 96.2452 1113.93 96.1672L1113.95 96.1662Z" fill="black"/>
<path d="M1141.98 108.938C1141.49 109.64 1140.09 109.692 1139.66 109.004C1139.48 108.706 1139.49 108.356 1139.71 108.083C1140.18 107.513 1140.79 107.343 1141.5 107.535C1141.98 107.662 1142.26 108.528 1141.98 108.949L1141.98 108.938Z" fill="black"/>
<path d="M1149.32 87.4625C1148.9 87.1123 1148.82 86.5746 1149.1 85.9692C1149.25 85.6487 1149.84 85.2963 1150.2 85.3808C1150.4 85.4264 1150.59 85.582 1150.72 85.743C1151.07 86.1449 1150.88 86.5777 1150.7 86.9769C1150.5 87.4226 1150.06 87.5636 1149.61 87.6085C1149.51 87.6181 1149.42 87.5079 1149.32 87.4625Z" fill="black"/>
<path d="M1159.17 90.4348C1159.65 89.8642 1160.4 89.7893 1160.96 90.2681C1161.26 90.5221 1161.3 90.845 1161.21 91.1817C1161.07 91.6533 1160.69 91.9196 1160.26 92.1038C1159.92 92.2471 1159.23 91.9992 1159.05 91.6891C1158.83 91.2754 1158.86 90.8037 1159.17 90.4348Z" fill="black"/>
<path d="M1139.33 98.7009C1139.01 98.3831 1138.96 97.8325 1139.24 97.4668C1139.46 97.1723 1139.75 97.0344 1140.12 97.1287C1140.33 97.1839 1140.56 97.2381 1140.74 97.3506C1141.25 97.6599 1141.42 98.3628 1141.1 98.8084C1140.86 99.1482 1140.35 99.2751 1139.89 99.0598C1139.69 98.97 1139.51 98.8241 1139.33 98.7009Z" fill="black"/>
<path d="M1125.88 100.709C1125.48 101.14 1124.68 101.253 1124.37 100.913C1124.04 100.553 1124.11 99.6957 1124.49 99.3528C1124.8 99.0821 1125.4 99.0222 1125.76 99.2266C1126.23 99.5078 1126.29 100.254 1125.89 100.697L1125.88 100.709Z" fill="black"/>
<path d="M1125.78 105.472C1125.35 105.656 1124.84 105.477 1124.6 105.054C1124.37 104.631 1124.53 104.091 1124.96 103.896C1125.44 103.674 1125.92 103.833 1126.11 104.273C1126.32 104.764 1126.17 105.292 1125.78 105.461L1125.78 105.472Z" fill="black"/>
<path d="M1135 99.3372C1134.53 98.7948 1134.6 98.0899 1135.07 97.8032C1135.36 97.6329 1135.68 97.5145 1136 97.7555C1136.52 98.162 1136.44 99.1184 1135.8 99.4211C1135.57 99.531 1135.21 99.3601 1135 99.3372Z" fill="black"/>
<path d="M1114.24 84.1875C1114.29 84.2804 1114.38 84.3701 1114.41 84.4651C1114.62 85.0548 1114.34 85.5187 1113.94 85.907C1113.83 86.0159 1113.52 86.0037 1113.35 85.9226C1112.75 85.6327 1112.62 84.784 1113.05 84.2727C1113.31 83.975 1113.96 83.9324 1114.23 84.1886L1114.24 84.1875Z" fill="black"/>
<path d="M1150.96 92.3051C1150.76 92.6741 1150.15 92.8214 1149.83 92.5804C1149.43 92.282 1149.34 91.8112 1149.61 91.4358C1149.9 91.014 1150.45 90.8623 1150.73 91.1282C1151.08 91.4535 1151.18 91.934 1150.97 92.3149L1150.96 92.3051Z" fill="black"/>
<path d="M1136.88 104.089C1136.48 104.445 1135.91 104.491 1135.52 104.279C1135.12 104.068 1135.04 103.367 1135.43 103.132C1135.69 102.964 1136.06 102.884 1136.37 102.886C1136.56 102.878 1136.86 103.066 1136.9 103.226C1136.97 103.524 1136.89 103.859 1136.88 104.089Z" fill="black"/>
<path d="M1130.89 103.679C1131.37 104.024 1131.41 104.62 1131.08 104.914C1130.82 105.147 1130.41 105.144 1130.17 104.895C1129.97 104.687 1129.88 104.15 1130.11 103.963C1130.33 103.789 1130.68 103.744 1130.89 103.668L1130.89 103.679Z" fill="black"/>
<path d="M1127.7 68.8016C1127.46 68.8251 1127.14 68.9328 1126.87 68.8623C1126.37 68.7366 1126.27 67.9506 1126.66 67.531C1126.87 67.3023 1127.31 67.3028 1127.54 67.5416C1127.86 67.8593 1127.97 68.4154 1127.7 68.8124L1127.7 68.8016Z" fill="black"/>
<path d="M1130.16 88.1174C1130.42 88.4189 1130.34 88.9823 1130.01 89.2551C1129.63 89.5538 1129.11 89.5296 1128.84 89.2184C1128.58 88.9169 1128.66 88.375 1129.01 88.0677C1129.35 87.7614 1129.86 87.7868 1130.16 88.1174Z" fill="black"/>
<path d="M1141.25 103.395C1141.1 103.726 1140.41 103.882 1140.08 103.565C1139.89 103.366 1139.81 103.003 1139.78 102.712C1139.77 102.636 1140.14 102.469 1140.34 102.438C1140.67 102.384 1141.04 102.424 1141.19 102.779C1141.27 102.956 1141.23 103.19 1141.25 103.395Z" fill="black"/>
<path d="M1120.28 100.619C1120.01 100.778 1119.84 100.947 1119.64 100.966C1119.45 100.986 1119.18 100.914 1119.07 100.783C1118.84 100.523 1119.08 99.8992 1119.49 99.7495C1119.65 99.6903 1119.98 99.723 1120.04 99.8364C1120.19 100.073 1120.22 100.375 1120.27 100.631L1120.28 100.619Z" fill="black"/>
<path d="M1131.47 109.553C1131.25 109.488 1130.94 109.464 1130.73 109.299C1130.48 109.106 1130.53 108.566 1130.79 108.442C1130.97 108.359 1131.22 108.292 1131.39 108.351C1131.74 108.469 1131.82 109.181 1131.46 109.554L1131.47 109.553Z" fill="black"/>
<path d="M1132.23 114.635C1132.04 114.741 1131.83 114.958 1131.69 114.918C1131.34 114.832 1131.28 114.511 1131.35 114.177C1131.42 113.897 1131.59 113.815 1131.86 113.919C1132.25 114.077 1132.38 114.326 1132.22 114.624L1132.23 114.635Z" fill="black"/>
<path d="M1128.22 77.6578C1128.33 77.93 1128.5 78.1968 1128.56 78.4851C1128.6 78.6881 1128.04 78.951 1127.8 78.8546C1127.41 78.7074 1127.29 78.1092 1127.61 77.8159C1127.74 77.7048 1127.97 77.7148 1128.22 77.6578Z" fill="black"/>
<path d="M1123.58 79.196C1123.33 79.4387 1122.88 79.3961 1122.82 79.097C1122.78 78.9156 1122.82 78.6717 1122.93 78.5195C1123.09 78.2638 1123.58 78.3453 1123.67 78.6315C1123.72 78.801 1123.62 79.0071 1123.58 79.196Z" fill="black"/>
<path d="M1154.64 86.2719C1154.58 86.3431 1154.52 86.4683 1154.46 86.4855C1154.08 86.5445 1153.82 86.3747 1153.7 86.027C1153.66 85.932 1153.69 85.7981 1153.71 85.688C1153.92 85.699 1154.18 85.6518 1154.34 85.7556C1154.5 85.8496 1154.55 86.1056 1154.64 86.2827L1154.64 86.2719Z" fill="black"/>
<path d="M1140.24 87.7734C1140.26 87.8803 1140.34 88.0034 1140.3 88.0941C1140.22 88.3531 1139.6 88.3816 1139.42 88.1159C1139.37 88.0446 1139.39 87.8902 1139.43 87.7877C1139.58 87.424 1139.93 87.4222 1140.24 87.7626L1140.24 87.7734Z" fill="black"/>
<path d="M1135.26 94.2082C1134.97 94.237 1134.73 94.348 1134.64 94.2702C1134.51 94.174 1134.41 93.8781 1134.46 93.7529C1134.54 93.5932 1134.79 93.5136 1134.96 93.3982C1135.07 93.6606 1135.16 93.9242 1135.26 94.2082Z" fill="black"/>
<path d="M1138.71 78.0253C1138.62 77.9906 1138.49 77.9927 1138.45 77.9203C1138.28 77.6427 1138.36 77.5035 1138.65 77.5729C1138.73 77.587 1138.83 77.708 1138.85 77.7933C1138.85 77.8581 1138.75 77.9444 1138.71 78.0253Z" fill="black"/>
<path d="M1134.1 88.1851C1134.19 88.2197 1134.31 88.2188 1134.36 88.2901C1134.55 88.5224 1134.48 88.6594 1134.21 88.5998C1134.13 88.5857 1134.05 88.4733 1134.02 88.3891C1134 88.3361 1134.07 88.2531 1134.1 88.1959L1134.1 88.1851Z" fill="black"/>
<path d="M1139.16 82.5926C1139.09 82.6325 1138.98 82.7198 1138.95 82.6896C1138.87 82.6323 1138.76 82.4799 1138.79 82.4443C1138.93 82.2339 1139.06 82.2859 1139.16 82.5818L1139.16 82.5926Z" fill="black"/>
<path d="M1136.63 109.151C1136.52 109.14 1136.37 109.176 1136.31 109.117C1136.09 108.911 1136.12 108.711 1136.4 108.585C1136.5 108.543 1136.68 108.514 1136.72 108.565C1136.89 108.766 1136.84 108.977 1136.63 109.151Z" fill="black"/>
<path d="M1129.08 94.1559L1129.15 93.9303L1129.3 94.0794L1129.08 94.1559Z" fill="black"/>
<path d="M1165.07 85.0211L1164.98 85.2261L1164.85 85.0749L1165.07 85.0211Z" fill="black"/>
<path d="M1155.12 91.5556C1155.12 91.4681 1155.09 91.3396 1155.14 91.3019C1155.2 91.2642 1155.31 91.2967 1155.41 91.2978C1155.4 91.3853 1155.43 91.5138 1155.38 91.5515C1155.33 91.5892 1155.21 91.5568 1155.12 91.5556Z" fill="black"/>
<path d="M1128.43 83.8291L1128.51 83.6251L1128.65 83.7861L1128.43 83.8291Z" fill="black"/>
<path d="M1114.84 96.4595C1108.03 97.133 1101.56 93.6849 1098.04 91.3301C1096.65 90.3993 1095.69 88.9247 1095.4 87.2737C1095.12 85.6228 1095.54 83.9023 1096.55 82.5592C1099.7 78.3876 1103.61 73.1922 1109.64 72.356C1113.11 71.9578 1116.45 72.3357 1119.68 73.3461C1119.71 73.3429 1130.83 76.7555 1131.9 78.9287L1132.33 79.8014L1131.97 80.7749C1128.64 88.944 1123.95 93.9983 1118.04 95.8041C1116.97 96.128 1115.89 96.3439 1114.82 96.4498L1114.84 96.4595ZM1110.26 76.6663L1110.16 76.6759C1106 77.2516 1102.82 81.4696 1100.01 85.1817C1099.72 85.5819 1099.6 86.0622 1099.68 86.5557C1099.76 87.0383 1100.03 87.4586 1100.44 87.7343C1103.87 90.022 1110.56 93.5793 1116.77 91.6778C1120.99 90.3875 1124.5 86.7365 1127.23 80.8296C1124.66 79.6892 1119.33 77.7742 1118.46 77.5229C1115.74 76.6792 1113 76.3948 1110.25 76.6674L1110.26 76.6663Z" fill="black"/>
</g>
<g clip-path="url(#clip5_455_771)">
<path d="M814.287 346.296C829.644 346.296 842.094 333.868 842.094 318.538C842.094 303.207 829.644 290.78 814.287 290.78C798.93 290.78 786.48 303.207 786.48 318.538C786.48 333.868 798.93 346.296 814.287 346.296Z" fill="#E7BB43"/>
<path d="M798.407 306.321C792.08 308.444 795.568 318.861 801.894 316.105C808.479 314.112 804.085 303.656 798.407 306.321Z" fill="black"/>
<path d="M832.177 313.206C831.814 313.193 831.464 313.245 831.127 313.361C830.79 313.478 830.479 313.672 830.219 313.918C829.96 314.164 829.74 314.448 829.597 314.772C829.441 315.095 829.364 315.445 829.351 315.807C828.754 325.836 814.857 332.436 806.768 325.021C803.916 322.679 800.442 327.143 803.19 329.11C822.454 345.183 842.613 316.519 832.19 313.206H832.177Z" fill="black"/>
<path d="M802.309 282.291C784.847 288.14 773.711 310.489 781.554 327.04C793.286 357.011 836.481 355.561 848.472 327.169C860.191 300.498 828.728 271.576 802.309 282.291ZM824.71 341.986C788.852 354.811 766.607 301.016 804.111 287.506C840.253 274.475 863.484 328.114 824.71 341.986Z" fill="black"/>
<path d="M821.054 305.675C827.38 307.887 830.582 298.35 824.489 295.607C818.358 293.653 814.507 303.19 821.054 305.675Z" fill="black"/>
</g>
<g clip-path="url(#clip6_455_771)">
<path d="M1103.98 225.84C1103.18 223.203 1099.04 224.318 1099.84 226.972C1101.17 231.342 1102.4 235.712 1103.55 240.1C1103.32 241.055 1103.55 241.338 1104.6 243.603C1105.64 245.868 1109.13 244.24 1108.51 241.94C1107.09 236.544 1105.57 231.165 1103.96 225.822L1103.98 225.84Z" fill="#64A03D"/>
<path d="M1113.69 203.264C1113.34 200.575 1109.04 200.522 1109.41 203.264C1115.26 248.504 1113.07 239.923 1113.85 241.374C1114.63 242.825 1119.17 245.089 1118.75 241.781C1117.07 228.954 1115.39 216.109 1113.71 203.264H1113.69Z" fill="#64A03D"/>
<path d="M1122.75 201.07C1123.72 214.464 1124.52 227.857 1125.19 241.25C1125.31 243.992 1129.63 244.01 1129.47 241.25C1128.81 227.857 1128 214.464 1127.03 201.07C1126.83 198.328 1122.55 198.31 1122.75 201.07Z" fill="#64A03D"/>
<path d="M1149.26 207.864C1148.79 207.015 1147.78 206.626 1146.84 206.891C1144.33 207.846 1145.23 207.086 1133.75 240.065C1132.83 242.683 1136.99 243.78 1137.89 241.197C1150.5 204.732 1149.95 208.926 1149.24 207.864H1149.26Z" fill="#64A03D"/>
<path d="M1156.64 215.737C1156.96 214.587 1156.29 213.419 1155.14 213.101C1153.99 212.783 1152.82 213.455 1152.5 214.605C1152.32 215.012 1146.47 229.113 1141.6 240.772C1140.54 243.32 1144.68 244.435 1145.74 241.905C1157.91 212.641 1156.5 216.356 1156.64 215.737Z" fill="#64A03D"/>
<path d="M1161.13 226.176C1158.34 231.607 1155.54 237.021 1152.73 242.435C1151.47 244.895 1155.17 247.071 1156.43 244.611C1159.24 239.197 1162.02 233.766 1164.83 228.352C1166.12 225.875 1162.41 223.699 1161.13 226.176Z" fill="#64A03D"/>
<path d="M1170.79 235.624C1170.14 238.649 1168.49 241.391 1166.14 243.408C1164.07 245.231 1167.09 248.256 1169.18 246.452C1172.08 243.921 1174.1 240.525 1174.95 236.774C1175.53 234.084 1171.39 232.917 1170.79 235.624Z" fill="#64A03D"/>
<path d="M1087 227.007C1086.4 225.981 1085.09 225.645 1084.06 226.246C1083.04 226.848 1082.7 228.157 1083.3 229.183C1086.04 233.943 1088.48 238.861 1090.61 243.921C1091.65 246.451 1095.81 245.337 1094.75 242.789C1092.5 237.357 1089.92 232.085 1087 227.007Z" fill="#64A03D"/>
</g>
<path d="M1065.51 122.267C1060.22 121.911 1065.05 105.514 1059.38 109.817C1056.29 112.244 1054.49 119.388 1050.07 119.1C1043.5 118.567 1028.95 114.775 1042.99 125C1047.01 127.886 1045.4 129.418 1044.24 130.859C1039.56 137.069 1038.96 138.927 1039.03 139.851C1040.2 143.871 1052.55 131.486 1055.83 135.273C1063.33 143.388 1063.69 144.407 1065.39 144.051C1067.08 143.685 1065.68 138.905 1064.84 134.553C1063.83 128.094 1084.38 123.813 1065.5 122.264L1065.51 122.267Z" fill="black"/>
<path d="M1097.29 160.735C1093.5 160.48 1096.96 148.747 1092.91 151.826C1090.69 153.563 1089.41 158.675 1086.24 158.468C1081.54 158.087 1071.13 155.374 1081.18 162.69C1084.06 164.755 1082.9 165.851 1082.07 166.883C1078.72 171.326 1078.29 172.656 1078.34 173.317C1079.18 176.193 1088.01 167.332 1090.36 170.041C1095.73 175.848 1095.99 176.577 1097.2 176.322C1098.41 176.06 1097.41 172.64 1096.81 169.526C1096.09 164.904 1110.79 161.841 1097.28 160.732L1097.29 160.735Z" fill="#E7BB43"/>
<g clip-path="url(#clip7_455_771)">
<path d="M888.377 436.665C958.862 436.198 949.282 370.95 903.058 392.949C883.899 352.232 835.358 388.676 888.377 436.665Z" fill="#3D9CFB"/>
<path d="M882.994 437.931C883.733 438.71 884.795 439.099 885.865 438.992C961.364 437.259 954.5 364.75 902.075 385.795C875.147 341.583 826.869 387.508 883.003 437.921L882.994 437.931ZM870.055 374.688C881.971 367.573 895.163 382.758 898.142 389.611C898.833 391.129 900.517 391.996 901.588 391.149C945.777 370.201 956.788 428.839 887.793 434.456C886.8 434.592 885.807 434.222 885.145 433.473C876.471 425.734 846.515 388.793 870.065 374.698L870.055 374.688Z" fill="#001434"/>
<path d="M914.39 471.718C914.205 471.922 913.942 472.02 913.67 472C894.559 471.952 895.932 455.131 908.481 458.937C914.828 446.117 928.361 458.655 914.4 471.718H914.39Z" fill="#F39745"/>
<path d="M926.637 366.151C926.394 366.278 926.112 366.288 925.859 366.181C907.868 359.746 914.78 344.357 925.333 352.134C935.604 342.176 944.161 358.51 926.637 366.161V366.151Z" fill="#DB433B"/>
<path d="M887.482 413.975C887.365 414.16 887.267 414.511 887.053 414.618C886.839 414.725 886.459 414.666 886.226 414.54C885.739 414.267 885.583 413.79 885.7 413.245C885.778 412.846 886.255 412.574 886.615 412.72C887.131 412.934 887.384 413.343 887.482 413.975Z" fill="black"/>
<path d="M928.098 403.297C928.633 403.248 928.955 403.443 929.149 403.861C929.295 404.173 929.179 404.445 928.945 404.66C928.604 404.981 928.224 405 927.874 404.747C927.465 404.455 927.27 404.017 927.494 403.754C927.67 403.55 927.942 403.414 928.098 403.307V403.297Z" fill="black"/>
<path d="M915.763 405C915.296 405.078 914.809 404.659 914.77 404.153C914.741 403.783 915.101 403.374 915.471 403.355C915.987 403.326 916.483 403.735 916.483 404.182C916.483 404.523 916.104 404.961 915.753 405H915.763Z" fill="black"/>
<path d="M923.201 404.26C923.094 404.416 922.958 404.689 922.753 404.893C922.49 405.156 921.857 404.991 921.75 404.63C921.673 404.358 921.653 404.046 921.711 403.764C921.799 403.336 922.247 403.102 922.617 403.229C923.016 403.365 923.279 403.764 923.201 404.26Z" fill="black"/>
<path d="M923.337 417.489C923.23 417.654 923.162 417.888 923.016 417.976C922.636 418.18 922.227 418.141 921.838 417.947C921.458 417.752 921.225 417.207 921.4 416.944C921.692 416.516 922.023 416.35 922.422 416.438C922.996 416.564 923.366 416.993 923.337 417.489Z" fill="black"/>
<path d="M893.128 426.659C893.868 426.707 894.413 427.554 894.034 428.138C893.907 428.343 893.547 428.518 893.303 428.498C892.573 428.44 892.203 427.554 892.632 426.931C892.729 426.795 892.963 426.746 893.128 426.668V426.659Z" fill="black"/>
<path d="M918.684 421.587C918.343 421.607 917.915 421.159 917.915 420.799C917.915 420.185 918.323 419.601 918.947 419.494C919.18 419.455 919.589 419.631 919.686 419.825C920.076 420.594 919.501 421.548 918.684 421.587Z" fill="black"/>
<path d="M916.542 417.158C916.61 417.567 916.396 417.908 915.948 418.025C915.656 418.112 915.364 418.073 915.15 417.82C914.848 417.45 915.091 416.915 915.646 416.691C916.045 416.535 916.474 416.749 916.542 417.158Z" fill="black"/>
<path d="M919.979 388.268C919.901 388.764 919.336 389.134 918.82 389.037C918.46 388.968 918.119 388.482 918.177 388.122C918.255 387.615 918.81 387.245 919.326 387.353C919.686 387.43 920.027 387.917 919.979 388.268Z" fill="black"/>
<path d="M912.297 415.007C911.83 415.065 911.314 414.618 911.314 414.141C911.314 413.664 911.772 413.167 912.229 413.177C912.687 413.177 913.242 413.654 913.261 414.063C913.281 414.452 912.774 414.958 912.297 415.017V415.007Z" fill="black"/>
<path d="M890.558 417.304C890.587 417.781 890.334 418.131 889.954 418.141C889.497 418.151 889.176 417.878 889.176 417.469C889.176 417.022 889.458 416.642 889.808 416.613C890.227 416.574 890.538 416.866 890.568 417.304H890.558Z" fill="black"/>
<path d="M910.282 418.073C910.107 418.141 909.834 418.346 909.62 418.307C909.114 418.2 908.676 417.655 908.753 417.226C908.802 416.983 909.065 416.74 909.289 416.574C909.406 416.496 909.688 416.545 909.824 416.642C910.272 416.954 910.457 417.402 910.282 418.073Z" fill="black"/>
<path d="M908.88 411.94C908.744 411.804 908.462 411.648 908.384 411.424C908.228 410.928 908.559 410.354 908.978 410.266C909.357 410.179 909.717 410.48 909.756 410.918C909.815 411.473 909.484 411.911 908.88 411.95V411.94Z" fill="black"/>
<path d="M902.649 429.374C903.311 429.472 903.642 430.134 903.282 430.649C903.107 430.903 902.669 430.961 902.523 430.727C902.377 430.484 902.25 430.221 902.163 429.949C902.065 429.657 902.367 429.335 902.649 429.374Z" fill="black"/>
<path d="M906.359 413.099C906.651 413.284 906.962 413.381 907.089 413.596C907.245 413.858 906.758 414.306 906.33 414.345C906.037 414.374 905.677 414.034 905.794 413.771C905.891 413.537 906.145 413.352 906.368 413.099H906.359Z" fill="black"/>
<path d="M915.929 410.948C915.646 410.928 915.422 410.675 915.413 410.364C915.393 409.867 915.929 409.303 916.299 409.488C916.493 409.585 916.659 409.945 916.668 410.188C916.688 410.607 916.279 410.977 915.929 410.938V410.948Z" fill="black"/>
<path d="M902.523 424.352C902.416 424.215 902.143 424.03 902.114 423.806C902.046 423.339 902.63 422.94 903.146 423.067C903.302 423.106 903.506 423.291 903.545 423.437C903.652 423.884 903.156 424.381 902.532 424.352H902.523Z" fill="black"/>
<path d="M931.992 406.752C932.352 406.733 932.732 407.122 932.751 407.541C932.771 407.949 932.411 408.31 932.002 408.3C931.583 408.28 931.194 407.92 931.213 407.55C931.233 407.18 931.632 406.781 931.992 406.752Z" fill="black"/>
<path d="M918.469 407.882C918.353 407.726 918.1 407.521 918.041 407.278C917.963 406.918 918.401 406.47 918.732 406.47C919.063 406.47 919.453 406.918 919.433 407.288C919.414 407.648 918.956 407.979 918.46 407.882H918.469Z" fill="black"/>
<path d="M919.647 394.37C919.628 394.74 919.024 395.227 918.8 395.023C918.596 394.838 918.401 394.507 918.421 394.254C918.431 394.03 918.693 393.738 918.927 393.611C919.229 393.446 919.677 393.942 919.657 394.37H919.647Z" fill="black"/>
<path d="M893.693 420.662C893.703 421.237 893.547 421.587 893.109 421.723C892.963 421.772 892.719 421.704 892.602 421.597C892.252 421.285 892.33 420.867 892.466 420.477C892.544 420.244 893.021 419.991 893.206 420.117C893.43 420.273 893.576 420.526 893.693 420.653V420.662Z" fill="black"/>
<path d="M902.542 411.454C902.377 411.356 902.133 411.298 902.056 411.152C901.987 411.026 902.075 410.782 902.163 410.626C902.328 410.334 902.63 410.237 902.932 410.295C903.107 410.334 903.292 410.471 903.389 410.617C903.555 410.86 903.389 411.249 903.117 411.347C902.932 411.405 902.727 411.415 902.533 411.444L902.542 411.454Z" fill="black"/>
<path d="M925.012 412.982C925.294 412.905 925.79 413.265 925.878 413.625C925.985 414.043 925.79 414.472 925.44 414.559C925.07 414.657 924.661 414.365 924.593 413.966C924.525 413.557 924.749 413.041 925.002 412.982H925.012Z" fill="black"/>
<path d="M912.394 419.903C912.511 420.04 912.764 420.224 912.862 420.458C912.969 420.711 912.599 421.062 912.317 421.042C912.005 421.023 911.742 420.779 911.694 420.468C911.655 420.166 911.937 419.874 912.385 419.894L912.394 419.903Z" fill="black"/>
<path d="M900.323 394.692C900.245 394.838 900.196 395.071 900.079 395.11C899.797 395.208 899.544 395.081 899.398 394.818C899.271 394.585 899.476 394.225 899.748 394.205C900.089 394.176 900.245 394.41 900.332 394.702L900.323 394.692Z" fill="black"/>
<path d="M915.724 431.088C915.637 430.844 915.51 430.621 915.49 430.387C915.49 430.319 915.773 430.134 915.899 430.153C916.211 430.202 916.445 430.591 916.308 430.776C916.211 430.913 915.987 430.951 915.724 431.088Z" fill="black"/>
<path d="M906.602 401.116C906.339 401.175 906.076 401.292 905.843 401.272C905.599 401.243 905.531 401 905.648 400.776C905.804 400.454 906.115 400.308 906.349 400.493C906.475 400.591 906.495 400.834 906.612 401.126L906.602 401.116Z" fill="black"/>
<path d="M900.254 407.19C899.992 407.414 899.816 407.638 899.592 407.726C899.398 407.813 899.047 407.404 899.086 407.181C899.145 406.889 899.31 406.567 899.602 406.606C899.807 406.635 899.982 406.937 900.254 407.19Z" fill="black"/>
<path d="M925.323 407.22C925.44 407.346 925.635 407.473 925.654 407.609C925.693 407.921 925.333 408.144 925.031 408.028C924.943 407.998 924.856 407.891 924.827 407.804C924.729 407.492 924.992 407.181 925.323 407.21V407.22Z" fill="black"/>
<path d="M929.208 410.529C929.178 410.967 928.799 411.269 928.594 411.104C928.38 410.928 928.254 410.646 928.078 410.412C928.254 410.325 928.448 410.13 928.604 410.169C928.838 410.218 929.042 410.422 929.208 410.529Z" fill="black"/>
<path d="M913.047 407.541C912.959 407.872 912.609 408.057 912.434 407.852C912.326 407.716 912.258 407.492 912.288 407.327C912.326 407.093 912.541 407.044 912.774 407.122C913.008 407.2 913.096 407.336 913.037 407.551L913.047 407.541Z" fill="black"/>
<path d="M899.563 413.411C899.855 413.673 900.089 413.819 900.245 414.024C900.371 414.199 900.264 414.384 900.03 414.481C899.709 414.608 899.31 414.511 899.31 414.277C899.31 414.034 899.446 413.781 899.563 413.411Z" fill="black"/>
<path d="M931.973 414.277C931.895 414.218 931.768 414.17 931.749 414.092C931.681 413.848 932.08 413.469 932.323 413.537C932.401 413.556 932.479 413.683 932.489 413.77C932.557 414.15 932.362 414.345 931.963 414.277H931.973Z" fill="black"/>
<path d="M913.018 400.367C913.261 400.367 913.397 400.503 913.29 400.678C913.212 400.805 912.998 400.853 912.833 400.902C912.794 400.912 912.658 400.727 912.667 400.717C912.774 400.591 912.891 400.484 913.018 400.367Z" fill="black"/>
<path d="M896.107 430.182L896.282 430.27L896.088 430.318L896.107 430.182Z" fill="black"/>
<path d="M905.687 426.863C905.765 426.863 905.872 426.834 905.901 426.863C906.067 427.058 906.028 427.214 905.784 427.282C905.736 427.291 905.619 427.184 905.599 427.106C905.58 427.029 905.658 426.941 905.687 426.863Z" fill="black"/>
<path d="M922.675 397.972C922.587 398.031 922.49 398.157 922.432 398.138C922.188 398.06 922.12 397.865 922.247 397.641C922.295 397.554 922.393 397.505 922.471 397.437C922.539 397.612 922.607 397.797 922.685 397.972H922.675Z" fill="black"/>
<path d="M915.666 397.262C915.734 397.32 915.88 397.408 915.87 397.427C915.792 397.573 915.695 397.709 915.607 397.846C915.549 397.69 915.481 397.534 915.442 397.379C915.442 397.359 915.597 397.301 915.675 397.262H915.666Z" fill="black"/>
<path d="M925.576 387.839C925.625 387.917 925.742 388.014 925.722 388.072C925.684 388.218 925.586 388.442 925.499 388.452C925.353 388.462 925.187 388.345 925.031 388.257C925.012 388.257 925.041 388.082 925.09 388.063C925.245 387.975 925.411 387.917 925.576 387.849V387.839Z" fill="black"/>
<path d="M902.64 391.499C902.591 391.411 902.494 391.304 902.503 391.236C902.572 390.983 902.756 390.915 902.98 391.051C903.058 391.1 903.097 391.207 903.156 391.285C902.98 391.353 902.805 391.421 902.64 391.489V391.499Z" fill="black"/>
<path d="M886.537 433.181C886.596 433.249 886.654 433.317 886.713 433.385C886.644 433.443 886.567 433.551 886.508 433.541C886.44 433.541 886.391 433.414 886.333 433.346C886.401 433.288 886.469 433.229 886.547 433.181H886.537Z" fill="black"/>
<path d="M899.7 420.292C899.631 420.38 899.563 420.468 899.505 420.555C899.446 420.497 899.339 420.429 899.339 420.37C899.339 420.312 899.437 420.234 899.515 420.195C899.554 420.175 899.631 420.253 899.7 420.292Z" fill="black"/>
<path d="M919.024 427.136C918.956 427.194 918.878 427.301 918.81 427.301C918.742 427.301 918.684 427.175 918.625 427.106C918.693 427.048 918.771 426.941 918.839 426.941C918.908 426.941 918.966 427.067 919.024 427.136Z" fill="black"/>
<path d="M919.278 414.073L919.453 414.024L919.424 414.189L919.278 414.073Z" fill="black"/>
</g>
</g>
<defs>
<clipPath id="clip0_455_771">
<rect width="1200" height="675" fill="white"/>
</clipPath>
<clipPath id="clip1_455_771">
<rect width="130.564" height="173.277" fill="white" transform="translate(607 574.198) rotate(-34.099)"/>
</clipPath>
<clipPath id="clip2_455_771">
<rect width="111.921" height="100.154" fill="white" transform="translate(580 596.026)"/>
</clipPath>
<clipPath id="clip3_455_771">
<rect width="263.867" height="95.1252" fill="white" transform="translate(842 511)"/>
</clipPath>
<clipPath id="clip4_455_771">
<rect width="80.396" height="80.396" fill="white" transform="translate(1091 42.9214) rotate(-5.65445)"/>
</clipPath>
<clipPath id="clip5_455_771">
<rect width="72" height="69" fill="white" transform="translate(779 280)"/>
</clipPath>
<clipPath id="clip6_455_771">
<rect width="92" height="48" fill="white" transform="translate(1083 199)"/>
</clipPath>
<clipPath id="clip7_455_771">
<rect width="85" height="123" fill="white" transform="translate(857 349)"/>
</clipPath>
</defs>
</svg>
