<svg width="1200" height="675" viewBox="0 0 1200 675" fill="none" xmlns="http://www.w3.org/2000/svg">
<g clip-path="url(#clip0_445_197)">
<path opacity="0.5" d="M-967 66H756" stroke="#5FBFFA" stroke-width="2"/>
<path opacity="0.5" d="M-967 127H756" stroke="#5FBFFA" stroke-width="2"/>
<path opacity="0.5" d="M-967 188H756" stroke="#5FBFFA" stroke-width="2"/>
<path opacity="0.5" d="M-967 247H756" stroke="#5FBFFA" stroke-width="2"/>
<path opacity="0.5" d="M-967 309H756" stroke="#5FBFFA" stroke-width="2"/>
<path opacity="0.5" d="M-967 369H756" stroke="#5FBFFA" stroke-width="2"/>
<path opacity="0.5" d="M-967 430H756" stroke="#5FBFFA" stroke-width="2"/>
<path opacity="0.5" d="M-967 490H756" stroke="#5FBFFA" stroke-width="2"/>
<path opacity="0.5" d="M-967 550H756" stroke="#5FBFFA" stroke-width="2"/>
<path opacity="0.5" d="M-967 610H756" stroke="#5FBFFA" stroke-width="2"/>
<rect x="752" y="-40" width="8" height="762" fill="black"/>
<g clip-path="url(#clip1_445_197)">
<path d="M633.817 696.102C633.817 696.102 633.929 696.144 633.979 696.159L634.079 696.163L633.817 696.102ZM657.891 647.115C657.359 646.866 657.029 646.915 656.933 647.087C656.933 647.087 656.945 647.1 656.958 647.101C656.983 647.102 657.032 647.129 657.057 647.143C657.057 647.143 657.057 647.156 657.069 647.156C661.33 649.293 663.116 654.44 661.065 658.754C658.987 663.118 653.762 664.977 649.398 662.899C648.186 662.317 647.125 661.465 646.287 660.407C649.847 657.973 656.323 652.813 656.914 647.238C656.929 647.188 656.931 647.138 656.933 647.087C656.719 647.078 656.467 647.383 656.34 647.983C655.327 651.623 652.468 654.49 649.551 656.939C648.805 657.563 648.036 658.148 647.255 658.708L645.59 659.911C645.457 660.057 645.061 660.178 645.167 660.347L645.598 660.895C645.849 661.221 646.282 661.706 646.477 661.878C648.014 663.407 650.079 664.366 652.24 664.571C656.595 665.085 661.01 662.12 662.196 657.97C663.558 653.84 661.579 649.064 657.891 647.115ZM622.129 645.692C621.612 645.405 621.27 645.441 621.173 645.626C621.186 645.626 621.198 645.639 621.211 645.64C621.223 645.641 621.223 645.641 621.235 645.654C621.247 645.667 621.272 645.68 621.284 645.694L621.297 645.694C625.473 648.029 627.003 653.278 624.728 657.508C623.673 659.481 621.894 660.969 619.77 661.673C616.242 662.772 612.395 661.586 610.097 658.675C613.372 656.431 620.11 651.332 621.143 645.751C621.144 645.713 621.146 645.675 621.173 645.638C620.973 645.592 620.696 645.87 620.52 646.456C619.258 650.009 616.391 652.776 613.463 655.186C612.706 655.784 611.949 656.37 611.156 656.929L609.556 658.059L608.971 658.463C608.804 658.532 608.977 658.627 609.036 658.718L609.265 658.98C609.577 659.347 609.851 659.724 610.19 660.054C611.689 661.581 613.714 662.601 615.847 662.868C620.145 663.544 624.641 660.733 625.951 656.652C627.447 652.616 625.685 647.798 622.129 645.692Z" fill="black"/>
<path d="M657.891 647.116C657.359 646.866 657.029 646.915 656.933 647.087C656.719 647.078 656.467 647.383 656.34 647.983C655.327 651.623 652.468 654.49 649.551 656.939C648.805 657.563 648.036 658.148 647.255 658.708L645.59 659.911C645.457 660.057 645.061 660.179 645.167 660.347L645.598 660.895C645.849 661.221 646.282 661.706 646.477 661.879C648.014 663.407 650.079 664.366 652.24 664.571C656.595 665.085 661.01 662.12 662.196 657.97C663.558 653.84 661.579 649.064 657.891 647.116ZM657.216 648.159C657.235 647.996 657.242 647.845 657.234 647.718C657.295 647.771 657.369 647.812 657.443 647.866C660.623 649.893 662.008 654.09 660.741 657.479C659.61 660.925 655.955 663.241 652.403 662.825C650.644 662.662 648.936 661.895 647.664 660.668C647.494 660.497 647.566 660.601 647.543 660.549C647.582 660.513 647.491 660.572 647.634 660.477L648.234 660.024C649.029 659.414 649.8 658.779 650.548 658.104C653.474 655.454 656.371 652.285 657.216 648.159Z" fill="black"/>
<path d="M648.9 667.153C648.9 667.153 648.887 667.165 648.886 667.178C648.872 667.215 648.796 667.237 648.695 667.245C648.761 667.173 648.825 667.138 648.875 667.14L648.9 667.141L648.9 667.153Z" fill="black"/>
<path d="M622.129 645.692C621.612 645.405 621.27 645.44 621.173 645.626C620.973 645.592 620.696 645.87 620.52 646.455C619.258 650.009 616.391 652.775 613.463 655.186C612.706 655.784 611.949 656.37 611.156 656.929L609.556 658.059L608.971 658.463C608.804 658.532 608.977 658.627 609.036 658.718L609.265 658.98C609.577 659.347 609.851 659.724 610.19 660.054C611.689 661.581 613.714 662.601 615.847 662.868C620.145 663.543 624.641 660.733 625.951 656.652C627.447 652.616 625.685 647.798 622.129 645.692ZM621.38 646.707C621.412 646.531 621.432 646.368 621.437 646.242C621.497 646.308 621.571 646.362 621.644 646.415C624.705 648.576 625.9 652.802 624.51 656.111C623.256 659.501 619.593 661.678 616.073 661.125C614.316 660.911 612.648 660.096 611.401 658.857C610.639 659.291 613.108 657.58 614.447 656.363C617.383 653.751 620.276 650.696 621.38 646.707Z" fill="black"/>
<path d="M617.939 666.161C617.939 666.161 617.91 666.248 617.846 666.283C617.861 666.208 617.901 666.172 617.939 666.161Z" fill="black"/>
<path d="M617.939 666.161C617.939 666.161 617.91 666.248 617.846 666.283C617.861 666.208 617.901 666.172 617.939 666.161Z" fill="black"/>
<path d="M702.905 697.193C702.598 696.398 702.125 695.659 701.586 694.993C700.52 693.661 699.178 692.594 697.848 691.541C695.493 689.687 692.724 688.359 689.798 687.754C686.999 687.143 684.048 687.131 681.234 687.755C679.833 688.061 678.464 688.533 677.151 689.133C677.139 689.132 677.126 689.144 677.101 689.143C672.158 684.946 666.388 682.14 660.484 680.072C657.587 679.091 654.644 678.297 651.681 677.678C651.959 675.887 652.287 674.122 652.69 672.361C652.909 671.374 653.152 670.4 653.42 669.428L653.615 668.704C653.615 668.704 653.629 668.667 653.642 668.668C653.793 668.674 654.387 668.662 654.755 668.602C659.075 668.155 663.074 665.488 665.203 661.693C667.32 657.899 667.575 653.091 665.687 649.151C663.901 645.19 660.105 642.228 655.838 641.428C651.597 640.591 646.989 641.883 643.872 644.878C640.707 647.796 639.104 652.281 639.68 656.506C640.206 660.741 642.866 664.614 646.591 666.601C647.627 667.15 648.366 667.282 648.695 667.246C648.761 667.173 648.826 667.138 648.876 667.14L648.901 667.141L648.9 667.166C648.9 667.166 648.888 667.166 648.887 667.178C648.873 667.216 648.796 667.238 648.695 667.246C648.497 667.465 648.234 668.008 647.968 668.918C647.266 671.474 646.701 674.086 646.273 676.716C644.067 676.395 641.857 676.15 639.645 675.98C635.508 675.677 631.36 675.626 627.214 675.841L624.931 670.219L623.663 667.112L623.068 665.674C623.068 665.674 623.097 665.6 623.264 665.531C625.379 664.448 627.202 662.811 628.522 660.823C631.238 656.89 631.607 651.482 629.469 647.191C627.37 642.876 622.922 639.81 618.129 639.518C613.354 639.1 608.511 641.454 605.846 645.389C603.094 649.283 602.69 654.614 604.716 658.863C606.691 663.122 611.001 666.181 615.64 666.531C616.872 666.634 617.6 666.437 617.846 666.271C617.862 666.196 617.901 666.16 617.94 666.149C617.94 666.149 617.911 666.236 617.846 666.271C617.773 666.521 617.886 667.106 618.238 668.029L620.708 674.289L621.517 676.329C620.503 676.438 619.488 676.571 618.473 676.717C611.49 677.781 604.466 679.513 597.999 682.983C594.949 684.695 591.916 686.621 589.415 689.366C588.981 689.183 588.534 689.013 588.085 688.905C586.587 688.539 585.042 688.372 583.522 688.521C580.485 688.77 577.609 689.947 575.177 691.672C574.722 691.993 574.278 692.34 573.859 692.688C571.622 694.573 569.843 696.957 568.608 699.604C567.997 700.915 567.522 702.282 567.197 703.693C566.91 705.106 566.761 706.538 566.8 707.978C566.819 709.013 566.925 710.077 567.975 710.588C569.038 711.113 570.461 710.871 571.184 709.892C571.779 709.237 571.771 708.24 571.857 707.701C571.923 707.048 572.013 706.409 572.191 705.786C572.791 703.251 573.965 700.866 575.614 698.881C577.273 696.933 579.433 695.398 581.834 694.693C583.044 694.429 584.288 694.243 585.488 694.483C585.602 694.488 585.702 694.505 585.802 694.522C584.974 696.189 584.392 698.019 584.183 699.952C584.161 700.166 584.14 700.379 584.13 700.593C580.074 701.947 576.851 705.354 574.84 709.039C572.443 713.491 571.212 718.698 572.291 723.865C572.694 725.648 574.86 726.623 576.447 725.795C577.232 725.413 577.831 724.681 578.032 723.82C578.138 723.395 578.144 722.967 578.062 722.522L577.922 721.671C577.564 719.398 577.843 717.013 578.581 714.787C579.32 712.548 580.445 710.413 581.936 708.585C582.704 707.71 583.523 706.849 584.484 706.196C584.562 706.149 584.64 706.089 584.717 706.055C585.243 707.919 586.064 709.682 587.07 711.226C589.014 714.147 591.408 716.582 594.051 718.498C594.443 716.699 595.072 714.96 595.886 713.317C593.767 711.549 591.949 709.516 590.697 707.23C589.43 704.982 589.021 702.442 589.402 700.011C589.796 697.593 591.067 695.276 592.805 693.269C596.018 689.798 600.44 687.262 605.11 685.431C609.804 683.6 614.785 682.45 619.835 681.745C626.713 680.789 633.777 680.762 640.725 681.412C645.119 681.902 649.548 682.444 653.841 683.522C659.13 684.908 664.321 686.82 668.922 689.564C671.196 690.96 673.441 692.443 675.267 694.287C676.454 695.422 677.562 696.668 678.448 698.068C679.417 699.597 680.422 701.179 680.94 702.929C681.69 705.459 680.597 707.733 679.235 709.794C680.593 711.075 681.78 712.513 682.759 714.107C684.028 711.562 684.44 708.111 684.217 705.365C684.636 705.584 685.016 705.853 685.408 706.122C687.121 707.355 688.555 708.943 689.561 710.777C690.581 712.599 691.2 714.643 691.327 716.704C691.38 717.224 691.37 717.753 691.348 718.269C691.285 718.872 691.472 719.801 691.964 720.39C692.894 721.665 694.913 721.928 696.142 720.908C696.756 720.43 697.165 719.703 697.261 718.925C697.303 718.233 697.274 717.74 697.275 717.135C697.223 715.985 697.082 714.843 696.853 713.711C696.369 711.458 695.477 709.301 694.222 707.38C692.047 703.958 688.755 701.282 685.033 699.837C684.902 699.352 684.733 698.878 684.499 698.452C683.794 696.643 682.736 695.122 681.572 693.723L681.623 693.725C682.875 693.337 684.171 693.128 685.483 693.12C688.084 693.055 690.716 693.747 692.995 695.017C694.29 695.728 695.461 696.649 696.488 697.714C697.659 698.937 698.186 699.893 698.775 701.457C699.227 702.687 699.947 703.563 701.36 703.56C702.192 703.558 703.052 703.216 703.598 702.533C704.889 700.961 703.482 698.757 702.906 697.181L702.905 697.193ZM615.847 662.869C613.714 662.601 611.689 661.582 610.19 660.055C609.851 659.725 609.577 659.347 609.265 658.981L609.036 658.719C608.977 658.628 608.804 658.532 608.971 658.464L609.556 658.06L611.156 656.93C611.949 656.371 612.706 655.785 613.463 655.186C616.391 652.776 619.258 650.01 620.52 646.456C620.696 645.871 620.973 645.592 621.173 645.626C621.27 645.441 621.612 645.405 622.129 645.692C625.685 647.799 627.447 652.617 625.951 656.652C624.641 660.734 620.145 663.544 615.847 662.869ZM646.477 661.879C646.282 661.707 645.849 661.222 645.598 660.895L645.167 660.347C645.061 660.179 645.457 660.057 645.59 659.911L647.255 658.708C648.036 658.149 648.805 657.563 649.551 656.939C652.468 654.491 655.327 651.623 656.34 647.983C656.467 647.383 656.719 647.079 656.933 647.088C657.029 646.915 657.359 646.866 657.891 647.116C661.579 649.064 663.558 653.841 662.196 657.97C661.01 662.12 656.595 665.085 652.24 664.572C650.079 664.366 648.014 663.408 646.477 661.879Z" fill="black"/>
</g>
<rect x="1164" y="309" width="7.99999" height="142" rx="3.99999" transform="rotate(180 1164 309)" fill="black"/>
<rect x="938" y="407" width="8" height="69" rx="4" transform="rotate(90 938 407)" fill="black"/>
<rect x="1052" y="51" width="8.00001" height="163" rx="4" transform="rotate(90 1052 51)" fill="black"/>
<rect x="806" y="275" width="7.99999" height="68" rx="4" transform="rotate(180 806 275)" fill="black"/>
<rect x="806" y="355" width="8" height="46" rx="4" transform="rotate(180 806 355)" fill="black"/>
<g clip-path="url(#clip2_445_197)">
<path d="M808.308 111.194C800.923 110.698 807.666 87.8238 799.759 93.8264C795.439 97.2128 792.94 107.178 786.773 106.776C777.598 106.032 757.31 100.743 776.899 115.006C782.505 119.033 780.257 121.169 778.642 123.18C772.105 131.842 771.268 134.434 771.367 135.724C773.002 141.331 790.222 124.055 794.799 129.337C805.268 140.657 805.775 142.079 808.134 141.582C810.496 141.071 808.549 134.404 807.375 128.333C805.965 119.323 834.625 113.35 808.293 111.19L808.308 111.194Z" fill="black"/>
<path d="M790.889 20.8939C786.411 22.4995 784.583 7.34775 781.447 12.9091C779.764 15.9985 780.805 22.4829 777.077 23.843C771.484 25.7649 758.192 27.8755 773.344 31.2085C777.66 32.1299 776.884 33.9551 776.444 35.5588C774.792 42.322 774.949 44.0554 775.335 44.7931C777.716 47.6532 783.489 33.099 787.526 35.0309C796.554 38.9825 797.217 39.6837 798.473 38.7841C799.73 37.8845 796.903 34.4719 794.669 31.2033C791.55 26.2811 806.918 15.4209 790.865 20.9178L790.889 20.8939Z" fill="#E7BB43"/>
<path d="M841.804 54.6866C837.679 52.349 847.812 40.9475 841.609 42.2479C838.197 43.0178 834.016 48.1002 830.575 46.1562C825.488 43.1778 815.215 34.4844 822.621 48.1968C824.751 52.0766 822.882 52.7 821.403 53.4179C815.27 56.6279 814.082 57.8955 813.768 58.6748C813.179 62.3845 827.843 57.1316 829.047 61.4672C831.995 70.9262 831.899 71.9015 833.404 72.2614C834.909 72.6213 835.615 68.2103 836.593 64.3587C838.235 58.74 856.414 63.2229 841.808 54.6723L841.804 54.6866Z" fill="#F39745"/>
<path d="M741.024 62.947C736.488 61.5932 743.889 48.2249 738.108 50.8726C734.94 52.3819 731.985 58.2531 728.184 57.1363C722.566 55.3702 710.644 49.1795 720.862 60.8904C723.801 64.1976 722.099 65.2209 720.815 66.2532C715.531 70.7438 714.64 72.2489 714.514 73.0732C714.756 76.8153 727.92 68.4362 730.037 72.406C734.989 80.9705 735.113 81.9384 736.648 81.9622C738.188 81.9717 737.909 77.5255 738.036 73.5566C738.409 67.717 757.15 68.0413 741.005 62.9566L741.024 62.947Z" fill="#64A03D"/>
</g>
<g clip-path="url(#clip3_445_197)">
<path d="M884.238 517.411C884.238 523.059 877.63 531.139 871.021 535.431C870.794 535.6 870.683 535.711 870.683 535.826C870.683 535.942 870.852 535.938 871.19 535.938C871.359 535.938 874.014 535.769 875.54 535.769C876.389 535.769 877.176 535.769 877.856 535.826C878.479 535.884 878.986 536.334 879.097 536.898C879.378 538.086 879.72 540.287 879.946 541.981C879.946 542.546 879.551 542.942 878.928 543C875.37 543.226 864.017 543.903 860.402 544.072C859.779 544.072 859.103 543.845 858.819 543.28C858.254 542.039 857.293 538.535 857.293 538.082C857.293 537.575 857.578 537.064 857.969 536.783C868.816 530.059 876.327 519.44 876.442 515.544C876.385 513.849 875.086 513.227 873.845 513.227C871.866 513.227 868.762 515.317 866.445 518.99C866.276 519.271 865.992 519.444 865.654 519.444C865.316 519.444 864.978 519.217 864.978 519.217C863.679 518.372 862.154 517.127 861.304 516.166C861.024 515.886 860.851 515.49 860.851 515.037C860.851 514.868 860.909 514.583 860.962 514.414C862.034 511.759 866.272 505.996 871.809 505.996C876.95 505.996 884.238 511.59 884.238 517.407V517.411Z" fill="black"/>
<path d="M886.724 538.539C885.368 536.28 884.972 532.833 884.972 529.952C884.972 522.494 888.983 506.227 899.545 506.227C901.804 506.227 908.075 508.712 910.222 512.385C911.463 514.533 911.917 517.242 911.917 519.843C911.917 528.261 907.625 544.133 897.228 544.133C895.027 544.133 889.206 542.154 886.72 538.539H886.724ZM892.994 531.193C892.994 535.657 894.52 536.956 896.045 536.956C900.225 536.956 903.729 526.052 903.729 518.145C903.729 514.249 902.488 513.173 901.132 513.173C897.063 513.173 892.998 523.397 892.998 531.193H892.994Z" fill="black"/>
<path d="M937.79 517.411C937.79 523.059 931.181 531.139 924.573 535.431C924.346 535.6 924.235 535.711 924.235 535.826C924.235 535.942 924.404 535.938 924.742 535.938C924.911 535.938 927.566 535.769 929.091 535.769C929.94 535.769 930.728 535.769 931.408 535.826C932.03 535.884 932.538 536.334 932.649 536.898C932.929 538.086 933.271 540.287 933.498 541.981C933.498 542.546 933.102 542.942 932.48 543C928.922 543.226 917.569 543.903 913.953 544.072C913.331 544.072 912.654 543.845 912.37 543.28C911.805 542.039 910.845 538.535 910.845 538.082C910.845 537.575 911.129 537.064 911.521 536.783C922.367 530.059 929.879 519.44 929.994 515.544C929.936 513.849 928.638 513.227 927.397 513.227C925.418 513.227 922.314 515.317 919.997 518.99C919.828 519.271 919.543 519.444 919.205 519.444C918.867 519.444 918.529 519.217 918.529 519.217C917.23 518.372 915.705 517.127 914.856 516.166C914.576 515.886 914.403 515.49 914.403 515.037C914.403 514.868 914.46 514.583 914.514 514.414C915.586 511.759 919.824 505.996 925.36 505.996C930.501 505.996 937.79 511.59 937.79 517.407V517.411Z" fill="black"/>
<path d="M960.95 527.408C961.626 527.408 961.911 527.862 962.022 528.426C962.249 529.725 962.529 532.211 962.529 533.736C962.529 534.243 962.191 534.754 961.569 534.754C961.288 534.754 959.083 534.812 958.802 534.812C958.126 534.812 957.784 535.319 957.673 535.884C957.335 538.312 956.939 540.74 956.655 543.115C956.597 543.68 956.201 544.018 955.694 544.018C954.733 544.018 951.345 543 950.215 542.55C949.539 542.323 949.197 541.701 949.197 541.136C949.255 539.837 949.593 536.391 949.593 536.164C949.593 535.711 949.255 535.431 948.859 535.431C947.56 535.431 939.991 536.164 939.538 536.164C938.862 536.164 938.351 535.884 938.124 535.373C937.559 534.243 936.318 530.739 936.318 529.894C936.318 529.387 936.487 528.822 936.772 528.48C940.84 523.059 949.593 510.461 952.248 507.014C952.528 506.676 952.87 506.449 953.32 506.449C953.827 506.449 954.903 507.183 955.298 507.183C955.525 507.183 955.694 507.072 955.805 506.845C955.974 506.507 956.37 506.223 956.824 506.223C957.5 506.223 961.342 507.295 962.81 507.806C963.263 507.975 963.432 508.37 963.432 508.766C963.432 508.878 963.374 509.162 963.374 509.162C962.356 512.213 960.777 518.483 959.306 526.221C959.306 526.221 959.248 526.559 959.248 526.728C959.248 527.066 959.475 527.404 959.87 527.404H960.942L960.95 527.408ZM945.363 527.973C945.363 528.142 945.532 528.311 945.816 528.311C945.927 528.311 948.528 528.031 949.885 527.915C950.449 527.858 950.788 527.577 950.903 527.012C951.525 523.508 952.655 518.03 952.655 517.634C952.655 517.465 952.655 517.353 952.597 517.353C952.486 517.353 952.317 517.58 952.317 517.58C951.641 518.483 946.104 526.732 945.539 527.577C945.428 527.746 945.37 527.858 945.37 527.973H945.363Z" fill="black"/>
<path d="M956.359 643.398C954.722 642.495 951.725 639.556 950.088 637.862C949.693 637.466 949.524 636.959 949.524 636.448C949.524 632.21 952.463 617.863 953.873 612.892C953.93 612.665 953.93 612.384 953.93 612.158C953.93 610.971 953.704 609.107 953.704 608.769C953.704 608.316 953.93 607.924 954.38 607.751C957.542 606.395 961.384 605.492 963.812 605.492C972.511 605.492 979.461 614.87 979.461 621.986C979.461 633.113 969.745 642.945 958.449 643.732C957.715 643.732 956.981 643.675 956.359 643.394V643.398ZM971.666 619.504C971.666 615.266 968.108 612.726 964.266 612.726C963.87 612.726 963.532 612.726 963.136 612.784C962.46 612.895 962.118 613.18 962.007 613.745C960.65 619.281 958.845 627.134 957.715 634.588C957.715 634.588 957.657 634.926 957.657 635.041C957.657 635.495 957.938 635.664 958.449 635.664C962.687 635.664 971.666 630.185 971.666 619.508V619.504Z" fill="black"/>
<path d="M1009.23 609.223V610.636C1009.23 620.296 1006.01 643.794 994.092 643.794C989.405 643.794 984.714 640.632 983.077 638.315C981.836 636.563 981.271 633.682 981.271 631.027C981.271 621.763 984.829 610.41 986.639 607.017C986.977 606.452 987.372 606.114 988.106 606.114C989.178 606.114 992.175 607.075 993.585 607.582C994.038 607.751 994.261 608.258 994.261 608.712C994.261 608.996 994.15 609.334 994.15 609.334C991.891 615.435 989.347 626.055 989.347 631.365C989.347 634.304 989.912 636.336 992.171 636.336C995.391 636.336 997.201 631.534 998.668 625.659C1000.36 618.935 1001.38 610.237 1001.66 607.301C1001.72 606.737 1002.11 606.399 1002.62 606.399C1003.47 606.399 1006.86 607.248 1008.22 607.755C1008.89 608.035 1009.18 608.658 1009.23 609.223H1009.23Z" fill="black"/>
<path d="M1028.16 630.009C1028.16 630.289 1028.33 630.516 1028.33 630.516C1030.25 633.509 1032.51 636.729 1034.37 638.369C1034.6 638.596 1034.71 638.876 1034.71 639.161C1034.71 639.387 1034.6 639.614 1034.43 639.837C1033.19 641.024 1030.81 642.776 1029.17 643.51C1029.17 643.51 1028.95 643.621 1028.61 643.621C1028.1 643.621 1027.65 643.395 1027.37 643.168C1024.26 640.513 1021.77 634.865 1020.81 631.53C1020.59 630.965 1020.36 630.57 1019.91 630.57H1019.24C1018.67 630.57 1018.44 630.85 1018.39 631.419C1017.71 635.203 1017.14 639.099 1016.75 642.772C1016.64 643.337 1016.24 643.675 1015.73 643.675C1014.54 643.675 1010.42 642.377 1010.03 642.207C1009.18 641.869 1009.07 641.358 1009.01 640.794C1009.12 634.354 1011.77 620.626 1013.92 612.323C1014.03 611.87 1014.03 611.647 1014.03 611.42C1014.03 610.46 1013.75 609.273 1013.75 608.823C1013.75 608.316 1014.15 607.863 1014.54 607.694C1016.75 606.791 1020.53 605.661 1025.22 605.661C1032.51 605.661 1038.33 613.345 1038.33 618.202C1038.33 623.058 1034.2 627.411 1028.78 629.329C1028.38 629.498 1028.16 629.667 1028.16 630.005V630.009ZM1022.11 613.741C1021.89 614.533 1019.85 623.004 1019.85 623.569C1019.85 623.965 1020.08 624.134 1020.48 624.134C1025.73 624.134 1029.91 620.238 1029.91 616.846C1029.91 613.906 1027.53 612.665 1024.77 612.665C1024.31 612.665 1023.86 612.665 1023.41 612.723C1022.68 612.781 1022.28 613.176 1022.11 613.741Z" fill="black"/>
<path d="M1063.12 605.888C1064.03 605.888 1067.87 606.96 1069.28 607.471C1069.68 607.64 1069.96 608.035 1069.96 608.489C1069.96 608.658 1069.9 608.827 1069.9 608.827C1068.1 613.968 1064.53 629.39 1063.01 642.776C1062.95 643.341 1062.56 643.625 1062.11 643.625C1060.98 643.625 1056.96 642.438 1056.34 642.211C1055.61 641.931 1055.38 641.42 1055.32 640.743C1055.32 638.258 1056.12 632.89 1056.12 632.552C1056.12 632.099 1055.78 631.761 1055.21 631.761C1053.29 631.872 1050.81 631.93 1048.66 631.987C1048.04 631.987 1047.64 632.494 1047.53 633.005C1046.96 636.283 1046.46 639.56 1046.11 642.78C1046.06 643.345 1045.61 643.629 1045.15 643.629C1043.97 643.629 1040.07 642.499 1039.39 642.215C1038.83 641.988 1038.49 641.424 1038.43 640.747C1038.54 637.923 1039.28 632.387 1039.28 632.16C1039.28 631.822 1039.17 631.653 1039 631.484C1038.88 631.315 1038.71 631.146 1038.6 630.808C1038.37 629.962 1038.2 628.437 1038.15 627.304C1038.15 626.57 1038.32 626.286 1039.33 626.005C1040.12 625.778 1040.46 625.383 1040.57 624.875C1041.93 617.191 1043.85 609.568 1045.03 606.687C1045.26 606.233 1045.66 605.953 1046.16 605.953C1047.18 605.953 1051.08 606.971 1052.38 607.478C1052.77 607.59 1053.05 608.101 1053.05 608.55C1053.05 608.719 1052.94 609.057 1052.94 609.057C1051.92 611.77 1050.63 616.965 1049.22 623.631C1049.22 623.631 1049.16 623.911 1049.16 624.084C1049.16 624.48 1049.5 624.818 1049.95 624.818C1050.18 624.818 1055.32 624.649 1056.45 624.649C1057.01 624.649 1057.52 624.253 1057.63 623.688C1059.05 616.457 1060.8 609.453 1061.98 606.687C1062.15 606.233 1062.61 605.895 1063.11 605.895L1063.12 605.888Z" fill="black"/>
<path d="M1068.94 633.851C1068.94 633.174 1067.98 630.8 1067.98 629.782C1067.98 629.217 1068.26 628.821 1068.88 628.71C1069.51 628.598 1070.24 628.429 1070.24 628.429C1071.03 628.26 1071.26 627.976 1071.6 627.3C1074.59 621.368 1079.45 610.014 1081.99 607.021C1082.33 606.625 1082.72 606.514 1083.12 606.514C1083.68 606.514 1084.7 606.91 1085.04 606.91C1085.49 606.91 1085.94 606.629 1086 606.176C1086.06 605.78 1086.28 605.442 1086.73 605.442C1087.53 605.442 1091.54 606.856 1092.44 607.305C1093.06 607.59 1093.46 608.154 1093.57 608.831C1094.19 612.05 1094.47 621.598 1094.47 630.07C1094.47 635.437 1094.3 640.294 1094.02 642.837C1093.96 643.291 1093.56 643.686 1092.89 643.686C1091.93 643.686 1087.92 643.064 1086.9 642.726C1086.34 642.557 1086 642.05 1086 641.258C1086 639.96 1086.17 635.837 1086.17 634.93C1086.17 634.423 1085.83 634.081 1085.27 634.081C1082.72 634.081 1078.66 634.308 1077.98 634.365C1077.3 634.423 1077.02 634.704 1076.68 635.384C1075.61 637.754 1074.65 640.805 1073.8 642.784C1073.57 643.237 1073.17 643.46 1072.78 643.46C1071.88 643.46 1068.54 641.877 1067.64 641.258C1067.24 640.978 1066.96 640.636 1066.96 640.129C1066.96 639.844 1067.02 639.675 1067.02 639.675L1068.83 634.534C1068.94 634.254 1068.94 634.081 1068.94 633.858L1068.94 633.851ZM1080.01 626.846C1080.01 627.184 1080.24 627.3 1080.81 627.3C1082.22 627.3 1084.53 627.242 1085.27 627.242C1085.89 627.242 1086.23 626.962 1086.34 626.17C1086.4 624.929 1086.4 623.627 1086.4 622.328C1086.4 619.22 1086.28 616.227 1086.23 614.421C1086.23 614.083 1086.12 613.914 1086 613.914C1085.88 613.914 1085.77 614.025 1085.66 614.252C1084.25 617.303 1082.27 621.763 1080.13 626.508C1080.13 626.508 1080.01 626.735 1080.01 626.846Z" fill="black"/>
<path d="M1104.25 643.679C1103.06 643.679 1099.56 642.607 1098.65 642.265C1097.92 641.981 1097.69 641.416 1097.63 640.797C1097.92 632.606 1102.21 612.043 1104.53 606.848C1104.75 606.341 1105.38 605.999 1106.05 605.999C1106.84 605.999 1112.72 607.186 1115.15 608.201C1115.77 608.481 1115.82 609.104 1115.82 609.668C1115.88 611.87 1115.88 620.288 1115.82 625.486C1115.82 625.713 1115.88 625.94 1115.99 625.94C1116.1 625.94 1116.27 625.544 1116.27 625.544C1118.64 619.612 1121.3 612.043 1124.01 606.622C1124.29 606.168 1124.74 605.83 1125.37 605.83C1127.12 605.83 1133.44 607.524 1135.31 608.374C1135.82 608.543 1136.04 608.996 1136.04 609.446C1136.04 609.615 1135.99 609.784 1135.99 609.784C1134.12 615.547 1130.79 629.951 1129.32 642.83C1129.26 643.337 1128.81 643.679 1128.3 643.679C1127.4 643.679 1123.67 642.776 1122.6 642.265C1121.92 641.927 1121.64 641.416 1121.58 640.797C1121.58 635.261 1125.08 620.292 1125.08 619.616C1125.08 619.504 1125.02 619.389 1124.97 619.389C1124.92 619.389 1124.8 619.5 1124.69 619.727C1122.48 624.756 1120.56 630.911 1117.96 637.747C1117.79 638.2 1117.29 638.596 1116.78 638.596C1115.93 638.596 1112.6 637.524 1111.13 636.844C1110.45 636.506 1110.17 635.826 1110.11 635.261C1109.49 630.854 1109.66 624.188 1109.49 619.5C1109.43 619.216 1109.38 619.105 1109.32 619.105C1109.26 619.105 1109.15 619.216 1109.09 619.443C1107.62 625.882 1106.21 634.581 1105.31 642.83C1105.2 643.337 1104.74 643.679 1104.23 643.679H1104.25Z" fill="black"/>
<path d="M822.583 541.198C823.982 541.198 829.722 542.904 830.733 543.449C831.274 543.76 831.662 544.302 831.662 544.925C831.662 545.078 831.586 545.389 831.586 545.389C828.946 552.839 823.748 574.336 821.342 593.739C821.266 594.515 820.643 594.98 819.944 594.98C818.703 594.98 814.822 593.892 813.658 593.428C812.959 593.116 812.417 592.498 812.34 591.41L812.187 588.848C812.187 588.46 812.033 588.072 811.799 588.072C811.645 588.072 811.487 588.148 811.257 588.46C808.775 592.106 805.824 595.21 803.342 595.21C797.909 595.21 791.777 588.149 791.777 581.164C791.777 568.435 798.297 555.398 808.076 555.398C809.862 555.398 812.267 556.328 814.749 557.65C814.749 557.65 815.137 557.884 815.372 557.884C815.837 557.884 816.148 557.573 816.302 556.874C817.931 550.123 819.483 545.078 820.805 542.281C821.116 541.659 821.815 541.194 822.591 541.194L822.583 541.198ZM811.952 578.685C812.805 574.651 814.281 567.355 814.281 566.732C814.281 566.191 814.046 565.722 813.428 565.491C812.34 565.103 811.334 564.869 810.711 564.869C805.667 564.869 802.873 575.5 802.873 580.856C802.873 583.108 803.415 584.66 804.114 584.66C805.743 584.66 808.694 582.566 810.946 580.468C811.568 579.926 811.875 579.227 811.956 578.681L811.952 578.685Z" fill="black"/>
<path d="M840.046 552.532C844.703 552.532 847.573 549.581 847.573 545.47C847.573 540.89 843.07 539.027 839.347 539.027C838.571 539.027 837.406 539.415 836.865 539.803C835.236 541.121 833.526 543.219 833.526 545.935C833.526 549.504 835.543 552.532 840.046 552.532Z" fill="black"/>
<path d="M865.504 591.568L865.27 588.31C865.27 587.922 865.116 587.687 864.958 587.687C864.801 587.687 864.647 587.841 864.493 588.075C861.777 592.421 858.673 595.214 856.267 595.214C850.758 595.214 844.626 588.463 844.626 581.167C844.626 568.208 850.835 555.402 861.546 555.402C865.35 555.402 873.111 558.429 878.698 562.076C879.239 562.387 879.628 563.005 879.628 563.705C879.628 563.939 879.474 564.558 879.474 564.558C876.369 575.577 875.282 587.607 875.128 593.815C875.052 594.515 874.506 595.056 873.811 595.056C871.793 595.056 867.525 593.892 866.902 593.581C865.892 593.039 865.585 592.34 865.504 591.564V591.568ZM864.805 578.685C865.658 574.651 867.133 567.355 867.133 566.732C867.133 566.191 866.899 565.722 866.28 565.491C865.193 565.103 864.186 564.869 863.564 564.869C858.519 564.869 855.726 575.5 855.726 580.856C855.726 583.107 856.267 584.66 856.967 584.66C858.596 584.66 861.546 582.566 863.798 580.468C864.42 579.926 864.728 579.227 864.808 578.681L864.805 578.685Z" fill="black"/>
<path d="M906.323 555.556C910.203 555.556 915.79 561.223 915.79 565.104C915.79 568.596 912.839 584.818 910.434 593.896C910.199 594.519 909.504 595.138 908.805 595.138C907.018 595.138 902.442 593.432 900.732 592.498C900.11 592.11 899.803 591.411 899.803 590.711C899.803 590.4 899.879 590.012 899.879 590.012C899.879 590.012 903.837 573.714 903.837 568.746C903.837 567.428 903.602 566.571 903.061 566.571C901.897 566.571 898.558 568.435 895.688 571.382C894.912 572.158 894.523 573.088 894.37 573.864C892.971 580.849 891.265 589.54 890.336 593.808C890.182 594.507 889.559 595.049 888.86 595.049C887.154 595.049 882.029 593.343 880.945 592.798C880.246 592.41 879.935 591.787 879.935 591.092C879.935 590.55 884.592 563.075 885.521 556.712C885.675 555.936 886.374 555.395 887.074 555.395C887.927 555.395 893.048 556.324 894.523 556.947C895.376 557.335 895.922 558.188 895.922 559.041C895.922 559.817 895.999 560.981 895.999 562.145C895.999 562.61 896.153 562.844 896.31 562.844C896.544 562.844 896.852 562.456 896.852 562.456C899.956 558.499 903.526 555.548 906.319 555.548L906.323 555.556Z" fill="black"/>
<path d="M934.651 555.402C938.143 555.402 946.68 558.741 951.648 561.922C952.19 562.31 952.501 563.009 952.501 563.709C952.501 564.02 952.424 564.331 952.424 564.331C950.795 571.005 948.698 583.887 946.838 593.278C945.908 598.088 942.181 609.341 930.697 609.341C927.904 609.341 922.936 607.789 920.531 606.003C919.832 605.538 919.601 604.992 919.601 604.374C919.601 603.444 920.688 599.717 921.076 598.864C921.311 598.322 921.776 598.011 922.317 598.011C922.471 598.011 922.782 598.088 922.94 598.165C925.268 599.175 927.285 599.563 928.761 599.563C935.123 599.563 937.064 592.501 937.064 589.239C937.064 588.851 936.91 588.617 936.752 588.617C936.595 588.617 936.518 588.694 936.287 589.005C933.959 592.263 931.243 594.672 928.991 594.672C923.482 594.672 917.584 588.229 917.584 580.702C917.584 567.662 924.181 555.402 934.658 555.402H934.651ZM937.755 578.685C938.608 574.651 940.083 567.355 940.083 566.732C940.083 566.191 939.849 565.722 939.231 565.491C938.143 565.103 937.137 564.869 936.514 564.869C931.469 564.869 928.676 575.5 928.676 580.856C928.676 583.107 929.218 584.66 929.917 584.66C931.546 584.66 934.497 582.566 936.748 580.468C937.371 579.926 937.678 579.227 937.755 578.681V578.685Z" fill="black"/>
<path d="M987.196 571.078C987.196 577.986 983.004 595.214 970.509 595.214C967.017 595.214 960.42 593.274 956.85 589.47C954.676 587.142 953.592 583.573 953.592 579.227C953.592 570.379 958.791 555.325 969.503 555.325C973.537 555.325 980.833 558.353 984.172 561.688C986.189 563.782 987.123 567.509 987.199 570.69V571.078H987.196ZM975.861 570.148C975.861 566.656 974.774 564.327 972.68 564.327C968.411 564.327 964.765 574.494 964.765 580.702C964.765 583.807 965.776 586.058 968.023 586.058C972.757 586.058 975.861 576.046 975.861 570.148Z" fill="black"/>
<path d="M1008.46 572.63C1008.46 572.008 1009.47 568.285 1009.47 566.809C1009.47 565.334 1009.08 564.404 1007.99 564.404C1004.58 564.404 1000.23 572.553 1000.23 578.839C1000.23 582.643 1001.94 584.971 1004.81 584.971C1007.53 584.971 1010.48 583.884 1012.65 582.643C1012.65 582.643 1012.96 582.489 1013.27 582.489C1013.81 582.489 1014.13 582.723 1014.44 583.265C1014.98 584.276 1016.45 587.457 1016.45 588.544C1016.45 589.397 1016.14 590.02 1015.68 590.485C1012.88 592.967 1009.23 595.218 1004.89 595.218C1002.33 595.218 995.187 593.124 992.236 589.397C990.143 586.758 989.055 583.423 989.055 579.154C989.055 568.289 996.194 555.329 1005.04 555.329C1008.07 555.329 1020.02 559.444 1020.02 565.73C1020.02 567.593 1018.54 571.316 1017.77 572.561C1017.38 573.183 1016.76 573.648 1015.9 573.725C1014.66 573.802 1011.4 573.802 1009.62 573.802C1008.92 573.725 1008.45 573.26 1008.45 572.638L1008.46 572.63Z" fill="black"/>
<path d="M1054.79 571.078C1054.79 577.986 1050.6 595.214 1038.1 595.214C1034.61 595.214 1028.01 593.274 1024.45 589.47C1022.27 587.142 1021.19 583.573 1021.19 579.227C1021.19 570.379 1026.39 555.325 1037.1 555.325C1041.13 555.325 1048.43 558.353 1051.77 561.688C1053.78 563.782 1054.72 567.509 1054.79 570.69V571.078H1054.79ZM1043.46 570.148C1043.46 566.656 1042.37 564.327 1040.28 564.327C1036.01 564.327 1032.36 574.494 1032.36 580.702C1032.36 583.807 1033.37 586.058 1035.62 586.058C1040.36 586.058 1043.46 576.046 1043.46 570.148Z" fill="black"/>
<path d="M1082.03 555.556C1085.92 555.556 1091.5 561.223 1091.5 565.104C1091.5 568.596 1088.55 584.818 1086.15 593.896C1085.91 594.519 1085.22 595.138 1084.52 595.138C1082.73 595.138 1078.15 593.432 1076.44 592.498C1075.82 592.11 1075.51 591.411 1075.51 590.711C1075.51 590.4 1075.59 590.012 1075.59 590.012C1075.59 590.012 1079.55 573.714 1079.55 568.746C1079.55 567.428 1079.31 566.571 1078.77 566.571C1077.61 566.571 1074.27 568.435 1071.4 571.382C1070.62 572.158 1070.24 573.088 1070.08 573.864C1068.68 580.849 1066.98 589.54 1066.05 593.808C1065.89 594.507 1065.27 595.049 1064.57 595.049C1062.87 595.049 1057.74 593.343 1056.66 592.798C1055.96 592.41 1055.65 591.787 1055.65 591.092C1055.65 590.55 1060.3 563.075 1061.23 556.712C1061.39 555.936 1062.09 555.395 1062.79 555.395C1063.64 555.395 1068.76 556.324 1070.24 556.947C1071.09 557.335 1071.63 558.188 1071.63 559.041C1071.63 559.817 1071.71 560.981 1071.71 562.145C1071.71 562.61 1071.86 562.844 1072.02 562.844C1072.26 562.844 1072.56 562.456 1072.56 562.456C1075.67 558.499 1079.24 555.548 1082.03 555.548L1082.03 555.556Z" fill="black"/>
<path d="M1103.69 588.775C1103.69 592.579 1101.28 595.372 1097.32 595.372C1093.37 595.372 1091.58 592.421 1091.58 589.24C1091.58 586.523 1092.59 585.125 1094.29 583.573C1094.76 583.108 1095.69 582.72 1096.47 582.72C1099.96 582.72 1103.69 584.66 1103.69 588.775H1103.69Z" fill="black"/>
<path d="M1143.27 559.436C1143.27 559.747 1143.11 560.212 1143.11 560.212C1139.62 571.62 1137.76 586.911 1137.53 593.816C1137.53 594.515 1136.98 595.133 1136.29 595.133C1134.66 595.133 1131.01 594.123 1129.92 593.658C1129.15 593.347 1128.61 592.648 1128.37 591.564C1128.22 590.942 1128.14 589.082 1128.06 587.837C1128.06 587.296 1127.91 586.984 1127.67 586.984C1127.44 586.984 1127.21 587.449 1127.21 587.449C1124.41 592.106 1120.92 595.287 1118.05 595.287C1113.47 595.287 1107.42 589.078 1107.42 582.946C1107.42 573.479 1110.75 561.914 1112.69 557.104C1112.93 556.482 1113.55 555.94 1114.25 555.94C1115.33 555.94 1120.3 557.88 1122.09 558.891C1122.63 559.202 1123.01 559.744 1123.01 560.366C1123.01 560.908 1122.86 561.377 1122.86 561.377C1121.31 565.956 1118.36 577.909 1118.36 582.485C1118.36 583.649 1118.51 584.349 1118.98 584.349C1120.92 584.349 1124.57 581.709 1127.13 578.374C1127.59 577.752 1127.83 577.21 1127.98 576.28C1128.99 569.372 1131.01 561.069 1132.41 557.035C1132.64 556.336 1133.33 555.794 1134.11 555.794C1135.28 555.794 1139.78 557.035 1142.11 558.045C1142.73 558.28 1143.27 558.822 1143.27 559.444L1143.27 559.436Z" fill="black"/>
<path d="M1156.93 555.402C1161.19 555.402 1174 559.359 1174 565.103C1174 567.12 1172.45 570.225 1171.83 571.078C1171.2 571.931 1170.43 572.165 1169.73 572.242H1163.91C1163.13 572.242 1162.75 571.7 1162.75 571.231C1162.75 570.609 1163.52 568.592 1163.52 567.04C1163.52 564.946 1162.59 563.858 1161.43 563.858C1158.79 563.858 1156.46 568.204 1156.46 570.302C1156.46 575.658 1171.21 574.417 1171.21 583.342C1171.21 588.928 1165.7 595.295 1157.78 595.295C1153.12 595.295 1146.29 593.043 1143.81 590.792C1143.11 590.169 1142.96 589.628 1142.96 589.239C1142.96 588.229 1143.89 584.817 1144.58 583.342C1144.9 582.643 1145.21 582.412 1145.67 582.412C1146.14 582.412 1146.45 582.723 1146.6 582.723C1149.32 584.199 1153.12 586.216 1156.3 586.216C1158.09 586.216 1159.72 585.593 1159.87 584.352C1159.87 581.094 1144.89 580.706 1144.89 570.617C1144.89 564.408 1150.56 555.406 1156.92 555.406L1156.93 555.402Z" fill="black"/>
<path d="M844.003 558.737C844.003 561.842 838.805 588.464 837.718 593.508C837.66 593.762 837.599 594.027 837.533 594.292C837.522 594.292 837.51 594.292 837.499 594.296C836.269 599.51 832.312 609.338 821.577 609.338C818.784 609.338 813.816 607.786 811.411 606.003C810.711 605.538 810.481 604.993 810.481 604.374C810.481 603.44 811.568 599.717 811.956 598.861C812.187 598.319 812.652 598.008 813.197 598.008C813.351 598.008 813.662 598.084 813.816 598.165C816.144 599.172 818.165 599.56 819.637 599.56C821.269 599.56 822.852 599.053 824.132 598.031C824.712 597.57 825.215 597.02 825.649 596.421C826.541 595.191 826.764 593.662 827.029 592.206C827.336 590.519 827.644 588.829 827.943 587.138C828.443 584.33 828.923 581.521 829.403 578.712C829.918 575.693 830.425 572.673 830.936 569.653C831.393 566.94 831.851 564.231 832.323 561.523C832.588 560.001 832.83 558.468 833.138 556.951C833.295 556.174 833.991 555.629 834.848 555.629C835.931 555.629 840.668 556.405 842.762 556.951C843.462 557.181 844.003 557.957 844.003 558.733V558.737Z" fill="black"/>
</g>
<g clip-path="url(#clip4_445_197)">
<path d="M812.287 503.296C827.644 503.296 840.094 490.868 840.094 475.538C840.094 460.207 827.644 447.78 812.287 447.78C796.93 447.78 784.48 460.207 784.48 475.538C784.48 490.868 796.93 503.296 812.287 503.296Z" fill="#B989C9"/>
<path d="M796.407 463.321C790.08 465.444 793.568 475.861 799.894 473.105C806.479 471.112 802.085 460.656 796.407 463.321Z" fill="black"/>
<path d="M830.177 470.206C829.814 470.193 829.464 470.245 829.127 470.361C828.79 470.478 828.479 470.672 828.219 470.918C827.96 471.164 827.74 471.448 827.597 471.772C827.441 472.095 827.364 472.445 827.351 472.807C826.754 482.836 812.857 489.436 804.768 482.021C801.916 479.679 798.442 484.143 801.19 486.11C820.454 502.183 840.613 473.519 830.19 470.206H830.177Z" fill="black"/>
<path d="M800.309 439.291C782.847 445.14 771.711 467.489 779.554 484.04C791.286 514.011 834.481 512.561 846.472 484.169C858.191 457.498 826.728 428.576 800.309 439.291ZM822.71 498.986C786.852 511.811 764.607 458.016 802.111 444.506C838.253 431.475 861.484 485.114 822.71 498.986Z" fill="black"/>
<path d="M819.054 462.675C825.38 464.887 828.582 455.35 822.489 452.607C816.358 450.653 812.507 460.19 819.054 462.675Z" fill="black"/>
</g>
<g clip-path="url(#clip5_445_197)">
<path d="M1095.75 501.098C1098.01 499.289 1099.74 496.903 1100.74 494.195C1102.85 487.037 1092.16 486.161 1087.57 487.245C1085.7 487.671 1083.91 488.363 1082.24 489.296C1077.63 487.614 1072.98 486.069 1068.26 484.686C1069.13 484.444 1069.98 484.191 1070.84 483.926C1077.73 481.759 1083.64 477.137 1083.6 469.98C1090.37 469.023 1095.42 463.284 1095.5 456.449C1095.43 455.366 1095.21 454.317 1094.83 453.303C1095.6 452.992 1096.35 452.623 1097.07 452.219C1103.14 448.716 1110.24 439.841 1104.92 432.926C1100.77 427.567 1092.64 426.933 1086.43 427.29C1078.7 427.498 1071.31 430.529 1065.65 435.796C1062.6 438.977 1059.88 442.457 1057.54 446.18C1055.05 449.672 1052.74 453.28 1050.63 457.014C1049.17 437.813 1031.14 434.228 1022.61 445.765C1020.27 445.396 1017.93 445.154 1015.55 445.039C1000.56 444.301 1001.79 449.926 1014.18 458.835C1015.59 459.838 1016.99 460.806 1018.45 461.751C1008.01 483.176 1013.44 506.826 1038.39 515.701C1051.61 520.069 1066.14 517.361 1076.92 508.544C1085.54 512.232 1105.23 519.769 1105.33 510.307C1105.38 505.835 1099.92 502.643 1095.76 501.087L1095.75 501.098ZM1085.48 449.315C1086.81 449.384 1088.08 449.868 1089.11 450.675C1089.39 450.882 1089.67 451.113 1089.91 451.355C1084.45 451.977 1081.18 449.177 1085.48 449.315ZM1076.83 466.695C1067.29 464.436 1076.91 461.255 1079.8 467.099C1078.8 467.041 1077.81 466.914 1076.83 466.695Z" fill="#DB433B"/>
<path d="M1024.69 448.785C1024.45 448.888 1024.17 448.923 1023.91 448.888C1020.99 448.393 1018.04 448.07 1015.09 447.943C1012.43 447.667 1009.75 447.92 1007.18 448.693C1008.14 450.11 1009.29 451.389 1010.62 452.473C1014.31 455.539 1018.17 458.374 1022.2 460.967C1023.29 456.968 1024.12 452.911 1024.69 448.808V448.785Z" fill="#E7BB43"/>
<path d="M1103.12 453.867L1103.87 453.498C1104.37 453.245 1104.89 453.026 1105.35 452.715C1106.3 452.127 1107.21 451.493 1108.06 450.778C1109.78 449.361 1111.32 447.759 1112.63 445.949C1113.93 444.14 1114.99 442.111 1115.52 439.887C1116.06 437.674 1115.94 435.219 1114.97 433.099C1114 430.989 1112.41 429.249 1110.54 427.958C1108.65 426.691 1106.53 425.861 1104.39 425.319C1100.06 424.236 1095.6 424.282 1091.28 424.558C1082.5 425.215 1073.92 429.192 1068.04 435.819C1066.6 437.455 1065.22 439.149 1063.92 440.89C1062.6 442.619 1061.44 444.52 1060.24 446.237C1058.98 448.012 1057.78 449.822 1056.62 451.654C1056.04 452.576 1055.47 453.498 1054.91 454.432L1054.34 455.412L1054.19 454.328C1054.15 453.787 1053.99 453.268 1053.85 452.738L1053.43 451.159C1052.81 449.073 1051.89 447.056 1050.7 445.212C1050.43 444.728 1050.06 444.313 1049.72 443.886L1048.66 442.607C1048.29 442.204 1047.84 441.869 1047.42 441.489C1047 441.143 1046.63 440.728 1046.14 440.44C1045.19 439.887 1044.3 439.184 1043.24 438.827C1042.72 438.619 1042.21 438.4 1041.69 438.204L1040.07 437.812C1035.71 436.798 1031.04 438.008 1027.4 440.452C1026.92 440.717 1026.5 441.086 1026.09 441.454L1024.84 442.538C1024.44 442.918 1024.1 443.356 1023.74 443.771L1023.21 444.393L1023.07 444.555C1023.07 444.555 1023.06 444.566 1023.03 444.555L1021.72 444.37L1020.13 444.174C1019.06 444.059 1018 443.967 1016.92 443.898C1014.78 443.76 1012.64 443.69 1010.47 443.829C1009.37 443.909 1008.29 444.036 1007.2 444.29C1006.11 444.555 1004.98 444.924 1004.01 445.811C1003.54 446.261 1003.16 446.894 1003.05 447.574C1002.92 448.266 1003.06 448.9 1003.23 449.488C1003.62 450.64 1004.27 451.574 1004.96 452.438C1006.35 454.167 1007.96 455.619 1009.6 456.991C1011.26 458.351 1012.97 459.653 1014.73 460.852L1017.37 462.661L1017.9 463.018L1017.37 464.24C1015.53 468.136 1014.34 472.296 1013.45 476.503C1012.65 480.744 1012.49 485.078 1012.83 489.388C1013.29 493.687 1014.47 497.894 1016.27 501.836C1018.12 505.766 1020.79 509.247 1023.82 512.335C1025.45 513.741 1027.01 515.263 1028.84 516.404L1030.18 517.326C1030.62 517.637 1031.07 517.948 1031.55 518.179L1034.4 519.712C1035.32 520.265 1036.35 520.634 1037.34 521.048L1040.32 522.282C1041.36 522.581 1042.4 522.916 1043.45 523.181C1044.49 523.4 1045.53 523.699 1046.6 523.849C1050.86 524.598 1055.2 524.725 1059.49 524.264C1063.79 523.803 1068 522.65 1071.97 520.991L1073.45 520.345L1074.9 519.631C1075.88 519.17 1076.79 518.594 1077.73 518.063C1078.67 517.533 1079.53 516.876 1080.45 516.3C1080.9 516 1081.31 515.655 1081.74 515.332L1082.38 514.836L1082.67 514.617L1085.67 515.862C1086.81 516.312 1087.95 516.761 1089.09 517.187C1091.38 518.04 1093.71 518.824 1096.08 519.516C1099.56 520.507 1103.12 521.394 1106.88 521.417C1108.51 521.417 1110 521.175 1111.19 520.576C1112.38 520 1113.16 519.043 1113.48 518.225C1113.63 517.81 1113.73 517.441 1113.75 517.118C1113.79 516.807 1113.79 516.542 1113.76 516.335C1113.71 515.908 1113.63 515.712 1113.54 515.712C1113.66 515.735 1114.02 514.882 1113.55 513.223C1113.1 511.575 1111.5 509.419 1108.75 507.656C1107.9 507.114 1107.01 506.619 1106.11 506.169C1105.67 505.962 1105.22 505.743 1104.75 505.547L1104.49 505.432L1104.58 505.339C1104.92 505.04 1105.23 504.717 1105.54 504.394C1106.15 503.726 1106.7 503.023 1107.21 502.285C1107.95 501.213 1108.57 500.049 1109.05 498.839C1109.57 497.537 1109.75 496.119 1109.35 494.702C1108.96 493.272 1107.9 492.143 1106.76 491.417C1105.6 490.679 1104.34 490.241 1103.06 489.942C1100.51 489.365 1097.92 489.285 1095.33 489.619C1094.02 489.803 1092.78 490.149 1091.56 490.575C1090.95 490.794 1090.35 491.025 1089.76 491.302C1089.46 491.428 1089.17 491.567 1088.88 491.716L1088.31 492.016L1080.77 489.527C1078.46 488.743 1074.29 487.452 1075.65 487.786L1076.08 487.66L1076.76 487.429C1077.08 487.314 1077.43 487.21 1077.75 487.083C1079.07 486.588 1080.35 486 1081.6 485.331C1082.83 484.628 1084.02 483.833 1085.11 482.923C1086.2 481.989 1087.19 480.94 1088.04 479.765C1088.86 478.578 1089.52 477.264 1089.97 475.881C1090.16 475.178 1090.35 474.475 1090.43 473.76C1090.5 473.403 1090.52 473.034 1090.53 472.677V472.4V472.354C1090.53 472.354 1090.54 472.342 1090.62 472.331L1091.15 472.239C1091.51 472.169 1091.85 472.054 1092.2 471.962C1092.89 471.789 1093.56 471.49 1094.23 471.224C1095.54 470.637 1096.77 469.841 1097.87 468.919C1100.07 467.075 1101.79 464.62 1102.69 461.877C1103.16 460.506 1103.44 459.1 1103.5 457.625C1103.52 457.279 1103.54 456.887 1103.5 456.507C1103.46 456.149 1103.42 455.78 1103.35 455.423C1103.29 455.066 1103.2 454.709 1103.11 454.351L1102.98 453.936L1103.11 453.867H1103.12ZM1017.66 457.002C1015.82 455.734 1014.04 454.386 1012.31 452.945L1011.02 451.85C1010.57 451.505 1010.18 451.17 1009.8 450.79C1009.42 450.41 1009.05 450.018 1008.72 449.603L1008.36 449.13L1008.45 449.107C1008.81 449.027 1009.18 448.957 1009.54 448.9C1010.26 448.773 1011 448.681 1011.74 448.635C1013.21 448.508 1014.66 448.635 1016.2 448.727C1017.71 448.819 1019.21 448.957 1020.69 449.153L1021.33 449.246L1019.91 458.5C1019.15 458.005 1018.4 457.509 1017.66 457.002ZM1110.32 517.107L1110.22 517.003L1110.28 517.049L1110.32 517.095V517.107ZM1110.1 516.784C1110.1 516.784 1110.13 516.796 1110.14 516.807C1110.24 516.853 1110.34 516.911 1110.4 516.957L1110.25 516.911H1110.22L1110.13 516.876C1110.11 516.876 1110.09 516.865 1110.09 516.865L1109.91 516.68C1109.91 516.68 1110.03 516.738 1110.1 516.784ZM1101.09 449.476L1100.73 449.626C1100.73 449.626 1100.75 449.672 1100.69 449.603C1100.36 449.165 1099.98 448.773 1099.59 448.381C1098.02 446.86 1096.04 445.707 1093.86 445.235C1092.78 445.004 1091.65 444.924 1090.52 445.085C1089.39 445.246 1088.25 445.661 1087.33 446.445C1086.85 446.837 1086.53 447.309 1086.17 447.77C1085.89 448.289 1085.57 448.831 1085.51 449.488C1085.26 450.778 1085.89 452.092 1086.73 452.899C1087.57 453.752 1088.58 454.271 1089.61 454.674C1090.63 455.1 1091.71 455.308 1092.78 455.481C1093.32 455.55 1093.86 455.585 1094.39 455.631C1094.93 455.631 1095.48 455.642 1096.02 455.631C1096.55 455.573 1097.09 455.561 1097.62 455.481C1097.62 455.481 1098.28 455.377 1098.29 455.4C1098.29 455.446 1098.43 456.057 1098.46 456.437C1098.53 456.91 1098.55 457.394 1098.53 457.867C1098.51 458.835 1098.33 459.791 1098.02 460.702C1097.39 462.534 1096.2 464.113 1094.62 465.289C1093.85 465.888 1093 466.395 1092.11 466.799C1091.66 466.995 1091.2 467.168 1090.73 467.306C1090.42 467.41 1089.92 467.536 1089.77 467.559C1089.77 467.536 1089.77 467.525 1089.76 467.49C1089.64 467.237 1089.56 466.972 1089.44 466.73C1089.15 466.257 1088.94 465.727 1088.59 465.3C1087.98 464.367 1087.18 463.583 1086.31 462.88C1084.54 461.543 1082.35 460.725 1080.08 460.771C1078.95 460.806 1077.79 461.048 1076.76 461.589L1076.01 462.062C1075.78 462.246 1075.57 462.454 1075.35 462.65C1074.92 463.053 1074.56 463.56 1074.3 464.113C1073.78 465.22 1073.73 466.522 1074.13 467.686C1074.57 468.965 1075.47 469.542 1076.57 470.199C1078.44 471.282 1080.49 472.043 1082.61 472.435C1083.14 472.538 1083.67 472.607 1084.2 472.665L1085.01 472.723L1085.67 472.746C1085.67 472.746 1085.67 472.792 1085.66 472.861C1085.59 473.334 1085.51 473.818 1085.36 474.267C1084.83 476.111 1083.65 477.736 1082.17 479.027C1079.2 481.632 1075.14 482.946 1071.27 484.018C1069.28 484.502 1067.33 484.79 1065.22 484.905C1064.85 484.94 1064.5 485.066 1064.19 485.251C1064.03 485.343 1063.89 485.458 1063.76 485.585L1063.66 485.677C1063.66 485.677 1063.63 485.712 1063.62 485.735C1063.58 485.769 1063.49 485.85 1063.44 485.919C1062.96 486.484 1062.76 487.279 1062.93 488.005C1063.01 488.363 1063.17 488.697 1063.41 488.996C1063.66 489.308 1064.01 489.538 1064.39 489.653C1064.56 489.711 1064.82 489.746 1064.94 489.746C1064.94 489.746 1064.95 489.746 1064.99 489.746L1065.17 489.803L1065.92 489.999C1069.91 491.094 1073.88 492.27 1077.82 493.537C1079.78 494.171 1081.74 494.828 1083.7 495.508L1086.61 496.592L1087.4 496.834C1087.61 496.903 1087.96 497.007 1088.31 497.018C1088.65 497.041 1089 496.995 1089.33 496.903C1089.49 496.845 1089.66 496.788 1089.8 496.707C1089.97 496.626 1090.13 496.523 1090.17 496.488C1091.85 495.497 1093.53 494.725 1095.38 494.402C1097.22 494.033 1099.12 494.068 1100.94 494.46C1101.85 494.667 1102.75 494.944 1103.6 495.324C1104.66 495.854 1104.79 495.727 1104.65 496.661C1104.47 497.422 1103.98 498.24 1103.44 498.989C1102.9 499.738 1102.26 500.464 1101.61 501.156C1100.94 501.847 1100.25 502.516 1099.52 503.15C1099.16 503.472 1098.8 503.783 1098.43 504.072L1098.15 504.302C1098.06 504.371 1097.87 504.521 1097.77 504.648C1097.53 504.925 1097.38 505.236 1097.29 505.558C1097.09 506.204 1097.14 506.907 1097.48 507.541C1097.65 507.863 1097.92 508.14 1098.24 508.336C1098.4 508.44 1098.58 508.497 1098.75 508.567L1099.11 508.659C1100.03 508.924 1100.94 509.235 1101.83 509.592C1103.59 510.295 1105.33 511.194 1106.86 512.266C1107.62 512.808 1108.35 513.407 1108.83 514.087C1109.09 514.433 1109.26 514.79 1109.34 515.147C1109.38 515.32 1109.39 515.505 1109.38 515.678L1109.34 515.943C1109.34 515.943 1109.31 516.07 1109.3 516.104C1109.28 516.116 1109.23 516.196 1109.18 516.265C1109.11 516.312 1108.98 516.335 1108.9 516.392C1108.66 516.473 1108.4 516.542 1108.1 516.577C1107.52 516.657 1106.9 516.657 1106.26 516.6C1104.18 516.45 1102.06 515.954 1099.97 515.413C1097.88 514.859 1095.82 514.214 1093.76 513.522C1086.55 511.044 1082.96 509.777 1082.8 510.122C1082.83 510.053 1082.65 509.811 1082.08 509.742C1081.82 509.708 1081.44 509.742 1081.04 509.95C1080.65 510.18 1080.38 510.388 1079.96 510.676C1078.42 511.782 1076.11 513.419 1072.78 515.159C1070.82 516.162 1068.79 517.015 1066.72 517.706C1064.62 518.352 1062.49 518.916 1060.31 519.227C1055.94 519.884 1051.43 519.861 1047.08 519.066C1042.72 518.317 1038.52 516.669 1034.7 514.456C1030.91 512.185 1027.46 509.293 1024.67 505.847C1023.27 504.141 1021.98 502.308 1020.93 500.384C1019.98 498.436 1019.18 496.373 1018.7 494.217C1016.68 485.585 1017.9 476.353 1021.03 468.066C1021.44 466.96 1021.86 465.796 1022.44 464.77C1023.33 463.214 1023.78 461.831 1024.06 460.079C1024.22 459.019 1024.39 457.959 1024.55 456.898C1024.88 454.824 1025.2 452.738 1025.5 450.663C1025.64 449.649 1025.89 448.865 1026.51 448.047C1026.72 447.736 1026.95 447.448 1027.18 447.171C1027.41 446.871 1027.64 446.595 1027.9 446.33C1028.14 446.065 1028.39 445.8 1028.66 445.546C1029.71 444.543 1030.89 443.69 1032.2 443.103C1033.49 442.515 1034.89 442.204 1036.31 442.25C1036.88 442.273 1037.44 442.342 1038.01 442.457C1038.94 442.665 1039.87 442.941 1040.77 443.275C1040.91 443.322 1041.04 443.379 1041.18 443.425C1042.14 443.806 1043.12 444.221 1043.95 444.854C1044.99 445.65 1045.88 446.652 1046.62 447.759C1048.09 449.983 1048.96 452.611 1049.42 455.285C1049.65 456.622 1049.79 458.005 1049.85 459.353C1049.87 460.725 1049.84 462.119 1049.77 463.491C1049.64 466.269 1049.35 469.023 1048.9 471.755C1048.45 474.486 1047.84 477.195 1047.08 479.857L1046.49 481.851C1046.36 482.22 1046.26 482.773 1046.39 483.257C1046.5 483.752 1046.77 484.213 1047.13 484.525C1047.84 485.147 1048.87 485.47 1049.88 485.009C1050.36 484.801 1050.74 484.352 1050.93 483.914C1051.04 483.672 1051.08 483.51 1051.13 483.349L1051.3 482.842C1052.15 480.145 1052.85 477.414 1053.39 474.636C1053.67 473.253 1053.9 471.858 1054.1 470.452L1054.35 468.355L1054.55 466.361L1055.06 465.139L1055.65 463.825C1056.04 462.949 1056.46 462.085 1056.87 461.22C1057.73 459.492 1058.63 457.797 1059.59 456.138C1061.52 452.784 1063.61 449.626 1065.98 446.503C1067.79 443.402 1069.93 440.694 1072.47 438.25C1074.98 435.83 1077.89 433.744 1080.93 432.142C1088.31 428.973 1097.02 428.223 1104.71 430.552C1106.59 431.185 1108.39 432.13 1109.61 433.571C1110.19 434.297 1110.66 435.116 1110.88 436.015C1110.9 436.072 1110.89 436.038 1110.9 436.084V436.268L1110.92 436.625C1110.91 436.867 1110.92 437.109 1110.91 437.351C1110.89 437.836 1110.82 438.32 1110.74 438.792C1110.37 440.694 1109.45 442.492 1108.12 443.898L1107.87 444.163L1107.74 444.29C1107.74 444.29 1107.56 444.474 1107.56 444.497L1107.06 445.062C1106.81 445.35 1106.55 445.627 1106.28 445.892C1105.48 446.664 1104.62 447.39 1103.69 448.001C1102.86 448.554 1102 449.05 1101.09 449.465V449.476ZM1094.74 450.802C1094.06 450.79 1093.39 450.732 1092.72 450.594C1092.19 450.49 1091.66 450.341 1091.2 450.145C1091.08 450.098 1090.96 450.029 1090.89 449.995L1090.84 449.96H1090.89L1091.06 449.937C1091.19 449.926 1091.31 449.926 1091.45 449.926C1091.98 449.903 1092.49 449.96 1093 450.087C1093.61 450.237 1094.2 450.467 1094.74 450.802ZM1084.3 467.732C1083.22 467.594 1082.16 467.352 1081.11 467.029C1080.5 466.822 1079.88 466.603 1079.36 466.315C1079.25 466.234 1079.1 466.165 1079 466.084L1078.85 465.969L1078.79 465.9C1078.79 465.9 1079.09 465.761 1079.28 465.738C1079.55 465.692 1079.85 465.681 1080.13 465.692C1080.73 465.715 1081.34 465.854 1081.91 466.061C1082.84 466.407 1083.67 466.983 1084.3 467.732Z" fill="black"/>
<path d="M1110.4 516.957L1110.25 516.911L1110.14 516.807C1110.24 516.853 1110.34 516.911 1110.4 516.957Z" fill="#010101"/>
<path d="M1040.15 453.971C1039.07 453.798 1038.46 454.674 1037.99 455.515C1037.41 456.587 1036.86 457.44 1035.67 457.959C1033.79 458.777 1032.92 457.267 1032.74 455.608C1032.58 454.225 1033.41 451.643 1031.4 451.251C1030.47 451.067 1029.57 451.666 1029.37 452.588C1028.32 460.748 1033.42 463.399 1037.95 460.725C1040.66 459.181 1043.11 454.444 1040.15 453.971Z" fill="black"/>
<path d="M1090.74 507.253C1090.51 506.988 1090.29 506.826 1090.22 506.619C1089.9 505.743 1090.04 504.948 1090.72 504.279C1091.34 503.668 1092.57 503.979 1092.8 504.798C1093.06 505.72 1092.61 506.815 1091.71 507.253C1091.43 507.391 1091.03 507.253 1090.75 507.253H1090.74Z" fill="black"/>
<path d="M1071.41 511.471C1070.87 512.128 1069.83 512.358 1069.12 511.863C1068.87 511.701 1068.69 511.24 1068.72 510.941C1068.84 509.869 1069.88 509.281 1070.88 509.638C1071.56 509.88 1071.86 510.929 1071.41 511.471Z" fill="black"/>
<path d="M1110.69 512.324C1111.36 512.704 1111.52 513.384 1111.29 513.776C1110.86 514.514 1109.63 514.721 1109.13 514.076C1108.86 513.718 1108.74 513.223 1108.62 512.773C1108.54 512.497 1109 512.036 1109.28 512.082C1109.86 512.163 1110.44 512.278 1110.69 512.324Z" fill="black"/>
<path d="M1050.29 516.519C1049.81 517.026 1048.78 517.049 1048.4 516.553C1048.06 516.104 1048.03 515.309 1048.38 514.894C1048.84 514.329 1049.82 514.317 1050.23 514.871C1050.62 515.366 1050.65 516.15 1050.29 516.519Z" fill="black"/>
<path d="M1028.57 502.631C1028.82 502.159 1029.61 501.859 1030.14 502.043C1030.74 502.251 1031.07 503.207 1030.74 503.887C1030.5 504.395 1029.73 504.694 1029.2 504.464C1028.54 504.187 1028.22 503.254 1028.55 502.631H1028.57Z" fill="black"/>
<path d="M1080.24 503.668C1079.96 503.749 1079.64 503.945 1079.33 503.91C1079 503.887 1078.67 503.68 1078.38 503.507C1077.92 503.219 1077.76 502.712 1077.93 502.32C1078.15 501.824 1078.58 501.651 1079.05 501.64C1079.77 501.617 1080.39 502.193 1080.45 502.931C1080.47 503.138 1080.33 503.369 1080.25 503.668H1080.24Z" fill="black"/>
<path d="M1051.86 498.759C1051.54 499.312 1051 499.531 1050.42 499.635C1049.85 499.738 1049.16 499.289 1049.07 498.782C1048.94 498.102 1049.49 497.306 1050.13 497.203C1050.85 497.099 1051.57 497.445 1051.86 498.09C1051.94 498.275 1051.86 498.528 1051.86 498.747V498.759Z" fill="black"/>
<path d="M1034.1 497.03C1033.9 497.168 1033.73 497.353 1033.51 497.422C1033.29 497.491 1033.03 497.468 1032.8 497.422C1032.21 497.283 1031.67 496.638 1031.68 496.154C1031.69 495.635 1032.44 495.071 1032.98 495.151C1033.75 495.267 1034.26 495.923 1034.18 496.684C1034.17 496.799 1034.12 496.915 1034.09 497.041L1034.1 497.03Z" fill="black"/>
<path d="M1039 496.476C1038.09 495.831 1037.96 495.001 1038.56 494.194C1038.86 493.802 1039.56 493.687 1039.82 494.056C1040.09 494.436 1040.32 494.874 1040.47 495.324C1040.63 495.808 1040.33 496.442 1039.91 496.522C1039.57 496.58 1039.22 496.488 1038.99 496.476H1039Z" fill="black"/>
<path d="M1088.26 512.808C1088.05 512.889 1087.73 513.05 1087.38 513.119C1086.9 513.234 1086.43 512.877 1086.32 512.37C1086.22 511.897 1086.46 511.379 1086.91 511.137C1087.36 510.895 1087.83 510.779 1088.29 511.068C1088.74 511.367 1088.77 512.335 1088.27 512.796L1088.26 512.808Z" fill="black"/>
<path d="M1031.39 490.898C1031.55 490.541 1032.2 490.276 1032.59 490.414C1033.45 490.725 1033.76 491.59 1033.27 492.374C1033.06 492.708 1032.36 492.892 1032.02 492.708C1031.44 492.397 1031.12 491.498 1031.39 490.887V490.898Z" fill="black"/>
<path d="M1063.21 478.14C1063.67 478.416 1063.82 479.154 1063.52 479.707C1063.19 480.318 1062.52 480.537 1062.06 480.191C1061.55 479.799 1061.4 479.165 1061.69 478.612C1061.97 478.082 1062.73 477.84 1063.21 478.14Z" fill="black"/>
<path d="M1100.9 497.422C1100.96 497.767 1101.15 498.136 1101.04 498.401C1100.94 498.689 1100.63 498.977 1100.33 499.127C1099.67 499.45 1099.01 499.173 1098.9 498.597C1098.78 497.975 1099.15 497.352 1099.78 497.283C1100.11 497.249 1100.46 497.364 1100.9 497.422Z" fill="black"/>
<path d="M1058.42 514.26C1057.97 513.88 1057.97 513.188 1058.42 512.739C1058.85 512.312 1059.61 512.324 1059.94 512.75C1060.24 513.119 1060.23 513.661 1059.94 514.018C1059.54 514.502 1058.83 514.618 1058.41 514.26H1058.42Z" fill="black"/>
<path d="M1067.73 493.284C1068.2 493.514 1068.37 494.367 1068.04 494.84C1067.71 495.324 1066.89 495.543 1066.49 495.243C1066.04 494.921 1065.85 494.091 1066.14 493.653C1066.42 493.215 1067.22 493.03 1067.73 493.284Z" fill="black"/>
<path d="M1068.33 488.593C1068.67 487.648 1069.39 487.349 1070.31 487.395C1070.75 487.418 1071.19 487.89 1071.2 488.363C1071.22 488.939 1070.64 489.596 1070.11 489.538C1069.37 489.446 1068.7 489.216 1068.31 488.513L1068.33 488.593Z" fill="black"/>
<path d="M1075.71 503.057C1075.71 503.323 1075.81 503.737 1075.65 503.933C1075.07 504.671 1074.31 504.752 1073.45 504.291C1073.14 504.129 1072.93 503.645 1073.08 503.392C1073.2 503.207 1073.37 502.954 1073.55 502.931C1074.13 502.838 1074.72 502.827 1075.3 502.815C1075.4 502.815 1075.5 502.931 1075.7 503.057H1075.71Z" fill="black"/>
<path d="M1026.99 486.692C1027.36 486.934 1027.48 487.567 1027.24 487.925C1026.99 488.282 1026.34 488.466 1026.01 488.271C1025.46 487.936 1025.21 487.268 1025.45 486.784C1025.67 486.346 1026.41 486.3 1027 486.692H1026.99Z" fill="black"/>
<path d="M1081.43 508.809C1081.18 509.293 1080.4 509.546 1079.88 509.327C1079.53 509.178 1079.28 508.486 1079.43 508.106C1079.71 507.403 1080.6 507.103 1081.17 507.529C1081.53 507.783 1081.64 508.394 1081.44 508.82L1081.43 508.809Z" fill="black"/>
<path d="M1037.27 484.986C1036.88 485.482 1036.17 485.516 1035.76 485.067C1035.39 484.663 1035.42 483.972 1035.84 483.488C1036.14 483.13 1036.74 483.107 1037.08 483.418C1037.53 483.833 1037.63 484.536 1037.28 484.986H1037.27Z" fill="black"/>
<path d="M1105.75 514.18C1105.38 514.687 1104.63 514.79 1104.22 514.387C1103.89 514.064 1103.83 513.534 1104.07 513.085C1104.33 512.624 1105.22 512.312 1105.6 512.554C1105.98 512.796 1106.06 513.73 1105.75 514.168V514.18Z" fill="black"/>
<path d="M1069.83 504.441C1070.07 504.636 1070.12 505.121 1069.94 505.386C1069.66 505.812 1069.26 505.985 1068.76 505.939C1068.34 505.893 1067.82 505.374 1067.92 504.982C1067.99 504.694 1068.25 504.36 1068.53 504.245C1068.95 504.049 1069.44 504.095 1069.83 504.452V504.441Z" fill="black"/>
<path d="M1103.79 509.062C1103.43 509.465 1102.76 509.408 1102.63 508.958C1102.54 508.624 1102.51 508.267 1102.52 507.921C1102.53 507.506 1102.85 507.218 1103.18 507.241C1103.54 507.276 1103.88 507.391 1104.02 507.771C1104.19 508.244 1104.17 508.705 1103.79 509.062Z" fill="black"/>
<path d="M1064.79 484.49C1064.67 484.905 1063.93 484.997 1063.55 484.617C1063.2 484.26 1063.04 483.822 1063.11 483.303C1063.17 482.831 1063.76 482.496 1064.18 482.704C1064.88 483.05 1065.15 483.833 1064.78 484.49H1064.79Z" fill="black"/>
<path d="M1031.84 514.179C1031.77 513.834 1031.57 513.476 1031.68 513.257C1031.8 512.992 1032.15 512.739 1032.45 512.693C1032.74 512.647 1033.13 512.773 1033.38 512.946C1033.61 513.108 1033.29 513.96 1032.91 514.099C1032.62 514.202 1032.27 514.156 1031.84 514.179Z" fill="black"/>
<path d="M1102.28 502.608C1102.81 502.838 1103.03 503.484 1102.81 503.853C1102.66 504.106 1102.16 504.256 1101.86 504.152C1101.46 504.002 1101.18 503.299 1101.48 502.988C1101.69 502.769 1102.07 502.712 1102.28 502.608Z" fill="black"/>
<path d="M1037.91 489.239C1038.01 489.607 1038.16 489.919 1038.12 490.195C1038.09 490.506 1037.59 490.599 1037.24 490.414C1036.74 490.138 1036.53 489.492 1036.9 489.319C1037.16 489.204 1037.51 489.262 1037.9 489.227L1037.91 489.239Z" fill="black"/>
<path d="M1023.54 498.92C1023.36 499.012 1023.08 499.231 1022.77 499.3C1022.48 499.369 1022.15 498.897 1022.18 498.574C1022.23 498.078 1022.68 497.652 1023.11 497.687C1023.54 497.721 1023.83 498.355 1023.54 498.92Z" fill="black"/>
<path d="M1027.68 492.074C1027.79 492.281 1027.94 492.477 1028.02 492.708C1028.14 493.053 1027.74 493.422 1027.34 493.353C1026.94 493.272 1026.73 493.019 1026.68 492.604C1026.63 492.316 1026.71 492.085 1026.99 492.028C1027.21 491.982 1027.45 492.062 1027.68 492.085V492.074Z" fill="black"/>
<path d="M1067.28 488.755C1067.04 489.527 1066.52 489.884 1065.71 489.849C1065.38 489.838 1065.08 489.573 1065.05 489.181C1065.02 488.812 1065.12 488.489 1065.5 488.34C1066.22 488.063 1066.86 488.086 1067.29 488.835L1067.27 488.755H1067.28Z" fill="black"/>
<path d="M1063.28 501.064C1063.03 501.11 1062.69 501.26 1062.38 501.214C1062.13 501.179 1062 500.522 1062.2 500.28C1062.41 500.038 1062.71 499.842 1062.99 499.692C1063.26 499.554 1063.47 499.692 1063.52 499.98C1063.55 500.096 1063.58 500.222 1063.56 500.326C1063.5 500.545 1063.4 500.753 1063.27 501.075L1063.28 501.064Z" fill="black"/>
<path d="M1089.72 500.798C1089.72 500.568 1089.66 500.187 1089.79 499.945C1090.01 499.565 1090.81 499.565 1091.02 499.922C1091.12 500.095 1091.12 500.406 1091.02 500.591C1090.77 501.052 1090.15 501.179 1089.71 500.798H1089.72Z" fill="black"/>
<path d="M1078.88 497.767C1078.65 497.802 1078.31 497.917 1078.01 497.859C1077.67 497.802 1077.49 497.283 1077.73 496.995C1077.92 496.753 1078.26 496.511 1078.56 496.5C1078.94 496.476 1079.18 497.283 1078.88 497.779V497.767Z" fill="black"/>
<path d="M1067.72 500.591C1067.61 500.384 1067.44 500.199 1067.37 499.98C1067.27 499.646 1067.54 499.266 1067.9 499.174C1068.25 499.093 1068.61 499.335 1068.68 499.75C1068.71 499.969 1068.68 500.211 1068.62 500.43C1068.52 500.787 1068 500.868 1067.72 500.591Z" fill="black"/>
<path d="M1050.3 493.307C1049.99 493.227 1049.67 493.157 1049.37 493.054C1049.31 493.031 1049.27 492.777 1049.31 492.731C1049.53 492.489 1049.8 492.281 1050.04 492.062C1050.19 492.235 1050.41 492.385 1050.45 492.581C1050.5 492.777 1050.37 493.008 1050.3 493.319V493.307Z" fill="black"/>
<path d="M1075.88 509.212C1075.7 509.223 1075.45 509.316 1075.35 509.235C1075.06 509.004 1075.11 508.601 1075.4 508.428C1075.48 508.382 1075.6 508.382 1075.71 508.394C1076.02 508.451 1076.11 508.924 1075.87 509.212H1075.88Z" fill="black"/>
<path d="M1058.61 507.011C1058.59 507.345 1058.64 507.587 1058.55 507.76C1058.4 508.048 1057.96 508.036 1057.75 507.725C1057.66 507.587 1057.68 507.207 1057.75 507.172C1058 507.068 1058.3 507.057 1058.61 507.011Z" fill="black"/>
<path d="M1053.35 507.76C1053.45 508.221 1053.58 508.52 1053.55 508.809C1053.55 508.935 1053.23 509.154 1053.07 509.131C1052.7 509.097 1052.42 508.762 1052.51 508.44C1052.56 508.209 1052.96 508.059 1053.35 507.76Z" fill="black"/>
<path d="M1040.33 500.879C1040.13 500.833 1039.78 500.845 1039.54 500.695C1039.27 500.522 1039.39 499.98 1039.72 499.842C1039.9 499.761 1040.18 499.784 1040.36 499.876C1040.69 500.072 1040.71 500.533 1040.33 500.879Z" fill="black"/>
<path d="M1070.54 516.761C1070.24 516.703 1070.13 516.53 1070.19 516.231C1070.29 515.597 1070.53 515.424 1071.16 515.539C1071.45 515.597 1071.58 515.758 1071.52 516.058C1071.41 516.669 1071.13 516.865 1070.54 516.761Z" fill="black"/>
<path d="M1043.17 489.181C1042.96 489.204 1042.71 489.308 1042.55 489.227C1042.26 489.077 1042.3 488.616 1042.63 488.363C1042.85 488.19 1043.1 488.248 1043.2 488.536C1043.27 488.732 1043.19 488.974 1043.18 489.193L1043.17 489.181Z" fill="black"/>
<path d="M1028.54 497.237C1028.67 497.433 1028.8 497.629 1028.92 497.814C1028.73 497.917 1028.53 498.102 1028.32 498.113C1028.02 498.125 1027.86 497.883 1028.01 497.606C1028.1 497.433 1028.37 497.353 1028.55 497.237H1028.54Z" fill="black"/>
<path d="M1057.87 502.216C1057.61 502.469 1057.29 502.412 1057.07 502.078C1056.91 501.836 1056.95 501.64 1057.21 501.49C1057.57 501.282 1058 501.317 1058.03 501.582C1058.05 501.789 1057.92 502.008 1057.87 502.216Z" fill="black"/>
<path d="M1040.92 505.57C1041.13 505.582 1041.34 505.593 1041.53 505.628C1041.56 505.628 1041.59 505.858 1041.53 505.939C1041.49 506.02 1041.27 506.1 1041.26 506.077C1041.13 505.916 1041.03 505.743 1040.92 505.559V505.57Z" fill="black"/>
<path d="M1048.36 510.307C1048.29 510.399 1048.24 510.514 1048.16 510.572C1048.07 510.629 1047.94 510.629 1047.84 510.653C1047.87 510.445 1047.88 510.226 1047.94 510.03C1047.94 509.996 1048.18 509.961 1048.25 510.007C1048.32 510.053 1048.32 510.203 1048.36 510.318V510.307Z" fill="black"/>
<path d="M1065.55 517.084C1065.54 516.957 1065.47 516.761 1065.53 516.727C1065.77 516.554 1066.01 516.611 1066.16 516.865C1066.22 516.957 1066.21 517.095 1066.23 517.222C1066 517.176 1065.78 517.13 1065.55 517.084Z" fill="black"/>
<path d="M1036.8 512.209C1036.85 512.301 1036.99 512.405 1036.97 512.474C1036.9 512.681 1036.7 512.693 1036.47 512.485C1036.43 512.439 1036.46 512.289 1036.46 512.197C1036.58 512.197 1036.68 512.197 1036.8 512.209Z" fill="black"/>
<path d="M1025 509.5L1025.2 509.627L1024.95 509.8L1025 509.5Z" fill="black"/>
<path d="M1093.01 511.206C1093.06 511.379 1093.09 511.54 1093.14 511.713C1093.03 511.713 1092.87 511.782 1092.82 511.736C1092.69 511.598 1092.58 511.414 1092.47 511.241C1092.65 511.241 1092.82 511.229 1093.01 511.218V511.206Z" fill="black"/>
<path d="M1068.31 488.501C1068.04 488.916 1067.69 488.904 1067.28 488.755L1067.31 488.835C1067.57 488.409 1067.93 488.432 1068.33 488.582L1068.31 488.49V488.501Z" fill="black"/>
<path d="M1085.89 506.849L1085.83 507.08L1085.67 506.941L1085.89 506.849Z" fill="black"/>
</g>
<path d="M1151.97 476.102C1151.54 476.078 1151.17 475.855 1150.93 475.507C1132.65 452.373 1154.6 437.625 1161.98 456.487C1183.81 451.652 1181.42 480.217 1151.97 476.102Z" fill="black"/>
<g clip-path="url(#clip6_445_197)">
<path d="M1093.72 8.21921C1100.12 7.08973 1111.33 7.99117 1115.13 8.12469C1137.82 8.80361 1149.05 3.66901 1149.39 9.69248C1149.74 15.2354 1119.86 15.6066 1095.75 14.5544C1090.48 14.2284 1089.37 8.96458 1093.69 8.22105L1093.72 8.2286L1093.72 8.21921Z" fill="#E7BB43"/>
<path d="M1115 53.1956C1114.42 48.8268 1115.09 52.8392 1144.63 42.2624C1148.8 40.8448 1155.32 34.9814 1157.56 39.5318C1160.04 44.963 1115.89 60.6847 1114.95 53.3032L1115.01 53.1888L1115 53.1956Z" fill="#E7BB43"/>
<path d="M1177.43 79.7181C1157.9 98.256 1144.27 117.187 1139.43 113.709C1138.32 112.698 1138.24 110.977 1139.26 109.861C1139.31 109.796 1139.38 109.733 1139.45 109.671C1151.76 97.465 1156 92.4673 1173.92 76.3333C1176.34 74.1884 1181.16 76.2243 1177.37 79.8231L1177.43 79.7087L1177.43 79.7181Z" fill="#E7BB43"/>
<path d="M1206.91 114.384C1206.56 115.688 1201.91 128.498 1198.23 133.115C1196.04 135.904 1191.05 134.155 1193.68 129.05C1199.03 118.558 1205.83 96.3286 1210.85 98.9193C1214.73 100.944 1209.27 107.839 1206.91 114.384Z" fill="#E7BB43"/>
<path d="M1222.28 89.1912C1191 77.2602 1170.19 56.6921 1165.64 23.027C1162.21 -2.12502 1166.52 -19.3312 1170.58 -17.5392C1176.68 -14.89 1167.84 -7.31334 1172.59 22.3758C1177.4 53.0129 1196.57 72.8414 1223.11 83.4023C1226.52 84.6978 1225.73 90.4191 1222.28 89.1912Z" fill="#E7BB43"/>
</g>
</g>
<defs>
<clipPath id="clip0_445_197">
<rect width="1200" height="675" fill="white"/>
</clipPath>
<clipPath id="clip1_445_197">
<rect width="136.946" height="106.197" fill="white" transform="translate(569.769 637.456) rotate(2.4411)"/>
</clipPath>
<clipPath id="clip2_445_197">
<rect width="132.054" height="147.812" fill="white" transform="translate(729.663 -5.5332) rotate(17.8867)"/>
</clipPath>
<clipPath id="clip3_445_197">
<rect width="382.226" height="137.794" fill="white" transform="translate(791.773 506)"/>
</clipPath>
<clipPath id="clip4_445_197">
<rect width="72" height="69" fill="white" transform="translate(777 437)"/>
</clipPath>
<clipPath id="clip5_445_197">
<rect width="128" height="179" fill="white" transform="translate(1003 388)"/>
</clipPath>
<clipPath id="clip6_445_197">
<rect width="149.549" height="140.88" fill="white" transform="translate(1103.49 -35.9893) rotate(15)"/>
</clipPath>
</defs>
</svg>
