<svg width="1200" height="675" viewBox="0 0 1200 675" fill="none" xmlns="http://www.w3.org/2000/svg">
<g clip-path="url(#clip0_453_2)">
<path opacity="0.5" d="M-967 66H756" stroke="#5FBFFA" stroke-width="2"/>
<path opacity="0.5" d="M-967 127H756" stroke="#5FBFFA" stroke-width="2"/>
<path opacity="0.5" d="M-967 188H756" stroke="#5FBFFA" stroke-width="2"/>
<path opacity="0.5" d="M-967 247H756" stroke="#5FBFFA" stroke-width="2"/>
<path opacity="0.5" d="M-967 309H756" stroke="#5FBFFA" stroke-width="2"/>
<path opacity="0.5" d="M-967 369H756" stroke="#5FBFFA" stroke-width="2"/>
<path opacity="0.5" d="M-967 430H756" stroke="#5FBFFA" stroke-width="2"/>
<path opacity="0.5" d="M-967 490H756" stroke="#5FBFFA" stroke-width="2"/>
<path opacity="0.5" d="M-967 550H756" stroke="#5FBFFA" stroke-width="2"/>
<path opacity="0.5" d="M-967 610H756" stroke="#5FBFFA" stroke-width="2"/>
<rect x="752" y="-40" width="8" height="762" fill="black"/>
<g clip-path="url(#clip1_453_2)">
<path d="M650.494 698.954L646.027 690.426L652.058 684.465L661.907 687.181L667.248 683.195L679.533 673.754L683.405 686.18L679.602 699.047L671.563 703.296L662.717 704.269L652.41 703.438L650.494 698.954Z" fill="#DB433B"/>
<path d="M628.185 642.352C623.798 642.594 619.444 643.241 615.233 644.676C608.603 646.916 601.358 650.58 597.87 656.966C594.626 664.118 596.325 672.49 602.147 677.935C611.367 686.829 635.952 694.184 660.184 687.952C670.157 685.388 684.065 678.98 683.881 666.737C683.696 654.797 670.512 647.777 660.65 644.771C654.026 642.748 647.378 642.767 640.517 642.449C636.425 642.262 632.293 642.136 628.197 642.353L628.185 642.352Z" fill="#DB433B"/>
<path d="M633.817 656.102C633.817 656.102 633.929 656.144 633.979 656.159L634.079 656.163L633.817 656.102ZM657.891 607.115C657.359 606.866 657.029 606.915 656.933 607.087C656.933 607.087 656.945 607.1 656.958 607.101C656.983 607.102 657.032 607.129 657.057 607.143C657.057 607.143 657.057 607.156 657.069 607.156C661.33 609.293 663.116 614.44 661.065 618.754C658.987 623.118 653.762 624.977 649.398 622.899C648.186 622.317 647.125 621.465 646.287 620.407C649.847 617.973 656.323 612.813 656.914 607.238C656.929 607.188 656.931 607.138 656.933 607.087C656.719 607.078 656.467 607.383 656.34 607.983C655.327 611.623 652.468 614.49 649.551 616.939C648.805 617.563 648.036 618.148 647.255 618.708L645.59 619.911C645.457 620.057 645.061 620.178 645.167 620.347L645.598 620.895C645.849 621.221 646.282 621.706 646.477 621.878C648.014 623.407 650.079 624.366 652.24 624.571C656.595 625.085 661.01 622.12 662.196 617.97C663.558 613.84 661.579 609.064 657.891 607.115ZM622.129 605.692C621.612 605.405 621.27 605.441 621.173 605.626C621.186 605.626 621.198 605.639 621.211 605.64C621.223 605.641 621.223 605.641 621.235 605.654C621.247 605.667 621.272 605.68 621.284 605.694L621.297 605.694C625.473 608.029 627.002 613.278 624.728 617.508C623.673 619.481 621.894 620.969 619.77 621.673C616.242 622.772 612.395 621.586 610.097 618.675C613.372 616.431 620.11 611.332 621.143 605.751C621.144 605.713 621.146 605.675 621.173 605.638C620.973 605.592 620.696 605.87 620.52 606.456C619.258 610.009 616.391 612.776 613.463 615.186C612.705 615.784 611.949 616.37 611.156 616.929L609.556 618.059L608.971 618.463C608.804 618.532 608.977 618.627 609.036 618.718L609.265 618.98C609.577 619.347 609.851 619.724 610.19 620.054C611.689 621.581 613.714 622.601 615.847 622.868C620.145 623.544 624.641 620.733 625.951 616.652C627.447 612.616 625.685 607.798 622.129 605.692Z" fill="black"/>
<path d="M642.772 650.202C642.087 649.996 640.704 649.886 640.129 650.354C639.594 650.785 639.21 651.5 639.018 652.148C638.901 652.547 638.809 652.921 638.673 653.155C638.497 653.438 638.27 653.718 638.02 653.96C637.031 654.977 635.59 655.344 634.417 654.752L634.319 654.697L634.268 654.695C634.268 654.695 634.317 654.723 634.342 654.736L634.092 654.688L634.268 654.695C633.749 654.446 633.311 654.062 633.003 653.594C632.837 653.348 632.697 653.077 632.608 652.808C632.553 652.617 632.416 651.98 632.118 651.589C631.562 650.72 630.511 650.209 629.473 650.303C628.449 650.36 627.474 651.038 627.03 651.978C626.511 652.927 626.826 654.113 627.1 654.781C627.37 655.549 627.768 656.272 628.232 656.935C629.171 658.275 630.475 659.339 631.961 659.995C634.928 661.409 638.689 660.762 641.063 658.63C642.281 657.585 643.207 656.262 643.751 654.759C644.047 654.027 644.158 653.2 644.142 652.379C644.123 651.659 643.814 650.902 643.241 650.449C643.07 650.315 642.922 650.233 642.773 650.189L642.772 650.202ZM633.979 656.159C633.979 656.159 633.866 656.129 633.817 656.101L634.079 656.163L633.979 656.159Z" fill="black"/>
<path d="M631.631 685.183C631.062 689.965 629.054 694.748 625.011 697.868C620.912 700.519 615.892 701.692 611.034 701.144C606.191 700.547 601.449 698.465 598.099 694.778C594.724 691.102 593.265 685.97 593.626 681.066C593.713 680.199 593.851 679.347 594.05 678.511C594.442 676.711 595.071 674.972 595.886 673.329C596.865 671.353 598.117 669.514 599.587 667.874C600.42 666.976 601.312 666.156 602.182 665.298L605.052 663.061L608.161 661.151C608.54 660.826 609.592 660.417 610.366 660.614C611.193 660.738 611.954 661.237 612.403 661.937C613.402 663.354 612.678 665.544 611.238 666.188C610.266 666.803 609.221 667.339 608.296 668.031C606.448 669.377 604.681 670.866 603.28 672.661C600.407 676.145 598.798 680.756 599.62 685.143C600.019 687.317 601.004 689.377 602.498 691.005C604.007 692.608 605.962 693.789 608.073 694.573C612.243 696.163 617.292 695.786 621.058 693.852C624.53 691.112 626.604 686.546 626.277 682.067C626.187 680.94 626.032 679.824 625.605 678.897C625.179 677.958 624.453 677.234 623.579 677.007C621.744 676.563 619.804 678.284 618.605 680.075C618.295 680.553 617.972 681.019 617.723 681.525L617.325 682.29C617.174 682.587 616.944 682.943 616.668 683.208C615.577 684.234 613.71 684.533 612.465 683.269C611.873 682.663 611.843 681.577 611.886 681.176C611.895 680.949 611.665 680.725 611.278 680.633C611.103 680.6 610.9 680.617 610.747 680.66C610.657 680.694 610.645 680.694 610.618 680.731L610.406 680.974C609.888 681.57 609.7 682.445 609.907 683.21C610.114 683.976 610.888 684.45 611.056 685.252C611.316 686.853 610.181 688.318 608.619 688.554C607.845 688.672 607.028 688.31 606.554 687.886C606.003 687.509 605.571 686.974 605.23 686.404C604.547 685.252 604.327 683.918 604.405 682.673C604.575 680.17 605.602 677.666 607.799 676.145C608.913 675.449 610.224 675.189 611.506 675.282C612.135 675.334 612.771 675.487 613.367 675.727C613.664 675.853 613.948 675.991 614.219 676.154C614.366 676.249 614.476 676.329 614.574 676.409L614.976 675.846C615.23 675.516 615.482 675.211 615.76 674.921C616.327 674.327 616.943 673.798 617.618 673.347C619.368 672.236 622.285 671.276 624.374 671.693C625.014 671.758 625.767 671.853 626.531 672.277C628.856 673.347 630.323 675.642 631.019 677.955C631.726 680.293 631.911 682.774 631.631 685.183Z" fill="black"/>
<path d="M633.817 656.102L634.079 656.163L633.979 656.159C633.979 656.159 633.866 656.129 633.817 656.102Z" fill="black"/>
<path d="M634.329 654.749L634.079 654.7L634.255 654.708C634.255 654.708 634.304 654.735 634.329 654.749Z" fill="black"/>
<path d="M686.296 687.892C686.235 692.582 684.542 697.378 681.168 700.792C679.507 702.474 677.543 703.853 675.442 704.924C673.304 705.943 671.053 706.667 668.75 707.136C664.135 707.999 659.335 707.87 654.799 706.567C650.324 705.317 645.809 702.639 643.603 698.168C642.524 695.953 642.204 693.417 642.496 691.007L642.849 689.231C642.956 688.782 643.009 688.128 643.212 687.506C643.579 686.298 644.22 685.165 645.081 684.218C646.789 682.323 649.381 681.286 651.934 681.445C653.205 681.524 654.45 681.905 655.559 682.52C656.127 682.822 656.64 683.21 657.114 683.633C657.333 683.807 657.622 684.147 657.731 684.24C657.809 684.18 658.15 683.892 658.371 683.737C658.865 683.393 659.407 683.1 659.971 682.872C661.076 682.415 662.382 682.256 663.501 682.329C665.792 682.439 668.028 682.963 670.115 684.011C671.139 684.547 672.156 685.246 672.919 686.275C673.709 687.28 674.078 688.683 673.897 689.962C673.769 691.495 672.229 692.704 670.794 692.642C670.062 692.636 669.29 692.414 668.697 691.821C668.091 691.241 667.878 690.311 667.97 689.646C667.97 689.646 667.946 689.607 667.934 689.594C667.825 689.501 667.666 689.381 667.455 689.284C667.048 689.077 666.563 688.918 666.065 688.77C665.066 688.526 663.944 688.213 663.095 688.303C662.614 688.346 662.119 688.425 661.733 688.586C661.309 688.769 661.214 688.942 661.252 688.931C661.25 688.969 661.295 689.097 661.413 689.291C661.601 689.627 661.749 689.986 661.808 690.393C661.949 691.218 661.583 692.111 661.006 692.629C659.914 693.692 658.052 693.865 656.837 692.792C656.206 692.197 656.014 691.684 655.717 691.255C655.433 690.802 655.137 690.348 654.814 689.93C653.636 688.278 651.827 686.624 650.443 687.436C650.287 687.555 650.055 687.672 650.026 687.746C649.854 687.928 649.695 688.123 649.56 688.332C649.266 688.723 649.032 689.167 648.836 689.625C648.432 690.529 648.238 691.529 648.246 692.526C648.236 694.531 649.188 696.451 650.642 697.863C653.649 700.703 658.114 701.877 662.358 702.033C666.641 702.178 671.033 701.217 674.625 698.923C678.328 696.685 680.195 692.539 680.755 688.287C681.251 684.032 680.115 679.619 677.616 676.119C675.141 672.634 671.338 670.1 667.127 669.176C666.261 669.076 665.404 668.472 665.073 667.651C664.741 666.855 664.756 665.909 665.229 665.173C665.986 663.994 668.001 664.345 669.154 664.533C670.281 664.72 671.416 665.033 672.47 665.456C674.975 666.458 677.282 667.957 679.234 669.806C680.592 671.087 681.78 672.526 682.759 674.119C682.817 674.222 682.889 674.326 682.947 674.43C685.411 678.483 686.217 683.247 686.296 687.892Z" fill="black"/>
<path d="M657.891 607.116C657.359 606.866 657.029 606.915 656.933 607.087C656.719 607.078 656.467 607.383 656.34 607.983C655.327 611.623 652.468 614.49 649.551 616.939C648.805 617.563 648.036 618.148 647.255 618.708L645.59 619.911C645.457 620.057 645.061 620.179 645.167 620.347L645.598 620.895C645.849 621.221 646.282 621.706 646.477 621.879C648.014 623.407 650.079 624.366 652.24 624.571C656.595 625.085 661.01 622.12 662.196 617.97C663.558 613.84 661.579 609.064 657.891 607.116ZM657.216 608.159C657.235 607.996 657.242 607.845 657.234 607.718C657.295 607.771 657.369 607.812 657.443 607.866C660.623 609.893 662.008 614.09 660.741 617.479C659.61 620.925 655.955 623.241 652.403 622.825C650.644 622.662 648.936 621.895 647.664 620.668C647.494 620.497 647.566 620.601 647.543 620.549C647.582 620.513 647.491 620.572 647.634 620.477L648.234 620.024C649.029 619.414 649.8 618.779 650.548 618.104C653.474 615.454 656.371 612.285 657.216 608.159Z" fill="black"/>
<path d="M648.9 627.153C648.9 627.153 648.887 627.165 648.886 627.178C648.872 627.215 648.796 627.237 648.695 627.245C648.761 627.173 648.825 627.138 648.875 627.14L648.9 627.141L648.9 627.153Z" fill="black"/>
<path d="M622.129 605.692C621.612 605.405 621.27 605.44 621.173 605.626C620.973 605.592 620.696 605.87 620.52 606.455C619.258 610.009 616.391 612.775 613.463 615.186C612.706 615.784 611.949 616.37 611.156 616.929L609.556 618.059L608.971 618.463C608.804 618.532 608.977 618.627 609.036 618.718L609.265 618.98C609.577 619.347 609.851 619.724 610.19 620.054C611.689 621.581 613.714 622.601 615.847 622.868C620.145 623.543 624.641 620.733 625.951 616.652C627.447 612.616 625.685 607.798 622.129 605.692ZM621.38 606.707C621.412 606.531 621.432 606.368 621.437 606.242C621.497 606.308 621.571 606.362 621.644 606.415C624.706 608.576 625.9 612.802 624.51 616.111C623.256 619.501 619.593 621.678 616.073 621.125C614.316 620.911 612.648 620.096 611.401 618.857C610.639 619.291 613.108 617.58 614.447 616.363C617.384 613.751 620.276 610.696 621.38 606.707Z" fill="black"/>
<path d="M617.939 626.161C617.939 626.161 617.91 626.248 617.846 626.283C617.861 626.208 617.901 626.172 617.939 626.161Z" fill="black"/>
<path d="M617.939 626.161C617.939 626.161 617.91 626.248 617.846 626.283C617.861 626.208 617.901 626.172 617.939 626.161Z" fill="black"/>
<path d="M702.905 657.193C702.598 656.398 702.125 655.659 701.586 654.993C700.52 653.661 699.178 652.594 697.848 651.541C695.493 649.687 692.724 648.359 689.799 647.754C686.999 647.143 684.048 647.131 681.234 647.755C679.833 648.061 678.464 648.533 677.151 649.133C677.139 649.132 677.126 649.144 677.101 649.143C672.158 644.946 666.388 642.14 660.484 640.072C657.587 639.091 654.644 638.297 651.681 637.678C651.959 635.887 652.287 634.122 652.69 632.361C652.909 631.374 653.152 630.4 653.42 629.428L653.615 628.704C653.615 628.704 653.629 628.667 653.642 628.668C653.793 628.674 654.387 628.662 654.755 628.602C659.075 628.155 663.074 625.488 665.203 621.693C667.32 617.899 667.576 613.091 665.687 609.151C663.901 605.19 660.105 602.228 655.838 601.428C651.597 600.591 646.989 601.883 643.872 604.878C640.708 607.796 639.104 612.281 639.68 616.506C640.206 620.741 642.866 624.614 646.591 626.601C647.627 627.15 648.366 627.282 648.695 627.246C648.761 627.173 648.826 627.138 648.876 627.14L648.901 627.141L648.9 627.166C648.9 627.166 648.888 627.166 648.887 627.178C648.873 627.216 648.796 627.238 648.695 627.246C648.497 627.465 648.234 628.008 647.968 628.918C647.266 631.474 646.701 634.086 646.273 636.716C644.067 636.395 641.857 636.15 639.645 635.98C635.508 635.677 631.36 635.626 627.214 635.841L624.931 630.219L623.663 627.112L623.069 625.674C623.069 625.674 623.097 625.6 623.264 625.531C625.379 624.448 627.202 622.811 628.522 620.823C631.238 616.89 631.607 611.482 629.469 607.191C627.37 602.876 622.922 599.81 618.129 599.518C613.354 599.1 608.511 601.454 605.846 605.389C603.094 609.283 602.69 614.614 604.716 618.863C606.691 623.122 611.001 626.181 615.64 626.531C616.872 626.634 617.6 626.437 617.846 626.271C617.862 626.196 617.901 626.16 617.94 626.149C617.94 626.149 617.911 626.236 617.846 626.271C617.773 626.521 617.886 627.106 618.238 628.029L620.708 634.289L621.517 636.329C620.503 636.438 619.488 636.571 618.473 636.717C611.49 637.781 604.466 639.513 597.999 642.983C594.949 644.695 591.916 646.621 589.415 649.366C588.981 649.183 588.534 649.013 588.085 648.905C586.587 648.539 585.042 648.372 583.522 648.521C580.485 648.77 577.609 649.947 575.177 651.672C574.722 651.993 574.278 652.34 573.86 652.688C571.622 654.573 569.843 656.957 568.608 659.604C567.997 660.915 567.522 662.282 567.197 663.693C566.91 665.106 566.761 666.538 566.8 667.978C566.819 669.013 566.925 670.077 567.975 670.588C569.038 671.113 570.461 670.871 571.184 669.892C571.779 669.237 571.771 668.24 571.857 667.701C571.923 667.048 572.013 666.409 572.191 665.786C572.791 663.251 573.965 660.866 575.614 658.881C577.273 656.933 579.433 655.398 581.834 654.693C583.044 654.429 584.288 654.243 585.488 654.483C585.602 654.488 585.702 654.505 585.802 654.522C584.974 656.189 584.392 658.019 584.183 659.952C584.161 660.166 584.14 660.379 584.13 660.593C580.074 661.947 576.851 665.354 574.84 669.039C572.443 673.491 571.212 678.698 572.291 683.865C572.694 685.648 574.86 686.623 576.447 685.795C577.232 685.413 577.831 684.681 578.032 683.82C578.138 683.395 578.144 682.967 578.062 682.522L577.922 681.671C577.564 679.398 577.843 677.013 578.581 674.787C579.32 672.548 580.445 670.413 581.936 668.585C582.704 667.71 583.523 666.849 584.484 666.196C584.562 666.149 584.64 666.089 584.717 666.055C585.243 667.919 586.064 669.682 587.07 671.226C589.014 674.147 591.408 676.582 594.051 678.498C594.443 676.699 595.072 674.96 595.886 673.317C593.767 671.549 591.949 669.516 590.697 667.23C589.43 664.982 589.021 662.442 589.402 660.011C589.796 657.593 591.067 655.276 592.805 653.269C596.018 649.798 600.44 647.262 605.11 645.431C609.804 643.6 614.785 642.45 619.835 641.745C626.713 640.789 633.777 640.762 640.725 641.412C645.119 641.902 649.548 642.444 653.841 643.522C659.13 644.908 664.321 646.82 668.922 649.564C671.196 650.96 673.441 652.443 675.267 654.287C676.455 655.422 677.562 656.668 678.448 658.068C679.417 659.597 680.422 661.179 680.94 662.929C681.69 665.459 680.597 667.733 679.235 669.794C680.593 671.075 681.78 672.513 682.759 674.107C684.028 671.562 684.44 668.111 684.217 665.365C684.636 665.584 685.016 665.853 685.408 666.122C687.121 667.355 688.555 668.943 689.561 670.777C690.581 672.599 691.2 674.643 691.327 676.704C691.38 677.224 691.37 677.753 691.348 678.269C691.285 678.872 691.472 679.801 691.964 680.39C692.894 681.665 694.913 681.928 696.142 680.908C696.756 680.43 697.165 679.703 697.261 678.925C697.303 678.233 697.274 677.74 697.275 677.135C697.223 675.985 697.082 674.843 696.853 673.711C696.369 671.458 695.477 669.301 694.222 667.38C692.047 663.958 688.755 661.282 685.033 659.837C684.902 659.352 684.733 658.878 684.499 658.452C683.794 656.643 682.736 655.122 681.572 653.723L681.623 653.725C682.875 653.337 684.171 653.128 685.483 653.12C688.084 653.055 690.716 653.747 692.995 655.017C694.29 655.728 695.461 656.649 696.488 657.714C697.659 658.937 698.186 659.893 698.775 661.457C699.227 662.687 699.947 663.563 701.36 663.56C702.192 663.558 703.052 663.216 703.598 662.533C704.889 660.961 703.482 658.757 702.906 657.181L702.905 657.193ZM615.847 622.869C613.714 622.601 611.689 621.582 610.19 620.055C609.851 619.725 609.577 619.347 609.265 618.981L609.036 618.719C608.977 618.628 608.804 618.532 608.971 618.464L609.556 618.06L611.156 616.93C611.949 616.371 612.706 615.785 613.463 615.186C616.391 612.776 619.259 610.01 620.52 606.456C620.696 605.871 620.973 605.592 621.173 605.626C621.27 605.441 621.612 605.405 622.129 605.692C625.685 607.799 627.447 612.617 625.951 616.652C624.641 620.734 620.145 623.544 615.847 622.869ZM646.477 621.879C646.282 621.707 645.849 621.222 645.598 620.895L645.167 620.347C645.061 620.179 645.457 620.057 645.59 619.911L647.255 618.708C648.036 618.149 648.805 617.563 649.551 616.939C652.468 614.491 655.327 611.623 656.34 607.983C656.467 607.383 656.719 607.079 656.933 607.088C657.029 606.915 657.359 606.866 657.891 607.116C661.579 609.064 663.558 613.841 662.196 617.97C661.01 622.12 656.595 625.085 652.24 624.572C650.079 624.366 648.014 623.408 646.477 621.879Z" fill="black"/>
<path d="M597.573 677.526C597.702 677.771 597.855 678.029 597.984 678.249C597.791 678.922 597.537 679.857 597.336 680.719C596.463 680.19 595.642 679.638 594.796 679.059C594.551 678.885 594.294 678.71 594.05 678.511C594.442 676.711 595.071 674.972 595.886 673.329C596.616 673.953 597.373 674.528 598.17 675.079C597.954 675.7 597.352 677.087 597.573 677.526Z" fill="black"/>
<path d="M681.572 653.736L680.69 654.013L679.611 654.459L679.136 654.653C678.983 654.685 678.798 654.891 678.694 654.672L677.971 653.885L677.284 653.124L675.513 651.169L674.827 650.408C674.86 650.208 675.358 650.078 675.605 649.912C676.159 649.62 676.844 649.245 677.101 649.143C677.916 649.833 678.705 650.561 679.48 651.325C680.178 652.112 680.901 652.9 681.572 653.736Z" fill="black"/>
<path d="M682.759 674.119C682.399 674.86 681.954 675.535 681.439 676.081C680.129 675.747 678.584 675.581 677.539 674.666C677.065 674.242 676.769 673.788 676.395 673.394C677.132 672.668 677.796 671.877 678.373 671.069C678.668 670.652 678.951 670.236 679.234 669.806C680.592 671.088 681.78 672.526 682.759 674.119Z" fill="black"/>
<path d="M684.209 665.238C684.209 665.238 684.218 665.326 684.216 665.377C684.167 665.337 684.118 665.31 684.069 665.282L683.575 665.021L683.28 664.858C683.207 664.791 683.238 664.641 683.205 664.539L683.056 663.587C682.887 662.52 682.617 661.474 682.282 660.451C682.091 659.888 682.158 659.512 682.351 659.432L682.363 659.433C682.363 659.433 682.391 659.371 682.417 659.347C682.444 659.322 682.482 659.299 682.534 659.276C682.585 659.253 682.636 659.255 682.699 659.245C682.839 659.226 683.002 659.233 683.203 659.266C683.315 659.284 683.428 659.314 683.553 659.344C684.051 659.492 684.548 659.664 685.032 659.849C685.215 660.588 685.321 661.362 685.405 662.06C685.326 663.898 684.854 664.912 684.209 665.238Z" fill="black"/>
<path d="M664.96 671.493C664.599 671.365 664.31 671.34 664.115 671.18C663.336 670.529 663.031 669.696 663.313 668.686C663.567 667.764 664.908 667.379 665.573 668.051C666.311 668.789 666.483 670.07 665.864 670.977C665.676 671.259 665.218 671.353 664.959 671.506L664.96 671.493Z" fill="black"/>
<path d="M653.041 673.823C652.83 674.054 652.625 674.411 652.317 674.549C651.995 674.699 651.566 674.694 651.189 674.678C650.584 674.652 650.172 674.268 650.116 673.799C650.053 673.216 650.36 672.813 650.8 672.542C651.474 672.129 652.373 672.344 652.824 673.007C652.954 673.201 652.955 673.479 653.029 673.81L653.041 673.823Z" fill="black"/>
<path d="M623.002 658.882C623.595 658.895 624.136 659.511 624.157 660.205C624.175 660.963 623.658 661.546 623.031 661.456C622.342 661.364 621.859 660.839 621.825 660.156C621.803 659.499 622.385 658.868 623.002 658.882Z" fill="black"/>
<path d="M669.238 656.653C669.49 656.954 669.845 657.196 669.908 657.501C669.969 657.832 669.824 658.28 669.622 658.574C669.178 659.236 668.392 659.329 667.984 658.844C667.54 658.308 667.548 657.527 668.095 657.121C668.394 656.907 668.789 656.823 669.238 656.64L669.238 656.653Z" fill="black"/>
<path d="M635.525 670.781C636.094 670.742 636.719 671.462 636.667 672.091C636.615 672.732 635.957 673.372 635.416 673.324C634.814 673.261 634.187 672.578 634.224 672.012C634.248 671.445 634.917 670.831 635.537 670.794L635.525 670.781Z" fill="black"/>
<path d="M633.546 666.004C633.34 664.923 633.873 664.252 634.776 663.786C635.202 663.565 635.874 663.782 636.146 664.21C636.476 664.741 636.284 665.692 635.745 665.921C634.999 666.243 634.236 666.387 633.474 665.925L633.547 665.991L633.546 666.004Z" fill="black"/>
<path d="M666.508 652.929C666.608 653.526 666.052 654.158 665.395 654.168C664.953 654.187 664.471 653.662 664.467 653.158C664.464 652.653 664.913 652.167 665.393 652.15C666.024 652.139 666.428 652.421 666.52 652.93L666.508 652.929Z" fill="black"/>
<path d="M678.307 666.109C678.194 666.697 677.525 666.996 677.162 666.627C676.896 666.364 676.67 666.039 676.483 665.703C676.273 665.303 676.418 664.855 676.74 664.705C677.1 664.544 677.481 664.472 677.823 664.751C678.249 665.11 678.47 665.548 678.308 666.096L678.307 666.109Z" fill="black"/>
<path d="M627.966 664.051C628.073 664.51 627.421 664.999 626.86 664.849C626.337 664.701 625.947 664.369 625.73 663.83C625.536 663.355 625.904 662.714 626.423 662.673C627.27 662.621 627.951 663.218 627.967 664.038L627.966 664.051Z" fill="black"/>
<path d="M673.361 660.815C673.995 660.741 674.542 661.231 674.547 661.71C674.546 662.026 674.162 662.451 673.807 662.499C673.336 662.579 672.69 662.06 672.811 661.598C672.888 661.274 673.214 661.01 673.362 660.802L673.361 660.815Z" fill="black"/>
<path d="M611.023 670.934C611.092 671.681 610.732 672.145 610.201 672.173C609.619 672.199 609.196 671.777 609.256 671.25C609.318 670.698 609.752 670.262 610.29 670.373C610.59 670.437 610.84 670.788 611.023 670.934Z" fill="black"/>
<path d="M632.632 666.735C632.822 667.601 632.519 668.218 631.744 668.627C631.422 668.802 630.997 668.708 630.747 668.357C630.522 668.02 630.436 667.663 630.716 667.309C631.248 666.651 631.868 666.324 632.693 666.788L632.62 666.722L632.632 666.735Z" fill="black"/>
<path d="M660.479 665.929C660.363 665.697 660.073 665.394 660.074 665.079C660.069 664.6 660.832 664.165 661.226 664.384C661.411 664.493 661.587 664.79 661.603 665.018C661.629 665.587 661.105 666.056 660.479 665.929Z" fill="black"/>
<path d="M648.544 668.965C648.335 669.12 648.096 669.412 647.776 669.525C647.417 669.661 646.967 669.263 647.034 668.862C647.087 668.524 647.281 668.116 647.541 667.938C647.891 667.713 648.558 668.335 648.543 668.977L648.544 668.965Z" fill="black"/>
<path d="M670.02 649.257C669.802 649.336 669.567 649.528 669.367 649.482C669.079 649.419 668.98 649.087 669.178 648.868C669.311 648.71 669.603 648.672 669.821 648.593C669.887 648.81 669.953 649.04 670.007 649.257L670.02 649.257Z" fill="black"/>
<path d="M615.033 650.546C614.939 650.668 614.883 650.817 614.78 650.85C614.486 650.951 614.316 650.793 614.331 650.453C614.335 650.352 614.452 650.256 614.532 650.158C614.703 650.292 614.861 650.425 615.032 650.558L615.033 650.546Z" fill="black"/>
<path d="M669.254 674.01C669.387 674.142 669.52 674.286 669.641 674.417C669.549 674.489 669.43 674.623 669.355 674.607C669.143 674.547 668.947 674.425 668.749 674.329C668.917 674.222 669.086 674.116 669.254 674.01Z" fill="black"/>
<path d="M633.474 665.938C633.45 666.48 633.102 666.667 632.632 666.735L632.705 666.801C632.728 666.26 633.077 666.073 633.546 666.004L633.474 665.938Z" fill="black"/>
<path d="M660.133 673.76L660.21 674.015L659.973 673.967L660.133 673.76Z" fill="black"/>
</g>
<rect x="1164" y="319" width="7.99999" height="142" rx="3.99999" transform="rotate(180 1164 319)" fill="black"/>
<rect x="938" y="417" width="8" height="69" rx="4" transform="rotate(90 938 417)" fill="black"/>
<rect x="1052" y="61" width="8.00001" height="163" rx="4" transform="rotate(90 1052 61)" fill="black"/>
<rect x="806" y="285" width="7.99999" height="68" rx="4" transform="rotate(180 806 285)" fill="black"/>
<rect x="806" y="365" width="8" height="46" rx="4" transform="rotate(180 806 365)" fill="black"/>
<g clip-path="url(#clip2_453_2)">
<path d="M808.308 121.194C800.923 120.698 807.666 97.8238 799.759 103.826C795.439 107.213 792.94 117.178 786.773 116.776C777.598 116.032 757.31 110.743 776.899 125.006C782.505 129.033 780.257 131.169 778.642 133.18C772.105 141.842 771.268 144.434 771.367 145.724C773.002 151.331 790.222 134.055 794.799 139.337C805.268 150.657 805.775 152.079 808.134 151.582C810.496 151.071 808.549 144.404 807.375 138.333C805.965 129.323 834.625 123.35 808.293 121.19L808.308 121.194Z" fill="black"/>
<path d="M790.889 30.8939C786.411 32.4995 784.583 17.3477 781.447 22.9091C779.764 25.9985 780.805 32.4829 777.077 33.843C771.484 35.7649 758.192 37.8755 773.344 41.2085C777.66 42.1299 776.884 43.9551 776.444 45.5588C774.792 52.322 774.949 54.0554 775.335 54.7931C777.716 57.6532 783.489 43.099 787.526 45.0309C796.554 48.9825 797.217 49.6837 798.473 48.7841C799.73 47.8845 796.903 44.4719 794.669 41.2033C791.55 36.2811 806.918 25.4209 790.865 30.9178L790.889 30.8939Z" fill="#E7BB43"/>
<path d="M841.804 64.6866C837.679 62.349 847.812 50.9475 841.609 52.2479C838.197 53.0178 834.016 58.1002 830.575 56.1562C825.488 53.1778 815.215 44.4844 822.621 58.1968C824.751 62.0766 822.882 62.7 821.403 63.4179C815.27 66.6279 814.082 67.8955 813.768 68.6748C813.179 72.3845 827.843 67.1316 829.047 71.4672C831.995 80.9262 831.899 81.9015 833.404 82.2614C834.909 82.6213 835.615 78.2103 836.593 74.3587C838.235 68.74 856.414 73.2229 841.808 64.6723L841.804 64.6866Z" fill="#F39745"/>
<path d="M741.024 72.947C736.488 71.5932 743.889 58.2249 738.108 60.8726C734.94 62.3819 731.985 68.2531 728.184 67.1363C722.566 65.3702 710.644 59.1795 720.862 70.8904C723.801 74.1976 722.099 75.2209 720.815 76.2532C715.531 80.7438 714.64 82.2489 714.514 83.0732C714.756 86.8153 727.92 78.4362 730.037 82.406C734.989 90.9705 735.113 91.9384 736.648 91.9622C738.188 91.9717 737.909 87.5255 738.036 83.5566C738.409 77.717 757.15 78.0413 741.005 72.9566L741.024 72.947Z" fill="#64A03D"/>
</g>
<g clip-path="url(#clip3_453_2)">
<path d="M1093.72 18.2192C1100.12 17.0897 1111.33 17.9912 1115.13 18.1247C1137.82 18.8036 1149.05 13.669 1149.39 19.6925C1149.74 25.2354 1119.86 25.6066 1095.75 24.5544C1090.48 24.2284 1089.37 18.9646 1093.69 18.221L1093.72 18.2286L1093.72 18.2192Z" fill="#E7BB43"/>
<path d="M1115 63.1956C1114.42 58.8268 1115.09 62.8392 1144.63 52.2624C1148.8 50.8448 1155.32 44.9814 1157.56 49.5318C1160.04 54.963 1115.89 70.6847 1114.95 63.3032L1115.01 63.1888L1115 63.1956Z" fill="#E7BB43"/>
<path d="M1177.43 89.7181C1157.9 108.256 1144.27 127.187 1139.43 123.709C1138.32 122.698 1138.24 120.977 1139.26 119.861C1139.31 119.796 1139.38 119.733 1139.45 119.671C1151.76 107.465 1156 102.467 1173.92 86.3333C1176.34 84.1884 1181.16 86.2243 1177.37 89.8231L1177.43 89.7087L1177.43 89.7181Z" fill="#E7BB43"/>
<path d="M1206.91 124.384C1206.56 125.688 1201.91 138.498 1198.23 143.115C1196.04 145.904 1191.05 144.155 1193.68 139.05C1199.03 128.558 1205.83 106.329 1210.85 108.919C1214.73 110.944 1209.27 117.839 1206.91 124.384Z" fill="#E7BB43"/>
<path d="M1222.28 99.1912C1191 87.2602 1170.19 66.6921 1165.64 33.027C1162.21 7.87498 1166.52 -9.33125 1170.58 -7.53923C1176.68 -4.88999 1167.84 2.68666 1172.59 32.3758C1177.4 63.0129 1196.57 82.8414 1223.11 93.4023C1226.52 94.6978 1225.73 100.419 1222.28 99.1912Z" fill="#E7BB43"/>
</g>
<g clip-path="url(#clip4_453_2)">
<path d="M903.298 493.04C903.298 496.795 898.904 502.167 894.511 505.02C894.36 505.132 894.286 505.206 894.286 505.283C894.286 505.36 894.398 505.357 894.623 505.357C894.735 505.357 896.5 505.245 897.515 505.245C898.079 505.245 898.603 505.245 899.055 505.283C899.469 505.321 899.806 505.62 899.88 505.996C900.066 506.785 900.294 508.249 900.445 509.375C900.445 509.751 900.181 510.014 899.768 510.052C897.402 510.203 889.854 510.653 887.45 510.765C887.036 510.765 886.587 510.614 886.398 510.239C886.022 509.414 885.383 507.084 885.383 506.783C885.383 506.445 885.572 506.106 885.833 505.919C893.044 501.449 898.038 494.388 898.115 491.798C898.077 490.672 897.213 490.258 896.388 490.258C895.073 490.258 893.008 491.647 891.468 494.089C891.356 494.276 891.167 494.391 890.942 494.391C890.717 494.391 890.492 494.24 890.492 494.24C889.629 493.678 888.615 492.85 888.05 492.212C887.864 492.025 887.749 491.762 887.749 491.461C887.749 491.348 887.787 491.159 887.823 491.047C888.536 489.282 891.353 485.45 895.034 485.45C898.452 485.45 903.298 489.169 903.298 493.037V493.04Z" fill="black"/>
<path d="M904.951 507.087C904.049 505.585 903.786 503.293 903.786 501.377C903.786 496.419 906.453 485.604 913.475 485.604C914.977 485.604 919.146 487.256 920.574 489.698C921.399 491.126 921.7 492.927 921.7 494.657C921.7 500.253 918.847 510.806 911.935 510.806C910.471 510.806 906.601 509.49 904.948 507.087H904.951ZM909.12 502.202C909.12 505.171 910.134 506.034 911.148 506.034C913.927 506.034 916.257 498.785 916.257 493.527C916.257 490.937 915.432 490.222 914.53 490.222C911.825 490.222 909.122 497.019 909.122 502.202H909.12Z" fill="black"/>
<path d="M938.902 493.04C938.902 496.795 934.508 502.167 930.115 505.02C929.964 505.132 929.89 505.206 929.89 505.283C929.89 505.36 930.002 505.357 930.227 505.357C930.339 505.357 932.105 505.245 933.119 505.245C933.683 505.245 934.207 505.245 934.659 505.283C935.073 505.321 935.41 505.62 935.484 505.996C935.671 506.785 935.898 508.249 936.049 509.375C936.049 509.751 935.786 510.014 935.372 510.052C933.006 510.203 925.458 510.653 923.054 510.765C922.64 510.765 922.191 510.614 922.002 510.239C921.626 509.414 920.988 507.084 920.988 506.783C920.988 506.445 921.177 506.106 921.437 505.919C928.648 501.449 933.642 494.388 933.719 491.798C933.681 490.672 932.817 490.258 931.992 490.258C930.677 490.258 928.613 491.647 927.072 494.089C926.96 494.276 926.771 494.391 926.546 494.391C926.321 494.391 926.096 494.24 926.096 494.24C925.233 493.678 924.219 492.85 923.654 492.212C923.468 492.025 923.353 491.762 923.353 491.461C923.353 491.348 923.391 491.159 923.427 491.047C924.14 489.282 926.957 485.45 930.638 485.45C934.056 485.45 938.902 489.169 938.902 493.037V493.04Z" fill="black"/>
<path d="M954.3 499.686C954.75 499.686 954.939 499.987 955.013 500.363C955.164 501.226 955.35 502.879 955.35 503.893C955.35 504.23 955.125 504.57 954.712 504.57C954.525 504.57 953.059 504.608 952.872 504.608C952.423 504.608 952.195 504.946 952.121 505.321C951.897 506.935 951.633 508.55 951.444 510.129C951.406 510.504 951.143 510.729 950.806 510.729C950.167 510.729 947.914 510.052 947.163 509.753C946.713 509.602 946.486 509.189 946.486 508.813C946.524 507.95 946.749 505.658 946.749 505.508C946.749 505.206 946.524 505.02 946.261 505.02C945.398 505.02 940.366 505.508 940.064 505.508C939.615 505.508 939.275 505.321 939.124 504.981C938.749 504.23 937.924 501.901 937.924 501.339C937.924 501.001 938.036 500.626 938.225 500.399C940.93 496.794 946.749 488.418 948.514 486.127C948.701 485.902 948.928 485.751 949.227 485.751C949.564 485.751 950.28 486.239 950.543 486.239C950.693 486.239 950.806 486.165 950.88 486.014C950.992 485.79 951.255 485.601 951.557 485.601C952.006 485.601 954.561 486.313 955.537 486.653C955.838 486.765 955.95 487.029 955.95 487.292C955.95 487.366 955.912 487.555 955.912 487.555C955.235 489.583 954.185 493.752 953.207 498.897C953.207 498.897 953.169 499.121 953.169 499.234C953.169 499.459 953.319 499.683 953.582 499.683H954.295L954.3 499.686ZM943.937 500.061C943.937 500.174 944.049 500.286 944.238 500.286C944.312 500.286 946.042 500.1 946.943 500.023C947.319 499.985 947.544 499.798 947.62 499.423C948.034 497.093 948.785 493.45 948.785 493.187C948.785 493.075 948.785 493.001 948.747 493.001C948.673 493.001 948.56 493.152 948.56 493.152C948.111 493.752 944.43 499.236 944.054 499.798C943.98 499.911 943.942 499.985 943.942 500.061H943.937Z" fill="black"/>
<path d="M951.248 576.803C950.16 576.203 948.167 574.248 947.079 573.122C946.816 572.859 946.703 572.522 946.703 572.182C946.703 569.364 948.658 559.826 949.595 556.52C949.633 556.37 949.633 556.183 949.633 556.033C949.633 555.243 949.483 554.004 949.483 553.78C949.483 553.478 949.633 553.218 949.932 553.103C952.035 552.201 954.589 551.601 956.203 551.601C961.987 551.601 966.608 557.836 966.608 562.567C966.608 569.965 960.148 576.502 952.637 577.025C952.149 577.025 951.662 576.987 951.248 576.8V576.803ZM961.425 560.917C961.425 558.099 959.059 556.411 956.505 556.411C956.242 556.411 956.017 556.411 955.754 556.449C955.304 556.523 955.077 556.712 955.003 557.088C954.101 560.769 952.901 565.99 952.149 570.946C952.149 570.946 952.111 571.17 952.111 571.247C952.111 571.548 952.298 571.661 952.637 571.661C955.455 571.661 961.425 568.018 961.425 560.919V560.917Z" fill="black"/>
<path d="M986.4 554.081V555.021C986.4 561.443 984.259 577.066 976.335 577.066C973.219 577.066 970.1 574.963 969.011 573.423C968.186 572.258 967.811 570.342 967.811 568.577C967.811 562.418 970.176 554.87 971.379 552.614C971.604 552.239 971.867 552.014 972.355 552.014C973.068 552.014 975.06 552.653 975.998 552.99C976.299 553.102 976.447 553.44 976.447 553.741C976.447 553.93 976.373 554.155 976.373 554.155C974.871 558.211 973.18 565.272 973.18 568.802C973.18 570.756 973.556 572.108 975.058 572.108C977.198 572.108 978.402 568.914 979.377 565.009C980.504 560.538 981.181 554.755 981.367 552.803C981.406 552.428 981.669 552.203 982.006 552.203C982.57 552.203 984.824 552.768 985.725 553.105C986.175 553.291 986.364 553.705 986.402 554.081H986.4Z" fill="black"/>
<path d="M998.983 567.901C998.983 568.087 999.095 568.238 999.095 568.238C1000.37 570.228 1001.87 572.368 1003.11 573.459C1003.26 573.61 1003.34 573.796 1003.34 573.985C1003.34 574.136 1003.26 574.287 1003.15 574.435C1002.33 575.224 1000.75 576.389 999.66 576.877C999.66 576.877 999.509 576.951 999.284 576.951C998.947 576.951 998.646 576.8 998.459 576.65C996.393 574.884 994.74 571.129 994.101 568.912C993.951 568.537 993.8 568.273 993.501 568.273H993.051C992.676 568.273 992.525 568.46 992.487 568.838C992.037 571.354 991.662 573.944 991.399 576.386C991.325 576.762 991.062 576.987 990.722 576.987C989.932 576.987 987.191 576.123 986.928 576.011C986.364 575.786 986.29 575.446 986.251 575.071C986.326 570.79 988.091 561.663 989.519 556.142C989.593 555.841 989.593 555.693 989.593 555.542C989.593 554.903 989.406 554.114 989.406 553.815C989.406 553.478 989.669 553.177 989.932 553.064C991.396 552.464 993.912 551.713 997.031 551.713C1001.88 551.713 1005.74 556.822 1005.74 560.051C1005.74 563.279 1003 566.174 999.397 567.448C999.134 567.561 998.983 567.673 998.983 567.898V567.901ZM994.965 557.085C994.814 557.611 993.463 563.244 993.463 563.619C993.463 563.882 993.613 563.995 993.877 563.995C997.368 563.995 1000.15 561.405 1000.15 559.149C1000.15 557.195 998.569 556.37 996.73 556.37C996.428 556.37 996.13 556.37 995.828 556.408C995.34 556.446 995.077 556.709 994.965 557.085Z" fill="black"/>
<path d="M1022.23 551.864C1022.83 551.864 1025.39 552.576 1026.33 552.916C1026.59 553.029 1026.78 553.292 1026.78 553.593C1026.78 553.706 1026.74 553.818 1026.74 553.818C1025.54 557.236 1023.17 567.489 1022.15 576.389C1022.12 576.765 1021.85 576.954 1021.55 576.954C1020.8 576.954 1018.14 576.164 1017.72 576.014C1017.23 575.827 1017.08 575.487 1017.05 575.038C1017.05 573.385 1017.57 569.817 1017.57 569.592C1017.57 569.29 1017.35 569.066 1016.97 569.066C1015.69 569.14 1014.04 569.178 1012.61 569.216C1012.2 569.216 1011.94 569.553 1011.86 569.893C1011.49 572.072 1011.15 574.251 1010.92 576.392C1010.88 576.767 1010.59 576.956 1010.28 576.956C1009.49 576.956 1006.9 576.205 1006.45 576.016C1006.08 575.866 1005.85 575.49 1005.81 575.04C1005.89 573.163 1006.38 569.482 1006.38 569.331C1006.38 569.106 1006.3 568.994 1006.19 568.882C1006.11 568.769 1006 568.657 1005.93 568.432C1005.78 567.87 1005.66 566.856 1005.62 566.102C1005.62 565.614 1005.74 565.425 1006.41 565.239C1006.94 565.088 1007.16 564.825 1007.24 564.488C1008.14 559.379 1009.42 554.311 1010.2 552.395C1010.36 552.094 1010.62 551.907 1010.96 551.907C1011.63 551.907 1014.22 552.584 1015.09 552.921C1015.35 552.995 1015.54 553.335 1015.54 553.634C1015.54 553.746 1015.46 553.971 1015.46 553.971C1014.78 555.775 1013.92 559.228 1012.98 563.66C1012.98 563.66 1012.95 563.847 1012.95 563.962C1012.95 564.225 1013.17 564.45 1013.47 564.45C1013.62 564.45 1017.04 564.337 1017.79 564.337C1018.17 564.337 1018.5 564.074 1018.58 563.699C1019.52 558.891 1020.68 554.234 1021.47 552.395C1021.58 552.094 1021.89 551.869 1022.22 551.869L1022.23 551.864Z" fill="black"/>
<path d="M1026.1 570.455C1026.1 570.006 1025.46 568.427 1025.46 567.75C1025.46 567.374 1025.65 567.111 1026.06 567.037C1026.47 566.963 1026.96 566.851 1026.96 566.851C1027.49 566.738 1027.64 566.549 1027.86 566.1C1029.85 562.156 1033.09 554.607 1034.77 552.617C1035 552.354 1035.26 552.28 1035.52 552.28C1035.9 552.28 1036.58 552.543 1036.8 552.543C1037.1 552.543 1037.4 552.357 1037.44 552.055C1037.48 551.792 1037.63 551.567 1037.93 551.567C1038.45 551.567 1041.12 552.507 1041.72 552.806C1042.14 552.995 1042.4 553.371 1042.47 553.82C1042.89 555.961 1043.07 562.309 1043.07 567.942C1043.07 571.51 1042.96 574.739 1042.77 576.43C1042.73 576.731 1042.47 576.995 1042.02 576.995C1041.38 576.995 1038.72 576.581 1038.04 576.356C1037.67 576.244 1037.44 575.906 1037.44 575.38C1037.44 574.517 1037.55 571.776 1037.55 571.173C1037.55 570.836 1037.33 570.608 1036.95 570.608C1035.26 570.608 1032.56 570.759 1032.11 570.797C1031.66 570.836 1031.47 571.022 1031.24 571.474C1030.53 573.05 1029.89 575.079 1029.33 576.394C1029.18 576.696 1028.91 576.844 1028.65 576.844C1028.05 576.844 1025.83 575.791 1025.23 575.38C1024.97 575.194 1024.78 574.966 1024.78 574.629C1024.78 574.44 1024.82 574.328 1024.82 574.328L1026.02 570.91C1026.1 570.723 1026.1 570.608 1026.1 570.46L1026.1 570.455ZM1033.46 565.798C1033.46 566.023 1033.61 566.1 1033.99 566.1C1034.93 566.1 1036.46 566.061 1036.95 566.061C1037.37 566.061 1037.59 565.875 1037.67 565.349C1037.7 564.524 1037.7 563.658 1037.7 562.794C1037.7 560.728 1037.63 558.738 1037.59 557.537C1037.59 557.312 1037.52 557.2 1037.44 557.2C1037.36 557.2 1037.29 557.274 1037.22 557.425C1036.28 559.453 1034.96 562.419 1033.53 565.574C1033.53 565.574 1033.46 565.724 1033.46 565.798Z" fill="black"/>
<path d="M1049.57 576.989C1048.78 576.989 1046.46 576.277 1045.85 576.049C1045.36 575.86 1045.21 575.485 1045.18 575.073C1045.36 569.627 1048.22 555.956 1049.76 552.502C1049.91 552.165 1050.32 551.938 1050.77 551.938C1051.3 551.938 1055.2 552.727 1056.82 553.401C1057.23 553.588 1057.27 554.002 1057.27 554.377C1057.31 555.841 1057.31 561.438 1057.27 564.894C1057.27 565.045 1057.31 565.195 1057.38 565.195C1057.45 565.195 1057.57 564.932 1057.57 564.932C1059.14 560.988 1060.91 555.956 1062.71 552.351C1062.9 552.05 1063.2 551.825 1063.61 551.825C1064.78 551.825 1068.98 552.952 1070.22 553.516C1070.56 553.629 1070.71 553.93 1070.71 554.229C1070.71 554.341 1070.67 554.454 1070.67 554.454C1069.44 558.285 1067.22 567.862 1066.24 576.425C1066.2 576.762 1065.9 576.989 1065.57 576.989C1064.96 576.989 1062.48 576.389 1061.77 576.049C1061.32 575.824 1061.13 575.485 1061.09 575.073C1061.09 571.392 1063.42 561.44 1063.42 560.991C1063.42 560.917 1063.39 560.84 1063.35 560.84C1063.31 560.84 1063.24 560.914 1063.16 561.065C1061.7 564.408 1060.42 568.501 1058.69 573.045C1058.58 573.347 1058.24 573.61 1057.9 573.61C1057.34 573.61 1055.12 572.897 1054.15 572.445C1053.7 572.22 1053.51 571.768 1053.47 571.392C1053.06 568.462 1053.17 564.03 1053.06 560.914C1053.02 560.725 1052.98 560.651 1052.94 560.651C1052.91 560.651 1052.83 560.725 1052.79 560.876C1051.82 565.157 1050.88 570.94 1050.28 576.425C1050.2 576.762 1049.9 576.989 1049.56 576.989H1049.57Z" fill="black"/>
<path d="M862.306 508.854C863.236 508.854 867.053 509.988 867.724 510.351C868.085 510.558 868.343 510.918 868.343 511.332C868.343 511.434 868.292 511.641 868.292 511.641C866.537 516.594 863.08 530.886 861.481 543.786C861.43 544.302 861.016 544.612 860.551 544.612C859.726 544.612 857.146 543.889 856.372 543.58C855.907 543.373 855.547 542.961 855.496 542.238L855.394 540.535C855.394 540.277 855.292 540.019 855.136 540.019C855.034 540.019 854.929 540.07 854.776 540.277C853.126 542.701 851.164 544.765 849.514 544.765C845.902 544.765 841.825 540.07 841.825 535.426C841.825 526.963 846.16 518.295 852.661 518.295C853.849 518.295 855.448 518.914 857.098 519.792C857.098 519.792 857.356 519.948 857.512 519.948C857.821 519.948 858.028 519.741 858.13 519.276C859.213 514.788 860.245 511.434 861.124 509.574C861.331 509.161 861.796 508.852 862.312 508.852L862.306 508.854ZM855.238 533.778C855.805 531.096 856.786 526.245 856.786 525.831C856.786 525.471 856.63 525.159 856.219 525.006C855.496 524.748 854.827 524.592 854.413 524.592C851.059 524.592 849.202 531.66 849.202 535.221C849.202 536.718 849.562 537.75 850.027 537.75C851.11 537.75 853.072 536.358 854.569 534.963C854.983 534.603 855.187 534.138 855.241 533.775L855.238 533.778Z" fill="black"/>
<path d="M873.916 516.39C877.012 516.39 878.921 514.428 878.921 511.694C878.921 508.65 875.927 507.411 873.452 507.411C872.936 507.411 872.162 507.669 871.801 507.927C870.718 508.803 869.582 510.198 869.582 512.004C869.582 514.377 870.923 516.39 873.916 516.39Z" fill="black"/>
<path d="M890.842 542.343L890.686 540.177C890.686 539.919 890.584 539.763 890.48 539.763C890.375 539.763 890.273 539.865 890.17 540.021C888.364 542.91 886.3 544.767 884.701 544.767C881.038 544.767 876.961 540.279 876.961 535.428C876.961 526.812 881.089 518.298 888.211 518.298C890.74 518.298 895.9 520.311 899.614 522.735C899.974 522.942 900.232 523.353 900.232 523.818C900.232 523.974 900.13 524.385 900.13 524.385C898.066 531.711 897.343 539.709 897.241 543.837C897.19 544.302 896.827 544.662 896.365 544.662C895.024 544.662 892.186 543.888 891.772 543.682C891.1 543.321 890.896 542.856 890.842 542.34V542.343ZM890.377 533.778C890.944 531.096 891.925 526.245 891.925 525.831C891.925 525.471 891.77 525.159 891.358 525.006C890.635 524.748 889.966 524.592 889.552 524.592C886.198 524.592 884.341 531.66 884.341 535.221C884.341 536.718 884.701 537.75 885.166 537.75C886.249 537.75 888.211 536.358 889.708 534.963C890.122 534.603 890.326 534.138 890.38 533.775L890.377 533.778Z" fill="black"/>
<path d="M917.981 518.4C920.561 518.4 924.275 522.168 924.275 524.748C924.275 527.07 922.313 537.855 920.714 543.891C920.558 544.305 920.096 544.716 919.631 544.716C918.443 544.716 915.401 543.582 914.264 542.961C913.85 542.703 913.646 542.239 913.646 541.774C913.646 541.567 913.697 541.309 913.697 541.309C913.697 541.309 916.328 530.473 916.328 527.17C916.328 526.294 916.172 525.724 915.812 525.724C915.038 525.724 912.818 526.963 910.91 528.922C910.394 529.438 910.136 530.056 910.034 530.572C909.104 535.216 907.97 540.994 907.352 543.832C907.25 544.297 906.836 544.658 906.371 544.658C905.237 544.658 901.829 543.523 901.109 543.161C900.644 542.903 900.437 542.489 900.437 542.026C900.437 541.666 903.533 523.399 904.151 519.169C904.253 518.653 904.718 518.293 905.183 518.293C905.75 518.293 909.155 518.911 910.136 519.325C910.703 519.583 911.066 520.15 911.066 520.717C911.066 521.233 911.117 522.007 911.117 522.781C911.117 523.09 911.219 523.246 911.324 523.246C911.48 523.246 911.684 522.988 911.684 522.988C913.748 520.357 916.121 518.395 917.978 518.395L917.981 518.4Z" fill="black"/>
<path d="M936.815 518.298C939.137 518.298 944.813 520.518 948.116 522.633C948.476 522.891 948.683 523.356 948.683 523.821C948.683 524.028 948.632 524.234 948.632 524.234C947.549 528.672 946.154 537.237 944.918 543.48C944.3 546.678 941.822 554.16 934.186 554.16C932.329 554.16 929.026 553.128 927.427 551.94C926.962 551.631 926.809 551.268 926.809 550.857C926.809 550.239 927.532 547.761 927.79 547.194C927.946 546.834 928.255 546.627 928.615 546.627C928.717 546.627 928.924 546.678 929.029 546.729C930.577 547.401 931.918 547.659 932.899 547.659C937.129 547.659 938.419 542.964 938.419 540.795C938.419 540.537 938.317 540.381 938.212 540.381C938.108 540.381 938.056 540.432 937.903 540.639C936.355 542.805 934.549 544.407 933.052 544.407C929.389 544.407 925.468 540.123 925.468 535.119C925.468 526.449 929.854 518.298 936.82 518.298H936.815ZM938.879 533.778C939.446 531.096 940.427 526.245 940.427 525.831C940.427 525.471 940.271 525.159 939.86 525.006C939.137 524.748 938.468 524.592 938.054 524.592C934.7 524.592 932.843 531.66 932.843 535.221C932.843 536.718 933.203 537.75 933.668 537.75C934.751 537.75 936.713 536.358 938.21 534.963C938.624 534.603 938.828 534.138 938.879 533.775V533.778Z" fill="black"/>
<path d="M971.75 528.72C971.75 533.313 968.963 544.768 960.656 544.768C958.334 544.768 953.948 543.478 951.575 540.949C950.129 539.401 949.408 537.027 949.408 534.138C949.408 528.255 952.865 518.247 959.986 518.247C962.669 518.247 967.52 520.26 969.739 522.477C971.081 523.869 971.701 526.347 971.752 528.462V528.72H971.75ZM964.214 528.102C964.214 525.78 963.491 524.232 962.099 524.232C959.261 524.232 956.837 530.991 956.837 535.119C956.837 537.183 957.509 538.68 959.003 538.68C962.15 538.68 964.214 532.023 964.214 528.102Z" fill="black"/>
<path d="M985.886 529.752C985.886 529.338 986.558 526.863 986.558 525.882C986.558 524.901 986.3 524.283 985.577 524.283C983.306 524.283 980.417 529.701 980.417 533.88C980.417 536.409 981.551 537.957 983.462 537.957C985.268 537.957 987.23 537.234 988.673 536.409C988.673 536.409 988.88 536.307 989.087 536.307C989.447 536.307 989.654 536.463 989.861 536.823C990.221 537.495 991.202 539.61 991.202 540.333C991.202 540.9 990.995 541.314 990.686 541.623C988.829 543.273 986.402 544.77 983.513 544.77C981.809 544.77 977.063 543.378 975.101 540.9C973.709 539.145 972.986 536.928 972.986 534.09C972.986 526.866 977.733 518.25 983.615 518.25C985.628 518.25 993.573 520.985 993.573 525.164C993.573 526.403 992.592 528.879 992.076 529.706C991.818 530.12 991.404 530.429 990.837 530.48C990.012 530.531 987.843 530.531 986.658 530.531C986.193 530.48 985.884 530.171 985.884 529.757L985.886 529.752Z" fill="black"/>
<path d="M1016.69 528.72C1016.69 533.313 1013.9 544.768 1005.6 544.768C1003.27 544.768 998.888 543.478 996.515 540.949C995.069 539.401 994.349 537.027 994.349 534.138C994.349 528.255 997.805 518.247 1004.93 518.247C1007.61 518.247 1012.46 520.26 1014.68 522.477C1016.02 523.869 1016.64 526.347 1016.69 528.462V528.72H1016.69ZM1009.16 528.102C1009.16 525.78 1008.43 524.232 1007.04 524.232C1004.2 524.232 1001.78 530.991 1001.78 535.119C1001.78 537.183 1002.45 538.68 1003.95 538.68C1007.09 538.68 1009.16 532.023 1009.16 528.102Z" fill="black"/>
<path d="M1034.8 518.4C1037.38 518.4 1041.1 522.168 1041.1 524.748C1041.1 527.07 1039.14 537.855 1037.54 543.891C1037.38 544.305 1036.92 544.716 1036.45 544.716C1035.27 544.716 1032.22 543.582 1031.09 542.961C1030.67 542.703 1030.47 542.239 1030.47 541.774C1030.47 541.567 1030.52 541.309 1030.52 541.309C1030.52 541.309 1033.15 530.473 1033.15 527.17C1033.15 526.294 1033 525.724 1032.64 525.724C1031.86 525.724 1029.64 526.963 1027.73 528.922C1027.22 529.438 1026.96 530.056 1026.86 530.572C1025.93 535.216 1024.79 540.994 1024.18 543.832C1024.07 544.297 1023.66 544.658 1023.19 544.658C1022.06 544.658 1018.65 543.523 1017.93 543.161C1017.47 542.903 1017.26 542.489 1017.26 542.026C1017.26 541.666 1020.36 523.399 1020.97 519.169C1021.08 518.653 1021.54 518.293 1022.01 518.293C1022.57 518.293 1025.98 518.911 1026.96 519.325C1027.53 519.583 1027.89 520.15 1027.89 520.717C1027.89 521.233 1027.94 522.007 1027.94 522.781C1027.94 523.09 1028.04 523.246 1028.15 523.246C1028.3 523.246 1028.51 522.988 1028.51 522.988C1030.57 520.357 1032.94 518.395 1034.8 518.395L1034.8 518.4Z" fill="black"/>
<path d="M1049.2 540.486C1049.2 543.015 1047.6 544.872 1044.97 544.872C1042.34 544.872 1041.15 542.91 1041.15 540.795C1041.15 538.989 1041.82 538.059 1042.96 537.027C1043.26 536.718 1043.89 536.46 1044.4 536.46C1046.72 536.46 1049.2 537.75 1049.2 540.486H1049.2Z" fill="black"/>
<path d="M1075.51 520.98C1075.51 521.187 1075.41 521.496 1075.41 521.496C1073.09 529.08 1071.85 539.247 1071.7 543.838C1071.7 544.302 1071.34 544.714 1070.87 544.714C1069.79 544.714 1067.36 544.042 1066.64 543.733C1066.13 543.526 1065.77 543.061 1065.61 542.341C1065.51 541.927 1065.46 540.69 1065.4 539.863C1065.4 539.503 1065.3 539.296 1065.15 539.296C1064.99 539.296 1064.84 539.605 1064.84 539.605C1062.98 542.701 1060.66 544.816 1058.75 544.816C1055.7 544.816 1051.68 540.688 1051.68 536.611C1051.68 530.317 1053.9 522.628 1055.19 519.43C1055.34 519.016 1055.76 518.656 1056.22 518.656C1056.94 518.656 1060.25 519.946 1061.43 520.617C1061.79 520.824 1062.05 521.185 1062.05 521.598C1062.05 521.959 1061.95 522.27 1061.95 522.27C1060.92 525.315 1058.95 533.262 1058.95 536.304C1058.95 537.078 1059.06 537.543 1059.37 537.543C1060.66 537.543 1063.08 535.788 1064.79 533.571C1065.09 533.157 1065.25 532.797 1065.35 532.179C1066.02 527.586 1067.37 522.066 1068.29 519.384C1068.45 518.919 1068.91 518.559 1069.43 518.559C1070.2 518.559 1073.2 519.384 1074.74 520.056C1075.16 520.211 1075.52 520.572 1075.52 520.985L1075.51 520.98Z" fill="black"/>
<path d="M1084.6 518.298C1087.43 518.298 1095.95 520.929 1095.95 524.748C1095.95 526.089 1094.92 528.153 1094.5 528.72C1094.09 529.287 1093.57 529.443 1093.11 529.494H1089.24C1088.72 529.494 1088.47 529.134 1088.47 528.822C1088.47 528.408 1088.98 527.067 1088.98 526.035C1088.98 524.643 1088.36 523.92 1087.59 523.92C1085.83 523.92 1084.29 526.809 1084.29 528.204C1084.29 531.765 1094.09 530.94 1094.09 536.874C1094.09 540.588 1090.43 544.821 1085.16 544.821C1082.07 544.821 1077.53 543.324 1075.87 541.827C1075.41 541.413 1075.31 541.053 1075.31 540.795C1075.31 540.123 1075.93 537.855 1076.39 536.874C1076.6 536.409 1076.8 536.256 1077.11 536.256C1077.42 536.256 1077.63 536.463 1077.73 536.463C1079.54 537.444 1082.07 538.785 1084.18 538.785C1085.37 538.785 1086.45 538.371 1086.56 537.546C1086.56 535.38 1076.6 535.122 1076.6 528.414C1076.6 524.286 1080.36 518.3 1084.59 518.3L1084.6 518.298Z" fill="black"/>
<path d="M876.548 520.515C876.548 522.579 873.091 540.279 872.368 543.633C872.33 543.802 872.289 543.978 872.246 544.154C872.238 544.154 872.231 544.154 872.223 544.157C871.405 547.623 868.774 554.158 861.637 554.158C859.78 554.158 856.477 553.126 854.878 551.94C854.413 551.631 854.26 551.268 854.26 550.857C854.26 550.236 854.983 547.761 855.241 547.192C855.394 546.831 855.703 546.624 856.066 546.624C856.168 546.624 856.375 546.676 856.477 546.729C858.025 547.398 859.369 547.656 860.347 547.656C861.433 547.656 862.485 547.319 863.336 546.64C863.722 546.333 864.056 545.968 864.345 545.569C864.938 544.752 865.086 543.735 865.262 542.767C865.466 541.646 865.671 540.522 865.87 539.398C866.202 537.531 866.521 535.663 866.841 533.796C867.183 531.788 867.52 529.78 867.86 527.773C868.164 525.969 868.468 524.168 868.782 522.367C868.958 521.356 869.119 520.336 869.324 519.327C869.428 518.811 869.891 518.449 870.46 518.449C871.181 518.449 874.33 518.965 875.722 519.327C876.187 519.481 876.548 519.997 876.548 520.513V520.515Z" fill="black"/>
</g>
<g clip-path="url(#clip5_453_2)">
<path d="M855.461 483.655C865.671 483.655 873.948 475.393 873.948 465.2C873.948 455.008 865.671 446.745 855.461 446.745C845.25 446.745 836.973 455.008 836.973 465.2C836.973 475.393 845.25 483.655 855.461 483.655Z" fill="#B989C9"/>
<path d="M844.903 457.078C840.697 458.489 843.015 465.415 847.221 463.582C851.599 462.257 848.678 455.306 844.903 457.078Z" fill="black"/>
<path d="M867.355 461.655C867.114 461.646 866.881 461.681 866.657 461.758C866.433 461.836 866.226 461.965 866.053 462.128C865.881 462.292 865.735 462.481 865.64 462.696C865.536 462.911 865.485 463.144 865.476 463.384C865.079 470.052 855.84 474.44 850.462 469.51C848.566 467.953 846.256 470.921 848.083 472.229C860.891 482.915 874.293 463.858 867.364 461.655H867.355Z" fill="black"/>
<path d="M847.497 441.101C835.887 444.99 828.483 459.848 833.698 470.853C841.498 490.779 870.216 489.815 878.189 470.939C885.98 453.206 865.062 433.977 847.497 441.101ZM862.39 480.79C838.55 489.316 823.76 453.55 848.695 444.568C872.724 435.904 888.17 471.567 862.39 480.79Z" fill="black"/>
<path d="M859.96 456.648C864.166 458.119 866.295 451.778 862.244 449.954C858.167 448.655 855.607 454.996 859.96 456.648Z" fill="black"/>
</g>
<g clip-path="url(#clip6_453_2)">
<path d="M1043.92 482.194C1045.43 480.991 1046.58 479.405 1047.24 477.604C1048.65 472.845 1041.53 472.263 1038.48 472.983C1037.24 473.267 1036.05 473.727 1034.94 474.347C1031.88 473.229 1028.78 472.202 1025.65 471.282C1026.22 471.121 1026.79 470.953 1027.36 470.777C1031.94 469.336 1035.87 466.263 1035.85 461.505C1040.35 460.869 1043.7 457.053 1043.76 452.509C1043.71 451.788 1043.56 451.091 1043.31 450.417C1043.82 450.21 1044.32 449.965 1044.8 449.697C1048.84 447.367 1053.56 441.467 1050.02 436.869C1047.26 433.306 1041.86 432.885 1037.72 433.122C1032.59 433.26 1027.67 435.275 1023.91 438.777C1021.88 440.892 1020.08 443.206 1018.52 445.681C1016.87 448.003 1015.32 450.401 1013.92 452.884C1012.96 440.118 1000.96 437.735 995.293 445.405C993.737 445.16 992.182 444.999 990.603 444.923C980.633 444.432 981.453 448.172 989.691 454.095C990.626 454.762 991.561 455.405 992.526 456.034C985.591 470.278 989.201 486.002 1005.78 491.903C1014.57 494.807 1024.24 493.006 1031.4 487.144C1037.13 489.596 1050.22 494.608 1050.29 488.316C1050.32 485.343 1046.7 483.221 1043.93 482.186L1043.92 482.194ZM1037.1 447.766C1037.98 447.811 1038.82 448.133 1039.51 448.67C1039.69 448.808 1039.88 448.961 1040.04 449.122C1036.41 449.536 1034.24 447.674 1037.1 447.766ZM1031.34 459.321C1025 457.819 1031.39 455.704 1033.32 459.589C1032.65 459.551 1031.99 459.466 1031.34 459.321Z" fill="#DB433B"/>
<path d="M996.68 447.413C996.519 447.482 996.335 447.505 996.159 447.482C994.22 447.153 992.258 446.938 990.296 446.854C988.526 446.67 986.748 446.839 985.039 447.352C985.675 448.294 986.442 449.145 987.323 449.865C989.775 451.904 992.342 453.789 995.025 455.513C995.745 452.854 996.297 450.156 996.68 447.429V447.413Z" fill="#E7BB43"/>
<path d="M1048.82 450.792L1049.32 450.547C1049.66 450.378 1050 450.233 1050.31 450.026C1050.94 449.635 1051.54 449.214 1052.11 448.739C1053.25 447.796 1054.28 446.731 1055.14 445.528C1056.01 444.325 1056.71 442.976 1057.07 441.497C1057.43 440.026 1057.34 438.394 1056.7 436.984C1056.06 435.582 1055 434.425 1053.76 433.566C1052.5 432.724 1051.09 432.172 1049.66 431.812C1046.79 431.091 1043.82 431.122 1040.95 431.306C1035.11 431.743 1029.41 434.386 1025.5 438.792C1024.54 439.881 1023.62 441.007 1022.76 442.164C1021.88 443.313 1021.11 444.578 1020.31 445.72C1019.48 446.9 1018.68 448.103 1017.91 449.321C1017.52 449.934 1017.14 450.547 1016.77 451.168L1016.39 451.819L1016.29 451.099C1016.27 450.739 1016.16 450.394 1016.07 450.041L1015.78 448.991C1015.37 447.605 1014.77 446.264 1013.97 445.038C1013.79 444.716 1013.55 444.44 1013.32 444.156L1012.61 443.306C1012.37 443.038 1012.07 442.815 1011.79 442.562C1011.51 442.333 1011.26 442.057 1010.94 441.865C1010.31 441.497 1009.72 441.03 1009.01 440.792C1008.67 440.654 1008.33 440.509 1007.98 440.379L1006.9 440.118C1004.01 439.444 1000.9 440.248 998.481 441.873C998.159 442.049 997.883 442.294 997.607 442.54L996.78 443.26C996.511 443.513 996.289 443.804 996.044 444.08L995.691 444.493L995.599 444.601C995.599 444.601 995.592 444.608 995.576 444.601L994.703 444.478L993.645 444.348C992.933 444.271 992.228 444.21 991.515 444.164C990.089 444.072 988.664 444.026 987.223 444.118C986.495 444.172 985.775 444.256 985.047 444.425C984.327 444.601 983.576 444.846 982.932 445.436C982.618 445.735 982.365 446.156 982.288 446.608C982.204 447.068 982.296 447.49 982.411 447.88C982.671 448.647 983.1 449.267 983.56 449.842C984.488 450.991 985.553 451.957 986.649 452.869C987.752 453.773 988.886 454.639 990.059 455.436L991.814 456.639L992.166 456.876L991.814 457.689C990.588 460.279 989.798 463.045 989.208 465.842C988.672 468.662 988.564 471.543 988.794 474.409C989.101 477.267 989.883 480.064 991.078 482.684C992.312 485.297 994.082 487.611 996.097 489.665C997.186 490.6 998.22 491.611 999.439 492.37L1000.33 492.983C1000.62 493.19 1000.92 493.397 1001.24 493.55L1003.13 494.569C1003.75 494.937 1004.43 495.182 1005.09 495.458L1007.07 496.278C1007.76 496.477 1008.45 496.699 1009.15 496.876C1009.85 497.021 1010.54 497.22 1011.25 497.32C1014.08 497.818 1016.96 497.902 1019.82 497.596C1022.67 497.289 1025.47 496.523 1028.12 495.42L1029.1 494.991L1030.06 494.516C1030.71 494.209 1031.32 493.826 1031.94 493.473C1032.57 493.121 1033.14 492.684 1033.75 492.301C1034.05 492.102 1034.32 491.872 1034.61 491.657L1035.04 491.328L1035.23 491.182L1037.22 492.01C1037.98 492.309 1038.74 492.608 1039.5 492.891C1041.02 493.458 1042.57 493.979 1044.14 494.439C1046.45 495.098 1048.82 495.688 1051.32 495.703C1052.41 495.703 1053.4 495.542 1054.19 495.144C1054.98 494.761 1055.5 494.125 1055.71 493.581C1055.81 493.305 1055.88 493.06 1055.89 492.845C1055.92 492.638 1055.92 492.462 1055.89 492.324C1055.86 492.041 1055.81 491.91 1055.75 491.91C1055.83 491.926 1056.07 491.359 1055.76 490.255C1055.46 489.159 1054.39 487.726 1052.57 486.554C1052 486.194 1051.41 485.864 1050.81 485.566C1050.52 485.428 1050.22 485.282 1049.91 485.152L1049.73 485.075L1049.79 485.014C1050.02 484.815 1050.22 484.6 1050.43 484.385C1050.84 483.941 1051.2 483.474 1051.54 482.983C1052.03 482.271 1052.45 481.497 1052.77 480.692C1053.11 479.826 1053.23 478.884 1052.97 477.941C1052.71 476.991 1052 476.24 1051.24 475.757C1050.47 475.267 1049.63 474.976 1048.78 474.776C1047.09 474.393 1045.37 474.34 1043.64 474.562C1042.78 474.685 1041.95 474.914 1041.14 475.198C1040.73 475.344 1040.33 475.497 1039.94 475.681C1039.74 475.765 1039.55 475.857 1039.36 475.957L1038.97 476.156L1033.96 474.501C1032.43 473.98 1029.66 473.121 1030.56 473.344L1030.84 473.259L1031.3 473.106C1031.51 473.029 1031.74 472.96 1031.95 472.876C1032.84 472.547 1033.69 472.156 1034.51 471.711C1035.33 471.244 1036.12 470.715 1036.85 470.11C1037.57 469.489 1038.23 468.792 1038.8 468.01C1039.34 467.221 1039.78 466.348 1040.08 465.428C1040.21 464.961 1040.33 464.493 1040.38 464.018C1040.43 463.781 1040.45 463.535 1040.45 463.298V463.114V463.083C1040.45 463.083 1040.46 463.076 1040.51 463.068L1040.87 463.007C1041.1 462.961 1041.33 462.884 1041.56 462.823C1042.02 462.708 1042.47 462.508 1042.91 462.332C1043.79 461.941 1044.6 461.413 1045.33 460.8C1046.8 459.574 1047.94 457.942 1048.54 456.118C1048.85 455.206 1049.04 454.271 1049.07 453.29C1049.09 453.06 1049.1 452.8 1049.07 452.547C1049.05 452.309 1049.02 452.064 1048.97 451.827C1048.94 451.589 1048.88 451.352 1048.81 451.114L1048.73 450.838L1048.81 450.792H1048.82ZM992.005 452.876C990.779 452.034 989.599 451.137 988.449 450.179L987.591 449.451C987.292 449.221 987.032 448.999 986.779 448.746C986.526 448.493 986.281 448.233 986.058 447.957L985.821 447.643L985.882 447.628C986.12 447.574 986.365 447.528 986.603 447.49C987.085 447.405 987.576 447.344 988.066 447.313C989.047 447.229 990.013 447.313 991.032 447.375C992.036 447.436 993.032 447.528 994.021 447.658L994.442 447.719L993.5 453.873C992.994 453.543 992.496 453.214 992.005 452.876ZM1053.61 492.837L1053.54 492.768L1053.58 492.799L1053.61 492.83V492.837ZM1053.47 492.623C1053.47 492.623 1053.48 492.631 1053.49 492.638C1053.56 492.669 1053.63 492.707 1053.66 492.738L1053.57 492.707H1053.54L1053.48 492.684C1053.47 492.684 1053.46 492.677 1053.46 492.677L1053.34 492.554C1053.34 492.554 1053.42 492.592 1053.47 492.623ZM1047.47 447.873L1047.24 447.972C1047.24 447.972 1047.25 448.003 1047.2 447.957C1046.99 447.666 1046.74 447.405 1046.48 447.145C1045.43 446.133 1044.12 445.367 1042.67 445.053C1041.95 444.9 1041.2 444.846 1040.45 444.953C1039.69 445.061 1038.94 445.336 1038.32 445.857C1038.01 446.118 1037.79 446.432 1037.56 446.739C1037.36 447.083 1037.16 447.444 1037.11 447.88C1036.95 448.739 1037.36 449.612 1037.92 450.149C1038.48 450.716 1039.16 451.06 1039.84 451.329C1040.52 451.612 1041.23 451.75 1041.95 451.865C1042.31 451.911 1042.67 451.934 1043.02 451.965C1043.38 451.965 1043.74 451.972 1044.1 451.965C1044.45 451.926 1044.81 451.919 1045.17 451.865C1045.17 451.865 1045.6 451.796 1045.61 451.811C1045.61 451.842 1045.7 452.248 1045.73 452.501C1045.77 452.815 1045.79 453.137 1045.77 453.451C1045.76 454.095 1045.64 454.731 1045.43 455.336C1045.01 456.555 1044.22 457.604 1043.17 458.386C1042.66 458.784 1042.09 459.122 1041.5 459.39C1041.2 459.52 1040.9 459.635 1040.58 459.727C1040.38 459.796 1040.05 459.88 1039.95 459.896C1039.95 459.88 1039.95 459.873 1039.94 459.85C1039.86 459.681 1039.81 459.505 1039.73 459.344C1039.53 459.03 1039.4 458.677 1039.17 458.394C1038.76 457.773 1038.22 457.252 1037.65 456.784C1036.47 455.896 1035.01 455.352 1033.5 455.382C1032.75 455.405 1031.99 455.566 1031.3 455.926L1030.8 456.24C1030.64 456.363 1030.51 456.501 1030.36 456.631C1030.08 456.899 1029.83 457.237 1029.66 457.604C1029.32 458.34 1029.28 459.206 1029.55 459.98C1029.84 460.83 1030.44 461.213 1031.17 461.65C1032.41 462.371 1033.78 462.876 1035.19 463.137C1035.54 463.206 1035.89 463.252 1036.25 463.29L1036.78 463.328L1037.22 463.344C1037.22 463.344 1037.22 463.374 1037.21 463.42C1037.17 463.735 1037.11 464.056 1037.01 464.355C1036.66 465.581 1035.88 466.662 1034.9 467.52C1032.92 469.252 1030.22 470.125 1027.65 470.838C1026.32 471.16 1025.03 471.351 1023.62 471.428C1023.38 471.451 1023.15 471.535 1022.94 471.658C1022.83 471.719 1022.74 471.796 1022.65 471.88L1022.59 471.941C1022.59 471.941 1022.57 471.964 1022.56 471.98C1022.54 472.003 1022.47 472.056 1022.44 472.102C1022.12 472.478 1021.99 473.006 1022.1 473.489C1022.15 473.727 1022.26 473.949 1022.42 474.148C1022.59 474.355 1022.82 474.508 1023.07 474.585C1023.19 474.623 1023.36 474.646 1023.44 474.646C1023.44 474.646 1023.45 474.646 1023.47 474.646L1023.59 474.685L1024.09 474.815C1026.74 475.543 1029.38 476.324 1032 477.167C1033.3 477.589 1034.61 478.025 1035.91 478.478L1037.85 479.198L1038.37 479.359C1038.51 479.405 1038.74 479.474 1038.97 479.481C1039.2 479.497 1039.43 479.466 1039.66 479.405C1039.76 479.366 1039.87 479.328 1039.97 479.274C1040.08 479.221 1040.18 479.152 1040.22 479.129C1041.33 478.47 1042.45 477.956 1043.68 477.742C1044.9 477.497 1046.16 477.52 1047.37 477.78C1047.98 477.918 1048.58 478.102 1049.14 478.355C1049.85 478.707 1049.93 478.623 1049.84 479.244C1049.72 479.75 1049.4 480.294 1049.04 480.792C1048.68 481.29 1048.25 481.773 1047.82 482.232C1047.37 482.692 1046.91 483.136 1046.43 483.558C1046.19 483.772 1045.95 483.979 1045.7 484.171L1045.52 484.324C1045.46 484.37 1045.33 484.47 1045.27 484.554C1045.1 484.738 1045.01 484.945 1044.94 485.159C1044.81 485.589 1044.84 486.056 1045.07 486.477C1045.19 486.692 1045.37 486.876 1045.58 487.006C1045.69 487.075 1045.8 487.113 1045.92 487.159L1046.15 487.221C1046.77 487.397 1047.37 487.604 1047.96 487.841C1049.14 488.309 1050.29 488.906 1051.31 489.619C1051.82 489.979 1052.3 490.378 1052.62 490.83C1052.79 491.06 1052.91 491.297 1052.96 491.535C1052.98 491.65 1052.99 491.772 1052.98 491.887L1052.96 492.064C1052.96 492.064 1052.94 492.148 1052.93 492.171C1052.92 492.178 1052.88 492.232 1052.85 492.278C1052.81 492.309 1052.72 492.324 1052.67 492.362C1052.51 492.416 1052.33 492.462 1052.13 492.485C1051.75 492.539 1051.34 492.539 1050.91 492.5C1049.53 492.401 1048.12 492.071 1046.73 491.711C1045.34 491.343 1043.97 490.914 1042.6 490.454C1037.81 488.807 1035.42 487.964 1035.31 488.194C1035.33 488.148 1035.21 487.987 1034.84 487.941C1034.66 487.918 1034.41 487.941 1034.15 488.079C1033.89 488.232 1033.7 488.37 1033.43 488.562C1032.4 489.297 1030.87 490.385 1028.65 491.542C1027.35 492.209 1026 492.776 1024.62 493.236C1023.23 493.665 1021.81 494.04 1020.36 494.247C1017.46 494.684 1014.46 494.669 1011.56 494.14C1008.67 493.642 1005.88 492.546 1003.33 491.075C1000.81 489.565 998.519 487.642 996.665 485.351C995.737 484.217 994.879 482.999 994.182 481.719C993.546 480.424 993.017 479.052 992.695 477.619C991.354 471.88 992.166 465.742 994.243 460.233C994.519 459.497 994.795 458.723 995.186 458.041C995.776 457.007 996.075 456.087 996.258 454.922C996.366 454.217 996.481 453.512 996.588 452.808C996.803 451.428 997.017 450.041 997.216 448.662C997.308 447.988 997.477 447.467 997.891 446.923C998.029 446.716 998.182 446.524 998.335 446.34C998.488 446.141 998.642 445.957 998.81 445.781C998.971 445.605 999.14 445.428 999.316 445.26C1000.01 444.593 1000.8 444.026 1001.67 443.635C1002.53 443.244 1003.46 443.038 1004.4 443.068C1004.78 443.084 1005.16 443.13 1005.53 443.206C1006.15 443.344 1006.77 443.528 1007.37 443.75C1007.46 443.781 1007.55 443.819 1007.64 443.85C1008.28 444.103 1008.93 444.379 1009.49 444.8C1010.18 445.329 1010.77 445.995 1011.26 446.731C1012.24 448.21 1012.81 449.957 1013.12 451.735C1013.27 452.624 1013.36 453.543 1013.41 454.44C1013.42 455.352 1013.4 456.279 1013.36 457.191C1013.26 459.037 1013.07 460.869 1012.77 462.685C1012.47 464.501 1012.07 466.302 1011.56 468.072L1011.17 469.397C1011.09 469.642 1011.02 470.01 1011.1 470.332C1011.18 470.662 1011.36 470.968 1011.6 471.175C1012.07 471.589 1012.76 471.803 1013.42 471.497C1013.75 471.359 1014 471.06 1014.12 470.769C1014.2 470.608 1014.22 470.501 1014.26 470.393L1014.37 470.056C1014.93 468.263 1015.4 466.447 1015.76 464.6C1015.95 463.681 1016.1 462.754 1016.23 461.819L1016.4 460.424L1016.53 459.099L1016.87 458.286L1017.26 457.413C1017.52 456.83 1017.8 456.256 1018.08 455.681C1018.64 454.532 1019.24 453.405 1019.88 452.302C1021.16 450.072 1022.55 447.972 1024.13 445.896C1025.33 443.835 1026.76 442.034 1028.44 440.409C1030.12 438.8 1032.05 437.413 1034.07 436.348C1038.97 434.241 1044.77 433.743 1049.88 435.291C1051.13 435.712 1052.32 436.34 1053.14 437.298C1053.53 437.781 1053.83 438.325 1053.98 438.923C1053.99 438.961 1053.99 438.938 1053.99 438.969V439.091L1054.01 439.329C1054 439.49 1054.01 439.651 1054 439.812C1053.99 440.133 1053.94 440.455 1053.89 440.769C1053.64 442.034 1053.03 443.229 1052.15 444.164L1051.98 444.34L1051.89 444.425C1051.89 444.425 1051.77 444.547 1051.77 444.562L1051.44 444.938C1051.27 445.13 1051.11 445.313 1050.92 445.49C1050.39 446.003 1049.82 446.486 1049.2 446.892C1048.65 447.26 1048.08 447.589 1047.47 447.865V447.873ZM1043.25 448.754C1042.8 448.746 1042.35 448.708 1041.91 448.616C1041.56 448.547 1041.2 448.447 1040.9 448.317C1040.82 448.287 1040.74 448.241 1040.69 448.218L1040.66 448.195H1040.69L1040.81 448.179C1040.89 448.172 1040.97 448.172 1041.07 448.172C1041.42 448.156 1041.76 448.195 1042.09 448.279C1042.5 448.378 1042.89 448.532 1043.25 448.754ZM1036.31 460.01C1035.59 459.919 1034.89 459.758 1034.19 459.543C1033.79 459.405 1033.37 459.26 1033.03 459.068C1032.95 459.014 1032.85 458.968 1032.79 458.915L1032.69 458.838L1032.64 458.792C1032.64 458.792 1032.84 458.7 1032.97 458.685C1033.15 458.654 1033.35 458.646 1033.54 458.654C1033.94 458.669 1034.35 458.761 1034.72 458.899C1035.34 459.129 1035.89 459.512 1036.31 460.01Z" fill="black"/>
<path d="M1053.66 492.738L1053.57 492.707L1053.49 492.638C1053.56 492.669 1053.63 492.707 1053.66 492.738Z" fill="#010101"/>
<path d="M1006.96 450.861C1006.24 450.746 1005.83 451.329 1005.52 451.888C1005.13 452.601 1004.77 453.168 1003.98 453.513C1002.73 454.057 1002.15 453.053 1002.03 451.949C1001.92 451.03 1002.47 449.313 1001.14 449.053C1000.52 448.93 999.922 449.329 999.791 449.942C999.094 455.367 1002.48 457.129 1005.49 455.352C1007.29 454.325 1008.93 451.175 1006.96 450.861Z" fill="black"/>
<path d="M1040.59 486.286C1040.44 486.11 1040.29 486.002 1040.25 485.864C1040.03 485.282 1040.12 484.753 1040.58 484.309C1040.99 483.903 1041.81 484.11 1041.96 484.654C1042.13 485.267 1041.83 485.995 1041.23 486.286C1041.05 486.378 1040.78 486.286 1040.6 486.286H1040.59Z" fill="black"/>
<path d="M1027.74 489.091C1027.38 489.527 1026.69 489.681 1026.21 489.351C1026.05 489.244 1025.93 488.937 1025.95 488.738C1026.03 488.026 1026.72 487.635 1027.39 487.872C1027.84 488.033 1028.04 488.731 1027.74 489.091Z" fill="black"/>
<path d="M1053.86 489.658C1054.3 489.911 1054.41 490.363 1054.25 490.623C1053.97 491.114 1053.15 491.252 1052.82 490.822C1052.64 490.585 1052.56 490.255 1052.48 489.957C1052.42 489.773 1052.73 489.466 1052.92 489.497C1053.3 489.55 1053.69 489.627 1053.86 489.658Z" fill="black"/>
<path d="M1013.7 492.446C1013.38 492.784 1012.7 492.799 1012.44 492.469C1012.21 492.171 1012.2 491.642 1012.43 491.366C1012.73 490.991 1013.39 490.983 1013.66 491.351C1013.91 491.68 1013.94 492.201 1013.7 492.446Z" fill="black"/>
<path d="M999.255 483.213C999.423 482.899 999.952 482.7 1000.3 482.822C1000.7 482.96 1000.92 483.596 1000.7 484.048C1000.54 484.385 1000.03 484.585 999.676 484.431C999.239 484.248 999.025 483.627 999.247 483.213H999.255Z" fill="black"/>
<path d="M1033.61 483.903C1033.43 483.956 1033.21 484.087 1033 484.064C1032.79 484.048 1032.57 483.91 1032.38 483.796C1032.07 483.604 1031.96 483.267 1032.08 483.006C1032.22 482.677 1032.51 482.562 1032.82 482.554C1033.3 482.539 1033.71 482.922 1033.75 483.412C1033.76 483.55 1033.67 483.704 1033.62 483.903H1033.61Z" fill="black"/>
<path d="M1014.74 480.638C1014.53 481.006 1014.17 481.152 1013.78 481.221C1013.41 481.29 1012.95 480.991 1012.89 480.654C1012.8 480.202 1013.16 479.673 1013.59 479.604C1014.07 479.535 1014.55 479.765 1014.74 480.194C1014.8 480.317 1014.74 480.485 1014.74 480.631V480.638Z" fill="black"/>
<path d="M1002.93 479.489C1002.8 479.581 1002.69 479.704 1002.54 479.75C1002.4 479.796 1002.22 479.78 1002.07 479.75C1001.68 479.658 1001.32 479.228 1001.32 478.907C1001.33 478.562 1001.83 478.186 1002.19 478.24C1002.7 478.317 1003.04 478.753 1002.99 479.259C1002.98 479.336 1002.95 479.412 1002.93 479.497L1002.93 479.489Z" fill="black"/>
<path d="M1006.19 479.121C1005.58 478.692 1005.5 478.14 1005.9 477.604C1006.1 477.344 1006.57 477.267 1006.73 477.512C1006.92 477.765 1007.07 478.056 1007.17 478.355C1007.28 478.677 1007.08 479.098 1006.8 479.152C1006.57 479.19 1006.34 479.129 1006.18 479.121H1006.19Z" fill="black"/>
<path d="M1038.94 489.979C1038.81 490.033 1038.59 490.14 1038.36 490.186C1038.04 490.263 1037.72 490.025 1037.66 489.688C1037.59 489.374 1037.75 489.029 1038.05 488.868C1038.35 488.707 1038.66 488.63 1038.97 488.822C1039.27 489.021 1039.28 489.665 1038.95 489.971L1038.94 489.979Z" fill="black"/>
<path d="M1001.13 475.413C1001.24 475.175 1001.67 474.999 1001.93 475.091C1002.5 475.298 1002.71 475.872 1002.38 476.393C1002.24 476.616 1001.78 476.738 1001.55 476.616C1001.16 476.409 1000.96 475.811 1001.13 475.405V475.413Z" fill="black"/>
<path d="M1022.29 466.93C1022.6 467.114 1022.7 467.604 1022.5 467.972C1022.28 468.378 1021.83 468.524 1021.52 468.294C1021.19 468.033 1021.09 467.612 1021.28 467.244C1021.46 466.892 1021.97 466.731 1022.29 466.93Z" fill="black"/>
<path d="M1047.35 479.749C1047.39 479.979 1047.51 480.225 1047.44 480.401C1047.37 480.592 1047.17 480.784 1046.97 480.884C1046.53 481.098 1046.09 480.914 1046.02 480.531C1045.94 480.117 1046.19 479.704 1046.6 479.658C1046.82 479.635 1047.05 479.711 1047.35 479.749Z" fill="black"/>
<path d="M1019.1 490.945C1018.8 490.692 1018.8 490.232 1019.1 489.933C1019.39 489.65 1019.89 489.658 1020.11 489.941C1020.31 490.186 1020.31 490.546 1020.11 490.784C1019.85 491.106 1019.38 491.182 1019.1 490.945H1019.1Z" fill="black"/>
<path d="M1025.3 476.999C1025.61 477.152 1025.72 477.719 1025.5 478.033C1025.28 478.355 1024.74 478.501 1024.47 478.302C1024.17 478.087 1024.05 477.535 1024.24 477.244C1024.42 476.953 1024.96 476.83 1025.3 476.999Z" fill="black"/>
<path d="M1025.69 473.88C1025.92 473.252 1026.4 473.052 1027.01 473.083C1027.3 473.098 1027.59 473.413 1027.6 473.727C1027.62 474.11 1027.23 474.547 1026.87 474.508C1026.38 474.447 1025.94 474.294 1025.68 473.826L1025.69 473.88Z" fill="black"/>
<path d="M1030.6 483.497C1030.6 483.673 1030.67 483.949 1030.56 484.079C1030.18 484.57 1029.67 484.623 1029.1 484.317C1028.89 484.209 1028.75 483.888 1028.85 483.719C1028.93 483.596 1029.04 483.428 1029.16 483.413C1029.55 483.351 1029.94 483.344 1030.33 483.336C1030.39 483.336 1030.46 483.413 1030.59 483.497H1030.6Z" fill="black"/>
<path d="M998.205 472.616C998.45 472.777 998.535 473.198 998.374 473.436C998.205 473.673 997.776 473.796 997.554 473.665C997.194 473.443 997.025 472.999 997.186 472.677C997.331 472.386 997.822 472.355 998.213 472.616H998.205Z" fill="black"/>
<path d="M1034.4 487.32C1034.24 487.642 1033.72 487.811 1033.37 487.665C1033.14 487.566 1032.97 487.106 1033.07 486.853C1033.26 486.386 1033.85 486.186 1034.23 486.47C1034.47 486.638 1034.54 487.045 1034.41 487.328L1034.4 487.32Z" fill="black"/>
<path d="M1005.04 471.482C1004.78 471.811 1004.31 471.834 1004.04 471.535C1003.79 471.267 1003.81 470.807 1004.09 470.485C1004.29 470.248 1004.69 470.232 1004.92 470.439C1005.22 470.715 1005.28 471.183 1005.05 471.482H1005.04Z" fill="black"/>
<path d="M1050.57 490.891C1050.32 491.228 1049.83 491.297 1049.56 491.029C1049.34 490.815 1049.3 490.462 1049.46 490.163C1049.63 489.857 1050.22 489.65 1050.47 489.811C1050.72 489.972 1050.78 490.592 1050.57 490.884V490.891Z" fill="black"/>
<path d="M1026.69 484.416C1026.85 484.546 1026.88 484.868 1026.77 485.044C1026.57 485.328 1026.31 485.443 1025.98 485.412C1025.7 485.382 1025.36 485.037 1025.42 484.776C1025.46 484.585 1025.64 484.362 1025.82 484.286C1026.11 484.155 1026.43 484.186 1026.69 484.424V484.416Z" fill="black"/>
<path d="M1049.27 487.489C1049.03 487.757 1048.58 487.719 1048.5 487.42C1048.44 487.198 1048.42 486.96 1048.42 486.73C1048.43 486.454 1048.65 486.263 1048.86 486.278C1049.11 486.301 1049.33 486.378 1049.42 486.631C1049.53 486.945 1049.52 487.251 1049.27 487.489Z" fill="black"/>
<path d="M1023.34 471.152C1023.26 471.428 1022.77 471.489 1022.51 471.237C1022.28 470.999 1022.18 470.708 1022.22 470.363C1022.26 470.049 1022.65 469.827 1022.93 469.965C1023.4 470.194 1023.58 470.716 1023.33 471.152H1023.34Z" fill="black"/>
<path d="M1001.43 490.891C1001.39 490.661 1001.25 490.424 1001.32 490.278C1001.41 490.102 1001.64 489.933 1001.84 489.903C1002.03 489.872 1002.29 489.956 1002.46 490.071C1002.61 490.179 1002.4 490.746 1002.14 490.838C1001.95 490.907 1001.71 490.876 1001.43 490.891Z" fill="black"/>
<path d="M1048.26 483.198C1048.61 483.351 1048.76 483.78 1048.61 484.025C1048.52 484.194 1048.19 484.294 1047.99 484.225C1047.72 484.125 1047.53 483.658 1047.73 483.451C1047.87 483.305 1048.12 483.267 1048.26 483.198Z" fill="black"/>
<path d="M1005.47 474.309C1005.53 474.554 1005.63 474.761 1005.61 474.945C1005.58 475.152 1005.26 475.213 1005.03 475.091C1004.69 474.907 1004.55 474.478 1004.8 474.363C1004.97 474.286 1005.2 474.324 1005.46 474.301L1005.47 474.309Z" fill="black"/>
<path d="M995.914 480.746C995.791 480.807 995.607 480.952 995.4 480.998C995.209 481.044 994.986 480.73 995.009 480.516C995.04 480.186 995.339 479.903 995.63 479.926C995.914 479.949 996.105 480.37 995.914 480.746Z" fill="black"/>
<path d="M998.665 476.194C998.741 476.332 998.841 476.462 998.895 476.616C998.971 476.846 998.703 477.091 998.443 477.045C998.174 476.991 998.036 476.823 997.998 476.547C997.967 476.355 998.021 476.202 998.205 476.164C998.351 476.133 998.512 476.187 998.665 476.202V476.194Z" fill="black"/>
<path d="M1025 473.987C1024.84 474.501 1024.49 474.738 1023.95 474.715C1023.73 474.708 1023.53 474.531 1023.51 474.271C1023.49 474.026 1023.56 473.811 1023.81 473.711C1024.29 473.528 1024.71 473.543 1025 474.041L1024.99 473.987H1025Z" fill="black"/>
<path d="M1022.34 482.171C1022.17 482.202 1021.95 482.301 1021.74 482.271C1021.57 482.248 1021.49 481.811 1021.62 481.65C1021.75 481.489 1021.95 481.359 1022.15 481.259C1022.32 481.167 1022.46 481.259 1022.5 481.451C1022.51 481.527 1022.54 481.612 1022.52 481.681C1022.48 481.826 1022.41 481.964 1022.33 482.179L1022.34 482.171Z" fill="black"/>
<path d="M1039.92 481.995C1039.92 481.842 1039.87 481.589 1039.96 481.428C1040.11 481.175 1040.64 481.175 1040.78 481.413C1040.84 481.528 1040.84 481.734 1040.78 481.857C1040.61 482.164 1040.2 482.248 1039.91 481.995H1039.92Z" fill="black"/>
<path d="M1032.71 479.979C1032.55 480.002 1032.33 480.079 1032.13 480.041C1031.9 480.002 1031.79 479.658 1031.94 479.466C1032.07 479.305 1032.29 479.144 1032.49 479.137C1032.74 479.121 1032.9 479.658 1032.71 479.987V479.979Z" fill="black"/>
<path d="M1025.29 481.857C1025.21 481.719 1025.1 481.597 1025.06 481.451C1024.99 481.229 1025.16 480.976 1025.41 480.915C1025.64 480.861 1025.88 481.022 1025.92 481.298C1025.95 481.443 1025.92 481.604 1025.89 481.75C1025.82 481.987 1025.47 482.041 1025.29 481.857Z" fill="black"/>
<path d="M1013.71 477.014C1013.5 476.96 1013.29 476.914 1013.09 476.846C1013.05 476.83 1013.02 476.662 1013.05 476.631C1013.19 476.47 1013.37 476.332 1013.53 476.187C1013.63 476.301 1013.78 476.401 1013.81 476.531C1013.84 476.662 1013.75 476.815 1013.71 477.022V477.014Z" fill="black"/>
<path d="M1030.71 487.588C1030.59 487.596 1030.43 487.657 1030.36 487.604C1030.17 487.45 1030.2 487.182 1030.39 487.067C1030.44 487.037 1030.53 487.037 1030.6 487.044C1030.8 487.083 1030.87 487.397 1030.71 487.588H1030.71Z" fill="black"/>
<path d="M1019.23 486.125C1019.22 486.347 1019.25 486.508 1019.19 486.623C1019.09 486.815 1018.8 486.807 1018.66 486.6C1018.6 486.508 1018.61 486.255 1018.66 486.232C1018.83 486.163 1019.03 486.156 1019.23 486.125Z" fill="black"/>
<path d="M1015.73 486.623C1015.8 486.93 1015.88 487.129 1015.87 487.32C1015.87 487.405 1015.65 487.55 1015.55 487.535C1015.3 487.512 1015.12 487.29 1015.17 487.075C1015.21 486.922 1015.47 486.822 1015.73 486.623Z" fill="black"/>
<path d="M1007.08 482.049C1006.94 482.018 1006.71 482.026 1006.55 481.926C1006.37 481.811 1006.45 481.451 1006.67 481.359C1006.79 481.305 1006.98 481.321 1007.09 481.382C1007.32 481.512 1007.33 481.819 1007.08 482.049Z" fill="black"/>
<path d="M1027.16 492.608C1026.97 492.57 1026.89 492.455 1026.93 492.255C1027 491.834 1027.16 491.719 1027.57 491.796C1027.77 491.834 1027.85 491.941 1027.82 492.14C1027.74 492.547 1027.56 492.677 1027.16 492.608Z" fill="black"/>
<path d="M1008.96 474.271C1008.83 474.286 1008.66 474.355 1008.55 474.301C1008.36 474.202 1008.39 473.895 1008.6 473.727C1008.75 473.612 1008.92 473.65 1008.99 473.842C1009.03 473.972 1008.98 474.133 1008.97 474.278L1008.96 474.271Z" fill="black"/>
<path d="M999.24 479.627C999.324 479.757 999.408 479.887 999.493 480.01C999.362 480.079 999.232 480.202 999.094 480.209C998.895 480.217 998.788 480.056 998.887 479.872C998.948 479.757 999.125 479.704 999.247 479.627H999.24Z" fill="black"/>
<path d="M1018.74 482.937C1018.57 483.106 1018.35 483.068 1018.21 482.845C1018.1 482.684 1018.13 482.554 1018.3 482.455C1018.54 482.317 1018.83 482.34 1018.84 482.516C1018.86 482.654 1018.77 482.799 1018.74 482.937Z" fill="black"/>
<path d="M1007.47 485.167C1007.61 485.175 1007.75 485.183 1007.88 485.206C1007.89 485.206 1007.91 485.359 1007.88 485.413C1007.85 485.466 1007.7 485.52 1007.69 485.504C1007.61 485.397 1007.54 485.282 1007.47 485.16V485.167Z" fill="black"/>
<path d="M1012.41 488.317C1012.37 488.378 1012.34 488.454 1012.28 488.493C1012.22 488.531 1012.14 488.531 1012.07 488.546C1012.09 488.408 1012.1 488.263 1012.14 488.133C1012.14 488.11 1012.3 488.087 1012.34 488.117C1012.39 488.148 1012.39 488.248 1012.41 488.324V488.317Z" fill="black"/>
<path d="M1023.85 492.822C1023.84 492.738 1023.79 492.607 1023.83 492.584C1023.99 492.47 1024.15 492.508 1024.25 492.676C1024.29 492.738 1024.28 492.83 1024.3 492.914C1024.15 492.883 1024 492.853 1023.85 492.822Z" fill="black"/>
<path d="M1004.73 489.581C1004.76 489.642 1004.86 489.711 1004.84 489.757C1004.8 489.895 1004.67 489.903 1004.51 489.765C1004.48 489.734 1004.5 489.635 1004.5 489.573C1004.58 489.573 1004.65 489.573 1004.73 489.581Z" fill="black"/>
<path d="M996.887 487.78L997.017 487.865L996.849 487.98L996.887 487.78Z" fill="black"/>
<path d="M1042.1 488.914C1042.13 489.029 1042.15 489.136 1042.18 489.251C1042.12 489.251 1042.01 489.297 1041.98 489.267C1041.89 489.175 1041.82 489.052 1041.74 488.937C1041.86 488.937 1041.98 488.929 1042.1 488.922V488.914Z" fill="black"/>
<path d="M1025.68 473.819C1025.5 474.095 1025.26 474.087 1025 473.987L1025.01 474.041C1025.19 473.758 1025.43 473.773 1025.69 473.872L1025.68 473.811V473.819Z" fill="black"/>
<path d="M1037.36 486.018L1037.33 486.171L1037.22 486.079L1037.36 486.018Z" fill="black"/>
</g>
<path d="M1081.3 465.575C1081.02 465.559 1080.77 465.411 1080.61 465.18C1068.46 449.799 1083.05 439.994 1087.96 452.534C1102.47 449.32 1100.88 468.312 1081.3 465.575Z" fill="black"/>
</g>
<defs>
<clipPath id="clip0_453_2">
<rect width="1200" height="675" fill="white"/>
</clipPath>
<clipPath id="clip1_453_2">
<rect width="136.946" height="106.197" fill="white" transform="translate(569.769 597.456) rotate(2.4411)"/>
</clipPath>
<clipPath id="clip2_453_2">
<rect width="132.054" height="147.812" fill="white" transform="translate(729.663 4.4668) rotate(17.8867)"/>
</clipPath>
<clipPath id="clip3_453_2">
<rect width="149.549" height="140.88" fill="white" transform="translate(1103.49 -25.9893) rotate(15)"/>
</clipPath>
<clipPath id="clip4_453_2">
<rect width="254.126" height="91.6133" fill="white" transform="translate(841.822 485.453)"/>
</clipPath>
<clipPath id="clip5_453_2">
<rect width="47.8697" height="45.8751" fill="white" transform="translate(832 439.578)"/>
</clipPath>
<clipPath id="clip6_453_2">
<rect width="85.1016" height="119.009" fill="white" transform="translate(982.258 407)"/>
</clipPath>
</defs>
</svg>
