<svg width="1200" height="675" viewBox="0 0 1200 675" fill="none" xmlns="http://www.w3.org/2000/svg">
<g clip-path="url(#clip0_453_184)">
<g clip-path="url(#clip1_453_184)">
<path d="M813.293 484.354C812.854 482.549 822.14 475.747 820.959 474.771C819.956 473.943 811.988 480.732 810.12 479.355C808.595 478.393 811.109 465.296 810.01 465.189C808.911 465.082 806.727 477.538 804.543 478.059C801.699 478.807 791.08 463.479 790.215 464.013C789.116 464.655 798.526 479.877 797.331 481.574C795.586 484.126 782.124 480.825 782.014 482.429C782.014 483.391 795.888 486.479 796.136 488.176C796.52 490.849 786.368 499.789 787.055 500.738C787.907 501.928 798.196 491.303 800.628 492.546C802.798 493.655 797.784 510.013 799.968 510.013C801.507 510.013 805.106 493.401 806.644 493.294C809.048 492.974 820.121 508.757 821.302 508.196C822.181 507.781 811.343 492.011 812.991 489.566C813.87 488.176 825.684 489.887 826.014 488.604C826.234 487.321 813.65 485.944 813.321 484.354H813.293Z" fill="#64A03D"/>
</g>
<g clip-path="url(#clip2_453_184)">
<path d="M863.048 468.079C861.896 467.92 860.069 460.948 859.229 461.412C858.516 461.806 860.638 468.006 859.407 468.778C858.496 469.445 851.447 464.97 851.132 465.585C850.817 466.201 857.569 470.336 857.37 471.728C857.152 473.556 845.784 476.216 845.896 476.843C846.017 477.631 857.045 475.65 857.759 476.736C858.845 478.339 853.827 485.42 854.736 485.853C855.296 486.074 860.284 478.704 861.329 478.95C862.974 479.34 865.847 487.308 866.558 487.126C867.446 486.904 863.624 478.469 864.907 477.339C866.052 476.33 874.426 483.01 874.928 481.738C875.281 480.842 866.435 474.927 866.726 474.007C867.092 472.533 878.829 469.713 878.774 468.896C878.735 468.289 867.059 470.976 866.014 469.453C865.406 468.622 869.118 462.135 868.447 461.648C867.75 461.225 864.056 468.237 863.054 468.063L863.048 468.079Z" fill="black"/>
</g>
<g clip-path="url(#clip3_453_184)">
<path d="M895.524 520.937C895.524 525.856 889.769 532.893 884.014 536.63C883.817 536.777 883.72 536.874 883.72 536.975C883.72 537.075 883.867 537.072 884.161 537.072C884.308 537.072 886.621 536.925 887.949 536.925C888.688 536.925 889.374 536.925 889.966 536.975C890.509 537.025 890.95 537.416 891.047 537.908C891.291 538.942 891.589 540.859 891.787 542.335C891.787 542.827 891.442 543.171 890.9 543.222C887.802 543.419 877.914 544.008 874.766 544.155C874.224 544.155 873.635 543.958 873.387 543.466C872.895 542.385 872.059 539.334 872.059 538.939C872.059 538.497 872.306 538.052 872.648 537.808C882.093 531.952 888.635 522.704 888.735 519.311C888.685 517.836 887.554 517.294 886.473 517.294C884.75 517.294 882.047 519.114 880.029 522.313C879.882 522.557 879.634 522.707 879.34 522.707C879.045 522.707 878.751 522.51 878.751 522.51C877.62 521.774 876.291 520.69 875.552 519.853C875.308 519.609 875.157 519.264 875.157 518.87C875.157 518.722 875.207 518.475 875.254 518.328C876.188 516.016 879.878 510.997 884.7 510.997C889.177 510.997 895.524 515.868 895.524 520.934V520.937Z" fill="black"/>
<path d="M897.689 539.337C896.508 537.369 896.163 534.368 896.163 531.859C896.163 525.364 899.657 511.197 908.855 511.197C910.822 511.197 916.283 513.362 918.153 516.561C919.234 518.431 919.629 520.79 919.629 523.055C919.629 530.386 915.891 544.209 906.837 544.209C904.92 544.209 899.851 542.485 897.686 539.337H897.689ZM903.15 532.939C903.15 536.827 904.478 537.958 905.806 537.958C909.447 537.958 912.498 528.462 912.498 521.576C912.498 518.184 911.418 517.247 910.236 517.247C906.693 517.247 903.153 526.15 903.153 532.939H903.15Z" fill="black"/>
<path d="M942.16 520.937C942.16 525.856 936.405 532.893 930.65 536.63C930.453 536.777 930.356 536.874 930.356 536.975C930.356 537.075 930.503 537.072 930.797 537.072C930.945 537.072 933.257 536.925 934.585 536.925C935.325 536.925 936.01 536.925 936.603 536.975C937.145 537.025 937.586 537.416 937.683 537.908C937.928 538.942 938.226 540.859 938.423 542.335C938.423 542.827 938.078 543.171 937.536 543.222C934.438 543.419 924.551 544.008 921.402 544.155C920.86 544.155 920.271 543.958 920.023 543.466C919.532 542.385 918.695 539.334 918.695 538.939C918.695 538.497 918.943 538.052 919.284 537.808C928.73 531.952 935.271 522.704 935.371 519.311C935.321 517.836 934.19 517.294 933.11 517.294C931.386 517.294 928.683 519.114 926.665 522.313C926.518 522.557 926.27 522.707 925.976 522.707C925.681 522.707 925.387 522.51 925.387 522.51C924.256 521.774 922.928 520.69 922.188 519.853C921.944 519.609 921.793 519.264 921.793 518.87C921.793 518.722 921.844 518.475 921.89 518.328C922.824 516.016 926.515 510.997 931.336 510.997C935.813 510.997 942.16 515.868 942.16 520.934V520.937Z" fill="black"/>
<path d="M962.33 529.644C962.919 529.644 963.166 530.038 963.263 530.53C963.461 531.661 963.705 533.826 963.705 535.154C963.705 535.596 963.411 536.041 962.869 536.041C962.624 536.041 960.704 536.091 960.46 536.091C959.871 536.091 959.573 536.533 959.476 537.025C959.181 539.139 958.837 541.254 958.589 543.322C958.539 543.814 958.194 544.108 957.753 544.108C956.916 544.108 953.965 543.222 952.981 542.83C952.392 542.633 952.095 542.091 952.095 541.599C952.145 540.468 952.439 537.466 952.439 537.269C952.439 536.874 952.145 536.63 951.8 536.63C950.669 536.63 944.078 537.269 943.683 537.269C943.094 537.269 942.649 537.025 942.452 536.58C941.96 535.596 940.879 532.545 940.879 531.808C940.879 531.367 941.026 530.875 941.274 530.577C944.817 525.856 952.439 514.884 954.751 511.883C954.996 511.589 955.293 511.391 955.685 511.391C956.127 511.391 957.063 512.03 957.408 512.03C957.605 512.03 957.753 511.933 957.85 511.736C957.997 511.441 958.342 511.194 958.736 511.194C959.325 511.194 962.671 512.127 963.949 512.572C964.344 512.72 964.491 513.064 964.491 513.409C964.491 513.506 964.441 513.754 964.441 513.754C963.555 516.41 962.179 521.871 960.898 528.61C960.898 528.61 960.848 528.904 960.848 529.051C960.848 529.346 961.045 529.64 961.39 529.64H962.323L962.33 529.644ZM948.755 530.135C948.755 530.283 948.903 530.43 949.15 530.43C949.247 530.43 951.512 530.186 952.694 530.085C953.185 530.035 953.48 529.791 953.58 529.299C954.122 526.247 955.106 521.476 955.106 521.131C955.106 520.984 955.106 520.887 955.056 520.887C954.959 520.887 954.812 521.085 954.812 521.085C954.223 521.871 949.401 529.055 948.909 529.791C948.812 529.938 948.762 530.035 948.762 530.135H948.755Z" fill="black"/>
<path d="M958.332 630.655C956.906 629.869 954.296 627.309 952.871 625.834C952.526 625.489 952.379 625.048 952.379 624.603C952.379 620.912 954.939 608.418 956.167 604.088C956.217 603.891 956.217 603.647 956.217 603.449C956.217 602.415 956.019 600.793 956.019 600.498C956.019 600.103 956.217 599.762 956.608 599.611C959.362 598.43 962.708 597.644 964.823 597.644C972.398 597.644 978.451 605.812 978.451 612.008C978.451 621.698 969.989 630.261 960.152 630.947C959.513 630.947 958.874 630.896 958.332 630.652V630.655ZM971.662 609.847C971.662 606.156 968.564 603.945 965.218 603.945C964.873 603.945 964.578 603.945 964.234 603.995C963.645 604.092 963.347 604.339 963.25 604.831C962.069 609.653 960.496 616.492 959.513 622.983C959.513 622.983 959.462 623.278 959.462 623.378C959.462 623.773 959.707 623.92 960.152 623.92C963.842 623.92 971.662 619.149 971.662 609.85V609.847Z" fill="black"/>
<path d="M1004.38 600.893V602.124C1004.38 610.536 1001.57 631 991.192 631C987.11 631 983.025 628.246 981.599 626.229C980.519 624.703 980.027 622.193 980.027 619.881C980.027 611.814 983.125 601.927 984.701 598.972C984.996 598.48 985.34 598.186 985.979 598.186C986.913 598.186 989.523 599.023 990.751 599.464C991.145 599.611 991.339 600.053 991.339 600.448C991.339 600.696 991.242 600.99 991.242 600.99C989.275 606.303 987.06 615.552 987.06 620.176C987.06 622.735 987.552 624.505 989.519 624.505C992.323 624.505 993.899 620.323 995.177 615.207C996.653 609.352 997.54 601.776 997.784 599.22C997.834 598.728 998.179 598.434 998.62 598.434C999.36 598.434 1002.31 599.173 1003.49 599.615C1004.08 599.859 1004.33 600.401 1004.38 600.893H1004.38Z" fill="black"/>
<path d="M1020.86 618.994C1020.86 619.239 1021 619.436 1021 619.436C1022.68 622.043 1024.65 624.847 1026.27 626.275C1026.47 626.473 1026.56 626.717 1026.56 626.965C1026.56 627.162 1026.47 627.359 1026.32 627.553C1025.24 628.587 1023.17 630.113 1021.74 630.752C1021.74 630.752 1021.55 630.849 1021.25 630.849C1020.81 630.849 1020.42 630.652 1020.17 630.454C1017.46 628.142 1015.3 623.224 1014.46 620.319C1014.27 619.828 1014.07 619.483 1013.68 619.483H1013.09C1012.6 619.483 1012.4 619.727 1012.35 620.222C1011.76 623.518 1011.27 626.911 1010.92 630.11C1010.83 630.602 1010.48 630.896 1010.04 630.896C1009 630.896 1005.41 629.765 1005.07 629.618C1004.33 629.323 1004.23 628.878 1004.18 628.387C1004.28 622.779 1006.59 610.824 1008.46 603.593C1008.56 603.198 1008.56 603.004 1008.56 602.807C1008.56 601.97 1008.31 600.936 1008.31 600.545C1008.31 600.103 1008.66 599.708 1009 599.561C1010.92 598.775 1014.22 597.791 1018.3 597.791C1024.65 597.791 1029.71 604.483 1029.71 608.712C1029.71 612.942 1026.12 616.733 1021.4 618.402C1021.06 618.549 1020.86 618.697 1020.86 618.991V618.994ZM1015.59 604.828C1015.4 605.517 1013.63 612.895 1013.63 613.387C1013.63 613.731 1013.82 613.878 1014.17 613.878C1018.74 613.878 1022.38 610.486 1022.38 607.531C1022.38 604.971 1020.32 603.891 1017.91 603.891C1017.51 603.891 1017.12 603.891 1016.73 603.941C1016.09 603.991 1015.74 604.336 1015.59 604.828Z" fill="black"/>
<path d="M1051.31 597.989C1052.1 597.989 1055.44 598.922 1056.67 599.367C1057.02 599.515 1057.26 599.859 1057.26 600.254C1057.26 600.401 1057.21 600.548 1057.21 600.548C1055.64 605.025 1052.54 618.456 1051.21 630.113C1051.16 630.605 1050.81 630.853 1050.42 630.853C1049.44 630.853 1045.95 629.819 1045.4 629.622C1044.76 629.377 1044.57 628.932 1044.52 628.343C1044.52 626.179 1045.21 621.504 1045.21 621.21C1045.21 620.815 1044.91 620.521 1044.42 620.521C1042.75 620.618 1040.58 620.668 1038.71 620.718C1038.17 620.718 1037.83 621.16 1037.73 621.605C1037.24 624.459 1036.79 627.313 1036.5 630.117C1036.45 630.609 1036.06 630.856 1035.66 630.856C1034.63 630.856 1031.23 629.873 1030.64 629.625C1030.15 629.428 1029.86 628.936 1029.8 628.347C1029.9 625.887 1030.54 621.066 1030.54 620.869C1030.54 620.574 1030.45 620.427 1030.3 620.28C1030.2 620.132 1030.05 619.985 1029.95 619.691C1029.75 618.955 1029.61 617.626 1029.56 616.639C1029.56 616 1029.7 615.753 1030.59 615.508C1031.28 615.311 1031.57 614.966 1031.67 614.525C1032.85 607.833 1034.53 601.194 1035.56 598.685C1035.75 598.29 1036.1 598.046 1036.54 598.046C1037.43 598.046 1040.82 598.932 1041.95 599.374C1042.3 599.471 1042.54 599.916 1042.54 600.308C1042.54 600.455 1042.44 600.749 1042.44 600.749C1041.56 603.111 1040.42 607.635 1039.2 613.44C1039.2 613.44 1039.15 613.685 1039.15 613.835C1039.15 614.18 1039.44 614.474 1039.84 614.474C1040.03 614.474 1044.51 614.327 1045.49 614.327C1045.99 614.327 1046.43 613.983 1046.53 613.491C1047.76 607.194 1049.28 601.094 1050.32 598.685C1050.46 598.29 1050.86 597.995 1051.3 597.995L1051.31 597.989Z" fill="black"/>
<path d="M1056.38 622.341C1056.38 621.752 1055.54 619.684 1055.54 618.797C1055.54 618.305 1055.78 617.961 1056.32 617.864C1056.87 617.767 1057.51 617.62 1057.51 617.62C1058.2 617.472 1058.39 617.225 1058.69 616.636C1061.29 611.47 1065.53 601.582 1067.74 598.976C1068.03 598.631 1068.38 598.534 1068.72 598.534C1069.21 598.534 1070.1 598.879 1070.39 598.879C1070.79 598.879 1071.18 598.634 1071.23 598.24C1071.28 597.895 1071.48 597.601 1071.87 597.601C1072.56 597.601 1076.05 598.832 1076.84 599.223C1077.38 599.471 1077.73 599.963 1077.82 600.552C1078.36 603.356 1078.61 611.67 1078.61 619.048C1078.61 623.723 1078.46 627.952 1078.21 630.167C1078.16 630.562 1077.82 630.906 1077.23 630.906C1076.39 630.906 1072.9 630.364 1072.02 630.07C1071.53 629.923 1071.23 629.481 1071.23 628.792C1071.23 627.661 1071.38 624.071 1071.38 623.281C1071.38 622.839 1071.08 622.541 1070.59 622.541C1068.38 622.541 1064.84 622.739 1064.24 622.789C1063.66 622.839 1063.41 623.084 1063.11 623.676C1062.18 625.74 1061.34 628.397 1060.6 630.12C1060.41 630.515 1060.06 630.709 1059.72 630.709C1058.93 630.709 1056.03 629.33 1055.24 628.792C1054.9 628.547 1054.65 628.25 1054.65 627.808C1054.65 627.56 1054.7 627.413 1054.7 627.413L1056.27 622.936C1056.37 622.692 1056.37 622.541 1056.37 622.347L1056.38 622.341ZM1066.02 616.241C1066.02 616.535 1066.22 616.636 1066.71 616.636C1067.94 616.636 1069.95 616.586 1070.59 616.586C1071.13 616.586 1071.43 616.341 1071.53 615.652C1071.58 614.571 1071.58 613.437 1071.58 612.306C1071.58 609.599 1071.48 606.993 1071.43 605.42C1071.43 605.126 1071.33 604.978 1071.23 604.978C1071.13 604.978 1071.03 605.075 1070.94 605.273C1069.71 607.93 1067.99 611.814 1066.12 615.947C1066.12 615.947 1066.02 616.144 1066.02 616.241Z" fill="black"/>
<path d="M1087.12 630.9C1086.09 630.9 1083.04 629.966 1082.25 629.668C1081.61 629.421 1081.41 628.929 1081.36 628.39C1081.61 621.257 1085.35 603.349 1087.37 598.825C1087.56 598.383 1088.11 598.086 1088.69 598.086C1089.38 598.086 1094.5 599.12 1096.61 600.003C1097.16 600.247 1097.2 600.789 1097.2 601.281C1097.25 603.198 1097.25 610.529 1097.2 615.056C1097.2 615.254 1097.25 615.451 1097.35 615.451C1097.45 615.451 1097.59 615.107 1097.59 615.107C1099.66 609.94 1101.97 603.349 1104.33 598.628C1104.58 598.233 1104.97 597.938 1105.51 597.938C1107.04 597.938 1112.55 599.414 1114.17 600.154C1114.62 600.301 1114.81 600.696 1114.81 601.087C1114.81 601.234 1114.76 601.381 1114.76 601.381C1113.14 606.4 1110.24 618.945 1108.96 630.16C1108.91 630.602 1108.52 630.9 1108.07 630.9C1107.28 630.9 1104.04 630.113 1103.1 629.668C1102.51 629.374 1102.27 628.929 1102.22 628.39C1102.22 623.569 1105.27 610.533 1105.27 609.944C1105.27 609.847 1105.22 609.746 1105.17 609.746C1105.12 609.746 1105.02 609.843 1104.92 610.041C1103 614.421 1101.33 619.781 1099.07 625.733C1098.92 626.128 1098.48 626.473 1098.03 626.473C1097.3 626.473 1094.39 625.539 1093.11 624.947C1092.53 624.653 1092.28 624.06 1092.23 623.569C1091.69 619.731 1091.83 613.926 1091.69 609.843C1091.64 609.596 1091.59 609.499 1091.54 609.499C1091.49 609.499 1091.39 609.596 1091.34 609.793C1090.06 615.401 1088.83 622.976 1088.04 630.16C1087.95 630.602 1087.55 630.9 1087.11 630.9H1087.12Z" fill="black"/>
<path d="M841.831 541.652C843.049 541.652 848.048 543.138 848.928 543.613C849.4 543.884 849.738 544.356 849.738 544.898C849.738 545.032 849.671 545.303 849.671 545.303C847.372 551.791 842.845 570.511 840.751 587.408C840.684 588.084 840.142 588.489 839.533 588.489C838.452 588.489 835.072 587.542 834.059 587.137C833.45 586.866 832.978 586.328 832.911 585.381L832.777 583.149C832.777 582.811 832.643 582.473 832.439 582.473C832.305 582.473 832.168 582.54 831.967 582.811C829.806 585.986 827.236 588.69 825.075 588.69C820.343 588.69 815.003 582.54 815.003 576.457C815.003 565.372 820.681 554.019 829.197 554.019C830.753 554.019 832.847 554.829 835.009 555.98C835.009 555.98 835.347 556.184 835.551 556.184C835.956 556.184 836.227 555.913 836.361 555.304C837.779 549.425 839.131 545.032 840.282 542.596C840.553 542.054 841.162 541.649 841.838 541.649L841.831 541.652ZM832.573 574.299C833.316 570.786 834.601 564.432 834.601 563.89C834.601 563.418 834.397 563.01 833.858 562.809C832.911 562.471 832.034 562.267 831.492 562.267C827.099 562.267 824.666 571.525 824.666 576.189C824.666 578.15 825.138 579.502 825.747 579.502C827.166 579.502 829.736 577.678 831.696 575.851C832.238 575.38 832.506 574.771 832.576 574.296L832.573 574.299Z" fill="black"/>
<path d="M857.039 551.523C861.094 551.523 863.594 548.954 863.594 545.373C863.594 541.385 859.672 539.762 856.43 539.762C855.754 539.762 854.74 540.1 854.268 540.438C852.85 541.586 851.361 543.413 851.361 545.778C851.361 548.887 853.117 551.523 857.039 551.523Z" fill="black"/>
<path d="M879.209 585.518L879.005 582.681C879.005 582.343 878.871 582.139 878.734 582.139C878.597 582.139 878.463 582.273 878.329 582.477C875.964 586.261 873.26 588.693 871.166 588.693C866.367 588.693 861.027 582.815 861.027 576.461C861.027 565.175 866.434 554.022 875.763 554.022C879.075 554.022 885.834 556.659 890.699 559.834C891.171 560.105 891.509 560.644 891.509 561.253C891.509 561.457 891.375 561.996 891.375 561.996C888.672 571.592 887.725 582.068 887.591 587.476C887.524 588.084 887.049 588.556 886.443 588.556C884.687 588.556 880.969 587.542 880.427 587.271C879.547 586.8 879.28 586.191 879.209 585.515V585.518ZM878.6 574.299C879.343 570.786 880.628 564.432 880.628 563.89C880.628 563.418 880.424 563.01 879.885 562.809C878.938 562.471 878.062 562.267 877.52 562.267C873.126 562.267 870.694 571.525 870.694 576.19C870.694 578.15 871.166 579.502 871.774 579.502C873.193 579.502 875.763 577.678 877.724 575.852C878.266 575.38 878.533 574.771 878.604 574.296L878.6 574.299Z" fill="black"/>
<path d="M914.757 554.156C918.136 554.156 923.001 559.091 923.001 562.471C923.001 565.512 920.432 579.639 918.337 587.546C918.133 588.088 917.527 588.626 916.918 588.626C915.362 588.626 911.377 587.141 909.888 586.328C909.346 585.99 909.079 585.381 909.079 584.772C909.079 584.501 909.146 584.163 909.146 584.163C909.146 584.163 912.592 569.969 912.592 565.643C912.592 564.495 912.388 563.749 911.916 563.749C910.902 563.749 907.995 565.372 905.495 567.938C904.819 568.614 904.481 569.424 904.348 570.1C903.13 576.183 901.644 583.751 900.834 587.469C900.7 588.078 900.158 588.549 899.549 588.549C898.064 588.549 893.6 587.064 892.657 586.589C892.048 586.251 891.777 585.709 891.777 585.103C891.777 584.631 895.832 560.704 896.642 555.163C896.776 554.487 897.385 554.016 897.994 554.016C898.736 554.016 903.197 554.825 904.481 555.367C905.224 555.705 905.699 556.448 905.699 557.191C905.699 557.867 905.766 558.881 905.766 559.895C905.766 560.299 905.9 560.503 906.037 560.503C906.241 560.503 906.509 560.166 906.509 560.166C909.213 556.719 912.321 554.149 914.754 554.149L914.757 554.156Z" fill="black"/>
<path d="M939.427 554.022C942.468 554.022 949.903 556.93 954.229 559.701C954.701 560.039 954.972 560.647 954.972 561.256C954.972 561.527 954.905 561.799 954.905 561.799C953.487 567.61 951.66 578.83 950.04 587.007C949.23 591.196 945.985 600.997 935.984 600.997C933.551 600.997 929.225 599.645 927.13 598.089C926.521 597.684 926.321 597.209 926.321 596.67C926.321 595.861 927.268 592.615 927.605 591.872C927.81 591.4 928.214 591.129 928.686 591.129C928.82 591.129 929.091 591.196 929.228 591.263C931.256 592.143 933.013 592.481 934.297 592.481C939.838 592.481 941.528 586.331 941.528 583.49C941.528 583.153 941.394 582.948 941.257 582.948C941.12 582.948 941.053 583.015 940.852 583.286C938.825 586.124 936.459 588.222 934.498 588.222C929.7 588.222 924.564 582.61 924.564 576.056C924.564 564.699 930.309 554.022 939.433 554.022H939.427ZM942.13 574.299C942.873 570.786 944.158 564.432 944.158 563.89C944.158 563.418 943.954 563.01 943.415 562.809C942.468 562.471 941.592 562.267 941.05 562.267C936.656 562.267 934.224 571.525 934.224 576.19C934.224 578.15 934.696 579.502 935.305 579.502C936.723 579.502 939.293 577.678 941.254 575.852C941.796 575.38 942.063 574.771 942.13 574.296V574.299Z" fill="black"/>
<path d="M985.186 567.674C985.186 573.69 981.536 588.693 970.655 588.693C967.613 588.693 961.868 587.004 958.76 583.691C956.866 581.664 955.922 578.555 955.922 574.771C955.922 567.065 960.449 553.956 969.778 553.956C973.291 553.956 979.645 556.592 982.553 559.496C984.31 561.32 985.123 564.566 985.19 567.336V567.674H985.186ZM975.316 566.864C975.316 563.823 974.369 561.795 972.545 561.795C968.828 561.795 965.652 570.649 965.652 576.056C965.652 578.759 966.532 580.72 968.49 580.72C972.612 580.72 975.316 572 975.316 566.864Z" fill="black"/>
<path d="M1003.7 569.026C1003.7 568.484 1004.58 565.242 1004.58 563.957C1004.58 562.672 1004.24 561.862 1003.3 561.862C1000.32 561.862 996.539 568.959 996.539 574.433C996.539 577.746 998.025 579.773 1000.53 579.773C1002.89 579.773 1005.46 578.826 1007.35 577.746C1007.35 577.746 1007.62 577.612 1007.9 577.612C1008.37 577.612 1008.64 577.816 1008.91 578.288C1009.38 579.168 1010.67 581.938 1010.67 582.885C1010.67 583.628 1010.39 584.17 1009.99 584.575C1007.56 586.736 1004.38 588.697 1000.59 588.697C998.363 588.697 992.146 586.873 989.576 583.628C987.753 581.329 986.806 578.425 986.806 574.707C986.806 565.245 993.022 553.959 1000.73 553.959C1003.36 553.959 1013.77 557.543 1013.77 563.017C1013.77 564.639 1012.49 567.882 1011.81 568.966C1011.47 569.508 1010.93 569.913 1010.19 569.98C1009.11 570.046 1006.27 570.046 1004.71 570.046C1004.1 569.98 1003.7 569.575 1003.7 569.033L1003.7 569.026Z" fill="black"/>
<path d="M1044.05 567.674C1044.05 573.69 1040.4 588.693 1029.52 588.693C1026.48 588.693 1020.73 587.004 1017.63 583.691C1015.73 581.664 1014.79 578.555 1014.79 574.771C1014.79 567.065 1019.32 553.956 1028.64 553.956C1032.16 553.956 1038.51 556.592 1041.42 559.496C1043.18 561.32 1043.99 564.566 1044.06 567.336V567.674H1044.05ZM1034.18 566.864C1034.18 563.823 1033.24 561.795 1031.41 561.795C1027.7 561.795 1024.52 570.649 1024.52 576.056C1024.52 578.759 1025.4 580.72 1027.36 580.72C1031.48 580.72 1034.18 572 1034.18 566.864Z" fill="black"/>
<path d="M1067.78 554.156C1071.16 554.156 1076.02 559.091 1076.02 562.471C1076.02 565.512 1073.45 579.639 1071.36 587.546C1071.15 588.088 1070.55 588.626 1069.94 588.626C1068.38 588.626 1064.4 587.141 1062.91 586.328C1062.37 585.99 1062.1 585.381 1062.1 584.772C1062.1 584.501 1062.17 584.163 1062.17 584.163C1062.17 584.163 1065.61 569.969 1065.61 565.643C1065.61 564.495 1065.41 563.749 1064.94 563.749C1063.92 563.749 1061.02 565.372 1058.52 567.938C1057.84 568.614 1057.5 569.424 1057.37 570.1C1056.15 576.183 1054.67 583.751 1053.86 587.469C1053.72 588.078 1053.18 588.549 1052.57 588.549C1051.09 588.549 1046.62 587.064 1045.68 586.589C1045.07 586.251 1044.8 585.709 1044.8 585.103C1044.8 584.631 1048.85 560.704 1049.66 555.163C1049.8 554.487 1050.41 554.016 1051.01 554.016C1051.76 554.016 1056.22 554.825 1057.5 555.367C1058.25 555.705 1058.72 556.448 1058.72 557.191C1058.72 557.867 1058.79 558.881 1058.79 559.895C1058.79 560.299 1058.92 560.503 1059.06 560.503C1059.26 560.503 1059.53 560.166 1059.53 560.166C1062.23 556.719 1065.34 554.149 1067.77 554.149L1067.78 554.156Z" fill="black"/>
<path d="M1086.63 583.086C1086.63 586.398 1084.54 588.831 1081.09 588.831C1077.65 588.831 1076.09 586.261 1076.09 583.491C1076.09 581.125 1076.97 579.907 1078.46 578.555C1078.86 578.15 1079.67 577.812 1080.35 577.812C1083.39 577.812 1086.64 579.502 1086.64 583.086H1086.63Z" fill="black"/>
<path d="M1121.1 557.536C1121.1 557.807 1120.97 558.212 1120.97 558.212C1117.93 568.146 1116.3 581.463 1116.1 587.476C1116.1 588.084 1115.63 588.623 1115.02 588.623C1113.6 588.623 1110.43 587.743 1109.48 587.338C1108.81 587.067 1108.33 586.458 1108.13 585.515C1108 584.973 1107.93 583.353 1107.86 582.269C1107.86 581.797 1107.73 581.526 1107.52 581.526C1107.32 581.526 1107.12 581.931 1107.12 581.931C1104.68 585.987 1101.64 588.757 1099.14 588.757C1095.15 588.757 1089.88 583.35 1089.88 578.01C1089.88 569.765 1092.79 559.694 1094.48 555.505C1094.68 554.963 1095.22 554.491 1095.83 554.491C1096.78 554.491 1101.1 556.181 1102.66 557.061C1103.13 557.332 1103.47 557.803 1103.47 558.345C1103.47 558.817 1103.33 559.225 1103.33 559.225C1101.98 563.214 1099.41 573.623 1099.41 577.608C1099.41 578.622 1099.55 579.231 1099.95 579.231C1101.64 579.231 1104.82 576.932 1107.05 574.028C1107.45 573.486 1107.66 573.014 1107.79 572.204C1108.67 566.188 1110.43 558.958 1111.64 555.445C1111.85 554.836 1112.45 554.364 1113.13 554.364C1114.14 554.364 1118.06 555.445 1120.09 556.325C1120.63 556.529 1121.11 557 1121.11 557.542L1121.1 557.536Z" fill="black"/>
<path d="M1133 554.022C1136.72 554.022 1147.87 557.469 1147.87 562.471C1147.87 564.228 1146.52 566.931 1145.97 567.674C1145.43 568.417 1144.76 568.621 1144.15 568.688H1139.08C1138.41 568.688 1138.07 568.216 1138.07 567.808C1138.07 567.266 1138.74 565.509 1138.74 564.157C1138.74 562.334 1137.93 561.387 1136.92 561.387C1134.62 561.387 1132.59 565.171 1132.59 566.998C1132.59 571.662 1145.43 570.582 1145.43 578.354C1145.43 583.219 1140.64 588.764 1133.74 588.764C1129.69 588.764 1123.74 586.803 1121.57 584.842C1120.97 584.3 1120.83 583.828 1120.83 583.49C1120.83 582.61 1121.64 579.639 1122.25 578.354C1122.52 577.745 1122.79 577.545 1123.2 577.545C1123.6 577.545 1123.87 577.816 1124.01 577.816C1126.37 579.101 1129.69 580.857 1132.46 580.857C1134.01 580.857 1135.43 580.315 1135.56 579.234C1135.56 576.397 1122.52 576.059 1122.52 567.273C1122.52 561.865 1127.45 554.026 1132.99 554.026L1133 554.022Z" fill="black"/>
<path d="M860.485 556.927C860.485 559.63 855.958 582.814 855.011 587.208C854.961 587.429 854.907 587.659 854.851 587.89C854.84 587.89 854.83 587.89 854.82 587.894C853.75 592.434 850.303 600.993 840.955 600.993C838.522 600.993 834.196 599.641 832.101 598.089C831.492 597.684 831.292 597.209 831.292 596.67C831.292 595.857 832.238 592.615 832.576 591.869C832.777 591.397 833.182 591.126 833.657 591.126C833.791 591.126 834.062 591.193 834.196 591.263C836.223 592.14 837.983 592.478 839.265 592.478C840.687 592.478 842.066 592.036 843.18 591.146C843.685 590.744 844.123 590.266 844.501 589.744C845.278 588.673 845.472 587.342 845.703 586.073C845.97 584.605 846.238 583.132 846.499 581.66C846.934 579.214 847.352 576.768 847.77 574.322C848.219 571.692 848.66 569.062 849.105 566.433C849.504 564.07 849.902 561.711 850.313 559.352C850.544 558.027 850.755 556.692 851.023 555.371C851.16 554.695 851.766 554.22 852.512 554.22C853.455 554.22 857.581 554.896 859.404 555.371C860.013 555.572 860.485 556.247 860.485 556.923V556.927Z" fill="black"/>
</g>
<path opacity="0.5" d="M-967 66H756" stroke="#5FBFFA" stroke-width="2"/>
<path opacity="0.5" d="M-967 127H756" stroke="#5FBFFA" stroke-width="2"/>
<path opacity="0.5" d="M-967 188H756" stroke="#5FBFFA" stroke-width="2"/>
<path opacity="0.5" d="M-967 247H756" stroke="#5FBFFA" stroke-width="2"/>
<path opacity="0.5" d="M-967 309H756" stroke="#5FBFFA" stroke-width="2"/>
<path opacity="0.5" d="M-967 369H756" stroke="#5FBFFA" stroke-width="2"/>
<path opacity="0.5" d="M-967 430H756" stroke="#5FBFFA" stroke-width="2"/>
<path opacity="0.5" d="M-967 490H756" stroke="#5FBFFA" stroke-width="2"/>
<path opacity="0.5" d="M-967 550H756" stroke="#5FBFFA" stroke-width="2"/>
<path opacity="0.5" d="M-967 610H756" stroke="#5FBFFA" stroke-width="2"/>
<rect x="752" y="-40" width="8" height="762" fill="black"/>
<g clip-path="url(#clip4_453_184)">
<path d="M699.454 737.785C673.538 719.523 647.333 701.681 620.965 684.067C628.037 683.043 634.571 680.115 639.809 673.749C640.188 673.304 640.719 673.008 641.31 672.932C641.892 672.85 642.483 672.989 642.975 673.315C676.842 692.683 697.061 653.765 666.058 648.615C654.092 646.433 653.685 639.842 655.879 637.961C658.073 636.079 657.941 631.806 655.232 631.786C643.908 632.093 637.287 622.967 650.913 618.008C646.234 614.08 642.802 608.868 641.016 603.018C639.229 597.168 639.184 590.936 640.862 585.054C641.068 584.471 641.477 583.999 642.014 583.695C642.546 583.399 643.175 583.3 643.777 583.424C644.38 583.547 644.919 583.892 645.283 584.373C645.656 584.86 645.83 585.467 645.787 586.075C644.732 599.074 653.764 610.373 663.117 616.281C663.559 616.538 664.061 616.667 664.571 616.657C665.081 616.647 665.58 616.51 666.009 616.243C672.839 610.967 682.69 616.378 690.068 619.599C685.308 616.265 681.456 611.794 678.829 606.599C676.21 601.408 674.931 595.643 675.092 589.824C675.11 589.2 675.363 588.6 675.8 588.158C676.229 587.71 676.821 587.431 677.44 587.385C678.058 587.339 678.683 587.537 679.172 587.921C679.656 588.313 679.984 588.867 680.094 589.48C684.673 609.583 709.018 620.962 711.866 621.733C726.815 625.748 739.25 628.96 736.096 636.671C735.134 638.505 733.76 640.09 732.08 641.304C730.4 642.518 728.466 643.336 726.428 643.677C725.852 643.823 725.345 644.171 725.003 644.652C724.66 645.133 724.49 645.716 724.522 646.301C724.563 646.892 724.8 647.457 725.217 647.877C725.615 648.309 726.168 648.579 726.767 648.652C727.214 648.576 727.68 648.597 728.115 648.718C728.551 648.838 728.957 649.059 729.288 649.374C729.63 649.673 729.889 650.06 730.059 650.473C730.232 650.9 730.303 651.354 730.265 651.809C725.851 670.693 750.081 709.694 744.824 733.273C742.487 743.3 738.334 752.737 732.631 761.146C721.575 753.353 710.545 745.541 699.489 737.749L699.454 737.785Z" fill="#3D9CFB"/>
<path d="M649.76 654.275C648.643 654.386 647.971 653.282 647.288 652.05C645.824 649.424 646.842 645.336 650.441 646.113C652.745 646.62 653.666 648.814 653.337 650.995C653.067 652.76 651.407 654.107 649.766 654.267L649.76 654.275Z" fill="black"/>
<path d="M666.921 661.434C665.043 662.277 663.004 662.294 661.862 660.578C659.043 656.359 666.623 652.36 669.999 654.597C672.692 656.381 670.029 660.039 666.921 661.434Z" fill="black"/>
<path d="M675.861 645.333C671.364 641.874 677.587 636.101 681.148 635.089C684.879 634.022 688.917 634.934 692.457 636.524C693.379 636.943 694.31 637.44 694.934 638.237C696.637 640.445 694.111 643.353 692.598 644.894C687.841 649.756 681.048 649.309 675.867 645.325L675.861 645.333Z" fill="black"/>
<path d="M724.58 633.432C723.935 631.889 720.965 631.301 717.86 632.602C714.755 633.904 713.134 631.714 714.821 630.037C718.308 626.458 728.655 626.883 729.436 633.29C730.02 637.876 722.599 641.056 720.295 638.414C717.991 635.772 725.69 635.559 724.566 633.435L724.58 633.432Z" fill="black"/>
<path d="M736.199 763.725C735.593 763.3 734.979 762.869 734.379 762.435C737.046 759.152 739.432 755.623 741.471 751.876C747.287 741.178 750.142 729.119 749.758 716.953C748.591 692.968 725.366 670.575 729.197 648.75C725.795 649.267 722.337 648.476 719.503 646.526C714.767 643.1 717.691 640.587 719.234 641.861C729.856 651.142 750.693 632.799 733.156 625.918C723.669 622.512 713.17 625.032 703.4 624.389C693.053 623.712 684.969 615.056 674.912 615.027C671.478 614.995 668.137 616.2 665.53 618.432C662.924 620.664 661.216 623.767 660.71 627.174C665.198 635.174 665.975 638.22 658.337 637.093C655.672 640.174 652.184 642.433 648.285 643.593C632.477 651.845 639.179 670.824 655.113 673.824C670.957 679.007 683.408 671.602 687.313 656.003C688.201 653.197 693.444 656.419 687.274 667.469C705.638 666.765 706 652.73 708.004 648.456C708.572 647.164 712.047 648.256 711.309 654.004C709.734 667.788 688.701 683.782 692.039 698.696C695.879 711.893 697.595 724.186 696.675 735.859C695.185 734.812 693.69 733.774 692.2 732.727C692.057 709.84 677.873 694.133 697.098 670.656C692.681 672.144 687.999 672.748 683.338 672.431C673.074 684.104 654.138 681.814 642.377 673.566C637.125 680.931 630.356 684.232 622.785 685.321C620.531 683.816 618.278 682.311 616.016 680.8C624.686 680.714 632.819 678.342 639.712 670.853C629.279 660.582 634.049 643.062 647.759 638.41C650.753 637.659 653.329 635.743 654.922 633.104C643.799 635.535 636.127 621.767 646.273 615.342C630.879 601.208 635.013 577.46 650.787 566.307C654.991 563.347 660.154 563.576 658.441 571.666C654.281 590.166 664.146 599.773 677.042 610.273C677.993 610.267 678.926 610.417 679.822 610.711C662.039 587.437 687.335 548.261 689.343 570.596C693.541 612.819 725.431 592.55 727.259 619.756C745.763 620.524 751.312 640.466 733.48 647.953C730.691 670.72 753.509 691.992 754.495 716.684C754.975 726.659 753.348 736.629 749.741 745.947C747.013 752.98 743.187 759.515 738.423 765.33C737.689 764.808 736.95 764.295 736.208 763.767L736.199 763.725ZM648.673 627.308L648.632 627.281C649.66 627.902 650.787 628.301 651.98 628.455C653.167 628.618 654.371 628.54 655.527 628.226C655.85 624.062 657.411 620.094 660.004 616.834C653.809 616.172 641.017 621.12 648.673 627.308ZM654.293 569.398L654.196 569.454C640.058 579.387 637.553 601.779 650.908 613.434C655.308 611.971 660.045 611.883 664.486 613.182C666.341 612.012 668.397 611.19 670.556 610.774C654.696 598.682 650.301 584.422 654.285 569.392L654.293 569.398ZM721.816 615.658L721.775 615.631C720.63 606.259 702.469 607.002 695.094 598.506C688.584 590.462 684.853 580.54 684.457 570.202C674.479 583.18 676.784 602.46 688.077 613.733C697.075 619.959 707.168 619.952 717.717 619.636C720.909 619.544 722.158 618.619 721.816 615.658Z" fill="black"/>
<path d="M712.252 651.93C711.843 652.439 711.942 653.104 712.489 653.527C713.029 653.944 713.763 653.867 714.092 653.353C714.445 652.82 714.352 652.146 713.879 651.701C713.487 651.333 712.644 651.446 712.257 651.922L712.252 651.93Z" fill="black"/>
<path d="M661.495 634.772C661.942 635.056 662.574 634.935 662.87 634.507C663.088 634.196 662.984 633.647 662.656 633.381C662.233 633.042 661.551 633.057 661.236 633.424C660.901 633.803 661.031 634.476 661.5 634.763L661.495 634.772Z" fill="black"/>
<path d="M708.148 653.145C708.118 653.317 708.046 653.606 708.028 653.906C708.009 654.169 708.404 654.479 708.639 654.431C709.324 654.285 709.821 653.534 709.683 652.783C709.655 652.645 709.405 652.443 709.252 652.438C708.867 652.422 708.468 652.698 708.148 653.145Z" fill="black"/>
<path d="M654.757 626.672C655.209 626.948 655.664 626.77 655.807 626.337C655.983 625.781 655.69 625.191 655.218 625.143C654.71 625.094 654.345 625.32 654.291 625.728C654.234 626.194 654.462 626.501 654.757 626.672Z" fill="black"/>
<path d="M649.639 674.012C649.38 674.512 649.476 675.019 649.779 675.268C650.087 675.508 650.672 675.368 650.851 675.007C651.025 674.654 650.854 674.133 650.418 673.976C650.177 673.888 649.853 673.997 649.639 674.012Z" fill="black"/>
<path d="M659.382 647.827C659.006 648.214 659.041 648.74 659.363 648.978C659.591 649.141 659.985 649.09 660.187 648.876C660.488 648.548 660.475 647.987 660.115 647.844C659.879 647.748 659.571 647.832 659.391 647.832L659.382 647.827Z" fill="black"/>
<path d="M682.394 619.829C682.146 620.168 682.169 620.64 682.459 620.927C682.728 621.19 683.374 621.102 683.507 620.794C683.647 620.491 683.504 619.965 683.193 619.71C682.968 619.525 682.574 619.576 682.394 619.829Z" fill="black"/>
<path d="M712.617 646.87C712.412 646.926 712.082 646.936 711.869 647.094C711.598 647.286 711.714 648.035 712.049 648.126C712.302 648.197 712.679 648.135 712.892 647.976C713.188 647.765 713.045 647.13 712.631 646.867L712.617 646.87Z" fill="black"/>
<path d="M664.966 632.393C664.917 632.684 664.812 632.915 664.871 633.062C665.102 633.563 665.713 633.656 666.161 633.305C666.236 633.246 666.33 633.105 666.31 633.08C666.151 632.831 666.009 632.52 665.776 632.402C665.559 632.294 665.232 632.389 664.968 632.407L664.966 632.393Z" fill="black"/>
<path d="M708.807 633.646C708.875 633.834 708.889 634.084 709.028 634.2C709.245 634.379 709.757 634.167 709.807 633.876C709.837 633.704 709.725 633.438 709.589 633.336C709.325 633.137 708.937 633.324 708.81 633.66L708.807 633.646Z" fill="black"/>
<path d="M709.813 638.211C710.07 638.584 710.192 638.87 710.395 639.016C710.612 639.16 711.022 638.867 711.037 638.554C711.048 638.393 710.895 638.099 710.784 638.086C710.517 638.053 710.249 638.151 709.808 638.219L709.813 638.211Z" fill="black"/>
<path d="M690.583 637.67C690.678 637.817 690.773 638.107 690.976 638.254C691.162 638.389 691.574 638.075 691.64 637.794C691.7 637.522 691.461 637.268 691.089 637.213C690.837 637.178 690.685 637.281 690.589 637.661L690.583 637.67Z" fill="black"/>
<path d="M657.26 615.58C657.316 615.749 657.327 615.948 657.425 616.073C657.639 616.311 657.933 616.157 658.026 615.799C658.083 615.55 658.003 615.364 657.745 615.373C657.578 615.371 657.412 615.513 657.254 615.588L657.26 615.58Z" fill="black"/>
<path d="M713.69 656.494C713.652 656.769 713.528 657.082 713.928 657.203C714.22 657.288 714.511 657.302 714.66 656.968C714.822 656.596 714.58 656.256 714.119 656.19C713.881 656.152 713.734 656.247 713.69 656.494Z" fill="black"/>
<path d="M706.387 638.784C706.187 638.76 705.968 638.674 705.799 638.73C705.572 638.82 705.579 639.388 705.823 639.526C705.97 639.612 706.231 639.616 706.389 639.541C706.685 639.402 706.67 639.008 706.379 638.778L706.387 638.784Z" fill="black"/>
<path d="M696.019 635.693C695.836 635.716 695.517 635.672 695.32 635.806C694.972 636.043 695.02 636.531 695.348 636.832C695.526 636.998 696.012 637.008 696.175 636.852C696.463 636.563 696.442 636.105 696.025 635.685L696.019 635.693Z" fill="black"/>
<path d="M690.194 656.653C690.175 656.952 690.104 657.169 690.159 657.338C690.255 657.629 690.673 657.63 690.914 657.322C691.016 657.186 690.982 656.947 691.009 656.761C690.735 656.723 690.474 656.682 690.199 656.644L690.194 656.653Z" fill="black"/>
<path d="M657.979 643.97C657.869 644.389 657.859 644.658 658.173 644.854C658.481 645.058 659.016 644.813 659.118 644.46C659.175 644.247 658.916 643.787 658.678 643.785C658.425 643.786 658.17 643.917 657.987 643.975L657.979 643.97Z" fill="black"/>
<path d="M660.628 653.93C660.781 653.863 661 653.841 661.085 653.729C661.265 653.476 661.078 653.125 660.765 653.145C660.615 653.154 660.385 653.338 660.375 653.462C660.361 653.609 660.539 653.775 660.628 653.93Z" fill="black"/>
<path d="M675.281 631.706C675.573 631.863 675.977 631.688 675.985 631.369C675.979 631.197 675.867 630.967 675.723 630.859C675.47 630.679 674.988 630.9 675.008 631.177C675.022 631.355 675.186 631.523 675.287 631.698L675.281 631.706Z" fill="black"/>
<path d="M659.506 624.049C659.372 623.961 659.117 623.948 658.956 624.009C658.643 624.138 658.639 624.543 658.967 624.736C659.131 624.832 659.372 624.884 659.561 624.853C659.777 624.817 659.772 624.226 659.511 624.041L659.506 624.049Z" fill="black"/>
<path d="M648.441 617.702C648.752 617.812 649.134 617.669 649.13 617.403C649.133 617.237 649.016 617.015 648.879 616.913C648.674 616.753 648.278 616.934 648.223 617.234C648.201 617.375 648.351 617.547 648.432 617.696L648.441 617.702Z" fill="black"/>
<path d="M694.961 655.505C694.711 655.519 694.436 655.481 694.204 655.579C694.123 655.61 694.119 655.943 694.136 656.134C694.164 656.381 694.353 656.494 694.589 656.41C694.772 656.351 694.999 656.262 695.084 656.115C695.148 656.001 695.022 655.774 694.952 655.499L694.961 655.505Z" fill="black"/>
<path d="M655.002 668.94C654.814 668.971 654.526 668.972 654.287 669.078C653.996 669.209 654.064 669.578 654.378 669.846C654.656 670.078 654.948 670.091 655.188 669.855C655.412 669.643 655.372 669.305 654.994 668.934L655.002 668.94Z" fill="black"/>
<path d="M715.362 637.748C715.328 637.582 715.322 637.302 715.252 637.28C715.091 637.233 714.878 637.284 714.723 637.373C714.521 637.479 714.507 637.698 714.649 637.9C714.8 638.108 714.991 638.127 715.177 637.973C715.251 637.915 715.298 637.826 715.362 637.748Z" fill="black"/>
<path d="M698.132 674.292C698.113 674.483 698.025 674.689 698.087 674.849C698.156 675.052 698.647 675.017 698.838 674.783C698.918 674.681 698.915 674.414 698.828 674.309C698.628 674.032 698.32 674.044 698.132 674.292Z" fill="black"/>
<path d="M704.827 658.683C704.91 658.738 705.01 658.84 705.044 658.826C705.199 658.737 705.395 658.639 705.489 658.498C705.66 658.203 705.532 657.89 705.229 657.822C705.077 657.781 704.888 657.848 704.736 657.915C704.67 657.943 704.62 658.09 704.637 658.173C704.673 658.353 704.76 658.53 704.813 658.686L704.827 658.683Z" fill="black"/>
<path d="M646.892 656.07L646.609 656.026L646.792 656.256L646.892 656.07Z" fill="black"/>
<path d="M699.58 630.807C699.58 630.879 699.567 630.954 699.567 631.026C699.68 631.018 699.803 631.015 699.916 631.006C699.891 630.917 699.866 630.829 699.841 630.74C699.752 630.765 699.663 630.79 699.575 630.816L699.58 630.807Z" fill="black"/>
<path d="M663.515 667.118L663.388 667.238L663.529 667.296L663.515 667.118Z" fill="black"/>
</g>
<path d="M1075.43 59.7142C1075.43 57.9048 1076.9 56.438 1078.7 56.438V56.438C1080.51 56.438 1081.98 57.9048 1081.98 59.7142V186.667C1081.98 188.476 1080.51 189.943 1078.7 189.943V189.943C1076.9 189.943 1075.43 188.476 1075.43 186.667V59.7142Z" fill="black"/>
<path d="M878 49.5C878 47.567 879.567 46 881.5 46V46C883.433 46 885 47.567 885 49.5V125.5C885 127.433 883.433 129 881.5 129V129C879.567 129 878 127.433 878 125.5V49.5Z" fill="black"/>
<rect x="905" y="226" width="7" height="69" rx="3.5" transform="rotate(-90 905 226)" fill="black"/>
<rect x="1013.59" y="225.571" width="6.55238" height="35.219" rx="3.27619" transform="rotate(-90 1013.59 225.571)" fill="black"/>
<rect x="867.075" y="446.752" width="7.16364" height="79.6955" rx="3.58182" transform="rotate(-90 867.075 446.752)" fill="black"/>
<rect x="804.393" y="446.752" width="7.16364" height="23.2818" rx="3.58182" transform="rotate(-90 804.393 446.752)" fill="black"/>
<rect x="798.114" y="250.164" width="7.16363" height="80.5909" rx="3.58182" transform="rotate(-90 798.114 250.164)" fill="black"/>
<rect x="1014" y="284" width="6.99999" height="122" rx="3.5" transform="rotate(-90 1014 284)" fill="black"/>
<rect x="1014" y="479" width="7" height="35" rx="3.5" transform="rotate(-90 1014 479)" fill="black"/>
<rect x="1136" y="479" width="7" height="23" rx="3.5" transform="rotate(-90 1136 479)" fill="black"/>
<g clip-path="url(#clip5_453_184)">
<path d="M1163.99 171.198L1129.64 178.777L1129.88 179.508L1153.01 231.766C1154.02 234.895 1156.84 236.775 1159.58 236.145L1162.6 234.691C1164.91 234.159 1166.43 231.649 1166.09 228.879L1164.14 171.175L1163.99 171.198Z" fill="#F39745"/>
<path d="M1163.9 159.04C1159.25 148.451 1150.49 150.092 1149.38 145.905C1148.27 141.718 1152.76 140.799 1147.76 136.735C1143.47 133.238 1133.56 131.691 1131.18 126.238C1130.72 125.177 1129.32 124.956 1128.64 125.895C1125.69 129.96 1124.25 134.585 1122.89 139.348C1121.62 143.824 1118.46 148.167 1118.23 152.902C1118.1 155.658 1121.73 162.45 1119.86 164.663C1119.86 164.663 1113.3 172.393 1117.94 179.936C1118.38 180.605 1119.01 181.122 1119.76 181.418L1119.48 180.612L1163.95 171.205C1165.88 167.373 1165.87 162.848 1163.9 159.031L1163.9 159.04Z" fill="#B989C9"/>
<path d="M1162.33 175.108L1162.42 179.792L1163.31 225.129L1163.43 230.792L1163.48 233.628L1163.49 234.335L1163.5 234.689L1163.51 234.87L1163.53 235.171C1163.56 235.5 1163.54 235.817 1163.5 236.137C1163.32 237.422 1162.47 238.59 1161.32 239.179C1161.03 239.326 1160.72 239.436 1160.41 239.516L1160.24 239.564C1160.24 239.564 1160.1 239.606 1160.08 239.609L1159.92 239.666L1159.58 239.78L1158.91 240.009L1156.22 240.904L1154.87 241.352L1154.2 241.581L1154.12 241.594L1154.12 241.604C1154.12 241.604 1154.1 241.607 1154.08 241.61L1153.83 241.651C1153.14 241.761 1152.43 241.732 1151.76 241.556C1150.41 241.215 1149.2 240.314 1148.48 239.122L1143.81 229.012L1124.79 187.845L1122.41 182.696L1122.09 181.988L1122.35 181.946L1133.44 179.589L1155.62 174.894L1160.31 173.902C1165.67 172.773 1164.89 169.09 1159.53 170.219L1154.84 171.211L1132.66 175.905L1121.57 178.253L1119.06 178.785L1117.78 179.131L1117.14 179.304C1116.98 179.3 1117.06 179.428 1117.1 179.544L1117.21 179.87C1117.53 180.75 1117.77 181.552 1118.14 182.415L1119.01 184.282L1121.39 189.431L1140.41 230.598L1142.79 235.747L1143.98 238.321L1144.57 239.595C1144.57 239.595 1144.58 239.633 1144.55 239.557L1144.59 239.662L1144.67 239.872C1144.73 240.004 1144.78 240.149 1144.85 240.279C1144.98 240.541 1145.12 240.813 1145.27 241.063C1146.49 243.116 1148.54 244.641 1150.85 245.224C1152 245.517 1153.23 245.574 1154.4 245.397L1154.85 245.326C1154.94 245.302 1155.04 245.296 1155.15 245.257L1155.41 245.175L1156.08 244.946L1157.43 244.498L1160.12 243.603L1161.32 243.21C1161.92 243.063 1162.5 242.848 1163.06 242.567C1165.29 241.442 1166.89 239.212 1167.24 236.745C1167.33 236.134 1167.36 235.501 1167.3 234.893L1167.28 233.6L1167.22 230.764L1167.1 225.101L1166.22 179.764L1166.13 175.08C1166.09 172.929 1165.48 171.629 1164.76 171.197L1164.04 170.633C1163.87 171.066 1163.96 171.476 1164.3 171.787L1163.58 171.223C1162.88 171.679 1162.32 173.004 1162.36 175.154L1162.33 175.108Z" fill="#010101"/>
<path d="M1162.66 210.286L1155.6 207.018L1156.86 203.009C1158.16 203.672 1159.45 204.359 1160.73 205.066C1161.7 205.609 1162.74 204.187 1161.75 203.636C1160.31 202.834 1158.86 202.063 1157.38 201.316L1159.12 195.804C1159.45 194.738 1157.82 194.087 1157.48 195.165L1155.79 200.518C1154.72 199.999 1153.66 199.49 1152.58 199.004L1153.39 196.82C1153.57 196.366 1153.33 195.856 1152.88 195.686C1152.43 195.505 1151.92 195.738 1151.75 196.191L1150.98 198.288C1148.97 197.403 1146.93 196.564 1144.89 195.787C1144.43 195.606 1143.92 195.839 1143.75 196.292C1143.57 196.746 1143.8 197.256 1144.26 197.427C1146.32 198.212 1148.36 199.05 1150.38 199.933L1148.91 203.925L1143.66 201.491C1142.63 201.018 1142 202.657 1143.02 203.133L1148.29 205.582L1145.41 213.424C1145.23 213.879 1145.47 214.388 1145.92 214.559C1146.37 214.74 1146.88 214.506 1147.05 214.054L1149.89 206.31L1153.44 207.951L1152.04 212.418C1151.7 213.484 1153.33 214.135 1153.68 213.057L1155.05 208.697L1162.01 211.919C1163.05 212.401 1163.68 210.752 1162.66 210.276L1162.66 210.286Z" fill="black"/>
<path d="M1162.31 211.355L1159.59 210.109L1154.67 207.836L1153.55 211.376L1153.1 212.805C1153.03 212.998 1153.03 212.957 1153.01 212.982C1152.99 212.995 1152.89 213 1152.8 212.954C1152.71 212.907 1152.65 212.836 1152.63 212.778C1152.63 212.749 1152.62 212.719 1152.62 212.68C1152.62 212.658 1152.63 212.637 1152.63 212.617L1152.68 212.437L1153.13 211.008L1154.19 207.628L1149.52 205.467L1147.62 210.651L1146.79 212.921L1146.58 213.491L1146.47 213.772C1146.45 213.836 1146.43 213.859 1146.43 213.859C1146.43 213.859 1146.42 213.882 1146.41 213.893C1146.34 213.985 1146.21 214.026 1146.1 213.973C1145.99 213.93 1145.93 213.798 1145.96 213.681L1146.35 212.617L1147.18 210.347L1149.05 205.259L1145.28 203.511L1143.65 202.759L1143.24 202.57C1143.24 202.57 1143.15 202.514 1143.14 202.486C1143.09 202.433 1143.07 202.324 1143.12 202.206C1143.16 202.088 1143.23 202.036 1143.24 202.044C1143.25 202.043 1143.28 202.048 1143.34 202.069C1143.42 202.106 1143.6 202.19 1143.72 202.241L1145.35 202.994L1149.22 204.786L1151.12 199.591L1146.87 197.85L1145.01 197.093L1144.55 196.904L1144.43 196.852C1144.43 196.852 1144.41 196.846 1144.4 196.837C1144.37 196.831 1144.36 196.812 1144.34 196.796C1144.27 196.726 1144.24 196.619 1144.28 196.532C1144.31 196.445 1144.39 196.372 1144.49 196.366C1144.51 196.363 1144.54 196.358 1144.56 196.365C1144.58 196.362 1144.61 196.378 1144.7 196.414L1145.16 196.604L1147 197.363L1151.29 199.129L1152.15 196.805L1152.29 196.418C1152.29 196.418 1152.34 196.349 1152.36 196.325C1152.44 196.273 1152.54 196.257 1152.61 196.305C1152.69 196.343 1152.75 196.424 1152.76 196.505C1152.77 196.564 1152.77 196.564 1152.72 196.663L1152.57 197.092L1151.73 199.352L1156.11 201.417L1157.39 197.365L1157.92 195.681C1157.96 195.563 1158.03 195.339 1158.04 195.338C1158.06 195.284 1158.07 195.292 1158.08 195.271C1158.09 195.269 1158.2 195.242 1158.31 195.295C1158.43 195.347 1158.46 195.443 1158.48 195.5C1158.49 195.54 1158.49 195.56 1158.46 195.666L1158.32 196.093L1157.79 197.778L1156.58 201.647L1159.7 203.306C1160.47 203.739 1161.87 204.398 1161.45 204.343C1161.42 204.418 1161.34 204.513 1161.25 204.547C1161.17 204.581 1161.09 204.582 1161.02 204.553C1161.01 204.555 1160.87 204.487 1160.77 204.422L1160.43 204.242L1159.77 203.882L1156.44 202.105L1154.78 207.361L1157.1 208.439L1159.93 209.751C1163.15 211.241 1163.68 210.104 1160.45 208.613L1157.63 207.302L1156.31 206.693L1157.17 203.932L1159.17 204.991L1159.83 205.341L1160.16 205.521C1160.27 205.574 1160.36 205.631 1160.58 205.727C1160.97 205.888 1161.44 205.863 1161.81 205.673C1162.17 205.493 1162.46 205.204 1162.62 204.814C1162.79 204.442 1162.77 203.849 1162.45 203.475C1162.31 203.295 1162.09 203.157 1161.97 203.085L1161.64 202.905L1160.3 202.197L1158.1 201.03L1159 198.162L1159.53 196.477L1159.66 196.051C1159.72 195.869 1159.77 195.588 1159.73 195.341C1159.65 194.818 1159.31 194.386 1158.89 194.19C1158.48 193.981 1157.92 193.908 1157.42 194.211C1157.18 194.36 1157 194.593 1156.91 194.809C1156.79 195.071 1156.79 195.142 1156.74 195.303L1156.21 196.987L1155.36 199.674L1153.32 198.714L1153.75 197.541L1153.91 197.111C1153.98 196.938 1154.04 196.624 1154.01 196.376C1153.96 195.857 1153.62 195.375 1153.13 195.159C1152.66 194.941 1152.06 194.996 1151.64 195.305C1151.44 195.46 1151.26 195.661 1151.14 195.902C1151.05 196.12 1151.03 196.214 1150.96 196.376L1150.55 197.485L1147.47 196.215L1145.61 195.458L1145.15 195.269C1145.09 195.247 1144.95 195.189 1144.81 195.162C1144.67 195.133 1144.53 195.125 1144.38 195.139C1143.81 195.179 1143.28 195.577 1143.09 196.125C1142.88 196.664 1143.02 197.31 1143.43 197.71C1143.53 197.806 1143.64 197.899 1143.78 197.969C1143.83 198.001 1143.91 198.029 1143.96 198.061L1144.08 198.103L1144.54 198.293L1146.38 199.042L1149.51 200.325L1148.49 203.111L1145.85 201.891L1144.22 201.138C1144.08 201.07 1143.98 201.015 1143.79 200.945C1143.56 200.859 1143.29 200.79 1143.01 200.846C1142.43 200.939 1142.03 201.396 1141.89 201.834C1141.74 202.284 1141.77 202.826 1142.09 203.261C1142.25 203.479 1142.45 203.629 1142.67 203.735L1143.09 203.922L1144.71 204.675L1147.44 205.941L1145.97 209.943L1145.14 212.212L1144.93 212.783L1144.82 213.063C1144.78 213.16 1144.74 213.237 1144.69 213.428C1144.52 214.104 1144.88 214.866 1145.53 215.148C1146.15 215.453 1146.98 215.24 1147.37 214.661C1147.42 214.592 1147.47 214.514 1147.51 214.437C1147.56 214.348 1147.58 214.284 1147.59 214.241L1147.7 213.961L1147.91 213.39L1148.74 211.121L1150.17 207.206L1152.61 208.326L1151.88 210.661L1151.43 212.089L1151.38 212.27C1151.35 212.365 1151.33 212.47 1151.31 212.574C1151.29 212.791 1151.31 213.009 1151.38 213.222C1151.52 213.644 1151.84 213.948 1152.19 214.125C1152.54 214.292 1152.99 214.372 1153.43 214.18C1153.88 214.007 1154.16 213.506 1154.23 213.222L1154.68 211.793L1155.37 209.618L1158.99 211.298L1161.8 212.591C1162.12 212.732 1162.57 212.722 1162.89 212.538C1163.21 212.366 1163.4 212.103 1163.5 211.873C1163.71 211.395 1163.63 210.932 1163.44 210.648C1163.26 210.352 1163.01 210.25 1162.86 210.235C1162.69 210.22 1162.62 210.272 1162.58 210.34C1162.5 210.484 1162.67 210.72 1162.63 210.97C1162.62 211.083 1162.57 211.232 1162.47 211.35C1162.42 211.409 1162.37 211.436 1162.34 211.441C1162.31 211.446 1162.3 211.447 1162.23 211.409L1162.31 211.355Z" fill="#010101"/>
<path d="M1117.23 181.315C1117.23 181.315 1117.18 181.323 1117.12 181.352C1117.11 181.354 1117.1 181.355 1117.1 181.367C1117.03 181.174 1117.02 181.258 1117.15 181.298C1117.19 181.312 1117.22 181.317 1117.23 181.315Z" fill="black"/>
<path d="M1168.04 170.229L1167.5 170.314C1167.73 170.095 1167.83 169.887 1167.8 169.709C1167.84 169.856 1167.95 169.999 1168.01 170.151C1168.03 170.179 1168.03 170.199 1168.04 170.229Z" fill="black"/>
<path d="M1163.01 169.421L1157.72 170.539L1132.85 175.784L1120.41 178.417L1117.29 179.078L1116.9 179.161L1116.79 179.178C1116.79 179.178 1116.56 179.224 1116.42 179.278C1115.81 179.456 1115.25 180.011 1115.07 180.607C1114.88 181.204 1114.93 181.794 1115.21 182.357C1115.47 182.923 1116.21 183.442 1116.9 183.444C1117.07 183.456 1117.21 183.424 1117.36 183.411C1117.53 183.384 1117.52 183.385 1117.61 183.361L1118 183.279L1118.77 183.115L1120.33 182.795L1123.44 182.137L1148.29 176.884L1160.72 174.262L1166.19 173.106L1166.71 176.394L1142.67 181.608L1130.08 184.338L1123.77 185.709L1120.6 186.397L1119.82 186.573L1119.61 186.606L1119.48 186.638C1119.16 186.708 1118.85 186.839 1118.59 187.043C1118.04 187.474 1117.77 188.135 1117.76 188.724C1117.77 189.311 1117.96 189.928 1118.51 190.417C1118.79 190.656 1119.16 190.82 1119.51 190.865C1119.69 190.887 1119.86 190.89 1120.01 190.866L1120.24 190.83L1120.36 190.811L1121.14 190.646L1122.71 190.303L1125.87 189.618L1132.16 188.249L1144.76 185.519L1157.35 182.789L1163.66 181.419L1166.82 180.732L1168.4 180.388L1169.2 180.22L1169.39 180.189L1169.53 180.147C1169.86 180.084 1170.15 179.957 1170.41 179.754C1170.83 179.443 1171.13 178.969 1171.23 178.447C1171.28 178.206 1171.27 177.864 1171.24 177.696L1170.56 173.44C1170.44 172.68 1170.3 172.014 1170.14 171.453C1169.8 170.281 1169.43 169.337 1168.12 169.131C1166.43 168.864 1164.67 169.064 1163.01 169.421ZM1117.12 181.352C1117.12 181.352 1117.1 181.356 1117.1 181.367C1117.03 181.174 1117.02 181.258 1117.15 181.298C1117.19 181.312 1117.22 181.317 1117.23 181.315C1117.22 181.317 1117.18 181.323 1117.12 181.352Z" fill="black"/>
<path d="M1117.23 181.315C1117.23 181.315 1117.18 181.323 1117.12 181.352C1117.11 181.354 1117.1 181.355 1117.1 181.367C1117.03 181.174 1117.02 181.258 1117.15 181.298C1117.19 181.312 1117.22 181.317 1117.23 181.315Z" fill="#010101"/>
<path d="M1137.05 135.641C1136.87 135.628 1136.71 135.633 1136.55 135.649L1136.37 135.597L1136.35 135.59C1136.36 135.588 1136.33 135.613 1136.33 135.573L1136.35 135.57C1136.54 135.56 1136.79 135.58 1137.05 135.641Z" fill="black"/>
<path d="M1137.7 134.169C1137.34 133.579 1136.74 133.25 1135.81 133.51C1135.02 133.707 1134.39 134.385 1134.23 135.179C1133.63 137.695 1132.43 140.054 1130.76 142.021C1129.93 143.015 1128.98 143.906 1127.95 144.658C1127.42 145.046 1126.88 145.396 1126.32 145.717L1125.89 145.948L1125.78 146.016L1125.53 146.167C1125.38 146.273 1125.21 146.441 1125.09 146.603C1124.52 147.331 1124.54 148.26 1124.89 148.923C1125.07 149.27 1125.34 149.59 1125.74 149.82C1126.13 150.051 1126.68 150.136 1127.1 150.038C1127.34 150 1127.5 149.914 1127.69 149.833L1127.93 149.704L1128.41 149.434C1129.05 149.059 1129.68 148.665 1130.28 148.225C1131.47 147.367 1132.57 146.37 1133.56 145.271C1135.72 142.87 1137.84 139.899 1138.14 136.59C1138.22 135.798 1138.1 134.834 1137.7 134.169ZM1136.55 135.649L1136.37 135.597L1136.35 135.59C1136.36 135.588 1136.33 135.613 1136.33 135.573L1136.35 135.57C1136.54 135.56 1136.79 135.58 1137.05 135.641C1136.87 135.628 1136.71 135.633 1136.55 135.649Z" fill="black"/>
<path d="M1148.34 150.983C1148.34 150.983 1148.28 150.961 1148.25 150.946C1148.24 150.877 1148.22 150.91 1148.34 150.983Z" fill="black"/>
<path d="M1148.39 151.106C1148.39 151.106 1148.26 151.198 1148.25 151.229L1148.24 151.23C1148.19 151.158 1148.12 151.088 1148.04 151.03L1148.03 151.032C1147.89 150.902 1147.72 150.817 1147.54 150.765C1147.78 150.829 1148.09 150.881 1148.25 150.946C1148.26 150.974 1148.27 151.013 1148.27 151.084L1148.34 151.104C1148.36 151.101 1148.38 151.108 1148.39 151.106Z" fill="black"/>
<path d="M1147.31 149.384C1147.45 149.251 1147.61 149.135 1147.77 149.047C1148.76 148.556 1149.96 149.427 1150.35 150.328C1150.45 150.595 1150.5 150.891 1150.49 151.165C1150.5 151.317 1150.47 151.443 1150.44 151.569L1150.39 151.76L1150.36 151.855L1150.11 152.542C1149.94 152.995 1149.76 153.439 1149.58 153.883C1149.19 154.765 1148.76 155.624 1148.29 156.459C1147.33 158.131 1146.19 159.69 1144.9 161.111C1143.63 162.508 1142.27 163.83 1140.81 165.035C1140.17 165.562 1139.33 166.314 1138.46 166.798C1137.58 167.323 1136.63 167.727 1135.65 168.015C1135.4 168.086 1135.17 168.153 1134.9 168.206C1134.75 168.231 1134.71 168.267 1134.34 168.295C1134.06 168.3 1133.78 168.254 1133.52 168.153C1132.46 167.786 1131.85 166.485 1132.27 165.426C1132.46 164.899 1132.86 164.461 1133.37 164.228C1134.04 163.979 1134.01 164.055 1134.23 163.979C1134.62 163.867 1135 163.734 1135.37 163.574C1136.1 163.265 1136.79 162.851 1137.41 162.347L1139.43 160.587C1140.72 159.399 1141.96 158.097 1143 156.727C1143.8 155.667 1144.5 154.532 1145.11 153.351C1145.68 152.227 1146.11 151.004 1146.84 149.966C1146.9 149.886 1146.95 149.806 1147.02 149.724C1147.12 149.608 1147.22 149.491 1147.32 149.383L1147.31 149.384Z" fill="black"/>
<path d="M1148.39 151.106C1148.39 151.106 1148.36 151.101 1148.34 151.104Z" fill="black"/>
<path d="M1148.34 150.983C1148.34 150.983 1148.28 150.961 1148.25 150.946C1148.24 150.877 1148.22 150.91 1148.34 150.983Z" fill="#010101"/>
<path d="M1148.39 151.107C1148.39 151.107 1148.26 151.198 1148.25 151.229L1148.24 151.231C1148.19 151.158 1148.12 151.088 1148.04 151.03L1148.16 151.062C1148.16 151.062 1148.2 151.076 1148.22 151.082C1148.23 151.081 1148.25 151.098 1148.27 151.094C1148.31 151.109 1148.34 151.105 1148.34 151.105C1148.36 151.101 1148.38 151.108 1148.39 151.107Z" fill="#010101"/>
<path d="M1131.82 114.389C1131.48 115.172 1130.99 115.918 1130.08 115.871C1129.6 115.887 1129.19 115.528 1129.15 115.048C1129.13 114.566 1129.48 114.144 1129.97 114.106L1129.98 114.105L1130.03 114.057C1129.93 114.185 1130.1 113.925 1130.11 113.882C1130.15 113.805 1130.18 113.73 1130.21 113.654L1130.32 113.384C1128.94 112.772 1127.35 112.936 1126.12 113.8C1124.04 115.317 1123.6 118.233 1125.12 120.309C1125.76 121.18 1126.68 121.802 1127.72 122.071C1130.19 122.578 1132.61 120.987 1133.12 118.516C1133.43 117.009 1132.94 115.445 1131.82 114.389Z" fill="#DB433B"/>
<path d="M1129.91 116.841C1130.09 116.852 1130.28 116.822 1130.47 116.751C1131.21 116.48 1131.49 115.635 1131.76 114.955L1132.48 113.15L1133.17 111.358L1133.51 110.462C1133.58 110.33 1133.69 109.998 1133.69 109.735C1133.68 109.454 1133.61 109.192 1133.47 108.961C1133.2 108.487 1132.6 108.187 1132.06 108.254C1131.51 108.302 1131 108.656 1130.79 109.186L1130.08 110.99L1129.38 112.793C1129.17 113.313 1128.98 113.849 1128.74 114.354C1128.6 114.639 1128.51 114.928 1128.51 115.252C1128.51 116.082 1129.12 116.805 1129.91 116.841Z" fill="black"/>
<path d="M1166.91 171.187L1163.95 171.66L1164.9 177.585L1167.86 177.112L1166.91 171.187Z" fill="black"/>
<path d="M1159.08 223.829C1159.21 223.151 1159.3 222.417 1159.46 221.713C1159.6 221.114 1160.32 220.696 1160.93 220.801C1161.66 220.927 1162.18 221.725 1161.99 222.464C1161.95 222.664 1161.87 222.898 1161.73 223.012C1161.41 223.277 1161.06 223.555 1160.67 223.687C1159.77 224.003 1159.32 224.612 1159.16 225.528C1159.13 225.715 1158.96 225.885 1158.83 226.057C1158.63 226.342 1157.97 226.396 1157.69 226.158C1157.41 225.919 1157.32 225.266 1157.58 225.031C1158.04 224.613 1158.54 224.25 1159.07 223.821L1159.08 223.829Z" fill="black"/>
<path d="M1149.14 232.394C1148.75 232.497 1148.24 232.255 1148.1 231.892C1147.74 231.007 1148.06 230.177 1148.89 229.78C1149.31 229.582 1150.08 229.915 1150.21 230.36C1150.45 231.152 1149.91 232.191 1149.15 232.393L1149.14 232.394Z" fill="black"/>
<path d="M1151.28 221.976C1151.18 221.972 1151.07 221.989 1150.98 221.974C1150.43 221.899 1150.05 221.555 1149.76 221.125C1149.4 220.595 1149.74 219.853 1150.39 219.698C1150.93 219.562 1151.49 219.745 1151.76 220.138C1152.12 220.648 1152.03 221.3 1151.53 221.785C1151.46 221.857 1151.36 221.912 1151.28 221.976Z" fill="black"/>
<path d="M1149.7 213.115C1150.34 212.982 1150.85 213.337 1150.93 213.719C1151.07 214.445 1150.39 215.284 1149.7 215.151C1149.31 215.071 1148.96 214.823 1148.61 214.605C1148.41 214.476 1148.44 213.904 1148.65 213.769C1149.07 213.489 1149.51 213.236 1149.7 213.125L1149.7 213.115Z" fill="black"/>
<path d="M1152.34 227.894C1151.21 228.063 1150.65 227.423 1150.89 226.434C1151.04 225.833 1151.53 225.391 1151.93 225.489C1152.72 225.677 1153.28 226.711 1152.91 227.417C1152.79 227.65 1152.46 227.783 1152.34 227.894Z" fill="black"/>
<path d="M1164.8 225.721C1164.37 225.74 1163.8 225.364 1163.64 224.895C1163.5 224.501 1163.49 224.108 1163.79 223.757C1164.09 223.395 1164.75 223.319 1165.15 223.61C1165.77 224.068 1165.87 224.913 1165.34 225.454C1165.21 225.586 1164.99 225.631 1164.81 225.72L1164.8 225.721Z" fill="black"/>
<path d="M1144.75 221.084C1144.86 221.512 1144.43 222.098 1143.92 222.2C1143.4 222.313 1142.84 221.997 1142.7 221.524C1142.55 221.051 1142.85 220.415 1143.29 220.254C1143.81 220.07 1144.6 220.511 1144.75 221.084Z" fill="black"/>
<path d="M1134.78 209.026C1135.02 209.22 1135.33 209.352 1135.43 209.58C1135.53 209.827 1135.49 210.198 1135.38 210.459C1135.14 211.044 1134.54 211.241 1134.15 210.929C1133.72 210.582 1133.6 209.973 1133.96 209.571C1134.16 209.357 1134.45 209.229 1134.77 209.016L1134.78 209.026Z" fill="black"/>
<path d="M1154.15 216.647C1154.16 217.254 1153.52 217.851 1152.94 217.782C1152.5 217.731 1152.18 217.408 1152.14 216.979C1152.07 216.372 1152.65 215.843 1153.35 215.864C1153.78 215.876 1154.14 216.233 1154.16 216.646L1154.15 216.647Z" fill="black"/>
<path d="M1145.28 204.534C1145.41 205.091 1145.08 205.649 1144.58 205.739C1144.12 205.814 1143.56 205.417 1143.4 204.904C1143.31 204.585 1143.65 204.035 1144.01 203.906C1144.51 203.735 1145.17 204.065 1145.28 204.544L1145.28 204.534Z" fill="black"/>
<path d="M1132.07 206.561C1132.25 207.009 1131.91 207.589 1131.41 207.701C1131.06 207.785 1130.61 207.453 1130.52 207.062C1130.44 206.67 1130.71 206.221 1131.08 206.132C1131.57 206.023 1131.93 206.179 1132.08 206.559L1132.07 206.561Z" fill="black"/>
<path d="M1150.14 238.443C1149.66 238.589 1149.12 238.23 1149.04 237.707C1148.97 237.322 1149.24 236.824 1149.58 236.729C1150.02 236.607 1150.57 236.966 1150.69 237.493C1150.78 237.844 1150.5 238.343 1150.13 238.444L1150.14 238.443Z" fill="black"/>
<path d="M1147.55 217.145C1147.6 217.683 1147.17 218.188 1146.67 218.155C1146.27 218.127 1145.93 217.827 1145.83 217.398C1145.73 216.948 1146.13 216.236 1146.52 216.174C1146.91 216.113 1147.5 216.676 1147.54 217.135L1147.55 217.145Z" fill="black"/>
<path d="M1143.33 214.952C1143.33 215.427 1142.86 215.766 1142.52 215.537C1142.27 215.374 1142.04 215.157 1141.84 214.925C1141.62 214.648 1141.66 214.276 1141.89 214.109C1142.14 213.926 1142.43 213.81 1142.74 213.973C1143.12 214.185 1143.37 214.49 1143.33 214.942L1143.33 214.952Z" fill="black"/>
<path d="M1142.85 208.435C1142.95 208.744 1142.64 209.249 1142.26 209.37C1141.72 209.549 1141.31 209.34 1141.07 208.77C1140.93 208.409 1141.09 207.866 1141.4 207.737C1141.94 207.508 1142.68 207.865 1142.85 208.435Z" fill="black"/>
<path d="M1156.73 218.191C1156.82 218.206 1156.93 218.209 1157.02 218.246C1157.56 218.463 1157.71 218.936 1157.73 219.449C1157.73 219.59 1157.53 219.804 1157.38 219.869C1156.81 220.102 1156.14 219.672 1156.05 219.058C1156 218.702 1156.38 218.226 1156.73 218.191Z" fill="black"/>
<path d="M1156.19 230.074C1156.11 230.259 1156.05 230.602 1155.85 230.755C1155.48 231.037 1154.88 230.668 1154.7 230.058C1154.66 229.904 1154.76 229.603 1154.89 229.522C1155.39 229.21 1155.98 229.439 1156.2 230.072L1156.19 230.074Z" fill="black"/>
<path d="M1138.65 211.608C1139.13 211.45 1139.64 211.744 1139.72 212.116C1139.76 212.362 1139.53 212.753 1139.26 212.846C1138.91 212.984 1138.33 212.682 1138.35 212.304C1138.36 212.04 1138.57 211.783 1138.65 211.598L1138.65 211.608Z" fill="black"/>
<path d="M1148.1 208.317C1148 208.181 1147.78 207.994 1147.69 207.765C1147.6 207.516 1147.95 207.166 1148.23 207.132C1148.51 207.108 1148.75 207.363 1148.76 207.705C1148.78 208.057 1148.55 208.326 1148.1 208.317Z" fill="black"/>
<path d="M1146.41 234.541C1146.47 234.876 1146.21 235.212 1145.89 235.13C1145.73 235.095 1145.54 234.932 1145.5 234.778C1145.4 234.46 1145.71 234.107 1146.01 234.179C1146.17 234.215 1146.28 234.41 1146.41 234.531L1146.41 234.541Z" fill="black"/>
<path d="M1141.15 201.122C1141.26 201.47 1141.07 201.804 1140.77 201.761C1140.6 201.737 1140.41 201.615 1140.32 201.488C1140.17 201.259 1140.44 200.831 1140.74 200.843C1140.88 200.851 1141.01 201.023 1141.15 201.122Z" fill="black"/>
<path d="M1134.22 203.15C1134.07 203.246 1133.91 203.432 1133.75 203.427C1133.52 203.424 1133.39 203.182 1133.51 202.98C1133.59 202.836 1133.81 202.76 1133.96 202.664C1134.05 202.823 1134.14 202.991 1134.21 203.151L1134.22 203.15Z" fill="black"/>
<path d="M1141.34 225.102C1141.29 225.282 1141.29 225.506 1141.17 225.625C1140.98 225.828 1140.57 225.619 1140.53 225.292C1140.5 225.114 1140.57 224.891 1140.68 224.742C1140.82 224.548 1141.24 224.784 1141.34 225.102Z" fill="black"/>
<path d="M1156.36 236.203C1156.37 236.292 1156.43 236.395 1156.4 236.47C1156.37 236.545 1156.27 236.602 1156.21 236.663C1156.14 236.513 1156.03 236.367 1155.99 236.212C1155.98 236.163 1156.1 236.073 1156.16 236.013C1156.23 236.073 1156.29 236.144 1156.36 236.203Z" fill="black"/>
<path d="M1159.14 232.874C1159.06 232.937 1158.98 233.052 1158.9 233.043C1158.66 233.012 1158.56 232.845 1158.64 232.609C1158.68 232.522 1158.77 232.467 1158.84 232.405C1158.94 232.562 1159.03 232.719 1159.13 232.875L1159.14 232.874Z" fill="black"/>
<path d="M1137.55 222.527C1137.67 222.609 1137.8 222.7 1137.91 222.783C1137.85 222.853 1137.78 222.976 1137.72 222.976C1137.55 222.963 1137.38 222.899 1137.21 222.855C1137.32 222.746 1137.44 222.637 1137.55 222.527Z" fill="black"/>
<path d="M1145.33 228.03C1145.29 228.108 1145.23 228.269 1145.19 228.265C1145.01 228.243 1144.84 228.169 1144.67 228.115C1144.83 228.02 1144.97 227.905 1145.13 227.839C1145.17 227.833 1145.26 227.96 1145.33 228.03Z" fill="black"/>
<path d="M1148.05 224.336C1147.99 224.395 1147.91 224.509 1147.88 224.504C1147.63 224.422 1147.63 224.29 1147.87 224.192C1147.9 224.187 1147.99 224.294 1148.05 224.346L1148.05 224.336Z" fill="black"/>
<path d="M1137.73 205.193C1137.8 205.252 1137.92 205.324 1137.92 205.355C1137.84 205.621 1137.71 205.632 1137.58 205.389C1137.56 205.361 1137.68 205.261 1137.73 205.193Z" fill="black"/>
</g>
<g clip-path="url(#clip6_453_184)">
<path d="M1165.01 68.2529C1166.89 68.3046 1168.46 66.8219 1168.52 64.9336C1168.56 63.6987 1167.92 62.5473 1166.85 61.9112C1168.47 60.8623 1168.93 58.704 1167.88 57.0869C1167.38 56.3091 1166.6 55.7702 1165.7 55.5728C1163.44 54.8152 1159.43 56.0877 1156.31 57.158C1153.63 52.9969 1148.46 51.2221 1143.8 52.8627C1142.51 53.3623 1141.33 54.1034 1140.32 55.045C1138.79 52.2213 1136.28 50.0544 1133.25 48.9568C1130.04 48.4152 1127.72 52.259 1130.42 55.4889C1128.41 55.8988 1126.83 56.0215 1126.01 57.256C1125.23 58.6688 1125.72 60.4498 1127.11 61.2586C1125.81 64.5245 1129.47 68.1591 1135.58 65.5505C1137.52 64.7326 1137.04 64.4453 1137.29 65.3075C1137.95 67.1774 1139.27 68.7255 1141.01 69.6504C1145.03 71.5712 1149.78 71.0228 1153.26 68.2438C1155.67 70.9099 1158.76 72.882 1162.19 73.9652C1164.09 74.0768 1165.72 72.63 1165.84 70.7279C1165.89 69.8172 1165.58 68.9328 1164.99 68.2512L1165.01 68.2529ZM1129.81 62.0944C1130.58 62.0759 1131.18 61.43 1131.16 60.6618C1131.14 60.0547 1130.73 59.5306 1130.15 59.3704C1126.74 58.7691 1129.18 58.5934 1133.72 57.6476C1134.46 57.4388 1134.9 56.6646 1134.68 55.9172C1134.59 55.583 1134.37 55.3021 1134.08 55.1139C1133.16 54.4261 1131.94 53.5535 1132.02 52.4026C1132.18 50.1368 1136.73 53.6225 1138.46 57.408C1137.71 58.6698 1137.2 60.0581 1137 61.5093C1133.36 64.3435 1128.78 64.0889 1129.8 62.0892L1129.81 62.0944ZM1161.23 70.8387C1159.05 69.599 1157.05 68.0847 1155.25 66.3487C1156.77 64.5163 1157.48 62.1432 1157.2 59.777C1159.13 59.0877 1165.6 56.9553 1165.71 59.0131C1165.77 60.1569 1163.54 60.0252 1162.88 60.0246C1161.17 59.9949 1160.37 62.6254 1164.28 63.9015C1164.69 64.0311 1165.73 64.2129 1165.83 64.6192C1165.92 65.0254 1165.27 65.4296 1164.85 65.5143C1163.77 65.487 1162.73 65.1218 1161.87 64.4647C1161.19 64.0954 1160.33 64.3404 1159.96 65.0167C1159.75 65.4218 1159.73 65.9141 1159.94 66.3202C1160.71 68.1402 1162.12 68.726 1162.76 69.8774C1163.57 71.2617 1162.64 71.5995 1161.23 70.8301L1161.23 70.8387Z" fill="#E7BB43"/>
</g>
<g clip-path="url(#clip7_453_184)">
<path d="M818.3 87.2762C832.068 83.458 840.134 69.2016 836.316 55.4336C832.497 41.6657 818.241 33.5998 804.473 37.418C790.705 41.2363 782.639 55.4927 786.457 69.2606C790.276 83.0286 804.532 91.0945 818.3 87.2762Z" fill="#DB433B"/>
<path d="M830.805 88.4367C835.544 94.4489 856.258 83.3391 847.57 76.5956C840.015 70.7937 827.017 83.6448 830.805 88.4367Z" fill="black"/>
<path d="M819.605 79.6711C823.281 86.1544 825.237 93.4678 825.301 100.922C800.662 81.9772 796.291 114.073 824.898 107.924C820.534 121.639 822.544 120.729 823.54 121.325C826.909 123.109 836.68 97.6832 823.378 77.1097C836.332 68.5152 830.242 40.8672 812.386 41.0663C798.019 41.2006 785.228 59.7017 794.572 72.438C801.657 82.7185 811.211 84.0537 819.605 79.6711ZM798.9 70.646C801.992 59.9405 810.656 67.3857 817.186 75.8487C812.031 78.5545 804.576 78.4636 798.919 70.6407L798.9 70.646ZM824.057 53.5515C827.702 60.0332 826.398 68.1674 820.922 73.1936C813.115 66.9323 813.305 51.7907 824.057 53.5515ZM820.578 48.8293C814.394 50.2538 810.207 55.9603 810.774 63.1709C805.234 60.1827 800.699 59.0953 796.366 64.9875C793.462 52.1983 810.822 39.5075 820.584 48.8486L820.578 48.8293Z" fill="black"/>
<path d="M812.402 41.0514C798.019 41.2006 785.228 59.7017 794.572 72.438C800.755 81.412 808.811 83.5571 816.336 81.0551C816.336 81.0551 823.235 78.1663 825.185 75.654C835.675 65.7711 829.342 40.8781 812.393 41.054L812.402 41.0514ZM820.569 48.832C814.397 50.2634 810.219 55.9673 810.774 63.1709C805.244 60.1801 800.699 59.0953 796.366 64.9875C793.475 52.2053 810.803 39.5128 820.569 48.832ZM798.919 70.6407L798.9 70.6461C801.992 59.9405 810.657 67.3857 817.186 75.8487C812.024 78.5669 804.576 78.4636 798.919 70.6407ZM820.922 73.1936C813.112 66.9227 813.296 51.7934 824.057 53.5515C827.702 60.0332 826.398 68.1674 820.922 73.1936Z" fill="black"/>
<path d="M812.931 51.1888C812.627 51.1796 812.403 51.2314 812.217 51.1585C811.469 50.8574 811.035 50.3032 811.002 49.4718C810.968 48.7133 811.886 48.0955 812.552 48.4399C813.29 48.8165 813.733 49.7417 813.488 50.5777C813.414 50.8368 813.091 51.0197 812.933 51.1984L812.931 51.1888Z" fill="black"/>
<path d="M804.378 66.0755C804.489 66.8126 804.024 67.6057 803.293 67.7772C803.053 67.844 802.646 67.687 802.466 67.4878C801.846 66.7879 802.073 65.7704 802.88 65.3495C803.43 65.0516 804.283 65.4689 804.369 66.0781L804.378 66.0755Z" fill="black"/>
<path d="M804.503 55.8609C804.399 56.0867 804.332 56.4063 804.133 56.586C803.927 56.7781 803.602 56.8786 803.313 56.9588C802.85 57.0871 802.445 56.8985 802.289 56.558C802.098 56.1334 802.232 55.7539 802.498 55.4414C802.905 54.9652 803.637 54.9077 804.139 55.2976C804.285 55.4127 804.354 55.6221 804.49 55.8539L804.503 55.8609Z" fill="black"/>
<path d="M815.061 56.0251C814.985 56.2018 814.903 56.5047 814.75 56.7755C814.544 57.1544 814.039 57.2425 813.645 57.0196C813.276 56.8107 813.087 56.3546 813.197 55.9296C813.305 55.495 813.502 55.1188 813.957 55.0028C814.41 54.8772 815.053 55.4358 815.051 56.0278L815.061 56.0251Z" fill="black"/>
<path d="M801.475 58.413C801.644 58.5737 801.971 58.7424 802.01 58.9598C802.15 59.7617 801.761 60.3054 800.955 60.5807C800.671 60.6802 800.238 60.5408 800.169 60.2903C800.118 60.1072 800.058 59.854 800.147 59.7255C800.425 59.306 800.765 58.9212 801.092 58.5295C801.146 58.4627 801.285 58.4761 801.477 58.4227L801.475 58.413Z" fill="black"/>
<path d="M808.505 58.0926C808.669 58.5348 808.382 59.1851 807.931 59.3931C807.627 59.5295 807.041 59.2873 806.88 58.9687C806.583 58.3868 806.916 57.6407 807.524 57.5136C807.899 57.4409 808.359 57.7179 808.505 58.0926Z" fill="black"/>
<path d="M798.938 62.9976C799.206 62.9544 799.545 63.2029 799.61 63.4754C799.718 63.9021 799.601 64.2666 799.276 64.5539C799.01 64.7936 798.366 64.827 798.171 64.5384C798.03 64.3285 797.97 63.9613 798.046 63.7119C798.167 63.3255 798.483 63.0408 798.938 62.9976Z" fill="black"/>
<path d="M812.502 60.1594C812.622 60.6659 812.281 61.1962 811.755 61.28C811.346 61.3414 810.887 61.0329 810.849 60.6699C810.801 60.1229 811.123 59.6391 811.605 59.5055C811.933 59.4146 812.396 59.774 812.493 60.1621L812.502 60.1594Z" fill="black"/>
<path d="M809.449 64.0777C809.794 64.0131 810.229 64.3077 810.367 64.6948C810.508 65.0915 810.267 65.6047 809.921 65.6694C809.595 65.7286 809.102 65.4089 808.986 65.0673C808.868 64.7161 809.135 64.144 809.449 64.0777Z" fill="black"/>
<path d="M808.188 48.0833C808.044 47.9365 807.751 47.779 807.675 47.5408C807.554 47.18 808.023 46.6658 808.375 46.7344C808.54 46.7714 808.746 46.953 808.814 47.1211C808.973 47.544 808.691 48.0267 808.188 48.0833Z" fill="black"/>
<path d="M799.92 53.2925C799.8 53.4605 799.691 53.7399 799.477 53.903C799.239 54.0935 798.802 53.9033 798.755 53.5842C798.712 53.316 798.759 52.9606 798.911 52.7626C799.121 52.5074 799.776 52.8133 799.922 53.3021L799.92 53.2925Z" fill="black"/>
<path d="M795.234 62.1051C795.037 62.0665 794.816 62.0551 794.637 61.9699C794.352 61.8414 794.274 61.4479 794.424 61.1675C794.568 60.8993 794.937 60.8074 795.24 61.0035C795.403 61.1036 795.543 61.2723 795.652 61.4394C795.821 61.714 795.574 62.094 795.237 62.1147L795.234 62.1051Z" fill="black"/>
<path d="M815.881 63.6225C815.585 63.6422 815.318 63.353 815.339 63.0153C815.359 62.6775 815.661 62.4175 815.965 62.5407C816.139 62.6066 816.301 62.7796 816.388 62.9424C816.511 63.1988 816.174 63.5932 815.878 63.6129L815.881 63.6225Z" fill="black"/>
<path d="M805.533 61.895C805.432 62.0164 805.354 62.2246 805.236 62.2471C804.917 62.294 804.69 62.0354 804.743 61.7405C804.753 61.665 804.831 61.5708 804.9 61.5205C805.114 61.3574 805.474 61.5689 805.523 61.8976L805.533 61.895Z" fill="black"/>
<path d="M807.276 69.7138C807.061 69.877 806.886 69.8427 806.723 69.6285C806.372 69.1862 806.407 68.9378 806.842 68.5992C807.056 68.436 807.236 68.4484 807.399 68.6626C807.726 69.0909 807.692 69.3805 807.283 69.7015L807.276 69.7138Z" fill="black"/>
<path d="M810.976 70.4102C811.046 70.4011 811.15 70.3621 811.189 70.3926C811.244 70.4397 811.293 70.5404 811.282 70.6159C811.275 70.701 811.202 70.7732 811.162 70.8567C811.093 70.793 811.004 70.7346 810.973 70.6602C810.945 70.5954 810.978 70.4926 810.979 70.4198L810.976 70.4102Z" fill="black"/>
<path d="M804.578 73.1183C804.489 73.06 804.331 72.9791 804.337 72.9255C804.372 72.6772 804.546 72.5563 804.797 72.6008C804.895 72.6153 804.972 72.7079 805.061 72.7663C804.897 72.8845 804.742 73.0001 804.578 73.1183Z" fill="black"/>
<path d="M816.788 52.0388C816.921 52.1058 817.056 52.1824 817.179 52.2521C817.128 52.3286 817.071 52.4586 817.01 52.465C816.836 52.4719 816.657 52.4279 816.485 52.4032C816.586 52.2818 816.687 52.1603 816.788 52.0388Z" fill="black"/>
<path d="M809.841 54.0793L809.962 54.2533L809.771 54.2751L809.841 54.0793Z" fill="black"/>
</g>
<g clip-path="url(#clip8_453_184)">
<path d="M847.27 188.25C851.58 195.53 838.42 201.36 835.74 192.62C832.97 200.53 820.94 191.68 826.94 186.68C819.73 186.7 821.79 174.45 828.56 176.75C822.36 167.66 839.68 160.29 839.68 172.16C843.51 162.84 857.43 172.35 848.87 178.45C849.98 178.56 851.02 179.08 851.76 179.92C854.04 182.65 852.09 190.63 847.27 188.25Z" fill="#5FBFFA"/>
<path d="M822.2 190.17C815.31 195.91 829.13 206.08 832.31 196.98C835.39 207.03 850.51 200.33 845.56 191.96C851.1 194.68 853.34 185.51 850.73 182.39C849.88 181.42 848.69 180.82 847.41 180.7C857.24 173.68 841.25 162.76 836.85 173.47C836.85 159.84 816.94 168.3 824.06 178.75C816.29 176.11 813.91 190.18 822.2 190.17ZM821.01 183.42C821.92 180.2 825.75 183.7 827.73 181.7C830.1 179.31 822.65 172.7 829.27 170.45C835.89 168.2 830.95 177.74 835.15 179.05C839.86 180.5 840.09 169.34 845.35 173.52C850.27 177.43 840.18 178.52 841.78 182.38C843.38 186.24 849.77 181.81 847.94 187.5C846.83 190.84 841.78 184.61 840.08 187.84C838.38 191.07 845.22 194.61 841.62 197.29C838.36 199.74 836.42 197.29 835.11 194.38C830.71 184.38 828.96 204.8 823.92 193.87C823.07 192.09 828.54 191.31 827.75 188.55C826.69 184.58 819.43 188.95 821.01 183.41V183.42Z" fill="black"/>
</g>
<g clip-path="url(#clip9_453_184)">
<path d="M790.45 160.93C792.96 165.17 785.31 168.55 783.75 163.47C782.14 168.07 775.16 162.93 778.63 160.02C774.44 160.02 775.65 152.9 779.58 154.24C775.96 148.97 786.04 144.68 786.04 151.58C788.27 146.16 796.36 151.69 791.38 155.24C792.03 155.3 792.63 155.61 793.06 156.1C794.38 157.68 793.25 162.32 790.45 160.94V160.93Z" fill="black"/>
</g>
</g>
<defs>
<clipPath id="clip0_453_184">
<rect width="1200" height="675" fill="white"/>
</clipPath>
<clipPath id="clip1_453_184">
<rect width="44" height="46" fill="white" transform="translate(782 464)"/>
</clipPath>
<clipPath id="clip2_453_184">
<rect width="27.5488" height="28.801" fill="white" transform="translate(844 481.625) rotate(-68.4586)"/>
</clipPath>
<clipPath id="clip3_453_184">
<rect width="332.867" height="120" fill="white" transform="translate(815 511)"/>
</clipPath>
<clipPath id="clip4_453_184">
<rect width="185.59" height="139.13" fill="white" transform="matrix(-0.833634 -0.552317 -0.552317 0.833634 815.558 649.504)"/>
</clipPath>
<clipPath id="clip5_453_184">
<rect width="56.18" height="138.92" fill="white" transform="translate(1103.98 112.736) rotate(-9.06899)"/>
</clipPath>
<clipPath id="clip6_453_184">
<rect width="41.73" height="27.85" fill="white" transform="translate(1137.1 38.2676) rotate(30.8661)"/>
</clipPath>
<clipPath id="clip7_453_184">
<rect width="58.11" height="86.16" fill="white" transform="translate(779.544 44.3315) rotate(-15.5001)"/>
</clipPath>
<clipPath id="clip8_453_184">
<rect width="35.71" height="36.03" fill="white" transform="translate(817 166)"/>
</clipPath>
<clipPath id="clip9_453_184">
<rect width="17.61" height="18.03" fill="white" transform="translate(776 148)"/>
</clipPath>
</defs>
</svg>
