<svg width="1200" height="675" viewBox="0 0 1200 675" fill="none" xmlns="http://www.w3.org/2000/svg">
<g clip-path="url(#clip0_453_184)">
<g clip-path="url(#clip1_453_184)">
<path d="M813.293 484.354C812.854 482.549 822.14 475.747 820.959 474.771C819.956 473.943 811.988 480.732 810.12 479.355C808.595 478.393 811.109 465.296 810.01 465.189C808.911 465.082 806.727 477.538 804.543 478.059C801.699 478.807 791.08 463.479 790.215 464.013C789.116 464.655 798.526 479.877 797.331 481.574C795.586 484.126 782.124 480.825 782.014 482.429C782.014 483.391 795.888 486.479 796.136 488.176C796.52 490.849 786.368 499.789 787.055 500.738C787.907 501.928 798.196 491.303 800.628 492.546C802.798 493.655 797.784 510.013 799.968 510.013C801.507 510.013 805.106 493.401 806.644 493.294C809.048 492.974 820.121 508.757 821.302 508.196C822.181 507.781 811.343 492.011 812.991 489.566C813.87 488.176 825.684 489.887 826.014 488.604C826.234 487.321 813.65 485.944 813.321 484.354H813.293Z" fill="#64A03D"/>
</g>
<g clip-path="url(#clip2_453_184)">
<path d="M863.048 468.079C861.896 467.92 860.069 460.948 859.229 461.412C858.516 461.806 860.638 468.006 859.407 468.778C858.496 469.445 851.447 464.97 851.132 465.585C850.817 466.201 857.569 470.336 857.37 471.728C857.152 473.556 845.784 476.216 845.896 476.843C846.017 477.631 857.045 475.65 857.759 476.736C858.845 478.339 853.827 485.42 854.736 485.853C855.296 486.074 860.284 478.704 861.329 478.95C862.974 479.34 865.847 487.308 866.558 487.126C867.446 486.904 863.624 478.469 864.907 477.339C866.052 476.33 874.426 483.01 874.928 481.738C875.281 480.842 866.435 474.927 866.726 474.007C867.092 472.533 878.829 469.713 878.774 468.896C878.735 468.289 867.059 470.976 866.014 469.453C865.406 468.622 869.118 462.135 868.447 461.648C867.75 461.225 864.056 468.237 863.054 468.063L863.048 468.079Z" fill="black"/>
</g>
<path opacity="0.5" d="M-967 66H756" stroke="#5FBFFA" stroke-width="2"/>
<path opacity="0.5" d="M-967 127H756" stroke="#5FBFFA" stroke-width="2"/>
<path opacity="0.5" d="M-967 188H756" stroke="#5FBFFA" stroke-width="2"/>
<path opacity="0.5" d="M-967 247H756" stroke="#5FBFFA" stroke-width="2"/>
<path opacity="0.5" d="M-967 309H756" stroke="#5FBFFA" stroke-width="2"/>
<path opacity="0.5" d="M-967 369H756" stroke="#5FBFFA" stroke-width="2"/>
<path opacity="0.5" d="M-967 430H756" stroke="#5FBFFA" stroke-width="2"/>
<path opacity="0.5" d="M-967 490H756" stroke="#5FBFFA" stroke-width="2"/>
<path opacity="0.5" d="M-967 550H756" stroke="#5FBFFA" stroke-width="2"/>
<path opacity="0.5" d="M-967 610H756" stroke="#5FBFFA" stroke-width="2"/>
<rect x="752" y="-40" width="8" height="762" fill="black"/>
<g clip-path="url(#clip3_453_184)">
<path d="M699.454 737.785C673.538 719.523 647.333 701.681 620.965 684.067C628.037 683.043 634.571 680.115 639.809 673.749C640.188 673.304 640.719 673.008 641.31 672.932C641.892 672.85 642.483 672.989 642.975 673.315C676.842 692.683 697.061 653.765 666.058 648.615C654.092 646.433 653.685 639.842 655.879 637.961C658.073 636.079 657.941 631.806 655.232 631.786C643.908 632.093 637.287 622.967 650.913 618.008C646.234 614.08 642.802 608.868 641.016 603.018C639.229 597.168 639.184 590.936 640.862 585.054C641.068 584.471 641.477 583.999 642.014 583.695C642.546 583.399 643.175 583.3 643.777 583.424C644.38 583.547 644.919 583.892 645.283 584.373C645.656 584.86 645.83 585.467 645.787 586.075C644.732 599.074 653.764 610.373 663.117 616.281C663.558 616.538 664.061 616.667 664.571 616.657C665.081 616.647 665.58 616.51 666.009 616.243C672.839 610.967 682.69 616.378 690.068 619.599C685.308 616.265 681.456 611.794 678.829 606.599C676.21 601.408 674.931 595.643 675.092 589.824C675.11 589.2 675.363 588.6 675.8 588.158C676.229 587.71 676.821 587.431 677.44 587.385C678.058 587.339 678.683 587.537 679.172 587.921C679.656 588.313 679.984 588.867 680.094 589.48C684.673 609.583 709.018 620.962 711.866 621.733C726.815 625.748 739.25 628.96 736.096 636.671C735.134 638.505 733.76 640.09 732.08 641.304C730.4 642.518 728.466 643.336 726.428 643.677C725.852 643.823 725.345 644.171 725.003 644.652C724.66 645.133 724.49 645.716 724.522 646.301C724.563 646.892 724.8 647.457 725.217 647.877C725.615 648.309 726.168 648.579 726.767 648.652C727.214 648.576 727.68 648.597 728.115 648.718C728.551 648.838 728.957 649.059 729.288 649.374C729.63 649.673 729.889 650.06 730.059 650.473C730.232 650.9 730.303 651.354 730.265 651.809C725.851 670.693 750.081 709.694 744.824 733.273C742.487 743.3 738.334 752.737 732.631 761.146C721.575 753.353 710.545 745.541 699.489 737.749L699.454 737.785Z" fill="#3D9CFB"/>
<path d="M649.76 654.275C648.643 654.386 647.971 653.282 647.288 652.05C645.824 649.424 646.842 645.336 650.441 646.113C652.745 646.62 653.666 648.814 653.337 650.995C653.067 652.76 651.407 654.107 649.766 654.267L649.76 654.275Z" fill="black"/>
<path d="M666.921 661.434C665.043 662.277 663.004 662.294 661.862 660.578C659.043 656.359 666.623 652.36 669.999 654.597C672.692 656.381 670.029 660.039 666.921 661.434Z" fill="black"/>
<path d="M675.861 645.333C671.364 641.874 677.587 636.101 681.148 635.089C684.879 634.022 688.917 634.934 692.457 636.524C693.379 636.943 694.31 637.44 694.934 638.237C696.637 640.445 694.111 643.353 692.598 644.894C687.841 649.756 681.048 649.309 675.867 645.325L675.861 645.333Z" fill="black"/>
<path d="M724.58 633.432C723.935 631.889 720.965 631.301 717.86 632.602C714.755 633.904 713.134 631.714 714.821 630.037C718.308 626.458 728.655 626.883 729.436 633.29C730.02 637.876 722.599 641.056 720.295 638.414C717.991 635.772 725.69 635.559 724.566 633.435L724.58 633.432Z" fill="black"/>
<path d="M736.199 763.725C735.593 763.3 734.979 762.869 734.379 762.435C737.046 759.152 739.432 755.623 741.471 751.876C747.287 741.178 750.142 729.119 749.758 716.953C748.591 692.968 725.366 670.575 729.197 648.75C725.795 649.267 722.337 648.476 719.503 646.526C714.767 643.1 717.691 640.587 719.234 641.861C729.856 651.142 750.693 632.799 733.156 625.918C723.669 622.512 713.17 625.032 703.4 624.389C693.053 623.712 684.969 615.056 674.912 615.027C671.478 614.995 668.137 616.2 665.53 618.432C662.924 620.664 661.216 623.767 660.71 627.174C665.198 635.174 665.975 638.22 658.337 637.093C655.672 640.174 652.184 642.433 648.285 643.593C632.477 651.845 639.179 670.824 655.113 673.824C670.957 679.007 683.408 671.602 687.313 656.003C688.201 653.197 693.444 656.419 687.274 667.469C705.638 666.765 706 652.73 708.004 648.456C708.572 647.164 712.047 648.256 711.309 654.004C709.734 667.788 688.701 683.782 692.039 698.696C695.879 711.893 697.595 724.186 696.675 735.859C695.185 734.812 693.69 733.774 692.2 732.727C692.057 709.84 677.873 694.133 697.098 670.656C692.681 672.144 687.999 672.748 683.338 672.431C673.074 684.104 654.138 681.814 642.377 673.566C637.125 680.931 630.356 684.232 622.785 685.321C620.531 683.816 618.278 682.311 616.016 680.8C624.686 680.714 632.819 678.342 639.712 670.853C629.279 660.582 634.049 643.062 647.759 638.41C650.753 637.659 653.329 635.743 654.922 633.104C643.799 635.535 636.127 621.767 646.273 615.342C630.879 601.208 635.013 577.46 650.787 566.307C654.991 563.347 660.154 563.576 658.441 571.666C654.281 590.166 664.146 599.773 677.042 610.273C677.993 610.267 678.926 610.417 679.822 610.711C662.039 587.437 687.335 548.261 689.343 570.596C693.541 612.819 725.431 592.55 727.259 619.756C745.763 620.524 751.312 640.466 733.48 647.953C730.691 670.72 753.509 691.992 754.495 716.684C754.975 726.659 753.348 736.629 749.741 745.947C747.013 752.98 743.187 759.515 738.423 765.33C737.689 764.808 736.95 764.295 736.208 763.767L736.199 763.725ZM648.673 627.308L648.632 627.281C649.66 627.902 650.787 628.301 651.98 628.455C653.167 628.618 654.371 628.54 655.527 628.226C655.85 624.062 657.411 620.094 660.004 616.834C653.809 616.172 641.017 621.12 648.673 627.308ZM654.293 569.398L654.196 569.454C640.058 579.387 637.553 601.779 650.908 613.434C655.308 611.971 660.045 611.883 664.486 613.182C666.341 612.012 668.397 611.19 670.556 610.774C654.696 598.682 650.301 584.422 654.285 569.392L654.293 569.398ZM721.816 615.658L721.775 615.631C720.63 606.259 702.469 607.002 695.094 598.506C688.584 590.462 684.853 580.54 684.457 570.202C674.479 583.18 676.784 602.46 688.077 613.733C697.075 619.959 707.168 619.952 717.717 619.636C720.909 619.544 722.158 618.619 721.816 615.658Z" fill="black"/>
<path d="M712.252 651.93C711.843 652.439 711.942 653.104 712.489 653.527C713.029 653.944 713.763 653.867 714.092 653.353C714.445 652.82 714.352 652.146 713.879 651.701C713.487 651.333 712.644 651.446 712.257 651.922L712.252 651.93Z" fill="black"/>
<path d="M661.494 634.772C661.942 635.056 662.574 634.935 662.869 634.507C663.088 634.196 662.983 633.647 662.655 633.381C662.233 633.042 661.551 633.057 661.235 633.424C660.901 633.803 661.03 634.476 661.5 634.763L661.494 634.772Z" fill="black"/>
<path d="M708.148 653.145C708.118 653.317 708.046 653.606 708.028 653.906C708.009 654.169 708.404 654.479 708.639 654.431C709.324 654.285 709.821 653.534 709.683 652.783C709.655 652.645 709.405 652.443 709.252 652.438C708.867 652.422 708.468 652.698 708.148 653.145Z" fill="black"/>
<path d="M654.757 626.672C655.209 626.948 655.664 626.77 655.807 626.337C655.983 625.781 655.69 625.191 655.218 625.143C654.71 625.094 654.345 625.32 654.291 625.728C654.234 626.194 654.462 626.501 654.757 626.672Z" fill="black"/>
<path d="M649.639 674.012C649.38 674.512 649.476 675.019 649.779 675.268C650.087 675.508 650.672 675.368 650.851 675.007C651.025 674.654 650.854 674.133 650.418 673.976C650.177 673.888 649.853 673.997 649.639 674.012Z" fill="black"/>
<path d="M659.382 647.827C659.006 648.214 659.041 648.74 659.363 648.978C659.591 649.141 659.985 649.09 660.187 648.876C660.488 648.548 660.476 647.987 660.115 647.844C659.879 647.748 659.571 647.832 659.391 647.832L659.382 647.827Z" fill="black"/>
<path d="M682.395 619.829C682.146 620.168 682.169 620.64 682.459 620.927C682.729 621.19 683.374 621.102 683.507 620.794C683.647 620.491 683.504 619.965 683.193 619.71C682.968 619.525 682.574 619.576 682.395 619.829Z" fill="black"/>
<path d="M712.617 646.87C712.412 646.926 712.082 646.936 711.869 647.094C711.598 647.286 711.714 648.035 712.049 648.126C712.302 648.197 712.679 648.135 712.892 647.976C713.188 647.765 713.045 647.13 712.631 646.867L712.617 646.87Z" fill="black"/>
<path d="M664.966 632.393C664.917 632.684 664.812 632.915 664.871 633.062C665.102 633.563 665.713 633.656 666.161 633.305C666.236 633.246 666.33 633.105 666.31 633.08C666.151 632.831 666.009 632.52 665.776 632.402C665.559 632.294 665.232 632.389 664.968 632.407L664.966 632.393Z" fill="black"/>
<path d="M708.807 633.646C708.875 633.834 708.889 634.084 709.028 634.2C709.245 634.379 709.757 634.167 709.807 633.876C709.837 633.704 709.725 633.438 709.589 633.336C709.325 633.137 708.937 633.324 708.81 633.66L708.807 633.646Z" fill="black"/>
<path d="M709.813 638.211C710.07 638.584 710.192 638.87 710.395 639.016C710.612 639.16 711.022 638.867 711.037 638.554C711.048 638.393 710.895 638.099 710.784 638.086C710.517 638.053 710.249 638.151 709.808 638.219L709.813 638.211Z" fill="black"/>
<path d="M690.583 637.67C690.678 637.817 690.773 638.107 690.976 638.254C691.162 638.389 691.574 638.075 691.64 637.794C691.7 637.522 691.461 637.268 691.089 637.213C690.837 637.178 690.685 637.281 690.589 637.661L690.583 637.67Z" fill="black"/>
<path d="M657.26 615.58C657.316 615.749 657.327 615.948 657.425 616.073C657.639 616.311 657.933 616.157 658.026 615.799C658.083 615.55 658.003 615.364 657.745 615.373C657.578 615.371 657.412 615.513 657.254 615.588L657.26 615.58Z" fill="black"/>
<path d="M713.69 656.494C713.652 656.769 713.528 657.082 713.928 657.203C714.22 657.288 714.511 657.302 714.66 656.968C714.822 656.596 714.58 656.256 714.119 656.19C713.881 656.152 713.734 656.247 713.69 656.494Z" fill="black"/>
<path d="M706.387 638.784C706.187 638.76 705.968 638.674 705.799 638.73C705.572 638.82 705.579 639.388 705.823 639.526C705.97 639.612 706.231 639.616 706.389 639.541C706.685 639.402 706.67 639.008 706.379 638.778L706.387 638.784Z" fill="black"/>
<path d="M696.019 635.693C695.836 635.716 695.517 635.672 695.32 635.806C694.972 636.043 695.02 636.531 695.348 636.832C695.526 636.998 696.012 637.008 696.175 636.852C696.463 636.563 696.442 636.105 696.025 635.685L696.019 635.693Z" fill="black"/>
<path d="M690.194 656.653C690.175 656.952 690.104 657.169 690.159 657.338C690.255 657.629 690.673 657.63 690.914 657.322C691.016 657.186 690.982 656.947 691.009 656.761C690.735 656.723 690.474 656.682 690.199 656.644L690.194 656.653Z" fill="black"/>
<path d="M657.979 643.97C657.869 644.389 657.859 644.658 658.173 644.854C658.481 645.058 659.016 644.813 659.118 644.46C659.175 644.247 658.916 643.787 658.677 643.785C658.425 643.786 658.17 643.917 657.987 643.975L657.979 643.97Z" fill="black"/>
<path d="M660.629 653.93C660.781 653.863 661 653.841 661.086 653.729C661.265 653.476 661.078 653.125 660.765 653.145C660.615 653.154 660.386 653.338 660.375 653.462C660.361 653.609 660.539 653.775 660.629 653.93Z" fill="black"/>
<path d="M675.281 631.706C675.573 631.863 675.977 631.688 675.985 631.369C675.979 631.197 675.867 630.967 675.722 630.859C675.47 630.679 674.988 630.9 675.008 631.177C675.022 631.355 675.186 631.523 675.287 631.698L675.281 631.706Z" fill="black"/>
<path d="M659.506 624.049C659.372 623.961 659.117 623.948 658.956 624.009C658.643 624.138 658.639 624.543 658.967 624.736C659.131 624.832 659.372 624.884 659.561 624.853C659.777 624.817 659.772 624.226 659.511 624.041L659.506 624.049Z" fill="black"/>
<path d="M648.441 617.702C648.752 617.812 649.134 617.669 649.13 617.403C649.133 617.237 649.016 617.015 648.879 616.913C648.674 616.753 648.278 616.934 648.223 617.234C648.201 617.375 648.351 617.547 648.432 617.696L648.441 617.702Z" fill="black"/>
<path d="M694.961 655.505C694.711 655.519 694.437 655.481 694.204 655.579C694.123 655.61 694.119 655.943 694.136 656.134C694.165 656.381 694.353 656.494 694.589 656.41C694.772 656.351 694.999 656.262 695.085 656.115C695.148 656.001 695.023 655.774 694.952 655.499L694.961 655.505Z" fill="black"/>
<path d="M655.002 668.94C654.814 668.971 654.525 668.972 654.287 669.078C653.996 669.209 654.064 669.578 654.378 669.846C654.656 670.078 654.947 670.091 655.188 669.855C655.412 669.643 655.372 669.305 654.994 668.934L655.002 668.94Z" fill="black"/>
<path d="M715.362 637.748C715.328 637.582 715.322 637.302 715.252 637.28C715.091 637.233 714.878 637.284 714.723 637.373C714.521 637.479 714.507 637.698 714.649 637.9C714.8 638.108 714.991 638.127 715.177 637.973C715.251 637.915 715.298 637.826 715.362 637.748Z" fill="black"/>
<path d="M698.132 674.292C698.113 674.483 698.025 674.689 698.086 674.849C698.156 675.052 698.647 675.017 698.838 674.783C698.918 674.681 698.914 674.414 698.828 674.309C698.628 674.032 698.32 674.044 698.132 674.292Z" fill="black"/>
<path d="M704.827 658.683C704.91 658.738 705.01 658.84 705.044 658.826C705.199 658.737 705.395 658.639 705.489 658.498C705.66 658.203 705.532 657.89 705.229 657.822C705.077 657.781 704.888 657.848 704.736 657.915C704.67 657.943 704.62 658.09 704.637 658.173C704.673 658.353 704.76 658.53 704.813 658.686L704.827 658.683Z" fill="black"/>
<path d="M646.892 656.07L646.609 656.026L646.793 656.256L646.892 656.07Z" fill="black"/>
<path d="M699.58 630.807C699.58 630.879 699.567 630.954 699.567 631.026C699.681 631.018 699.803 631.015 699.916 631.006C699.891 630.917 699.866 630.829 699.841 630.74C699.752 630.765 699.663 630.79 699.575 630.816L699.58 630.807Z" fill="black"/>
<path d="M663.515 667.118L663.387 667.238L663.529 667.296L663.515 667.118Z" fill="black"/>
</g>
<path d="M1075.43 59.7142C1075.43 57.9048 1076.9 56.438 1078.7 56.438C1080.51 56.438 1081.98 57.9048 1081.98 59.7142V186.667C1081.98 188.476 1080.51 189.943 1078.7 189.943C1076.9 189.943 1075.43 188.476 1075.43 186.667V59.7142Z" fill="black"/>
<path d="M878 49.5C878 47.567 879.567 46 881.5 46C883.433 46 885 47.567 885 49.5V125.5C885 127.433 883.433 129 881.5 129C879.567 129 878 127.433 878 125.5V49.5Z" fill="black"/>
<rect x="905" y="226" width="7" height="69" rx="3.5" transform="rotate(-90 905 226)" fill="black"/>
<rect x="1013.59" y="225.571" width="6.55238" height="35.219" rx="3.27619" transform="rotate(-90 1013.59 225.571)" fill="black"/>
<rect x="867.075" y="446.752" width="7.16364" height="79.6955" rx="3.58182" transform="rotate(-90 867.075 446.752)" fill="black"/>
<rect x="804.393" y="446.752" width="7.16364" height="23.2818" rx="3.58182" transform="rotate(-90 804.393 446.752)" fill="black"/>
<rect x="798.114" y="250.164" width="7.16363" height="80.5909" rx="3.58182" transform="rotate(-90 798.114 250.164)" fill="black"/>
<rect x="1014" y="284" width="6.99999" height="122" rx="3.5" transform="rotate(-90 1014 284)" fill="black"/>
<rect x="1014" y="479" width="7" height="35" rx="3.5" transform="rotate(-90 1014 479)" fill="black"/>
<rect x="1136" y="479" width="7" height="23" rx="3.5" transform="rotate(-90 1136 479)" fill="black"/>
<g clip-path="url(#clip4_453_184)">
<path d="M1163.99 171.198L1129.64 178.777L1129.88 179.508L1153.01 231.766C1154.02 234.895 1156.84 236.775 1159.58 236.145L1162.6 234.691C1164.91 234.159 1166.43 231.649 1166.09 228.879L1164.14 171.175L1163.99 171.198Z" fill="#F39745"/>
<path d="M1163.9 159.04C1159.25 148.451 1150.49 150.092 1149.38 145.905C1148.27 141.718 1152.76 140.799 1147.76 136.735C1143.47 133.238 1133.56 131.691 1131.18 126.238C1130.72 125.177 1129.32 124.956 1128.64 125.895C1125.69 129.96 1124.25 134.585 1122.89 139.348C1121.62 143.824 1118.46 148.167 1118.23 152.902C1118.1 155.658 1121.73 162.45 1119.86 164.663C1119.86 164.663 1113.3 172.393 1117.94 179.936C1118.38 180.605 1119.01 181.122 1119.76 181.418L1119.48 180.612L1163.95 171.205C1165.88 167.373 1165.87 162.848 1163.9 159.031L1163.9 159.04Z" fill="#B989C9"/>
<path d="M1162.33 175.108L1162.42 179.792L1163.31 225.129L1163.43 230.792L1163.48 233.628L1163.49 234.335L1163.5 234.689L1163.51 234.87L1163.53 235.171C1163.56 235.5 1163.54 235.817 1163.5 236.137C1163.32 237.422 1162.47 238.59 1161.32 239.179C1161.03 239.326 1160.72 239.436 1160.41 239.516L1160.24 239.564C1160.24 239.564 1160.1 239.606 1160.08 239.609L1159.92 239.666L1159.58 239.78L1158.91 240.009L1156.22 240.904L1154.87 241.352L1154.2 241.581L1154.12 241.594L1154.12 241.604C1154.12 241.604 1154.1 241.607 1154.08 241.61L1153.83 241.651C1153.14 241.761 1152.43 241.732 1151.76 241.556C1150.41 241.215 1149.2 240.314 1148.48 239.122L1143.81 229.012L1124.79 187.845L1122.41 182.696L1122.09 181.988L1122.35 181.946L1133.44 179.589L1155.62 174.894L1160.31 173.902C1165.67 172.773 1164.89 169.09 1159.53 170.219L1154.84 171.211L1132.66 175.905L1121.57 178.253L1119.06 178.785L1117.78 179.131L1117.14 179.304C1116.98 179.3 1117.06 179.428 1117.1 179.544L1117.21 179.87C1117.53 180.75 1117.77 181.552 1118.14 182.415L1119.01 184.282L1121.39 189.431L1140.41 230.598L1142.79 235.747L1143.98 238.321L1144.57 239.595C1144.57 239.595 1144.58 239.633 1144.55 239.557L1144.59 239.662L1144.67 239.872C1144.73 240.004 1144.78 240.149 1144.85 240.279C1144.98 240.541 1145.12 240.813 1145.27 241.063C1146.49 243.116 1148.54 244.641 1150.85 245.224C1152 245.517 1153.23 245.574 1154.4 245.397L1154.85 245.326C1154.94 245.302 1155.04 245.296 1155.15 245.257L1155.41 245.175L1156.08 244.946L1157.43 244.498L1160.12 243.603L1161.32 243.21C1161.92 243.063 1162.5 242.848 1163.06 242.567C1165.29 241.442 1166.89 239.212 1167.24 236.745C1167.33 236.134 1167.36 235.501 1167.3 234.893L1167.28 233.6L1167.22 230.764L1167.1 225.101L1166.22 179.764L1166.13 175.08C1166.09 172.929 1165.48 171.629 1164.76 171.197L1164.04 170.633C1163.87 171.066 1163.96 171.476 1164.3 171.787L1163.58 171.223C1162.88 171.679 1162.32 173.004 1162.36 175.154L1162.33 175.108Z" fill="#010101"/>
<path d="M1162.66 210.286L1155.6 207.018L1156.86 203.009C1158.16 203.672 1159.45 204.359 1160.73 205.066C1161.7 205.609 1162.74 204.187 1161.75 203.636C1160.31 202.834 1158.86 202.063 1157.38 201.316L1159.12 195.804C1159.45 194.738 1157.82 194.087 1157.48 195.165L1155.79 200.518C1154.72 199.999 1153.66 199.49 1152.58 199.004L1153.39 196.82C1153.57 196.366 1153.33 195.856 1152.88 195.686C1152.43 195.505 1151.92 195.738 1151.75 196.191L1150.98 198.288C1148.97 197.403 1146.93 196.564 1144.89 195.787C1144.43 195.606 1143.92 195.839 1143.75 196.292C1143.57 196.746 1143.8 197.256 1144.26 197.427C1146.32 198.212 1148.36 199.05 1150.38 199.933L1148.91 203.925L1143.66 201.491C1142.63 201.018 1142 202.657 1143.02 203.133L1148.29 205.582L1145.41 213.424C1145.23 213.879 1145.47 214.388 1145.92 214.559C1146.37 214.74 1146.88 214.506 1147.05 214.054L1149.89 206.31L1153.44 207.951L1152.04 212.418C1151.7 213.484 1153.33 214.135 1153.68 213.057L1155.05 208.697L1162.01 211.919C1163.05 212.401 1163.68 210.752 1162.66 210.276L1162.66 210.286Z" fill="black"/>
<path d="M1162.31 211.355L1159.59 210.109L1154.67 207.836L1153.55 211.376L1153.1 212.805C1153.03 212.998 1153.03 212.957 1153.01 212.982C1152.99 212.995 1152.89 213 1152.8 212.954C1152.71 212.907 1152.65 212.836 1152.63 212.778C1152.63 212.749 1152.62 212.719 1152.62 212.68C1152.62 212.658 1152.63 212.637 1152.63 212.617L1152.68 212.437L1153.13 211.008L1154.19 207.628L1149.52 205.467L1147.62 210.651L1146.79 212.921L1146.58 213.491L1146.47 213.772C1146.45 213.836 1146.43 213.859 1146.43 213.859C1146.43 213.859 1146.42 213.882 1146.41 213.893C1146.34 213.985 1146.21 214.026 1146.1 213.973C1145.99 213.93 1145.93 213.798 1145.96 213.681L1146.35 212.617L1147.18 210.347L1149.05 205.259L1145.28 203.511L1143.65 202.759L1143.24 202.57C1143.24 202.57 1143.15 202.514 1143.14 202.486C1143.09 202.433 1143.07 202.324 1143.12 202.206C1143.16 202.088 1143.23 202.036 1143.24 202.044C1143.25 202.043 1143.28 202.048 1143.34 202.069C1143.42 202.106 1143.6 202.19 1143.72 202.241L1145.35 202.994L1149.22 204.786L1151.12 199.591L1146.87 197.85L1145.01 197.093L1144.55 196.904L1144.43 196.852C1144.43 196.852 1144.41 196.846 1144.4 196.837C1144.37 196.831 1144.36 196.812 1144.34 196.796C1144.27 196.726 1144.24 196.619 1144.28 196.532C1144.31 196.445 1144.39 196.372 1144.49 196.366C1144.51 196.363 1144.54 196.358 1144.56 196.365C1144.58 196.362 1144.61 196.378 1144.7 196.414L1145.16 196.604L1147 197.363L1151.29 199.129L1152.15 196.805L1152.29 196.418C1152.29 196.418 1152.34 196.349 1152.36 196.325C1152.44 196.273 1152.54 196.257 1152.61 196.305C1152.69 196.343 1152.75 196.424 1152.76 196.505C1152.77 196.564 1152.77 196.564 1152.72 196.663L1152.57 197.092L1151.73 199.352L1156.11 201.417L1157.39 197.365L1157.92 195.681C1157.96 195.563 1158.03 195.339 1158.04 195.338C1158.06 195.284 1158.07 195.292 1158.08 195.271C1158.09 195.269 1158.2 195.242 1158.31 195.295C1158.43 195.347 1158.46 195.443 1158.48 195.5C1158.49 195.54 1158.49 195.56 1158.46 195.666L1158.32 196.093L1157.79 197.778L1156.58 201.647L1159.7 203.306C1160.47 203.739 1161.87 204.398 1161.45 204.343C1161.42 204.418 1161.34 204.513 1161.25 204.547C1161.17 204.581 1161.1 204.582 1161.02 204.553C1161.01 204.555 1160.87 204.487 1160.77 204.422L1160.43 204.242L1159.77 203.882L1156.44 202.105L1154.78 207.361L1157.1 208.439L1159.93 209.751C1163.15 211.241 1163.68 210.104 1160.45 208.613L1157.63 207.302L1156.31 206.693L1157.17 203.932L1159.17 204.991L1159.83 205.341L1160.16 205.521C1160.27 205.574 1160.36 205.631 1160.58 205.727C1160.97 205.888 1161.44 205.863 1161.81 205.673C1162.17 205.493 1162.46 205.204 1162.62 204.814C1162.79 204.442 1162.77 203.849 1162.45 203.475C1162.31 203.295 1162.09 203.157 1161.97 203.085L1161.64 202.905L1160.3 202.197L1158.1 201.03L1159 198.162L1159.53 196.477L1159.66 196.051C1159.72 195.869 1159.77 195.588 1159.73 195.341C1159.65 194.818 1159.31 194.386 1158.89 194.19C1158.48 193.981 1157.92 193.908 1157.42 194.211C1157.19 194.36 1157 194.593 1156.91 194.809C1156.79 195.071 1156.79 195.142 1156.74 195.303L1156.21 196.987L1155.36 199.674L1153.32 198.714L1153.75 197.541L1153.91 197.111C1153.98 196.938 1154.04 196.624 1154.01 196.376C1153.96 195.857 1153.62 195.375 1153.13 195.159C1152.66 194.941 1152.06 194.996 1151.64 195.305C1151.44 195.46 1151.26 195.661 1151.14 195.902C1151.05 196.12 1151.03 196.214 1150.96 196.376L1150.55 197.485L1147.47 196.215L1145.61 195.458L1145.15 195.269C1145.09 195.247 1144.95 195.189 1144.81 195.162C1144.67 195.133 1144.53 195.125 1144.38 195.139C1143.81 195.179 1143.28 195.577 1143.09 196.125C1142.88 196.664 1143.02 197.31 1143.43 197.71C1143.53 197.806 1143.64 197.899 1143.78 197.969C1143.83 198.001 1143.91 198.029 1143.96 198.061L1144.08 198.103L1144.54 198.293L1146.38 199.042L1149.51 200.325L1148.49 203.111L1145.85 201.891L1144.22 201.138C1144.08 201.07 1143.98 201.015 1143.79 200.945C1143.56 200.859 1143.29 200.79 1143.01 200.846C1142.43 200.939 1142.03 201.396 1141.89 201.834C1141.74 202.284 1141.77 202.826 1142.09 203.261C1142.25 203.479 1142.45 203.629 1142.67 203.735L1143.09 203.922L1144.71 204.675L1147.44 205.941L1145.97 209.943L1145.14 212.212L1144.93 212.783L1144.82 213.063C1144.78 213.16 1144.74 213.237 1144.69 213.428C1144.52 214.104 1144.88 214.866 1145.53 215.148C1146.15 215.453 1146.98 215.24 1147.37 214.661C1147.42 214.592 1147.47 214.514 1147.51 214.437C1147.56 214.348 1147.58 214.284 1147.59 214.241L1147.7 213.961L1147.91 213.39L1148.74 211.121L1150.17 207.206L1152.61 208.326L1151.88 210.661L1151.43 212.089L1151.38 212.27C1151.35 212.365 1151.33 212.47 1151.31 212.574C1151.29 212.791 1151.31 213.009 1151.38 213.222C1151.52 213.644 1151.84 213.948 1152.19 214.125C1152.54 214.292 1152.99 214.372 1153.43 214.18C1153.88 214.007 1154.17 213.506 1154.23 213.222L1154.68 211.793L1155.37 209.618L1158.99 211.298L1161.8 212.591C1162.12 212.732 1162.57 212.722 1162.89 212.538C1163.21 212.366 1163.4 212.103 1163.5 211.873C1163.71 211.395 1163.63 210.932 1163.44 210.648C1163.26 210.352 1163.01 210.25 1162.86 210.235C1162.69 210.22 1162.62 210.272 1162.58 210.34C1162.5 210.484 1162.67 210.72 1162.63 210.97C1162.62 211.083 1162.57 211.232 1162.47 211.35C1162.42 211.409 1162.37 211.436 1162.34 211.441C1162.31 211.446 1162.3 211.447 1162.23 211.409L1162.31 211.355Z" fill="#010101"/>
<path d="M1117.23 181.315C1117.23 181.315 1117.18 181.323 1117.12 181.352C1117.11 181.354 1117.1 181.355 1117.1 181.367C1117.03 181.174 1117.02 181.258 1117.15 181.298C1117.19 181.312 1117.22 181.317 1117.23 181.315Z" fill="black"/>
<path d="M1168.04 170.229L1167.5 170.314C1167.73 170.095 1167.83 169.887 1167.8 169.709C1167.84 169.856 1167.95 169.999 1168.01 170.151C1168.03 170.179 1168.03 170.199 1168.04 170.229Z" fill="black"/>
<path d="M1163.01 169.421L1157.72 170.539L1132.85 175.784L1120.41 178.417L1117.29 179.078L1116.9 179.161L1116.79 179.178C1116.79 179.178 1116.56 179.224 1116.42 179.278C1115.81 179.456 1115.25 180.011 1115.07 180.607C1114.88 181.204 1114.93 181.794 1115.21 182.357C1115.47 182.923 1116.21 183.442 1116.9 183.444C1117.07 183.456 1117.21 183.424 1117.36 183.411C1117.53 183.384 1117.52 183.385 1117.61 183.361L1118 183.279L1118.77 183.115L1120.33 182.795L1123.44 182.137L1148.29 176.884L1160.72 174.262L1166.19 173.106L1166.71 176.394L1142.67 181.608L1130.08 184.338L1123.77 185.709L1120.6 186.397L1119.82 186.573L1119.61 186.606L1119.48 186.638C1119.16 186.708 1118.85 186.839 1118.59 187.043C1118.04 187.474 1117.77 188.135 1117.76 188.724C1117.77 189.311 1117.96 189.928 1118.51 190.417C1118.79 190.656 1119.16 190.82 1119.51 190.865C1119.69 190.887 1119.86 190.89 1120.01 190.866L1120.24 190.83L1120.36 190.811L1121.14 190.646L1122.71 190.303L1125.87 189.618L1132.16 188.249L1144.76 185.519L1157.35 182.789L1163.66 181.419L1166.82 180.732L1168.4 180.388L1169.2 180.22L1169.39 180.189L1169.53 180.147C1169.86 180.084 1170.15 179.957 1170.41 179.754C1170.83 179.443 1171.13 178.969 1171.23 178.447C1171.28 178.206 1171.27 177.864 1171.24 177.696L1170.56 173.44C1170.44 172.68 1170.3 172.014 1170.14 171.453C1169.8 170.281 1169.43 169.337 1168.12 169.131C1166.43 168.864 1164.67 169.064 1163.01 169.421ZM1117.12 181.352C1117.12 181.352 1117.1 181.356 1117.1 181.367C1117.03 181.174 1117.02 181.258 1117.15 181.298C1117.19 181.312 1117.22 181.317 1117.23 181.315C1117.22 181.317 1117.18 181.323 1117.12 181.352Z" fill="black"/>
<path d="M1117.23 181.315C1117.23 181.315 1117.18 181.323 1117.12 181.352C1117.11 181.354 1117.1 181.355 1117.1 181.367C1117.03 181.174 1117.02 181.258 1117.15 181.298C1117.19 181.312 1117.22 181.317 1117.23 181.315Z" fill="#010101"/>
<path d="M1137.05 135.641C1136.87 135.628 1136.71 135.633 1136.55 135.649L1136.37 135.597L1136.35 135.59C1136.36 135.588 1136.33 135.613 1136.33 135.573L1136.35 135.57C1136.54 135.56 1136.79 135.58 1137.05 135.641Z" fill="black"/>
<path d="M1137.7 134.169C1137.34 133.579 1136.74 133.25 1135.81 133.51C1135.02 133.707 1134.39 134.385 1134.23 135.179C1133.63 137.695 1132.43 140.054 1130.76 142.021C1129.93 143.015 1128.98 143.906 1127.95 144.658C1127.42 145.046 1126.88 145.396 1126.32 145.717L1125.89 145.948L1125.78 146.016L1125.53 146.167C1125.38 146.273 1125.21 146.441 1125.09 146.603C1124.52 147.331 1124.54 148.26 1124.89 148.923C1125.07 149.27 1125.34 149.59 1125.74 149.82C1126.13 150.051 1126.68 150.136 1127.1 150.038C1127.34 150 1127.5 149.914 1127.69 149.833L1127.93 149.704L1128.41 149.434C1129.05 149.059 1129.68 148.665 1130.28 148.225C1131.47 147.367 1132.57 146.37 1133.56 145.271C1135.72 142.87 1137.84 139.899 1138.14 136.59C1138.22 135.798 1138.1 134.834 1137.7 134.169ZM1136.55 135.649L1136.37 135.597L1136.35 135.59C1136.36 135.588 1136.33 135.613 1136.33 135.573L1136.35 135.57C1136.54 135.56 1136.79 135.58 1137.05 135.641C1136.87 135.628 1136.71 135.633 1136.55 135.649Z" fill="black"/>
<path d="M1148.34 150.983C1148.34 150.983 1148.28 150.961 1148.25 150.946C1148.24 150.877 1148.22 150.91 1148.34 150.983Z" fill="black"/>
<path d="M1148.39 151.106C1148.39 151.106 1148.26 151.198 1148.25 151.229L1148.24 151.23C1148.19 151.158 1148.12 151.088 1148.04 151.03L1148.03 151.032C1147.89 150.902 1147.72 150.817 1147.54 150.765C1147.78 150.829 1148.09 150.881 1148.25 150.946C1148.26 150.974 1148.27 151.013 1148.27 151.084L1148.34 151.104C1148.36 151.101 1148.38 151.108 1148.39 151.106Z" fill="black"/>
<path d="M1147.31 149.384C1147.45 149.251 1147.61 149.135 1147.77 149.047C1148.76 148.556 1149.96 149.427 1150.35 150.328C1150.45 150.595 1150.5 150.891 1150.49 151.165C1150.5 151.317 1150.47 151.443 1150.44 151.569L1150.38 151.76L1150.36 151.855L1150.11 152.542C1149.94 152.995 1149.76 153.439 1149.58 153.883C1149.19 154.765 1148.76 155.624 1148.29 156.459C1147.33 158.131 1146.19 159.69 1144.9 161.111C1143.63 162.508 1142.27 163.83 1140.81 165.035C1140.17 165.562 1139.33 166.314 1138.46 166.798C1137.58 167.323 1136.63 167.727 1135.65 168.015C1135.4 168.086 1135.17 168.153 1134.9 168.206C1134.75 168.231 1134.71 168.267 1134.34 168.295C1134.06 168.3 1133.78 168.254 1133.52 168.153C1132.46 167.786 1131.85 166.485 1132.27 165.426C1132.46 164.899 1132.86 164.461 1133.37 164.228C1134.04 163.979 1134.01 164.055 1134.23 163.979C1134.62 163.867 1135 163.734 1135.37 163.574C1136.1 163.265 1136.79 162.851 1137.41 162.347L1139.43 160.587C1140.72 159.399 1141.96 158.097 1143 156.727C1143.8 155.667 1144.5 154.532 1145.11 153.351C1145.68 152.227 1146.11 151.004 1146.84 149.966C1146.9 149.886 1146.95 149.806 1147.02 149.724C1147.11 149.608 1147.22 149.491 1147.32 149.383L1147.31 149.384Z" fill="black"/>
<path d="M1148.39 151.106C1148.39 151.106 1148.36 151.101 1148.34 151.104L1148.39 151.106Z" fill="black"/>
<path d="M1148.34 150.983C1148.34 150.983 1148.28 150.961 1148.25 150.946C1148.24 150.877 1148.22 150.91 1148.34 150.983Z" fill="#010101"/>
<path d="M1148.39 151.107C1148.39 151.107 1148.26 151.198 1148.25 151.229L1148.24 151.231C1148.19 151.158 1148.12 151.088 1148.04 151.03L1148.16 151.062C1148.16 151.062 1148.2 151.076 1148.22 151.082C1148.23 151.081 1148.25 151.098 1148.27 151.094C1148.31 151.109 1148.34 151.105 1148.34 151.105C1148.36 151.101 1148.38 151.108 1148.39 151.107Z" fill="#010101"/>
<path d="M1131.82 114.389C1131.48 115.172 1130.99 115.918 1130.08 115.871C1129.6 115.887 1129.19 115.528 1129.15 115.048C1129.13 114.566 1129.48 114.144 1129.97 114.106L1129.98 114.105L1130.03 114.057C1129.93 114.185 1130.1 113.925 1130.11 113.882C1130.15 113.805 1130.18 113.73 1130.21 113.654L1130.32 113.384C1128.94 112.772 1127.35 112.936 1126.12 113.8C1124.04 115.317 1123.6 118.233 1125.12 120.309C1125.76 121.18 1126.68 121.802 1127.72 122.071C1130.19 122.578 1132.61 120.987 1133.12 118.516C1133.43 117.009 1132.94 115.445 1131.82 114.389Z" fill="#DB433B"/>
<path d="M1129.91 116.841C1130.09 116.852 1130.28 116.822 1130.47 116.751C1131.21 116.48 1131.49 115.635 1131.76 114.955L1132.48 113.15L1133.17 111.358L1133.51 110.462C1133.58 110.33 1133.69 109.998 1133.69 109.735C1133.68 109.454 1133.61 109.192 1133.47 108.961C1133.2 108.487 1132.6 108.187 1132.06 108.254C1131.51 108.302 1131 108.656 1130.79 109.186L1130.08 110.99L1129.38 112.793C1129.17 113.313 1128.98 113.849 1128.74 114.354C1128.6 114.639 1128.51 114.928 1128.51 115.252C1128.51 116.082 1129.12 116.805 1129.91 116.841Z" fill="black"/>
<path d="M1166.91 171.187L1163.95 171.66L1164.9 177.585L1167.86 177.112L1166.91 171.187Z" fill="black"/>
<path d="M1159.08 223.829C1159.21 223.151 1159.3 222.417 1159.46 221.713C1159.6 221.114 1160.32 220.696 1160.93 220.801C1161.66 220.927 1162.18 221.725 1161.99 222.464C1161.95 222.664 1161.87 222.898 1161.73 223.012C1161.41 223.277 1161.06 223.555 1160.67 223.687C1159.77 224.003 1159.32 224.612 1159.16 225.528C1159.13 225.715 1158.96 225.885 1158.83 226.057C1158.63 226.342 1157.97 226.396 1157.69 226.158C1157.41 225.919 1157.32 225.266 1157.58 225.031C1158.04 224.613 1158.54 224.25 1159.07 223.821L1159.08 223.829Z" fill="black"/>
<path d="M1149.14 232.394C1148.75 232.497 1148.24 232.255 1148.1 231.892C1147.74 231.007 1148.06 230.177 1148.89 229.78C1149.31 229.582 1150.08 229.915 1150.21 230.36C1150.45 231.152 1149.91 232.191 1149.15 232.393L1149.14 232.394Z" fill="black"/>
<path d="M1151.28 221.976C1151.18 221.972 1151.07 221.989 1150.98 221.974C1150.43 221.899 1150.05 221.555 1149.76 221.125C1149.4 220.595 1149.74 219.853 1150.39 219.698C1150.93 219.562 1151.49 219.745 1151.76 220.138C1152.12 220.648 1152.03 221.3 1151.53 221.785C1151.46 221.857 1151.36 221.912 1151.28 221.976Z" fill="black"/>
<path d="M1149.7 213.115C1150.34 212.982 1150.85 213.337 1150.93 213.719C1151.07 214.445 1150.39 215.284 1149.7 215.151C1149.31 215.071 1148.96 214.823 1148.61 214.605C1148.41 214.476 1148.44 213.904 1148.65 213.769C1149.07 213.489 1149.51 213.236 1149.7 213.125L1149.7 213.115Z" fill="black"/>
<path d="M1152.34 227.894C1151.21 228.063 1150.65 227.423 1150.89 226.434C1151.04 225.833 1151.53 225.391 1151.93 225.489C1152.72 225.677 1153.28 226.711 1152.91 227.417C1152.79 227.65 1152.46 227.783 1152.34 227.894Z" fill="black"/>
<path d="M1164.8 225.721C1164.37 225.74 1163.8 225.364 1163.64 224.895C1163.5 224.501 1163.49 224.108 1163.79 223.757C1164.09 223.395 1164.75 223.319 1165.15 223.61C1165.77 224.068 1165.87 224.913 1165.34 225.454C1165.21 225.586 1164.99 225.631 1164.81 225.72L1164.8 225.721Z" fill="black"/>
<path d="M1144.75 221.084C1144.86 221.512 1144.43 222.098 1143.92 222.2C1143.4 222.313 1142.84 221.997 1142.7 221.524C1142.55 221.051 1142.85 220.415 1143.29 220.254C1143.81 220.07 1144.6 220.511 1144.75 221.084Z" fill="black"/>
<path d="M1134.78 209.026C1135.02 209.22 1135.33 209.352 1135.43 209.58C1135.53 209.827 1135.49 210.198 1135.38 210.459C1135.14 211.044 1134.54 211.241 1134.15 210.929C1133.72 210.582 1133.6 209.973 1133.96 209.571C1134.16 209.357 1134.45 209.229 1134.77 209.016L1134.78 209.026Z" fill="black"/>
<path d="M1154.15 216.647C1154.16 217.254 1153.52 217.851 1152.94 217.782C1152.5 217.731 1152.18 217.408 1152.14 216.979C1152.07 216.372 1152.65 215.843 1153.35 215.864C1153.78 215.876 1154.14 216.233 1154.16 216.646L1154.15 216.647Z" fill="black"/>
<path d="M1145.28 204.534C1145.41 205.091 1145.08 205.649 1144.58 205.739C1144.12 205.814 1143.56 205.417 1143.4 204.904C1143.31 204.585 1143.65 204.035 1144.01 203.906C1144.51 203.735 1145.17 204.065 1145.28 204.544L1145.28 204.534Z" fill="black"/>
<path d="M1132.07 206.561C1132.25 207.009 1131.91 207.589 1131.41 207.701C1131.06 207.785 1130.61 207.453 1130.52 207.062C1130.44 206.67 1130.71 206.221 1131.08 206.132C1131.57 206.023 1131.93 206.179 1132.08 206.559L1132.07 206.561Z" fill="black"/>
<path d="M1150.14 238.443C1149.66 238.589 1149.12 238.23 1149.04 237.707C1148.97 237.322 1149.24 236.824 1149.58 236.729C1150.02 236.607 1150.57 236.966 1150.69 237.493C1150.78 237.844 1150.5 238.343 1150.13 238.444L1150.14 238.443Z" fill="black"/>
<path d="M1147.55 217.145C1147.6 217.683 1147.17 218.188 1146.67 218.155C1146.27 218.127 1145.93 217.827 1145.83 217.398C1145.73 216.948 1146.13 216.236 1146.52 216.174C1146.91 216.113 1147.5 216.676 1147.54 217.135L1147.55 217.145Z" fill="black"/>
<path d="M1143.33 214.952C1143.33 215.427 1142.86 215.766 1142.52 215.537C1142.27 215.374 1142.04 215.157 1141.84 214.925C1141.62 214.648 1141.66 214.276 1141.89 214.109C1142.14 213.926 1142.43 213.81 1142.74 213.973C1143.12 214.185 1143.37 214.49 1143.33 214.942L1143.33 214.952Z" fill="black"/>
<path d="M1142.85 208.435C1142.95 208.744 1142.64 209.249 1142.26 209.37C1141.72 209.549 1141.31 209.34 1141.07 208.77C1140.93 208.409 1141.09 207.866 1141.4 207.737C1141.94 207.508 1142.68 207.865 1142.85 208.435Z" fill="black"/>
<path d="M1156.73 218.191C1156.82 218.206 1156.93 218.209 1157.02 218.246C1157.56 218.463 1157.7 218.936 1157.73 219.449C1157.73 219.59 1157.53 219.804 1157.38 219.869C1156.81 220.102 1156.14 219.672 1156.05 219.058C1156 218.702 1156.38 218.226 1156.73 218.191Z" fill="black"/>
<path d="M1156.19 230.074C1156.11 230.259 1156.05 230.602 1155.85 230.755C1155.48 231.037 1154.88 230.668 1154.7 230.058C1154.66 229.904 1154.76 229.603 1154.89 229.522C1155.39 229.21 1155.98 229.439 1156.2 230.072L1156.19 230.074Z" fill="black"/>
<path d="M1138.65 211.608C1139.13 211.45 1139.64 211.744 1139.72 212.116C1139.76 212.362 1139.53 212.753 1139.26 212.846C1138.91 212.984 1138.33 212.682 1138.35 212.304C1138.36 212.04 1138.57 211.783 1138.65 211.598L1138.65 211.608Z" fill="black"/>
<path d="M1148.1 208.317C1148 208.181 1147.78 207.994 1147.69 207.765C1147.6 207.516 1147.95 207.166 1148.23 207.132C1148.51 207.108 1148.75 207.363 1148.76 207.705C1148.78 208.057 1148.55 208.326 1148.1 208.317Z" fill="black"/>
<path d="M1146.41 234.541C1146.47 234.876 1146.21 235.212 1145.89 235.13C1145.73 235.095 1145.54 234.932 1145.5 234.778C1145.4 234.46 1145.71 234.107 1146.01 234.179C1146.17 234.215 1146.28 234.41 1146.41 234.531L1146.41 234.541Z" fill="black"/>
<path d="M1141.15 201.122C1141.26 201.47 1141.07 201.804 1140.77 201.761C1140.6 201.737 1140.41 201.615 1140.32 201.488C1140.17 201.259 1140.44 200.831 1140.74 200.843C1140.88 200.851 1141.01 201.023 1141.15 201.122Z" fill="black"/>
<path d="M1134.22 203.15C1134.07 203.246 1133.91 203.432 1133.75 203.427C1133.52 203.424 1133.39 203.182 1133.51 202.98C1133.59 202.836 1133.81 202.76 1133.96 202.664C1134.05 202.823 1134.14 202.991 1134.21 203.151L1134.22 203.15Z" fill="black"/>
<path d="M1141.34 225.102C1141.29 225.282 1141.29 225.506 1141.17 225.625C1140.98 225.828 1140.57 225.619 1140.53 225.292C1140.5 225.114 1140.57 224.891 1140.68 224.742C1140.82 224.548 1141.24 224.784 1141.34 225.102Z" fill="black"/>
<path d="M1156.36 236.203C1156.37 236.292 1156.43 236.395 1156.4 236.47C1156.37 236.545 1156.27 236.602 1156.21 236.663C1156.14 236.513 1156.03 236.367 1155.99 236.212C1155.98 236.163 1156.1 236.073 1156.16 236.013C1156.23 236.073 1156.29 236.144 1156.36 236.203Z" fill="black"/>
<path d="M1159.14 232.874C1159.06 232.937 1158.98 233.052 1158.9 233.043C1158.66 233.012 1158.56 232.845 1158.64 232.609C1158.68 232.522 1158.77 232.467 1158.84 232.405C1158.94 232.562 1159.03 232.719 1159.13 232.875L1159.14 232.874Z" fill="black"/>
<path d="M1137.55 222.527C1137.67 222.609 1137.8 222.7 1137.91 222.783C1137.85 222.853 1137.78 222.976 1137.72 222.976C1137.55 222.963 1137.38 222.899 1137.21 222.855C1137.32 222.746 1137.43 222.637 1137.55 222.527Z" fill="black"/>
<path d="M1145.33 228.03C1145.29 228.108 1145.23 228.269 1145.19 228.265C1145.01 228.243 1144.84 228.169 1144.67 228.115C1144.83 228.02 1144.97 227.905 1145.13 227.839C1145.17 227.833 1145.26 227.96 1145.33 228.03Z" fill="black"/>
<path d="M1148.05 224.336C1147.99 224.395 1147.91 224.509 1147.88 224.504C1147.63 224.422 1147.63 224.29 1147.87 224.192C1147.9 224.187 1147.99 224.294 1148.05 224.346L1148.05 224.336Z" fill="black"/>
<path d="M1137.73 205.193C1137.8 205.252 1137.92 205.324 1137.92 205.355C1137.84 205.621 1137.71 205.632 1137.58 205.389C1137.56 205.361 1137.68 205.261 1137.73 205.193Z" fill="black"/>
</g>
<g clip-path="url(#clip5_453_184)">
<path d="M1165.01 68.2529C1166.89 68.3046 1168.46 66.8219 1168.52 64.9336C1168.56 63.6987 1167.92 62.5473 1166.85 61.9112C1168.47 60.8623 1168.93 58.704 1167.88 57.0869C1167.38 56.3091 1166.6 55.7702 1165.7 55.5728C1163.44 54.8152 1159.43 56.0877 1156.31 57.158C1153.63 52.9969 1148.46 51.2221 1143.8 52.8627C1142.51 53.3623 1141.33 54.1034 1140.32 55.045C1138.79 52.2213 1136.28 50.0544 1133.25 48.9568C1130.04 48.4152 1127.72 52.259 1130.42 55.4889C1128.41 55.8988 1126.83 56.0215 1126.01 57.256C1125.23 58.6688 1125.72 60.4498 1127.11 61.2586C1125.81 64.5245 1129.47 68.1591 1135.58 65.5505C1137.52 64.7326 1137.04 64.4453 1137.29 65.3075C1137.95 67.1774 1139.27 68.7255 1141.01 69.6504C1145.03 71.5712 1149.78 71.0228 1153.26 68.2438C1155.67 70.9099 1158.76 72.882 1162.19 73.9652C1164.09 74.0768 1165.72 72.63 1165.84 70.7279C1165.89 69.8172 1165.58 68.9328 1164.99 68.2512L1165.01 68.2529ZM1129.81 62.0944C1130.58 62.0759 1131.18 61.43 1131.16 60.6618C1131.14 60.0547 1130.73 59.5306 1130.15 59.3704C1126.74 58.7691 1129.18 58.5934 1133.72 57.6476C1134.46 57.4388 1134.9 56.6646 1134.68 55.9172C1134.59 55.583 1134.37 55.3021 1134.08 55.1139C1133.16 54.4261 1131.94 53.5535 1132.02 52.4026C1132.18 50.1368 1136.73 53.6225 1138.46 57.408C1137.71 58.6698 1137.2 60.0581 1137 61.5093C1133.36 64.3435 1128.78 64.0889 1129.8 62.0892L1129.81 62.0944ZM1161.23 70.8387C1159.05 69.599 1157.05 68.0847 1155.25 66.3487C1156.77 64.5163 1157.48 62.1432 1157.2 59.777C1159.13 59.0877 1165.6 56.9553 1165.71 59.0131C1165.77 60.1569 1163.54 60.0252 1162.88 60.0246C1161.17 59.9949 1160.37 62.6254 1164.28 63.9015C1164.69 64.0311 1165.73 64.2129 1165.83 64.6192C1165.92 65.0254 1165.27 65.4296 1164.85 65.5143C1163.77 65.487 1162.73 65.1218 1161.87 64.4647C1161.19 64.0954 1160.33 64.3404 1159.96 65.0167C1159.75 65.4218 1159.73 65.9141 1159.94 66.3202C1160.71 68.1402 1162.12 68.726 1162.76 69.8774C1163.57 71.2617 1162.64 71.5995 1161.23 70.8301L1161.23 70.8387Z" fill="#E7BB43"/>
</g>
<g clip-path="url(#clip6_453_184)">
<path d="M818.3 87.2762C832.068 83.458 840.134 69.2016 836.316 55.4336C832.497 41.6657 818.241 33.5998 804.473 37.418C790.705 41.2363 782.639 55.4927 786.457 69.2606C790.276 83.0286 804.532 91.0945 818.3 87.2762Z" fill="#DB433B"/>
<path d="M830.805 88.4367C835.544 94.4489 856.258 83.3391 847.57 76.5956C840.015 70.7937 827.017 83.6448 830.805 88.4367Z" fill="black"/>
<path d="M819.605 79.6711C823.281 86.1544 825.237 93.4678 825.301 100.922C800.662 81.9772 796.291 114.073 824.898 107.924C820.534 121.639 822.544 120.729 823.54 121.325C826.909 123.109 836.68 97.6832 823.378 77.1097C836.332 68.5152 830.242 40.8672 812.386 41.0663C798.019 41.2006 785.228 59.7017 794.572 72.438C801.657 82.7185 811.211 84.0537 819.605 79.6711ZM798.9 70.646C801.992 59.9405 810.656 67.3857 817.186 75.8487C812.031 78.5545 804.576 78.4636 798.919 70.6407L798.9 70.646ZM824.057 53.5515C827.702 60.0332 826.398 68.1674 820.922 73.1936C813.115 66.9323 813.305 51.7907 824.057 53.5515ZM820.578 48.8293C814.394 50.2538 810.207 55.9603 810.774 63.1709C805.234 60.1827 800.699 59.0953 796.366 64.9875C793.462 52.1983 810.822 39.5075 820.584 48.8486L820.578 48.8293Z" fill="black"/>
<path d="M812.402 41.0514C798.019 41.2006 785.228 59.7017 794.572 72.438C800.755 81.412 808.811 83.5571 816.336 81.0551C816.336 81.0551 823.235 78.1663 825.185 75.654C835.675 65.7711 829.342 40.8781 812.393 41.054L812.402 41.0514ZM820.569 48.832C814.397 50.2634 810.219 55.9673 810.774 63.1709C805.244 60.1801 800.699 59.0953 796.366 64.9875C793.475 52.2053 810.803 39.5128 820.569 48.832ZM798.919 70.6407L798.9 70.6461C801.992 59.9405 810.657 67.3857 817.186 75.8487C812.024 78.5669 804.576 78.4636 798.919 70.6407ZM820.922 73.1936C813.112 66.9227 813.296 51.7934 824.057 53.5515C827.702 60.0332 826.398 68.1674 820.922 73.1936Z" fill="black"/>
<path d="M812.931 51.1888C812.627 51.1796 812.403 51.2314 812.217 51.1585C811.469 50.8574 811.035 50.3032 811.002 49.4718C810.968 48.7133 811.886 48.0955 812.552 48.4399C813.29 48.8165 813.733 49.7417 813.488 50.5777C813.414 50.8368 813.091 51.0197 812.933 51.1984L812.931 51.1888Z" fill="black"/>
<path d="M804.378 66.0755C804.489 66.8126 804.024 67.6057 803.293 67.7772C803.053 67.844 802.646 67.687 802.466 67.4878C801.846 66.7879 802.073 65.7704 802.88 65.3495C803.43 65.0516 804.283 65.4689 804.369 66.0781L804.378 66.0755Z" fill="black"/>
<path d="M804.503 55.8609C804.399 56.0867 804.332 56.4063 804.133 56.586C803.927 56.7781 803.602 56.8786 803.313 56.9588C802.85 57.0871 802.445 56.8985 802.289 56.558C802.098 56.1334 802.232 55.7539 802.498 55.4414C802.905 54.9652 803.637 54.9077 804.139 55.2976C804.285 55.4127 804.354 55.6221 804.49 55.8539L804.503 55.8609Z" fill="black"/>
<path d="M815.061 56.0251C814.985 56.2018 814.903 56.5047 814.75 56.7755C814.544 57.1544 814.039 57.2425 813.645 57.0196C813.276 56.8107 813.087 56.3546 813.197 55.9296C813.305 55.495 813.502 55.1188 813.957 55.0028C814.41 54.8772 815.053 55.4358 815.051 56.0278L815.061 56.0251Z" fill="black"/>
<path d="M801.475 58.413C801.644 58.5737 801.971 58.7424 802.01 58.9598C802.15 59.7617 801.761 60.3054 800.955 60.5807C800.671 60.6802 800.238 60.5408 800.169 60.2903C800.118 60.1072 800.058 59.854 800.147 59.7255C800.425 59.306 800.765 58.9212 801.092 58.5295C801.146 58.4627 801.285 58.4761 801.477 58.4227L801.475 58.413Z" fill="black"/>
<path d="M808.505 58.0926C808.669 58.5348 808.382 59.1851 807.931 59.3931C807.627 59.5295 807.041 59.2873 806.88 58.9687C806.583 58.3868 806.916 57.6407 807.524 57.5136C807.899 57.4409 808.359 57.7179 808.505 58.0926Z" fill="black"/>
<path d="M798.938 62.9976C799.206 62.9544 799.545 63.2029 799.61 63.4754C799.718 63.9021 799.601 64.2666 799.276 64.5539C799.01 64.7936 798.366 64.827 798.171 64.5384C798.03 64.3285 797.97 63.9613 798.046 63.7119C798.167 63.3255 798.483 63.0408 798.938 62.9976Z" fill="black"/>
<path d="M812.502 60.1594C812.622 60.6659 812.281 61.1962 811.755 61.28C811.346 61.3414 810.887 61.0329 810.849 60.6699C810.801 60.1229 811.123 59.6391 811.605 59.5055C811.933 59.4146 812.396 59.774 812.493 60.1621L812.502 60.1594Z" fill="black"/>
<path d="M809.449 64.0777C809.794 64.0131 810.229 64.3077 810.367 64.6948C810.508 65.0915 810.267 65.6047 809.921 65.6694C809.595 65.7286 809.102 65.4089 808.986 65.0673C808.868 64.7161 809.135 64.144 809.449 64.0777Z" fill="black"/>
<path d="M808.188 48.0833C808.044 47.9365 807.751 47.779 807.675 47.5408C807.554 47.18 808.023 46.6658 808.375 46.7344C808.54 46.7714 808.746 46.953 808.814 47.1211C808.973 47.544 808.691 48.0267 808.188 48.0833Z" fill="black"/>
<path d="M799.92 53.2925C799.8 53.4605 799.691 53.7399 799.477 53.903C799.239 54.0935 798.802 53.9033 798.755 53.5842C798.712 53.316 798.759 52.9606 798.911 52.7626C799.121 52.5074 799.776 52.8133 799.922 53.3021L799.92 53.2925Z" fill="black"/>
<path d="M795.234 62.1051C795.037 62.0665 794.816 62.0551 794.637 61.9699C794.352 61.8414 794.274 61.4479 794.424 61.1675C794.568 60.8993 794.937 60.8074 795.24 61.0035C795.403 61.1036 795.543 61.2723 795.652 61.4394C795.821 61.714 795.574 62.094 795.237 62.1147L795.234 62.1051Z" fill="black"/>
<path d="M815.881 63.6225C815.585 63.6422 815.318 63.353 815.339 63.0153C815.359 62.6775 815.661 62.4175 815.965 62.5407C816.139 62.6066 816.301 62.7796 816.388 62.9424C816.511 63.1988 816.174 63.5932 815.878 63.6129L815.881 63.6225Z" fill="black"/>
<path d="M805.533 61.895C805.432 62.0164 805.354 62.2246 805.236 62.2471C804.917 62.294 804.69 62.0354 804.743 61.7405C804.753 61.665 804.831 61.5708 804.9 61.5205C805.114 61.3574 805.474 61.5689 805.523 61.8976L805.533 61.895Z" fill="black"/>
<path d="M807.276 69.7138C807.061 69.877 806.886 69.8427 806.723 69.6285C806.372 69.1862 806.407 68.9378 806.842 68.5992C807.056 68.436 807.236 68.4484 807.399 68.6626C807.726 69.0909 807.692 69.3805 807.283 69.7015L807.276 69.7138Z" fill="black"/>
<path d="M810.976 70.4102C811.046 70.4011 811.15 70.3621 811.189 70.3926C811.244 70.4397 811.293 70.5404 811.282 70.6159C811.275 70.701 811.202 70.7732 811.162 70.8567C811.093 70.793 811.004 70.7346 810.973 70.6602C810.945 70.5954 810.978 70.4926 810.979 70.4198L810.976 70.4102Z" fill="black"/>
<path d="M804.578 73.1183C804.489 73.06 804.331 72.9791 804.337 72.9255C804.372 72.6772 804.546 72.5563 804.797 72.6008C804.895 72.6153 804.972 72.7079 805.061 72.7663C804.897 72.8845 804.742 73.0001 804.578 73.1183Z" fill="black"/>
<path d="M816.788 52.0388C816.921 52.1058 817.056 52.1824 817.179 52.2521C817.128 52.3286 817.071 52.4586 817.01 52.465C816.836 52.4719 816.657 52.4279 816.485 52.4032C816.586 52.2818 816.687 52.1603 816.788 52.0388Z" fill="black"/>
<path d="M809.841 54.0793L809.962 54.2533L809.771 54.2751L809.841 54.0793Z" fill="black"/>
</g>
<g clip-path="url(#clip7_453_184)">
<path d="M847.27 188.25C851.58 195.53 838.42 201.36 835.74 192.62C832.97 200.53 820.94 191.68 826.94 186.68C819.73 186.7 821.79 174.45 828.56 176.75C822.36 167.66 839.68 160.29 839.68 172.16C843.51 162.84 857.43 172.35 848.87 178.45C849.98 178.56 851.02 179.08 851.76 179.92C854.04 182.65 852.09 190.63 847.27 188.25Z" fill="#5FBFFA"/>
<path d="M822.2 190.17C815.31 195.91 829.13 206.08 832.31 196.98C835.39 207.03 850.51 200.33 845.56 191.96C851.1 194.68 853.34 185.51 850.73 182.39C849.88 181.42 848.69 180.82 847.41 180.7C857.24 173.68 841.25 162.76 836.85 173.47C836.85 159.84 816.94 168.3 824.06 178.75C816.29 176.11 813.91 190.18 822.2 190.17ZM821.01 183.42C821.92 180.2 825.75 183.7 827.73 181.7C830.1 179.31 822.65 172.7 829.27 170.45C835.89 168.2 830.95 177.74 835.15 179.05C839.86 180.5 840.09 169.34 845.35 173.52C850.27 177.43 840.18 178.52 841.78 182.38C843.38 186.24 849.77 181.81 847.94 187.5C846.83 190.84 841.78 184.61 840.08 187.84C838.38 191.07 845.22 194.61 841.62 197.29C838.36 199.74 836.42 197.29 835.11 194.38C830.71 184.38 828.96 204.8 823.92 193.87C823.07 192.09 828.54 191.31 827.75 188.55C826.69 184.58 819.43 188.95 821.01 183.41V183.42Z" fill="black"/>
</g>
<g clip-path="url(#clip8_453_184)">
<path d="M790.45 160.93C792.96 165.17 785.31 168.55 783.75 163.47C782.14 168.07 775.16 162.93 778.63 160.02C774.44 160.02 775.65 152.9 779.58 154.24C775.96 148.97 786.04 144.68 786.04 151.58C788.27 146.16 796.36 151.69 791.38 155.24C792.03 155.3 792.63 155.61 793.06 156.1C794.38 157.68 793.25 162.32 790.45 160.94V160.93Z" fill="black"/>
</g>
<g clip-path="url(#clip9_453_184)">
<path d="M905.832 508.878C905.832 512.777 901.27 518.355 896.708 521.318C896.552 521.434 896.475 521.511 896.475 521.591C896.475 521.67 896.591 521.668 896.825 521.668C896.942 521.668 898.774 521.551 899.827 521.551C900.414 521.551 900.957 521.551 901.427 521.591C901.856 521.63 902.207 521.941 902.284 522.331C902.477 523.15 902.713 524.67 902.87 525.84C902.87 526.23 902.596 526.503 902.167 526.543C899.711 526.699 891.873 527.166 889.377 527.283C888.947 527.283 888.48 527.126 888.284 526.736C887.894 525.88 887.231 523.461 887.231 523.148C887.231 522.798 887.427 522.445 887.698 522.251C895.186 517.609 900.371 510.278 900.451 507.589C900.411 506.419 899.514 505.989 898.658 505.989C897.292 505.989 895.149 507.432 893.549 509.968C893.432 510.162 893.236 510.281 893.003 510.281C892.769 510.281 892.536 510.124 892.536 510.124C891.639 509.541 890.586 508.682 890 508.018C889.807 507.825 889.687 507.552 889.687 507.239C889.687 507.122 889.727 506.926 889.764 506.809C890.504 504.976 893.43 500.998 897.252 500.998C900.801 500.998 905.832 504.859 905.832 508.875V508.878Z" fill="black"/>
<path d="M907.548 523.463C906.612 521.903 906.339 519.524 906.339 517.535C906.339 512.386 909.108 501.156 916.399 501.156C917.959 501.156 922.288 502.872 923.77 505.408C924.627 506.891 924.94 508.761 924.94 510.556C924.94 516.368 921.977 527.325 914.8 527.325C913.28 527.325 909.262 525.959 907.546 523.463H907.548ZM911.877 518.391C911.877 521.474 912.93 522.37 913.983 522.37C916.869 522.37 919.288 514.843 919.288 509.384C919.288 506.694 918.431 505.952 917.495 505.952C914.686 505.952 911.88 513.01 911.88 518.391H911.877Z" fill="black"/>
<path d="M942.801 508.878C942.801 512.777 938.239 518.355 933.677 521.318C933.521 521.434 933.444 521.511 933.444 521.591C933.444 521.67 933.56 521.668 933.794 521.668C933.911 521.668 935.743 521.551 936.796 521.551C937.383 521.551 937.926 521.551 938.396 521.591C938.825 521.63 939.176 521.941 939.252 522.331C939.446 523.15 939.682 524.67 939.839 525.84C939.839 526.23 939.565 526.503 939.136 526.543C936.68 526.699 928.842 527.166 926.346 527.283C925.916 527.283 925.449 527.126 925.253 526.736C924.863 525.88 924.2 523.461 924.2 523.148C924.2 522.798 924.396 522.445 924.667 522.251C932.155 517.609 937.34 510.278 937.42 507.589C937.38 506.419 936.483 505.989 935.627 505.989C934.261 505.989 932.118 507.432 930.518 509.968C930.401 510.162 930.205 510.281 929.972 510.281C929.738 510.281 929.505 510.124 929.505 510.124C928.608 509.541 927.555 508.682 926.969 508.018C926.776 507.825 926.656 507.552 926.656 507.239C926.656 507.122 926.696 506.926 926.733 506.809C927.473 504.976 930.399 500.998 934.221 500.998C937.77 500.998 942.801 504.859 942.801 508.875V508.878Z" fill="black"/>
<path d="M958.79 515.779C959.257 515.779 959.453 516.092 959.53 516.482C959.686 517.378 959.88 519.095 959.88 520.148C959.88 520.498 959.647 520.85 959.217 520.85C959.023 520.85 957.501 520.89 957.307 520.89C956.84 520.89 956.604 521.24 956.527 521.63C956.294 523.307 956.021 524.983 955.824 526.622C955.785 527.012 955.512 527.245 955.161 527.245C954.498 527.245 952.159 526.542 951.379 526.232C950.912 526.076 950.676 525.646 950.676 525.256C950.716 524.36 950.949 521.98 950.949 521.824C950.949 521.511 950.716 521.317 950.443 521.317C949.546 521.317 944.321 521.824 944.008 521.824C943.541 521.824 943.189 521.63 943.032 521.277C942.642 520.498 941.785 518.079 941.785 517.495C941.785 517.145 941.902 516.755 942.098 516.519C944.907 512.777 950.949 504.079 952.782 501.7C952.976 501.467 953.212 501.31 953.522 501.31C953.872 501.31 954.615 501.817 954.888 501.817C955.045 501.817 955.161 501.74 955.238 501.583C955.355 501.35 955.628 501.154 955.941 501.154C956.408 501.154 959.06 501.894 960.074 502.247C960.387 502.363 960.503 502.636 960.503 502.91C960.503 502.987 960.464 503.183 960.464 503.183C959.761 505.289 958.671 509.618 957.655 514.959C957.655 514.959 957.615 515.193 957.615 515.31C957.615 515.543 957.771 515.776 958.045 515.776H958.785L958.79 515.779ZM948.029 516.169C948.029 516.286 948.146 516.402 948.342 516.402C948.419 516.402 950.215 516.209 951.151 516.129C951.541 516.089 951.774 515.896 951.854 515.506C952.284 513.087 953.063 509.305 953.063 509.031C953.063 508.915 953.063 508.838 953.024 508.838C952.947 508.838 952.83 508.994 952.83 508.994C952.363 509.618 948.541 515.312 948.151 515.896C948.074 516.012 948.034 516.089 948.034 516.169H948.029Z" fill="black"/>
<path d="M955.62 595.852C954.491 595.229 952.422 593.2 951.292 592.03C951.019 591.757 950.902 591.407 950.902 591.054C950.902 588.128 952.931 578.224 953.904 574.792C953.944 574.636 953.944 574.442 953.944 574.285C953.944 573.466 953.788 572.179 953.788 571.946C953.788 571.633 953.944 571.363 954.254 571.243C956.437 570.307 959.09 569.684 960.766 569.684C966.771 569.684 971.569 576.158 971.569 581.07C971.569 588.752 964.861 595.539 957.063 596.083C956.557 596.083 956.05 596.043 955.62 595.849V595.852ZM966.188 579.357C966.188 576.431 963.731 574.678 961.079 574.678C960.806 574.678 960.572 574.678 960.299 574.718C959.832 574.795 959.596 574.991 959.519 575.381C958.583 579.203 957.337 584.624 956.557 589.77C956.557 589.77 956.517 590.004 956.517 590.083C956.517 590.396 956.711 590.513 957.063 590.513C959.989 590.513 966.188 586.73 966.188 579.359V579.357Z" fill="black"/>
<path d="M992.12 572.259V573.235C992.12 579.903 989.897 596.125 981.669 596.125C978.433 596.125 975.195 593.942 974.065 592.343C973.208 591.133 972.818 589.144 972.818 587.311C972.818 580.916 975.274 573.079 976.524 570.737C976.757 570.347 977.03 570.113 977.537 570.113C978.277 570.113 980.346 570.776 981.319 571.126C981.632 571.243 981.786 571.593 981.786 571.906C981.786 572.103 981.709 572.336 981.709 572.336C980.15 576.548 978.394 583.879 978.394 587.545C978.394 589.574 978.784 590.977 980.343 590.977C982.566 590.977 983.815 587.661 984.828 583.606C985.998 578.964 986.701 572.959 986.895 570.933C986.934 570.543 987.208 570.31 987.558 570.31C988.144 570.31 990.483 570.896 991.42 571.246C991.886 571.439 992.083 571.869 992.122 572.259H992.12Z" fill="black"/>
<path d="M1005.19 586.608C1005.19 586.802 1005.3 586.959 1005.3 586.959C1006.63 589.025 1008.19 591.247 1009.47 592.38C1009.63 592.537 1009.71 592.73 1009.71 592.926C1009.71 593.083 1009.63 593.239 1009.51 593.393C1008.66 594.213 1007.02 595.422 1005.89 595.929C1005.89 595.929 1005.73 596.006 1005.5 596.006C1005.15 596.006 1004.84 595.849 1004.64 595.693C1002.5 593.86 1000.78 589.961 1000.12 587.659C999.96 587.269 999.804 586.996 999.494 586.996H999.027C998.637 586.996 998.48 587.189 998.441 587.582C997.974 590.194 997.584 592.884 997.311 595.42C997.234 595.81 996.961 596.043 996.608 596.043C995.788 596.043 992.942 595.147 992.669 595.03C992.083 594.796 992.006 594.444 991.966 594.054C992.043 589.608 993.876 580.131 995.358 574.4C995.435 574.087 995.435 573.933 995.435 573.776C995.435 573.113 995.242 572.294 995.242 571.983C995.242 571.633 995.515 571.32 995.788 571.203C997.308 570.58 999.921 569.8 1003.16 569.8C1008.19 569.8 1012.21 575.105 1012.21 578.458C1012.21 581.81 1009.36 584.815 1005.62 586.139C1005.34 586.256 1005.19 586.372 1005.19 586.606V586.608ZM1001.01 575.378C1000.86 575.925 999.454 581.773 999.454 582.163C999.454 582.436 999.61 582.553 999.883 582.553C1003.51 582.553 1006.4 579.863 1006.4 577.521C1006.4 575.492 1004.76 574.636 1002.85 574.636C1002.53 574.636 1002.22 574.636 1001.91 574.675C1001.4 574.715 1001.13 574.988 1001.01 575.378Z" fill="black"/>
<path d="M1029.32 569.957C1029.95 569.957 1032.6 570.697 1033.58 571.049C1033.85 571.166 1034.04 571.439 1034.04 571.752C1034.04 571.869 1034 571.986 1034 571.986C1032.76 575.535 1030.3 586.181 1029.25 595.422C1029.21 595.812 1028.93 596.008 1028.62 596.008C1027.84 596.008 1025.07 595.189 1024.64 595.032C1024.14 594.839 1023.98 594.486 1023.94 594.019C1023.94 592.303 1024.49 588.598 1024.49 588.364C1024.49 588.051 1024.25 587.818 1023.86 587.818C1022.54 587.895 1020.82 587.934 1019.34 587.974C1018.91 587.974 1018.64 588.324 1018.56 588.677C1018.17 590.94 1017.82 593.202 1017.58 595.425C1017.54 595.815 1017.23 596.011 1016.92 596.011C1016.1 596.011 1013.41 595.231 1012.94 595.035C1012.55 594.878 1012.32 594.488 1012.28 594.022C1012.35 592.072 1012.86 588.25 1012.86 588.094C1012.86 587.86 1012.79 587.743 1012.67 587.627C1012.59 587.51 1012.47 587.393 1012.39 587.16C1012.24 586.576 1012.12 585.523 1012.08 584.741C1012.08 584.234 1012.2 584.038 1012.9 583.844C1013.45 583.688 1013.68 583.415 1013.76 583.065C1014.69 577.76 1016.02 572.498 1016.84 570.508C1016.99 570.195 1017.27 570.002 1017.62 570.002C1018.32 570.002 1021.01 570.705 1021.91 571.055C1022.18 571.132 1022.37 571.484 1022.37 571.795C1022.37 571.911 1022.3 572.145 1022.3 572.145C1021.59 574.017 1020.7 577.603 1019.72 582.205C1019.72 582.205 1019.68 582.399 1019.68 582.518C1019.68 582.791 1019.92 583.025 1020.23 583.025C1020.39 583.025 1023.94 582.908 1024.72 582.908C1025.11 582.908 1025.46 582.635 1025.53 582.245C1026.51 577.253 1027.72 572.418 1028.54 570.508C1028.65 570.195 1028.97 569.962 1029.32 569.962L1029.32 569.957Z" fill="black"/>
<path d="M1033.34 589.261C1033.34 588.794 1032.68 587.155 1032.68 586.452C1032.68 586.062 1032.87 585.789 1033.3 585.712C1033.73 585.635 1034.24 585.518 1034.24 585.518C1034.78 585.401 1034.94 585.205 1035.17 584.738C1037.24 580.643 1040.59 572.805 1042.35 570.739C1042.58 570.466 1042.85 570.389 1043.13 570.389C1043.52 570.389 1044.22 570.662 1044.45 570.662C1044.77 570.662 1045.08 570.469 1045.12 570.156C1045.16 569.882 1045.31 569.649 1045.62 569.649C1046.17 569.649 1048.94 570.625 1049.56 570.935C1049.99 571.132 1050.27 571.522 1050.34 571.988C1050.77 574.211 1050.97 580.802 1050.97 586.651C1050.97 590.356 1050.85 593.709 1050.65 595.465C1050.61 595.778 1050.34 596.051 1049.87 596.051C1049.21 596.051 1046.44 595.621 1045.74 595.388C1045.35 595.271 1045.12 594.921 1045.12 594.374C1045.12 593.478 1045.23 590.632 1045.23 590.006C1045.23 589.656 1045 589.42 1044.61 589.42C1042.85 589.42 1040.05 589.576 1039.58 589.616C1039.11 589.656 1038.92 589.85 1038.68 590.319C1037.94 591.956 1037.28 594.062 1036.69 595.427C1036.54 595.74 1036.26 595.894 1035.99 595.894C1035.37 595.894 1033.06 594.802 1032.44 594.374C1032.17 594.181 1031.97 593.945 1031.97 593.595C1031.97 593.398 1032.01 593.282 1032.01 593.282L1033.26 589.733C1033.34 589.539 1033.34 589.42 1033.34 589.266L1033.34 589.261ZM1040.98 584.425C1040.98 584.659 1041.14 584.738 1041.53 584.738C1042.51 584.738 1044.1 584.699 1044.61 584.699C1045.04 584.699 1045.27 584.505 1045.35 583.959C1045.39 583.102 1045.39 582.203 1045.39 581.306C1045.39 579.16 1045.31 577.094 1045.27 575.848C1045.27 575.614 1045.2 575.497 1045.12 575.497C1045.04 575.497 1044.96 575.574 1044.88 575.731C1043.91 577.837 1042.54 580.916 1041.06 584.192C1041.06 584.192 1040.98 584.348 1040.98 584.425Z" fill="black"/>
<path d="M1057.71 596.046C1056.89 596.046 1054.48 595.306 1053.85 595.07C1053.34 594.873 1053.19 594.483 1053.15 594.056C1053.34 588.401 1056.31 574.206 1057.91 570.62C1058.06 570.27 1058.49 570.034 1058.96 570.034C1059.51 570.034 1063.56 570.853 1065.24 571.554C1065.67 571.747 1065.71 572.177 1065.71 572.567C1065.74 574.087 1065.74 579.898 1065.71 583.487C1065.71 583.643 1065.74 583.8 1065.82 583.8C1065.9 583.8 1066.02 583.526 1066.02 583.526C1067.65 579.431 1069.49 574.206 1071.36 570.463C1071.55 570.15 1071.86 569.917 1072.29 569.917C1073.5 569.917 1077.87 571.087 1079.16 571.673C1079.51 571.79 1079.66 572.103 1079.66 572.413C1079.66 572.53 1079.62 572.646 1079.62 572.646C1078.34 576.625 1076.04 586.569 1075.02 595.459C1074.98 595.81 1074.67 596.046 1074.32 596.046C1073.7 596.046 1071.12 595.422 1070.38 595.07C1069.91 594.836 1069.72 594.483 1069.68 594.056C1069.68 590.234 1072.1 579.901 1072.1 579.434C1072.1 579.357 1072.06 579.277 1072.02 579.277C1071.98 579.277 1071.9 579.354 1071.82 579.511C1070.3 582.983 1068.98 587.232 1067.18 591.95C1067.07 592.263 1066.72 592.537 1066.36 592.537C1065.78 592.537 1063.48 591.797 1062.46 591.327C1062 591.094 1061.8 590.624 1061.76 590.234C1061.33 587.192 1061.45 582.59 1061.33 579.354C1061.29 579.158 1061.25 579.081 1061.21 579.081C1061.17 579.081 1061.1 579.158 1061.06 579.314C1060.04 583.76 1059.07 589.765 1058.45 595.459C1058.37 595.81 1058.06 596.046 1057.71 596.046H1057.71Z" fill="black"/>
<path d="M863.27 525.299C864.235 525.299 868.198 526.476 868.895 526.853C869.269 527.068 869.537 527.442 869.537 527.871C869.537 527.977 869.484 528.192 869.484 528.192C867.662 533.335 864.073 548.175 862.413 561.57C862.36 562.106 861.93 562.427 861.447 562.427C860.591 562.427 857.912 561.676 857.108 561.355C856.625 561.14 856.251 560.713 856.198 559.963L856.092 558.193C856.092 557.926 855.986 557.658 855.824 557.658C855.718 557.658 855.609 557.711 855.45 557.926C853.737 560.443 851.7 562.586 849.986 562.586C846.236 562.586 842.003 557.711 842.003 552.889C842.003 544.101 846.504 535.102 853.254 535.102C854.487 535.102 856.148 535.744 857.861 536.656C857.861 536.656 858.129 536.818 858.291 536.818C858.612 536.818 858.827 536.603 858.933 536.12C860.057 531.46 861.129 527.977 862.041 526.047C862.256 525.617 862.739 525.296 863.275 525.296L863.27 525.299ZM855.93 551.178C856.519 548.393 857.538 543.356 857.538 542.926C857.538 542.552 857.376 542.229 856.949 542.07C856.198 541.802 855.503 541.64 855.074 541.64C851.591 541.64 849.663 548.979 849.663 552.676C849.663 554.231 850.037 555.302 850.52 555.302C851.644 555.302 853.681 553.857 855.235 552.409C855.665 552.035 855.877 551.552 855.933 551.175L855.93 551.178Z" fill="black"/>
<path d="M875.325 533.123C878.539 533.123 880.521 531.086 880.521 528.248C880.521 525.086 877.412 523.8 874.842 523.8C874.306 523.8 873.502 524.068 873.128 524.336C872.004 525.245 870.823 526.694 870.823 528.569C870.823 531.033 872.216 533.123 875.325 533.123Z" fill="black"/>
<path d="M892.899 560.071L892.737 557.822C892.737 557.554 892.631 557.393 892.523 557.393C892.414 557.393 892.308 557.499 892.202 557.66C890.326 560.66 888.183 562.589 886.523 562.589C882.719 562.589 878.486 557.928 878.486 552.891C878.486 543.945 882.772 535.104 890.167 535.104C892.793 535.104 898.151 537.195 902.008 539.712C902.382 539.927 902.649 540.354 902.649 540.836C902.649 540.998 902.543 541.425 902.543 541.425C900.4 549.032 899.65 557.337 899.544 561.623C899.49 562.106 899.114 562.48 898.634 562.48C897.241 562.48 894.294 561.676 893.865 561.461C893.167 561.087 892.955 560.605 892.899 560.069V560.071ZM892.417 551.178C893.005 548.393 894.024 543.356 894.024 542.926C894.024 542.552 893.862 542.229 893.435 542.07C892.684 541.802 891.99 541.64 891.56 541.64C888.077 541.64 886.149 548.979 886.149 552.677C886.149 554.231 886.523 555.302 887.006 555.302C888.13 555.302 890.167 553.857 891.722 552.409C892.151 552.035 892.363 551.552 892.419 551.175L892.417 551.178Z" fill="black"/>
<path d="M921.078 535.211C923.757 535.211 927.614 539.123 927.614 541.802C927.614 544.213 925.577 555.411 923.916 561.679C923.754 562.108 923.274 562.535 922.792 562.535C921.558 562.535 918.399 561.358 917.219 560.713C916.789 560.445 916.577 559.963 916.577 559.48C916.577 559.265 916.63 558.997 916.63 558.997C916.63 558.997 919.362 547.746 919.362 544.316C919.362 543.406 919.2 542.815 918.826 542.815C918.023 542.815 915.718 544.101 913.736 546.136C913.201 546.671 912.933 547.313 912.827 547.849C911.861 552.671 910.683 558.671 910.042 561.618C909.935 562.1 909.506 562.474 909.023 562.474C907.845 562.474 904.307 561.297 903.559 560.92C903.076 560.652 902.862 560.223 902.862 559.742C902.862 559.368 906.076 540.401 906.718 536.009C906.824 535.473 907.307 535.099 907.79 535.099C908.379 535.099 911.914 535.741 912.933 536.171C913.522 536.439 913.898 537.027 913.898 537.616C913.898 538.152 913.951 538.956 913.951 539.759C913.951 540.08 914.057 540.242 914.166 540.242C914.328 540.242 914.54 539.974 914.54 539.974C916.683 537.242 919.147 535.205 921.076 535.205L921.078 535.211Z" fill="black"/>
<path d="M940.634 535.104C943.045 535.104 948.939 537.409 952.369 539.606C952.743 539.873 952.957 540.356 952.957 540.839C952.957 541.054 952.904 541.269 952.904 541.269C951.78 545.876 950.332 554.769 949.048 561.252C948.406 564.573 945.833 572.341 937.905 572.341C935.977 572.341 932.547 571.27 930.887 570.036C930.404 569.715 930.245 569.339 930.245 568.912C930.245 568.27 930.996 565.697 931.264 565.108C931.425 564.734 931.746 564.519 932.12 564.519C932.226 564.519 932.441 564.573 932.55 564.626C934.157 565.323 935.55 565.591 936.568 565.591C940.961 565.591 942.3 560.716 942.3 558.464C942.3 558.196 942.194 558.034 942.085 558.034C941.977 558.034 941.924 558.087 941.764 558.302C940.157 560.551 938.282 562.215 936.727 562.215C932.924 562.215 928.853 557.766 928.853 552.57C928.853 543.568 933.407 535.104 940.64 535.104H940.634ZM942.778 551.178C943.366 548.393 944.385 543.356 944.385 542.926C944.385 542.552 944.223 542.229 943.796 542.07C943.045 541.802 942.351 541.64 941.921 541.64C938.438 541.64 936.51 548.979 936.51 552.677C936.51 554.231 936.884 555.302 937.367 555.302C938.491 555.302 940.528 553.857 942.083 552.409C942.512 552.035 942.725 551.552 942.778 551.175V551.178Z" fill="black"/>
<path d="M976.908 545.926C976.908 550.695 974.015 562.588 965.389 562.588C962.978 562.588 958.424 561.249 955.96 558.623C954.459 557.016 953.711 554.552 953.711 551.552C953.711 545.443 957.299 535.051 964.694 535.051C967.479 535.051 972.516 537.141 974.821 539.444C976.214 540.889 976.858 543.462 976.911 545.658V545.926H976.908ZM969.084 545.284C969.084 542.873 968.333 541.266 966.888 541.266C963.941 541.266 961.424 548.284 961.424 552.57C961.424 554.713 962.121 556.268 963.673 556.268C966.941 556.268 969.084 549.356 969.084 545.284Z" fill="black"/>
<path d="M991.587 546.998C991.587 546.568 992.284 543.998 992.284 542.98C992.284 541.961 992.016 541.319 991.266 541.319C988.908 541.319 985.908 546.945 985.908 551.284C985.908 553.91 987.086 555.517 989.07 555.517C990.945 555.517 992.982 554.767 994.48 553.91C994.48 553.91 994.695 553.804 994.91 553.804C995.284 553.804 995.499 553.966 995.714 554.34C996.088 555.037 997.106 557.233 997.106 557.984C997.106 558.573 996.891 559.003 996.571 559.324C994.642 561.037 992.122 562.591 989.123 562.591C987.353 562.591 982.425 561.146 980.388 558.573C978.943 556.751 978.192 554.448 978.192 551.502C978.192 544.001 983.12 535.054 989.229 535.054C991.319 535.054 999.568 537.895 999.568 542.234C999.568 543.521 998.549 546.091 998.013 546.95C997.746 547.38 997.316 547.701 996.727 547.754C995.87 547.807 993.618 547.807 992.388 547.807C991.905 547.754 991.584 547.433 991.584 547.003L991.587 546.998Z" fill="black"/>
<path d="M1023.57 545.926C1023.57 550.695 1020.68 562.588 1012.05 562.588C1009.64 562.588 1005.09 561.249 1002.62 558.623C1001.12 557.016 1000.37 554.552 1000.37 551.552C1000.37 545.443 1003.96 535.051 1011.36 535.051C1014.14 535.051 1019.18 537.141 1021.48 539.444C1022.88 540.889 1023.52 543.462 1023.57 545.658V545.926H1023.57ZM1015.75 545.284C1015.75 542.873 1015 541.266 1013.55 541.266C1010.61 541.266 1008.09 548.284 1008.09 552.57C1008.09 554.713 1008.79 556.268 1010.34 556.268C1013.61 556.268 1015.75 549.356 1015.75 545.284Z" fill="black"/>
<path d="M1042.38 535.211C1045.06 535.211 1048.92 539.123 1048.92 541.802C1048.92 544.213 1046.88 555.411 1045.22 561.679C1045.06 562.108 1044.58 562.535 1044.09 562.535C1042.86 562.535 1039.7 561.358 1038.52 560.713C1038.09 560.445 1037.88 559.963 1037.88 559.48C1037.88 559.265 1037.93 558.997 1037.93 558.997C1037.93 558.997 1040.66 547.746 1040.66 544.316C1040.66 543.406 1040.5 542.815 1040.13 542.815C1039.32 542.815 1037.02 544.101 1035.04 546.136C1034.5 546.671 1034.23 547.313 1034.13 547.849C1033.16 552.671 1031.99 558.671 1031.34 561.618C1031.24 562.1 1030.81 562.474 1030.32 562.474C1029.15 562.474 1025.61 561.297 1024.86 560.92C1024.38 560.652 1024.16 560.223 1024.16 559.742C1024.16 559.368 1027.38 540.401 1028.02 536.009C1028.13 535.473 1028.61 535.099 1029.09 535.099C1029.68 535.099 1033.22 535.741 1034.23 536.171C1034.82 536.439 1035.2 537.027 1035.2 537.616C1035.2 538.152 1035.25 538.956 1035.25 539.759C1035.25 540.08 1035.36 540.242 1035.47 540.242C1035.63 540.242 1035.84 539.974 1035.84 539.974C1037.98 537.242 1040.45 535.205 1042.38 535.205L1042.38 535.211Z" fill="black"/>
<path d="M1057.33 558.143C1057.33 560.769 1055.67 562.697 1052.93 562.697C1050.2 562.697 1048.97 560.66 1048.97 558.464C1048.97 556.589 1049.67 555.623 1050.84 554.552C1051.16 554.231 1051.81 553.963 1052.34 553.963C1054.76 553.963 1057.33 555.302 1057.33 558.143H1057.33Z" fill="black"/>
<path d="M1084.65 537.889C1084.65 538.104 1084.54 538.425 1084.54 538.425C1082.13 546.3 1080.85 556.857 1080.69 561.623C1080.69 562.106 1080.31 562.533 1079.83 562.533C1078.71 562.533 1076.19 561.835 1075.44 561.514C1074.9 561.299 1074.53 560.817 1074.37 560.069C1074.26 559.639 1074.21 558.355 1074.15 557.496C1074.15 557.122 1074.05 556.907 1073.88 556.907C1073.72 556.907 1073.56 557.228 1073.56 557.228C1071.64 560.443 1069.22 562.639 1067.24 562.639C1064.08 562.639 1059.9 558.353 1059.9 554.119C1059.9 547.584 1062.21 539.6 1063.55 536.279C1063.71 535.85 1064.13 535.476 1064.62 535.476C1065.37 535.476 1068.8 536.815 1070.03 537.513C1070.4 537.728 1070.67 538.102 1070.67 538.531C1070.67 538.905 1070.56 539.229 1070.56 539.229C1069.49 542.391 1067.46 550.642 1067.46 553.801C1067.46 554.605 1067.56 555.088 1067.89 555.088C1069.22 555.088 1071.74 553.265 1073.51 550.963C1073.83 550.533 1073.99 550.159 1074.1 549.518C1074.8 544.749 1076.19 539.017 1077.15 536.232C1077.31 535.749 1077.79 535.375 1078.33 535.375C1079.13 535.375 1082.24 536.232 1083.85 536.929C1084.28 537.091 1084.65 537.465 1084.65 537.895L1084.65 537.889Z" fill="black"/>
<path d="M1094.08 535.104C1097.03 535.104 1105.87 537.836 1105.87 541.802C1105.87 543.194 1104.8 545.337 1104.37 545.926C1103.94 546.515 1103.4 546.677 1102.92 546.73H1098.9C1098.37 546.73 1098.1 546.356 1098.1 546.032C1098.1 545.603 1098.63 544.21 1098.63 543.139C1098.63 541.693 1097.99 540.942 1097.19 540.942C1095.37 540.942 1093.76 543.942 1093.76 545.39C1093.76 549.088 1103.94 548.231 1103.94 554.393C1103.94 558.249 1100.14 562.644 1094.67 562.644C1091.45 562.644 1086.74 561.09 1085.03 559.536C1084.54 559.106 1084.44 558.732 1084.44 558.464C1084.44 557.766 1085.08 555.411 1085.56 554.393C1085.78 553.91 1085.99 553.751 1086.31 553.751C1086.63 553.751 1086.85 553.966 1086.95 553.966C1088.83 554.984 1091.45 556.377 1093.65 556.377C1094.88 556.377 1096.01 555.947 1096.11 555.09C1096.11 552.841 1085.77 552.573 1085.77 545.608C1085.77 541.322 1089.69 535.107 1094.08 535.107L1094.08 535.104Z" fill="black"/>
<path d="M878.057 537.407C878.057 539.55 874.468 557.928 873.717 561.411C873.677 561.586 873.635 561.769 873.59 561.952C873.582 561.952 873.574 561.952 873.566 561.954C872.717 565.554 869.985 572.338 862.575 572.338C860.646 572.338 857.217 571.267 855.556 570.036C855.074 569.715 854.914 569.339 854.914 568.912C854.914 568.267 855.665 565.697 855.933 565.105C856.092 564.731 856.413 564.517 856.79 564.517C856.896 564.517 857.111 564.57 857.217 564.625C858.824 565.32 860.219 565.588 861.235 565.588C862.362 565.588 863.455 565.238 864.338 564.532C864.739 564.214 865.086 563.835 865.386 563.421C866.001 562.572 866.155 561.517 866.338 560.511C866.55 559.347 866.763 558.18 866.97 557.013C867.314 555.074 867.646 553.135 867.977 551.196C868.333 549.112 868.683 547.027 869.036 544.942C869.351 543.069 869.667 541.199 869.993 539.33C870.176 538.279 870.343 537.221 870.556 536.173C870.664 535.637 871.144 535.261 871.736 535.261C872.484 535.261 875.754 535.797 877.2 536.173C877.683 536.332 878.057 536.868 878.057 537.404V537.407Z" fill="black"/>
</g>
</g>
<defs>
<clipPath id="clip0_453_184">
<rect width="1200" height="675" fill="white"/>
</clipPath>
<clipPath id="clip1_453_184">
<rect width="44" height="46" fill="white" transform="translate(782 464)"/>
</clipPath>
<clipPath id="clip2_453_184">
<rect width="27.5488" height="28.801" fill="white" transform="translate(844 481.625) rotate(-68.4586)"/>
</clipPath>
<clipPath id="clip3_453_184">
<rect width="185.59" height="139.13" fill="white" transform="matrix(-0.833634 -0.552317 -0.552317 0.833634 815.558 649.504)"/>
</clipPath>
<clipPath id="clip4_453_184">
<rect width="56.18" height="138.92" fill="white" transform="translate(1103.98 112.736) rotate(-9.06899)"/>
</clipPath>
<clipPath id="clip5_453_184">
<rect width="41.73" height="27.85" fill="white" transform="translate(1137.1 38.2676) rotate(30.8661)"/>
</clipPath>
<clipPath id="clip6_453_184">
<rect width="58.11" height="86.16" fill="white" transform="translate(779.544 44.3315) rotate(-15.5001)"/>
</clipPath>
<clipPath id="clip7_453_184">
<rect width="35.71" height="36.03" fill="white" transform="translate(817 166)"/>
</clipPath>
<clipPath id="clip8_453_184">
<rect width="17.61" height="18.03" fill="white" transform="translate(776 148)"/>
</clipPath>
<clipPath id="clip9_453_184">
<rect width="263.867" height="95.1252" fill="white" transform="translate(842 501)"/>
</clipPath>
</defs>
</svg>
